<?xml version="1.0" standalone="no"?>
<!DOCTYPE svg PUBLIC "-//W3C//DTD SVG 1.1//EN" "http://www.w3.org/Graphics/SVG/1.1/DTD/svg11.dtd" >
<svg xmlns="http://www.w3.org/2000/svg" xmlns:xlink="http://www.w3.org/1999/xlink" version="1.1">
<metadata>
Created by FontForge 20190801 at Fri Mar 24 13:34:48 2017
 By Jimmy Wärting
Copyright (c) 2014  by Guilhem GRECO . All rights reserved.
</metadata>
<defs>
<font id="BirdsofParadise-PersonaluseOnly" horiz-adv-x="1091" >
  <font-face 
    font-family="Birds of Paradise  Personal use"
    font-weight="400"
    font-stretch="normal"
    units-per-em="1000"
    panose-1="0 0 0 0 0 0 0 0 0 0"
    ascent="750"
    descent="-250"
    x-height="436"
    cap-height="840.5"
    bbox="-499.889 -332.525 1398.94 999.385"
    underline-thickness="42"
    underline-position="-83"
    unicode-range="U+000D-2265"
  />
<missing-glyph horiz-adv-x="417" 
 />
    <glyph glyph-name=".notdef" horiz-adv-x="417" 
 />
    <glyph glyph-name="NULL" horiz-adv-x="0" 
 />
    <glyph glyph-name="NULL" horiz-adv-x="0" 
 />
    <glyph glyph-name="nonmarkingreturn" unicode="&#xd;" horiz-adv-x="417" 
 />
    <glyph glyph-name="space" unicode=" " horiz-adv-x="350" 
 />
    <glyph glyph-name="E" unicode="E" horiz-adv-x="499" 
d="M238 587q-22 4 -46 11t-45.5 18.5t-38.5 28t-26 40.5q-8 24 -4 46t16 40.5t30.5 32.5t38.5 23q4 1 17.5 4.5t31 6.5t36.5 4t34.5 -1t24 -9.5t5.5 -21.5q-2 -7 -8 -9t-13.5 -1.5t-15 2.5t-12.5 3q-23 4 -48 -2t-45 -21q-23 -17 -29 -44t8 -52q14 -28 41 -42.5t54 -24.5
q13 51 45 89.5t74.5 65.5t91.5 43t98 22q18 2 40.5 1.5t44 -3.5t40 -9.5t29.5 -15.5q20 -21 21 -44t-9.5 -45t-29 -41t-36.5 -31q-49 -33 -111.5 -49t-119.5 -22q-18 -2 -42.5 -1t-41.5 -2q-6 -3 -7.5 -8t1.5 -10t9.5 -8.5t16.5 -3.5q16 1 35 3t38.5 1.5t37.5 -6t33 -18.5
q11 -10 11.5 -20.5t-6 -19.5t-17.5 -15.5t-22 -9.5q-28 -8 -61 -5t-61 11q-14 5 -26 13t-26 13q-16 5 -30.5 -1t-27.5 -13q-28 -16 -53 -36t-45 -45q-20 -24 -34.5 -52t-22 -58t-6.5 -61t13 -61q19 -47 54 -68.5t77 -24.5t86 8.5t81 29.5q45 23 83.5 53.5t70.5 68.5
q9 11 17 22t15 24q2 4 4 10t5 12t7 10.5t9 5.5q9 2 11.5 -2.5t1 -11.5t-4.5 -14t-5 -10q-22 -44 -53 -84.5t-68.5 -75.5t-80 -62.5t-88.5 -44.5q-30 -11 -63 -17.5t-66 -6.5t-65.5 7.5t-60.5 22.5t-50 40.5t-36 57.5q-24 54 -17.5 108t32.5 102.5t67.5 88t87.5 65.5
q29 16 60 26t63 20q-10 14 -13.5 29t-10.5 31zM354 515q10 -9 21 -16t25 -7q8 0 17 3t3 14q-4 7 -12.5 9t-18.5 1.5t-19.5 -2t-15.5 -2.5zM341 612q51 0 101 8t96 28q16 7 39 20t43 30t31 37.5t2 41.5q-4 12 -13 19t-20.5 10t-24 3t-23.5 -2q-26 -4 -52 -14t-49 -24
q-31 -19 -57.5 -40t-45.5 -50q-9 -14 -15.5 -32t-11.5 -35z" />
    <glyph glyph-name="F" unicode="F" horiz-adv-x="638" 
d="M634 412l-18 -35q-14 -25 -26.5 -51t-27.5 -52q-27 -47 -59.5 -90.5t-74.5 -78.5q-39 -32 -84.5 -55t-94.5 -37t-102 -19t-103 12q-23 7 -45.5 24t-35.5 38.5t-12.5 46t22.5 47.5q17 17 42 20.5t43 -14.5q17 -18 15 -38q-1 -14 -9 -23t-13 -21q-6 -13 -2 -22.5t13 -16
t21 -10.5t22 -6q28 -5 56 -0.5t54 14.5q59 22 100 64t72.5 92.5t57.5 105.5t55 105h-40q-8 0 -13 4t-5 9v15q0 5 5 9.5t13 4.5h62l31 56q26 43 57.5 81t71.5 70q17 14 35.5 25.5t37.5 22.5q6 3 15.5 8.5t19 9.5t19 5.5t17.5 -3.5q6 -4 5.5 -8.5t-4 -9t-8.5 -8t-9 -6.5
q-13 -8 -23 -16t-21 -21q-17 -20 -28.5 -42.5t-25.5 -45.5q-16 -28 -26 -47t-16.5 -32t-10.5 -22t-7 -17h55q8 0 13.5 -4.5t5.5 -9.5v-15q0 -5 -5.5 -9t-13.5 -4h-73zM239 241q-41 0 -68.5 21.5t-41.5 55.5q-9 22 -11.5 46.5t-1.5 47.5q0 41 11.5 80.5t30 76t44 69
t54.5 60.5q60 58 134 94t157 47q48 6 96 3.5t96 -10.5q50 -9 97 -14t98 -6q20 1 41 3.5t38 11.5q4 2 10.5 5t13 4.5t12 0t6.5 -9.5q-3 -9 -12.5 -17.5t-21 -16t-23 -13t-18.5 -8.5q-40 -18 -82.5 -23.5t-85.5 -3.5t-86 8.5t-85 12.5t-85 8.5t-84 -2.5t-80 -20t-73 -45
q-23 -24 -39.5 -45t-30.5 -47q-23 -42 -37 -89t-12 -94q1 -21 6 -41.5t16 -37t28 -26.5t41 -9q19 1 37.5 7t34.5 16q12 8 22.5 17t21.5 15q11 7 22.5 5t6.5 -19q-4 -12 -16 -21.5t-22 -18.5q-17 -15 -35.5 -29t-38 -25t-40.5 -17.5t-45 -6.5z" />
    <glyph glyph-name="G" unicode="G" horiz-adv-x="732" 
d="M380 15q-41 -18 -88 -24.5t-89 11.5q-35 15 -56.5 48t-28.5 68q-9 49 1 97t26 93t36 86t49 78q-33 15 -61.5 39t-46.5 53.5t-23.5 64.5t6.5 73t40.5 62t64.5 36t75.5 13t74.5 -7q17 -4 38 -11t37 -18q5 -4 10 -10.5t-3 -13.5q-6 -5 -15 -1.5t-15 5.5q-32 13 -68.5 13.5
t-71.5 -9.5q-32 -9 -59 -29.5t-36 -54.5q-11 -34 -2 -71.5t32 -63.5q3 -5 9 -11.5t13.5 -12.5t15 -9t14.5 0t13 11.5t11 13.5q8 10 16 18t18 17q28 28 59 52t63 47q68 48 141 89t152 61q28 8 68 14t77.5 2.5t66.5 -21t35 -57.5q7 -37 -4.5 -70t-33.5 -61.5t-50.5 -51.5
t-56.5 -40q-74 -49 -155.5 -76t-169.5 -31q-41 -3 -82 0t-80 11q-9 2 -20.5 -12.5t-22.5 -34t-19.5 -39t-12.5 -27.5q-8 -17 -15.5 -42t-12 -52.5t-4.5 -55.5t7 -52.5t22.5 -42t42.5 -24.5q40 -10 78 3.5t72 40t62 59t49 60.5q26 33 49 67.5t45 70.5q8 16 18.5 16.5
t26.5 -0.5h43q14 0 30 1q-38 -65 -73.5 -132.5t-72 -134.5t-76.5 -132t-87 -124q-53 -66 -119.5 -105.5t-147.5 -62.5q-29 -8 -68.5 -12.5t-77.5 1t-68.5 24.5t-41.5 57q-5 15 -3 32t8.5 32.5t18.5 27.5t28 18q18 6 32 1t23 -16t12.5 -27t-0.5 -32q-2 -7 -6.5 -12l-9 -10
t-8 -10.5t-4.5 -12.5q-2 -14 8.5 -23t23.5 -14q35 -14 71 -5.5t68 24.5q38 18 69 44t57 57t48.5 65t43.5 68q22 37 43.5 74.5t43.5 75.5q-32 -27 -67 -51.5t-73 -42.5zM352 464q63 -14 131.5 -11t134 21.5t124 53.5t101.5 85q9 10 19 23t18 27t12.5 29.5t2.5 30.5
q-4 32 -28.5 48t-53.5 19q-66 8 -127 -18t-114 -65q-66 -49 -119 -112t-101 -131z" />
    <glyph glyph-name="H" unicode="H" horiz-adv-x="898" 
d="M467 372h-40q-8 0 -13 3t-5 8v15q0 5 5 9.5t13 4.5h63l30 50q45 70 101 127.5t120 109.5q-74 16 -146.5 28t-147.5 7q-48 -3 -90.5 -21.5t-74.5 -49t-52.5 -72t-23.5 -89.5q-3 -30 5.5 -48t32.5 -35q20 -15 42.5 -16t42.5 11q17 8 31 22t26 29q5 5 10 8t10 -7
q4 -8 -1.5 -15t-10.5 -12q-20 -28 -44.5 -51.5t-56.5 -34.5q-27 -10 -52.5 -13.5t-52.5 9.5q-45 19 -56 72q-8 53 12 99t49 88q30 45 72 81t88 62q85 48 179.5 55.5t187.5 -24.5q18 -5 37 -12t37 -15q9 -3 13 -5t12 2q27 8 50 21t51 19q12 3 33 7t40.5 3t32.5 -9.5t11 -30.5
q-4 -20 -21.5 -33.5t-40.5 -22t-47 -12.5t-41 -5h-22.5t-23.5 2q-17 1 -22.5 -0.5t-16.5 -12.5q-32 -36 -61 -77q-28 -38 -51 -77.5t-47 -80.5q-5 -8 -9.5 -15.5t-9.5 -15.5h194q5 2 9.5 9t7.5 12q25 42 52 81.5t58 77.5q54 69 114 125.5t140 94.5q37 19 78.5 32t83.5 3
q8 -3 18 -7.5t17 -12.5q5 -8 1.5 -17t-14.5 -11q-8 -3 -12 3t-12 10q-6 5 -13.5 5.5t-14.5 0.5q-21 1 -40.5 -4.5t-37.5 -16t-34.5 -23t-31.5 -24.5q-39 -32 -70.5 -72t-60.5 -81q-26 -38 -49 -76.5t-48 -77.5q-38 -60 -75 -120t-76 -121l-111 -184q-8 -14 -11.5 -16
t-18.5 -2h-96q49 81 97.5 162t96.5 162l29 47h-194q-2 -2 -4.5 -7l-3.5 -7q-10 -18 -23 -38q-29 -48 -59 -94.5t-68 -89.5q-51 -56 -117 -92.5t-138 -55.5q-32 -9 -72 -12.5t-76 4.5t-61.5 31t-26.5 67q-1 18 4 35t15.5 30t26 19.5t35.5 3.5q26 -5 30 -27t2 -44
q-1 -9 -3 -14t-10 -10q-10 -8 -14 -13.5t-1 -19.5t14 -21t24.5 -9t28 -1t25.5 3q24 4 44.5 15.5t39.5 23.5q26 16 48 35.5t42 43.5q48 55 85.5 117t76.5 123zM867 734q17 -5 34.5 -7.5t35.5 0.5q5 1 11.5 3.5t12.5 6.5t9.5 9.5t1.5 12.5q-5 12 -20 10.5t-32 -8t-32.5 -15.5
t-20.5 -12z" />
    <glyph glyph-name="I" unicode="I" horiz-adv-x="602" 
d="M542 720q-28 -18 -55 -39.5t-50.5 -47t-41.5 -54.5t-28 -62q-6 -14 -8.5 -30t0 -31.5t10.5 -29t24 -22.5q11 -5 24.5 -7t25.5 1q15 4 27 15.5t26 15.5q8 2 10.5 -0.5t1 -7.5t-4.5 -10.5t-6 -9.5q-10 -11 -22.5 -19t-26.5 -15q-23 -11 -49 -15.5t-53 0.5q-32 5 -52.5 22.5
t-31 41.5t-10 52.5t10.5 57.5q22 65 69.5 114t103.5 84q54 36 114.5 58.5t122.5 36.5q66 14 136.5 21.5t136.5 -4.5q4 -1 10.5 -3t11.5 -5t7.5 -7.5t-1.5 -10.5q-5 -10 -17 -8t-20 2q-25 -1 -45.5 -16.5t-38.5 -34.5q-36 -47 -63.5 -101t-54.5 -107q-33 -62 -66.5 -124
t-72 -120.5t-84.5 -111.5t-104 -95q-57 -44 -123 -70t-138 -31q-26 -2 -62 2t-67.5 16.5t-51.5 36t-14 61.5q4 27 24 49t52 20q13 0 25 -8t18.5 -20t6.5 -26t-9 -26q-6 -8 -15.5 -14t-10.5 -20q0 -9 6 -15t13 -10q17 -10 36.5 -15t38.5 -5q34 0 65.5 11.5t60 30t53.5 42.5
t46 49q45 55 81.5 117t73.5 123q40 66 77.5 130.5t82.5 125.5q23 26 45.5 51t47.5 46q20 17 41.5 29.5t42.5 26.5q8 4 10.5 5.5t-5.5 3.5q-30 5 -74.5 -3.5t-90.5 -23.5t-87 -32.5t-65 -30.5z" />
    <glyph glyph-name="J" unicode="J" horiz-adv-x="782" 
d="M673 687q-60 -42 -111 -96t-78 -123q-6 -16 -10.5 -35t-4.5 -37.5t6 -36t21 -29.5q23 -19 52.5 -14.5t49.5 21.5q4 3 8.5 8.5t10 10t11 6t10.5 -1.5t5.5 -7.5t-2 -9.5t-6 -9.5t-6.5 -6.5q-24 -27 -58.5 -45.5t-69.5 -22.5q-34 -3 -62 8.5t-47.5 33.5t-29 51.5t-5.5 61.5
q5 38 20.5 73t37.5 66.5t49 58.5t56 50q60 49 128.5 82t142 54t149.5 30.5t151 10.5q16 1 31.5 1.5t32.5 -1.5q5 0 15 -3.5t17.5 -9t10 -12t-6.5 -13.5q-5 -3 -13 -2.5t-16.5 2.5l-17 4t-14.5 2q-17 -2 -33 -9.5t-30 -18.5q-30 -24 -54 -54.5t-44 -64t-37 -68.5t-33 -69
q-35 -72 -70 -145t-74 -144t-82.5 -139t-95.5 -129q-52 -62 -112.5 -114t-132.5 -87q-33 -17 -70 -30.5t-76 -20t-78 -5.5t-76 15q-31 12 -54 36t-27 59q-2 13 0 27.5t8 27.5t16 22.5t24 12.5q15 4 29 0t24.5 -13.5t16 -22.5t3.5 -28q-3 -15 -12 -28.5t-8 -29.5
q1 -20 18.5 -30.5t33.5 -14.5q36 -11 70 -3.5t65 25.5t59 43t51 49q57 63 104.5 132.5t89.5 143.5l92 158t93 158q42 72 87 141.5t107 126.5q29 28 61 52t69 41q-106 2 -199.5 -31t-179.5 -91z" />
    <glyph glyph-name="K" unicode="K" horiz-adv-x="854" 
d="M651 737q-39 6 -80.5 9t-82 0t-79.5 -13.5t-72 -31.5q-35 -22 -59.5 -54.5t-35.5 -72.5q-5 -18 -7 -38.5t1 -41t12.5 -38t28.5 -29.5q25 -16 55 -12t54 17q29 15 46 37q9 11 15.5 23.5t18.5 19.5q3 -14 0 -26.5t-9.5 -23.5t-16 -21.5t-18.5 -19.5q-19 -22 -43 -39
t-50 -27q-23 -8 -47 -8.5t-45 7t-36.5 23.5t-22.5 42q-7 27 -5 54t10 54t21 52t28 48q32 49 76.5 89t95.5 68q58 32 118.5 38.5t123.5 -10.5q29 -8 61 -18t70 -22q23 5 36.5 14t32.5 17q11 5 29 13t37 12t36 1.5t26 -17.5q11 -17 5.5 -30.5t-19 -23.5t-30.5 -17t-29 -10
q-33 -9 -64 -11q-8 -1 -20.5 -1t-20.5 -1q-15 -2 -21.5 -12t-14.5 -22q-38 -55 -66 -113.5t-60 -118.5q-27 -51 -56 -103t-62 -101.5t-72 -94t-87 -80.5q-45 -34 -99 -57t-111 -29q-25 -3 -53 -1t-54.5 10t-48 23.5t-34.5 40.5q-11 23 -5.5 49.5t25.5 43.5q17 18 41 18.5
t40 -19.5q9 -11 11 -24t0 -24.5t-6.5 -20t-10.5 -9.5q-7 -3 -9.5 -10.5t-1 -16t6.5 -16.5t14 -12q24 -11 50 -10t51 8.5t48 21t41 28.5q37 32 64 72.5t50 82.5q31 53 60.5 107.5t60.5 107.5t65 104t75 97q21 25 44 47t46 42q-32 6 -66 10zM670 395q-6 0 -14.5 1.5t-15.5 4.5
t-11 9t-2 15q4 16 23 20.5t32 2.5q17 -2 36 -7t37 6q13 14 28.5 28.5t29.5 28.5q63 66 120.5 138.5t122.5 137.5q25 24 55.5 43.5t66.5 18.5q11 0 23 -3.5t20 -13.5q8 -11 8 -27t-11 -26q-6 -6 -14.5 -7.5t-17.5 -0.5l-18 2t-16 1q-22 -2 -41.5 -13t-37.5 -23
q-38 -26 -69.5 -58t-62.5 -67q-32 -35 -63.5 -70t-64.5 -68q-5 -4 -14.5 -11.5t-18.5 -15t-16 -13t-7 -6.5q2 -8 7.5 -15t10.5 -14q5 -5 7.5 -12t5.5 -13q10 -20 10.5 -42t-5 -44t-14.5 -42.5t-17 -37.5q-5 -11 -15 -31.5t-16.5 -42.5t-6 -41t17.5 -27q16 -4 34 5t34.5 23
t30 29.5t21.5 25.5q13 17 26 32.5t24 33.5q2 4 5.5 12t8.5 15t11 12t13 4q12 -1 7.5 -15t-14.5 -30.5t-21.5 -30.5t-12.5 -17q-27 -37 -55.5 -71.5t-66.5 -57.5q-17 -12 -37 -21t-41 -11.5t-41 2.5t-36 22q-13 13 -18.5 29.5t-5.5 34t4.5 35.5t10.5 34q13 31 33 60.5t38 60
t29 63t4 68.5q-31 -9 -57 -12zM830 756q8 -2 20 -2t24.5 1t24 4.5t19.5 9.5q12 10 5 17.5t-20 9.5q-22 1 -40 -11.5t-33 -28.5z" />
    <glyph glyph-name="L" unicode="L" horiz-adv-x="684" 
d="M402 350q-44 1 -87.5 9t-78.5 37q-32 28 -45.5 69.5t-10.5 83.5q4 40 22.5 75t46 63.5t61.5 50.5t70 36q28 11 66 15t76 -12q5 -5 7.5 -11.5t1.5 -12t-5.5 -9t-13.5 -2.5q-9 0 -17.5 6t-17.5 9q-11 4 -22.5 4t-22.5 -2q-38 -5 -70.5 -27t-56 -54.5t-35.5 -71t-9 -74.5
q3 -38 22.5 -69.5t51.5 -51.5q13 -10 29.5 -16t33.5 -7q21 0 31.5 11t20.5 28q45 86 99 163.5t126 141.5q32 29 68.5 53.5t78.5 40.5q15 5 33.5 9.5t38 5t37.5 -3.5t32 -16q19 -18 20.5 -43.5t-7.5 -52.5t-23.5 -51.5t-26.5 -40.5q-56 -76 -134.5 -139t-168.5 -98
q-20 -8 -42.5 -13.5t-38.5 -21.5q-26 -26 -45 -60.5t-38 -70.5t-42 -68.5t-57 -54.5q23 -9 45 -17t45 -16q24 -9 47.5 -17t49.5 -12q18 -2 37 -1t33 13q5 4 11 12t15 6q8 -2 8 -7.5t-4 -10.5q-6 -15 -17 -25.5t-25.5 -17.5t-30 -11.5t-28.5 -7.5q-23 -5 -47 -3.5t-48.5 6.5
t-48.5 12.5t-45 14.5q-17 5 -34 15.5t-35 11.5q-11 0 -20 -5t-19 -10q-21 -10 -46 -16q-21 -6 -43.5 -11.5t-45.5 -8t-46.5 -1.5t-45.5 8q-15 5 -32 15.5t-28 24.5t-12 30.5t16 33.5q29 29 71 38.5t80 10.5q26 1 53 -4t53 -13q9 -2 19.5 -7t20.5 -3q11 2 16 11t10 17
q32 47 59.5 92t53.5 96zM214 90q-32 15 -68.5 25.5t-73.5 5.5q-10 -2 -22 -6t-21 -10.5t-13.5 -17t0.5 -23.5q4 -11 13 -16.5t20.5 -7.5t23 -2t22.5 1q34 3 64.5 15.5t54.5 35.5zM575 417q26 10 51 21t46 28q26 17 49 37l46 40q38 35 71 75.5t59 88.5q9 15 18.5 36t5.5 41
q-3 12 -12 18t-19.5 6.5t-22 -2.5t-20.5 -7q-22 -11 -40 -27.5t-34 -37t-30.5 -42t-27.5 -40.5q-38 -58 -71.5 -116.5t-68.5 -118.5z" />
    <glyph glyph-name="M" unicode="M" horiz-adv-x="1065" 
d="M1045 655q30 31 64.5 59t69.5 53q22 14 45 27t48 23q20 8 43.5 16.5t43.5 6.5q14 -2 18 -11t-10 -14q-18 -9 -35 -14t-34 -17q-23 -15 -40.5 -35.5t-34.5 -41.5q-19 -22 -36.5 -43t-34.5 -44q-45 -60 -81.5 -125t-69.5 -133q-22 -38 -40 -77.5t-30 -82.5q-3 -11 -7.5 -32
t-4 -40.5t8.5 -32t31 -6.5q17 4 32 15t28.5 25t25.5 29.5t22 27.5q13 17 25.5 38t27.5 36q12 14 19.5 5t0.5 -21q-6 -15 -16 -28.5t-21 -25.5q-31 -39 -64.5 -77.5t-70.5 -72.5q-14 -12 -31.5 -22.5t-36 -16t-37.5 -3.5t-35 16q-18 15 -24 37t-5 45t7 46.5t12 41.5
q19 64 48.5 125t65.5 118.5t76.5 111.5t83.5 105l21 24q-113 -92 -195 -213q-35 -56 -72 -108t-74 -106q-42 -57 -86 -109.5t-102 -94.5q-11 -8 -23 -17.5t-24 -14.5q-14 -6 -18.5 3.5t3.5 18.5t15.5 17t14.5 19q16 24 27 51t20 53q22 64 38 129t35 129q12 44 28.5 86
t36.5 83q-21 -22 -36.5 -46.5t-32.5 -48.5q-26 -39 -52.5 -78t-53.5 -78q-19 -27 -37.5 -54.5t-36.5 -53.5q-11 -17 -22 -32.5t-23 -32.5q-30 -38 -65 -72t-72 -66q-28 -23 -64.5 -42.5t-76 -28t-78.5 -3t-71 32.5q-33 28 -48 62.5t-17.5 73t6 77.5t22.5 76q15 40 39.5 80.5
t56 76t69 63t79.5 42.5q16 6 35 9.5t38 3.5t36.5 -4.5t32.5 -15.5q29 -23 40 -58.5t7 -70.5q-5 -35 -22.5 -69.5t-44.5 -57.5q-8 -7 -15.5 -14t-15.5 -12q-4 -3 -10 -4.5t-10.5 -0.5t-7 4.5t0.5 10.5q3 6 12.5 13.5t14.5 13.5q14 16 23 34t13 39q5 29 -0.5 61t-31.5 51
q-29 21 -67 19t-69 -15q-35 -16 -64.5 -44.5t-49.5 -61.5q-23 -38 -34 -82t-12 -87q0 -29 6 -58t25 -51q20 -22 49 -30.5t57 -6.5q38 2 75 16.5t71.5 37t64.5 50t54 55.5q50 61 95.5 125.5t90.5 129.5t90.5 129t96.5 124q24 29 51.5 52t59.5 42q3 1 9.5 3t12.5 2t9.5 -3
t0.5 -11q-3 -7 -13 -13t-15 -11q-7 -6 -13 -12.5t-11 -14.5q-14 -21 -23 -46.5t-19 -47.5q-6 -14 -9 -28l-6 -28q-7 -29 -14 -58.5t-14 -58.5q-14 -54 -30.5 -107.5t-34.5 -105.5q-5 -16 -10.5 -30.5t-10.5 -29.5q41 54 79.5 110.5t77.5 112t81 109.5t90 102z" />
    <glyph glyph-name="N" unicode="N" horiz-adv-x="824" 
d="M776 277q47 89 92 178.5t99 176.5q26 41 51 80.5t54 77.5q10 13 28 32.5t39.5 35.5t43.5 22.5t42 -6.5q16 -12 15 -34t-11 -38q-6 -10 -12 -13t-12.5 -3t-14 2t-17.5 2q-22 0 -41 -11.5t-35 -28t-29.5 -35t-25.5 -33.5q-72 -94 -126 -199t-108 -209q-20 -38 -41 -74.5
t-44 -72.5q-8 -17 -18 -33.5t-21 -31.5q-3 -5 -11.5 -16.5t-17.5 -21.5t-16.5 -12.5t-8.5 10.5q-1 8 8 21.5t11 22.5q8 23 12.5 46t5.5 47q3 33 2 65.5t-3.5 65.5t-4.5 66t-1 66q2 63 11 120.5t26 117.5q-27 -54 -57.5 -104.5t-59.5 -103.5q-28 -49 -53.5 -98.5t-54.5 -97.5
q-30 -47 -70 -99.5t-89.5 -95t-107 -67.5t-121.5 -16q-40 5 -66.5 26.5t-42 52.5t-21 67t-3.5 71q4 91 46 166.5t110 133.5q27 22 65 44t77 30.5t73.5 -3.5t55.5 -57q16 -35 11.5 -76t-21.5 -73q-1 -2 -7 -10t-14.5 -18.5t-18.5 -21t-19 -17t-16 -7t-9 9.5q0 3 4 9t10 12
l11.5 11.5t7.5 8.5q8 14 11.5 26t3.5 26q4 34 -9 68.5t-46 51.5q-35 17 -69 9.5t-64 -28.5t-54 -51t-38 -58q-15 -29 -25 -65.5t-11.5 -73t8.5 -71t36 -59.5q27 -27 59 -33t65 1t64 24t56 37q44 34 79.5 76t65.5 88t57.5 94t55.5 95q43 72 88.5 143t99.5 137q4 4 15.5 16.5
t25 24.5t25.5 18.5t18 -1.5q4 -6 2 -11t-6.5 -9.5t-9.5 -8t-8 -6.5q-11 -11 -18 -24.5t-12 -30.5q-11 -38 -12.5 -80.5t-1.5 -83.5q0 -44 2 -87.5t0 -88.5q-1 -48 -10 -95t-18 -95q8 16 17 32t17 33z" />
    <glyph glyph-name="O" unicode="O" horiz-adv-x="525" 
d="M336 352q-32 0 -56.5 23t-35.5 52q-13 34 -8 72.5t18 72.5q15 38 39 71t51 63t57 55.5t65 45.5q33 19 73 30t78 0q34 -11 49.5 -40.5t20.5 -61.5q6 -39 2 -78.5t-14.5 -78.5t-25.5 -76.5t-32 -71.5q-29 -62 -62.5 -119t-77.5 -110q-24 -31 -51 -60t-57.5 -54.5t-64.5 -46
t-72 -33.5q-35 -11 -78.5 -14.5t-80.5 8.5q-32 10 -59 36.5t-41 56.5q-15 33 -19.5 70t-1 75t15 74.5t27.5 68.5q39 77 91 148t118 128q26 23 51.5 44t54.5 40q4 2 14 7.5t21 10t20 5t11 -7.5q1 -5 -4.5 -10t-9.5 -7q-11 -9 -24 -17t-24 -16q-32 -26 -58 -56t-49 -62
q-26 -33 -48.5 -69t-39.5 -75q-14 -30 -26.5 -64t-20 -69t-8.5 -70.5t9 -69.5q12 -36 39.5 -58.5t62 -31t71.5 -3t66 23.5q48 30 101 90t98.5 133.5t77 152t34.5 147.5q1 27 -1.5 54.5t-13 50.5t-30.5 38t-52 16q-38 1 -72 -17t-61 -46.5t-46.5 -63.5t-28.5 -68
q-9 -35 -9.5 -73.5t19.5 -69.5q19 -29 49.5 -34.5t62.5 2.5q26 8 46.5 23.5t41.5 30.5q3 -14 3.5 -20.5t-9.5 -16.5q-8 -7 -15.5 -12.5t-15.5 -12.5q-36 -26 -73 -40.5t-82 -14.5z" />
    <glyph glyph-name="P" unicode="P" horiz-adv-x="762" 
d="M403 107q-38 -28 -79 -51.5t-84.5 -39t-89.5 -21.5t-93 2q-39 5 -68.5 25.5t-36.5 61.5q-3 16 0.5 34.5t13 33.5t25 23t35.5 3q12 -3 22 -14t14.5 -25t2.5 -27.5t-13 -22.5q-16 -12 -15.5 -25t9.5 -23.5t23.5 -17t28.5 -6.5q44 -1 81.5 15t72.5 42q50 41 87.5 91.5
t69 105t60.5 111.5t61.5 110.5t72.5 102.5t93 87q17 12 35 22.5t36 18.5q6 2 15 5.5t18 6t17 2t12 -7.5q4 -8 2.5 -12t-6 -6t-10.5 -2.5t-11 -1.5q-23 -6 -41.5 -21t-33.5 -35.5t-27 -42.5t-22 -41q-33 -59 -59.5 -122t-56.5 -123.5t-68 -115.5t-93 -99zM174 427
q3 53 22 98.5t49.5 84t69.5 71t81 59.5t89 48.5t96.5 34t100 15.5t100.5 -6q42 -8 80.5 -26t65.5 -50q33 -38 39.5 -86t-5.5 -95q-12 -44 -38 -77.5t-61 -56.5t-77 -35t-85 -11q-3 0 -14.5 0.5t-23 3.5t-18 8t0.5 14q5 8 17 4.5t19 -3.5q14 -1 28 0.5t27 6.5q39 13 65.5 43
t44.5 65q21 40 27 86.5t-11 88.5q-17 43 -51 64t-78 26q-48 5 -96 0t-94 -21q-45 -16 -82.5 -42.5t-74.5 -55.5q-34 -29 -60 -63.5t-44 -76.5q-7 -17 -12 -39.5t-4.5 -44.5t8.5 -41.5t27 -30.5q13 -8 30 -9.5t34 0.5t33 8.5t27 15.5q3 2 7 6.5t8.5 9t9 6.5t8.5 0q7 -5 4 -13
t-6 -13q-25 -34 -64.5 -56.5t-77.5 -31.5q-21 -5 -43 -4t-41 8.5t-33 23t-19 39.5q-2 13 -3 25.5t-2 24.5z" />
    <glyph glyph-name="Q" unicode="Q" horiz-adv-x="531" 
d="M243 98q69 46 125.5 106t100.5 129t75.5 145t50.5 154q4 23 7 51.5t-0.5 54.5t-16.5 44t-40 20q-59 2 -111.5 -18.5t-98 -57.5t-84 -87t-69.5 -105t-55 -112t-40 -108q-6 -20 -9 -46t2 -49.5t19.5 -40.5t42.5 -19q12 -1 24 2.5t23.5 9.5t22.5 13t21 14q6 4 15 12.5
t18.5 16.5t17.5 15t12 8q10 1 3.5 -10.5t-19 -26.5t-26 -28t-16.5 -16q-45 -39 -98 -54t-107 12q-23 12 -35.5 30t-18.5 40t-6 45.5t3 47.5q21 100 74 198.5t129.5 177t172 127t201.5 49.5q20 0 38.5 -6t35.5 -15q22 -13 37 -33t23 -43t11 -48.5t2 -49.5q-4 -58 -19 -113.5
t-43 -106.5q-27 -51 -63.5 -96t-79 -85.5t-89.5 -75.5t-95 -65q-14 -10 -27 -18t-27 -17q50 -12 97 -29t95 -35q29 -11 58.5 -19t59.5 -16q26 -7 57 -6.5t57 12.5q18 11 30 25q1 2 4.5 6t7 7.5t7.5 4.5t7 -3q4 -7 -1 -16.5t-13 -19t-16.5 -17.5t-12.5 -12
q-26 -23 -56.5 -39.5t-64.5 -19.5q-40 -5 -74.5 2.5t-66 21.5t-61.5 32.5t-60 35.5t-62 30t-67 18q-10 1 -22.5 -4t-22.5 -7l-72 -20t-74 -5q-11 1 -20 5.5t-14.5 11t-6 15.5t6.5 19q12 17 33 23.5t40 10.5q43 7 84 5.5t83 -5.5q14 -2 24 4t22 12zM127 52q1 4 -16.5 7
t-37.5 2t-35 -7t-9 -20q3 -10 17 -10.5t30.5 4t31 12t19.5 12.5z" />
    <glyph glyph-name="R" unicode="R" horiz-adv-x="866" 
d="M611 587q19 27 45 52.5t57 46.5t64 36.5t66 21.5q3 1 9.5 2t13 1t12 -1.5t6.5 -6.5q2 -9 -8.5 -13t-16.5 -6q-28 -11 -49.5 -29.5t-39.5 -41.5q-21 -28 -39 -58.5t-35 -59.5q-21 -35 -41 -70t-40 -71q-37 -70 -78.5 -135t-98.5 -122q-56 -56 -120 -91.5t-142 -49.5
q-26 -5 -56 -8t-59 1t-54 16t-41 36q-9 13 -13 28.5t-2.5 30.5t8.5 28.5t20 22.5q11 7 24 9.5t25 -0.5t21.5 -12t12.5 -24q2 -14 -1 -27t-13 -22q-11 -14 -9 -24t14 -21q13 -11 30 -15t35 -3.5t35 5.5t32 11q38 18 70 45.5t59.5 61t51.5 70t45 71.5q48 79 97 158t103 157z
M777 319q0 -38 -15 -73t-31 -69q-4 -9 -11 -23.5t-11.5 -30.5t-4.5 -30.5t11 -22.5q7 -6 16 -6.5t18 2t18 7l15 7.5q20 11 37 26t33 34q19 23 35 48.5t36 47.5q3 4 9.5 10.5t12.5 3.5q5 -3 4.5 -8t-3.5 -10.5t-7 -10.5t-5 -7q-21 -27 -41 -55t-42.5 -54t-48 -48.5
t-56.5 -38.5q-28 -14 -61 -18t-61 13q-24 15 -29.5 41t-1.5 51q5 35 20.5 65.5t33.5 59.5q17 31 36.5 62.5t24.5 68.5q2 12 0 24.5t-16 17.5q-10 3 -23 1.5t-18 7.5t-0.5 13t13.5 5.5t18.5 2t13.5 0.5q57 4 110 32t88 75q16 22 28 49.5t16 56t-2.5 56t-26.5 50.5
q-22 27 -51.5 40t-61.5 17t-65.5 1t-64.5 -9q-65 -11 -124 -39.5t-109 -70.5q-24 -21 -46 -46t-38 -53.5t-25.5 -60t-7.5 -65.5q2 -33 24.5 -52t57.5 -15q17 2 30 8.5t27 15.5l4 4t7 5.5t7.5 3.5t5.5 0q4 -3 1 -9.5t-5 -9.5q-11 -19 -31 -33t-37 -26q-19 -12 -37.5 -19.5
t-39.5 -8.5q-37 -3 -60 12.5t-34.5 41.5t-12 57.5t7.5 60.5q18 66 61 122t98 95q53 38 118 66.5t134.5 43t139.5 13t134 -24.5t94 -74.5t20 -117.5q-5 -33 -20.5 -61t-38 -51t-50 -40.5t-57.5 -30.5q-32 -14 -67 -21.5t-70 -12.5q19 -20 32 -41t18 -48z" />
    <glyph glyph-name="S" unicode="S" horiz-adv-x="538" 
d="M444 571q20 -48 39.5 -100.5t28.5 -105.5t3.5 -106t-34.5 -102q-17 -33 -43.5 -57.5t-57.5 -44.5t-68 -35.5t-77 -24t-80 -7.5t-76 14q-30 11 -57 31t-44 48q-18 31 -23.5 67t-3.5 71q1 34 12.5 67t30 63t42.5 56t50 47q21 17 53 32t65.5 20.5t64.5 -2.5t50 -38
q10 -16 14 -34.5t3.5 -38t-4.5 -38.5t-10 -35q-9 -27 -22 -41.5t-30 -27.5q-7 -5 -8.5 -2.5t-1 8t3 12t4.5 9.5q8 14 8.5 23t5.5 25q7 28 -2 59t-27 51q-23 25 -54.5 29.5t-61.5 -9.5q-29 -15 -50.5 -42.5t-35.5 -55.5q-16 -29 -23.5 -62.5t-5.5 -67.5q2 -33 11.5 -65.5
t27 -59.5t43.5 -46.5t62 -26.5q32 -7 68.5 -1.5t65.5 20.5q32 17 54.5 45.5t38.5 59.5q17 31 22.5 65.5t2.5 69t-14 68.5t-27 64q-24 48 -35 102t-4.5 106t32.5 98t76 78q25 19 58 30.5t66.5 11.5t63 -13.5t49.5 -43.5q19 -29 21 -66t-10 -72t-36.5 -62.5t-58.5 -37.5
q-17 -5 -23.5 -4t-6.5 5t4 9t9 8q13 10 22.5 25.5t17.5 28.5q16 29 16.5 66t-13 68t-40.5 48t-66 7q-33 -16 -53 -43.5t-29 -60.5t-7 -68.5t14 -67.5z" />
    <glyph glyph-name="T" unicode="T" horiz-adv-x="639" 
d="M581 296q-24 -40 -51 -76.5t-59 -68.5q-26 -26 -51.5 -52t-57.5 -43q-38 -22 -82 -35t-87 -22q-38 -8 -80 -8t-79 11q-35 11 -60 37t-23 64q1 18 7.5 35t21.5 28q17 11 38 8t34 -18q9 -11 12 -25.5t-2 -27.5q-3 -9 -8.5 -13.5t-10 -8t-5.5 -9t5 -17.5q9 -18 24 -26.5
t32.5 -11.5t36 -1t35.5 6q40 9 72.5 29t59.5 47t50 59t44 65q15 26 30.5 50.5t29.5 50.5q11 22 22 43t22 41q21 38 45.5 73t49.5 70q27 38 58 68.5t70 56.5q21 15 44.5 27t49.5 20q3 0 8 1t9 0.5t6.5 -3.5t0.5 -10q-2 -5 -9 -7t-11 -5q-8 -5 -15 -9t-14 -11
q-33 -30 -54.5 -68.5t-41.5 -77.5q-30 -59 -56 -119t-60 -117zM247 294h-35.5t-35.5 8q-18 8 -32 23.5t-22 32.5q-20 37 -19 81t13 83q13 43 38.5 81.5t58.5 71t70.5 59.5t76.5 48q40 21 83.5 35.5t88.5 20.5q51 8 101.5 6t102.5 -9q35 -4 69 -11.5t68 -14t68 -11.5t70 -4
q19 1 34.5 4t31.5 14q8 5 13 4.5t6.5 -4.5t-1 -10t-8.5 -11q-32 -26 -77 -41t-86 -18q-48 -4 -98 7t-98 20q-30 6 -60 13t-60.5 12t-61.5 7t-61 -1q-47 -6 -89.5 -24t-78 -46.5t-62.5 -66t-43 -81.5q-7 -21 -12.5 -47t-5.5 -52t7 -50.5t24 -42.5q16 -16 37.5 -23t45 -7
t46.5 6.5t41 16.5q3 1 10 7.5t15 12t15 7.5t9 -4q2 -4 -3.5 -10.5t-13 -12.5t-15.5 -11.5t-11 -7.5q-35 -26 -72 -43t-82 -17z" />
    <glyph glyph-name="U" unicode="U" horiz-adv-x="720" 
d="M927 779q2 -3 -2 -12t-9.5 -19.5t-11.5 -19.5t-7 -12q-5 -11 -11.5 -20.5t-13.5 -19.5q-15 -24 -30.5 -48t-29.5 -48q-50 -83 -97 -165t-89 -170q-10 -19 -18.5 -37.5t-16.5 -37.5q-3 -9 -9.5 -23t-11 -29t-4 -29t10.5 -22q11 -9 24 -6t26 11.5t24.5 18.5t18.5 16
q18 17 33.5 35t31.5 37l39 48q4 5 7.5 9.5t11.5 -2.5q7 -6 3.5 -11.5t-7.5 -10.5q-19 -23 -36.5 -47t-37.5 -46q-13 -14 -25.5 -28t-26.5 -28q-12 -13 -28 -27.5t-34 -26t-38 -18.5t-39 -4q-38 6 -52 31.5t-13.5 58.5t11 67.5t22.5 57.5q-28 -28 -53.5 -57t-52.5 -58
q-15 -15 -35.5 -33t-44.5 -33t-49.5 -24.5t-49 -9t-43 14t-32.5 45.5q-15 40 -6 81t24 79q12 32 28.5 61.5t34.5 58.5q21 34 41 67.5t42 66.5q23 38 47.5 75t47.5 75q18 29 35 62.5t19 68.5q1 21 -6 35t-19.5 22t-29.5 11t-35 0q-39 -6 -74 -26t-64 -45q-40 -32 -75 -71
t-60 -84q-20 -38 -38 -83.5t-18 -88.5q1 -42 21 -66.5t64 -20.5q28 3 46 19.5t38 35.5q11 12 14 3.5t-2 -19.5q-7 -12 -16.5 -22t-18.5 -20q-24 -24 -50.5 -45t-62.5 -25q-36 -5 -61.5 14.5t-36.5 54.5q-15 45 -9 92.5t24.5 93t46.5 86.5t57 74q31 35 70.5 68t84.5 57.5
t93.5 38.5t96.5 11q42 -3 71.5 -27t37.5 -66q8 -45 -7 -85t-31 -80q-26 -68 -66.5 -129t-78.5 -123q-12 -19 -24 -37t-24 -38q-17 -30 -35.5 -63.5t-27.5 -68.5q-2 -11 -3 -26t6 -24q9 -12 26.5 -14t30.5 1q20 6 38.5 19t35 29.5t31 34t27.5 32.5q66 79 116.5 166.5
t102.5 176.5q23 42 48 83.5t49 83.5q8 14 14.5 26t14.5 24q8 17 20 35q6 9 8 11t12 3q12 1 27 2.5t29.5 1.5t28.5 -2t25 -9z" />
    <glyph glyph-name="V" unicode="V" horiz-adv-x="618" 
d="M55 259q-45 -3 -68 19.5t-31 56.5t-4 73t13 69q29 91 93 165.5t141 124.5q39 26 81.5 46.5t90.5 25.5q39 5 76.5 -4t57.5 -48q20 -42 17 -81.5t-18 -79.5q-16 -41 -34.5 -77.5t-39.5 -73.5q-26 -44 -51 -87t-50 -88q-14 -26 -28.5 -51.5t-28.5 -51.5q-6 -13 -14 -33
t-11.5 -41t1 -39t24.5 -27q15 -7 31.5 -4t32.5 11t30.5 19t26.5 19q36 26 66 54.5t56 64.5q58 80 106.5 168t77.5 184q4 14 10 33t9 38.5t2.5 38.5t-7.5 33q-3 6 -7 8.5t-7.5 5t-7 5.5t-4.5 10q-4 20 -1.5 39.5t18.5 36.5q12 13 27 18t29 2t25 -14t16 -30q8 -35 1 -75.5
t-17 -73.5q-29 -93 -75.5 -178.5t-101.5 -165.5q-27 -40 -58 -80.5t-65.5 -78t-73.5 -70t-82 -55.5q-31 -17 -66.5 -25t-69.5 4q-32 11 -44.5 38.5t-14.5 59.5q-1 35 7.5 68.5t23 65t32.5 62t35 59.5q42 68 81 135.5t75 139.5q14 25 26.5 52t16.5 56q2 22 -5 37.5t-20.5 24
t-31.5 10t-37 -4.5q-35 -10 -66.5 -29.5t-58.5 -43.5q-36 -31 -68.5 -66t-56.5 -76q-21 -35 -35.5 -73.5t-19.5 -78.5q-1 -13 -1 -28.5t3.5 -29.5t11.5 -25t24 -15q15 -4 29 -1t28 9q21 9 34.5 19.5t26.5 27.5q6 7 15.5 9t8.5 -11q0 -8 -7.5 -19t-11.5 -19
q-11 -17 -27 -31.5t-33 -26.5q-16 -11 -36.5 -22.5t-41.5 -12.5z" />
    <glyph glyph-name="W" unicode="W" horiz-adv-x="771" 
d="M357 240q48 46 90.5 98.5t81.5 107.5t75.5 111.5t73.5 112.5q6 9 11.5 17.5t11.5 16.5q5 8 11 18t12.5 19.5t14.5 17.5t17 12q5 2 12 1t6 -10q0 -2 -3 -5t-4 -5q-9 -13 -16 -26.5t-13 -28.5q-22 -53 -29 -108.5t-15 -111.5q-4 -23 -7 -45t-8 -44q-9 -52 -29 -102t-40 -99
q48 60 99 118.5t97 121.5q27 38 50 79.5t40 84.5q8 20 14.5 39t11.5 39q4 14 6 29t-12 25q-14 9 -22 16.5t-10 24.5q-2 18 5 37t23 27q17 10 34.5 11.5t32.5 -5.5t25.5 -21t13.5 -33q3 -23 0.5 -47.5t-9.5 -48.5t-17 -46t-22 -41q-20 -34 -40 -67.5t-43 -65.5
q-43 -63 -93.5 -118.5t-98.5 -113.5q-42 -49 -87 -96.5t-76 -104.5q-2 -4 -8.5 -15.5t-13.5 -21.5t-13.5 -12t-8.5 13q-2 13 0 26t6 25.5t9 25.5t8 25q6 24 12.5 48.5t11.5 48.5q4 19 6 37.5t4 38.5q7 57 19.5 111t27.5 110q-35 -52 -72.5 -102.5t-78.5 -98.5
q-39 -45 -81 -86.5t-84 -81.5q-31 -29 -64 -59t-52 -68q-2 -3 -5 -8.5t-6.5 -9.5t-7.5 -4.5t-8 6.5q-5 9 0 24.5t8 23.5q10 33 23 64.5t27 63.5q19 40 39.5 78t41.5 78q27 51 51 103t44 107q14 34 22.5 68t18.5 68q15 52 -1 101q-11 28 -33.5 36t-48.5 4t-52 -16t-43 -24
q-60 -42 -107.5 -106.5t-71.5 -133.5q-11 -32 -15 -65.5t1 -67.5q3 -20 11.5 -37.5t28.5 -25.5q25 -11 53.5 -6t51.5 18q14 8 25.5 19.5t21.5 23.5q5 5 13 16t16 11q11 0 8.5 -10t-10.5 -22.5t-17.5 -24t-12.5 -14.5q-17 -20 -37 -37.5t-43 -29.5q-26 -14 -58 -21t-61 4
q-34 12 -52 39.5t-23 62.5q-5 36 0 73.5t16.5 73t29 69t38.5 62.5q20 27 44.5 54t52 50.5t57.5 43t62 32.5q27 10 59 17t64.5 6.5t61.5 -11.5t49 -36q22 -27 31 -57.5t9.5 -63t-6.5 -65t-17 -63.5q-15 -45 -38 -87t-49.5 -83t-54.5 -80.5t-55 -78.5q-7 -9 -13 -18.5
t-12 -17.5q20 17 38.5 34.5t37.5 34.5z" />
    <glyph glyph-name="X" unicode="X" horiz-adv-x="822" 
d="M843 716q35 25 73 45.5t76 37.5q26 12 58 21.5t61 1.5q16 -4 22 -14t5 -22.5t-6 -26t-10 -24.5q-4 -9 -10.5 -20t-14 -17.5t-15 -4.5t-13.5 19q-3 8 -5 16.5t-8 14.5q-10 11 -25.5 13t-29.5 0q-32 -6 -60.5 -20.5t-53.5 -34.5q-59 -46 -101 -108.5t-79 -126.5
q-65 -110 -96 -229q-5 -17 -10.5 -38.5t-8 -43t0.5 -42t15 -35.5q19 -24 45.5 -20t53 21t50 39.5t36.5 35.5q26 27 44 54q6 8 14.5 21t20.5 12q13 0 13 -8t-5.5 -18t-13 -19.5t-10.5 -13.5q-29 -35 -59.5 -67.5t-65.5 -61.5q-16 -13 -34 -26t-37.5 -23t-40.5 -15.5t-42 -3.5
q-37 3 -56.5 24.5t-27.5 51.5t-7.5 63.5t5.5 61.5q-45 -39 -93.5 -77t-102 -66t-111.5 -41.5t-121 -2.5q-21 4 -43 14.5t-39 27t-25.5 38t-3.5 46.5q5 23 21 41t39 26t41.5 -2.5t24.5 -33.5q2 -9 2.5 -20t-4.5 -19q-5 -11 -14.5 -15.5t-14.5 -15.5q-5 -13 0 -24t15.5 -19
t23 -13t22.5 -6q27 -3 53.5 3t51.5 18.5t47.5 29.5t41.5 34q92 85 161.5 189t123.5 217q13 27 25.5 55.5t21 58.5t12 61t-0.5 61q-4 26 -18 43.5t-41 17.5q-26 0 -51 -7t-48 -20q-46 -27 -85 -70t-65 -88q-16 -26 -27 -54t-16 -57q-4 -26 -1.5 -56.5t19.5 -50.5
q14 -18 38.5 -23t45.5 0q29 6 46.5 23.5t39.5 34.5q6 6 14 7t6 -13q-2 -12 -14.5 -22.5t-20.5 -18.5q-20 -20 -39.5 -38t-46.5 -30q-23 -9 -47.5 -11t-47.5 4.5t-41 21.5t-27 40q-16 44 -7.5 94t26.5 91q35 85 104 151t154 101q32 12 68 19.5t71 -0.5q37 -8 60.5 -36
t32.5 -63q9 -31 8 -63t-1 -64q25 29 52.5 54t56.5 48z" />
    <glyph glyph-name="Y" unicode="Y" horiz-adv-x="774" 
d="M489 90q-18 -16 -37 -32t-39.5 -29.5t-43 -22.5t-47.5 -11q-35 -5 -62 10t-35 52q-9 41 0 81t27 78t41 73t44 67q32 48 65 94t64 92q15 22 30 45.5t28.5 48t23.5 50t14 51.5q4 21 -1.5 42t-28.5 29q-19 8 -41 6t-44 -7q-52 -15 -94.5 -44t-80.5 -71q-39 -44 -72.5 -88.5
t-57.5 -101.5q-8 -17 -17 -43t-11 -52t6.5 -48t35.5 -30q20 -5 42 -3.5t39 9.5t28.5 19t25.5 21q16 10 19.5 2.5t-4.5 -21.5q-12 -16 -28 -31.5t-31 -27.5q-30 -29 -69.5 -42t-81.5 2q-22 8 -37 24t-23.5 36t-11 42.5t0.5 43.5q5 48 26 92.5t48 85.5q28 42 62 79.5t76 69.5
q41 29 86 56t93 42q20 6 45 10.5t51 5.5t50 -3.5t42 -17.5q22 -16 32.5 -38.5t13 -47.5t-1.5 -51t-11 -50q-18 -52 -46.5 -99t-58.5 -92q-32 -50 -66.5 -97.5t-63.5 -97.5q-13 -22 -25.5 -45.5t-23.5 -46.5q-5 -10 -8.5 -21.5t-4.5 -23t2 -22t12 -19.5q17 -15 39 -9.5t44 20
t40.5 32.5t29.5 30q38 40 74 82.5t70 87.5q72 98 134 199.5t122 207.5q17 30 25.5 43t18.5 17.5t25 4t45 1.5q34 3 40.5 -7t-1.5 -27t-24 -37.5t-25 -38.5q-58 -107 -123.5 -208.5t-129.5 -205.5q-30 -50 -59 -101t-59 -101t-63 -98.5t-70 -92.5q-33 -41 -73.5 -76
t-85.5 -61.5t-94.5 -43t-101.5 -19.5q-23 -2 -48 -1.5t-50 5.5t-46.5 16t-36.5 30q-14 18 -18.5 40t0 43.5t17 39.5t33.5 28t40 4t30.5 -21t12.5 -35t-14 -38q-6 -8 -13 -15.5t-7 -18.5q0 -12 8.5 -21.5t19.5 -15.5q21 -11 45 -10t47 6q52 13 94.5 43t78 69.5t64.5 84
t56 87.5q32 51 64 101.5t63 101.5q-24 -28 -49.5 -53t-53.5 -51z" />
    <glyph glyph-name="Z" unicode="Z" horiz-adv-x="814" 
d="M584 509q38 48 76 94.5t80 89.5l-76 14t-76 11.5t-76.5 4.5t-76.5 -8q-28 -5 -55 -16t-49.5 -28t-38 -40.5t-20.5 -53.5q-2 -13 -2 -30t4.5 -32t14.5 -25.5t28 -10.5q6 0 13 1.5t13.5 1.5t12 -2.5t9.5 -10.5q5 -12 1 -25t-12 -22q-16 -20 -44.5 -27.5t-50.5 6.5
q-15 9 -23.5 23.5t-12 31t-3.5 34t2 32.5q6 37 21.5 72t37.5 66.5t49 58.5t57 48q39 28 80 42t83.5 17t86.5 -3.5t88 -18.5q22 -6 43 -13t43 -14q10 -4 20.5 -2.5t20 5.5t19.5 9.5t20 10.5q36 18 75 30.5t80 7.5q17 -2 34 -10t23 -26q7 -19 -4 -33.5t-24 -25.5
q-35 -26 -80 -37.5t-87 -16.5q-29 -3 -46 -4.5t-29 -7t-23 -18t-29 -37.5q-47 -64 -91 -131.5t-90.5 -132.5t-98 -126t-112.5 -113q37 -16 73.5 -33.5t74.5 -28.5q44 -12 77.5 -8.5t60.5 19.5t49 43t43 61q22 37 29 79.5t7 84.5q9 -1 15 -1.5t12 -8.5q5 -6 6 -14.5t3 -16.5
q5 -26 5 -53t-8 -53q-12 -42 -40 -75.5t-63 -58.5q-38 -29 -82 -47.5t-93 -22.5q-48 -3 -95.5 5.5t-93.5 23.5q-24 8 -45 17q-9 4 -17.5 9.5t-17.5 7.5q-9 3 -20 0.5t-22 -7t-21.5 -10t-19.5 -8.5q-47 -16 -96 -23t-97 6q-19 4 -34 15t-22.5 26.5t-5.5 34t16 37.5
q27 35 65 41t81.5 -0.5t89 -16.5t88.5 -7q10 1 22 11t24 23.5t22 27t16 20.5zM202 85q-10 5 -27.5 12t-39 13t-43.5 9t-40.5 0.5t-30.5 -11.5t-13 -27q0 -14 5.5 -23.5t15 -15.5t21 -8t23.5 -2q36 2 68 18t61 35zM901 749q25 -11 55 -12t56 8q7 3 15 9t12 14t2.5 16
t-13.5 14q-14 8 -34 1t-33 -13q-16 -8 -31.5 -17t-28.5 -20z" />
    <glyph glyph-name="a" unicode="a" horiz-adv-x="436" 
d="M387 435h100q-42 -74 -82 -148t-85 -144q-4 -6 -12.5 -24t-13 -36t-1 -30t23.5 -6q28 16 49.5 39t40 49.5t36.5 53t39 49.5q8 8 13 6t7 -4q0 -1 -5 -9q-27 -32 -51 -69t-51.5 -71t-60.5 -60t-77 -36q-23 -1 -34 10t-15 28t-3.5 36t2.5 35q-11 -12 -28.5 -29.5
t-38.5 -35.5t-43.5 -32.5t-44 -19t-40 4t-30.5 36.5t-11 56.5t10 56.5t23.5 54t29.5 49q33 50 76.5 91t95.5 70q18 10 41.5 19.5t46 11.5t41.5 -7t29 -36q6 11 12 21t11 21zM255 207q3 6 14.5 23t24.5 39t24.5 47t16 46t-0.5 35t-27 16q-16 -3 -31.5 -12.5t-30.5 -23
t-28 -28t-25 -27.5q-24 -32 -47 -66t-43 -69l-15 -27.5t-16 -34.5t-9.5 -35.5t5.5 -30.5q7 -13 18.5 -15t23.5 2t23.5 11.5t18.5 14.5q31 29 57 63t47 72z" />
    <glyph glyph-name="b" unicode="b" horiz-adv-x="380" 
d="M299 427q21 12 41 12.5t37 -9t29 -27t16 -40.5q8 -52 -10.5 -102t-49.5 -91q-30 -44 -72.5 -80.5t-89.5 -62.5q-18 -11 -41 -20t-46 -12t-45.5 2t-40.5 23t-23 42t-2 49.5t11.5 50.5t17.5 45q23 57 55 109.5t64 105.5q33 56 66 110t65 110q8 11 13.5 23t12.5 26
q6 9 10 25q0 6 -3 18t3 14q16 3 40 6t37 3q6 0 18 2t14 0q5 -6 3 -16.5t-3 -16.5q-7 -28 -20.5 -52.5t-28.5 -47.5q-35 -63 -71.5 -124.5t-73.5 -124.5q15 13 32.5 26.5t34.5 23.5zM72 57q-3 -26 14.5 -32t39.5 2q27 8 46.5 29.5t36.5 43.5q32 42 58.5 87.5t46.5 94.5
q4 8 11 25t11.5 35.5t3 34.5t-13.5 22q-9 4 -19.5 3t-20 -5.5t-18.5 -10.5t-15 -11q-29 -26 -59 -64t-55.5 -81.5t-43.5 -88t-23 -84.5z" />
    <glyph glyph-name="c" unicode="c" horiz-adv-x="292" 
d="M368 247q-29 -39 -60.5 -78.5t-68 -74.5t-78.5 -62t-91 -39q-12 -1 -24.5 1t-23.5 7q-28 12 -41.5 32t-16.5 44t2 49.5t14 48.5q22 54 56.5 103.5t79.5 87.5q23 20 49.5 37.5t56.5 28.5q13 4 30 8.5t35 6t34.5 -0.5t29.5 -9q15 -9 17.5 -21.5t-2 -25.5t-13.5 -26t-16 -22
l-5 -7.5t-7 -8.5t-9 -6t-9 0q-7 5 -6 16t1 16q0 8 -1 18.5t-4 19.5t-9 16t-17 7q-14 0 -26.5 -8t-24 -19.5t-21.5 -24.5t-17 -22q-23 -28 -42 -57.5t-36 -60.5q-14 -26 -29 -55t-18 -59q-2 -26 13.5 -45t42.5 -15q37 13 70 34.5t62 48.5t54.5 58t47.5 63q1 3 4.5 9.5t8 13
t9.5 11.5t10 4q8 0 8 -6t-4 -13t-9 -14t-6 -9z" />
    <glyph glyph-name="d" unicode="d" horiz-adv-x="423" 
d="M510 672q5 10 10.5 20t6.5 21q0 7 -1 12t4 10q6 5 18.5 8.5t26 5t26.5 2t21 -0.5q15 -2 16.5 -13t-2.5 -24.5t-11.5 -26.5t-10.5 -19q-56 -100 -113.5 -196.5t-111.5 -198.5q-13 -23 -24 -45.5t-23 -45.5q-14 -22 -27.5 -44t-20.5 -45q-2 -8 -2 -17t3 -15t9 -8.5t17 1.5
q25 18 49.5 42.5t46 51.5t41 54.5t35.5 52.5q3 4 9 9.5t12 -1.5q3 -3 -1 -13q-41 -69 -94 -134t-123 -108q-21 -10 -44.5 -8t-37.5 23q-11 19 -11.5 41.5t4.5 42.5q-15 -20 -34 -38t-37 -35q-17 -16 -39 -31t-47 -17q-22 -3 -37.5 5.5t-25 23.5t-13.5 34t-2 37q3 44 20 86
t43.5 79.5t59 70t67.5 57.5q47 36 102 51q13 2 27.5 4.5t27.5 -2.5q12 -5 18.5 -15.5t13.5 -22.5q82 138 159 279zM144 69q64 64 113 143t70 167q-2 26 -19.5 30t-36.5 -9q-20 -14 -36.5 -31.5t-31.5 -36.5q-9 -10 -25.5 -30.5t-35.5 -46.5t-38 -55t-32 -56.5t-17.5 -51
t5.5 -38.5q7 -11 19 -12t24 2.5t23.5 11t17.5 13.5z" />
    <glyph glyph-name="e" unicode="e" horiz-adv-x="306" 
d="M69 80q3 -23 16 -30.5t30.5 -5.5t35.5 10t30 16q28 17 56.5 44.5t53.5 56t45 53.5t32 38q7 8 9.5 3.5t0.5 -12.5q-5 -15 -20 -36.5t-36 -45.5t-45.5 -49t-48.5 -46t-44.5 -37t-33.5 -23q-19 -11 -43.5 -17.5t-48 -5.5t-44 12t-32.5 35q-10 21 -10.5 45t5 48t15 46.5
t20.5 42.5q29 56 71 100t96 76q26 17 54.5 28t58.5 16q19 4 41 2t33 -21q9 -14 8 -29.5t-7 -30.5t-15.5 -28t-19.5 -23q-24 -26 -54.5 -45t-61.5 -33q-17 -7 -33.5 -12.5t-34.5 -10.5q-10 -2 -24 -3t-21 -9q-8 -8 -12.5 -24t-9.5 -27q-7 -16 -10.5 -33.5t-1.5 -34.5z
M118 230q35 2 63.5 22t54.5 43q13 11 24.5 23.5t20.5 26.5q6 11 14 27.5t7 29.5q-1 11 -7 13t-15 -1.5t-19.5 -11t-19.5 -15.5t-16 -15.5t-9 -9.5q-29 -30 -52.5 -63.5t-45.5 -68.5z" />
    <glyph glyph-name="f" unicode="f" horiz-adv-x="298" 
d="M137 447h93l13 23q32 51 69.5 98t84.5 85q23 18 47 33.5t48 29.5q24 13 51.5 23.5t55.5 7.5q20 -4 28 -16.5t3 -30.5q-5 -26 -24.5 -46.5t-45.5 -23.5q1 7 2 16t0.5 18t-3 17.5t-8.5 14.5q-10 8 -22 6t-24 -9.5t-22 -17.5t-16 -17q-42 -47 -75 -101.5t-64 -109.5h64v-33
h-81q-11 -23 -30 -57.5t-43 -75t-50.5 -85t-54 -88.5t-53.5 -85t-48 -73q-37 -50 -75.5 -95t-89.5 -78q-23 -15 -49.5 -29t-55 -23.5t-57.5 -12.5t-57 4q-21 5 -37.5 17t-23.5 34q-7 17 -2 35.5t22 28.5q12 7 24 7.5t20.5 -4.5t12 -16t-1.5 -26q-5 -11 -8.5 -20.5t3.5 -20.5
q6 -11 17.5 -14t22.5 -2q28 0 53 11.5t47 30t41 40.5t34 43q45 61 81.5 126t77.5 129l179 299h-73v33z" />
    <glyph glyph-name="g" unicode="g" horiz-adv-x="420" 
d="M41 4q-17 11 -26 27.5t-12 35t-1.5 38t5.5 37.5q13 45 38.5 83.5t56.5 72.5q33 37 70.5 69t83.5 52q18 8 39.5 14t41.5 5.5t37.5 -9.5t27.5 -31q6 7 10 13.5t9 11t11 7.5t16 4q22 2 43 1.5t41 -0.5q-57 -101 -116 -198t-121 -195q-25 -40 -50.5 -81t-54.5 -79.5t-64 -71
t-78 -54.5q-39 -20 -84.5 -30t-90.5 -8q-14 1 -30 3.5t-30.5 8.5t-26 16.5t-16.5 25.5q-6 19 -0.5 38t22.5 29q15 11 36 9t29 -22q3 -9 1.5 -16t-5.5 -13t-7 -12.5t-3 -14.5q1 -11 8.5 -17.5t17.5 -9.5t20.5 -3t18.5 1q26 3 49 13.5t43.5 26.5t38 36t32.5 40q37 49 68 101.5
t60 106.5q-15 -14 -34 -29t-39 -25.5t-42 -13.5t-43 7zM112 55q24 -1 44 8.5t37 25.5t32 35t27 36q16 23 33 45.5t33 46t28.5 48.5t20.5 52q2 7 3.5 17.5t0.5 20t-6 16t-16 6.5q-12 1 -24.5 -4.5t-24 -13.5t-22 -17.5t-18.5 -17.5q-42 -42 -76.5 -90t-63.5 -100
q-4 -8 -13 -26.5t-14.5 -37.5t-3 -34t22.5 -16z" />
    <glyph glyph-name="h" unicode="h" horiz-adv-x="447" 
d="M316 717q2 11 5 16t14 7q17 2 37 6.5t37 2.5q16 -2 17.5 -14t-3.5 -27.5t-13.5 -30t-12.5 -21.5q-42 -72 -84 -142t-86 -141q17 13 35.5 27.5t38 25.5t41 16t44.5 1q18 -3 28.5 -12t15 -21.5t4 -27t-4.5 -29.5q-10 -38 -32 -71t-43 -65q-9 -15 -20 -30t-21.5 -31
t-19.5 -32t-14 -32q-7 -22 5.5 -27.5t29.5 3.5q54 37 97.5 87t80.5 104q8 10 16.5 9t3.5 -16q-27 -37 -54.5 -75t-58 -72t-67 -61.5t-82.5 -43.5q-12 -2 -23.5 -1.5t-22.5 5.5q-18 9 -23.5 25t-3 34t9.5 36.5t14 31.5q19 38 41 73t45 70q5 8 16 24.5t20.5 35t12.5 35.5
t-7 26q-8 6 -23.5 -0.5t-32.5 -17.5t-31.5 -23.5t-20.5 -19.5q-31 -35 -57 -74t-50 -79.5t-47.5 -81.5t-49.5 -80q-13 -19 -27.5 -19h-36.5q-6 1 -15.5 0t-15.5 2q-8 4 -5 14.5t9.5 23t14.5 23.5t11 16q80 135 160 271t155 273q14 23 29 45.5t20 48.5z" />
    <glyph glyph-name="i" unicode="i" horiz-adv-x="192" 
d="M233 412q-15 -40 -33.5 -72.5t-38.5 -63.5q-8 -13 -16.5 -26t-16.5 -27q-14 -25 -30 -50t-30 -49q-5 -7 -10.5 -17t-9.5 -21t-4.5 -22t5.5 -21q6 -8 12 -9q12 -4 29.5 5t36.5 26t38.5 39t36.5 44t29.5 42t18.5 33h-1l4 7l10 14t7 -2q1 -2 0.5 -7t-3.5 -11v1
q-8 -11 -15 -24.5t-14 -25.5q-20 -36 -43 -70t-51 -60t-61 -42t-73 -16q-14 0 -27 5.5t-21 21.5q-10 16 -10 38q0 23 8.5 46.5t16.5 41.5q17 35 35.5 66t38.5 60q14 23 28 47l28 48q7 12 9.5 21.5t5.5 19.5q0 2 0.5 4t0.5 4q2 5 3.5 11t4.5 9q11 5 29 6t30 1q9 0 20.5 -0.5
t21.5 1.5v-2l1 -2q1 -5 1.5 -10.5t-1.5 -11.5zM219 574q0 12 5.5 25t14.5 23.5t20.5 17t23.5 7.5q13 1 21.5 -3.5t12.5 -13t4 -19t-4 -20.5q-8 -19 -28 -34.5t-39 -15.5q-11 0 -19.5 8t-11.5 25z" />
    <glyph glyph-name="j" unicode="j" horiz-adv-x="182" 
d="M123 349q7 13 12 30.5t8 32.5q2 8 5.5 11t11.5 8q5 3 21 4t34.5 1t35 -0.5t22.5 -0.5q-35 -56 -71 -127t-75.5 -146t-84.5 -149t-97.5 -135t-115 -103.5t-137.5 -54.5q-21 -3 -49 -4.5t-55 3t-49.5 16.5t-31.5 36q-10 22 -5 44.5t26 35.5q9 5 20.5 6t21.5 -2t17.5 -10.5
t9.5 -19.5q3 -18 -9 -34q-6 -8 -10 -14t2 -16q11 -18 34 -20.5t40 0.5q54 8 96 41t73 75q43 56 81.5 117t74.5 124t71 126.5t73 124.5zM212 567q0 13 5.5 26t15 24t21.5 18t25 8t22.5 -4t14 -14t4.5 -20.5t-4 -22.5q-6 -15 -21.5 -29t-32.5 -19t-31.5 1t-18.5 32z" />
    <glyph glyph-name="k" unicode="k" horiz-adv-x="377" 
d="M293 692q5 11 10 20t7 20q2 7 2 8v9q11 2 25 3.5t25 2.5q4 0 11.5 1.5t15.5 2.5t15 2t12 1q8 -22 -1.5 -45.5t-17.5 -39.5q-55 -95 -110 -189.5t-109 -189.5q25 16 47 35t44 38.5t44.5 38t48.5 32.5q15 8 33 16t35 3q9 -2 13.5 -7.5t6 -13t0 -16.5t-3.5 -16
q-4 -14 -15.5 -31t-23.5 -25q-11 -4 -17 -0.5t-10.5 9.5l-9 12t-11.5 8q-11 2 -28.5 -6t-36.5 -20t-37 -26t-29 -24q25 1 50.5 -2.5t41.5 -25.5q16 -21 13.5 -47.5t-13.5 -48.5q-5 -12 -9.5 -20.5t-10 -18t-13.5 -22t-20 -32.5q-8 -15 -4.5 -22t12 -8t20 3t20.5 10
q24 22 44.5 47.5t39.5 52.5t36.5 55t35.5 55q8 0 12 -1.5t4 -14.5q-2 -4 -4.5 -8t-4.5 -8q-24 -36 -49 -79.5t-55.5 -80.5t-67.5 -62t-84 -25q-8 0 -17 3q-20 5 -34 20t-13 37q1 20 9 38t18.5 35t22 33.5t20.5 33.5q7 11 14.5 28.5t3.5 31.5q-3 9 -10 12.5t-16 3t-18.5 -3
t-16.5 -4.5q-33 -25 -56.5 -58.5t-43 -70t-38.5 -73.5t-44 -68h-103q100 175 197.5 346.5t195.5 345.5z" />
    <glyph glyph-name="l" unicode="l" horiz-adv-x="184" 
d="M432 717q-40 -74 -83 -147t-86.5 -147t-86.5 -148.5t-82 -151.5q-5 -8 -12 -23t-5 -28q0 -9 9 -13.5t25 2.5q27 16 49.5 38t42 46.5t36.5 51.5t33 53q2 5 9.5 16t14.5 11q5 0 6 -4.5t0 -10t-3.5 -10.5l-3.5 -7q-26 -34 -51.5 -73.5t-55.5 -75.5t-66 -63t-81 -36
q-36 -2 -49 17.5t-13 47.5t9 57.5t18 47.5q30 62 66.5 120t71.5 118q42 70 83 139.5t82 140.5q4 7 6.5 13.5t3.5 13.5v13t1 13q4 1 18.5 3t32 4t33 4t22.5 2q8 -3 7.5 -16t-1.5 -18z" />
    <glyph glyph-name="m" unicode="m" horiz-adv-x="632" 
d="M116 367q4 7 6.5 18t5.5 21.5t8 18.5t14 10h88q6 -19 2 -36t-12 -32q28 22 55.5 45.5t63.5 31.5q13 3 26.5 1.5t24.5 -7.5t18.5 -16.5t8.5 -25.5q0 -6 -1.5 -17.5t3.5 -15.5q3 -2 10.5 4.5t15.5 14.5t15 16t9 10q13 10 29 19.5t33.5 15.5t35.5 7t35 -6q14 -6 22 -16.5
t11.5 -23t2.5 -26.5t-4 -27q-32 -72 -74 -136t-77 -133q-4 -14 -1 -23t20 -7t33 15.5t28 24.5q28 26 52.5 56.5t46.5 63.5q5 9 13 20t19 19q7 1 10 -2t2.5 -8.5t-3 -11t-4.5 -9.5q-20 -31 -43.5 -59t-46.5 -55q-24 -29 -51 -55.5t-62 -42.5q-14 -6 -29.5 -10t-30.5 -3.5
t-28 7.5t-21 22q-8 14 -7.5 30t5 32.5t12 32t13.5 28.5q21 38 44 75t45 75q3 6 12.5 21t16 32t7 30.5t-13.5 16.5q-9 1 -19 -3t-20 -11t-18.5 -15t-14.5 -14q-30 -30 -54.5 -67t-46.5 -74l-133 -213h-94q31 54 61 108t61 109q14 26 29 52.5t30 52.5q3 6 8 13.5t9 15.5t6 16
t-1 15q-5 11 -15 11.5t-22.5 -6t-26 -17.5t-25.5 -22t-20 -20.5t-11 -12.5q-38 -46 -69.5 -96t-61.5 -102q-18 -29 -35 -58.5t-34 -58.5h-104q56 91 106 182t102 185z" />
    <glyph glyph-name="n" unicode="n" horiz-adv-x="422" 
d="M137 377q8 11 8 22t1 24q1 11 0.5 12.5t7.5 1.5q7 0 23 1t32.5 1.5t29 1t11.5 0.5q2 -3 4.5 -9t2.5 -12q-2 -14 -9.5 -29t-13.5 -29q20 17 40 33t43 28q10 6 23 11t27 7t28 1.5t26 -5.5q27 -13 29.5 -39t-3.5 -51q-11 -35 -35 -67.5t-44 -62.5q-18 -27 -35 -54t-33 -56
q-3 -6 -9 -16.5t-9 -21t0 -18t18 -5.5q32 8 56.5 26.5t44.5 42.5t37.5 51t35.5 51q2 3 6 11t9.5 14t11 8t11.5 -6q3 -5 1.5 -11t-5.5 -12.5t-8 -12t-7 -8.5q-24 -33 -50.5 -67.5t-56.5 -64t-66 -51t-79 -28.5q-18 -1 -32.5 6.5t-22.5 26.5q-9 21 -5.5 44t14 45.5t24 43.5
t24.5 38q18 29 37.5 58t36.5 58q8 11 15.5 22.5t13.5 23.5q5 8 7.5 20t-6.5 18q-8 5 -17.5 1t-17.5 -7q-34 -15 -60.5 -43.5t-49.5 -55.5q-10 -11 -18 -22.5t-16 -23.5q-35 -54 -70.5 -107.5t-70.5 -107.5q-2 -5 -6.5 -13t-8.5 -12q-5 -4 -16 -2.5t-16 0.5h-43.5t-18 4.5
t2.5 16.5t20 36q45 71 88.5 141t86.5 142q5 9 10.5 18t10.5 19z" />
    <glyph glyph-name="o" unicode="o" horiz-adv-x="353" 
d="M150 391q32 20 67.5 35.5t74.5 17.5q35 2 65.5 -12t44.5 -44q7 -19 7 -44t-5.5 -46.5t-11.5 -40.5q-12 -29 -30.5 -60.5t-40.5 -60.5q-20 -24 -44 -47t-51.5 -42.5t-58.5 -33t-65 -17.5q-33 -4 -66.5 7t-53.5 35q-23 34 -23 70q0 13 2.5 28.5t6.5 29.5q22 66 70.5 124.5
t110.5 100.5h1zM57 103q-2 -9 -3.5 -17t-1.5 -10q0 -13 5.5 -22.5t22.5 -17.5q17 -5 36 4t34 18q-1 0 2 2t5 2q33 28 61 63.5t50.5 73t38.5 75t25 70.5q2 5 3 12t1 15q0 14 -4.5 26t-17.5 15q-16 2 -33.5 -7t-29.5 -18q-35 -26 -67.5 -61t-58.5 -73t-44 -76t-24 -70v-4z" />
    <glyph glyph-name="p" unicode="p" horiz-adv-x="403" 
d="M442 383q6 -34 0 -69t-22 -69q-17 -42 -44 -79.5t-55 -66.5q-23 -25 -52 -44.5t-62 -32.5q-32 -14 -68.5 -19.5t-68.5 11.5q-17 11 -24 15t-19 -12q-25 -36 -58 -78t-72 -82.5t-83.5 -74.5t-92 -54t-96.5 -21.5t-98 24.5q-11 6 -17.5 18.5t-8.5 28t0.5 31t10.5 26.5
q9 12 22.5 16t26.5 1t22.5 -13t8.5 -27q0 -7 -4 -12.5t-7.5 -11.5t-5.5 -12.5t1 -13.5q5 -11 17.5 -15t23.5 -5q34 -3 64 10t56.5 34.5t49 47.5t41.5 50q23 29 45 60.5t44 61.5q20 31 39.5 60.5t37.5 62.5q18 32 38 65.5t40 66.5q17 31 38 64t35 66q5 10 6 19.5t3 23.5
q2 0 13 0.5t25 1.5t29 1.5t26 0.5q3 -5 3.5 -8t0.5 -6q2 -13 -2 -27.5t-9 -26.5q25 21 52.5 43t61.5 30q32 5 56 -11.5t32 -48.5zM207 84q5 6 24.5 32.5t43.5 62.5t46.5 76.5t34.5 73.5t7.5 54t-35.5 18q-15 -2 -28.5 -10t-26 -19t-23.5 -23.5t-20 -22.5q-44 -52 -78 -109
q-17 -28 -35.5 -56.5t-32.5 -58.5q-9 -20 -7 -41.5t28 -28.5q15 -4 29 -0.5t27 12t25 19.5t21 21z" />
    <glyph glyph-name="q" unicode="q" horiz-adv-x="414" 
d="M434 437q6 0 15.5 0.5t19.5 1t18 1t10 -0.5l-2 -8t-3 -7q-106 -176 -209.5 -351t-215.5 -347q-4 -4 -7.5 -8t-8.5 -4q-19 -1 -39 -0.5t-41 0.5q1 5 1 10t2 8q19 33 37.5 65.5t37.5 64.5q22 35 44.5 70.5t44.5 70.5q8 14 16 27.5t18 30.5q-17 -12 -32.5 -24.5t-31.5 -22.5
t-33.5 -16t-38.5 -4q-22 2 -36.5 23.5t-17.5 47.5q-6 84 40 153q26 38 55 73.5t63.5 64.5t75 50.5t88.5 31.5q40 4 68 -42q15 41 62 41zM327 323q3 7 6 16.5t5.5 17.5t3.5 14t0 6q0 23 -9 29.5t-31 -0.5q-23 -9 -49 -29.5t-52 -47.5t-50 -58.5t-42.5 -64t-30 -63.5
t-11.5 -56t16.5 -35.5t38.5 3.5q9 6 14 9.5t12 8.5q13 11 24 22t19 23q38 49 74 98.5t62 106.5z" />
    <glyph glyph-name="r" unicode="r" horiz-adv-x="278" 
d="M360 256q3 -7 -7 -23q-20 -28 -36 -49.5t-31 -40.5t-30.5 -38t-36.5 -43q-12 -12 -28.5 -26t-35 -24.5t-38 -14t-37.5 4.5q-24 12 -31 32.5t-4 44.5t13 47.5t19 40.5q13 25 31 46.5t37.5 42t38.5 41t36 43.5q-13 2 -26 -0.5t-25 2.5q-11 3 -18 6t-17 -5
q-29 -45 -57.5 -94t-61 -95.5t-70.5 -87t-86 -68.5q-13 -2 -16 6.5t3 17.5q56 36 100.5 84.5t81.5 104t68.5 115t62.5 116.5q5 2 10.5 0.5t11 -5t10.5 -7.5t9 -6q13 -6 26 -7.5t26 0.5q17 3 33.5 9.5t32.5 8.5q12 1 15.5 -3.5t2 -11t-6 -14t-8.5 -13.5q-35 -44 -65.5 -90
t-58.5 -95q-8 -12 -16 -25t-15 -26.5t-11 -27.5t-3 -29q0 -10 4 -23t16 -11q17 3 37.5 21.5t42.5 44.5t42.5 56t37.5 54q5 8 11.5 15.5t16.5 -1.5z" />
    <glyph glyph-name="s" unicode="s" horiz-adv-x="258" 
d="M310 437q-1 -8 -5 -15.5t-9 -15.5l-10 -15q-8 -23 -13.5 -50.5l-10.5 -52.5v1q-9 -42 -19 -83t-27 -78t-43.5 -67.5t-68.5 -49.5q-17 -8 -36 -12.5t-39 -4.5q-26 0 -48 9q-15 7 -24.5 20t-9.5 27q0 9 4 18t13 17q6 5 18.5 10t21.5 0q6 -4 6 -11.5t-2 -15.5q-1 -3 -1 -9
q0 -11 6.5 -23t17.5 -10q8 0 17 6t17.5 14t15.5 16t11 13q35 63 55.5 134t34.5 140q-17 -19 -32 -37.5t-31 -38.5q-54 -67 -110 -132.5t-122 -121.5q-8 -6 -16.5 -11.5t-18.5 -7.5q-11 -3 -16.5 3.5t-2.5 19.5q3 10 11 15.5t17 9.5l11 7q38 24 73.5 56t67.5 68t62 73.5
t57 73.5q17 23 33.5 44.5t33.5 41.5q8 11 18 17t21 8.5t23.5 2.5t25.5 -1v1q5 0 10.5 -0.5t10.5 -0.5z" />
    <glyph glyph-name="t" unicode="t" horiz-adv-x="230" 
d="M127 541h85l43 62l11 20v-1q13 24 27 50.5t20 49.5q0 2 1 3.5t1 3.5q2 6 5 13t7 11q7 4 24 6t36 2q21 0 38 -2t15 -6q-3 -12 -10 -30t-20.5 -43t-35 -59.5t-52.5 -79.5h66v-35h-85q-32 -48 -67.5 -103.5t-68 -112t-59 -109.5t-39.5 -97q-7 -26 9.5 -35.5t39.5 -1.5
q14 5 33 22t41 41t44.5 51.5t43 53.5t36 47.5t23.5 32.5q2 2 3 4t2 3q4 0 6 -5q-4 -13 -18.5 -37.5t-36.5 -54.5t-50 -63t-60 -62t-66 -52t-68 -34q-33 -5 -59.5 10t-30.5 50q-1 25 6.5 52.5t28.5 68t56.5 100t89.5 147.5l52 84h-67v35z" />
    <glyph glyph-name="u" unicode="u" horiz-adv-x="374" 
d="M191 127q-27 -30 -55.5 -62t-63.5 -52q-14 -8 -29 -12.5t-29.5 -3.5t-27 8.5t-20.5 24.5q-7 16 -6.5 34t5 36t12.5 35t16 32q23 38 46.5 77.5t46.5 78.5q9 15 16.5 30.5t14.5 33.5q1 4 2 10.5l2 13t3 12.5t6 9q3 0 14 0.5t25.5 1t29 0.5h23.5q4 -2 4 -7v-8
q1 -18 -6.5 -37.5t-16.5 -34.5q-21 -42 -45 -81q-22 -40 -46 -78t-47 -77q-6 -11 -12.5 -28.5t4.5 -28.5q7 -7 16.5 -5.5t19 6.5t17 12t12.5 12q32 29 58 66t50 72q26 38 48.5 78t39.5 82q5 14 12.5 30t12.5 24q16 1 40.5 3t41.5 2h20q-1 -7 -3 -14q-2 -6 -3.5 -13.5
t-4.5 -12.5q-18 -40 -42 -77.5t-47 -75t-43 -76.5t-31 -82q-3 -25 9.5 -28.5t29.5 10.5q45 38 81 86t68 98q6 5 13 3.5t5 -12.5q-34 -55 -73.5 -106.5t-87.5 -97.5q-22 -18 -46.5 -29.5t-50.5 -5.5q-21 5 -29.5 19.5t-9 33t3.5 38t7 33.5z" />
    <glyph glyph-name="v" unicode="v" horiz-adv-x="322" 
d="M138 432q15 2 30.5 3t29.5 2q9 1 24 2.5t20 -7.5q2 -4 0 -10t-5 -12t-6.5 -12t-4.5 -10q-16 -35 -35 -68t-38.5 -66t-38 -66.5t-32.5 -68.5q-4 -10 -5.5 -23.5t0.5 -25.5t10 -19.5t24 -4.5q23 5 44 21t37 34q38 45 67 96.5t49 106.5q11 28 18.5 57.5t2.5 59.5
q-2 11 -1 20.5t9 18.5q8 8 21 12.5t24 -0.5q13 -5 18 -15.5t5 -23.5t-2.5 -26t-5.5 -23q-8 -28 -18.5 -54.5t-24.5 -52.5q-26 -52 -63 -99.5t-75 -90.5q-16 -17 -37.5 -35.5t-46 -33.5t-50.5 -22.5t-51 -1.5q-32 7 -42.5 30t-8 51.5t13 57.5t21.5 48q32 62 66 123t57 128z
" />
    <glyph glyph-name="w" unicode="w" horiz-adv-x="511" 
d="M180 110l-66 -72q-15 -16 -31 -29t-37 -17q-26 -6 -44 -0.5t-28.5 19.5t-13.5 34.5t2 43.5q11 40 31.5 76t43 71t44.5 70.5t37 74.5q3 9 6 22t11 20q8 6 20 6.5t20 2.5q10 2 21.5 4t21.5 1q13 0 16.5 -7t2 -16.5t-5.5 -20t-7 -18.5q-16 -40 -38 -76t-45.5 -72t-45 -73
t-35.5 -77q-8 -18 3 -27t29 2q41 37 76 80t65 89.5t56.5 96t50.5 98.5q5 13 13 15.5t22 4.5q12 2 26.5 4.5t25.5 1.5q13 -2 15.5 -11.5t-1.5 -23.5t-12.5 -30t-17.5 -31.5t-17 -28t-11 -17.5q-23 -39 -47 -79t-44 -80q-8 -18 -14 -38t-6 -38q2 -21 19 -23.5t34 5.5
q18 9 34 23.5t30 32t26 35.5t22 34q24 38 44 80.5t31 84.5q6 22 5 41q-1 11 -3.5 19t-1.5 17q1 10 7 19.5t14.5 16t18.5 8.5t20 -2q11 -5 15.5 -14t5.5 -20t-1 -22.5t-4 -21.5q-5 -26 -14 -48t-22 -45q-26 -51 -56.5 -96t-68.5 -87q-31 -37 -68.5 -68t-86.5 -42
q-23 -5 -44.5 -0.5t-35.5 24.5t-13 45.5t1 48.5z" />
    <glyph glyph-name="x" unicode="x" horiz-adv-x="434" 
d="M153 102q-8 -8 -15 -16.5t-14 -15.5q-16 -17 -30 -35.5t-33 -29.5q-18 -12 -35 -14.5t-37 0.5q-14 3 -22.5 16t-8.5 27q0 20 14.5 39.5t34.5 24.5q16 5 27 -4.5t9 -26.5q0 -4 1 -9t3 -7q3 -2 7.5 -1.5t8.5 2.5q27 15 48.5 35.5t38.5 46.5q5 6 5 16v19q1 42 5 82.5
t12 82.5v13q-8 -11 -13.5 -20.5t-11.5 -19.5q-13 -20 -26 -39.5t-27 -39.5q-2 -3 -7.5 -6.5t-9.5 -0.5t-2.5 9t3.5 10q27 46 57.5 91.5t51.5 91.5q8 9 20 11q8 2 14.5 1.5t14.5 0.5t16.5 2t17.5 3q13 1 15 -2t-1 -16q-11 -38 -24 -80t-10 -78q27 27 47 56.5t44 55.5
q20 24 42.5 46t53.5 32q11 3 23.5 2t23.5 -3q10 -2 14 -17t-2 -29q-7 -14 -15 -27.5t-16 -27.5q-7 -10 -13.5 -8.5t-11.5 9.5q-10 11 -28.5 13.5t-29.5 -5.5q-21 -14 -40.5 -29.5t-35.5 -35.5q-15 -19 -29.5 -37t-29.5 -38q-7 -7 -5 -17q1 -15 0 -37t1 -43.5t9.5 -39.5
t24.5 -26t31 -1t24 16q38 37 70.5 78t57.5 88q3 8 8.5 10.5t9 1t4.5 -7t-5 -12.5q-35 -63 -79.5 -119.5t-101.5 -101.5q-11 -9 -27 -11.5t-32.5 0.5t-31 11.5t-22.5 20.5q-9 15 -15.5 33t-14.5 37z" />
    <glyph glyph-name="y" unicode="y" horiz-adv-x="365" 
d="M152 63q-15 -14 -32.5 -28.5t-36.5 -25.5t-40 -17t-43 -1q-21 5 -31 18.5t-13 31t0 36.5t9 35q15 36 34.5 69t40 65.5l41 65t37.5 66.5q3 6 5.5 13.5t5 15.5t6.5 15t11 10q19 0 39.5 3t39.5 1q10 -2 11.5 -9.5t-1.5 -16.5t-8 -18t-8 -15q-23 -49 -51 -94.5t-56 -90.5
q-3 -5 -11 -19.5t-16.5 -32.5t-16.5 -37t-11.5 -34t-0.5 -22.5t16 -2.5q51 19 88.5 58t68.5 87t57 100.5t54 97.5q4 8 5.5 20t1.5 20q5 7 12 8q23 2 47 4t49 -1q2 -9 0.5 -22.5t-6.5 -24.5q-11 -26 -27.5 -50t-29.5 -47q-26 -48 -52.5 -93.5t-55.5 -90.5q-26 -40 -49.5 -84
t-49 -86.5t-56.5 -81t-72 -67.5q-38 -28 -81 -48t-89 -26q-19 -3 -44.5 -5t-50 2.5t-44.5 16.5t-29 36q-5 20 1.5 40t24.5 31q17 10 37.5 3.5t25.5 -28.5q2 -10 -2.5 -19.5t-8.5 -18.5t-3.5 -17.5t12.5 -16.5q9 -7 21 -9t24.5 -1t24.5 4.5t21 7.5q47 25 84.5 61t68 79
t55.5 89t47 91z" />
    <glyph glyph-name="z" unicode="z" horiz-adv-x="367" 
d="M357 362q-34 -14 -70 -13.5t-70 -0.5q-19 0 -36 -1t-33 -7q-3 -1 -10 -6t-15 -10t-14.5 -8.5t-7.5 -1.5q-5 6 2.5 19.5t19 28.5t23 28t15.5 17q23 23 52 30t61 6q16 0 33 -3t34.5 -5t34 -2.5t33.5 2.5q5 1 18.5 4.5t25.5 4.5t16.5 -3.5t-8.5 -18.5q-11 -11 -23 -20
t-23 -20q-26 -26 -45 -55q-21 -28 -41 -54.5t-45 -50.5q-28 -27 -60 -48.5t-67 -37.5q-16 -9 -33.5 -16t-34.5 -14.5t-32.5 -16.5t-28.5 -22q40 15 85 15q23 0 44 -5t43 -10q14 -2 28.5 -3t27.5 3q21 5 38 19t33 32q8 11 15 19.5t15 19.5q4 5 12.5 17.5t16.5 22.5
q10 1 11.5 -4t-1.5 -11.5t-7.5 -13t-6.5 -9.5q-6 -6 -11 -13.5t-11 -15.5q-3 -4 -6.5 -8.5t-7.5 -9.5q-6 -7 -12.5 -12t-11.5 -13q-24 -30 -54 -54t-69 -35q-23 -6 -44.5 -5.5t-42.5 4.5t-42.5 8t-43.5 6q-21 1 -35 -3.5t-31 -13.5q-15 -8 -22.5 -2t0.5 23q10 17 24 33
t26 33q13 17 26.5 34t27.5 33q32 37 68.5 65t80.5 52q22 13 43 24.5t44 24.5q11 7 22 13.5t23 12.5q8 5 18.5 9.5t15.5 12.5z" />
    <glyph glyph-name="zero" unicode="0" 
d="M889 383q0 -2 -0.5 -8t-1 -12.5t-1.5 -12.5t-1 -9q-1 -9 -3.5 -18t-4.5 -18q-17 -61 -51.5 -111.5t-81.5 -87t-105 -57t-122 -20.5q-79 0 -148 30.5t-118.5 82.5t-77.5 122t-26 149q2 0 2 3q1 47 14 90t38 83q8 14 20.5 31.5t28 34t31.5 30.5t31 21l1 3h3l2 2
q2 2 4.5 2.5t4.5 2.5q5 3 9 5.5t8 5.5q10 6 22 10.5t23 9.5q31 12 63 17.5t65 5.5q72 0 139.5 -26.5t119.5 -77.5q18 -18 33.5 -37t28.5 -41q4 -6 7 -13.5t6 -14.5q3 -5 5.5 -8.5t3.5 -8.5q6 -12 9.5 -24t7.5 -25q7 -29 9.5 -54.5t2.5 -56.5zM713 565q-26 -2 -52.5 -1.5
t-53.5 0.5h-20q-9 -27 -16 -54.5t-16 -54.5q4 -1 8.5 -0.5t9.5 0.5q7 0 10 -2v-243h109v119h83q6 25 14 49.5t14 49.5h-111q1 4 0.5 8t-0.5 8v5t2 4h92q7 30 16.5 59.5t16.5 59.5h-104q-3 -2 -2 -7zM248 560q-7 -26 -15 -52.5t-14 -52.5q4 -1 8.5 -0.5t9.5 0.5h4.5t4.5 -2
v-243h109v94v16t2 16q10 -1 20.5 -0.5t21.5 0.5h12t13 -1v-123q11 -2 21.5 -2h20.5q17 0 33.5 0.5t33.5 -0.5v354q-17 -1 -33.5 -0.5t-33.5 0.5q-21 0 -42 -2v-114h-69q0 17 0.5 35t0.5 36q0 22 -2 45h-103q-2 0 -2 -1.5t-1 -2.5zM260 -90h-19v41h-4l5 18h21l1 2h17l-5 -21
h-16v-4h19l-6 -17h-13v-19zM288 -49h-5l5 18h18v-32q0 -10 6 -10t6 10v32h18v-34q0 -26 -24 -26t-24 26v16zM363 -72h12l-6 -18h-24v41h-6l6 18h18v-41zM399 -72h12l-6 -18h-24v41h-5l5 18h18v-41zM488 -31l-19 -59h-17l-21 59h20l9 -28l9 28h19zM525 -90h-34v41h-4l5 18h21
l1 2h17l-5 -21h-16v-3h20l-4 -15h-16v-3h21zM556 -77v-13h-18v41h-5l5 18h18q8 0 12 -1t9 -4q7 -7 7 -17q0 -12 -10 -19l12 -18h-22zM559 -49h-3v-10h3q6 0 6 5t-6 5zM618 -29l16 -3l-6 -18q-8 3 -13 3q-4 0 -4 -2t3.5 -3t8 -2.5t8.5 -5.5t4 -11q0 -10 -6.5 -15t-17.5 -5
q-9 0 -19 5l4 18q4 -2 8.5 -4t6.5 -2q5 0 5 3q0 2 -4 3.5t-8.5 3t-8.5 5t-4 10.5q0 8 5.5 13t13.5 5q4 0 7 -1zM660 -31v-59h-18v41h-5l5 18h18zM696 -31q13 0 21.5 -9t8.5 -21t-8.5 -21t-21.5 -9q-14 0 -22 9t-8 21t8.5 21t21.5 9zM707 -61q0 5 -3 8.5t-8 3.5q-6 0 -9 -3.5
t-3 -8.5t3 -8.5t9 -3.5q5 0 8 3.5t3 8.5zM751 -64v-26h-18v41h-5l5 18h18l13 -22v22h19v-59h-16zM139 -132q13 0 21.5 -9t8.5 -22q0 -12 -8.5 -21t-21.5 -9q-14 0 -22 9.5t-8 21.5t8.5 21t21.5 9zM150 -163q0 12 -11 12q-12 0 -12 -12q0 -11 12 -11q11 0 11 11zM194 -166
v-26h-18v41h-5l6 18h17l13 -22v22h19v-59h-16zM273 -133v-19h12v19h18v-59h-18v21h-12v-21h-18v41h-4l5 18h17zM346 -192h-34v41h-4l5 18h21v2h18l-6 -20h-16v-4h21l-4 -14h-17v-4h21zM378 -178v-14h-19v41h-5l6 18h18q14 0 19 -5q8 -6 8 -17q0 -13 -9 -19l10 -18h-21z
M381 -151h-3v-10h2q7 0 7 5t-6 5zM442 -132q13 0 21.5 -9t8.5 -22q0 -12 -8.5 -21t-21.5 -9q-14 0 -22.5 9.5t-8.5 21.5t8.5 21t22.5 9zM454 -163q0 5 -3.5 8.5t-8.5 3.5q-12 0 -12 -12q0 -11 12 -11q5 0 8.5 3t3.5 8zM496 -192h-18v41h-4l5 18h21l1 2h17l-6 -20h-16v-4h19
l-4 -17h-15v-20zM553 -132q12 0 21 -9t9 -22q0 -12 -9 -21t-21 -9q-14 0 -22.5 9.5t-8.5 21.5t8.5 21t22.5 9zM564 -163q0 12 -11 12q-12 0 -12 -12q0 -11 12 -11q11 0 11 11zM607 -166v-26h-18v41h-5l5 18h18l14 -22v22h18v-59h-16zM671 -151v-41h-19v41h-9l6 18h19l1 2h17
l-6 -20h-9zM714 -131l15 -3l-5 -18q-8 3 -13 3q-4 0 -4 -1q0 -2 3.5 -3t8 -3t8 -6t3.5 -11q0 -20 -23 -20q-5 0 -9 1.5t-10 3.5l4 18q8 -5 15 -5q4 0 4 2t-4 3.5t-8.5 3t-8.5 5t-4 10.5q0 8 6 13.5t14 5.5q2 0 3.5 -0.5t3.5 -0.5zM744 -173q9 0 9 -10t-9 -10q-10 0 -10 10
t10 10zM791 -131l15 -6l-9 -18q-5 2 -6.5 3.5t-4.5 1.5q-12 0 -12 -12t12 -12q6 0 12 5l8 -16q-10 -8 -21 -8t-20.5 8.5t-9.5 22.5q0 12 9 21t21 9q2 0 5 -1zM839 -132q14 0 22 -9t8 -22q0 -12 -8 -21t-22 -9t-22 9.5t-8 21.5t8.5 21t21.5 9zM851 -163q0 12 -12 12t-12 -12
q0 -11 12 -11t12 11zM894 -161v-31h-18v41h-4l4 18h18l10 -13l10 13h19v-59h-18v31l-11 -12z" />
    <glyph glyph-name="ampersand" unicode="&#x26;" horiz-adv-x="630" 
d="M673 490q11 -32 3 -67.5t-34 -59.5q-15 -15 -34 -21t-41 -8h-10.5h-13.5t-13 -1t-9 -4q-6 -6 -3 -18t4 -20q2 -45 -19 -86t-50 -74q-17 -18 -18 -32t7 -36q4 -13 6.5 -22.5t1 -16.5t-9 -11.5t-22.5 -6.5q-9 -1 -25.5 -2.5t-26.5 0.5q-8 2 -10 7t-5 12q-5 8 -7.5 9.5
t-13.5 -2.5q-9 -3 -17.5 -8.5t-17.5 -9.5q-42 -20 -84 -29.5t-88 -7.5q-41 2 -75 18t-57 42.5t-33.5 62t-5.5 77.5t24.5 81t48.5 71q27 32 58.5 56t66.5 48q20 13 39.5 26t40.5 25q11 6 14 10t3 15q-1 11 -2.5 22.5t-2.5 22.5q-4 42 2.5 85t26.5 81q17 32 43.5 58t58.5 42
q17 7 37.5 11.5t41 3.5t39.5 -8t33 -22q13 -14 16.5 -30.5t1.5 -34t-9 -34.5t-16 -32q-21 -32 -50.5 -57.5t-60.5 -46.5q-7 -4 -16.5 -9t-18.5 -11t-16 -13t-10 -16q-5 -17 1.5 -41t10.5 -41q2 -12 3 -25t6 -24q2 -5 2 -8.5t0.5 -4t4 2.5t12.5 9q17 11 32.5 20t35.5 14
t40 5.5t40 -0.5t40 -0.5t39 5.5q23 5 30.5 16t4.5 34q0 6 -1.5 12t3.5 10q10 8 16 1t8 -14zM322 63q15 10 11 24.5t-7 28.5q-5 17 -8.5 35.5t-7.5 36.5q-8 34 -16 67.5t-17 67.5q-3 16 -6 31.5t-6 32.5q-2 11 -3 29t-7 27q-5 7 -14.5 4t-19.5 -10t-19.5 -15.5t-13.5 -11.5
q-38 -40 -67 -80t-44 -91q-8 -23 -11.5 -50.5t-0.5 -53.5t14.5 -49t34.5 -38q24 -15 51 -19.5t54.5 -1.5t54 12.5t48.5 23.5zM336 580q1 -11 7 -10t14 7t15.5 14t10.5 11q15 14 27.5 30t21.5 34q7 12 14.5 29t11 34.5t2 34t-12.5 28.5q-14 15 -29 14t-29 -11t-25 -25
t-16 -28q-9 -17 -12.5 -37t-4.5 -41.5t1 -43t4 -40.5zM425 187q14 22 17 49.5t0 51.5q-1 7 -5.5 16.5t-11.5 17.5t-15.5 12.5t-18.5 2.5q-9 -3 -10 -14t2 -24.5t7 -26.5t6 -19q7 -26 12 -54q2 -8 5.5 -15.5t11.5 3.5z" />
    <glyph glyph-name="dollar" unicode="$" horiz-adv-x="390" 
d="M357 482q-20 5 -16.5 15t11.5 23q11 19 13 37.5t-13 34.5q-13 14 -30 16.5t-33.5 -3t-30.5 -17t-23 -24.5q-12 -19 -14 -38.5t2.5 -39.5t13 -40t17.5 -38t17.5 -36t13.5 -37t5 -38.5t-7 -39.5q-12 -37 -40.5 -64.5t-62.5 -44.5q-17 -8 -34 -13t-34 -9q-11 -2 -18.5 -3
t-13 -4t-10 -8t-8.5 -14l-13.5 -27t-23 -41t-26.5 -30t-25 6q-3 6 0 16t9 21.5t12.5 21.5t9.5 15q4 5 9 12t8.5 14.5t4 14.5t-5.5 12q-11 11 -24 16t-24 17q-11 11 -16 24.5t-6 27.5q-3 26 7.5 54t36.5 39q16 7 32.5 5t28 -11t14.5 -24t-7 -33q-4 -8 -10 -10.5l-12 -5
t-11.5 -6t-8.5 -12.5q-5 -17 2 -32.5t24 -23.5q19 -8 39 -5t38.5 13t34 25t26.5 31q12 20 11.5 40t-7.5 39t-17.5 37t-18.5 35q-17 33 -20 69t7.5 69t33.5 60.5t56 42.5q20 9 42 13t44 11q18 5 28 20t18 30q7 17 16.5 36.5t29.5 23.5q16 3 20 -2.5t1 -14.5t-9 -19t-9 -16
q-3 -7 -9.5 -16t-11.5 -18.5t-5.5 -18.5t7.5 -15q16 -12 28.5 -21.5t17.5 -33.5q3 -19 -2 -36t-16.5 -29.5t-27.5 -19.5t-35 -5z" />
    <glyph glyph-name="cent" unicode="&#xa2;" horiz-adv-x="367" 
d="M331 494q1 17 3 36t-7 35q-11 17 -28 12.5t-31 -15.5q-32 -23 -55 -54.5t-46 -64.5q-13 -20 -27.5 -41.5t-27 -44t-21.5 -46.5t-12 -49q-2 -21 6.5 -39t30.5 -24q19 -6 37.5 -1t35.5 16t31.5 25.5t26.5 27.5q2 3 11.5 16t20.5 25.5t22.5 20.5t18.5 1q7 -8 -2 -24
t-23.5 -33t-29 -31t-18.5 -19q-33 -30 -69.5 -51t-81.5 -25q-20 -2 -30 -9t-19 -26q-8 -17 -16 -35t-17 -35q-6 -14 -14.5 -25.5t-22.5 -16.5q-17 -5 -23.5 4t0.5 25q6 14 15 26.5t17 24.5q4 7 11 16.5t13 19.5t9 20t0 18q-4 13 -16.5 22.5t-20.5 20.5q-9 18 -10.5 39
t0.5 41q4 45 24 86t46 76t58 65.5t69 55.5q19 13 37.5 21.5t40.5 16.5q21 8 38.5 17.5t31.5 29.5q14 18 23 40t20 42q6 10 8.5 14t13.5 6q4 1 14.5 2t13.5 -2q11 -6 3.5 -22t-20 -34.5t-25 -35.5t-11.5 -25q1 -7 7.5 -11t14.5 -7t16 -6.5t12 -8.5q13 -16 8 -37t-13 -38
q-8 -15 -17 -28.5t-25 -19.5q-14 -5 -24.5 -1t-4.5 21z" />
    <glyph glyph-name="at" unicode="@" horiz-adv-x="670" 
d="M198 295q49 57 93.5 89t82.5 43.5t67.5 5t48.5 -27.5q27 29 54 29h31q14 0 17.5 -11.5t-9.5 -30.5q-4 -5 -20 -29t-35.5 -56.5t-40 -68t-36.5 -65.5q-20 -37 -23.5 -54t6.5 -19q19 -3 46.5 19.5t55.5 61t53 89t41 102t19 101t-12 84.5q-24 52 -72 67t-110.5 -1
t-131 -63.5t-130.5 -120.5q-61 -72 -102 -151.5t-60 -153t-14 -137t34 -103.5q38 -53 108 -54.5t151 46.5q18 10 35 11t26 -4.5t6 -16.5t-22 -27q-56 -39 -109 -61t-100.5 -25t-86 13t-64.5 51q-36 49 -40.5 124t18.5 163t71 181.5t122 180.5q73 86 151 140.5t149.5 74
t131 3t94.5 -69.5q27 -39 27.5 -98t-18.5 -125t-53.5 -133t-77 -123.5t-90 -95.5t-92.5 -48q-26 -5 -42.5 2t-23.5 24t-5.5 41.5t11.5 53.5q-19 -21 -41.5 -43t-46 -39.5t-47 -29.5t-44.5 -12q-29 0 -45.5 23t-12.5 63.5t29 94t78 116.5zM216 79q21 9 38.5 26t31.5 35
q26 32 49 65t42 69q10 17 18.5 32.5t14.5 32.5q3 9 5 21.5t-5 22.5q-9 12 -23.5 8.5t-24.5 -8.5q-28 -16 -51 -44.5t-41 -53.5q-12 -15 -21 -30.5t-19 -30.5q-9 -15 -19 -31t-17 -31q-3 -8 -8 -17t-8.5 -18.5t-4.5 -19t3 -16.5q6 -15 16.5 -16.5t23.5 4.5z" />
    <glyph glyph-name="semicolon" unicode=";" horiz-adv-x="306" 
d="M177 32q-8 -31 -25 -50.5t-52 -41.5q-13 -9 -28 -13.5t-24 -2.5q-3 1 -5 2q-3 4 -2 7q1 6 7.5 6t15.5 3q8 4 23 12t18 18q2 10 -3 15q-13 10 -21.5 24.5t-3.5 31.5q5 23 26.5 36.5t43.5 7.5q15 -4 25 -20.5t5 -34.5zM155 234q-2 12 1 26t10 26.5t17.5 22t23.5 13.5t23 0
t16 -12t8.5 -19.5t-0.5 -23.5q-3 -16 -16 -32t-28.5 -24.5t-30.5 -4.5t-24 28z" />
    <glyph glyph-name="parenleft" unicode="(" horiz-adv-x="302" 
d="M352 830q0 -13 -24.5 -28.5t-62.5 -43.5t-84.5 -73.5t-89.5 -119.5q-28 -48 -47 -98.5t-28.5 -102.5t-9 -103t12.5 -97q8 -32 25 -58t33.5 -46t29.5 -34t13 -19q0 -14 -9 -14t-24 10.5t-32.5 29.5t-36 47t-34 62.5t-25 75.5t-9.5 87q0 93 26.5 164t81.5 138q49 59 97 102
t87 71.5t64.5 42.5t29.5 14h11.5t4.5 -7z" />
    <glyph glyph-name="parenright" unicode=")" horiz-adv-x="302" 
d="M352 532q0 -46 -7 -86.5t-20 -77t-33.5 -70.5t-48.5 -67q-49 -59 -97 -102.5t-86.5 -71.5t-63.5 -41.5t-29 -13.5h-12.5t-4.5 6q0 14 24 29t62.5 42.5t84.5 73t90 119.5q27 48 46.5 99t28.5 103t8.5 102.5t-12.5 97.5q-7 32 -24 58t-34 46t-29.5 33.5t-12.5 20.5
q0 13 9 13q8 0 23 -10.5t33 -29.5t36.5 -47t33.5 -62.5t25 -76t10 -87.5z" />
    <glyph glyph-name="colon" unicode=":" horiz-adv-x="346" 
d="M120 234q-2 12 1 26t10 26.5t17.5 22t23.5 13.5t23 0t16 -12t8.5 -19.5t-0.5 -23.5q-3 -16 -16 -32t-28.5 -24.5t-30.5 -4.5t-24 28zM42 1q-2 12 1 26t9.5 26.5t17 22t23.5 12.5q13 4 23 0.5t16 -12t8.5 -19.5t0.5 -23q-3 -16 -16 -32t-28.5 -24.5t-30.5 -4.5t-24 28z
M120 234q-2 12 1 26t10 26.5t17.5 22t23.5 13.5t23 0t16 -12t8.5 -19.5t-0.5 -23.5q-3 -16 -16 -32t-28.5 -24.5t-30.5 -4.5t-24 28z" />
    <glyph glyph-name="hyphen" unicode="-" horiz-adv-x="564" 
d="M146 228q-8 0 -13.5 4t-5.5 9v16q0 5 5.5 9t13.5 4h246q8 0 14 -4t6 -9v-16q0 -5 -6 -9t-14 -4h-246z" />
    <glyph glyph-name="plus" unicode="+" horiz-adv-x="618" 
d="M305 270h159q8 0 13.5 -4t5.5 -9v-16q0 -5 -5.5 -9t-13.5 -4h-159v-162q0 -8 -4 -13.5t-9 -5.5h-15q-5 0 -9.5 5.5t-4.5 13.5v162h-162q-8 0 -13.5 4t-5.5 9v16q0 5 5.5 9t13.5 4h162v159q0 8 4.5 13.5t9.5 5.5h15q5 0 9 -5.5t4 -13.5v-159z" />
    <glyph glyph-name="Euro" unicode="&#x20ac;" horiz-adv-x="353" 
d="M303 623q7 2 13 2t12 1q15 -1 29 -3t24.5 -7t16 -14.5t5.5 -24.5t-4.5 -34t-13 -35t-20.5 -27t-27 -11q-14 0 -17.5 9.5t-3.5 20.5q0 12 0.5 22t0.5 20q0 17 -8 25.5t-20 8.5q-18 0 -33 -8t-27.5 -21t-22.5 -28.5t-19 -30.5q-4 -6 -4 -10q0 -5 6 -8l8 -4q23 -13 46.5 -22
t46.5 -20q10 -5 13.5 -15.5t0.5 -20.5t-10.5 -17.5t-19.5 -5.5q-29 6 -57 24.5t-57 27.5q-7 0 -10 -8.5t-7 -15.5q14 -10 33.5 -16.5t37.5 -14t26.5 -14t11.5 -11.5q6 -8 6 -16.5t-4.5 -16t-12 -12t-16.5 -2.5q-29 5 -54 20.5t-53 25.5q-8 -20 -17 -44t-9 -46q0 -9 3 -19
t9 -18.5t15 -14t22 -5.5q10 0 17 5t13.5 10.5t15 10.5t20.5 5q10 0 17.5 -4.5t7.5 -16.5q0 -16 -13.5 -31.5t-33 -28t-42 -20t-38.5 -7.5q-34 0 -58.5 11t-39.5 30t-21.5 44t-6.5 55q0 39 9.5 71t22.5 59l-6.5 2.5t-14.5 6.5t-15.5 7.5t-8.5 3.5q-8 5 -12.5 12.5t-4.5 17.5
q0 15 10.5 23t19.5 8q8 0 17 -3t17 -7.5t16 -8.5t15 -6q2 0 4.5 3.5t4.5 7t3 6.5t1 2q0 5 -9.5 9t-20.5 9t-21 12t-10 19q0 11 9 22.5t23 11.5q8 0 18 -3.5t20 -8.5l20 -10t19 -7q37 36 84 67.5t113 44.5z" />
    <glyph glyph-name="quotedbl" unicode="&#x22;" horiz-adv-x="101" 
d="M7 692q-6 -28 -15.5 -52t-20.5 -53q-4 -7 -11 -7t-10 7v12q0 3 1 7t0 11q2 18 4 34.5t5 36.5l2 26l2 26l1 29q-1 12 3 26q4 8 9 16t15 8q11 1 16.5 -6.5t11.5 -16.5q3 -14 2.5 -26.5t-3.5 -26.5zM135 692q-7 -27 -16.5 -51t-20.5 -53q-5 -7 -11 -7t-10 7v12q0 2 1 6.5
t0 10.5q2 19 3.5 35.5t5.5 36.5q1 13 2.5 26t1.5 26l1 29q-1 12 4 26q3 8 8 16t16 8q11 1 16.5 -6.5t10.5 -16.5q4 -14 3 -26.5t-4 -26.5z" />
    <glyph glyph-name="asterisk" unicode="*" horiz-adv-x="524" 
d="M352 590l-93 -93q-5 -5 -12 -6.5t-10 2.5l-12 12q-3 3 -2 10t7 12l91 90l-129 1q-8 -1 -13.5 3.5t-5.5 10.5l-1 15q1 5 6.5 9t13.5 4h130l-92 92q-6 5 -7 12t3 11l11 12q4 3 10.5 1.5t11.5 -6.5l92 -92v132q1 8 4 13.5t8 5.5h17q5 0 9 -5.5t4 -13.5v-131l94 93
q5 5 11.5 6t9.5 -2l12 -11q4 -4 3 -10.5t-6 -12.5l-95 -94h134q8 0 13 -4t5 -9v-15q0 -6 -5 -10t-13 -5h-133l94 -92q11 -14 4 -23l-12 -10q-4 -4 -10.5 -3t-11.5 6l-94 93v-130q0 -7 -4 -13t-9 -5h-17q-5 0 -8.5 5t-2.5 13v132z" />
    <glyph glyph-name="period" unicode="." horiz-adv-x="198" 
d="M14 1q-2 12 1 26t10 26.5t17.5 22t23.5 12.5q13 4 23 0.5t16 -12t8.5 -19.5t-0.5 -23q-3 -16 -16 -32t-28.5 -24.5t-30.5 -4.5t-24 28z" />
    <glyph glyph-name="comma" unicode="," horiz-adv-x="42" 
d="M87 32q-8 -31 -25 -50.5t-52 -41.5q-13 -9 -28 -13.5t-24 -2.5q-3 1 -5 2q-3 4 -2 7q1 6 7.5 6t15.5 3q8 4 23 12t18 18q2 10 -3 15q-13 10 -21.5 24.5t-3.5 31.5q5 23 26.5 36.5t43.5 7.5q15 -4 25 -20.5t5 -34.5z" />
    <glyph glyph-name="bar" unicode="|" horiz-adv-x="-58" 
d="M-8 17q0 -8 -4 -13.5t-9 -4.5l-16 -1q-5 0 -9 5.5t-4 13.5l1 796q-1 8 3 14t9 5l16 1q5 -1 9 -6.5t4 -13.5v-796z" />
    <glyph glyph-name="equal" unicode="=" horiz-adv-x="617" 
d="M127 120q-8 0 -13 3.5t-5 8.5v16q0 5 5 9.5t13 4.5h364q8 0 13.5 -4.5t5.5 -9.5v-16q0 -5 -5.5 -8.5t-13.5 -3.5h-364zM127 320q-8 0 -13 3.5t-5 8.5v16q0 5 5 9.5t13 4.5h364q8 0 13.5 -4.5t5.5 -9.5v-16q0 -5 -5.5 -8.5t-13.5 -3.5h-364z" />
    <glyph glyph-name="underscore" unicode="_" horiz-adv-x="417" 
d="M-32 -1q-8 0 -13 4t-5 9v15q0 5 5 9.5t13 4.5h480q8 0 13.5 -4.5t5.5 -9.5v-15q0 -5 -5.5 -9t-13.5 -4h-480z" />
    <glyph glyph-name="endash" unicode="&#x2013;" horiz-adv-x="706" 
d="M146 228q-8 0 -13.5 4t-5.5 9v16q0 5 5.5 9t13.5 4h388q8 0 13.5 -4t5.5 -9v-16q0 -5 -5.5 -9t-13.5 -4h-388z" />
    <glyph glyph-name="emdash" unicode="&#x2014;" horiz-adv-x="922" 
d="M146 228q-8 0 -13.5 4t-5.5 9v16q0 5 5.5 9t13.5 4h605q8 0 13.5 -4t5.5 -9v-16q0 -5 -5.5 -9t-13.5 -4h-605z" />
    <glyph glyph-name="ellipsis" unicode="&#x2026;" horiz-adv-x="547" 
d="M-48 1q-2 12 1 26t9.5 26.5t17 22t23.5 12.5q13 4 23 0.5t16 -12t8.5 -19.5t0.5 -23q-3 -16 -16 -32t-28.5 -24.5t-30.5 -4.5t-24 28zM232 1q-2 12 1 26t10 26.5t17.5 22t23.5 12.5q13 4 23 0.5t16 -12t8.5 -19.5t0.5 -23q-4 -16 -16.5 -32t-28 -24.5t-31 -4.5t-24.5 28z
M497 1q-2 12 1 26t9.5 26.5t17 22t23.5 12.5q13 4 23 0.5t16 -12t8.5 -19.5t0.5 -23q-3 -16 -16 -32t-28.5 -24.5t-30.5 -4.5t-24 28z" />
    <glyph glyph-name="divide" unicode="&#xf7;" horiz-adv-x="301" 
d="M137 331q-2 12 1 26t10 26.5t17.5 22t23.5 13.5t23 0t16 -12t8.5 -19.5t-0.5 -23.5q-3 -16 -16 -32t-28.5 -24.5t-30.5 -4.5t-24 28zM59 98q-2 12 1 26t9.5 26.5t17 22t23.5 12.5q13 4 23 0.5t16 -12t8.5 -19.5t0.5 -23q-3 -16 -16 -32t-28.5 -24.5t-30.5 -4.5t-24 28z
M137 331q-2 12 1 26t10 26.5t17.5 22t23.5 13.5t23 0t16 -12t8.5 -19.5t-0.5 -23.5q-3 -16 -16 -32t-28.5 -24.5t-30.5 -4.5t-24 28zM-31 228q-8 0 -13.5 4t-5.5 9v16q0 5 5.5 9t13.5 4h363q8 0 13.5 -4t5.5 -9v-16q0 -5 -5.5 -9t-13.5 -4h-363z" />
    <glyph glyph-name="question" unicode="?" horiz-adv-x="777" 
d="M657 759q11 -2 23.5 -2.5t26.5 -3.5q35 -6 60.5 -22t40 -39.5t17.5 -54t-6 -64.5q-15 -53 -50 -89.5t-82 -59.5q-51 -25 -103.5 -44.5t-104.5 -42.5q-29 -12 -57 -27t-55 -32q-20 -12 -34 -30t-25 -41q-2 -4 -7 -9t-10 -3t-5.5 10t1.5 12q19 39 48 68.5t65 52.5
q51 34 102 65.5t102 66.5q42 28 73 64t45 86q2 9 3.5 18.5t1.5 19.5q2 33 -16.5 54t-53.5 25q-48 5 -87 -12t-74 -47q-32 -27 -56.5 -59t-32.5 -77q-6 -37 30 -50q27 -10 5 -27q-17 -14 -36 -15t-38 5q-20 7 -28 21.5t-10 34.5q-3 37 11 66.5t37 55.5q55 62 124.5 91.5
t154.5 34.5zM181 1q-2 12 1 26t9.5 26.5t17 22t23.5 12.5q13 4 23 0.5t16.5 -12t9 -19.5t-0.5 -23q-3 -16 -16 -32t-28.5 -24.5t-30.5 -4.5t-24 28z" />
    <glyph glyph-name="exclam" unicode="!" horiz-adv-x="516" 
d="M149 178q-5 8 0 16q18 39 42 79.5t49.5 82.5t51 84.5t46.5 84.5q28 54 57.5 103.5t73.5 93.5q8 7 17 14t19 11.5t20.5 5.5t20.5 -3q13 -7 17 -19t2.5 -26.5t-6.5 -28.5t-10 -24q-26 -49 -55 -92.5t-67 -82.5q-64 -64 -120.5 -137.5t-119.5 -147.5q0 -2 -1 -2t-1 -2
q-8 -8 -13.5 -11t-10 -3t-7.5 1.5zM35 17q-2 13 1 27t10 26.5t17.5 22t23.5 12.5q13 4 23 0.5t16 -12t8.5 -19.5t-0.5 -23q-3 -16 -16 -32.5t-28.5 -24.5t-30.5 -4.5t-24 27.5z" />
    <glyph glyph-name="slash" unicode="/" horiz-adv-x="592" 
d="M-25 -8q-15 2 -22 9q-5 5 -3.5 15.5t6.5 17.5q60 91 132.5 172t144.5 157q47 49 93.5 99.5t90 103t82 109t69.5 119.5q11 17 23.5 27t29.5 11q14 1 19.5 -6.5t-2.5 -20.5q-66 -108 -149.5 -208.5t-167.5 -196.5q-80 -92 -158.5 -185.5t-139.5 -188.5l1 1q-6 -13 -14 -22
t-24 -14z" />
    <glyph glyph-name="backslash" unicode="\" horiz-adv-x="592" 
d="M607 -9q-17 5 -24.5 14t-14.5 22l1 -1q-61 95 -139.5 188.5t-157.5 185.5q-85 97 -168.5 196.5t-149.5 208.5q-8 13 -2 20.5t20 6.5q17 -1 29 -11t23 -27q31 -63 69.5 -119.5t82 -109t90 -103t93.5 -99.5q73 -76 145.5 -157t132.5 -172q4 -7 5.5 -17.5t-3.5 -15.5
q-8 -8 -22 -9z" />
    <glyph glyph-name="percent" unicode="%" horiz-adv-x="748" 
d="M54 -9q17 5 24.5 14t13.5 22v-1q60 95 138.5 188.5t158.5 185.5q85 97 168 196.5t150 208.5q8 13 2 20.5t-20 6.5q-17 -1 -29 -11t-23 -27q-32 -63 -70.5 -119.5t-81.5 -109t-89.5 -103t-93.5 -99.5q-73 -76 -145.5 -157t-132.5 -172q-5 -7 -6 -17.5t4 -15.5q6 -7 21 -9z
M129 774q29 22 62 39t70 19q31 2 57 -11.5t38 -43.5q13 -34 6.5 -70t-16.5 -70q-11 -35 -28 -68.5t-38 -64.5q-18 -26 -40 -51t-47.5 -45.5t-54.5 -35t-62 -18.5q-30 -4 -59.5 6t-46.5 36q-20 29 -20 65.5t9 69.5q18 74 64 135t106 108zM27 477q-1 -12 -3 -26.5t-0.5 -29
t8 -25.5t21.5 -15q22 -7 43.5 5t38.5 26q45 38 74 90.5t54 104.5q14 29 25.5 59.5t18.5 62.5q2 10 3.5 23t0 25.5t-8 22.5t-19.5 13q-18 4 -36.5 -6.5t-31.5 -20.5q-29 -24 -53 -53q-23 -27 -42 -56.5t-36 -59.5q-20 -33 -33 -68.5t-24 -71.5zM563 424q29 22 62 39t70 19
q31 2 57 -11.5t38 -43.5q13 -34 6.5 -70t-16.5 -70q-11 -35 -28 -68.5t-38 -64.5q-18 -26 -40 -51t-47.5 -45.5t-54.5 -35t-62 -18.5q-30 -4 -59.5 6t-46.5 36q-20 29 -19.5 65.5t8.5 69.5q18 74 64 135t106 108zM461 127q-1 -12 -3 -26.5t-0.5 -29t8 -25.5t21.5 -15
q23 -7 44 5t38 26q45 38 74 90.5t54 104.5q14 29 25.5 59.5t19.5 62.5q2 10 3 23t-0.5 25.5t-8 22.5t-19.5 13q-18 4 -36.5 -6.5t-31.5 -20.5q-30 -26 -52 -53q-23 -27 -42 -56.5t-37 -59.5q-20 -33 -33 -68.5t-24 -71.5z" />
    <glyph glyph-name="perthousand" unicode="&#x2030;" horiz-adv-x="912" 
d="M-25 -8q-15 2 -22 9q-5 5 -3.5 15.5t6.5 17.5q60 91 132.5 172t144.5 157q47 49 93.5 99.5t90 103t82 109t69.5 119.5q11 17 23.5 27t29.5 11q14 1 19.5 -6.5t-2.5 -20.5q-66 -108 -149.5 -208.5t-167.5 -196.5q-80 -92 -158.5 -185.5t-139.5 -188.5l1 1q-6 -13 -14 -22
t-24 -14zM760 364q24 19 52.5 33t60.5 16q26 2 49 -9t33 -37q11 -29 5.5 -60.5t-13.5 -59.5q-10 -31 -24.5 -60t-32.5 -55q-16 -22 -34.5 -43.5t-40.5 -39.5t-47 -30.5t-53 -15.5q-26 -3 -51 6t-40 30q-17 25 -17.5 56t7.5 60q16 63 55.5 116t90.5 93zM672 108
q-1 -10 -2.5 -22.5t0 -24t7 -21t18.5 -13.5q19 -6 37.5 4t32.5 21q39 33 64 78.5t47 90.5q11 24 21.5 50t15.5 54q2 8 3 19.5t-0.5 22t-7 19t-16.5 11.5q-15 4 -31 -5.5t-27 -17.5q-26 -21 -45 -45q-20 -23 -36 -49t-31 -52q-17 -27 -28.5 -57.5t-21.5 -62.5zM410 364
q24 19 52.5 33t60.5 16q26 2 49 -9t33 -37q11 -29 5.5 -60.5t-13.5 -59.5q-10 -31 -24.5 -60t-32.5 -55q-16 -22 -34.5 -43.5t-40.5 -39.5t-47 -30.5t-53 -15.5q-26 -3 -51 6t-40 30q-17 25 -17.5 56t7.5 60q16 63 55.5 116t90.5 93zM322 108q-1 -10 -2.5 -22.5t0 -24t7 -21
t18.5 -13.5q19 -6 37.5 4t32.5 21q39 33 64 78.5t47 90.5q11 24 21.5 50t15.5 54q2 8 3 19.5t-0.5 22t-7 19t-16.5 11.5q-15 4 -31 -5.5t-27 -17.5q-26 -21 -45 -45q-20 -23 -36 -49t-31 -52q-17 -27 -28.5 -57.5t-21.5 -62.5zM152 781q24 19 52.5 33t60.5 16
q26 2 48.5 -9.5t33.5 -37.5q11 -29 5 -60t-14 -60q-9 -31 -23.5 -59.5t-32.5 -54.5q-16 -22 -34.5 -43.5t-40.5 -39.5t-47 -30.5t-53 -15.5q-26 -3 -51 5.5t-40 30.5q-17 25 -17.5 56t7.5 60q16 63 55.5 115.5t90.5 93.5zM64 525q-1 -10 -2.5 -22.5t0 -24.5t7 -21.5
t18.5 -13.5q19 -5 37.5 4.5t32.5 21.5q38 32 63 77.5t47 90.5q11 25 21.5 51t16.5 54q2 8 3 19.5t-0.5 22t-7 19t-16.5 11.5q-16 4 -31.5 -5.5t-26.5 -17.5q-26 -21 -45 -45q-20 -23 -36.5 -49t-31.5 -52q-17 -28 -28 -58t-21 -62z" />
    <glyph glyph-name="questiondown" unicode="&#xbf;" horiz-adv-x="719" 
d="M215.986 -62.9961q-10.999 2 -23.498 2.5t-26.498 3.5q-34.998 5.99902 -60.4971 21.998q-25.498 15.999 -39.9971 39.498q-14.499 23.498 -17.499 53.9961t6 64.4961q14.999 52.9971 49.9971 89.4951q34.9971 36.4971 81.9941 59.4961q50.9971 24.998 103.494 44.4971
t104.493 42.498q28.999 11.999 56.9971 26.998t54.9961 31.998q19.999 11.999 33.998 29.998t24.999 40.9971q2 4 6.99902 9q5 5 10 3q4.99902 -2 5.49902 -10q0.5 -7.99902 -1.5 -11.999q-18.998 -38.998 -47.9971 -68.4961q-28.998 -29.498 -64.9961 -52.4961
q-50.9961 -33.998 -101.993 -65.4961t-101.994 -66.4961q-41.9971 -27.998 -72.9951 -63.9961t-44.9971 -85.9951q-2 -8.99902 -3.5 -18.499q-1.5 -9.49902 -1.5 -19.498q-2 -32.998 16.499 -53.9971t53.4961 -24.998q47.998 -5 86.9951 11.999
q38.998 16.999 73.9951 46.9971q31.998 26.998 56.4971 58.9961q24.498 31.998 32.498 76.9951q5.99902 36.998 -29.998 49.9971q-26.999 10 -5 26.999q16.999 13.999 35.998 14.999t37.9971 -5q19.999 -7 27.999 -21.499q7.99902 -14.499 9.99902 -34.498
q3 -36.9971 -10.999 -66.4951q-13.999 -29.499 -36.998 -55.4971q-54.9971 -61.9961 -124.492 -91.4941q-69.4961 -29.498 -154.491 -34.498zM691.958 694.958q2 -12 -1 -25.999t-9.5 -26.498q-6.49902 -12.499 -16.999 -21.999q-10.499 -9.49902 -23.498 -12.499
q-12.999 -4 -22.999 -0.5q-9.99902 3.5 -16.499 11.999q-6.49902 8.5 -8.99902 19.499t0.5 22.999q3 15.999 15.999 31.998t28.498 24.498q15.499 8.5 30.498 4.5t23.999 -27.998z" />
    <glyph glyph-name="exclamdown" unicode="&#xa1;" horiz-adv-x="613" 
d="M380.977 537.967q5 -7.99902 0 -15.999q-17.999 -38.9971 -41.9971 -79.4951q-23.999 -40.4971 -49.4971 -82.4941q-25.498 -41.998 -50.9971 -84.4951q-25.498 -42.498 -46.4971 -84.4951q-27.998 -53.9971 -57.4961 -103.493q-29.499 -49.4971 -73.4961 -93.4951
q-7.99902 -6.99902 -16.999 -13.999q-8.99902 -6.99902 -18.999 -11.499q-9.99902 -4.5 -20.498 -5.5q-10.5 -1 -20.499 3q-12.999 7 -16.999 18.999t-2.5 26.498t6.5 28.499q5 13.999 9.99902 23.998q25.999 48.9971 54.9971 92.4941q28.998 43.498 66.9961 82.4951
q63.9961 63.9961 120.492 137.491q56.4961 73.4961 119.493 147.491q0 2 0.999023 2q1 0 1 2q8 7.99902 13.5 10.999q5.49902 3 9.99902 3t7.49902 -1.5zM494.97 698.957q2 -12.999 -1 -26.998t-9.99902 -26.498q-7 -12.5 -17.499 -21.999t-23.499 -12.499
q-12.999 -4 -22.998 -0.5q-10 3.5 -15.999 11.999q-6 8.5 -8.5 19.499t0.5 22.998q3 15.999 15.999 32.498t28.498 24.499q15.5 7.99902 30.499 4.5q14.999 -3.5 23.998 -27.499z" />
    <glyph glyph-name="braceleft" unicode="{" horiz-adv-x="402" 
d="M452 808q-64 -19 -85 -39.5t-49.5 -49.5t-44 -68.5t-49.5 -127t-38 -109t-16 -39.5t-34.5 -33t-62.5 -24q22 -8 30.5 -22.5t8.5 -32.5t-19.5 -55t-52 -232.5t46.5 -259.5l-22 -16q-68 35 -86.5 69t-23.5 73.5t23 178t32.5 165t11.5 45t11 36t0.5 31.5t-17.5 20l10 26
q21 0 35 8.5t22.5 22t12.5 31t39 108.5t56.5 137t60 80.5t74.5 57.5t118 43z" />
    <glyph glyph-name="braceright" unicode="}" horiz-adv-x="402" 
d="M-50 -276q63 19 84.5 39.5t49.5 49.5t43.5 69t50 148t38.5 129.5t15.5 39.5t34 33t62.5 24q-21 8 -30 22.5t-9 32.5t19.5 55t52 211.5t-46.5 239.5l23 15q68 -35 86.5 -69t23.5 -73t-23 -157t-32.5 -144.5t-12 -45t-11.5 -36t0 -31.5t18 -20l-10 -26q-21 0 -35 -8.5
t-22.5 -22t-12.5 -31t-39 -129.5t-57 -158t-60 -80t-74 -57t-119 -44z" />
    <glyph glyph-name="less" unicode="&#x3c;" horiz-adv-x="282" 
d="M150 6l-152 187q-8 11 -6 28q8 26 30 38l284 172q5 3 10 2.5t7 -5.5l4 -5q5 -5 4.5 -10.5t-5.5 -9.5l-247 -181q-9 -9 -3 -19l97 -182q6 -13 -6 -20q-5 -2 -10 -0.5t-7 5.5z" />
    <glyph glyph-name="greater" unicode="&#x3e;" horiz-adv-x="397" 
d="M361 241q8 -11 6 -28q-8 -26 -30 -38l-284 -172q-5 -3 -10 -2.5t-7 5.5l-4 5q-5 5 -4.5 10.5t5.5 9.5l247 181q9 9 3 19l-97 182q-6 13 6 20q5 2 10 0.5t7 -5.5z" />
    <glyph glyph-name="quotesingle" unicode="'" horiz-adv-x="246" 
d="M395 585q-8 -31 -25 -50t-52 -42q-14 -9 -29 -13.5t-23 -2.5q-3 1 -5 2q-3 4 -3 8q2 5 8.5 5t15.5 4q7 3 22 11t19 19q2 10 -4 15q-12 10 -21 24t-4 32q6 22 27.5 36t42.5 8q16 -4 26 -21t5 -35z" />
    <glyph glyph-name="quoteright" unicode="&#x2019;" horiz-adv-x="259" 
d="M304 693q-8 -31 -25 -50t-52 -41q-14 -10 -29 -14.5t-23 -1.5q-3 1 -5 1q-3 5 -3 8q2 6 8.5 6t15.5 3q7 3 22 11t19 19q2 10 -4 15q-12 10 -21 24t-4 32q6 22 27.5 36t42.5 8q16 -4 26 -20.5t5 -35.5z" />
    <glyph glyph-name="quoteleft" unicode="&#x2018;" horiz-adv-x="193" 
d="M26 645q8 31 25 50t52 42q14 9 29 13.5t23 1.5q3 0 5 -1q3 -4 2 -8q-1 -6 -7.5 -6t-15.5 -3q-7 -3 -22 -11t-19 -19q-2 -10 4 -15q12 -10 21 -24t4 -32q-6 -22 -27.5 -36t-42.5 -8q-16 4 -26 21t-5 35z" />
    <glyph glyph-name="guilsinglleft" unicode="&#x2039;" horiz-adv-x="240" 
d="M108 6l-151 187q-9 13 -6 28q6 26 29 38l284 172q12 7 18 -3l4 -5q5 -5 4 -10.5t-6 -9.5l-247 -181q-8 -8 -3 -19l98 -182q5 -13 -7 -20q-10 -3 -17 5z" />
    <glyph glyph-name="guilsinglright" unicode="&#x203a;" horiz-adv-x="240" 
d="M283 241q9 -13 6 -28q-7 -26 -29 -38l-284 -172q-12 -7 -18 3l-4 5q-5 5 -4 10.5t6 9.5l246 181q8 8 4 19l-98 182q-5 14 7 20q10 3 17 -5z" />
    <glyph glyph-name="quotesinglbase" unicode="&#x201a;" horiz-adv-x="42" 
d="M87 32q-8 -31 -25 -50.5t-52 -41.5q-13 -9 -28 -13.5t-24 -2.5q-3 1 -5 2q-3 4 -2 7q1 6 7.5 6t15.5 3q8 4 23 12t18 18q2 10 -3 15q-13 10 -21.5 24.5t-3.5 31.5q5 23 26.5 36.5t43.5 7.5q15 -4 25 -20.5t5 -34.5z" />
    <glyph glyph-name="quotedblbase" unicode="&#x201e;" horiz-adv-x="192" 
d="M87 32q-8 -31 -25 -50.5t-52 -41.5q-13 -9 -28 -13.5t-24 -2.5q-3 1 -5 2q-3 4 -2 7q1 6 7.5 6t15.5 3q8 4 23 12t18 18q2 10 -3 15q-13 10 -21.5 24.5t-3.5 31.5q5 23 26.5 36.5t43.5 7.5q15 -4 25 -20.5t5 -34.5zM237 32q-8 -31 -25 -50.5t-52 -41.5q-13 -9 -28 -13.5
t-24 -2.5q-3 1 -5 2q-3 4 -2 7q1 6 7.5 6t15.5 3q8 4 23 12t18 18q2 10 -3 15q-13 10 -21.5 24.5t-3.5 31.5q5 23 26.5 36.5t43.5 7.5q15 -4 25 -20.5t5 -34.5z" />
    <glyph glyph-name="periodcentered" unicode="&#xb7;" horiz-adv-x="2" 
d="M-48 317q-2 13 1 27t9.5 26.5t17 22t23.5 12.5q13 4 23 0.5t16 -12t8.5 -19.5t0.5 -23q-3 -16 -16 -32.5t-28.5 -24.5t-30.5 -4.5t-24 27.5z" />
    <glyph glyph-name="fraction" unicode="&#x2044;" horiz-adv-x="592" 
d="M-25 -1q-14 2 -22 8q-5 5 -3.5 16t6.5 18q60 91 132.5 171.5t144.5 157.5q47 49 93.5 99t90 103t82 109.5t69.5 119.5q11 16 23.5 26t29.5 11q14 2 19.5 -5.5t-2.5 -20.5q-66 -109 -149 -208.5t-168 -196.5q-80 -92 -158.5 -186t-139.5 -189l1 1q-6 -12 -14 -21.5
t-24 -14.5z" />
    <glyph glyph-name="bullet" unicode="&#x2022;" horiz-adv-x="99" 
d="M-48 296q-4 24 2 51.5t19.5 51.5t34 42.5t45.5 25.5t44.5 0t32 -23t17 -38.5t-0.5 -44.5q-5 -21 -17.5 -42.5t-30.5 -39.5t-39 -29.5t-41 -11.5t-37.5 13t-28.5 45q-4 24 2 51.5t19.5 51.5t34 42.5t45.5 25.5t44.5 0t32 -23t17 -38.5t-0.5 -44.5q-5 -21 -17.5 -42.5
t-30.5 -39.5t-39 -29.5t-41 -11.5t-37.5 13t-28.5 45z" />
    <glyph glyph-name="numbersign" unicode="#" horiz-adv-x="563" 
d="M437 495h162q8 0 11.5 -4t1.5 -9l-8 -16q-2 -5 -10 -9t-16 -4h-161l-64 -133h161q8 0 11.5 -4t1.5 -9l-8 -16q-2 -5 -9.5 -9t-15.5 -4h-161l-73 -151q-4 -8 -10.5 -13t-11.5 -5h-16q-5 0 -6.5 5t2.5 13l73 151h-133l-73 -151q-4 -8 -10.5 -13t-11.5 -5h-16q-5 0 -6.5 5
t2.5 13l73 151h-152q-8 0 -11.5 4t-0.5 9l7 16q2 5 9.5 9t15.5 4h152l65 133h-153q-8 0 -11 4t0 9l7 16q2 5 9.5 9t15.5 4h152l79 162q4 8 11 14t12 6h16q5 0 6 -6t-3 -14l-80 -162h134l79 162q4 8 11 14t12 6h16q5 0 6 -6t-3 -14zM178 320h133l65 133h-134z" />
    <glyph glyph-name="guillemotleft" unicode="&#xab;" horiz-adv-x="448" 
d="M108 6l-151 187q-9 13 -6 28q6 26 29 38l284 172q12 7 18 -3l4 -5q5 -5 4 -10.5t-6 -9.5l-247 -181q-8 -8 -3 -19l98 -182q5 -13 -7 -20q-10 -3 -17 5zM317 6l-152 187q-9 13 -6 28q6 26 29 38l284 172q13 7 18 -3l4 -5q5 -5 4 -10.5t-6 -9.5l-246 -181q-9 -9 -4 -19
l98 -182q5 -14 -7 -20q-11 -4 -16 5z" />
    <glyph glyph-name="guillemotright" unicode="&#xbb;" horiz-adv-x="448" 
d="M492 241q8 -14 5 -28q-7 -26 -29 -38l-284 -172q-12 -7 -17 3l-5 5q-4 5 -3.5 10.5t5.5 9.5l247 181q8 8 3 19l-97 182q-6 13 6 20q5 2 10 0.5t7 -5.5zM283 241q9 -13 6 -28q-7 -26 -29 -38l-284 -172q-12 -7 -18 3l-4 5q-5 5 -4 10.5t6 9.5l246 181q8 8 4 19l-98 182
q-5 14 7 20q10 3 17 -5z" />
    <glyph glyph-name="quotedblleft" unicode="&#x201c;" horiz-adv-x="201" 
d="M-45 645q8 31 25 50t52 42q14 9 29 13.5t23 1.5q3 0 5 -1q3 -4 3 -8q-2 -6 -8.5 -6t-15.5 -3q-7 -3 -22 -11t-19 -19q-2 -10 4 -15q12 -10 21 -24t4 -32q-6 -22 -27.5 -36t-42.5 -8q-16 4 -26 21t-5 35zM113 645q9 31 26 50t52 42q13 9 28 13.5t23 1.5q4 0 5 -1
q4 -4 3 -8q-2 -6 -8 -6t-15 -3q-8 -3 -23 -11t-18 -19q-3 -10 3 -15q13 -10 21.5 -24t3.5 -32q-6 -22 -27 -36t-43 -8q-16 4 -26 21t-5 35z" />
    <glyph glyph-name="quotedblright" unicode="&#x201d;" horiz-adv-x="201" 
d="M246 693q-9 -31 -26 -50t-52 -41q-13 -10 -28 -14.5t-23 -1.5q-4 1 -5 1q-4 5 -3 8q2 6 8 6t15 3q8 3 23 11t18 19q3 10 -3 15q-13 10 -21.5 24t-3.5 32q6 22 27 36t43 8q16 -4 26 -20.5t5 -35.5zM87 693q-8 -31 -25 -50t-52 -41q-13 -10 -28 -14.5t-24 -1.5q-3 1 -5 1
q-3 5 -2 8q1 6 7.5 6t15.5 3q8 3 23 11t18 19q2 10 -3 15q-13 10 -21.5 24t-3.5 32q5 22 26.5 36t43.5 8q15 -4 25 -20.5t5 -35.5z" />
    <glyph glyph-name="lessequal" unicode="&#x2264;" horiz-adv-x="303" 
d="M172 196l-152 187q-9 13 -6 28q6 26 29 38l284 172q13 7 18 -3l4 -5q5 -5 4 -10.5t-6 -9.5l-246 -181q-9 -9 -4 -19l98 -182q5 -14 -7 -20q-11 -4 -16 5zM108 123q12 -14 23 -7l11 10q5 3 4.5 10.5t-5.5 12.5l-154 199q-4 6 -10.5 7.5t-10.5 -1.5l-13 -10
q-4 -3 -3.5 -9.5t5.5 -12.5z" />
    <glyph glyph-name="greaterequal" unicode="&#x2265;" horiz-adv-x="267" 
d="M283 437q9 -13 6 -28q-7 -26 -29 -38l-284 -172q-12 -7 -18 3l-4 5q-5 4 -4 10t6 10l246 180q9 9 4 20l-98 182q-5 14 7 20q10 3 17 -5zM20 162q-7 -5 -10 -11t0 -11l8 -13q3 -5 10 -5t14 5l265 161q7 4 9 10t0 11l-9 13q-2 5 -8.5 5t-12.5 -4z" />
    <glyph glyph-name="acute" unicode="&#xb4;" horiz-adv-x="131" 
d="M-56 502q29 26 61 46t62 45q8 7 16.5 15t17 14t18 8t18.5 -3q18 -10 14 -22t-11 -22q-6 -8 -23 -19.5t-39.5 -24t-47 -24t-44.5 -18.5l-29 -10q-9 -2 -12.5 3t-0.5 12z" />
    <glyph glyph-name="circumflex" unicode="&#x2c6;" horiz-adv-x="77" 
d="M107 637q3 2 8 2t12 -5v-12v-75q0 -6 -4 -9t-9.5 -3t-9.5 3t-4 9v32q-18 -14 -43 -22q-35 -14 -70 -22q-15 0 -18 -1q-11 0 -12 1h1q-8 5 -9 12t8 12q14 7 29 15t31 16q15 9 33 19t35 18z" />
    <glyph glyph-name="grave" unicode="`" horiz-adv-x="111" 
d="M145 485q2 -8 -2.5 -12.5t-12.5 -0.5l-26 15q-19 10 -41 26t-42.5 32t-35 30.5t-18.5 23.5q-5 11 -7 23t17 19q10 3 18.5 -0.5t16 -11t14.5 -16.5t14 -17q26 -30 54 -56t51 -55z" />
    <glyph glyph-name="tilde" unicode="&#x2dc;" horiz-adv-x="137" 
d="M27 634q14 0 24 -5.5t18 -14t15.5 -18t15.5 -18.5q3 -9 12 -11q4 0 9.5 2t10.5 6l19 13q1 3 2.5 5.5t5.5 4.5l5 9q4 2 9 1.5t8.5 -3.5t4.5 -7.5t-2 -9.5q-2 -4 -4.5 -7.5t-7.5 -7.5q-5 -5 -8 -9t-8 -11q-14 -15 -33 -23t-38 2q-15 9 -24 21t-19 25q-4 5 -8.5 12t-11.5 5
q-9 0 -17 -6.5t-13 -13.5l-14 -17q-5 -5 -13 -5q-9 2 -12 9.5t4 14.5q4 4 11 13.5t15.5 19t20 17t23.5 7.5z" />
    <glyph glyph-name="breve" unicode="&#x2d8;" horiz-adv-x="160" 
d="M39 384q-31 0 -51 8.5t-29 22t-8 31.5t12 37h19q-10 -24 6.5 -39.5t58.5 -15.5q60 0 95 15.5t47 39.5h21q-8 -20 -20 -38t-32 -31.5t-49 -21.5t-70 -8z" />
    <glyph glyph-name="cedilla" unicode="&#xb8;" horiz-adv-x="80" 
d="M87 27l7 -27q-2 -3 2 -4t7 -4q12 -7 19.5 -21.5t5.5 -33.5q-3 -26 -28 -42.5t-54 -17.5q-16 0 -30 2.5t-27 6.5q-3 1 -10 3.5t-13 6.5t-11 8t-4 8q1 7 8.5 7t12.5 -2q10 -5 25 -7.5t29.5 -2t26.5 5t17 13.5q2 3 3.5 9.5t-1.5 13.5q-2 8 -11 10.5t-19.5 2.5t-21.5 -1
t-18 -1q3 9 5.5 18.5t5.5 18.5q7 2 13.5 4.5t60.5 25.5z" />
    <glyph glyph-name="caron" unicode="&#x2c7;" horiz-adv-x="77" 
d="M-32 539q-3 -2 -7 -2.5t-9 2.5q-2 3 -2 13v75q0 7 3.5 10t8.5 3t8.5 -3t3.5 -10v-37q10 9 22 15.5t24 10.5q35 15 71 22q13 0 17 1q8 0 9 -1q8 -4 9 -10t-7 -11q-30 -14 -61.5 -32.5t-66.5 -35.5z" />
    <glyph glyph-name="dotlessi" unicode="&#x131;" horiz-adv-x="189" 
d="M234 407q-20 -54 -48 -97t-55 -88q-14 -26 -29 -50t-30 -49q-5 -7 -11 -16t-9.5 -19t-4.5 -20t5 -19q5 -7 10 -7q17 -7 45.5 17t57.5 60t53 73.5t33 56.5q2 3 6 10t8 12.5t7.5 5.5t5.5 -10q2 -5 -7 -20q-24 -41 -49 -86.5t-55.5 -84t-68.5 -64t-87 -25.5q-15 0 -28.5 6.5
t-22.5 23.5q-8 14 -9 30.5t2 33.5t9.5 33t12.5 29q28 57 63 109.5t65 107.5q7 12 9.5 23t5.5 24l3.5 14t6.5 9q12 6 25.5 7t27 0.5t27 -0.5t25.5 3q1 -9 2 -17t-1 -16z" />
    <glyph glyph-name="dotaccent" unicode="&#x2d9;" horiz-adv-x="8" 
d="M-50 608q0 13 5.5 26t15 24t21.5 18.5t25 8.5q26 2 36 -19t0 -43q-6 -15 -21.5 -28.5t-32 -19t-31 1t-18.5 31.5z" />
    <glyph glyph-name="ogonek" unicode="&#x2db;" horiz-adv-x="95" 
d="M145 37q-10 -5 -33.5 -17.5t-46.5 -28.5q-30 -21 -46 -42t-13 -41q1 -16 13.5 -24.5t37.5 -5.5v-16q-48 -10 -73.5 0.5t-29.5 36.5q-4 24 16 53.5t77 57.5q3 2 15.5 8t27 13t27.5 13t16 8z" />
    <glyph glyph-name="dieresis" unicode="&#xa8;" horiz-adv-x="128" 
d="M-49 666q-2 10 0.5 21t8 21t14 17.5t18.5 10.5q20 6 31.5 -9.5t6.5 -34.5q-3 -13 -13 -26t-22.5 -19.5t-24.5 -3.5t-19 23zM97 666q-2 10 0.5 21t8.5 21t14.5 17.5t18.5 10.5q20 6 31 -9.5t7 -34.5q-3 -13 -13 -26t-22.5 -19.5t-25 -3.5t-19.5 23z" />
    <glyph glyph-name="Adieresis" unicode="&#xc4;" horiz-adv-x="1142" 
d="M627 367q-16 0 -25.5 -1t-15.5 -4.5t-10.5 -9t-11.5 -14.5q-24 -29 -47.5 -59.5t-47.5 -59.5q-47 -55 -96 -107t-106 -96q-44 -31 -98 -45.5t-107 6.5q-51 20 -77.5 63.5t-32.5 94.5q-5 56 1.5 113.5t31.5 108.5q13 28 30.5 54.5t37.5 49.5q20 22 42 41.5t46 36.5
q19 14 44.5 27t53.5 20t56 6t52 -13t39 -31.5t22.5 -43t7.5 -49.5t-4 -51q-5 -28 -18 -52t-32 -45q-2 -2 -8 -9.5t-14 -14t-16 -9.5t-13 4q-3 5 -1 12t7 14.5t11 15t9 13.5q8 16 14.5 34t8.5 35q4 27 -2 51.5t-28 43.5q-21 17 -39 24t-44 7q-31 -1 -54 -8.5t-48 -23.5
q-49 -32 -80.5 -84.5t-42.5 -108.5q-5 -26 -5.5 -53t5.5 -52.5t18.5 -49t34.5 -41.5t47.5 -24.5t51 -3.5t51 13.5t47.5 24.5q51 34 93 73.5t84 84.5q20 23 39.5 45.5t38.5 45.5l1 1h-27q-8 0 -13.5 4t-5.5 9v18q0 5 5.5 9.5t13.5 4.5h67q18 20 36.5 42t36.5 44
q60 77 124 150.5t142 131.5q30 23 64.5 40t72.5 19q17 2 35 0.5t32 -11.5q17 -11 23.5 -30.5t3.5 -39.5q-4 -27 -14 -51t-23 -47t-28 -44.5t-28 -43.5l-95 -154l-149 -241q-20 -32 -39 -66t-32 -69q-3 -13 -5 -21.5t-6 -13t-11 -6t-20 -1.5q-23 1 -45.5 0.5t-45.5 -0.5
q4 35 18.5 68.5t32.5 64.5q27 45 53.5 89.5t52.5 89.5l36 55h-163zM774 412q21 1 38 7.5t28 23.5l61 98q23 36 45.5 72t45.5 73q4 8 12 19.5t15.5 24t12.5 24t4 19.5q-3 16 -17.5 18.5t-32 -2t-33.5 -13t-23 -14.5q-44 -29 -80 -68.5t-68 -78.5q-42 -50 -80 -100.5
t-75 -102.5h147zM965 907q-2 10 0.5 21t8 21t14 17.5t18.5 10.5q20 6 31.5 -9.5t6.5 -34.5q-3 -13 -13 -26t-22.5 -19.5t-24.5 -3.5t-19 23zM1111 907q-2 10 0.5 21t8.5 21t14.5 17.5t18.5 10.5q20 6 31 -9.5t7 -34.5q-3 -13 -13 -26t-22.5 -19.5t-25 -3.5t-19.5 23z" />
    <glyph glyph-name="Eacute" unicode="&#xc9;" horiz-adv-x="678" 
d="M238 587q-22 4 -46 11t-45.5 18.5t-38.5 28t-26 40.5q-8 24 -4 46t16 40.5t30.5 32.5t38.5 23q4 1 17.5 4.5t31 6.5t36.5 4t34.5 -1t24 -9.5t5.5 -21.5q-2 -7 -8 -9t-13.5 -1.5t-15 2.5t-12.5 3q-23 4 -48 -2t-45 -21q-23 -17 -29 -44t8 -52q14 -28 41 -42.5t54 -24.5
q13 51 45 89.5t74.5 65.5t91.5 43t98 22q18 2 40.5 1.5t44 -3.5t40 -9.5t29.5 -15.5q20 -21 21 -44t-9.5 -45t-29 -41t-36.5 -31q-49 -33 -111.5 -49t-119.5 -22q-18 -2 -42.5 -1t-41.5 -2q-6 -3 -7.5 -8t1.5 -10t9.5 -8.5t16.5 -3.5q16 1 35 3t38.5 1.5t37.5 -6t33 -18.5
q11 -10 11.5 -20.5t-6 -19.5t-17.5 -15.5t-22 -9.5q-28 -8 -61 -5t-61 11q-14 5 -26 13t-26 13q-16 5 -30.5 -1t-27.5 -13q-28 -16 -53 -36t-45 -45q-20 -24 -34.5 -52t-22 -58t-6.5 -61t13 -61q19 -47 54 -68.5t77 -24.5t86 8.5t81 29.5q45 23 83.5 53.5t70.5 68.5
q9 11 17 22t15 24q2 4 4 10t5 12t7 10.5t9 5.5q9 2 11.5 -2.5t1 -11.5t-4.5 -14t-5 -10q-22 -44 -53 -84.5t-68.5 -75.5t-80 -62.5t-88.5 -44.5q-30 -11 -63 -17.5t-66 -6.5t-65.5 7.5t-60.5 22.5t-50 40.5t-36 57.5q-24 54 -17.5 108t32.5 102.5t67.5 88t87.5 65.5
q29 16 60 26t63 20q-10 14 -13.5 29t-10.5 31zM354 515q10 -9 21 -16t25 -7q8 0 17 3t3 14q-4 7 -12.5 9t-18.5 1.5t-19.5 -2t-15.5 -2.5zM341 612q51 0 101 8t96 28q16 7 39 20t43 30t31 37.5t2 41.5q-4 12 -13 19t-20.5 10t-24 3t-23.5 -2q-26 -4 -52 -14t-49 -24
q-31 -19 -57.5 -40t-45.5 -50q-9 -14 -15.5 -32t-11.5 -35zM423 859q29 26 61 46t62 45q8 7 16.5 15t17 14t18 8t18.5 -3q18 -10 14 -22t-11 -22q-6 -8 -23 -19.5t-39.5 -24t-47 -24t-44.5 -18.5l-29 -10q-9 -2 -12.5 3t-0.5 12z" />
    <glyph glyph-name="Ntilde" unicode="&#xd1;" horiz-adv-x="1191" 
d="M776 277q47 89 92 178.5t99 176.5q26 41 51 80.5t54 77.5q10 13 28 32.5t39.5 35.5t43.5 22.5t42 -6.5q16 -12 15 -34t-11 -38q-6 -10 -12 -13t-12.5 -3t-14 2t-17.5 2q-22 0 -41 -11.5t-35 -28t-29.5 -35t-25.5 -33.5q-72 -94 -126 -199t-108 -209q-20 -38 -41 -74.5
t-44 -72.5q-8 -17 -18 -33.5t-21 -31.5q-3 -5 -11.5 -16.5t-17.5 -21.5t-16.5 -12.5t-8.5 10.5q-1 8 8 21.5t11 22.5q8 23 12.5 46t5.5 47q3 33 2 65.5t-3.5 65.5t-4.5 66t-1 66q2 63 11 120.5t26 117.5q-27 -54 -57.5 -104.5t-59.5 -103.5q-28 -49 -53.5 -98.5t-54.5 -97.5
q-30 -47 -70 -99.5t-89.5 -95t-107 -67.5t-121.5 -16q-40 5 -66.5 26.5t-42 52.5t-21 67t-3.5 71q4 91 46 166.5t110 133.5q27 22 65 44t77 30.5t73.5 -3.5t55.5 -57q16 -35 11.5 -76t-21.5 -73q-1 -2 -7 -10t-14.5 -18.5t-18.5 -21t-19 -17t-16 -7t-9 9.5q0 3 4 9t10 12
l11.5 11.5t7.5 8.5q8 14 11.5 26t3.5 26q4 34 -9 68.5t-46 51.5q-35 17 -69 9.5t-64 -28.5t-54 -51t-38 -58q-15 -29 -25 -65.5t-11.5 -73t8.5 -71t36 -59.5q27 -27 59 -33t65 1t64 24t56 37q44 34 79.5 76t65.5 88t57.5 94t55.5 95q43 72 88.5 143t99.5 137q4 4 15.5 16.5
t25 24.5t25.5 18.5t18 -1.5q4 -6 2 -11t-6.5 -9.5t-9.5 -8t-8 -6.5q-11 -11 -18 -24.5t-12 -30.5q-11 -38 -12.5 -80.5t-1.5 -83.5q0 -44 2 -87.5t0 -88.5q-1 -48 -10 -95t-18 -95q8 16 17 32t17 33zM955 991q14 0 24 -5.5t18 -14t15.5 -18t15.5 -18.5q3 -9 12 -11
q4 0 9.5 2t10.5 6l19 13q1 3 2.5 5.5t5.5 4.5l5 9q4 2 9 1.5t8.5 -3.5t4.5 -7.5t-2 -9.5q-2 -4 -4.5 -7.5t-7.5 -7.5q-5 -5 -8 -9t-8 -11q-14 -15 -33 -23t-38 2q-15 9 -24 21t-19 25q-4 5 -8.5 12t-11.5 5q-9 0 -17 -6.5t-13 -13.5l-14 -17q-5 -5 -13 -5q-9 2 -12 9.5
t4 14.5q4 4 11 13.5t15.5 19t20 17t23.5 7.5z" />
    <glyph glyph-name="Odieresis" unicode="&#xd6;" horiz-adv-x="642" 
d="M336 352q-32 0 -56.5 23t-35.5 52q-13 34 -8 72.5t18 72.5q15 38 39 71t51 63t57 55.5t65 45.5q33 19 73 30t78 0q34 -11 49.5 -40.5t20.5 -61.5q6 -39 2 -78.5t-14.5 -78.5t-25.5 -76.5t-32 -71.5q-29 -62 -62.5 -119t-77.5 -110q-24 -31 -51 -60t-57.5 -54.5t-64.5 -46
t-72 -33.5q-35 -11 -78.5 -14.5t-80.5 8.5q-32 10 -59 36.5t-41 56.5q-15 33 -19.5 70t-1 75t15 74.5t27.5 68.5q39 77 91 148t118 128q26 23 51.5 44t54.5 40q4 2 14 7.5t21 10t20 5t11 -7.5q1 -5 -4.5 -10t-9.5 -7q-11 -9 -24 -17t-24 -16q-32 -26 -58 -56t-49 -62
q-26 -33 -48.5 -69t-39.5 -75q-14 -30 -26.5 -64t-20 -69t-8.5 -70.5t9 -69.5q12 -36 39.5 -58.5t62 -31t71.5 -3t66 23.5q48 30 101 90t98.5 133.5t77 152t34.5 147.5q1 27 -1.5 54.5t-13 50.5t-30.5 38t-52 16q-38 1 -72 -17t-61 -46.5t-46.5 -63.5t-28.5 -68
q-9 -35 -9.5 -73.5t19.5 -69.5q19 -29 49.5 -34.5t62.5 2.5q26 8 46.5 23.5t41.5 30.5q3 -14 3.5 -20.5t-9.5 -16.5q-8 -7 -15.5 -12.5t-15.5 -12.5q-36 -26 -73 -40.5t-82 -14.5zM453 906q-2 10 0.5 21t8 21t14 17.5t18.5 10.5q20 6 31.5 -9.5t6.5 -34.5q-3 -13 -13 -26
t-22.5 -19.5t-24.5 -3.5t-19 23zM599 906q-2 10 0.5 21t8.5 21t14.5 17.5t18.5 10.5q20 6 31 -9.5t7 -34.5q-3 -13 -13 -26t-22.5 -19.5t-25 -3.5t-19.5 23z" />
    <glyph glyph-name="Udieresis" unicode="&#xdc;" horiz-adv-x="878" 
d="M927 779q2 -3 -2 -12t-9.5 -19.5t-11.5 -19.5t-7 -12q-5 -11 -11.5 -20.5t-13.5 -19.5q-15 -24 -30.5 -48t-29.5 -48q-50 -83 -97 -165t-89 -170q-10 -19 -18.5 -37.5t-16.5 -37.5q-3 -9 -9.5 -23t-11 -29t-4 -29t10.5 -22q11 -9 24 -6t26 11.5t24.5 18.5t18.5 16
q18 17 33.5 35t31.5 37l39 48q4 5 7.5 9.5t11.5 -2.5q7 -6 3.5 -11.5t-7.5 -10.5q-19 -23 -36.5 -47t-37.5 -46q-13 -14 -25.5 -28t-26.5 -28q-12 -13 -28 -27.5t-34 -26t-38 -18.5t-39 -4q-38 6 -52 31.5t-13.5 58.5t11 67.5t22.5 57.5q-28 -28 -53.5 -57t-52.5 -58
q-15 -15 -35.5 -33t-44.5 -33t-49.5 -24.5t-49 -9t-43 14t-32.5 45.5q-15 40 -6 81t24 79q12 32 28.5 61.5t34.5 58.5q21 34 41 67.5t42 66.5q23 38 47.5 75t47.5 75q18 29 35 62.5t19 68.5q1 21 -6 35t-19.5 22t-29.5 11t-35 0q-39 -6 -74 -26t-64 -45q-40 -32 -75 -71
t-60 -84q-20 -38 -38 -83.5t-18 -88.5q1 -42 21 -66.5t64 -20.5q28 3 46 19.5t38 35.5q11 12 14 3.5t-2 -19.5q-7 -12 -16.5 -22t-18.5 -20q-24 -24 -50.5 -45t-62.5 -25q-36 -5 -61.5 14.5t-36.5 54.5q-15 45 -9 92.5t24.5 93t46.5 86.5t57 74q31 35 70.5 68t84.5 57.5
t93.5 38.5t96.5 11q42 -3 71.5 -27t37.5 -66q8 -45 -7 -85t-31 -80q-26 -68 -66.5 -129t-78.5 -123q-12 -19 -24 -37t-24 -38q-17 -30 -35.5 -63.5t-27.5 -68.5q-2 -11 -3 -26t6 -24q9 -12 26.5 -14t30.5 1q20 6 38.5 19t35 29.5t31 34t27.5 32.5q66 79 116.5 166.5
t102.5 176.5q23 42 48 83.5t49 83.5q8 14 14.5 26t14.5 24q8 17 20 35q6 9 8 11t12 3q12 1 27 2.5t29.5 1.5t28.5 -2t25 -9zM587 906q-2 10 0.5 21t8 21t14 17.5t18.5 10.5q20 6 31.5 -9.5t6.5 -34.5q-3 -13 -13 -26t-22.5 -19.5t-24.5 -3.5t-19 23zM733 906q-2 10 0.5 21
t8.5 21t14.5 17.5t18.5 10.5q20 6 31 -9.5t7 -34.5q-3 -13 -13 -26t-22.5 -19.5t-25 -3.5t-19.5 23z" />
    <glyph glyph-name="aacute" unicode="&#xe1;" horiz-adv-x="433" 
d="M366 435h100q-42 -74 -82 -148t-85 -144q-4 -6 -12.5 -24t-13 -36t-1 -30t23.5 -6q28 16 49.5 39t40 49.5t36.5 53t39 49.5q8 8 13 6t7 -4q0 -1 -5 -9q-27 -32 -51 -69t-51.5 -71t-60.5 -60t-77 -36q-23 -1 -34 10t-15 28t-3.5 36t2.5 35q-11 -12 -28.5 -29.5
t-38.5 -35.5t-43.5 -32.5t-44 -19t-40 4t-30.5 36.5t-11 56.5t10 56.5t23.5 54t29.5 49q33 50 76.5 91t95.5 70q18 10 41.5 19.5t46 11.5t41.5 -7t29 -36q6 11 12 21t11 21zM234 207q3 6 14.5 23t24.5 39t24.5 47t16 46t-0.5 35t-27 16q-16 -3 -31.5 -12.5t-30.5 -23
t-28 -28t-25 -27.5q-24 -32 -47 -66t-43 -69l-15 -27.5t-16 -34.5t-9.5 -35.5t5.5 -30.5q7 -13 18.5 -15t23.5 2t23.5 11.5t18.5 14.5q31 29 57 63t47 72zM246 510q29 26 61 46t62 45q8 7 16.5 15t17 14t18 8t18.5 -3q18 -10 14 -22t-11 -22q-6 -8 -23 -19.5t-39.5 -24
t-47 -24t-44.5 -18.5l-29 -10q-9 -2 -12.5 3t-0.5 12z" />
    <glyph glyph-name="agrave" unicode="&#xe0;" horiz-adv-x="434" 
d="M366 435h100q-42 -74 -82 -148t-85 -144q-4 -6 -12.5 -24t-13 -36t-1 -30t23.5 -6q28 16 49.5 39t40 49.5t36.5 53t39 49.5q8 8 13 6t7 -4q0 -1 -5 -9q-27 -32 -51 -69t-51.5 -71t-60.5 -60t-77 -36q-23 -1 -34 10t-15 28t-3.5 36t2.5 35q-11 -12 -28.5 -29.5
t-38.5 -35.5t-43.5 -32.5t-44 -19t-40 4t-30.5 36.5t-11 56.5t10 56.5t23.5 54t29.5 49q33 50 76.5 91t95.5 70q18 10 41.5 19.5t46 11.5t41.5 -7t29 -36q6 11 12 21t11 21zM234 207q3 6 14.5 23t24.5 39t24.5 47t16 46t-0.5 35t-27 16q-16 -3 -31.5 -12.5t-30.5 -23
t-28 -28t-25 -27.5q-24 -32 -47 -66t-43 -69l-15 -27.5t-16 -34.5t-9.5 -35.5t5.5 -30.5q7 -13 18.5 -15t23.5 2t23.5 11.5t18.5 14.5q31 29 57 63t47 72zM468 512q2 -8 -2.5 -12.5t-12.5 -0.5l-26 15q-19 10 -41 26t-42.5 32t-35 30.5t-18.5 23.5q-5 11 -7 23t17 19
q10 3 18.5 -0.5t16 -11t14.5 -16.5t14 -17q26 -30 54 -56t51 -55z" />
    <glyph glyph-name="acircumflex" unicode="&#xe2;" horiz-adv-x="432" 
d="M366 435h100q-42 -74 -82 -148t-85 -144q-4 -6 -12.5 -24t-13 -36t-1 -30t23.5 -6q28 16 49.5 39t40 49.5t36.5 53t39 49.5q8 8 13 6t7 -4q0 -1 -5 -9q-27 -32 -51 -69t-51.5 -71t-60.5 -60t-77 -36q-23 -1 -34 10t-15 28t-3.5 36t2.5 35q-11 -12 -28.5 -29.5
t-38.5 -35.5t-43.5 -32.5t-44 -19t-40 4t-30.5 36.5t-11 56.5t10 56.5t23.5 54t29.5 49q33 50 76.5 91t95.5 70q18 10 41.5 19.5t46 11.5t41.5 -7t29 -36q6 11 12 21t11 21zM234 207q3 6 14.5 23t24.5 39t24.5 47t16 46t-0.5 35t-27 16q-16 -3 -31.5 -12.5t-30.5 -23
t-28 -28t-25 -27.5q-24 -32 -47 -66t-43 -69l-15 -27.5t-16 -34.5t-9.5 -35.5t5.5 -30.5q7 -13 18.5 -15t23.5 2t23.5 11.5t18.5 14.5q31 29 57 63t47 72zM463 637q3 2 8 2t12 -5v-12v-75q0 -6 -4 -9t-9.5 -3t-9.5 3t-4 9v32q-18 -14 -43 -22q-35 -14 -70 -22q-15 0 -18 -1
q-11 0 -12 1h1q-8 5 -9 12t8 12q14 7 29 15t31 16q15 9 33 19t35 18z" />
    <glyph glyph-name="adieresis" unicode="&#xe4;" horiz-adv-x="432" 
d="M366 435h100q-42 -74 -82 -148t-85 -144q-4 -6 -12.5 -24t-13 -36t-1 -30t23.5 -6q28 16 49.5 39t40 49.5t36.5 53t39 49.5q8 8 13 6t7 -4q0 -1 -5 -9q-27 -32 -51 -69t-51.5 -71t-60.5 -60t-77 -36q-23 -1 -34 10t-15 28t-3.5 36t2.5 35q-11 -12 -28.5 -29.5
t-38.5 -35.5t-43.5 -32.5t-44 -19t-40 4t-30.5 36.5t-11 56.5t10 56.5t23.5 54t29.5 49q33 50 76.5 91t95.5 70q18 10 41.5 19.5t46 11.5t41.5 -7t29 -36q6 11 12 21t11 21zM234 207q3 6 14.5 23t24.5 39t24.5 47t16 46t-0.5 35t-27 16q-16 -3 -31.5 -12.5t-30.5 -23
t-28 -28t-25 -27.5q-24 -32 -47 -66t-43 -69l-15 -27.5t-16 -34.5t-9.5 -35.5t5.5 -30.5q7 -13 18.5 -15t23.5 2t23.5 11.5t18.5 14.5q31 29 57 63t47 72zM206 574q-2 10 0.5 21t8 21t14 17.5t18.5 10.5q20 6 31.5 -9.5t6.5 -34.5q-3 -13 -13 -26t-22.5 -19.5t-24.5 -3.5
t-19 23zM352 574q-2 10 0.5 21t8.5 21t14.5 17.5t18.5 10.5q20 6 31 -9.5t7 -34.5q-3 -13 -13 -26t-22.5 -19.5t-25 -3.5t-19.5 23z" />
    <glyph glyph-name="atilde" unicode="&#xe3;" horiz-adv-x="436" 
d="M366 435h100q-42 -74 -82 -148t-85 -144q-4 -6 -12.5 -24t-13 -36t-1 -30t23.5 -6q28 16 49.5 39t40 49.5t36.5 53t39 49.5q8 8 13 6t7 -4q0 -1 -5 -9q-27 -32 -51 -69t-51.5 -71t-60.5 -60t-77 -36q-23 -1 -34 10t-15 28t-3.5 36t2.5 35q-11 -12 -28.5 -29.5
t-38.5 -35.5t-43.5 -32.5t-44 -19t-40 4t-30.5 36.5t-11 56.5t10 56.5t23.5 54t29.5 49q33 50 76.5 91t95.5 70q18 10 41.5 19.5t46 11.5t41.5 -7t29 -36q6 11 12 21t11 21zM234 207q3 6 14.5 23t24.5 39t24.5 47t16 46t-0.5 35t-27 16q-16 -3 -31.5 -12.5t-30.5 -23
t-28 -28t-25 -27.5q-24 -32 -47 -66t-43 -69l-15 -27.5t-16 -34.5t-9.5 -35.5t5.5 -30.5q7 -13 18.5 -15t23.5 2t23.5 11.5t18.5 14.5q31 29 57 63t47 72zM336 644q14 0 24 -5.5t18 -14t15.5 -18t15.5 -18.5q3 -9 12 -11q4 0 9.5 2t10.5 6l19 13q1 3 2.5 5.5t5.5 4.5l5 9
q4 2 9 1.5t8.5 -3.5t4.5 -7.5t-2 -9.5q-2 -4 -4.5 -7.5t-7.5 -7.5q-5 -5 -8 -9t-8 -11q-14 -15 -33 -23t-38 2q-15 9 -24 21t-19 25q-4 5 -8.5 12t-11.5 5q-9 0 -17 -6.5t-13 -13.5l-14 -17q-5 -5 -13 -5q-9 2 -12 9.5t4 14.5q4 4 11 13.5t15.5 19t20 17t23.5 7.5z" />
    <glyph glyph-name="eacute" unicode="&#xe9;" horiz-adv-x="304" 
d="M69 80q3 -23 16 -30.5t30.5 -5.5t35.5 10t30 16q28 17 56.5 44.5t53.5 56t45 53.5t32 38q7 8 9.5 3.5t0.5 -12.5q-5 -15 -20 -36.5t-36 -45.5t-45.5 -49t-48.5 -46t-44.5 -37t-33.5 -23q-19 -11 -43.5 -17.5t-48 -5.5t-44 12t-32.5 35q-10 21 -10.5 45t5 48t15 46.5
t20.5 42.5q29 56 71 100t96 76q26 17 54.5 28t58.5 16q19 4 41 2t33 -21q9 -14 8 -29.5t-7 -30.5t-15.5 -28t-19.5 -23q-24 -26 -54.5 -45t-61.5 -33q-17 -7 -33.5 -12.5t-34.5 -10.5q-10 -2 -24 -3t-21 -9q-8 -8 -12.5 -24t-9.5 -27q-7 -16 -10.5 -33.5t-1.5 -34.5z
M118 230q35 2 63.5 22t54.5 43q13 11 24.5 23.5t20.5 26.5q6 11 14 27.5t7 29.5q-1 11 -7 13t-15 -1.5t-19.5 -11t-19.5 -15.5t-16 -15.5t-9 -9.5q-29 -30 -52.5 -63.5t-45.5 -68.5zM261 511q29 26 61 46t62 45q8 7 16.5 15t17 14t18 8t18.5 -3q18 -10 14 -22t-11 -22
q-6 -8 -23 -19.5t-39.5 -24t-47 -24t-44.5 -18.5l-29 -10q-9 -2 -12.5 3t-0.5 12z" />
    <glyph glyph-name="egrave" unicode="&#xe8;" horiz-adv-x="305" 
d="M66 80q3 -23 16 -30.5t30.5 -5.5t35.5 10t30 16q28 17 56.5 44.5t53.5 56t45 53.5t32 38q7 8 9.5 3.5t0.5 -12.5q-5 -15 -20 -36.5t-36 -45.5t-45.5 -49t-48.5 -46t-44.5 -37t-33.5 -23q-19 -11 -43.5 -17.5t-48 -5.5t-44 12t-32.5 35q-10 21 -10.5 45t5 48t15 46.5
t20.5 42.5q29 56 71 100t96 76q26 17 54.5 28t58.5 16q19 4 41 2t33 -21q9 -14 8 -29.5t-7 -30.5t-15.5 -28t-19.5 -23q-24 -26 -54.5 -45t-61.5 -33q-17 -7 -33.5 -12.5t-34.5 -10.5q-10 -2 -24 -3t-21 -9q-8 -8 -12.5 -24t-9.5 -27q-7 -16 -10.5 -33.5t-1.5 -34.5z
M115 230q35 2 63.5 22t54.5 43q13 11 24.5 23.5t20.5 26.5q6 11 14 27.5t7 29.5q-1 11 -7 13t-15 -1.5t-19.5 -11t-19.5 -15.5t-16 -15.5t-9 -9.5q-29 -30 -52.5 -63.5t-45.5 -68.5zM411 498q2 -8 -2.5 -12.5t-12.5 -0.5l-26 15q-19 10 -41 26t-42.5 32t-35 30.5t-18.5 23.5
q-5 11 -7 23t17 19q10 3 18.5 -0.5t16 -11t14.5 -16.5t14 -17q26 -30 54 -56t51 -55z" />
    <glyph glyph-name="ecircumflex" unicode="&#xea;" horiz-adv-x="304" 
d="M69 80q3 -23 16 -30.5t30.5 -5.5t35.5 10t30 16q28 17 56.5 44.5t53.5 56t45 53.5t32 38q7 8 9.5 3.5t0.5 -12.5q-5 -15 -20 -36.5t-36 -45.5t-45.5 -49t-48.5 -46t-44.5 -37t-33.5 -23q-19 -11 -43.5 -17.5t-48 -5.5t-44 12t-32.5 35q-10 21 -10.5 45t5 48t15 46.5
t20.5 42.5q29 56 71 100t96 76q26 17 54.5 28t58.5 16q19 4 41 2t33 -21q9 -14 8 -29.5t-7 -30.5t-15.5 -28t-19.5 -23q-24 -26 -54.5 -45t-61.5 -33q-17 -7 -33.5 -12.5t-34.5 -10.5q-10 -2 -24 -3t-21 -9q-8 -8 -12.5 -24t-9.5 -27q-7 -16 -10.5 -33.5t-1.5 -34.5z
M118 230q35 2 63.5 22t54.5 43q13 11 24.5 23.5t20.5 26.5q6 11 14 27.5t7 29.5q-1 11 -7 13t-15 -1.5t-19.5 -11t-19.5 -15.5t-16 -15.5t-9 -9.5q-29 -30 -52.5 -63.5t-45.5 -68.5zM417 637q3 2 8 2t12 -5v-12v-75q0 -6 -4 -9t-9.5 -3t-9.5 3t-4 9v32q-18 -14 -43 -22
q-35 -14 -70 -22q-15 0 -18 -1q-11 0 -12 1h1q-8 5 -9 12t8 12q14 7 29 15t31 16q15 9 33 19t35 18z" />
    <glyph glyph-name="edieresis" unicode="&#xeb;" horiz-adv-x="307" 
d="M69 80q3 -23 16 -30.5t30.5 -5.5t35.5 10t30 16q28 17 56.5 44.5t53.5 56t45 53.5t32 38q7 8 9.5 3.5t0.5 -12.5q-5 -15 -20 -36.5t-36 -45.5t-45.5 -49t-48.5 -46t-44.5 -37t-33.5 -23q-19 -11 -43.5 -17.5t-48 -5.5t-44 12t-32.5 35q-10 21 -10.5 45t5 48t15 46.5
t20.5 42.5q29 56 71 100t96 76q26 17 54.5 28t58.5 16q19 4 41 2t33 -21q9 -14 8 -29.5t-7 -30.5t-15.5 -28t-19.5 -23q-24 -26 -54.5 -45t-61.5 -33q-17 -7 -33.5 -12.5t-34.5 -10.5q-10 -2 -24 -3t-21 -9q-8 -8 -12.5 -24t-9.5 -27q-7 -16 -10.5 -33.5t-1.5 -34.5z
M118 230q35 2 63.5 22t54.5 43q13 11 24.5 23.5t20.5 26.5q6 11 14 27.5t7 29.5q-1 11 -7 13t-15 -1.5t-19.5 -11t-19.5 -15.5t-16 -15.5t-9 -9.5q-29 -30 -52.5 -63.5t-45.5 -68.5zM281 574q-2 10 0.5 21t8 21t14 17.5t18.5 10.5q20 6 31.5 -9.5t6.5 -34.5q-3 -13 -13 -26
t-22.5 -19.5t-24.5 -3.5t-19 23zM427 574q-2 10 0.5 21t8.5 21t14.5 17.5t18.5 10.5q20 6 31 -9.5t7 -34.5q-3 -13 -13 -26t-22.5 -19.5t-25 -3.5t-19.5 23z" />
    <glyph glyph-name="iacute" unicode="&#xed;" horiz-adv-x="189" 
d="M234 407q-20 -54 -48 -97t-55 -88q-14 -26 -29 -50t-30 -49q-5 -7 -11 -16t-9.5 -19t-4.5 -20t5 -19q5 -7 10 -7q17 -7 45.5 17t57.5 60t53 73.5t33 56.5q2 3 6 10t8 12.5t7.5 5.5t5.5 -10q2 -5 -7 -20q-24 -41 -49 -86.5t-55.5 -84t-68.5 -64t-87 -25.5q-15 0 -28.5 6.5
t-22.5 23.5q-8 14 -9 30.5t2 33.5t9.5 33t12.5 29q28 57 63 109.5t65 107.5q7 12 9.5 23t5.5 24l3.5 14t6.5 9q12 6 25.5 7t27 0.5t27 -0.5t25.5 3q1 -9 2 -17t-1 -16zM101 509q29 26 61 46t62 45q8 7 16.5 15t17 14t18 8t18.5 -3q18 -10 14 -22t-11 -22q-6 -8 -23 -19.5
t-39.5 -24t-47 -24t-44.5 -18.5l-29 -10q-9 -2 -12.5 3t-0.5 12z" />
    <glyph glyph-name="igrave" unicode="&#xec;" horiz-adv-x="189" 
d="M234 407q-20 -54 -48 -97t-55 -88q-14 -26 -29 -50t-30 -49q-5 -7 -11 -16t-9.5 -19t-4.5 -20t5 -19q5 -7 10 -7q17 -7 45.5 17t57.5 60t53 73.5t33 56.5q2 3 6 10t8 12.5t7.5 5.5t5.5 -10q2 -5 -7 -20q-24 -41 -49 -86.5t-55.5 -84t-68.5 -64t-87 -25.5q-15 0 -28.5 6.5
t-22.5 23.5q-8 14 -9 30.5t2 33.5t9.5 33t12.5 29q28 57 63 109.5t65 107.5q7 12 9.5 23t5.5 24l3.5 14t6.5 9q12 6 25.5 7t27 0.5t27 -0.5t25.5 3q1 -9 2 -17t-1 -16zM335 512q2 -8 -2.5 -12.5t-12.5 -0.5l-26 15q-19 10 -41 26t-42.5 32t-35 30.5t-18.5 23.5q-5 11 -7 23
t17 19q10 3 18.5 -0.5t16 -11t14.5 -16.5t14 -17q26 -30 54 -56t51 -55z" />
    <glyph glyph-name="icircumflex" unicode="&#xee;" horiz-adv-x="189" 
d="M234 407q-20 -54 -48 -97t-55 -88q-14 -26 -29 -50t-30 -49q-5 -7 -11 -16t-9.5 -19t-4.5 -20t5 -19q5 -7 10 -7q17 -7 45.5 17t57.5 60t53 73.5t33 56.5q2 3 6 10t8 12.5t7.5 5.5t5.5 -10q2 -5 -7 -20q-24 -41 -49 -86.5t-55.5 -84t-68.5 -64t-87 -25.5q-15 0 -28.5 6.5
t-22.5 23.5q-8 14 -9 30.5t2 33.5t9.5 33t12.5 29q28 57 63 109.5t65 107.5q7 12 9.5 23t5.5 24l3.5 14t6.5 9q12 6 25.5 7t27 0.5t27 -0.5t25.5 3q1 -9 2 -17t-1 -16zM296 637q3 2 8 2t12 -5v-12v-75q0 -6 -4 -9t-9.5 -3t-9.5 3t-4 9v32q-18 -14 -43 -22q-35 -14 -70 -22
q-15 0 -18 -1q-11 0 -12 1h1q-8 5 -9 12t8 12q14 7 29 15t31 16q15 9 33 19t35 18z" />
    <glyph glyph-name="idieresis" unicode="&#xef;" horiz-adv-x="189" 
d="M234 407q-20 -54 -48 -97t-55 -88q-14 -26 -29 -50t-30 -49q-5 -7 -11 -16t-9.5 -19t-4.5 -20t5 -19q5 -7 10 -7q17 -7 45.5 17t57.5 60t53 73.5t33 56.5q2 3 6 10t8 12.5t7.5 5.5t5.5 -10q2 -5 -7 -20q-24 -41 -49 -86.5t-55.5 -84t-68.5 -64t-87 -25.5q-15 0 -28.5 6.5
t-22.5 23.5q-8 14 -9 30.5t2 33.5t9.5 33t12.5 29q28 57 63 109.5t65 107.5q7 12 9.5 23t5.5 24l3.5 14t6.5 9q12 6 25.5 7t27 0.5t27 -0.5t25.5 3q1 -9 2 -17t-1 -16zM118 574q-2 10 0.5 21t8 21t14 17.5t18.5 10.5q20 6 31.5 -9.5t6.5 -34.5q-3 -13 -13 -26t-22.5 -19.5
t-24.5 -3.5t-19 23zM264 574q-2 10 0.5 21t8.5 21t14.5 17.5t18.5 10.5q20 6 31 -9.5t7 -34.5q-3 -13 -13 -26t-22.5 -19.5t-25 -3.5t-19.5 23z" />
    <glyph glyph-name="ntilde" unicode="&#xf1;" horiz-adv-x="422" 
d="M137 377q8 11 8 22t1 24q1 11 0.5 12.5t7.5 1.5q7 0 23 1t32.5 1.5t29 1t11.5 0.5q2 -3 4.5 -9t2.5 -12q-2 -14 -9.5 -29t-13.5 -29q20 17 40 33t43 28q10 6 23 11t27 7t28 1.5t26 -5.5q27 -13 29.5 -39t-3.5 -51q-11 -35 -35 -67.5t-44 -62.5q-18 -27 -35 -54t-33 -56
q-3 -6 -9 -16.5t-9 -21t0 -18t18 -5.5q32 8 56.5 26.5t44.5 42.5t37.5 51t35.5 51q2 3 6 11t9.5 14t11 8t11.5 -6q3 -5 1.5 -11t-5.5 -12.5t-8 -12t-7 -8.5q-24 -33 -50.5 -67.5t-56.5 -64t-66 -51t-79 -28.5q-18 -1 -32.5 6.5t-22.5 26.5q-9 21 -5.5 44t14 45.5t24 43.5
t24.5 38q18 29 37.5 58t36.5 58q8 11 15.5 22.5t13.5 23.5q5 8 7.5 20t-6.5 18q-8 5 -17.5 1t-17.5 -7q-34 -15 -60.5 -43.5t-49.5 -55.5q-10 -11 -18 -22.5t-16 -23.5q-35 -54 -70.5 -107.5t-70.5 -107.5q-2 -5 -6.5 -13t-8.5 -12q-5 -4 -16 -2.5t-16 0.5h-43.5t-18 4.5
t2.5 16.5t20 36q45 71 88.5 141t86.5 142q5 9 10.5 18t10.5 19zM352 642q14 0 24 -5.5t18 -14t15.5 -18t15.5 -18.5q3 -9 12 -11q4 0 9.5 2t10.5 6l19 13q1 3 2.5 5.5t5.5 4.5l5 9q4 2 9 1.5t8.5 -3.5t4.5 -7.5t-2 -9.5q-2 -4 -4.5 -7.5t-7.5 -7.5q-5 -5 -8 -9t-8 -11
q-14 -15 -33 -23t-38 2q-15 9 -24 21t-19 25q-4 5 -8.5 12t-11.5 5q-9 0 -17 -6.5t-13 -13.5l-14 -17q-5 -5 -13 -5q-9 2 -12 9.5t4 14.5q4 4 11 13.5t15.5 19t20 17t23.5 7.5z" />
    <glyph glyph-name="oacute" unicode="&#xf3;" horiz-adv-x="375" 
d="M150 391q32 20 67.5 35.5t74.5 17.5q35 2 65.5 -12t44.5 -44q7 -19 7 -44t-5.5 -46.5t-11.5 -40.5q-12 -29 -30.5 -60.5t-40.5 -60.5q-20 -24 -44 -47t-51.5 -42.5t-58.5 -33t-65 -17.5q-33 -4 -66.5 7t-53.5 35q-23 34 -23 70q0 13 2.5 28.5t6.5 29.5q22 66 70.5 124.5
t110.5 100.5h1zM57 103q-2 -9 -3.5 -17t-1.5 -10q0 -13 5.5 -22.5t22.5 -17.5q17 -5 36 4t34 18q-1 0 2 2t5 2q33 28 61 63.5t50.5 73t38.5 75t25 70.5q2 5 3 12t1 15q0 14 -4.5 26t-17.5 15q-16 2 -33.5 -7t-29.5 -18q-35 -26 -67.5 -61t-58.5 -73t-44 -76t-24 -70v-4z
M305 511q29 26 61 46t62 45q8 7 16.5 15t17 14t18 8t18.5 -3q18 -10 14 -22t-11 -22q-6 -8 -23 -19.5t-39.5 -24t-47 -24t-44.5 -18.5l-29 -10q-9 -2 -12.5 3t-0.5 12z" />
    <glyph glyph-name="ograve" unicode="&#xf2;" horiz-adv-x="357" 
d="M150 391q32 20 67.5 35.5t74.5 17.5q35 2 65.5 -12t44.5 -44q7 -19 7 -44t-5.5 -46.5t-11.5 -40.5q-12 -29 -30.5 -60.5t-40.5 -60.5q-20 -24 -44 -47t-51.5 -42.5t-58.5 -33t-65 -17.5q-33 -4 -66.5 7t-53.5 35q-23 34 -23 70q0 13 2.5 28.5t6.5 29.5q22 66 70.5 124.5
t110.5 100.5h1zM57 103q-2 -9 -3.5 -17t-1.5 -10q0 -13 5.5 -22.5t22.5 -17.5q17 -5 36 4t34 18q-1 0 2 2t5 2q33 28 61 63.5t50.5 73t38.5 75t25 70.5q2 5 3 12t1 15q0 14 -4.5 26t-17.5 15q-16 2 -33.5 -7t-29.5 -18q-35 -26 -67.5 -61t-58.5 -73t-44 -76t-24 -70v-4z
M447 516q2 -8 -2.5 -12.5t-12.5 -0.5l-26 15q-19 10 -41 26t-42.5 32t-35 30.5t-18.5 23.5q-5 11 -7 23t17 19q10 3 18.5 -0.5t16 -11t14.5 -16.5t14 -17q26 -30 54 -56t51 -55z" />
    <glyph glyph-name="ocircumflex" unicode="&#xf4;" horiz-adv-x="375" 
d="M150 391q32 20 67.5 35.5t74.5 17.5q35 2 65.5 -12t44.5 -44q7 -19 7 -44t-5.5 -46.5t-11.5 -40.5q-12 -29 -30.5 -60.5t-40.5 -60.5q-20 -24 -44 -47t-51.5 -42.5t-58.5 -33t-65 -17.5q-33 -4 -66.5 7t-53.5 35q-23 34 -23 70q0 13 2.5 28.5t6.5 29.5q22 66 70.5 124.5
t110.5 100.5h1zM57 103q-2 -9 -3.5 -17t-1.5 -10q0 -13 5.5 -22.5t22.5 -17.5q17 -5 36 4t34 18q-1 0 2 2t5 2q33 28 61 63.5t50.5 73t38.5 75t25 70.5q2 5 3 12t1 15q0 14 -4.5 26t-17.5 15q-16 2 -33.5 -7t-29.5 -18q-35 -26 -67.5 -61t-58.5 -73t-44 -76t-24 -70v-4z
M474 637q3 2 8 2t12 -5v-12v-75q0 -6 -4 -9t-9.5 -3t-9.5 3t-4 9v32q-18 -14 -43 -22q-35 -14 -70 -22q-15 0 -18 -1q-11 0 -12 1h1q-8 5 -9 12t8 12q14 7 29 15t31 16q15 9 33 19t35 18z" />
    <glyph glyph-name="odieresis" unicode="&#xf6;" horiz-adv-x="375" 
d="M150 391q32 20 67.5 35.5t74.5 17.5q35 2 65.5 -12t44.5 -44q7 -19 7 -44t-5.5 -46.5t-11.5 -40.5q-12 -29 -30.5 -60.5t-40.5 -60.5q-20 -24 -44 -47t-51.5 -42.5t-58.5 -33t-65 -17.5q-33 -4 -66.5 7t-53.5 35q-23 34 -23 70q0 13 2.5 28.5t6.5 29.5q22 66 70.5 124.5
t110.5 100.5h1zM57 103q-2 -9 -3.5 -17t-1.5 -10q0 -13 5.5 -22.5t22.5 -17.5q17 -5 36 4t34 18q-1 0 2 2t5 2q33 28 61 63.5t50.5 73t38.5 75t25 70.5q2 5 3 12t1 15q0 14 -4.5 26t-17.5 15q-16 2 -33.5 -7t-29.5 -18q-35 -26 -67.5 -61t-58.5 -73t-44 -76t-24 -70v-4z
M283 576q-2 10 0.5 21t8 21t14 17.5t18.5 10.5q20 6 31.5 -9.5t6.5 -34.5q-3 -13 -13 -26t-22.5 -19.5t-24.5 -3.5t-19 23zM429 576q-2 10 0.5 21t8.5 21t14.5 17.5t18.5 10.5q20 6 31 -9.5t7 -34.5q-3 -13 -13 -26t-22.5 -19.5t-25 -3.5t-19.5 23z" />
    <glyph glyph-name="otilde" unicode="&#xf5;" horiz-adv-x="375" 
d="M150 391q32 20 67.5 35.5t74.5 17.5q35 2 65.5 -12t44.5 -44q7 -19 7 -44t-5.5 -46.5t-11.5 -40.5q-12 -29 -30.5 -60.5t-40.5 -60.5q-20 -24 -44 -47t-51.5 -42.5t-58.5 -33t-65 -17.5q-33 -4 -66.5 7t-53.5 35q-23 34 -23 70q0 13 2.5 28.5t6.5 29.5q22 66 70.5 124.5
t110.5 100.5h1zM57 103q-2 -9 -3.5 -17t-1.5 -10q0 -13 5.5 -22.5t22.5 -17.5q17 -5 36 4t34 18q-1 0 2 2t5 2q33 28 61 63.5t50.5 73t38.5 75t25 70.5q2 5 3 12t1 15q0 14 -4.5 26t-17.5 15q-16 2 -33.5 -7t-29.5 -18q-35 -26 -67.5 -61t-58.5 -73t-44 -76t-24 -70v-4z
M364 646q14 0 24 -5.5t18 -14t15.5 -18t15.5 -18.5q3 -9 12 -11q4 0 9.5 2t10.5 6l19 13q1 3 2.5 5.5t5.5 4.5l5 9q4 2 9 1.5t8.5 -3.5t4.5 -7.5t-2 -9.5q-2 -4 -4.5 -7.5t-7.5 -7.5q-5 -5 -8 -9t-8 -11q-14 -15 -33 -23t-38 2q-15 9 -24 21t-19 25q-4 5 -8.5 12t-11.5 5
q-9 0 -17 -6.5t-13 -13.5l-14 -17q-5 -5 -13 -5q-9 2 -12 9.5t4 14.5q4 4 11 13.5t15.5 19t20 17t23.5 7.5z" />
    <glyph glyph-name="uacute" unicode="&#xfa;" horiz-adv-x="371" 
d="M191 127q-27 -30 -55.5 -62t-63.5 -52q-14 -8 -29 -12.5t-29.5 -3.5t-27 8.5t-20.5 24.5q-7 16 -6.5 34t5 36t12.5 35t16 32q23 38 46.5 77.5t46.5 78.5q9 15 16.5 30.5t14.5 33.5q1 4 2 10.5l2 13t3 12.5t6 9q3 0 14 0.5t25.5 1t29 0.5h23.5q4 -2 4 -7v-8
q1 -18 -6.5 -37.5t-16.5 -34.5q-21 -42 -45 -81q-22 -40 -46 -78t-47 -77q-6 -11 -12.5 -28.5t4.5 -28.5q7 -7 16.5 -5.5t19 6.5t17 12t12.5 12q32 29 58 66t50 72q26 38 48.5 78t39.5 82q5 14 12.5 30t12.5 24q16 1 40.5 3t41.5 2h20q-1 -7 -3 -14q-2 -6 -3.5 -13.5
t-4.5 -12.5q-18 -40 -42 -77.5t-47 -75t-43 -76.5t-31 -82q-3 -25 9.5 -28.5t29.5 10.5q45 38 81 86t68 98q6 5 13 3.5t5 -12.5q-34 -55 -73.5 -106.5t-87.5 -97.5q-22 -18 -46.5 -29.5t-50.5 -5.5q-21 5 -29.5 19.5t-9 33t3.5 38t7 33.5zM171 509q29 26 61 46t62 45
q8 7 16.5 15t17 14t18 8t18.5 -3q18 -10 14 -22t-11 -22q-6 -8 -23 -19.5t-39.5 -24t-47 -24t-44.5 -18.5l-29 -10q-9 -2 -12.5 3t-0.5 12z" />
    <glyph glyph-name="ugrave" unicode="&#xf9;" horiz-adv-x="371" 
d="M191 127q-27 -30 -55.5 -62t-63.5 -52q-14 -8 -29 -12.5t-29.5 -3.5t-27 8.5t-20.5 24.5q-7 16 -6.5 34t5 36t12.5 35t16 32q23 38 46.5 77.5t46.5 78.5q9 15 16.5 30.5t14.5 33.5q1 4 2 10.5l2 13t3 12.5t6 9q3 0 14 0.5t25.5 1t29 0.5h23.5q4 -2 4 -7v-8
q1 -18 -6.5 -37.5t-16.5 -34.5q-21 -42 -45 -81q-22 -40 -46 -78t-47 -77q-6 -11 -12.5 -28.5t4.5 -28.5q7 -7 16.5 -5.5t19 6.5t17 12t12.5 12q32 29 58 66t50 72q26 38 48.5 78t39.5 82q5 14 12.5 30t12.5 24q16 1 40.5 3t41.5 2h20q-1 -7 -3 -14q-2 -6 -3.5 -13.5
t-4.5 -12.5q-18 -40 -42 -77.5t-47 -75t-43 -76.5t-31 -82q-3 -25 9.5 -28.5t29.5 10.5q45 38 81 86t68 98q6 5 13 3.5t5 -12.5q-34 -55 -73.5 -106.5t-87.5 -97.5q-22 -18 -46.5 -29.5t-50.5 -5.5q-21 5 -29.5 19.5t-9 33t3.5 38t7 33.5zM402 516q2 -8 -2.5 -12.5
t-12.5 -0.5l-26 15q-19 10 -41 26t-42.5 32t-35 30.5t-18.5 23.5q-5 11 -7 23t17 19q10 3 18.5 -0.5t16 -11t14.5 -16.5t14 -17q26 -30 54 -56t51 -55z" />
    <glyph glyph-name="ucircumflex" unicode="&#xfb;" horiz-adv-x="371" 
d="M191 127q-27 -30 -55.5 -62t-63.5 -52q-14 -8 -29 -12.5t-29.5 -3.5t-27 8.5t-20.5 24.5q-7 16 -6.5 34t5 36t12.5 35t16 32q23 38 46.5 77.5t46.5 78.5q9 15 16.5 30.5t14.5 33.5q1 4 2 10.5l2 13t3 12.5t6 9q3 0 14 0.5t25.5 1t29 0.5h23.5q4 -2 4 -7v-8
q1 -18 -6.5 -37.5t-16.5 -34.5q-21 -42 -45 -81q-22 -40 -46 -78t-47 -77q-6 -11 -12.5 -28.5t4.5 -28.5q7 -7 16.5 -5.5t19 6.5t17 12t12.5 12q32 29 58 66t50 72q26 38 48.5 78t39.5 82q5 14 12.5 30t12.5 24q16 1 40.5 3t41.5 2h20q-1 -7 -3 -14q-2 -6 -3.5 -13.5
t-4.5 -12.5q-18 -40 -42 -77.5t-47 -75t-43 -76.5t-31 -82q-3 -25 9.5 -28.5t29.5 10.5q45 38 81 86t68 98q6 5 13 3.5t5 -12.5q-34 -55 -73.5 -106.5t-87.5 -97.5q-22 -18 -46.5 -29.5t-50.5 -5.5q-21 5 -29.5 19.5t-9 33t3.5 38t7 33.5zM404 637q3 2 8 2t12 -5v-12v-75
q0 -6 -4 -9t-9.5 -3t-9.5 3t-4 9v32q-18 -14 -43 -22q-35 -14 -70 -22q-15 0 -18 -1q-11 0 -12 1h1q-8 5 -9 12t8 12q14 7 29 15t31 16q15 9 33 19t35 18z" />
    <glyph glyph-name="udieresis" unicode="&#xfc;" horiz-adv-x="371" 
d="M191 127q-27 -30 -55.5 -62t-63.5 -52q-14 -8 -29 -12.5t-29.5 -3.5t-27 8.5t-20.5 24.5q-7 16 -6.5 34t5 36t12.5 35t16 32q23 38 46.5 77.5t46.5 78.5q9 15 16.5 30.5t14.5 33.5q1 4 2 10.5l2 13t3 12.5t6 9q3 0 14 0.5t25.5 1t29 0.5h23.5q4 -2 4 -7v-8
q1 -18 -6.5 -37.5t-16.5 -34.5q-21 -42 -45 -81q-22 -40 -46 -78t-47 -77q-6 -11 -12.5 -28.5t4.5 -28.5q7 -7 16.5 -5.5t19 6.5t17 12t12.5 12q32 29 58 66t50 72q26 38 48.5 78t39.5 82q5 14 12.5 30t12.5 24q16 1 40.5 3t41.5 2h20q-1 -7 -3 -14q-2 -6 -3.5 -13.5
t-4.5 -12.5q-18 -40 -42 -77.5t-47 -75t-43 -76.5t-31 -82q-3 -25 9.5 -28.5t29.5 10.5q45 38 81 86t68 98q6 5 13 3.5t5 -12.5q-34 -55 -73.5 -106.5t-87.5 -97.5q-22 -18 -46.5 -29.5t-50.5 -5.5q-21 5 -29.5 19.5t-9 33t3.5 38t7 33.5zM197 574q-2 10 0.5 21t8 21
t14 17.5t18.5 10.5q20 6 31.5 -9.5t6.5 -34.5q-3 -13 -13 -26t-22.5 -19.5t-24.5 -3.5t-19 23zM343 574q-2 10 0.5 21t8.5 21t14.5 17.5t18.5 10.5q20 6 31 -9.5t7 -34.5q-3 -13 -13 -26t-22.5 -19.5t-25 -3.5t-19.5 23z" />
    <glyph glyph-name="Agrave" unicode="&#xc0;" horiz-adv-x="1177" 
d="M627 367q-16 0 -25.5 -1t-15.5 -4.5t-10.5 -9t-11.5 -14.5q-24 -29 -47.5 -59.5t-47.5 -59.5q-47 -55 -96 -107t-106 -96q-44 -31 -98 -45.5t-107 6.5q-51 20 -77.5 63.5t-32.5 94.5q-5 56 1.5 113.5t31.5 108.5q13 28 30.5 54.5t37.5 49.5q20 22 42 41.5t46 36.5
q19 14 44.5 27t53.5 20t56 6t52 -13t39 -31.5t22.5 -43t7.5 -49.5t-4 -51q-5 -28 -18 -52t-32 -45q-2 -2 -8 -9.5t-14 -14t-16 -9.5t-13 4q-3 5 -1 12t7 14.5t11 15t9 13.5q8 16 14.5 34t8.5 35q4 27 -2 51.5t-28 43.5q-21 17 -39 24t-44 7q-31 -1 -54 -8.5t-48 -23.5
q-49 -32 -80.5 -84.5t-42.5 -108.5q-5 -26 -5.5 -53t5.5 -52.5t18.5 -49t34.5 -41.5t47.5 -24.5t51 -3.5t51 13.5t47.5 24.5q51 34 93 73.5t84 84.5q20 23 39.5 45.5t38.5 45.5l1 1h-27q-8 0 -13.5 4t-5.5 9v18q0 5 5.5 9.5t13.5 4.5h67q18 20 36.5 42t36.5 44
q60 77 124 150.5t142 131.5q30 23 64.5 40t72.5 19q17 2 35 0.5t32 -11.5q17 -11 23.5 -30.5t3.5 -39.5q-4 -27 -14 -51t-23 -47t-28 -44.5t-28 -43.5l-95 -154l-149 -241q-20 -32 -39 -66t-32 -69q-3 -13 -5 -21.5t-6 -13t-11 -6t-20 -1.5q-23 1 -45.5 0.5t-45.5 -0.5
q4 35 18.5 68.5t32.5 64.5q27 45 53.5 89.5t52.5 89.5l36 55h-163zM774 412q21 1 38 7.5t28 23.5l61 98q23 36 45.5 72t45.5 73q4 8 12 19.5t15.5 24t12.5 24t4 19.5q-3 16 -17.5 18.5t-32 -2t-33.5 -13t-23 -14.5q-44 -29 -80 -68.5t-68 -78.5q-42 -50 -80 -100.5
t-75 -102.5h147zM1211 842q2 -8 -2.5 -12.5t-12.5 -0.5l-26 15q-19 10 -41 26t-42.5 32t-35 30.5t-18.5 23.5q-5 11 -7 23t17 19q10 3 18.5 -0.5t16 -11t14.5 -16.5t14 -17q26 -30 54 -56t51 -55z" />
    <glyph glyph-name="Atilde" unicode="&#xc3;" horiz-adv-x="1213" 
d="M627 367q-16 0 -25.5 -1t-15.5 -4.5t-10.5 -9t-11.5 -14.5q-24 -29 -47.5 -59.5t-47.5 -59.5q-47 -55 -96 -107t-106 -96q-44 -31 -98 -45.5t-107 6.5q-51 20 -77.5 63.5t-32.5 94.5q-5 56 1.5 113.5t31.5 108.5q13 28 30.5 54.5t37.5 49.5q20 22 42 41.5t46 36.5
q19 14 44.5 27t53.5 20t56 6t52 -13t39 -31.5t22.5 -43t7.5 -49.5t-4 -51q-5 -28 -18 -52t-32 -45q-2 -2 -8 -9.5t-14 -14t-16 -9.5t-13 4q-3 5 -1 12t7 14.5t11 15t9 13.5q8 16 14.5 34t8.5 35q4 27 -2 51.5t-28 43.5q-21 17 -39 24t-44 7q-31 -1 -54 -8.5t-48 -23.5
q-49 -32 -80.5 -84.5t-42.5 -108.5q-5 -26 -5.5 -53t5.5 -52.5t18.5 -49t34.5 -41.5t47.5 -24.5t51 -3.5t51 13.5t47.5 24.5q51 34 93 73.5t84 84.5q20 23 39.5 45.5t38.5 45.5l1 1h-27q-8 0 -13.5 4t-5.5 9v18q0 5 5.5 9.5t13.5 4.5h67q18 20 36.5 42t36.5 44
q60 77 124 150.5t142 131.5q30 23 64.5 40t72.5 19q17 2 35 0.5t32 -11.5q17 -11 23.5 -30.5t3.5 -39.5q-4 -27 -14 -51t-23 -47t-28 -44.5t-28 -43.5l-95 -154l-149 -241q-20 -32 -39 -66t-32 -69q-3 -13 -5 -21.5t-6 -13t-11 -6t-20 -1.5q-23 1 -45.5 0.5t-45.5 -0.5
q4 35 18.5 68.5t32.5 64.5q27 45 53.5 89.5t52.5 89.5l36 55h-163zM774 412q21 1 38 7.5t28 23.5l61 98q23 36 45.5 72t45.5 73q4 8 12 19.5t15.5 24t12.5 24t4 19.5q-3 16 -17.5 18.5t-32 -2t-33.5 -13t-23 -14.5q-44 -29 -80 -68.5t-68 -78.5q-42 -50 -80 -100.5
t-75 -102.5h147zM1104 991q14 0 24 -5.5t18 -14t15.5 -18t15.5 -18.5q3 -9 12 -11q4 0 9.5 2t10.5 6l19 13q1 3 2.5 5.5t5.5 4.5l5 9q4 2 9 1.5t8.5 -3.5t4.5 -7.5t-2 -9.5q-2 -4 -4.5 -7.5t-7.5 -7.5q-5 -5 -8 -9t-8 -11q-14 -15 -33 -23t-38 2q-15 9 -24 21t-19 25
q-4 5 -8.5 12t-11.5 5q-9 0 -17 -6.5t-13 -13.5l-14 -17q-5 -5 -13 -5q-9 2 -12 9.5t4 14.5q4 4 11 13.5t15.5 19t20 17t23.5 7.5z" />
    <glyph glyph-name="Otilde" unicode="&#xd5;" horiz-adv-x="702" 
d="M336 352q-32 0 -56.5 23t-35.5 52q-13 34 -8 72.5t18 72.5q15 38 39 71t51 63t57 55.5t65 45.5q33 19 73 30t78 0q34 -11 49.5 -40.5t20.5 -61.5q6 -39 2 -78.5t-14.5 -78.5t-25.5 -76.5t-32 -71.5q-29 -62 -62.5 -119t-77.5 -110q-24 -31 -51 -60t-57.5 -54.5t-64.5 -46
t-72 -33.5q-35 -11 -78.5 -14.5t-80.5 8.5q-32 10 -59 36.5t-41 56.5q-15 33 -19.5 70t-1 75t15 74.5t27.5 68.5q39 77 91 148t118 128q26 23 51.5 44t54.5 40q4 2 14 7.5t21 10t20 5t11 -7.5q1 -5 -4.5 -10t-9.5 -7q-11 -9 -24 -17t-24 -16q-32 -26 -58 -56t-49 -62
q-26 -33 -48.5 -69t-39.5 -75q-14 -30 -26.5 -64t-20 -69t-8.5 -70.5t9 -69.5q12 -36 39.5 -58.5t62 -31t71.5 -3t66 23.5q48 30 101 90t98.5 133.5t77 152t34.5 147.5q1 27 -1.5 54.5t-13 50.5t-30.5 38t-52 16q-38 1 -72 -17t-61 -46.5t-46.5 -63.5t-28.5 -68
q-9 -35 -9.5 -73.5t19.5 -69.5q19 -29 49.5 -34.5t62.5 2.5q26 8 46.5 23.5t41.5 30.5q3 -14 3.5 -20.5t-9.5 -16.5q-8 -7 -15.5 -12.5t-15.5 -12.5q-36 -26 -73 -40.5t-82 -14.5zM592 994q14 0 24 -5.5t18 -14t15.5 -18t15.5 -18.5q3 -9 12 -11q4 0 9.5 2t10.5 6l19 13
q1 3 2.5 5.5t5.5 4.5l5 9q4 2 9 1.5t8.5 -3.5t4.5 -7.5t-2 -9.5q-2 -4 -4.5 -7.5t-7.5 -7.5q-5 -5 -8 -9t-8 -11q-14 -15 -33 -23t-38 2q-15 9 -24 21t-19 25q-4 5 -8.5 12t-11.5 5q-9 0 -17 -6.5t-13 -13.5l-14 -17q-5 -5 -13 -5q-9 2 -12 9.5t4 14.5q4 4 11 13.5t15.5 19
t20 17t23.5 7.5z" />
    <glyph glyph-name="ydieresis" unicode="&#xff;" horiz-adv-x="367" 
d="M152 63q-15 -14 -32.5 -28.5t-36.5 -25.5t-40 -17t-43 -1q-21 5 -31 18.5t-13 31t0 36.5t9 35q15 36 34.5 69t40 65.5l41 65t37.5 66.5q3 6 5.5 13.5t5 15.5t6.5 15t11 10q19 0 39.5 3t39.5 1q10 -2 11.5 -9.5t-1.5 -16.5t-8 -18t-8 -15q-23 -49 -51 -94.5t-56 -90.5
q-3 -5 -11 -19.5t-16.5 -32.5t-16.5 -37t-11.5 -34t-0.5 -22.5t16 -2.5q51 19 88.5 58t68.5 87t57 100.5t54 97.5q4 8 5.5 20t1.5 20q5 7 12 8q23 2 47 4t49 -1q2 -9 0.5 -22.5t-6.5 -24.5q-11 -26 -27.5 -50t-29.5 -47q-26 -48 -52.5 -93.5t-55.5 -90.5q-26 -40 -49.5 -84
t-49 -86.5t-56.5 -81t-72 -67.5q-38 -28 -81 -48t-89 -26q-19 -3 -44.5 -5t-50 2.5t-44.5 16.5t-29 36q-5 20 1.5 40t24.5 31q17 10 37.5 3.5t25.5 -28.5q2 -10 -2.5 -19.5t-8.5 -18.5t-3.5 -17.5t12.5 -16.5q9 -7 21 -9t24.5 -1t24.5 4.5t21 7.5q47 25 84.5 61t68 79
t55.5 89t47 91zM280 574q-2 10 0.5 21t8 21t14 17.5t18.5 10.5q20 6 31.5 -9.5t6.5 -34.5q-3 -13 -13 -26t-22.5 -19.5t-24.5 -3.5t-19 23zM426 574q-2 10 0.5 21t8.5 21t14.5 17.5t18.5 10.5q20 6 31 -9.5t7 -34.5q-3 -13 -13 -26t-22.5 -19.5t-25 -3.5t-19.5 23z" />
    <glyph glyph-name="Ydieresis" unicode="&#x178;" horiz-adv-x="1016" 
d="M489 90q-18 -16 -37 -32t-39.5 -29.5t-43 -22.5t-47.5 -11q-35 -5 -62 10t-35 52q-9 41 0 81t27 78t41 73t44 67q32 48 65 94t64 92q15 22 30 45.5t28.5 48t23.5 50t14 51.5q4 21 -1.5 42t-28.5 29q-19 8 -41 6t-44 -7q-52 -15 -94.5 -44t-80.5 -71q-39 -44 -72.5 -88.5
t-57.5 -101.5q-8 -17 -17 -43t-11 -52t6.5 -48t35.5 -30q20 -5 42 -3.5t39 9.5t28.5 19t25.5 21q16 10 19.5 2.5t-4.5 -21.5q-12 -16 -28 -31.5t-31 -27.5q-30 -29 -69.5 -42t-81.5 2q-22 8 -37 24t-23.5 36t-11 42.5t0.5 43.5q5 48 26 92.5t48 85.5q28 42 62 79.5t76 69.5
q41 29 86 56t93 42q20 6 45 10.5t51 5.5t50 -3.5t42 -17.5q22 -16 32.5 -38.5t13 -47.5t-1.5 -51t-11 -50q-18 -52 -46.5 -99t-58.5 -92q-32 -50 -66.5 -97.5t-63.5 -97.5q-13 -22 -25.5 -45.5t-23.5 -46.5q-5 -10 -8.5 -21.5t-4.5 -23t2 -22t12 -19.5q17 -15 39 -9.5t44 20
t40.5 32.5t29.5 30q38 40 74 82.5t70 87.5q72 98 134 199.5t122 207.5q17 30 25.5 43t18.5 17.5t25 4t45 1.5q34 3 40.5 -7t-1.5 -27t-24 -37.5t-25 -38.5q-58 -107 -123.5 -208.5t-129.5 -205.5q-30 -50 -59 -101t-59 -101t-63 -98.5t-70 -92.5q-33 -41 -73.5 -76
t-85.5 -61.5t-94.5 -43t-101.5 -19.5q-23 -2 -48 -1.5t-50 5.5t-46.5 16t-36.5 30q-14 18 -18.5 40t0 43.5t17 39.5t33.5 28t40 4t30.5 -21t12.5 -35t-14 -38q-6 -8 -13 -15.5t-7 -18.5q0 -12 8.5 -21.5t19.5 -15.5q21 -11 45 -10t47 6q52 13 94.5 43t78 69.5t64.5 84
t56 87.5q32 51 64 101.5t63 101.5q-24 -28 -49.5 -53t-53.5 -51zM710 906q-2 10 0.5 21t8 21t14 17.5t18.5 10.5q20 6 31.5 -9.5t6.5 -34.5q-3 -13 -13 -26t-22.5 -19.5t-24.5 -3.5t-19 23zM856 906q-2 10 0.5 21t8.5 21t14.5 17.5t18.5 10.5q20 6 31 -9.5t7 -34.5
q-3 -13 -13 -26t-22.5 -19.5t-25 -3.5t-19.5 23z" />
    <glyph glyph-name="Acircumflex" unicode="&#xc2;" horiz-adv-x="1133" 
d="M627 367q-16 0 -25.5 -1t-15.5 -4.5t-10.5 -9t-11.5 -14.5q-24 -29 -47.5 -59.5t-47.5 -59.5q-47 -55 -96 -107t-106 -96q-44 -31 -98 -45.5t-107 6.5q-51 20 -77.5 63.5t-32.5 94.5q-5 56 1.5 113.5t31.5 108.5q13 28 30.5 54.5t37.5 49.5q20 22 42 41.5t46 36.5
q19 14 44.5 27t53.5 20t56 6t52 -13t39 -31.5t22.5 -43t7.5 -49.5t-4 -51q-5 -28 -18 -52t-32 -45q-2 -2 -8 -9.5t-14 -14t-16 -9.5t-13 4q-3 5 -1 12t7 14.5t11 15t9 13.5q8 16 14.5 34t8.5 35q4 27 -2 51.5t-28 43.5q-21 17 -39 24t-44 7q-31 -1 -54 -8.5t-48 -23.5
q-49 -32 -80.5 -84.5t-42.5 -108.5q-5 -26 -5.5 -53t5.5 -52.5t18.5 -49t34.5 -41.5t47.5 -24.5t51 -3.5t51 13.5t47.5 24.5q51 34 93 73.5t84 84.5q20 23 39.5 45.5t38.5 45.5l1 1h-27q-8 0 -13.5 4t-5.5 9v18q0 5 5.5 9.5t13.5 4.5h67q18 20 36.5 42t36.5 44
q60 77 124 150.5t142 131.5q30 23 64.5 40t72.5 19q17 2 35 0.5t32 -11.5q17 -11 23.5 -30.5t3.5 -39.5q-4 -27 -14 -51t-23 -47t-28 -44.5t-28 -43.5l-95 -154l-149 -241q-20 -32 -39 -66t-32 -69q-3 -13 -5 -21.5t-6 -13t-11 -6t-20 -1.5q-23 1 -45.5 0.5t-45.5 -0.5
q4 35 18.5 68.5t32.5 64.5q27 45 53.5 89.5t52.5 89.5l36 55h-163zM774 412q21 1 38 7.5t28 23.5l61 98q23 36 45.5 72t45.5 73q4 8 12 19.5t15.5 24t12.5 24t4 19.5q-3 16 -17.5 18.5t-32 -2t-33.5 -13t-23 -14.5q-44 -29 -80 -68.5t-68 -78.5q-42 -50 -80 -100.5
t-75 -102.5h147zM1164 985q3 2 8 2t12 -5v-12v-75q0 -6 -4 -9t-9.5 -3t-9.5 3t-4 9v32q-18 -14 -43 -22q-35 -14 -70 -22q-15 0 -18 -1q-11 0 -12 1h1q-8 5 -9 12t8 12q14 7 29 15t31 16q15 9 33 19t35 18z" />
    <glyph glyph-name="Ecircumflex" unicode="&#xca;" horiz-adv-x="684" 
d="M238 587q-22 4 -46 11t-45.5 18.5t-38.5 28t-26 40.5q-8 24 -4 46t16 40.5t30.5 32.5t38.5 23q4 1 17.5 4.5t31 6.5t36.5 4t34.5 -1t24 -9.5t5.5 -21.5q-2 -7 -8 -9t-13.5 -1.5t-15 2.5t-12.5 3q-23 4 -48 -2t-45 -21q-23 -17 -29 -44t8 -52q14 -28 41 -42.5t54 -24.5
q13 51 45 89.5t74.5 65.5t91.5 43t98 22q18 2 40.5 1.5t44 -3.5t40 -9.5t29.5 -15.5q20 -21 21 -44t-9.5 -45t-29 -41t-36.5 -31q-49 -33 -111.5 -49t-119.5 -22q-18 -2 -42.5 -1t-41.5 -2q-6 -3 -7.5 -8t1.5 -10t9.5 -8.5t16.5 -3.5q16 1 35 3t38.5 1.5t37.5 -6t33 -18.5
q11 -10 11.5 -20.5t-6 -19.5t-17.5 -15.5t-22 -9.5q-28 -8 -61 -5t-61 11q-14 5 -26 13t-26 13q-16 5 -30.5 -1t-27.5 -13q-28 -16 -53 -36t-45 -45q-20 -24 -34.5 -52t-22 -58t-6.5 -61t13 -61q19 -47 54 -68.5t77 -24.5t86 8.5t81 29.5q45 23 83.5 53.5t70.5 68.5
q9 11 17 22t15 24q2 4 4 10t5 12t7 10.5t9 5.5q9 2 11.5 -2.5t1 -11.5t-4.5 -14t-5 -10q-22 -44 -53 -84.5t-68.5 -75.5t-80 -62.5t-88.5 -44.5q-30 -11 -63 -17.5t-66 -6.5t-65.5 7.5t-60.5 22.5t-50 40.5t-36 57.5q-24 54 -17.5 108t32.5 102.5t67.5 88t87.5 65.5
q29 16 60 26t63 20q-10 14 -13.5 29t-10.5 31zM354 515q10 -9 21 -16t25 -7q8 0 17 3t3 14q-4 7 -12.5 9t-18.5 1.5t-19.5 -2t-15.5 -2.5zM341 612q51 0 101 8t96 28q16 7 39 20t43 30t31 37.5t2 41.5q-4 12 -13 19t-20.5 10t-24 3t-23.5 -2q-26 -4 -52 -14t-49 -24
q-31 -19 -57.5 -40t-45.5 -50q-9 -14 -15.5 -32t-11.5 -35zM714 985q3 2 8 2t12 -5v-12v-75q0 -6 -4 -9t-9.5 -3t-9.5 3t-4 9v32q-18 -14 -43 -22q-35 -14 -70 -22q-15 0 -18 -1q-11 0 -12 1h1q-8 5 -9 12t8 12q14 7 29 15t31 16q15 9 33 19t35 18z" />
    <glyph glyph-name="Aacute" unicode="&#xc1;" horiz-adv-x="1175" 
d="M627 367q-16 0 -25.5 -1t-15.5 -4.5t-10.5 -9t-11.5 -14.5q-24 -29 -47.5 -59.5t-47.5 -59.5q-47 -55 -96 -107t-106 -96q-44 -31 -98 -45.5t-107 6.5q-51 20 -77.5 63.5t-32.5 94.5q-5 56 1.5 113.5t31.5 108.5q13 28 30.5 54.5t37.5 49.5q20 22 42 41.5t46 36.5
q19 14 44.5 27t53.5 20t56 6t52 -13t39 -31.5t22.5 -43t7.5 -49.5t-4 -51q-5 -28 -18 -52t-32 -45q-2 -2 -8 -9.5t-14 -14t-16 -9.5t-13 4q-3 5 -1 12t7 14.5t11 15t9 13.5q8 16 14.5 34t8.5 35q4 27 -2 51.5t-28 43.5q-21 17 -39 24t-44 7q-31 -1 -54 -8.5t-48 -23.5
q-49 -32 -80.5 -84.5t-42.5 -108.5q-5 -26 -5.5 -53t5.5 -52.5t18.5 -49t34.5 -41.5t47.5 -24.5t51 -3.5t51 13.5t47.5 24.5q51 34 93 73.5t84 84.5q20 23 39.5 45.5t38.5 45.5l1 1h-27q-8 0 -13.5 4t-5.5 9v18q0 5 5.5 9.5t13.5 4.5h67q18 20 36.5 42t36.5 44
q60 77 124 150.5t142 131.5q30 23 64.5 40t72.5 19q17 2 35 0.5t32 -11.5q17 -11 23.5 -30.5t3.5 -39.5q-4 -27 -14 -51t-23 -47t-28 -44.5t-28 -43.5l-95 -154l-149 -241q-20 -32 -39 -66t-32 -69q-3 -13 -5 -21.5t-6 -13t-11 -6t-20 -1.5q-23 1 -45.5 0.5t-45.5 -0.5
q4 35 18.5 68.5t32.5 64.5q27 45 53.5 89.5t52.5 89.5l36 55h-163zM774 412q21 1 38 7.5t28 23.5l61 98q23 36 45.5 72t45.5 73q4 8 12 19.5t15.5 24t12.5 24t4 19.5q-3 16 -17.5 18.5t-32 -2t-33.5 -13t-23 -14.5q-44 -29 -80 -68.5t-68 -78.5q-42 -50 -80 -100.5
t-75 -102.5h147zM988 849q29 26 61 46t62 45q8 7 16.5 15t17 14t18 8t18.5 -3q18 -10 14 -22t-11 -22q-6 -8 -23 -19.5t-39.5 -24t-47 -24t-44.5 -18.5l-29 -10q-9 -2 -12.5 3t-0.5 12z" />
    <glyph glyph-name="Edieresis" unicode="&#xcb;" horiz-adv-x="727" 
d="M238 587q-22 4 -46 11t-45.5 18.5t-38.5 28t-26 40.5q-8 24 -4 46t16 40.5t30.5 32.5t38.5 23q4 1 17.5 4.5t31 6.5t36.5 4t34.5 -1t24 -9.5t5.5 -21.5q-2 -7 -8 -9t-13.5 -1.5t-15 2.5t-12.5 3q-23 4 -48 -2t-45 -21q-23 -17 -29 -44t8 -52q14 -28 41 -42.5t54 -24.5
q13 51 45 89.5t74.5 65.5t91.5 43t98 22q18 2 40.5 1.5t44 -3.5t40 -9.5t29.5 -15.5q20 -21 21 -44t-9.5 -45t-29 -41t-36.5 -31q-49 -33 -111.5 -49t-119.5 -22q-18 -2 -42.5 -1t-41.5 -2q-6 -3 -7.5 -8t1.5 -10t9.5 -8.5t16.5 -3.5q16 1 35 3t38.5 1.5t37.5 -6t33 -18.5
q11 -10 11.5 -20.5t-6 -19.5t-17.5 -15.5t-22 -9.5q-28 -8 -61 -5t-61 11q-14 5 -26 13t-26 13q-16 5 -30.5 -1t-27.5 -13q-28 -16 -53 -36t-45 -45q-20 -24 -34.5 -52t-22 -58t-6.5 -61t13 -61q19 -47 54 -68.5t77 -24.5t86 8.5t81 29.5q45 23 83.5 53.5t70.5 68.5
q9 11 17 22t15 24q2 4 4 10t5 12t7 10.5t9 5.5q9 2 11.5 -2.5t1 -11.5t-4.5 -14t-5 -10q-22 -44 -53 -84.5t-68.5 -75.5t-80 -62.5t-88.5 -44.5q-30 -11 -63 -17.5t-66 -6.5t-65.5 7.5t-60.5 22.5t-50 40.5t-36 57.5q-24 54 -17.5 108t32.5 102.5t67.5 88t87.5 65.5
q29 16 60 26t63 20q-10 14 -13.5 29t-10.5 31zM354 515q10 -9 21 -16t25 -7q8 0 17 3t3 14q-4 7 -12.5 9t-18.5 1.5t-19.5 -2t-15.5 -2.5zM341 612q51 0 101 8t96 28q16 7 39 20t43 30t31 37.5t2 41.5q-4 12 -13 19t-20.5 10t-24 3t-23.5 -2q-26 -4 -52 -14t-49 -24
q-31 -19 -57.5 -40t-45.5 -50q-9 -14 -15.5 -32t-11.5 -35zM549 906q-2 10 0.5 21t8 21t14 17.5t18.5 10.5q20 6 31.5 -9.5t6.5 -34.5q-3 -13 -13 -26t-22.5 -19.5t-24.5 -3.5t-19 23zM695 906q-2 10 0.5 21t8.5 21t14.5 17.5t18.5 10.5q20 6 31 -9.5t7 -34.5
q-3 -13 -13 -26t-22.5 -19.5t-25 -3.5t-19.5 23z" />
    <glyph glyph-name="Egrave" unicode="&#xc8;" horiz-adv-x="678" 
d="M238 587q-22 4 -46 11t-45.5 18.5t-38.5 28t-26 40.5q-8 24 -4 46t16 40.5t30.5 32.5t38.5 23q4 1 17.5 4.5t31 6.5t36.5 4t34.5 -1t24 -9.5t5.5 -21.5q-2 -7 -8 -9t-13.5 -1.5t-15 2.5t-12.5 3q-23 4 -48 -2t-45 -21q-23 -17 -29 -44t8 -52q14 -28 41 -42.5t54 -24.5
q13 51 45 89.5t74.5 65.5t91.5 43t98 22q18 2 40.5 1.5t44 -3.5t40 -9.5t29.5 -15.5q20 -21 21 -44t-9.5 -45t-29 -41t-36.5 -31q-49 -33 -111.5 -49t-119.5 -22q-18 -2 -42.5 -1t-41.5 -2q-6 -3 -7.5 -8t1.5 -10t9.5 -8.5t16.5 -3.5q16 1 35 3t38.5 1.5t37.5 -6t33 -18.5
q11 -10 11.5 -20.5t-6 -19.5t-17.5 -15.5t-22 -9.5q-28 -8 -61 -5t-61 11q-14 5 -26 13t-26 13q-16 5 -30.5 -1t-27.5 -13q-28 -16 -53 -36t-45 -45q-20 -24 -34.5 -52t-22 -58t-6.5 -61t13 -61q19 -47 54 -68.5t77 -24.5t86 8.5t81 29.5q45 23 83.5 53.5t70.5 68.5
q9 11 17 22t15 24q2 4 4 10t5 12t7 10.5t9 5.5q9 2 11.5 -2.5t1 -11.5t-4.5 -14t-5 -10q-22 -44 -53 -84.5t-68.5 -75.5t-80 -62.5t-88.5 -44.5q-30 -11 -63 -17.5t-66 -6.5t-65.5 7.5t-60.5 22.5t-50 40.5t-36 57.5q-24 54 -17.5 108t32.5 102.5t67.5 88t87.5 65.5
q29 16 60 26t63 20q-10 14 -13.5 29t-10.5 31zM354 515q10 -9 21 -16t25 -7q8 0 17 3t3 14q-4 7 -12.5 9t-18.5 1.5t-19.5 -2t-15.5 -2.5zM341 612q51 0 101 8t96 28q16 7 39 20t43 30t31 37.5t2 41.5q-4 12 -13 19t-20.5 10t-24 3t-23.5 -2q-26 -4 -52 -14t-49 -24
q-31 -19 -57.5 -40t-45.5 -50q-9 -14 -15.5 -32t-11.5 -35zM695 842q2 -8 -2.5 -12.5t-12.5 -0.5l-26 15q-19 10 -41 26t-42.5 32t-35 30.5t-18.5 23.5q-5 11 -7 23t17 19q10 3 18.5 -0.5t16 -11t14.5 -16.5t14 -17q26 -30 54 -56t51 -55z" />
    <glyph glyph-name="Iacute" unicode="&#xcd;" horiz-adv-x="952" 
d="M542 720q-28 -18 -55 -39.5t-50.5 -47t-41.5 -54.5t-28 -62q-6 -14 -8.5 -30t0 -31.5t10.5 -29t24 -22.5q11 -5 24.5 -7t25.5 1q15 4 27 15.5t26 15.5q8 2 10.5 -0.5t1 -7.5t-4.5 -10.5t-6 -9.5q-10 -11 -22.5 -19t-26.5 -15q-23 -11 -49 -15.5t-53 0.5q-32 5 -52.5 22.5
t-31 41.5t-10 52.5t10.5 57.5q22 65 69.5 114t103.5 84q54 36 114.5 58.5t122.5 36.5q66 14 136.5 21.5t136.5 -4.5q4 -1 10.5 -3t11.5 -5t7.5 -7.5t-1.5 -10.5q-5 -10 -17 -8t-20 2q-25 -1 -45.5 -16.5t-38.5 -34.5q-36 -47 -63.5 -101t-54.5 -107q-33 -62 -66.5 -124
t-72 -120.5t-84.5 -111.5t-104 -95q-57 -44 -123 -70t-138 -31q-26 -2 -62 2t-67.5 16.5t-51.5 36t-14 61.5q4 27 24 49t52 20q13 0 25 -8t18.5 -20t6.5 -26t-9 -26q-6 -8 -15.5 -14t-10.5 -20q0 -9 6 -15t13 -10q17 -10 36.5 -15t38.5 -5q34 0 65.5 11.5t60 30t53.5 42.5
t46 49q45 55 81.5 117t73.5 123q40 66 77.5 130.5t82.5 125.5q23 26 45.5 51t47.5 46q20 17 41.5 29.5t42.5 26.5q8 4 10.5 5.5t-5.5 3.5q-30 5 -74.5 -3.5t-90.5 -23.5t-87 -32.5t-65 -30.5zM766 850q29 26 61 46t62 45q8 7 16.5 15t17 14t18 8t18.5 -3q18 -10 14 -22
t-11 -22q-6 -8 -23 -19.5t-39.5 -24t-47 -24t-44.5 -18.5l-29 -10q-9 -2 -12.5 3t-0.5 12z" />
    <glyph glyph-name="Icircumflex" unicode="&#xce;" horiz-adv-x="932" 
d="M542 720q-28 -18 -55 -39.5t-50.5 -47t-41.5 -54.5t-28 -62q-6 -14 -8.5 -30t0 -31.5t10.5 -29t24 -22.5q11 -5 24.5 -7t25.5 1q15 4 27 15.5t26 15.5q8 2 10.5 -0.5t1 -7.5t-4.5 -10.5t-6 -9.5q-10 -11 -22.5 -19t-26.5 -15q-23 -11 -49 -15.5t-53 0.5q-32 5 -52.5 22.5
t-31 41.5t-10 52.5t10.5 57.5q22 65 69.5 114t103.5 84q54 36 114.5 58.5t122.5 36.5q66 14 136.5 21.5t136.5 -4.5q4 -1 10.5 -3t11.5 -5t7.5 -7.5t-1.5 -10.5q-5 -10 -17 -8t-20 2q-25 -1 -45.5 -16.5t-38.5 -34.5q-36 -47 -63.5 -101t-54.5 -107q-33 -62 -66.5 -124
t-72 -120.5t-84.5 -111.5t-104 -95q-57 -44 -123 -70t-138 -31q-26 -2 -62 2t-67.5 16.5t-51.5 36t-14 61.5q4 27 24 49t52 20q13 0 25 -8t18.5 -20t6.5 -26t-9 -26q-6 -8 -15.5 -14t-10.5 -20q0 -9 6 -15t13 -10q17 -10 36.5 -15t38.5 -5q34 0 65.5 11.5t60 30t53.5 42.5
t46 49q45 55 81.5 117t73.5 123q40 66 77.5 130.5t82.5 125.5q23 26 45.5 51t47.5 46q20 17 41.5 29.5t42.5 26.5q8 4 10.5 5.5t-5.5 3.5q-30 5 -74.5 -3.5t-90.5 -23.5t-87 -32.5t-65 -30.5zM962 985q3 2 8 2t12 -5v-12v-75q0 -6 -4 -9t-9.5 -3t-9.5 3t-4 9v32
q-18 -14 -43 -22q-35 -14 -70 -22q-15 0 -18 -1q-11 0 -12 1h1q-8 5 -9 12t8 12q14 7 29 15t31 16q15 9 33 19t35 18z" />
    <glyph glyph-name="Idieresis" unicode="&#xcf;" horiz-adv-x="955" 
d="M542 720q-28 -18 -55 -39.5t-50.5 -47t-41.5 -54.5t-28 -62q-6 -14 -8.5 -30t0 -31.5t10.5 -29t24 -22.5q11 -5 24.5 -7t25.5 1q15 4 27 15.5t26 15.5q8 2 10.5 -0.5t1 -7.5t-4.5 -10.5t-6 -9.5q-10 -11 -22.5 -19t-26.5 -15q-23 -11 -49 -15.5t-53 0.5q-32 5 -52.5 22.5
t-31 41.5t-10 52.5t10.5 57.5q22 65 69.5 114t103.5 84q54 36 114.5 58.5t122.5 36.5q66 14 136.5 21.5t136.5 -4.5q4 -1 10.5 -3t11.5 -5t7.5 -7.5t-1.5 -10.5q-5 -10 -17 -8t-20 2q-25 -1 -45.5 -16.5t-38.5 -34.5q-36 -47 -63.5 -101t-54.5 -107q-33 -62 -66.5 -124
t-72 -120.5t-84.5 -111.5t-104 -95q-57 -44 -123 -70t-138 -31q-26 -2 -62 2t-67.5 16.5t-51.5 36t-14 61.5q4 27 24 49t52 20q13 0 25 -8t18.5 -20t6.5 -26t-9 -26q-6 -8 -15.5 -14t-10.5 -20q0 -9 6 -15t13 -10q17 -10 36.5 -15t38.5 -5q34 0 65.5 11.5t60 30t53.5 42.5
t46 49q45 55 81.5 117t73.5 123q40 66 77.5 130.5t82.5 125.5q23 26 45.5 51t47.5 46q20 17 41.5 29.5t42.5 26.5q8 4 10.5 5.5t-5.5 3.5q-30 5 -74.5 -3.5t-90.5 -23.5t-87 -32.5t-65 -30.5zM778 907q-2 10 0.5 21t8 21t14 17.5t18.5 10.5q20 6 31.5 -9.5t6.5 -34.5
q-3 -13 -13 -26t-22.5 -19.5t-24.5 -3.5t-19 23zM924 907q-2 10 0.5 21t8.5 21t14.5 17.5t18.5 10.5q20 6 31 -9.5t7 -34.5q-3 -13 -13 -26t-22.5 -19.5t-25 -3.5t-19.5 23z" />
    <glyph glyph-name="Igrave" unicode="&#xcc;" horiz-adv-x="942" 
d="M542 720q-28 -18 -55 -39.5t-50.5 -47t-41.5 -54.5t-28 -62q-6 -14 -8.5 -30t0 -31.5t10.5 -29t24 -22.5q11 -5 24.5 -7t25.5 1q15 4 27 15.5t26 15.5q8 2 10.5 -0.5t1 -7.5t-4.5 -10.5t-6 -9.5q-10 -11 -22.5 -19t-26.5 -15q-23 -11 -49 -15.5t-53 0.5q-32 5 -52.5 22.5
t-31 41.5t-10 52.5t10.5 57.5q22 65 69.5 114t103.5 84q54 36 114.5 58.5t122.5 36.5q66 14 136.5 21.5t136.5 -4.5q4 -1 10.5 -3t11.5 -5t7.5 -7.5t-1.5 -10.5q-5 -10 -17 -8t-20 2q-25 -1 -45.5 -16.5t-38.5 -34.5q-36 -47 -63.5 -101t-54.5 -107q-33 -62 -66.5 -124
t-72 -120.5t-84.5 -111.5t-104 -95q-57 -44 -123 -70t-138 -31q-26 -2 -62 2t-67.5 16.5t-51.5 36t-14 61.5q4 27 24 49t52 20q13 0 25 -8t18.5 -20t6.5 -26t-9 -26q-6 -8 -15.5 -14t-10.5 -20q0 -9 6 -15t13 -10q17 -10 36.5 -15t38.5 -5q34 0 65.5 11.5t60 30t53.5 42.5
t46 49q45 55 81.5 117t73.5 123q40 66 77.5 130.5t82.5 125.5q23 26 45.5 51t47.5 46q20 17 41.5 29.5t42.5 26.5q8 4 10.5 5.5t-5.5 3.5q-30 5 -74.5 -3.5t-90.5 -23.5t-87 -32.5t-65 -30.5zM976 842q2 -8 -2.5 -12.5t-12.5 -0.5l-26 15q-19 10 -41 26t-42.5 32t-35 30.5
t-18.5 23.5q-5 11 -7 23t17 19q10 3 18.5 -0.5t16 -11t14.5 -16.5t14 -17q26 -30 54 -56t51 -55z" />
    <glyph glyph-name="Oacute" unicode="&#xd3;" horiz-adv-x="642" 
d="M336 352q-32 0 -56.5 23t-35.5 52q-13 34 -8 72.5t18 72.5q15 38 39 71t51 63t57 55.5t65 45.5q33 19 73 30t78 0q34 -11 49.5 -40.5t20.5 -61.5q6 -39 2 -78.5t-14.5 -78.5t-25.5 -76.5t-32 -71.5q-29 -62 -62.5 -119t-77.5 -110q-24 -31 -51 -60t-57.5 -54.5t-64.5 -46
t-72 -33.5q-35 -11 -78.5 -14.5t-80.5 8.5q-32 10 -59 36.5t-41 56.5q-15 33 -19.5 70t-1 75t15 74.5t27.5 68.5q39 77 91 148t118 128q26 23 51.5 44t54.5 40q4 2 14 7.5t21 10t20 5t11 -7.5q1 -5 -4.5 -10t-9.5 -7q-11 -9 -24 -17t-24 -16q-32 -26 -58 -56t-49 -62
q-26 -33 -48.5 -69t-39.5 -75q-14 -30 -26.5 -64t-20 -69t-8.5 -70.5t9 -69.5q12 -36 39.5 -58.5t62 -31t71.5 -3t66 23.5q48 30 101 90t98.5 133.5t77 152t34.5 147.5q1 27 -1.5 54.5t-13 50.5t-30.5 38t-52 16q-38 1 -72 -17t-61 -46.5t-46.5 -63.5t-28.5 -68
q-9 -35 -9.5 -73.5t19.5 -69.5q19 -29 49.5 -34.5t62.5 2.5q26 8 46.5 23.5t41.5 30.5q3 -14 3.5 -20.5t-9.5 -16.5q-8 -7 -15.5 -12.5t-15.5 -12.5q-36 -26 -73 -40.5t-82 -14.5zM455 864q29 26 61 46t62 45q8 7 16.5 15t17 14t18 8t18.5 -3q18 -10 14 -22t-11 -22
q-6 -8 -23 -19.5t-39.5 -24t-47 -24t-44.5 -18.5l-29 -10q-9 -2 -12.5 3t-0.5 12z" />
    <glyph glyph-name="Ocircumflex" unicode="&#xd4;" horiz-adv-x="642" 
d="M336 352q-32 0 -56.5 23t-35.5 52q-13 34 -8 72.5t18 72.5q15 38 39 71t51 63t57 55.5t65 45.5q33 19 73 30t78 0q34 -11 49.5 -40.5t20.5 -61.5q6 -39 2 -78.5t-14.5 -78.5t-25.5 -76.5t-32 -71.5q-29 -62 -62.5 -119t-77.5 -110q-24 -31 -51 -60t-57.5 -54.5t-64.5 -46
t-72 -33.5q-35 -11 -78.5 -14.5t-80.5 8.5q-32 10 -59 36.5t-41 56.5q-15 33 -19.5 70t-1 75t15 74.5t27.5 68.5q39 77 91 148t118 128q26 23 51.5 44t54.5 40q4 2 14 7.5t21 10t20 5t11 -7.5q1 -5 -4.5 -10t-9.5 -7q-11 -9 -24 -17t-24 -16q-32 -26 -58 -56t-49 -62
q-26 -33 -48.5 -69t-39.5 -75q-14 -30 -26.5 -64t-20 -69t-8.5 -70.5t9 -69.5q12 -36 39.5 -58.5t62 -31t71.5 -3t66 23.5q48 30 101 90t98.5 133.5t77 152t34.5 147.5q1 27 -1.5 54.5t-13 50.5t-30.5 38t-52 16q-38 1 -72 -17t-61 -46.5t-46.5 -63.5t-28.5 -68
q-9 -35 -9.5 -73.5t19.5 -69.5q19 -29 49.5 -34.5t62.5 2.5q26 8 46.5 23.5t41.5 30.5q3 -14 3.5 -20.5t-9.5 -16.5q-8 -7 -15.5 -12.5t-15.5 -12.5q-36 -26 -73 -40.5t-82 -14.5zM669 990q3 2 8 2t12 -5v-12v-75q0 -6 -4 -9t-9.5 -3t-9.5 3t-4 9v32q-18 -14 -43 -22
q-35 -14 -70 -22q-15 0 -18 -1q-11 0 -12 1h1q-8 5 -9 12t8 12q14 7 29 15t31 16q15 9 33 19t35 18z" />
    <glyph glyph-name="Ograve" unicode="&#xd2;" horiz-adv-x="705" 
d="M336 352q-32 0 -56.5 23t-35.5 52q-13 34 -8 72.5t18 72.5q15 38 39 71t51 63t57 55.5t65 45.5q33 19 73 30t78 0q34 -11 49.5 -40.5t20.5 -61.5q6 -39 2 -78.5t-14.5 -78.5t-25.5 -76.5t-32 -71.5q-29 -62 -62.5 -119t-77.5 -110q-24 -31 -51 -60t-57.5 -54.5t-64.5 -46
t-72 -33.5q-35 -11 -78.5 -14.5t-80.5 8.5q-32 10 -59 36.5t-41 56.5q-15 33 -19.5 70t-1 75t15 74.5t27.5 68.5q39 77 91 148t118 128q26 23 51.5 44t54.5 40q4 2 14 7.5t21 10t20 5t11 -7.5q1 -5 -4.5 -10t-9.5 -7q-11 -9 -24 -17t-24 -16q-32 -26 -58 -56t-49 -62
q-26 -33 -48.5 -69t-39.5 -75q-14 -30 -26.5 -64t-20 -69t-8.5 -70.5t9 -69.5q12 -36 39.5 -58.5t62 -31t71.5 -3t66 23.5q48 30 101 90t98.5 133.5t77 152t34.5 147.5q1 27 -1.5 54.5t-13 50.5t-30.5 38t-52 16q-38 1 -72 -17t-61 -46.5t-46.5 -63.5t-28.5 -68
q-9 -35 -9.5 -73.5t19.5 -69.5q19 -29 49.5 -34.5t62.5 2.5q26 8 46.5 23.5t41.5 30.5q3 -14 3.5 -20.5t-9.5 -16.5q-8 -7 -15.5 -12.5t-15.5 -12.5q-36 -26 -73 -40.5t-82 -14.5zM739 842q2 -8 -2.5 -12.5t-12.5 -0.5l-26 15q-19 10 -41 26t-42.5 32t-35 30.5t-18.5 23.5
q-5 11 -7 23t17 19q10 3 18.5 -0.5t16 -11t14.5 -16.5t14 -17q26 -30 54 -56t51 -55z" />
    <glyph glyph-name="Uacute" unicode="&#xda;" horiz-adv-x="878" 
d="M927 779q2 -3 -2 -12t-9.5 -19.5t-11.5 -19.5t-7 -12q-5 -11 -11.5 -20.5t-13.5 -19.5q-15 -24 -30.5 -48t-29.5 -48q-50 -83 -97 -165t-89 -170q-10 -19 -18.5 -37.5t-16.5 -37.5q-3 -9 -9.5 -23t-11 -29t-4 -29t10.5 -22q11 -9 24 -6t26 11.5t24.5 18.5t18.5 16
q18 17 33.5 35t31.5 37l39 48q4 5 7.5 9.5t11.5 -2.5q7 -6 3.5 -11.5t-7.5 -10.5q-19 -23 -36.5 -47t-37.5 -46q-13 -14 -25.5 -28t-26.5 -28q-12 -13 -28 -27.5t-34 -26t-38 -18.5t-39 -4q-38 6 -52 31.5t-13.5 58.5t11 67.5t22.5 57.5q-28 -28 -53.5 -57t-52.5 -58
q-15 -15 -35.5 -33t-44.5 -33t-49.5 -24.5t-49 -9t-43 14t-32.5 45.5q-15 40 -6 81t24 79q12 32 28.5 61.5t34.5 58.5q21 34 41 67.5t42 66.5q23 38 47.5 75t47.5 75q18 29 35 62.5t19 68.5q1 21 -6 35t-19.5 22t-29.5 11t-35 0q-39 -6 -74 -26t-64 -45q-40 -32 -75 -71
t-60 -84q-20 -38 -38 -83.5t-18 -88.5q1 -42 21 -66.5t64 -20.5q28 3 46 19.5t38 35.5q11 12 14 3.5t-2 -19.5q-7 -12 -16.5 -22t-18.5 -20q-24 -24 -50.5 -45t-62.5 -25q-36 -5 -61.5 14.5t-36.5 54.5q-15 45 -9 92.5t24.5 93t46.5 86.5t57 74q31 35 70.5 68t84.5 57.5
t93.5 38.5t96.5 11q42 -3 71.5 -27t37.5 -66q8 -45 -7 -85t-31 -80q-26 -68 -66.5 -129t-78.5 -123q-12 -19 -24 -37t-24 -38q-17 -30 -35.5 -63.5t-27.5 -68.5q-2 -11 -3 -26t6 -24q9 -12 26.5 -14t30.5 1q20 6 38.5 19t35 29.5t31 34t27.5 32.5q66 79 116.5 166.5
t102.5 176.5q23 42 48 83.5t49 83.5q8 14 14.5 26t14.5 24q8 17 20 35q6 9 8 11t12 3q12 1 27 2.5t29.5 1.5t28.5 -2t25 -9zM588 857q29 26 61 46t62 45q8 7 16.5 15t17 14t18 8t18.5 -3q18 -10 14 -22t-11 -22q-6 -8 -23 -19.5t-39.5 -24t-47 -24t-44.5 -18.5l-29 -10
q-9 -2 -12.5 3t-0.5 12z" />
    <glyph glyph-name="Ucircumflex" unicode="&#xdb;" horiz-adv-x="878" 
d="M927 779q2 -3 -2 -12t-9.5 -19.5t-11.5 -19.5t-7 -12q-5 -11 -11.5 -20.5t-13.5 -19.5q-15 -24 -30.5 -48t-29.5 -48q-50 -83 -97 -165t-89 -170q-10 -19 -18.5 -37.5t-16.5 -37.5q-3 -9 -9.5 -23t-11 -29t-4 -29t10.5 -22q11 -9 24 -6t26 11.5t24.5 18.5t18.5 16
q18 17 33.5 35t31.5 37l39 48q4 5 7.5 9.5t11.5 -2.5q7 -6 3.5 -11.5t-7.5 -10.5q-19 -23 -36.5 -47t-37.5 -46q-13 -14 -25.5 -28t-26.5 -28q-12 -13 -28 -27.5t-34 -26t-38 -18.5t-39 -4q-38 6 -52 31.5t-13.5 58.5t11 67.5t22.5 57.5q-28 -28 -53.5 -57t-52.5 -58
q-15 -15 -35.5 -33t-44.5 -33t-49.5 -24.5t-49 -9t-43 14t-32.5 45.5q-15 40 -6 81t24 79q12 32 28.5 61.5t34.5 58.5q21 34 41 67.5t42 66.5q23 38 47.5 75t47.5 75q18 29 35 62.5t19 68.5q1 21 -6 35t-19.5 22t-29.5 11t-35 0q-39 -6 -74 -26t-64 -45q-40 -32 -75 -71
t-60 -84q-20 -38 -38 -83.5t-18 -88.5q1 -42 21 -66.5t64 -20.5q28 3 46 19.5t38 35.5q11 12 14 3.5t-2 -19.5q-7 -12 -16.5 -22t-18.5 -20q-24 -24 -50.5 -45t-62.5 -25q-36 -5 -61.5 14.5t-36.5 54.5q-15 45 -9 92.5t24.5 93t46.5 86.5t57 74q31 35 70.5 68t84.5 57.5
t93.5 38.5t96.5 11q42 -3 71.5 -27t37.5 -66q8 -45 -7 -85t-31 -80q-26 -68 -66.5 -129t-78.5 -123q-12 -19 -24 -37t-24 -38q-17 -30 -35.5 -63.5t-27.5 -68.5q-2 -11 -3 -26t6 -24q9 -12 26.5 -14t30.5 1q20 6 38.5 19t35 29.5t31 34t27.5 32.5q66 79 116.5 166.5
t102.5 176.5q23 42 48 83.5t49 83.5q8 14 14.5 26t14.5 24q8 17 20 35q6 9 8 11t12 3q12 1 27 2.5t29.5 1.5t28.5 -2t25 -9zM779 984q3 2 8 2t12 -5v-12v-75q0 -6 -4 -9t-9.5 -3t-9.5 3t-4 9v32q-18 -14 -43 -22q-35 -14 -70 -22q-15 0 -18 -1q-11 0 -12 1h1q-8 5 -9 12
t8 12q14 7 29 15t31 16q15 9 33 19t35 18z" />
    <glyph glyph-name="Ugrave" unicode="&#xd9;" horiz-adv-x="878" 
d="M927 779q2 -3 -2 -12t-9.5 -19.5t-11.5 -19.5t-7 -12q-5 -11 -11.5 -20.5t-13.5 -19.5q-15 -24 -30.5 -48t-29.5 -48q-50 -83 -97 -165t-89 -170q-10 -19 -18.5 -37.5t-16.5 -37.5q-3 -9 -9.5 -23t-11 -29t-4 -29t10.5 -22q11 -9 24 -6t26 11.5t24.5 18.5t18.5 16
q18 17 33.5 35t31.5 37l39 48q4 5 7.5 9.5t11.5 -2.5q7 -6 3.5 -11.5t-7.5 -10.5q-19 -23 -36.5 -47t-37.5 -46q-13 -14 -25.5 -28t-26.5 -28q-12 -13 -28 -27.5t-34 -26t-38 -18.5t-39 -4q-38 6 -52 31.5t-13.5 58.5t11 67.5t22.5 57.5q-28 -28 -53.5 -57t-52.5 -58
q-15 -15 -35.5 -33t-44.5 -33t-49.5 -24.5t-49 -9t-43 14t-32.5 45.5q-15 40 -6 81t24 79q12 32 28.5 61.5t34.5 58.5q21 34 41 67.5t42 66.5q23 38 47.5 75t47.5 75q18 29 35 62.5t19 68.5q1 21 -6 35t-19.5 22t-29.5 11t-35 0q-39 -6 -74 -26t-64 -45q-40 -32 -75 -71
t-60 -84q-20 -38 -38 -83.5t-18 -88.5q1 -42 21 -66.5t64 -20.5q28 3 46 19.5t38 35.5q11 12 14 3.5t-2 -19.5q-7 -12 -16.5 -22t-18.5 -20q-24 -24 -50.5 -45t-62.5 -25q-36 -5 -61.5 14.5t-36.5 54.5q-15 45 -9 92.5t24.5 93t46.5 86.5t57 74q31 35 70.5 68t84.5 57.5
t93.5 38.5t96.5 11q42 -3 71.5 -27t37.5 -66q8 -45 -7 -85t-31 -80q-26 -68 -66.5 -129t-78.5 -123q-12 -19 -24 -37t-24 -38q-17 -30 -35.5 -63.5t-27.5 -68.5q-2 -11 -3 -26t6 -24q9 -12 26.5 -14t30.5 1q20 6 38.5 19t35 29.5t31 34t27.5 32.5q66 79 116.5 166.5
t102.5 176.5q23 42 48 83.5t49 83.5q8 14 14.5 26t14.5 24q8 17 20 35q6 9 8 11t12 3q12 1 27 2.5t29.5 1.5t28.5 -2t25 -9zM762 838q2 -8 -2.5 -12.5t-12.5 -0.5l-26 15q-19 10 -41 26t-42.5 32t-35 30.5t-18.5 23.5q-5 11 -7 23t17 19q10 3 18.5 -0.5t16 -11t14.5 -16.5
t14 -17q26 -30 54 -56t51 -55z" />
    <glyph glyph-name="Ccedilla" unicode="&#xc7;" horiz-adv-x="595" 
d="M372 577q-9 -10 -16 -23t-10 -26.5t-1.5 -27.5t10.5 -26q17 -25 46 -26.5t53 10.5q27 13 48 35t36 49.5t23.5 58t9.5 59.5q1 27 -7.5 54t-31.5 44q-13 10 -28.5 14t-32 4.5t-33 -2t-31.5 -6.5q-63 -15 -112.5 -54t-87.5 -91q-42 -57 -74 -121t-51 -133q-7 -25 -12 -52.5
t-5 -55.5t5.5 -54.5t19.5 -49.5q17 -28 43 -42t56 -18t61.5 1t59.5 14q74 26 135.5 78t96.5 123q2 3 6 9.5t9 11t10 5t8 -6.5q2 -5 0.5 -12t-4 -14.5t-6 -14t-6.5 -10.5q-48 -72 -107 -136.5t-136 -107.5q-39 -22 -84 -35.5t-90 -11.5q9 -8 15 -19q8 -15 6 -34
q-3 -26 -28 -42.5t-54 -17.5q-16 0 -30 2.5t-27 6.5q-3 1 -10 3.5t-13 6.5t-11 8t-4 8q1 7 8.5 7t12.5 -2q10 -5 25 -7.5t29.5 -2t26.5 5t17 13.5q2 3 3.5 9.5t-1.5 13.5q-2 8 -11 10.5t-19.5 2.5t-21.5 -1t-18 -1q3 9 5.5 18.5t5.5 18.5q7 2 14 5q2 0 10 4q-30 13 -52 36
t-37 51t-23 59.5t-9 62.5q-2 66 16.5 130t50.5 122.5t74 111t89 96.5q50 47 107 86.5t123 62.5q24 8 51.5 13t54.5 3t51.5 -12t43.5 -31q22 -25 28.5 -56t2.5 -62.5t-16 -62.5t-27 -56q-15 -27 -34.5 -53t-43 -48.5t-50 -40t-56.5 -26.5q-29 -8 -57 -6t-51 23q-23 23 -26 55
t6 61q11 32 32.5 58.5t50.5 43.5q4 3 15.5 9t24 10t23.5 4t14 -9q4 -11 -6 -17.5t-18 -9.5q-14 -8 -27.5 -15.5t-24.5 -21.5z" />
    <glyph glyph-name="ccedilla" unicode="&#xe7;" horiz-adv-x="292" 
d="M370 247q-29 -39 -61 -78.5t-68 -74.5t-78 -62t-91 -39q-4 0 -7.5 -0.5t-7.5 0.5v-1q12 -7 19.5 -21.5t5.5 -33.5q-3 -26 -28 -42.5t-54 -17.5q-16 0 -30 2.5t-27 6.5q-3 1 -9.5 3.5t-13 6.5t-11.5 8t-4 8q2 7 9.5 7t12.5 -2q10 -5 24.5 -7.5t29 -2t26.5 5t17 13.5
q2 3 3.5 9.5t-0.5 13.5q-3 8 -11.5 10.5t-19.5 2.5t-22 -1t-18 -1q3 9 5.5 18.5t5.5 18.5q7 2 14 5q3 0 23 9q-20 13 -29 33t-10.5 42t3.5 45t14 44q22 54 56.5 103.5t78.5 87.5q24 20 50.5 37.5t56.5 28.5q13 4 30 8.5t34.5 6t34.5 -0.5t29 -9q15 -9 17.5 -21.5t-2 -25.5
t-13 -26t-15.5 -22l-5 -7.5t-7 -8.5t-9 -6t-9 0q-7 5 -6.5 16t0.5 16q0 8 -0.5 18.5t-3.5 19.5t-9.5 16t-17.5 7q-13 0 -26 -8t-24.5 -19.5t-21.5 -24.5t-17 -22q-43 -55 -77 -118q-14 -26 -29.5 -55t-18.5 -59q-2 -26 13.5 -45t43.5 -15q37 13 69.5 34.5t62 48.5t54.5 58
t47 63q1 3 5 9.5t8.5 13t9.5 11.5t10 4q8 0 8 -6t-4 -13t-9 -14t-6 -9z" />
    <glyph glyph-name="ring" unicode="&#x2da;" horiz-adv-x="47" 
d="M97 712q0 -15 -6.5 -28t-16.5 -23.5t-23 -17t-27 -6.5q-17 0 -30 6.5t-22.5 17t-15.5 23.5t-6 28q0 31 21 51.5t53 20.5q14 0 27 -5.5t23 -15t16.5 -23t6.5 -28.5zM66 711q0 19 -13 30.5t-30 11.5q-19 0 -31 -11.5t-12 -30.5q0 -17 12 -30.5t31 -13.5q9 0 16.5 3.5
t13.5 10t9.5 14t3.5 16.5z" />
    <glyph glyph-name="degree" unicode="&#xb0;" horiz-adv-x="72" 
d="M122 747q0 -17 -7.5 -32.5t-19 -27.5t-27 -19t-31.5 -7q-20 0 -35.5 7t-27 19t-18 27.5t-6.5 32.5q0 38 24.5 61.5t62.5 23.5q16 0 31.5 -6t27 -17.5t19 -27t7.5 -34.5zM97 747q0 27 -18.5 43.5t-42.5 16.5q-28 0 -45 -16.5t-17 -43.5q0 -25 17 -43.5t45 -18.5
q11 0 22.5 5t20 13.5t13.5 19.5t5 24z" />
    <glyph glyph-name="aring" unicode="&#xe5;" horiz-adv-x="432" 
d="M366 435h100q-42 -74 -82 -148t-85 -144q-4 -6 -12.5 -24t-13 -36t-1 -30t23.5 -6q28 16 49.5 39t40 49.5t36.5 53t39 49.5q8 8 13 6t7 -4q0 -1 -5 -9q-27 -32 -51 -69t-51.5 -71t-60.5 -60t-77 -36q-23 -1 -34 10t-15 28t-3.5 36t2.5 35q-11 -12 -28.5 -29.5
t-38.5 -35.5t-43.5 -32.5t-44 -19t-40 4t-30.5 36.5t-11 56.5t10 56.5t23.5 54t29.5 49q33 50 76.5 91t95.5 70q18 10 41.5 19.5t46 11.5t41.5 -7t29 -36q6 11 12 21t11 21zM234 207q3 6 14.5 23t24.5 39t24.5 47t16 46t-0.5 35t-27 16q-16 -3 -31.5 -12.5t-30.5 -23
t-28 -28t-25 -27.5q-24 -32 -47 -66t-43 -69l-15 -27.5t-16 -34.5t-9.5 -35.5t5.5 -30.5q7 -13 18.5 -15t23.5 2t23.5 11.5t18.5 14.5q31 29 57 63t47 72zM435 588q0 -15 -6.5 -28t-16.5 -23.5t-23 -17t-27 -6.5q-17 0 -30 6.5t-22.5 17t-15.5 23.5t-6 28q0 31 21 51.5
t53 20.5q14 0 27 -5.5t23 -15t16.5 -23t6.5 -28.5zM404 587q0 19 -13 30.5t-30 11.5q-19 0 -31 -11.5t-12 -30.5q0 -17 12 -30.5t31 -13.5q9 0 16.5 3.5t13.5 10t9.5 14t3.5 16.5z" />
    <glyph glyph-name="Aring" unicode="&#xc5;" horiz-adv-x="1127" 
d="M627 367q-16 0 -25.5 -1t-15.5 -4.5t-10.5 -9t-11.5 -14.5q-24 -29 -47.5 -59.5t-47.5 -59.5q-47 -55 -96 -107t-106 -96q-44 -31 -98 -45.5t-107 6.5q-51 20 -77.5 63.5t-32.5 94.5q-5 56 1.5 113.5t31.5 108.5q13 28 30.5 54.5t37.5 49.5q20 22 42 41.5t46 36.5
q19 14 44.5 27t53.5 20t56 6t52 -13t39 -31.5t22.5 -43t7.5 -49.5t-4 -51q-5 -28 -18 -52t-32 -45q-2 -2 -8 -9.5t-14 -14t-16 -9.5t-13 4q-3 5 -1 12t7 14.5t11 15t9 13.5q8 16 14.5 34t8.5 35q4 27 -2 51.5t-28 43.5q-21 17 -39 24t-44 7q-31 -1 -54 -8.5t-48 -23.5
q-49 -32 -80.5 -84.5t-42.5 -108.5q-5 -26 -5.5 -53t5.5 -52.5t18.5 -49t34.5 -41.5t47.5 -24.5t51 -3.5t51 13.5t47.5 24.5q51 34 93 73.5t84 84.5q20 23 39.5 45.5t38.5 45.5l1 1h-27q-8 0 -13.5 4t-5.5 9v18q0 5 5.5 9.5t13.5 4.5h67q18 20 36.5 42t36.5 44
q60 77 124 150.5t142 131.5q30 23 64.5 40t72.5 19q17 2 35 0.5t32 -11.5q17 -11 23.5 -30.5t3.5 -39.5q-4 -27 -14 -51t-23 -47t-28 -44.5t-28 -43.5l-95 -154l-149 -241q-20 -32 -39 -66t-32 -69q-3 -13 -5 -21.5t-6 -13t-11 -6t-20 -1.5q-23 1 -45.5 0.5t-45.5 -0.5
q4 35 18.5 68.5t32.5 64.5q27 45 53.5 89.5t52.5 89.5l36 55h-163zM774 412q21 1 38 7.5t28 23.5l61 98q23 36 45.5 72t45.5 73q4 8 12 19.5t15.5 24t12.5 24t4 19.5q-3 16 -17.5 18.5t-32 -2t-33.5 -13t-23 -14.5q-44 -29 -80 -68.5t-68 -78.5q-42 -50 -80 -100.5
t-75 -102.5h147zM1178 916q0 -15 -6.5 -28t-16.5 -23.5t-23 -17t-27 -6.5q-17 0 -30 6.5t-22.5 17t-15.5 23.5t-6 28q0 31 21 51.5t53 20.5q14 0 27 -5.5t23 -15t16.5 -23t6.5 -28.5zM1147 915q0 19 -13 30.5t-30 11.5q-19 0 -31 -11.5t-12 -30.5q0 -17 12 -30.5t31 -13.5
q9 0 16.5 3.5t13.5 10t9.5 14t3.5 16.5z" />
    <glyph glyph-name="oe" unicode="&#x153;" horiz-adv-x="571" 
d="M311 80q3 -23 16 -30.5t30 -5.5t35 10t30 16q28 17 56.5 44.5t53.5 56t45.5 53.5t32.5 38q7 8 9.5 3.5t0.5 -12.5q-5 -15 -20 -36.5t-36 -45.5t-45.5 -49t-48.5 -46t-44.5 -37t-33.5 -23q-19 -11 -43.5 -17.5t-48 -5.5t-44 12t-32.5 35q-2 5 -4 10.5t-3 11.5
q-35 -33 -71 -52.5t-65 -19.5q-33 0 -60 8t-50 35q-20 22 -20.5 53t4.5 58q17 77 65.5 138t111.5 106q18 12 41 24.5t47.5 20.5t50 9t47.5 -8q25 -11 37.5 -28.5t16.5 -40.5q11 9 23.5 17t25.5 16q26 17 54 28t59 16q19 4 40.5 2t32.5 -21q9 -14 8.5 -29.5t-6.5 -30.5
t-15.5 -28t-19.5 -23q-24 -26 -54.5 -45t-62.5 -33q-17 -7 -33.5 -12.5t-33.5 -10.5q-10 -2 -24 -3t-21 -9q-8 -8 -13 -24t-10 -27q-6 -16 -10 -33.5t-1 -34.5zM37 33q17 -9 40.5 1t49 32t52 53.5t50 66.5t42 70.5t27.5 66t7 53t-18 30.5q-17 7 -48 -11.5t-66 -53
t-69.5 -78.5t-56.5 -88t-27.5 -82.5t17.5 -59.5zM360 230q35 2 63 22t54 43q14 11 25.5 23.5t19.5 26.5q7 11 15 27.5t6 29.5q-1 17 -13.5 14t-27.5 -13.5t-28.5 -23.5t-16.5 -17q-28 -30 -52 -63.5t-45 -68.5z" />
    <glyph glyph-name="sterling" unicode="&#xa3;" horiz-adv-x="934" 
d="M458 228q-20 -35 -42 -67.5t-56 -53.5q23 -9 45 -17t45 -16q24 -9 47.5 -17t49.5 -12q18 -2 37 -1t33 13q5 4 11 12t15 6q8 -2 8 -7.5t-4 -10.5q-6 -15 -17 -25.5t-25.5 -17.5t-30 -11.5t-28.5 -7.5q-23 -5 -47 -3.5t-48.5 6.5t-48.5 12.5t-45 14.5q-17 5 -34 15.5
t-35 11.5q-11 0 -20 -5t-19 -10q-21 -10 -46 -16q-21 -6 -43.5 -11.5t-45.5 -8t-46.5 -1.5t-45.5 8q-15 5 -32 15.5t-28 24.5t-12 30.5t16 33.5q29 29 71 38.5t80 10.5q26 1 53 -4t53 -13q9 -2 19.5 -7t20.5 -3q11 2 16 11t10 17q11 17 22 33t21 33h-30q-8 0 -13 4t-5 9v16
q0 5 5 9t13 4h55q11 20 22.5 39.5t22.5 40.5q-44 1 -87.5 9t-78.5 37q-32 28 -45.5 69.5t-10.5 83.5q4 40 22.5 75t46 63.5t61.5 50.5t70 36q28 11 66 15t76 -12q5 -5 7.5 -11.5t1.5 -12t-5.5 -9t-13.5 -2.5q-9 0 -17.5 6t-17.5 9q-11 4 -22.5 4t-22.5 -2q-38 -5 -70.5 -27
t-56 -54.5t-35.5 -71t-9 -74.5q3 -38 22.5 -69.5t51.5 -51.5q13 -10 29.5 -16t33.5 -7q21 0 31.5 11t20.5 28q45 86 99 163.5t126 141.5q32 29 68.5 53.5t78.5 40.5q15 5 33.5 9.5t38 5t37.5 -3.5t32 -16q19 -18 20.5 -43.5t-7.5 -52.5t-23.5 -51.5t-26.5 -40.5
q-56 -76 -134.5 -139t-168.5 -98q-20 -8 -42.5 -13.5t-38.5 -21.5q-19 -19 -33.5 -42.5t-28.5 -48.5h69q8 0 13.5 -4t5.5 -9v-16q0 -5 -5.5 -9t-13.5 -4h-91zM575 417q26 10 51 21t46 28q26 17 49 37l46 40q38 35 71 75.5t59 88.5q9 15 18.5 36t5.5 41q-3 12 -12 18
t-19.5 6.5t-22 -2.5t-20.5 -7q-22 -11 -40 -27.5t-34 -37t-30.5 -42t-27.5 -40.5q-38 -58 -71.5 -116.5t-68.5 -118.5zM214 90q-32 15 -68.5 25.5t-73.5 5.5q-10 -2 -22 -6t-21 -10.5t-13.5 -17t0.5 -23.5q4 -11 13 -16.5t20.5 -7.5t23 -2t22.5 1q34 3 64.5 15.5t54.5 35.5z
" />
    <glyph glyph-name="ae" unicode="&#xe6;" horiz-adv-x="761" 
d="M366 435h100q-42 -74 -82 -148t-85 -144q-4 -6 -12.5 -24t-13 -36t-1 -30t23.5 -6q28 16 49.5 39t40 49.5l37 53t39.5 49.5q8 8 12.5 6t6.5 -4l-4 -9q-27 -32 -51.5 -69t-52 -71t-60.5 -60t-76 -36q-23 -1 -34.5 10t-15.5 28t-3 36t3 35q-11 -12 -29 -29.5t-38.5 -35.5
t-43.5 -32.5t-44 -19t-39.5 4t-30.5 36.5t-11.5 56.5t9.5 56.5t23.5 54t29.5 49q33 50 77 91t95 70q18 10 41.5 19.5t46 11.5t41.5 -7t29 -36q7 11 12.5 21t10.5 21zM234 207q3 6 14.5 23t24.5 39t24.5 47t16.5 46t-0.5 35t-26.5 16q-17 -3 -32.5 -12.5t-30 -23t-28 -28
t-24.5 -27.5q-25 -32 -47.5 -66t-42.5 -69l-15 -27.5t-16 -34.5t-9.5 -35.5t4.5 -30.5t18.5 -15t23.5 2t23.5 11.5t18.5 14.5q31 29 57 63t47 72zM501 80q3 -23 16 -30.5t30 -5.5t35 10t30 16q28 17 56.5 44.5t53.5 56t45.5 53.5t32.5 38q7 8 9.5 3.5t0.5 -12.5
q-5 -15 -20 -36.5t-36 -45.5t-45.5 -49t-48.5 -46t-44.5 -37t-33.5 -23q-19 -11 -43.5 -17.5t-48 -5.5t-44 12t-32.5 35q-10 21 -10.5 45t4.5 48t14.5 46.5t20.5 42.5q29 56 71.5 100t96.5 76q26 17 54 28t59 16q19 4 40.5 2t32.5 -21q9 -14 8.5 -29.5t-6.5 -30.5t-15.5 -28
t-19.5 -23q-24 -26 -54.5 -45t-62.5 -33q-17 -7 -33.5 -12.5t-33.5 -10.5q-10 -2 -24 -3t-21 -9q-8 -8 -13 -24t-10 -27q-6 -16 -10 -33.5t-1 -34.5zM550 230q35 2 63 22t54 43q14 11 25.5 23.5t19.5 26.5q7 11 15 27.5t6 29.5q-1 17 -13.5 14t-27.5 -13.5t-28.5 -23.5
t-16.5 -17q-28 -30 -52 -63.5t-45 -68.5z" />
    <glyph glyph-name="oslash" unicode="&#xf8;" horiz-adv-x="357" 
d="M370 415q27 -26 26.5 -67.5t-19 -88.5t-51 -95.5t-71 -87t-79 -62.5t-73.5 -24q-32 0 -56 7l-38 -50q-5 -5 -11.5 -7t-9.5 1l-13 9q-4 3 -4 10t5 12l34 45q-8 5 -17 16q-10 11 -14.5 25t-5.5 28.5t0.5 29t3.5 28.5q18 77 66 138t111 106q17 12 39 23.5t46 19.5t48.5 10.5
t46.5 -4.5l21 26q5 6 11.5 7.5t10.5 -1.5l13 -8q4 -4 3 -11t-6 -13zM309 406q-15 7 -42.5 -8.5t-59 -44.5t-63.5 -68t-56.5 -79.5t-37.5 -78.5t-6 -66l266 344q-1 0 -1 1zM72 29q20 -2 46.5 14.5t54 44.5t54.5 64t48.5 73t35.5 72.5t16 61.5z" />
    <glyph glyph-name="Oslash" unicode="&#xd8;" horiz-adv-x="663" 
d="M664 799q10 -14 15.5 -30.5t7.5 -33.5q6 -39 2 -78.5t-14.5 -78.5t-25.5 -76.5t-32 -71.5q-29 -62 -62.5 -119t-77.5 -110q-24 -31 -51 -60t-57.5 -54.5t-64.5 -46t-72 -33.5q-35 -11 -78.5 -14.5t-80.5 8.5q-8 1 -19 7l-49 -63q-5 -6 -11.5 -8t-9.5 1l-13 9q-9 9 1 23
l48 62q-32 29 -47 62t-19.5 70t-1 75t15 74.5t27.5 68.5q39 77 91 148t118 128q26 23 51.5 44t54.5 40q4 2 14 7.5t21 10t20 5t11 -7.5q1 -5 -4.5 -10t-9.5 -7q-11 -9 -24 -17t-24 -16q-32 -26 -58 -56t-49 -62q-26 -33 -48.5 -69t-39.5 -75q-14 -30 -26.5 -64t-20 -69
t-8.5 -70.5t9 -69.5q8 -25 23 -41l186 241q-13 11 -22.5 25.5t-15.5 29.5q-13 34 -8 72.5t18 72.5q15 38 39 71t51 63t57 55.5t65 45.5q33 19 73 30t78 0q5 -2 9 -4t8 -5l41 53q5 5 11.5 7t10.5 -1l13 -9q4 -4 3 -11t-6 -12zM336 352q-5 0 -15 2l-194 -251q41 -26 92.5 -26
t92.5 26q48 30 101 90t98.5 133.5t77 152t34.5 147.5q2 26 -1 52.5t-13 49.5l-242 -313q33 -11 73 0q26 8 46.5 23.5t41.5 30.5q3 -14 3.5 -20.5t-9.5 -16.5q-8 -7 -15.5 -12.5t-15.5 -12.5q-36 -26 -73 -40.5t-82 -14.5zM333 439l251 324q-22 21 -58 22q-38 1 -72 -17
t-61 -46.5t-46.5 -63.5t-28.5 -68q-9 -35 -9.5 -73.5t19.5 -69.5z" />
    <glyph glyph-name="plusminus" unicode="&#xb1;" horiz-adv-x="309" 
d="M172 495h160q8 0 13.5 -4t5.5 -9v-16q0 -5 -5.5 -9t-13.5 -4h-160v-162q0 -8 -3.5 -13.5t-8.5 -5.5h-16q-5 0 -9 5.5t-4 13.5v162h-163q-8 0 -13 4t-5 9v16q0 5 5 9t13 4h163v159q0 8 4 13.5t9 5.5h16q5 0 8.5 -5.5t3.5 -13.5v-159zM-32 120q-8 0 -13 3.5t-5 8.5v16
q0 5 5 9.5t13 4.5h372q8 0 13.5 -4.5t5.5 -9.5v-16q0 -5 -5.5 -8.5t-13.5 -3.5h-372z" />
    <glyph glyph-name="dagger" unicode="&#x2020;" horiz-adv-x="427" 
d="M335 598l-327 -571q-5 -9 -14 -16t-17 -5h-15q-9 0 -11.5 9.5t2.5 20.5l324 564q-21 1 -42.5 2t-42.5 2q-12 1 -17.5 8t1.5 17l-1 -1q2 4 4 7t4 7q5 7 15.5 13.5t18.5 5.5q24 -1 46 -2.5t46 -1.5l93 160v-1q4 9 14.5 16.5t15.5 6.5h15q11 -2 12.5 -11t-3.5 -21l-88 -152
l89 -3q11 0 16.5 -8.5t-0.5 -17.5l1 1l-7 -14q-5 -8 -15 -13t-20 -5z" />
    <glyph glyph-name="daggerdbl" unicode="&#x2021;" horiz-adv-x="424" 
d="M254 473q-61 -109 -122 -216.5t-122 -216.5q-6 -10 -15 -16t-15 -5h-15q-10 0 -13.5 9t3.5 21h-1l241 426q-21 1 -41.5 2t-41.5 2q-13 0 -18.5 7.5t-0.5 16.5l9 14q5 8 14.5 13.5t18.5 5.5l92 -4l47 81q-22 1 -42.5 2.5t-40.5 1.5q-14 0 -19 8t1 18l-1 -1l8 13q5 8 15 14
t18 6l94 -4l90 159v-1q3 9 13 16t17 8h16q10 -1 11.5 -11t-3.5 -22l-86 -151l87 -3q14 -2 19.5 -9.5t-0.5 -16.5l1 1l-8 -14q-5 -8 -15 -14t-19 -5l-98 4q-12 -23 -22 -40.5t-23 -41.5l88 -3q12 -2 17.5 -9t0.5 -16l-9 -16q-4 -7 -13 -12t-19 -4z" />
    <glyph glyph-name="germandbls" unicode="&#xdf;" horiz-adv-x="579" 
d="M32 -49q-12 -1 -20.5 -0.5l-17 1t-18.5 0t-26 -4.5l256 466q21 41 43 86t44 85.5t45.5 72.5t47.5 48q33 21 64 31t60 10q45 0 77 -24q20 -15 31 -38.5t11 -55.5q0 -44 -23 -98q-17 -36 -42 -61t-52 -41.5t-53.5 -25t-48.5 -10.5l27 -4q19 -11 30.5 -39t11.5 -66
q0 -26 -6.5 -55.5t-20.5 -57.5q-5 -14 -12 -27.5t-16 -25.5l-32 -40q-38 -42 -78.5 -59.5t-76.5 -17.5q-41 0 -80 22v40q7 -4 22 -10t23 -6q17 0 38.5 9t44 28t44.5 48.5t39 70.5q25 56 25 100q0 34 -16.5 57.5t-48.5 32.5l16 34q18 0 42 8.5t48 24.5t46 39.5t37 53.5
q14 26 21.5 51t7.5 45q0 22 -9 36t-24 18q-12 4 -25 0.5t-26 -12t-26 -20t-25 -24.5q-26 -26 -50 -63.5t-41 -75.5z" />
    <glyph glyph-name="bracketleft" unicode="[" horiz-adv-x="517" 
d="M-50 -1l406 828h211l-20 -47h-128l-359 -733h127l-20 -48h-217z" />
    <glyph glyph-name="bracketright" unicode="]" horiz-adv-x="517" 
d="M567 827l-405 -828h-212l20 48h128l359 733h-126l19 47h217z" />
    <glyph glyph-name="yen" unicode="&#xa5;" horiz-adv-x="497" 
d="M359 407q-26 -45 -52 -89t-59 -82q-35 -45 -84.5 -75t-106.5 -33q-12 -1 -25.5 -1t-26.5 3t-24.5 9t-19.5 16q-14 19 -10 44.5t27 36.5q11 6 21.5 2.5t16.5 -11.5t6.5 -19t-7.5 -21q-3 -4 -7 -8t-4 -9q0 -7 5 -12t10 -8q12 -6 24.5 -6t24.5 3q28 7 51 23t41.5 37t34.5 45
t31 47q16 27 33 53.5t34 54.5h-1q-12 -14 -26 -27.5t-28 -26.5q-19 -17 -41 -33t-48 -18q-20 -3 -33.5 5.5t-18.5 28.5q-5 18 -2 36t10 35h-43q-10 0 -10 7v9q0 7 10 7h53q10 17 21 33.5l21 31.5l1 2h-51q-10 0 -10 7v8q0 7 10 7h66q14 19 27 37.5t26 38.5q16 24 31.5 50
t19.5 54q3 11 -0.5 22.5t-14.5 16.5q-11 4 -22.5 3t-23.5 -4q-28 -8 -51 -23t-43 -38q-21 -24 -28.5 -47t-1.5 -55q2 -9 -2.5 -13.5t-9.5 -1.5t-9 16t-1 41q4 50 41 83t88 49q22 7 52 9t49 -11q23 -18 24 -46.5t-7 -53.5q-9 -29 -24.5 -54t-30.5 -49l-17 -24h113
q28 42 53 85t51 88q9 16 14 23t10.5 9t13.5 2t23 1q19 2 22.5 -3.5t-1 -15t-13 -20.5t-13.5 -21q-21 -38 -43.5 -74.5t-46.5 -73.5h40q3 0 6 -2t3 -5v-8q0 -3 -3 -5t-6 -2h-54q-8 -13 -16 -25.5t-16 -25.5q-2 -5 -5 -8.5t-5 -7.5h51q10 0 10 -7v-9q0 -7 -10 -7h-64zM343 497
h-113q-11 -15 -20.5 -29.5t-17.5 -29.5l-6 -8h105q9 11 18 21.5t17 21.5zM271 407h-98l-7 -17q-5 -11 -7.5 -24t8.5 -23q9 -8 20.5 -5t23 10.5t21.5 17.5l16 16z" />
    <glyph glyph-name="hungarumlaut" unicode="&#x2dd;" horiz-adv-x="353" 
d="M-45 547q33 19 69 32t71 30q9 5 19 11t20 10t19.5 4t17.5 -7q15 -14 8.5 -24.5t-15.5 -18.5q-7 -6 -26.5 -14t-44 -15t-51 -13t-47.5 -9l-30 -4q-9 0 -12 6t2 12zM177 547q34 19 70 32t70 30q9 5 19.5 11t20 10t19 4t17.5 -7q7 -7 9 -13t0 -11.5t-6.5 -10l-8.5 -8.5
q-8 -6 -27.5 -14t-44 -15t-51 -13t-47.5 -9l-30 -4q-9 0 -12 6t2 12z" />
    <glyph glyph-name="D" unicode="D" horiz-adv-x="947" 
d="M483 453q38 63 83.5 121t108.5 96q16 9 32 17.5t34 14.5q15 5 35 10.5t36 0.5q18 -5 17 -15.5t-19 -14.5q-35 -8 -63 -35q-26 -24 -44.5 -53.5t-35.5 -60.5q-21 -35 -39.5 -72t-38.5 -75q-20 -39 -41 -78.5t-46 -76.5q-26 -38 -56 -70.5t-62 -66.5q35 -18 73 -29.5
t77 -13.5t76.5 7.5t71.5 32.5q62 43 103 108.5t67 135.5q17 47 30 104t12.5 114t-19.5 108t-65 86q-32 24 -69 35.5t-76.5 13t-79 -4.5t-75.5 -16q-74 -22 -137 -65.5t-106 -107.5q-13 -19 -24.5 -43.5t-18.5 -50.5t-7 -52t11 -48q14 -29 44.5 -39.5t61.5 -2.5
q17 4 30.5 12.5t28.5 18.5q5 3 11.5 4.5t11 0t6.5 -6t-1 -12.5q-5 -11 -15.5 -21t-23 -18.5t-25 -15.5t-22.5 -12q-29 -15 -61.5 -22t-64.5 0q-38 9 -59 33.5t-29 56.5t-4.5 67.5t14.5 66.5q24 67 69.5 121t104 93.5t126 64.5t135.5 34q63 9 128.5 2.5t123.5 -32t103 -70
t66 -111.5q22 -70 18.5 -142.5t-28 -140.5t-67 -127.5t-99.5 -102.5q-65 -50 -144 -79.5t-160 -31.5q-45 -2 -85.5 8t-83.5 19q-20 5 -39.5 5.5t-39.5 -5.5q-23 -5 -43.5 -12t-43.5 -12q-42 -9 -85 -10.5t-83 15.5q-15 6 -27.5 16.5t-19.5 23t-7 27.5t12 30q11 14 26.5 22.5
t32.5 13.5t35 7t35 2q25 0 49.5 -6.5t49 -12.5t50.5 -7.5t55 8.5zM208 62q-30 11 -59.5 24t-61.5 14q-8 0 -18 -0.5t-19 -3t-16 -8t-9 -15.5q-2 -12 3.5 -19.5t14.5 -12.5t20 -7.5t20 -3.5q32 -2 64 7.5t61 24.5z" />
    <glyph glyph-name="B" unicode="B" horiz-adv-x="920" 
d="M617 412q-28 -59 -61.5 -117t-75 -110t-92.5 -93t-115 -65q-30 -12 -66.5 -22t-73.5 -13t-72.5 3t-65.5 27q-25 16 -37 42.5t-5 55.5q3 13 11 25t18.5 20.5t23.5 12t27 -0.5q12 -4 19.5 -12.5t11 -19.5t2.5 -23t-6 -22q-6 -11 -16 -20t-4 -23t22 -19.5t30 -7.5
q37 -6 70.5 2.5t63 27.5t55 44t46.5 52q43 54 78 114.5t69.5 121t73 117.5t89.5 105q31 29 66 51t76 36q6 1 14.5 4t17.5 4.5t17.5 1.5t14.5 -4q7 -5 6 -10t-5.5 -9.5t-11 -8.5t-10.5 -7q-53 -33 -90.5 -83.5t-69.5 -106.5q-11 -17 -23 -35t-22 -35zM830 352
q20 -25 30.5 -55.5t12 -62t-6 -63t-23.5 -59.5t-39.5 -49t-52 -35t-60 -22t-62.5 -9q-38 -1 -75.5 8t-70.5 30q-12 8 -22.5 17t-17.5 23q-5 8 -5.5 21t13.5 14q8 0 15.5 -6t14 -14t12.5 -16.5t11 -12.5q25 -20 59.5 -20t62.5 11q30 11 55 31t44.5 45.5t32.5 55t18 60.5
q5 32 -1 65t-30 58q-22 24 -58 30q-4 1 -12.5 1.5t-17 2.5t-15 5.5t-6.5 10.5q0 8 7 11.5t16.5 5t18.5 1t14 -0.5q19 1 36.5 5.5t34.5 12.5q64 30 104 89q18 26 28.5 56.5t10.5 61t-13 58t-41 48.5q-26 19 -56.5 28.5t-62.5 12.5t-64.5 0.5t-61.5 -7.5q-72 -13 -138.5 -45.5
t-121.5 -80.5q-45 -39 -77.5 -92t-40.5 -113q-2 -23 1.5 -46t20.5 -40q11 -11 25.5 -15.5t30 -5.5t31 2t29.5 9q14 5 24 13.5t21 18.5q3 2 8 7t11.5 9t12.5 5.5t10 -4.5q5 -8 -1.5 -18.5t-17 -20.5t-21.5 -18.5t-15 -11.5q-24 -17 -53 -31.5t-59.5 -19t-59.5 3t-53 33.5
q-19 21 -27 48.5t-8 56t7 57t18 52.5q29 60 78 106.5t105 80.5q55 34 119 58.5t130.5 36t133.5 7t129 -28.5q56 -22 96.5 -64.5t46.5 -105.5q4 -32 -4 -61.5t-24.5 -54.5t-40 -45t-51.5 -34q-29 -15 -62.5 -27.5t-67.5 -12.5q24 -7 42.5 -23t35.5 -32z" />
    <glyph glyph-name="C" unicode="C" horiz-adv-x="457" 
d="M372 577q-9 -10 -16 -23t-10 -26.5t-1.5 -27.5t10.5 -26q17 -25 46 -26.5t53 10.5q27 13 48 35t36 49.5t23.5 58t9.5 59.5q1 27 -7.5 54t-31.5 44q-13 10 -28.5 14t-32 4.5t-33 -2t-31.5 -6.5q-63 -15 -112.5 -54t-87.5 -91q-42 -57 -74 -121t-51 -133q-7 -25 -12 -52.5
t-5 -55.5t5.5 -54.5t19.5 -49.5q17 -28 43 -42t56 -18t61.5 1t59.5 14q74 26 135.5 78t96.5 123q2 3 6 9.5t9 11t10 5t8 -6.5q2 -5 0.5 -12t-4 -14.5t-6 -14t-6.5 -10.5q-48 -72 -107 -136.5t-136 -107.5q-27 -15 -57.5 -26.5t-62 -17t-63 -3t-61.5 15.5t-52 36t-37 51
t-23 59.5t-9 62.5q-2 66 16.5 130t50.5 122.5t74 111t89 96.5q50 47 107 86.5t123 62.5q24 8 51.5 13t54.5 3t51.5 -12t43.5 -31q22 -25 28.5 -56t2.5 -62.5t-16 -62.5t-27 -56q-15 -27 -34.5 -53t-43 -48.5t-50 -40t-56.5 -26.5q-29 -8 -57 -6t-51 23q-23 23 -26 55t6 61
q11 32 32.5 58.5t50.5 43.5q4 3 15.5 9t24 10t23.5 4t14 -9q4 -11 -6 -17.5t-18 -9.5q-14 -8 -27.5 -15.5t-24.5 -21.5z" />
    <glyph glyph-name="A" unicode="A" horiz-adv-x="890" 
d="M627 367q-16 0 -25.5 -1t-15.5 -4.5t-10.5 -9t-11.5 -14.5q-24 -29 -47.5 -59.5t-47.5 -59.5q-47 -55 -96 -107t-106 -96q-44 -31 -98 -45.5t-107 6.5q-51 20 -77.5 63.5t-32.5 94.5q-5 56 1.5 113.5t31.5 108.5q13 28 30.5 54.5t37.5 49.5q20 22 42 41.5t46 36.5
q19 14 44.5 27t53.5 20t56 6t52 -13t39 -31.5t22.5 -43t7.5 -49.5t-4 -51q-5 -28 -18 -52t-32 -45q-2 -2 -8 -9.5t-14 -14t-16 -9.5t-13 4q-3 5 -1 12t7 14.5t11 15t9 13.5q8 16 14.5 34t8.5 35q4 27 -2 51.5t-28 43.5q-21 17 -39 24t-44 7q-31 -1 -54 -8.5t-48 -23.5
q-49 -32 -80.5 -84.5t-42.5 -108.5q-5 -26 -5.5 -53t5.5 -52.5t18.5 -49t34.5 -41.5t47.5 -24.5t51 -3.5t51 13.5t47.5 24.5q51 34 93 73.5t84 84.5q20 23 39.5 45.5t38.5 45.5l1 1h-27q-8 0 -13.5 4t-5.5 9v18q0 5 5.5 9.5t13.5 4.5h67q18 20 36.5 42t36.5 44
q60 77 124 150.5t142 131.5q30 23 64.5 40t72.5 19q17 2 35 0.5t32 -11.5q17 -11 23.5 -30.5t3.5 -39.5q-4 -27 -14 -51t-23 -47t-28 -44.5t-28 -43.5l-95 -154l-149 -241q-20 -32 -39 -66t-32 -69q-3 -13 -5 -21.5t-6 -13t-11 -6t-20 -1.5q-23 1 -45.5 0.5t-45.5 -0.5
q4 35 18.5 68.5t32.5 64.5q27 45 53.5 89.5t52.5 89.5l36 55h-163zM774 412q21 1 38 7.5t28 23.5l61 98q23 36 45.5 72t45.5 73q4 8 12 19.5t15.5 24t12.5 24t4 19.5q-3 16 -17.5 18.5t-32 -2t-33.5 -13t-23 -14.5q-44 -29 -80 -68.5t-68 -78.5q-42 -50 -80 -100.5
t-75 -102.5h147z" />
    <glyph glyph-name="one" unicode="1" 
d="M889 383q0 -2 -0.5 -8t-1 -12.5t-1.5 -12.5t-1 -9q-1 -9 -3.5 -18t-4.5 -18q-17 -61 -51.5 -111.5t-81.5 -87t-105 -57t-122 -20.5q-79 0 -148 30.5t-118.5 82.5t-77.5 122t-26 149q2 0 2 3q1 47 14 90t38 83q8 14 20.5 31.5t28 34t31.5 30.5t31 21l1 3h3l2 2
q2 2 4.5 2.5t4.5 2.5q5 3 9 5.5t8 5.5q10 6 22 10.5t23 9.5q31 12 63 17.5t65 5.5q72 0 139.5 -26.5t119.5 -77.5q18 -18 33.5 -37t28.5 -41q4 -6 7 -13.5t6 -14.5q3 -5 5.5 -8.5t3.5 -8.5q6 -12 9.5 -24t7.5 -25q7 -29 9.5 -54.5t2.5 -56.5zM713 565q-26 -2 -52.5 -1.5
t-53.5 0.5h-20q-9 -27 -16 -54.5t-16 -54.5q4 -1 8.5 -0.5t9.5 0.5q7 0 10 -2v-243h109v119h83q6 25 14 49.5t14 49.5h-111q1 4 0.5 8t-0.5 8v5t2 4h92q7 30 16.5 59.5t16.5 59.5h-104q-3 -2 -2 -7zM248 560q-7 -26 -15 -52.5t-14 -52.5q4 -1 8.5 -0.5t9.5 0.5h4.5t4.5 -2
v-243h109v94v16t2 16q10 -1 20.5 -0.5t21.5 0.5h12t13 -1v-123q11 -2 21.5 -2h20.5q17 0 33.5 0.5t33.5 -0.5v354q-17 -1 -33.5 -0.5t-33.5 0.5q-21 0 -42 -2v-114h-69q0 17 0.5 35t0.5 36q0 22 -2 45h-103q-2 0 -2 -1.5t-1 -2.5zM260 -90h-19v41h-4l5 18h21l1 2h17l-5 -21
h-16v-4h19l-6 -17h-13v-19zM288 -49h-5l5 18h18v-32q0 -10 6 -10t6 10v32h18v-34q0 -26 -24 -26t-24 26v16zM363 -72h12l-6 -18h-24v41h-6l6 18h18v-41zM399 -72h12l-6 -18h-24v41h-5l5 18h18v-41zM488 -31l-19 -59h-17l-21 59h20l9 -28l9 28h19zM525 -90h-34v41h-4l5 18h21
l1 2h17l-5 -21h-16v-3h20l-4 -15h-16v-3h21zM556 -77v-13h-18v41h-5l5 18h18q8 0 12 -1t9 -4q7 -7 7 -17q0 -12 -10 -19l12 -18h-22zM559 -49h-3v-10h3q6 0 6 5t-6 5zM618 -29l16 -3l-6 -18q-8 3 -13 3q-4 0 -4 -2t3.5 -3t8 -2.5t8.5 -5.5t4 -11q0 -10 -6.5 -15t-17.5 -5
q-9 0 -19 5l4 18q4 -2 8.5 -4t6.5 -2q5 0 5 3q0 2 -4 3.5t-8.5 3t-8.5 5t-4 10.5q0 8 5.5 13t13.5 5q4 0 7 -1zM660 -31v-59h-18v41h-5l5 18h18zM696 -31q13 0 21.5 -9t8.5 -21t-8.5 -21t-21.5 -9q-14 0 -22 9t-8 21t8.5 21t21.5 9zM707 -61q0 5 -3 8.5t-8 3.5q-6 0 -9 -3.5
t-3 -8.5t3 -8.5t9 -3.5q5 0 8 3.5t3 8.5zM751 -64v-26h-18v41h-5l5 18h18l13 -22v22h19v-59h-16zM139 -132q13 0 21.5 -9t8.5 -22q0 -12 -8.5 -21t-21.5 -9q-14 0 -22 9.5t-8 21.5t8.5 21t21.5 9zM150 -163q0 12 -11 12q-12 0 -12 -12q0 -11 12 -11q11 0 11 11zM194 -166
v-26h-18v41h-5l6 18h17l13 -22v22h19v-59h-16zM273 -133v-19h12v19h18v-59h-18v21h-12v-21h-18v41h-4l5 18h17zM346 -192h-34v41h-4l5 18h21v2h18l-6 -20h-16v-4h21l-4 -14h-17v-4h21zM378 -178v-14h-19v41h-5l6 18h18q14 0 19 -5q8 -6 8 -17q0 -13 -9 -19l10 -18h-21z
M381 -151h-3v-10h2q7 0 7 5t-6 5zM442 -132q13 0 21.5 -9t8.5 -22q0 -12 -8.5 -21t-21.5 -9q-14 0 -22.5 9.5t-8.5 21.5t8.5 21t22.5 9zM454 -163q0 5 -3.5 8.5t-8.5 3.5q-12 0 -12 -12q0 -11 12 -11q5 0 8.5 3t3.5 8zM496 -192h-18v41h-4l5 18h21l1 2h17l-6 -20h-16v-4h19
l-4 -17h-15v-20zM553 -132q12 0 21 -9t9 -22q0 -12 -9 -21t-21 -9q-14 0 -22.5 9.5t-8.5 21.5t8.5 21t22.5 9zM564 -163q0 12 -11 12q-12 0 -12 -12q0 -11 12 -11q11 0 11 11zM607 -166v-26h-18v41h-5l5 18h18l14 -22v22h18v-59h-16zM671 -151v-41h-19v41h-9l6 18h19l1 2h17
l-6 -20h-9zM714 -131l15 -3l-5 -18q-8 3 -13 3q-4 0 -4 -1q0 -2 3.5 -3t8 -3t8 -6t3.5 -11q0 -20 -23 -20q-5 0 -9 1.5t-10 3.5l4 18q8 -5 15 -5q4 0 4 2t-4 3.5t-8.5 3t-8.5 5t-4 10.5q0 8 6 13.5t14 5.5q2 0 3.5 -0.5t3.5 -0.5zM744 -173q9 0 9 -10t-9 -10q-10 0 -10 10
t10 10zM791 -131l15 -6l-9 -18q-5 2 -6.5 3.5t-4.5 1.5q-12 0 -12 -12t12 -12q6 0 12 5l8 -16q-10 -8 -21 -8t-20.5 8.5t-9.5 22.5q0 12 9 21t21 9q2 0 5 -1zM839 -132q14 0 22 -9t8 -22q0 -12 -8 -21t-22 -9t-22 9.5t-8 21.5t8.5 21t21.5 9zM851 -163q0 12 -12 12t-12 -12
q0 -11 12 -11t12 11zM894 -161v-31h-18v41h-4l4 18h18l10 -13l10 13h19v-59h-18v31l-11 -12z" />
    <glyph glyph-name="two" unicode="2" 
d="M889 383q0 -2 -0.5 -8t-1 -12.5t-1.5 -12.5t-1 -9q-1 -9 -3.5 -18t-4.5 -18q-17 -61 -51.5 -111.5t-81.5 -87t-105 -57t-122 -20.5q-79 0 -148 30.5t-118.5 82.5t-77.5 122t-26 149q2 0 2 3q1 47 14 90t38 83q8 14 20.5 31.5t28 34t31.5 30.5t31 21l1 3h3l2 2
q2 2 4.5 2.5t4.5 2.5q5 3 9 5.5t8 5.5q10 6 22 10.5t23 9.5q31 12 63 17.5t65 5.5q72 0 139.5 -26.5t119.5 -77.5q18 -18 33.5 -37t28.5 -41q4 -6 7 -13.5t6 -14.5q3 -5 5.5 -8.5t3.5 -8.5q6 -12 9.5 -24t7.5 -25q7 -29 9.5 -54.5t2.5 -56.5zM713 565q-26 -2 -52.5 -1.5
t-53.5 0.5h-20q-9 -27 -16 -54.5t-16 -54.5q4 -1 8.5 -0.5t9.5 0.5q7 0 10 -2v-243h109v119h83q6 25 14 49.5t14 49.5h-111q1 4 0.5 8t-0.5 8v5t2 4h92q7 30 16.5 59.5t16.5 59.5h-104q-3 -2 -2 -7zM248 560q-7 -26 -15 -52.5t-14 -52.5q4 -1 8.5 -0.5t9.5 0.5h4.5t4.5 -2
v-243h109v94v16t2 16q10 -1 20.5 -0.5t21.5 0.5h12t13 -1v-123q11 -2 21.5 -2h20.5q17 0 33.5 0.5t33.5 -0.5v354q-17 -1 -33.5 -0.5t-33.5 0.5q-21 0 -42 -2v-114h-69q0 17 0.5 35t0.5 36q0 22 -2 45h-103q-2 0 -2 -1.5t-1 -2.5zM260 -90h-19v41h-4l5 18h21l1 2h17l-5 -21
h-16v-4h19l-6 -17h-13v-19zM288 -49h-5l5 18h18v-32q0 -10 6 -10t6 10v32h18v-34q0 -26 -24 -26t-24 26v16zM363 -72h12l-6 -18h-24v41h-6l6 18h18v-41zM399 -72h12l-6 -18h-24v41h-5l5 18h18v-41zM488 -31l-19 -59h-17l-21 59h20l9 -28l9 28h19zM525 -90h-34v41h-4l5 18h21
l1 2h17l-5 -21h-16v-3h20l-4 -15h-16v-3h21zM556 -77v-13h-18v41h-5l5 18h18q8 0 12 -1t9 -4q7 -7 7 -17q0 -12 -10 -19l12 -18h-22zM559 -49h-3v-10h3q6 0 6 5t-6 5zM618 -29l16 -3l-6 -18q-8 3 -13 3q-4 0 -4 -2t3.5 -3t8 -2.5t8.5 -5.5t4 -11q0 -10 -6.5 -15t-17.5 -5
q-9 0 -19 5l4 18q4 -2 8.5 -4t6.5 -2q5 0 5 3q0 2 -4 3.5t-8.5 3t-8.5 5t-4 10.5q0 8 5.5 13t13.5 5q4 0 7 -1zM660 -31v-59h-18v41h-5l5 18h18zM696 -31q13 0 21.5 -9t8.5 -21t-8.5 -21t-21.5 -9q-14 0 -22 9t-8 21t8.5 21t21.5 9zM707 -61q0 5 -3 8.5t-8 3.5q-6 0 -9 -3.5
t-3 -8.5t3 -8.5t9 -3.5q5 0 8 3.5t3 8.5zM751 -64v-26h-18v41h-5l5 18h18l13 -22v22h19v-59h-16zM139 -132q13 0 21.5 -9t8.5 -22q0 -12 -8.5 -21t-21.5 -9q-14 0 -22 9.5t-8 21.5t8.5 21t21.5 9zM150 -163q0 12 -11 12q-12 0 -12 -12q0 -11 12 -11q11 0 11 11zM194 -166
v-26h-18v41h-5l6 18h17l13 -22v22h19v-59h-16zM273 -133v-19h12v19h18v-59h-18v21h-12v-21h-18v41h-4l5 18h17zM346 -192h-34v41h-4l5 18h21v2h18l-6 -20h-16v-4h21l-4 -14h-17v-4h21zM378 -178v-14h-19v41h-5l6 18h18q14 0 19 -5q8 -6 8 -17q0 -13 -9 -19l10 -18h-21z
M381 -151h-3v-10h2q7 0 7 5t-6 5zM442 -132q13 0 21.5 -9t8.5 -22q0 -12 -8.5 -21t-21.5 -9q-14 0 -22.5 9.5t-8.5 21.5t8.5 21t22.5 9zM454 -163q0 5 -3.5 8.5t-8.5 3.5q-12 0 -12 -12q0 -11 12 -11q5 0 8.5 3t3.5 8zM496 -192h-18v41h-4l5 18h21l1 2h17l-6 -20h-16v-4h19
l-4 -17h-15v-20zM553 -132q12 0 21 -9t9 -22q0 -12 -9 -21t-21 -9q-14 0 -22.5 9.5t-8.5 21.5t8.5 21t22.5 9zM564 -163q0 12 -11 12q-12 0 -12 -12q0 -11 12 -11q11 0 11 11zM607 -166v-26h-18v41h-5l5 18h18l14 -22v22h18v-59h-16zM671 -151v-41h-19v41h-9l6 18h19l1 2h17
l-6 -20h-9zM714 -131l15 -3l-5 -18q-8 3 -13 3q-4 0 -4 -1q0 -2 3.5 -3t8 -3t8 -6t3.5 -11q0 -20 -23 -20q-5 0 -9 1.5t-10 3.5l4 18q8 -5 15 -5q4 0 4 2t-4 3.5t-8.5 3t-8.5 5t-4 10.5q0 8 6 13.5t14 5.5q2 0 3.5 -0.5t3.5 -0.5zM744 -173q9 0 9 -10t-9 -10q-10 0 -10 10
t10 10zM791 -131l15 -6l-9 -18q-5 2 -6.5 3.5t-4.5 1.5q-12 0 -12 -12t12 -12q6 0 12 5l8 -16q-10 -8 -21 -8t-20.5 8.5t-9.5 22.5q0 12 9 21t21 9q2 0 5 -1zM839 -132q14 0 22 -9t8 -22q0 -12 -8 -21t-22 -9t-22 9.5t-8 21.5t8.5 21t21.5 9zM851 -163q0 12 -12 12t-12 -12
q0 -11 12 -11t12 11zM894 -161v-31h-18v41h-4l4 18h18l10 -13l10 13h19v-59h-18v31l-11 -12z" />
    <glyph glyph-name="three" unicode="3" 
d="M889 383q0 -2 -0.5 -8t-1 -12.5t-1.5 -12.5t-1 -9q-1 -9 -3.5 -18t-4.5 -18q-17 -61 -51.5 -111.5t-81.5 -87t-105 -57t-122 -20.5q-79 0 -148 30.5t-118.5 82.5t-77.5 122t-26 149q2 0 2 3q1 47 14 90t38 83q8 14 20.5 31.5t28 34t31.5 30.5t31 21l1 3h3l2 2
q2 2 4.5 2.5t4.5 2.5q5 3 9 5.5t8 5.5q10 6 22 10.5t23 9.5q31 12 63 17.5t65 5.5q72 0 139.5 -26.5t119.5 -77.5q18 -18 33.5 -37t28.5 -41q4 -6 7 -13.5t6 -14.5q3 -5 5.5 -8.5t3.5 -8.5q6 -12 9.5 -24t7.5 -25q7 -29 9.5 -54.5t2.5 -56.5zM713 565q-26 -2 -52.5 -1.5
t-53.5 0.5h-20q-9 -27 -16 -54.5t-16 -54.5q4 -1 8.5 -0.5t9.5 0.5q7 0 10 -2v-243h109v119h83q6 25 14 49.5t14 49.5h-111q1 4 0.5 8t-0.5 8v5t2 4h92q7 30 16.5 59.5t16.5 59.5h-104q-3 -2 -2 -7zM248 560q-7 -26 -15 -52.5t-14 -52.5q4 -1 8.5 -0.5t9.5 0.5h4.5t4.5 -2
v-243h109v94v16t2 16q10 -1 20.5 -0.5t21.5 0.5h12t13 -1v-123q11 -2 21.5 -2h20.5q17 0 33.5 0.5t33.5 -0.5v354q-17 -1 -33.5 -0.5t-33.5 0.5q-21 0 -42 -2v-114h-69q0 17 0.5 35t0.5 36q0 22 -2 45h-103q-2 0 -2 -1.5t-1 -2.5zM260 -90h-19v41h-4l5 18h21l1 2h17l-5 -21
h-16v-4h19l-6 -17h-13v-19zM288 -49h-5l5 18h18v-32q0 -10 6 -10t6 10v32h18v-34q0 -26 -24 -26t-24 26v16zM363 -72h12l-6 -18h-24v41h-6l6 18h18v-41zM399 -72h12l-6 -18h-24v41h-5l5 18h18v-41zM488 -31l-19 -59h-17l-21 59h20l9 -28l9 28h19zM525 -90h-34v41h-4l5 18h21
l1 2h17l-5 -21h-16v-3h20l-4 -15h-16v-3h21zM556 -77v-13h-18v41h-5l5 18h18q8 0 12 -1t9 -4q7 -7 7 -17q0 -12 -10 -19l12 -18h-22zM559 -49h-3v-10h3q6 0 6 5t-6 5zM618 -29l16 -3l-6 -18q-8 3 -13 3q-4 0 -4 -2t3.5 -3t8 -2.5t8.5 -5.5t4 -11q0 -10 -6.5 -15t-17.5 -5
q-9 0 -19 5l4 18q4 -2 8.5 -4t6.5 -2q5 0 5 3q0 2 -4 3.5t-8.5 3t-8.5 5t-4 10.5q0 8 5.5 13t13.5 5q4 0 7 -1zM660 -31v-59h-18v41h-5l5 18h18zM696 -31q13 0 21.5 -9t8.5 -21t-8.5 -21t-21.5 -9q-14 0 -22 9t-8 21t8.5 21t21.5 9zM707 -61q0 5 -3 8.5t-8 3.5q-6 0 -9 -3.5
t-3 -8.5t3 -8.5t9 -3.5q5 0 8 3.5t3 8.5zM751 -64v-26h-18v41h-5l5 18h18l13 -22v22h19v-59h-16zM139 -132q13 0 21.5 -9t8.5 -22q0 -12 -8.5 -21t-21.5 -9q-14 0 -22 9.5t-8 21.5t8.5 21t21.5 9zM150 -163q0 12 -11 12q-12 0 -12 -12q0 -11 12 -11q11 0 11 11zM194 -166
v-26h-18v41h-5l6 18h17l13 -22v22h19v-59h-16zM273 -133v-19h12v19h18v-59h-18v21h-12v-21h-18v41h-4l5 18h17zM346 -192h-34v41h-4l5 18h21v2h18l-6 -20h-16v-4h21l-4 -14h-17v-4h21zM378 -178v-14h-19v41h-5l6 18h18q14 0 19 -5q8 -6 8 -17q0 -13 -9 -19l10 -18h-21z
M381 -151h-3v-10h2q7 0 7 5t-6 5zM442 -132q13 0 21.5 -9t8.5 -22q0 -12 -8.5 -21t-21.5 -9q-14 0 -22.5 9.5t-8.5 21.5t8.5 21t22.5 9zM454 -163q0 5 -3.5 8.5t-8.5 3.5q-12 0 -12 -12q0 -11 12 -11q5 0 8.5 3t3.5 8zM496 -192h-18v41h-4l5 18h21l1 2h17l-6 -20h-16v-4h19
l-4 -17h-15v-20zM553 -132q12 0 21 -9t9 -22q0 -12 -9 -21t-21 -9q-14 0 -22.5 9.5t-8.5 21.5t8.5 21t22.5 9zM564 -163q0 12 -11 12q-12 0 -12 -12q0 -11 12 -11q11 0 11 11zM607 -166v-26h-18v41h-5l5 18h18l14 -22v22h18v-59h-16zM671 -151v-41h-19v41h-9l6 18h19l1 2h17
l-6 -20h-9zM714 -131l15 -3l-5 -18q-8 3 -13 3q-4 0 -4 -1q0 -2 3.5 -3t8 -3t8 -6t3.5 -11q0 -20 -23 -20q-5 0 -9 1.5t-10 3.5l4 18q8 -5 15 -5q4 0 4 2t-4 3.5t-8.5 3t-8.5 5t-4 10.5q0 8 6 13.5t14 5.5q2 0 3.5 -0.5t3.5 -0.5zM744 -173q9 0 9 -10t-9 -10q-10 0 -10 10
t10 10zM791 -131l15 -6l-9 -18q-5 2 -6.5 3.5t-4.5 1.5q-12 0 -12 -12t12 -12q6 0 12 5l8 -16q-10 -8 -21 -8t-20.5 8.5t-9.5 22.5q0 12 9 21t21 9q2 0 5 -1zM839 -132q14 0 22 -9t8 -22q0 -12 -8 -21t-22 -9t-22 9.5t-8 21.5t8.5 21t21.5 9zM851 -163q0 12 -12 12t-12 -12
q0 -11 12 -11t12 11zM894 -161v-31h-18v41h-4l4 18h18l10 -13l10 13h19v-59h-18v31l-11 -12z" />
    <glyph glyph-name="four" unicode="4" 
d="M889 383q0 -2 -0.5 -8t-1 -12.5t-1.5 -12.5t-1 -9q-1 -9 -3.5 -18t-4.5 -18q-17 -61 -51.5 -111.5t-81.5 -87t-105 -57t-122 -20.5q-79 0 -148 30.5t-118.5 82.5t-77.5 122t-26 149q2 0 2 3q1 47 14 90t38 83q8 14 20.5 31.5t28 34t31.5 30.5t31 21l1 3h3l2 2
q2 2 4.5 2.5t4.5 2.5q5 3 9 5.5t8 5.5q10 6 22 10.5t23 9.5q31 12 63 17.5t65 5.5q72 0 139.5 -26.5t119.5 -77.5q18 -18 33.5 -37t28.5 -41q4 -6 7 -13.5t6 -14.5q3 -5 5.5 -8.5t3.5 -8.5q6 -12 9.5 -24t7.5 -25q7 -29 9.5 -54.5t2.5 -56.5zM713 565q-26 -2 -52.5 -1.5
t-53.5 0.5h-20q-9 -27 -16 -54.5t-16 -54.5q4 -1 8.5 -0.5t9.5 0.5q7 0 10 -2v-243h109v119h83q6 25 14 49.5t14 49.5h-111q1 4 0.5 8t-0.5 8v5t2 4h92q7 30 16.5 59.5t16.5 59.5h-104q-3 -2 -2 -7zM248 560q-7 -26 -15 -52.5t-14 -52.5q4 -1 8.5 -0.5t9.5 0.5h4.5t4.5 -2
v-243h109v94v16t2 16q10 -1 20.5 -0.5t21.5 0.5h12t13 -1v-123q11 -2 21.5 -2h20.5q17 0 33.5 0.5t33.5 -0.5v354q-17 -1 -33.5 -0.5t-33.5 0.5q-21 0 -42 -2v-114h-69q0 17 0.5 35t0.5 36q0 22 -2 45h-103q-2 0 -2 -1.5t-1 -2.5zM260 -90h-19v41h-4l5 18h21l1 2h17l-5 -21
h-16v-4h19l-6 -17h-13v-19zM288 -49h-5l5 18h18v-32q0 -10 6 -10t6 10v32h18v-34q0 -26 -24 -26t-24 26v16zM363 -72h12l-6 -18h-24v41h-6l6 18h18v-41zM399 -72h12l-6 -18h-24v41h-5l5 18h18v-41zM488 -31l-19 -59h-17l-21 59h20l9 -28l9 28h19zM525 -90h-34v41h-4l5 18h21
l1 2h17l-5 -21h-16v-3h20l-4 -15h-16v-3h21zM556 -77v-13h-18v41h-5l5 18h18q8 0 12 -1t9 -4q7 -7 7 -17q0 -12 -10 -19l12 -18h-22zM559 -49h-3v-10h3q6 0 6 5t-6 5zM618 -29l16 -3l-6 -18q-8 3 -13 3q-4 0 -4 -2t3.5 -3t8 -2.5t8.5 -5.5t4 -11q0 -10 -6.5 -15t-17.5 -5
q-9 0 -19 5l4 18q4 -2 8.5 -4t6.5 -2q5 0 5 3q0 2 -4 3.5t-8.5 3t-8.5 5t-4 10.5q0 8 5.5 13t13.5 5q4 0 7 -1zM660 -31v-59h-18v41h-5l5 18h18zM696 -31q13 0 21.5 -9t8.5 -21t-8.5 -21t-21.5 -9q-14 0 -22 9t-8 21t8.5 21t21.5 9zM707 -61q0 5 -3 8.5t-8 3.5q-6 0 -9 -3.5
t-3 -8.5t3 -8.5t9 -3.5q5 0 8 3.5t3 8.5zM751 -64v-26h-18v41h-5l5 18h18l13 -22v22h19v-59h-16zM139 -132q13 0 21.5 -9t8.5 -22q0 -12 -8.5 -21t-21.5 -9q-14 0 -22 9.5t-8 21.5t8.5 21t21.5 9zM150 -163q0 12 -11 12q-12 0 -12 -12q0 -11 12 -11q11 0 11 11zM194 -166
v-26h-18v41h-5l6 18h17l13 -22v22h19v-59h-16zM273 -133v-19h12v19h18v-59h-18v21h-12v-21h-18v41h-4l5 18h17zM346 -192h-34v41h-4l5 18h21v2h18l-6 -20h-16v-4h21l-4 -14h-17v-4h21zM378 -178v-14h-19v41h-5l6 18h18q14 0 19 -5q8 -6 8 -17q0 -13 -9 -19l10 -18h-21z
M381 -151h-3v-10h2q7 0 7 5t-6 5zM442 -132q13 0 21.5 -9t8.5 -22q0 -12 -8.5 -21t-21.5 -9q-14 0 -22.5 9.5t-8.5 21.5t8.5 21t22.5 9zM454 -163q0 5 -3.5 8.5t-8.5 3.5q-12 0 -12 -12q0 -11 12 -11q5 0 8.5 3t3.5 8zM496 -192h-18v41h-4l5 18h21l1 2h17l-6 -20h-16v-4h19
l-4 -17h-15v-20zM553 -132q12 0 21 -9t9 -22q0 -12 -9 -21t-21 -9q-14 0 -22.5 9.5t-8.5 21.5t8.5 21t22.5 9zM564 -163q0 12 -11 12q-12 0 -12 -12q0 -11 12 -11q11 0 11 11zM607 -166v-26h-18v41h-5l5 18h18l14 -22v22h18v-59h-16zM671 -151v-41h-19v41h-9l6 18h19l1 2h17
l-6 -20h-9zM714 -131l15 -3l-5 -18q-8 3 -13 3q-4 0 -4 -1q0 -2 3.5 -3t8 -3t8 -6t3.5 -11q0 -20 -23 -20q-5 0 -9 1.5t-10 3.5l4 18q8 -5 15 -5q4 0 4 2t-4 3.5t-8.5 3t-8.5 5t-4 10.5q0 8 6 13.5t14 5.5q2 0 3.5 -0.5t3.5 -0.5zM744 -173q9 0 9 -10t-9 -10q-10 0 -10 10
t10 10zM791 -131l15 -6l-9 -18q-5 2 -6.5 3.5t-4.5 1.5q-12 0 -12 -12t12 -12q6 0 12 5l8 -16q-10 -8 -21 -8t-20.5 8.5t-9.5 22.5q0 12 9 21t21 9q2 0 5 -1zM839 -132q14 0 22 -9t8 -22q0 -12 -8 -21t-22 -9t-22 9.5t-8 21.5t8.5 21t21.5 9zM851 -163q0 12 -12 12t-12 -12
q0 -11 12 -11t12 11zM894 -161v-31h-18v41h-4l4 18h18l10 -13l10 13h19v-59h-18v31l-11 -12z" />
    <glyph glyph-name="five" unicode="5" 
d="M889 383q0 -2 -0.5 -8t-1 -12.5t-1.5 -12.5t-1 -9q-1 -9 -3.5 -18t-4.5 -18q-17 -61 -51.5 -111.5t-81.5 -87t-105 -57t-122 -20.5q-79 0 -148 30.5t-118.5 82.5t-77.5 122t-26 149q2 0 2 3q1 47 14 90t38 83q8 14 20.5 31.5t28 34t31.5 30.5t31 21l1 3h3l2 2
q2 2 4.5 2.5t4.5 2.5q5 3 9 5.5t8 5.5q10 6 22 10.5t23 9.5q31 12 63 17.5t65 5.5q72 0 139.5 -26.5t119.5 -77.5q18 -18 33.5 -37t28.5 -41q4 -6 7 -13.5t6 -14.5q3 -5 5.5 -8.5t3.5 -8.5q6 -12 9.5 -24t7.5 -25q7 -29 9.5 -54.5t2.5 -56.5zM713 565q-26 -2 -52.5 -1.5
t-53.5 0.5h-20q-9 -27 -16 -54.5t-16 -54.5q4 -1 8.5 -0.5t9.5 0.5q7 0 10 -2v-243h109v119h83q6 25 14 49.5t14 49.5h-111q1 4 0.5 8t-0.5 8v5t2 4h92q7 30 16.5 59.5t16.5 59.5h-104q-3 -2 -2 -7zM248 560q-7 -26 -15 -52.5t-14 -52.5q4 -1 8.5 -0.5t9.5 0.5h4.5t4.5 -2
v-243h109v94v16t2 16q10 -1 20.5 -0.5t21.5 0.5h12t13 -1v-123q11 -2 21.5 -2h20.5q17 0 33.5 0.5t33.5 -0.5v354q-17 -1 -33.5 -0.5t-33.5 0.5q-21 0 -42 -2v-114h-69q0 17 0.5 35t0.5 36q0 22 -2 45h-103q-2 0 -2 -1.5t-1 -2.5zM260 -90h-19v41h-4l5 18h21l1 2h17l-5 -21
h-16v-4h19l-6 -17h-13v-19zM288 -49h-5l5 18h18v-32q0 -10 6 -10t6 10v32h18v-34q0 -26 -24 -26t-24 26v16zM363 -72h12l-6 -18h-24v41h-6l6 18h18v-41zM399 -72h12l-6 -18h-24v41h-5l5 18h18v-41zM488 -31l-19 -59h-17l-21 59h20l9 -28l9 28h19zM525 -90h-34v41h-4l5 18h21
l1 2h17l-5 -21h-16v-3h20l-4 -15h-16v-3h21zM556 -77v-13h-18v41h-5l5 18h18q8 0 12 -1t9 -4q7 -7 7 -17q0 -12 -10 -19l12 -18h-22zM559 -49h-3v-10h3q6 0 6 5t-6 5zM618 -29l16 -3l-6 -18q-8 3 -13 3q-4 0 -4 -2t3.5 -3t8 -2.5t8.5 -5.5t4 -11q0 -10 -6.5 -15t-17.5 -5
q-9 0 -19 5l4 18q4 -2 8.5 -4t6.5 -2q5 0 5 3q0 2 -4 3.5t-8.5 3t-8.5 5t-4 10.5q0 8 5.5 13t13.5 5q4 0 7 -1zM660 -31v-59h-18v41h-5l5 18h18zM696 -31q13 0 21.5 -9t8.5 -21t-8.5 -21t-21.5 -9q-14 0 -22 9t-8 21t8.5 21t21.5 9zM707 -61q0 5 -3 8.5t-8 3.5q-6 0 -9 -3.5
t-3 -8.5t3 -8.5t9 -3.5q5 0 8 3.5t3 8.5zM751 -64v-26h-18v41h-5l5 18h18l13 -22v22h19v-59h-16zM139 -132q13 0 21.5 -9t8.5 -22q0 -12 -8.5 -21t-21.5 -9q-14 0 -22 9.5t-8 21.5t8.5 21t21.5 9zM150 -163q0 12 -11 12q-12 0 -12 -12q0 -11 12 -11q11 0 11 11zM194 -166
v-26h-18v41h-5l6 18h17l13 -22v22h19v-59h-16zM273 -133v-19h12v19h18v-59h-18v21h-12v-21h-18v41h-4l5 18h17zM346 -192h-34v41h-4l5 18h21v2h18l-6 -20h-16v-4h21l-4 -14h-17v-4h21zM378 -178v-14h-19v41h-5l6 18h18q14 0 19 -5q8 -6 8 -17q0 -13 -9 -19l10 -18h-21z
M381 -151h-3v-10h2q7 0 7 5t-6 5zM442 -132q13 0 21.5 -9t8.5 -22q0 -12 -8.5 -21t-21.5 -9q-14 0 -22.5 9.5t-8.5 21.5t8.5 21t22.5 9zM454 -163q0 5 -3.5 8.5t-8.5 3.5q-12 0 -12 -12q0 -11 12 -11q5 0 8.5 3t3.5 8zM496 -192h-18v41h-4l5 18h21l1 2h17l-6 -20h-16v-4h19
l-4 -17h-15v-20zM553 -132q12 0 21 -9t9 -22q0 -12 -9 -21t-21 -9q-14 0 -22.5 9.5t-8.5 21.5t8.5 21t22.5 9zM564 -163q0 12 -11 12q-12 0 -12 -12q0 -11 12 -11q11 0 11 11zM607 -166v-26h-18v41h-5l5 18h18l14 -22v22h18v-59h-16zM671 -151v-41h-19v41h-9l6 18h19l1 2h17
l-6 -20h-9zM714 -131l15 -3l-5 -18q-8 3 -13 3q-4 0 -4 -1q0 -2 3.5 -3t8 -3t8 -6t3.5 -11q0 -20 -23 -20q-5 0 -9 1.5t-10 3.5l4 18q8 -5 15 -5q4 0 4 2t-4 3.5t-8.5 3t-8.5 5t-4 10.5q0 8 6 13.5t14 5.5q2 0 3.5 -0.5t3.5 -0.5zM744 -173q9 0 9 -10t-9 -10q-10 0 -10 10
t10 10zM791 -131l15 -6l-9 -18q-5 2 -6.5 3.5t-4.5 1.5q-12 0 -12 -12t12 -12q6 0 12 5l8 -16q-10 -8 -21 -8t-20.5 8.5t-9.5 22.5q0 12 9 21t21 9q2 0 5 -1zM839 -132q14 0 22 -9t8 -22q0 -12 -8 -21t-22 -9t-22 9.5t-8 21.5t8.5 21t21.5 9zM851 -163q0 12 -12 12t-12 -12
q0 -11 12 -11t12 11zM894 -161v-31h-18v41h-4l4 18h18l10 -13l10 13h19v-59h-18v31l-11 -12z" />
    <glyph glyph-name="six" unicode="6" 
d="M889 383q0 -2 -0.5 -8t-1 -12.5t-1.5 -12.5t-1 -9q-1 -9 -3.5 -18t-4.5 -18q-17 -61 -51.5 -111.5t-81.5 -87t-105 -57t-122 -20.5q-79 0 -148 30.5t-118.5 82.5t-77.5 122t-26 149q2 0 2 3q1 47 14 90t38 83q8 14 20.5 31.5t28 34t31.5 30.5t31 21l1 3h3l2 2
q2 2 4.5 2.5t4.5 2.5q5 3 9 5.5t8 5.5q10 6 22 10.5t23 9.5q31 12 63 17.5t65 5.5q72 0 139.5 -26.5t119.5 -77.5q18 -18 33.5 -37t28.5 -41q4 -6 7 -13.5t6 -14.5q3 -5 5.5 -8.5t3.5 -8.5q6 -12 9.5 -24t7.5 -25q7 -29 9.5 -54.5t2.5 -56.5zM713 565q-26 -2 -52.5 -1.5
t-53.5 0.5h-20q-9 -27 -16 -54.5t-16 -54.5q4 -1 8.5 -0.5t9.5 0.5q7 0 10 -2v-243h109v119h83q6 25 14 49.5t14 49.5h-111q1 4 0.5 8t-0.5 8v5t2 4h92q7 30 16.5 59.5t16.5 59.5h-104q-3 -2 -2 -7zM248 560q-7 -26 -15 -52.5t-14 -52.5q4 -1 8.5 -0.5t9.5 0.5h4.5t4.5 -2
v-243h109v94v16t2 16q10 -1 20.5 -0.5t21.5 0.5h12t13 -1v-123q11 -2 21.5 -2h20.5q17 0 33.5 0.5t33.5 -0.5v354q-17 -1 -33.5 -0.5t-33.5 0.5q-21 0 -42 -2v-114h-69q0 17 0.5 35t0.5 36q0 22 -2 45h-103q-2 0 -2 -1.5t-1 -2.5zM260 -90h-19v41h-4l5 18h21l1 2h17l-5 -21
h-16v-4h19l-6 -17h-13v-19zM288 -49h-5l5 18h18v-32q0 -10 6 -10t6 10v32h18v-34q0 -26 -24 -26t-24 26v16zM363 -72h12l-6 -18h-24v41h-6l6 18h18v-41zM399 -72h12l-6 -18h-24v41h-5l5 18h18v-41zM488 -31l-19 -59h-17l-21 59h20l9 -28l9 28h19zM525 -90h-34v41h-4l5 18h21
l1 2h17l-5 -21h-16v-3h20l-4 -15h-16v-3h21zM556 -77v-13h-18v41h-5l5 18h18q8 0 12 -1t9 -4q7 -7 7 -17q0 -12 -10 -19l12 -18h-22zM559 -49h-3v-10h3q6 0 6 5t-6 5zM618 -29l16 -3l-6 -18q-8 3 -13 3q-4 0 -4 -2t3.5 -3t8 -2.5t8.5 -5.5t4 -11q0 -10 -6.5 -15t-17.5 -5
q-9 0 -19 5l4 18q4 -2 8.5 -4t6.5 -2q5 0 5 3q0 2 -4 3.5t-8.5 3t-8.5 5t-4 10.5q0 8 5.5 13t13.5 5q4 0 7 -1zM660 -31v-59h-18v41h-5l5 18h18zM696 -31q13 0 21.5 -9t8.5 -21t-8.5 -21t-21.5 -9q-14 0 -22 9t-8 21t8.5 21t21.5 9zM707 -61q0 5 -3 8.5t-8 3.5q-6 0 -9 -3.5
t-3 -8.5t3 -8.5t9 -3.5q5 0 8 3.5t3 8.5zM751 -64v-26h-18v41h-5l5 18h18l13 -22v22h19v-59h-16zM139 -132q13 0 21.5 -9t8.5 -22q0 -12 -8.5 -21t-21.5 -9q-14 0 -22 9.5t-8 21.5t8.5 21t21.5 9zM150 -163q0 12 -11 12q-12 0 -12 -12q0 -11 12 -11q11 0 11 11zM194 -166
v-26h-18v41h-5l6 18h17l13 -22v22h19v-59h-16zM273 -133v-19h12v19h18v-59h-18v21h-12v-21h-18v41h-4l5 18h17zM346 -192h-34v41h-4l5 18h21v2h18l-6 -20h-16v-4h21l-4 -14h-17v-4h21zM378 -178v-14h-19v41h-5l6 18h18q14 0 19 -5q8 -6 8 -17q0 -13 -9 -19l10 -18h-21z
M381 -151h-3v-10h2q7 0 7 5t-6 5zM442 -132q13 0 21.5 -9t8.5 -22q0 -12 -8.5 -21t-21.5 -9q-14 0 -22.5 9.5t-8.5 21.5t8.5 21t22.5 9zM454 -163q0 5 -3.5 8.5t-8.5 3.5q-12 0 -12 -12q0 -11 12 -11q5 0 8.5 3t3.5 8zM496 -192h-18v41h-4l5 18h21l1 2h17l-6 -20h-16v-4h19
l-4 -17h-15v-20zM553 -132q12 0 21 -9t9 -22q0 -12 -9 -21t-21 -9q-14 0 -22.5 9.5t-8.5 21.5t8.5 21t22.5 9zM564 -163q0 12 -11 12q-12 0 -12 -12q0 -11 12 -11q11 0 11 11zM607 -166v-26h-18v41h-5l5 18h18l14 -22v22h18v-59h-16zM671 -151v-41h-19v41h-9l6 18h19l1 2h17
l-6 -20h-9zM714 -131l15 -3l-5 -18q-8 3 -13 3q-4 0 -4 -1q0 -2 3.5 -3t8 -3t8 -6t3.5 -11q0 -20 -23 -20q-5 0 -9 1.5t-10 3.5l4 18q8 -5 15 -5q4 0 4 2t-4 3.5t-8.5 3t-8.5 5t-4 10.5q0 8 6 13.5t14 5.5q2 0 3.5 -0.5t3.5 -0.5zM744 -173q9 0 9 -10t-9 -10q-10 0 -10 10
t10 10zM791 -131l15 -6l-9 -18q-5 2 -6.5 3.5t-4.5 1.5q-12 0 -12 -12t12 -12q6 0 12 5l8 -16q-10 -8 -21 -8t-20.5 8.5t-9.5 22.5q0 12 9 21t21 9q2 0 5 -1zM839 -132q14 0 22 -9t8 -22q0 -12 -8 -21t-22 -9t-22 9.5t-8 21.5t8.5 21t21.5 9zM851 -163q0 12 -12 12t-12 -12
q0 -11 12 -11t12 11zM894 -161v-31h-18v41h-4l4 18h18l10 -13l10 13h19v-59h-18v31l-11 -12z" />
    <glyph glyph-name="seven" unicode="7" 
d="M889 383q0 -2 -0.5 -8t-1 -12.5t-1.5 -12.5t-1 -9q-1 -9 -3.5 -18t-4.5 -18q-17 -61 -51.5 -111.5t-81.5 -87t-105 -57t-122 -20.5q-79 0 -148 30.5t-118.5 82.5t-77.5 122t-26 149q2 0 2 3q1 47 14 90t38 83q8 14 20.5 31.5t28 34t31.5 30.5t31 21l1 3h3l2 2
q2 2 4.5 2.5t4.5 2.5q5 3 9 5.5t8 5.5q10 6 22 10.5t23 9.5q31 12 63 17.5t65 5.5q72 0 139.5 -26.5t119.5 -77.5q18 -18 33.5 -37t28.5 -41q4 -6 7 -13.5t6 -14.5q3 -5 5.5 -8.5t3.5 -8.5q6 -12 9.5 -24t7.5 -25q7 -29 9.5 -54.5t2.5 -56.5zM713 565q-26 -2 -52.5 -1.5
t-53.5 0.5h-20q-9 -27 -16 -54.5t-16 -54.5q4 -1 8.5 -0.5t9.5 0.5q7 0 10 -2v-243h109v119h83q6 25 14 49.5t14 49.5h-111q1 4 0.5 8t-0.5 8v5t2 4h92q7 30 16.5 59.5t16.5 59.5h-104q-3 -2 -2 -7zM248 560q-7 -26 -15 -52.5t-14 -52.5q4 -1 8.5 -0.5t9.5 0.5h4.5t4.5 -2
v-243h109v94v16t2 16q10 -1 20.5 -0.5t21.5 0.5h12t13 -1v-123q11 -2 21.5 -2h20.5q17 0 33.5 0.5t33.5 -0.5v354q-17 -1 -33.5 -0.5t-33.5 0.5q-21 0 -42 -2v-114h-69q0 17 0.5 35t0.5 36q0 22 -2 45h-103q-2 0 -2 -1.5t-1 -2.5zM260 -90h-19v41h-4l5 18h21l1 2h17l-5 -21
h-16v-4h19l-6 -17h-13v-19zM288 -49h-5l5 18h18v-32q0 -10 6 -10t6 10v32h18v-34q0 -26 -24 -26t-24 26v16zM363 -72h12l-6 -18h-24v41h-6l6 18h18v-41zM399 -72h12l-6 -18h-24v41h-5l5 18h18v-41zM488 -31l-19 -59h-17l-21 59h20l9 -28l9 28h19zM525 -90h-34v41h-4l5 18h21
l1 2h17l-5 -21h-16v-3h20l-4 -15h-16v-3h21zM556 -77v-13h-18v41h-5l5 18h18q8 0 12 -1t9 -4q7 -7 7 -17q0 -12 -10 -19l12 -18h-22zM559 -49h-3v-10h3q6 0 6 5t-6 5zM618 -29l16 -3l-6 -18q-8 3 -13 3q-4 0 -4 -2t3.5 -3t8 -2.5t8.5 -5.5t4 -11q0 -10 -6.5 -15t-17.5 -5
q-9 0 -19 5l4 18q4 -2 8.5 -4t6.5 -2q5 0 5 3q0 2 -4 3.5t-8.5 3t-8.5 5t-4 10.5q0 8 5.5 13t13.5 5q4 0 7 -1zM660 -31v-59h-18v41h-5l5 18h18zM696 -31q13 0 21.5 -9t8.5 -21t-8.5 -21t-21.5 -9q-14 0 -22 9t-8 21t8.5 21t21.5 9zM707 -61q0 5 -3 8.5t-8 3.5q-6 0 -9 -3.5
t-3 -8.5t3 -8.5t9 -3.5q5 0 8 3.5t3 8.5zM751 -64v-26h-18v41h-5l5 18h18l13 -22v22h19v-59h-16zM139 -132q13 0 21.5 -9t8.5 -22q0 -12 -8.5 -21t-21.5 -9q-14 0 -22 9.5t-8 21.5t8.5 21t21.5 9zM150 -163q0 12 -11 12q-12 0 -12 -12q0 -11 12 -11q11 0 11 11zM194 -166
v-26h-18v41h-5l6 18h17l13 -22v22h19v-59h-16zM273 -133v-19h12v19h18v-59h-18v21h-12v-21h-18v41h-4l5 18h17zM346 -192h-34v41h-4l5 18h21v2h18l-6 -20h-16v-4h21l-4 -14h-17v-4h21zM378 -178v-14h-19v41h-5l6 18h18q14 0 19 -5q8 -6 8 -17q0 -13 -9 -19l10 -18h-21z
M381 -151h-3v-10h2q7 0 7 5t-6 5zM442 -132q13 0 21.5 -9t8.5 -22q0 -12 -8.5 -21t-21.5 -9q-14 0 -22.5 9.5t-8.5 21.5t8.5 21t22.5 9zM454 -163q0 5 -3.5 8.5t-8.5 3.5q-12 0 -12 -12q0 -11 12 -11q5 0 8.5 3t3.5 8zM496 -192h-18v41h-4l5 18h21l1 2h17l-6 -20h-16v-4h19
l-4 -17h-15v-20zM553 -132q12 0 21 -9t9 -22q0 -12 -9 -21t-21 -9q-14 0 -22.5 9.5t-8.5 21.5t8.5 21t22.5 9zM564 -163q0 12 -11 12q-12 0 -12 -12q0 -11 12 -11q11 0 11 11zM607 -166v-26h-18v41h-5l5 18h18l14 -22v22h18v-59h-16zM671 -151v-41h-19v41h-9l6 18h19l1 2h17
l-6 -20h-9zM714 -131l15 -3l-5 -18q-8 3 -13 3q-4 0 -4 -1q0 -2 3.5 -3t8 -3t8 -6t3.5 -11q0 -20 -23 -20q-5 0 -9 1.5t-10 3.5l4 18q8 -5 15 -5q4 0 4 2t-4 3.5t-8.5 3t-8.5 5t-4 10.5q0 8 6 13.5t14 5.5q2 0 3.5 -0.5t3.5 -0.5zM744 -173q9 0 9 -10t-9 -10q-10 0 -10 10
t10 10zM791 -131l15 -6l-9 -18q-5 2 -6.5 3.5t-4.5 1.5q-12 0 -12 -12t12 -12q6 0 12 5l8 -16q-10 -8 -21 -8t-20.5 8.5t-9.5 22.5q0 12 9 21t21 9q2 0 5 -1zM839 -132q14 0 22 -9t8 -22q0 -12 -8 -21t-22 -9t-22 9.5t-8 21.5t8.5 21t21.5 9zM851 -163q0 12 -12 12t-12 -12
q0 -11 12 -11t12 11zM894 -161v-31h-18v41h-4l4 18h18l10 -13l10 13h19v-59h-18v31l-11 -12z" />
    <glyph glyph-name="eight" unicode="8" 
d="M889 383q0 -2 -0.5 -8t-1 -12.5t-1.5 -12.5t-1 -9q-1 -9 -3.5 -18t-4.5 -18q-17 -61 -51.5 -111.5t-81.5 -87t-105 -57t-122 -20.5q-79 0 -148 30.5t-118.5 82.5t-77.5 122t-26 149q2 0 2 3q1 47 14 90t38 83q8 14 20.5 31.5t28 34t31.5 30.5t31 21l1 3h3l2 2
q2 2 4.5 2.5t4.5 2.5q5 3 9 5.5t8 5.5q10 6 22 10.5t23 9.5q31 12 63 17.5t65 5.5q72 0 139.5 -26.5t119.5 -77.5q18 -18 33.5 -37t28.5 -41q4 -6 7 -13.5t6 -14.5q3 -5 5.5 -8.5t3.5 -8.5q6 -12 9.5 -24t7.5 -25q7 -29 9.5 -54.5t2.5 -56.5zM713 565q-26 -2 -52.5 -1.5
t-53.5 0.5h-20q-9 -27 -16 -54.5t-16 -54.5q4 -1 8.5 -0.5t9.5 0.5q7 0 10 -2v-243h109v119h83q6 25 14 49.5t14 49.5h-111q1 4 0.5 8t-0.5 8v5t2 4h92q7 30 16.5 59.5t16.5 59.5h-104q-3 -2 -2 -7zM248 560q-7 -26 -15 -52.5t-14 -52.5q4 -1 8.5 -0.5t9.5 0.5h4.5t4.5 -2
v-243h109v94v16t2 16q10 -1 20.5 -0.5t21.5 0.5h12t13 -1v-123q11 -2 21.5 -2h20.5q17 0 33.5 0.5t33.5 -0.5v354q-17 -1 -33.5 -0.5t-33.5 0.5q-21 0 -42 -2v-114h-69q0 17 0.5 35t0.5 36q0 22 -2 45h-103q-2 0 -2 -1.5t-1 -2.5zM260 -90h-19v41h-4l5 18h21l1 2h17l-5 -21
h-16v-4h19l-6 -17h-13v-19zM288 -49h-5l5 18h18v-32q0 -10 6 -10t6 10v32h18v-34q0 -26 -24 -26t-24 26v16zM363 -72h12l-6 -18h-24v41h-6l6 18h18v-41zM399 -72h12l-6 -18h-24v41h-5l5 18h18v-41zM488 -31l-19 -59h-17l-21 59h20l9 -28l9 28h19zM525 -90h-34v41h-4l5 18h21
l1 2h17l-5 -21h-16v-3h20l-4 -15h-16v-3h21zM556 -77v-13h-18v41h-5l5 18h18q8 0 12 -1t9 -4q7 -7 7 -17q0 -12 -10 -19l12 -18h-22zM559 -49h-3v-10h3q6 0 6 5t-6 5zM618 -29l16 -3l-6 -18q-8 3 -13 3q-4 0 -4 -2t3.5 -3t8 -2.5t8.5 -5.5t4 -11q0 -10 -6.5 -15t-17.5 -5
q-9 0 -19 5l4 18q4 -2 8.5 -4t6.5 -2q5 0 5 3q0 2 -4 3.5t-8.5 3t-8.5 5t-4 10.5q0 8 5.5 13t13.5 5q4 0 7 -1zM660 -31v-59h-18v41h-5l5 18h18zM696 -31q13 0 21.5 -9t8.5 -21t-8.5 -21t-21.5 -9q-14 0 -22 9t-8 21t8.5 21t21.5 9zM707 -61q0 5 -3 8.5t-8 3.5q-6 0 -9 -3.5
t-3 -8.5t3 -8.5t9 -3.5q5 0 8 3.5t3 8.5zM751 -64v-26h-18v41h-5l5 18h18l13 -22v22h19v-59h-16zM139 -132q13 0 21.5 -9t8.5 -22q0 -12 -8.5 -21t-21.5 -9q-14 0 -22 9.5t-8 21.5t8.5 21t21.5 9zM150 -163q0 12 -11 12q-12 0 -12 -12q0 -11 12 -11q11 0 11 11zM194 -166
v-26h-18v41h-5l6 18h17l13 -22v22h19v-59h-16zM273 -133v-19h12v19h18v-59h-18v21h-12v-21h-18v41h-4l5 18h17zM346 -192h-34v41h-4l5 18h21v2h18l-6 -20h-16v-4h21l-4 -14h-17v-4h21zM378 -178v-14h-19v41h-5l6 18h18q14 0 19 -5q8 -6 8 -17q0 -13 -9 -19l10 -18h-21z
M381 -151h-3v-10h2q7 0 7 5t-6 5zM442 -132q13 0 21.5 -9t8.5 -22q0 -12 -8.5 -21t-21.5 -9q-14 0 -22.5 9.5t-8.5 21.5t8.5 21t22.5 9zM454 -163q0 5 -3.5 8.5t-8.5 3.5q-12 0 -12 -12q0 -11 12 -11q5 0 8.5 3t3.5 8zM496 -192h-18v41h-4l5 18h21l1 2h17l-6 -20h-16v-4h19
l-4 -17h-15v-20zM553 -132q12 0 21 -9t9 -22q0 -12 -9 -21t-21 -9q-14 0 -22.5 9.5t-8.5 21.5t8.5 21t22.5 9zM564 -163q0 12 -11 12q-12 0 -12 -12q0 -11 12 -11q11 0 11 11zM607 -166v-26h-18v41h-5l5 18h18l14 -22v22h18v-59h-16zM671 -151v-41h-19v41h-9l6 18h19l1 2h17
l-6 -20h-9zM714 -131l15 -3l-5 -18q-8 3 -13 3q-4 0 -4 -1q0 -2 3.5 -3t8 -3t8 -6t3.5 -11q0 -20 -23 -20q-5 0 -9 1.5t-10 3.5l4 18q8 -5 15 -5q4 0 4 2t-4 3.5t-8.5 3t-8.5 5t-4 10.5q0 8 6 13.5t14 5.5q2 0 3.5 -0.5t3.5 -0.5zM744 -173q9 0 9 -10t-9 -10q-10 0 -10 10
t10 10zM791 -131l15 -6l-9 -18q-5 2 -6.5 3.5t-4.5 1.5q-12 0 -12 -12t12 -12q6 0 12 5l8 -16q-10 -8 -21 -8t-20.5 8.5t-9.5 22.5q0 12 9 21t21 9q2 0 5 -1zM839 -132q14 0 22 -9t8 -22q0 -12 -8 -21t-22 -9t-22 9.5t-8 21.5t8.5 21t21.5 9zM851 -163q0 12 -12 12t-12 -12
q0 -11 12 -11t12 11zM894 -161v-31h-18v41h-4l4 18h18l10 -13l10 13h19v-59h-18v31l-11 -12z" />
    <glyph glyph-name="nine" unicode="9" 
d="M889 383q0 -2 -0.5 -8t-1 -12.5t-1.5 -12.5t-1 -9q-1 -9 -3.5 -18t-4.5 -18q-17 -61 -51.5 -111.5t-81.5 -87t-105 -57t-122 -20.5q-79 0 -148 30.5t-118.5 82.5t-77.5 122t-26 149q2 0 2 3q1 47 14 90t38 83q8 14 20.5 31.5t28 34t31.5 30.5t31 21l1 3h3l2 2
q2 2 4.5 2.5t4.5 2.5q5 3 9 5.5t8 5.5q10 6 22 10.5t23 9.5q31 12 63 17.5t65 5.5q72 0 139.5 -26.5t119.5 -77.5q18 -18 33.5 -37t28.5 -41q4 -6 7 -13.5t6 -14.5q3 -5 5.5 -8.5t3.5 -8.5q6 -12 9.5 -24t7.5 -25q7 -29 9.5 -54.5t2.5 -56.5zM713 565q-26 -2 -52.5 -1.5
t-53.5 0.5h-20q-9 -27 -16 -54.5t-16 -54.5q4 -1 8.5 -0.5t9.5 0.5q7 0 10 -2v-243h109v119h83q6 25 14 49.5t14 49.5h-111q1 4 0.5 8t-0.5 8v5t2 4h92q7 30 16.5 59.5t16.5 59.5h-104q-3 -2 -2 -7zM248 560q-7 -26 -15 -52.5t-14 -52.5q4 -1 8.5 -0.5t9.5 0.5h4.5t4.5 -2
v-243h109v94v16t2 16q10 -1 20.5 -0.5t21.5 0.5h12t13 -1v-123q11 -2 21.5 -2h20.5q17 0 33.5 0.5t33.5 -0.5v354q-17 -1 -33.5 -0.5t-33.5 0.5q-21 0 -42 -2v-114h-69q0 17 0.5 35t0.5 36q0 22 -2 45h-103q-2 0 -2 -1.5t-1 -2.5zM260 -90h-19v41h-4l5 18h21l1 2h17l-5 -21
h-16v-4h19l-6 -17h-13v-19zM288 -49h-5l5 18h18v-32q0 -10 6 -10t6 10v32h18v-34q0 -26 -24 -26t-24 26v16zM363 -72h12l-6 -18h-24v41h-6l6 18h18v-41zM399 -72h12l-6 -18h-24v41h-5l5 18h18v-41zM488 -31l-19 -59h-17l-21 59h20l9 -28l9 28h19zM525 -90h-34v41h-4l5 18h21
l1 2h17l-5 -21h-16v-3h20l-4 -15h-16v-3h21zM556 -77v-13h-18v41h-5l5 18h18q8 0 12 -1t9 -4q7 -7 7 -17q0 -12 -10 -19l12 -18h-22zM559 -49h-3v-10h3q6 0 6 5t-6 5zM618 -29l16 -3l-6 -18q-8 3 -13 3q-4 0 -4 -2t3.5 -3t8 -2.5t8.5 -5.5t4 -11q0 -10 -6.5 -15t-17.5 -5
q-9 0 -19 5l4 18q4 -2 8.5 -4t6.5 -2q5 0 5 3q0 2 -4 3.5t-8.5 3t-8.5 5t-4 10.5q0 8 5.5 13t13.5 5q4 0 7 -1zM660 -31v-59h-18v41h-5l5 18h18zM696 -31q13 0 21.5 -9t8.5 -21t-8.5 -21t-21.5 -9q-14 0 -22 9t-8 21t8.5 21t21.5 9zM707 -61q0 5 -3 8.5t-8 3.5q-6 0 -9 -3.5
t-3 -8.5t3 -8.5t9 -3.5q5 0 8 3.5t3 8.5zM751 -64v-26h-18v41h-5l5 18h18l13 -22v22h19v-59h-16zM139 -132q13 0 21.5 -9t8.5 -22q0 -12 -8.5 -21t-21.5 -9q-14 0 -22 9.5t-8 21.5t8.5 21t21.5 9zM150 -163q0 12 -11 12q-12 0 -12 -12q0 -11 12 -11q11 0 11 11zM194 -166
v-26h-18v41h-5l6 18h17l13 -22v22h19v-59h-16zM273 -133v-19h12v19h18v-59h-18v21h-12v-21h-18v41h-4l5 18h17zM346 -192h-34v41h-4l5 18h21v2h18l-6 -20h-16v-4h21l-4 -14h-17v-4h21zM378 -178v-14h-19v41h-5l6 18h18q14 0 19 -5q8 -6 8 -17q0 -13 -9 -19l10 -18h-21z
M381 -151h-3v-10h2q7 0 7 5t-6 5zM442 -132q13 0 21.5 -9t8.5 -22q0 -12 -8.5 -21t-21.5 -9q-14 0 -22.5 9.5t-8.5 21.5t8.5 21t22.5 9zM454 -163q0 5 -3.5 8.5t-8.5 3.5q-12 0 -12 -12q0 -11 12 -11q5 0 8.5 3t3.5 8zM496 -192h-18v41h-4l5 18h21l1 2h17l-6 -20h-16v-4h19
l-4 -17h-15v-20zM553 -132q12 0 21 -9t9 -22q0 -12 -9 -21t-21 -9q-14 0 -22.5 9.5t-8.5 21.5t8.5 21t22.5 9zM564 -163q0 12 -11 12q-12 0 -12 -12q0 -11 12 -11q11 0 11 11zM607 -166v-26h-18v41h-5l5 18h18l14 -22v22h18v-59h-16zM671 -151v-41h-19v41h-9l6 18h19l1 2h17
l-6 -20h-9zM714 -131l15 -3l-5 -18q-8 3 -13 3q-4 0 -4 -1q0 -2 3.5 -3t8 -3t8 -6t3.5 -11q0 -20 -23 -20q-5 0 -9 1.5t-10 3.5l4 18q8 -5 15 -5q4 0 4 2t-4 3.5t-8.5 3t-8.5 5t-4 10.5q0 8 6 13.5t14 5.5q2 0 3.5 -0.5t3.5 -0.5zM744 -173q9 0 9 -10t-9 -10q-10 0 -10 10
t10 10zM791 -131l15 -6l-9 -18q-5 2 -6.5 3.5t-4.5 1.5q-12 0 -12 -12t12 -12q6 0 12 5l8 -16q-10 -8 -21 -8t-20.5 8.5t-9.5 22.5q0 12 9 21t21 9q2 0 5 -1zM839 -132q14 0 22 -9t8 -22q0 -12 -8 -21t-22 -9t-22 9.5t-8 21.5t8.5 21t21.5 9zM851 -163q0 12 -12 12t-12 -12
q0 -11 12 -11t12 11zM894 -161v-31h-18v41h-4l4 18h18l10 -13l10 13h19v-59h-18v31l-11 -12z" />
    <glyph glyph-name="summation" unicode="&#x2211;" horiz-adv-x="833" 
d="M222 -204q59 -12 109 5t93 58q27 26 42.5 58.5t21.5 69.5q6 40 10.5 80t9.5 80h-6q-2 4 -4 7.5t-3 7.5q-2 14 -2.5 28.5t-2.5 30.5q-2 -5 -2.5 -8t-2.5 -5q-3 -3 -6.5 -6t-7.5 -6q-2 5 -5.5 8.5t-3.5 8.5q0 18 3 35q2 13 5 25.5t3 25.5q1 23 -10.5 40t-31.5 29
q-5 -6 -9 -12.5t-9 -14.5v15q-9 -16 -17.5 -31.5t-17.5 -30.5q-1 0 -2 1q1 7 2 13t2 13q-9 -21 -24.5 -35t-35.5 -25q26 44 17 95q-15 -69 -78 -107q8 14 15 26t14 25q-1 0 -3 2q-11 -14 -24.5 -26t-30.5 -20q17 20 28 43t15 51q-11 -16 -22 -31.5t-24.5 -27.5t-30 -20.5
t-37.5 -11.5q21 13 37.5 30.5t26.5 41.5q-14 -14 -28.5 -27t-30.5 -21.5t-34.5 -11t-40.5 4.5q20 8 37.5 20t31.5 28q-25 -12 -50 -18.5t-53 7.5q23 2 42 13t38 24q-59 -15 -106 17q15 3 30.5 6.5t31.5 6.5v3q-13 3 -25.5 5.5t-23.5 7.5t-21.5 12t-21.5 15q1 1 1 1.5t1 1.5
q10 -4 19.5 -7t19.5 -6q85 -26 147 33q20 18 41 32.5t47 22.5q10 3 18.5 11t17.5 14q-9 7 -17 12.5t-17 9.5q-5 2 -10.5 2t-11.5 -1q-30 -3 -56 11q16 7 31 14t30 15q3 2 6 5t5 6q5 5 10 10.5t11 9.5q12 8 25 14t27 13q-1 -4 -1.5 -8.5t-2.5 -9.5q14 5 27.5 9t27.5 9
q-2 -6 -4 -11.5t-4 -11.5q6 1 11.5 2t12.5 2l-4 -10t-4 -11q7 2 17 4q-5 -9 -8.5 -17.5t-8.5 -16.5l3 -3l7.5 7.5t7.5 8.5q5 5 9 10.5t9 10.5q14 11 25 24t18 29h4q-1 -11 -1.5 -21t-1.5 -20q23 15 29.5 31t-0.5 42q21 -14 16 -60q8 14 13 27.5t0 27.5q-5 16 -11 31.5
t-11 29.5q8 -2 18.5 -12.5t18.5 -25.5t12 -33.5t0 -37.5q6 6 11.5 18t9.5 27t6.5 30t1.5 27q18 -13 20 -58q1 -17 -7 -30.5t-20 -25.5q10 2 20.5 9.5t19.5 18t14.5 22.5t7.5 24q9 -17 8.5 -39.5t-20.5 -42.5q31 6 53 55q1 -25 -6 -45t-21 -40q16 8 31.5 16t30.5 16
q-2 -15 -9 -28.5t-16 -27.5q8 4 15.5 7.5t15.5 7.5q0 -17 -5.5 -31.5t-14.5 -25t-21.5 -15.5t-25.5 -3q-5 -31 -35 -35q-2 0 -3 -0.5t-2 -0.5q-37 -30 -78 -2q-10 7 -19.5 13.5t-21.5 14.5q3 -8 5 -13.5t3 -11.5q3 -11 5.5 -21.5t4.5 -21.5q4 -21 16.5 -36t27.5 -29
t29 -27.5t20 -33.5q1 -1 1 -5q-5 -1 -8.5 -1.5t-6.5 -0.5q3 -15 6 -29.5t5 -29.5q1 -7 0 -13q-2 -13 -7 -16.5t-19 -1.5q-2 -20 -3.5 -39t-4.5 -39q-7 -45 -15 -89.5t-13 -90.5q-8 -63 -36.5 -114.5t-69.5 -97.5q-26 -29 -57.5 -47t-71.5 -21h-10q-5 0 -10 0.5t-10 0.5
q0 2 1 2q38 3 67.5 21.5t54.5 44.5q38 40 63 86.5t41 99.5q7 23 11 46t9 46q-2 0 -4 1q-1 -5 -2 -9l-2 -8q-1 -5 -2 -9t-2 -9q-10 -47 -31.5 -86.5t-57.5 -71.5q-55 -48 -127 -55q-23 -2 -48 6t-38 20z" />
    <glyph glyph-name="minus" unicode="&#x2212;" horiz-adv-x="384" 
d="M52 228q-8 0 -13.5 4t-5.5 9v16q0 5 5.5 9t13.5 4h363q8 0 13.5 -4t5.5 -9v-16q0 -5 -5.5 -9t-13.5 -4h-363z" />
    <glyph glyph-name="multiply" unicode="&#xd7;" horiz-adv-x="201" 
d="M70 247l-113 114q-5 5 -6.5 11.5t2.5 10.5l11 12q4 3 11 1.5t12 -6.5l112 -113l115 115q6 5 12.5 6.5t9.5 -1.5l11 -12q4 -3 3 -10t-6 -13l-115 -115l115 -114q5 -5 6 -11.5t-2 -10.5l-11 -11q-4 -4 -10.5 -3t-12.5 6l-115 115l-112 -112q-5 -5 -12.5 -6.5t-10.5 2.5
l-12 11q-3 3 -1.5 10t6.5 12z" />
    <glyph glyph-name="brokenbar" unicode="&#xa6;" horiz-adv-x="-58" 
d="M-8 17q0 -8 -4 -13.5t-9 -4.5l-16 -1q-5 0 -9 5.5t-4 13.5l1 288q-1 8 3 14t9 5l16 1q5 -1 9 -6.5t4 -13.5v-288zM-8 526q0 -19 -13 -19h-16q-5 0 -9 5.5t-4 12.5l1 288q-1 8 3 14t9 5l16 1q5 -1 9 -6.5t4 -13.5v-287z" />
    <glyph glyph-name="onehalf" unicode="&#xbd;" 
d="M889 383q0 -2 -0.5 -8t-1 -12.5t-1.5 -12.5t-1 -9q-1 -9 -3.5 -18t-4.5 -18q-17 -61 -51.5 -111.5t-81.5 -87t-105 -57t-122 -20.5q-79 0 -148 30.5t-118.5 82.5t-77.5 122t-26 149q2 0 2 3q1 47 14 90t38 83q8 14 20.5 31.5t28 34t31.5 30.5t31 21l1 3h3l2 2
q2 2 4.5 2.5t4.5 2.5q5 3 9 5.5t8 5.5q10 6 22 10.5t23 9.5q31 12 63 17.5t65 5.5q72 0 139.5 -26.5t119.5 -77.5q18 -18 33.5 -37t28.5 -41q4 -6 7 -13.5t6 -14.5q3 -5 5.5 -8.5t3.5 -8.5q6 -12 9.5 -24t7.5 -25q7 -29 9.5 -54.5t2.5 -56.5zM713 565q-26 -2 -52.5 -1.5
t-53.5 0.5h-20q-9 -27 -16 -54.5t-16 -54.5q4 -1 8.5 -0.5t9.5 0.5q7 0 10 -2v-243h109v119h83q6 25 14 49.5t14 49.5h-111q1 4 0.5 8t-0.5 8v5t2 4h92q7 30 16.5 59.5t16.5 59.5h-104q-3 -2 -2 -7zM248 560q-7 -26 -15 -52.5t-14 -52.5q4 -1 8.5 -0.5t9.5 0.5h4.5t4.5 -2
v-243h109v94v16t2 16q10 -1 20.5 -0.5t21.5 0.5h12t13 -1v-123q11 -2 21.5 -2h20.5q17 0 33.5 0.5t33.5 -0.5v354q-17 -1 -33.5 -0.5t-33.5 0.5q-21 0 -42 -2v-114h-69q0 17 0.5 35t0.5 36q0 22 -2 45h-103q-2 0 -2 -1.5t-1 -2.5zM260 -90h-19v41h-4l5 18h21l1 2h17l-5 -21
h-16v-4h19l-6 -17h-13v-19zM288 -49h-5l5 18h18v-32q0 -10 6 -10t6 10v32h18v-34q0 -26 -24 -26t-24 26v16zM363 -72h12l-6 -18h-24v41h-6l6 18h18v-41zM399 -72h12l-6 -18h-24v41h-5l5 18h18v-41zM488 -31l-19 -59h-17l-21 59h20l9 -28l9 28h19zM525 -90h-34v41h-4l5 18h21
l1 2h17l-5 -21h-16v-3h20l-4 -15h-16v-3h21zM556 -77v-13h-18v41h-5l5 18h18q8 0 12 -1t9 -4q7 -7 7 -17q0 -12 -10 -19l12 -18h-22zM559 -49h-3v-10h3q6 0 6 5t-6 5zM618 -29l16 -3l-6 -18q-8 3 -13 3q-4 0 -4 -2t3.5 -3t8 -2.5t8.5 -5.5t4 -11q0 -10 -6.5 -15t-17.5 -5
q-9 0 -19 5l4 18q4 -2 8.5 -4t6.5 -2q5 0 5 3q0 2 -4 3.5t-8.5 3t-8.5 5t-4 10.5q0 8 5.5 13t13.5 5q4 0 7 -1zM660 -31v-59h-18v41h-5l5 18h18zM696 -31q13 0 21.5 -9t8.5 -21t-8.5 -21t-21.5 -9q-14 0 -22 9t-8 21t8.5 21t21.5 9zM707 -61q0 5 -3 8.5t-8 3.5q-6 0 -9 -3.5
t-3 -8.5t3 -8.5t9 -3.5q5 0 8 3.5t3 8.5zM751 -64v-26h-18v41h-5l5 18h18l13 -22v22h19v-59h-16zM139 -132q13 0 21.5 -9t8.5 -22q0 -12 -8.5 -21t-21.5 -9q-14 0 -22 9.5t-8 21.5t8.5 21t21.5 9zM150 -163q0 12 -11 12q-12 0 -12 -12q0 -11 12 -11q11 0 11 11zM194 -166
v-26h-18v41h-5l6 18h17l13 -22v22h19v-59h-16zM273 -133v-19h12v19h18v-59h-18v21h-12v-21h-18v41h-4l5 18h17zM346 -192h-34v41h-4l5 18h21v2h18l-6 -20h-16v-4h21l-4 -14h-17v-4h21zM378 -178v-14h-19v41h-5l6 18h18q14 0 19 -5q8 -6 8 -17q0 -13 -9 -19l10 -18h-21z
M381 -151h-3v-10h2q7 0 7 5t-6 5zM442 -132q13 0 21.5 -9t8.5 -22q0 -12 -8.5 -21t-21.5 -9q-14 0 -22.5 9.5t-8.5 21.5t8.5 21t22.5 9zM454 -163q0 5 -3.5 8.5t-8.5 3.5q-12 0 -12 -12q0 -11 12 -11q5 0 8.5 3t3.5 8zM496 -192h-18v41h-4l5 18h21l1 2h17l-6 -20h-16v-4h19
l-4 -17h-15v-20zM553 -132q12 0 21 -9t9 -22q0 -12 -9 -21t-21 -9q-14 0 -22.5 9.5t-8.5 21.5t8.5 21t22.5 9zM564 -163q0 12 -11 12q-12 0 -12 -12q0 -11 12 -11q11 0 11 11zM607 -166v-26h-18v41h-5l5 18h18l14 -22v22h18v-59h-16zM671 -151v-41h-19v41h-9l6 18h19l1 2h17
l-6 -20h-9zM714 -131l15 -3l-5 -18q-8 3 -13 3q-4 0 -4 -1q0 -2 3.5 -3t8 -3t8 -6t3.5 -11q0 -20 -23 -20q-5 0 -9 1.5t-10 3.5l4 18q8 -5 15 -5q4 0 4 2t-4 3.5t-8.5 3t-8.5 5t-4 10.5q0 8 6 13.5t14 5.5q2 0 3.5 -0.5t3.5 -0.5zM744 -173q9 0 9 -10t-9 -10q-10 0 -10 10
t10 10zM791 -131l15 -6l-9 -18q-5 2 -6.5 3.5t-4.5 1.5q-12 0 -12 -12t12 -12q6 0 12 5l8 -16q-10 -8 -21 -8t-20.5 8.5t-9.5 22.5q0 12 9 21t21 9q2 0 5 -1zM839 -132q14 0 22 -9t8 -22q0 -12 -8 -21t-22 -9t-22 9.5t-8 21.5t8.5 21t21.5 9zM851 -163q0 12 -12 12t-12 -12
q0 -11 12 -11t12 11zM894 -161v-31h-18v41h-4l4 18h18l10 -13l10 13h19v-59h-18v31l-11 -12z" />
    <glyph glyph-name="onequarter" unicode="&#xbc;" 
d="M889 383q0 -2 -0.5 -8t-1 -12.5t-1.5 -12.5t-1 -9q-1 -9 -3.5 -18t-4.5 -18q-17 -61 -51.5 -111.5t-81.5 -87t-105 -57t-122 -20.5q-79 0 -148 30.5t-118.5 82.5t-77.5 122t-26 149q2 0 2 3q1 47 14 90t38 83q8 14 20.5 31.5t28 34t31.5 30.5t31 21l1 3h3l2 2
q2 2 4.5 2.5t4.5 2.5q5 3 9 5.5t8 5.5q10 6 22 10.5t23 9.5q31 12 63 17.5t65 5.5q72 0 139.5 -26.5t119.5 -77.5q18 -18 33.5 -37t28.5 -41q4 -6 7 -13.5t6 -14.5q3 -5 5.5 -8.5t3.5 -8.5q6 -12 9.5 -24t7.5 -25q7 -29 9.5 -54.5t2.5 -56.5zM713 565q-26 -2 -52.5 -1.5
t-53.5 0.5h-20q-9 -27 -16 -54.5t-16 -54.5q4 -1 8.5 -0.5t9.5 0.5q7 0 10 -2v-243h109v119h83q6 25 14 49.5t14 49.5h-111q1 4 0.5 8t-0.5 8v5t2 4h92q7 30 16.5 59.5t16.5 59.5h-104q-3 -2 -2 -7zM248 560q-7 -26 -15 -52.5t-14 -52.5q4 -1 8.5 -0.5t9.5 0.5h4.5t4.5 -2
v-243h109v94v16t2 16q10 -1 20.5 -0.5t21.5 0.5h12t13 -1v-123q11 -2 21.5 -2h20.5q17 0 33.5 0.5t33.5 -0.5v354q-17 -1 -33.5 -0.5t-33.5 0.5q-21 0 -42 -2v-114h-69q0 17 0.5 35t0.5 36q0 22 -2 45h-103q-2 0 -2 -1.5t-1 -2.5zM260 -90h-19v41h-4l5 18h21l1 2h17l-5 -21
h-16v-4h19l-6 -17h-13v-19zM288 -49h-5l5 18h18v-32q0 -10 6 -10t6 10v32h18v-34q0 -26 -24 -26t-24 26v16zM363 -72h12l-6 -18h-24v41h-6l6 18h18v-41zM399 -72h12l-6 -18h-24v41h-5l5 18h18v-41zM488 -31l-19 -59h-17l-21 59h20l9 -28l9 28h19zM525 -90h-34v41h-4l5 18h21
l1 2h17l-5 -21h-16v-3h20l-4 -15h-16v-3h21zM556 -77v-13h-18v41h-5l5 18h18q8 0 12 -1t9 -4q7 -7 7 -17q0 -12 -10 -19l12 -18h-22zM559 -49h-3v-10h3q6 0 6 5t-6 5zM618 -29l16 -3l-6 -18q-8 3 -13 3q-4 0 -4 -2t3.5 -3t8 -2.5t8.5 -5.5t4 -11q0 -10 -6.5 -15t-17.5 -5
q-9 0 -19 5l4 18q4 -2 8.5 -4t6.5 -2q5 0 5 3q0 2 -4 3.5t-8.5 3t-8.5 5t-4 10.5q0 8 5.5 13t13.5 5q4 0 7 -1zM660 -31v-59h-18v41h-5l5 18h18zM696 -31q13 0 21.5 -9t8.5 -21t-8.5 -21t-21.5 -9q-14 0 -22 9t-8 21t8.5 21t21.5 9zM707 -61q0 5 -3 8.5t-8 3.5q-6 0 -9 -3.5
t-3 -8.5t3 -8.5t9 -3.5q5 0 8 3.5t3 8.5zM751 -64v-26h-18v41h-5l5 18h18l13 -22v22h19v-59h-16zM139 -132q13 0 21.5 -9t8.5 -22q0 -12 -8.5 -21t-21.5 -9q-14 0 -22 9.5t-8 21.5t8.5 21t21.5 9zM150 -163q0 12 -11 12q-12 0 -12 -12q0 -11 12 -11q11 0 11 11zM194 -166
v-26h-18v41h-5l6 18h17l13 -22v22h19v-59h-16zM273 -133v-19h12v19h18v-59h-18v21h-12v-21h-18v41h-4l5 18h17zM346 -192h-34v41h-4l5 18h21v2h18l-6 -20h-16v-4h21l-4 -14h-17v-4h21zM378 -178v-14h-19v41h-5l6 18h18q14 0 19 -5q8 -6 8 -17q0 -13 -9 -19l10 -18h-21z
M381 -151h-3v-10h2q7 0 7 5t-6 5zM442 -132q13 0 21.5 -9t8.5 -22q0 -12 -8.5 -21t-21.5 -9q-14 0 -22.5 9.5t-8.5 21.5t8.5 21t22.5 9zM454 -163q0 5 -3.5 8.5t-8.5 3.5q-12 0 -12 -12q0 -11 12 -11q5 0 8.5 3t3.5 8zM496 -192h-18v41h-4l5 18h21l1 2h17l-6 -20h-16v-4h19
l-4 -17h-15v-20zM553 -132q12 0 21 -9t9 -22q0 -12 -9 -21t-21 -9q-14 0 -22.5 9.5t-8.5 21.5t8.5 21t22.5 9zM564 -163q0 12 -11 12q-12 0 -12 -12q0 -11 12 -11q11 0 11 11zM607 -166v-26h-18v41h-5l5 18h18l14 -22v22h18v-59h-16zM671 -151v-41h-19v41h-9l6 18h19l1 2h17
l-6 -20h-9zM714 -131l15 -3l-5 -18q-8 3 -13 3q-4 0 -4 -1q0 -2 3.5 -3t8 -3t8 -6t3.5 -11q0 -20 -23 -20q-5 0 -9 1.5t-10 3.5l4 18q8 -5 15 -5q4 0 4 2t-4 3.5t-8.5 3t-8.5 5t-4 10.5q0 8 6 13.5t14 5.5q2 0 3.5 -0.5t3.5 -0.5zM744 -173q9 0 9 -10t-9 -10q-10 0 -10 10
t10 10zM791 -131l15 -6l-9 -18q-5 2 -6.5 3.5t-4.5 1.5q-12 0 -12 -12t12 -12q6 0 12 5l8 -16q-10 -8 -21 -8t-20.5 8.5t-9.5 22.5q0 12 9 21t21 9q2 0 5 -1zM839 -132q14 0 22 -9t8 -22q0 -12 -8 -21t-22 -9t-22 9.5t-8 21.5t8.5 21t21.5 9zM851 -163q0 12 -12 12t-12 -12
q0 -11 12 -11t12 11zM894 -161v-31h-18v41h-4l4 18h18l10 -13l10 13h19v-59h-18v31l-11 -12z" />
    </font>
</defs>
</svg>
