<?xml version="1.0" standalone="no"?>
<!DOCTYPE svg PUBLIC "-//W3C//DTD SVG 1.1//EN" "http://www.w3.org/Graphics/SVG/1.1/DTD/svg11.dtd" >
<svg xmlns="http://www.w3.org/2000/svg" xmlns:xlink="http://www.w3.org/1999/xlink" version="1.1">
<metadata>
Created by FontForge 20190801 at Wed Aug 19 10:05:24 2015
 By Jimmy Wärting
Copyright (c) 1992-2015 AsiaSoft Inc. Seoul Korea All Rights Reserved. http://www.asiasoft.co.kr
</metadata>
<defs>
<font id="KoreanYNSJG2-R" horiz-adv-x="948" >
  <font-face 
    font-family="KoreanYNSJG2R"
    font-weight="400"
    font-stretch="normal"
    units-per-em="1000"
    panose-1="2 2 6 0 0 0 0 0 0 0"
    ascent="800"
    descent="-200"
    x-height="556"
    cap-height="667"
    bbox="-194 -244 993 834"
    underline-thickness="0"
    underline-position="0"
    unicode-range="U+0020-FFE6"
  />
<missing-glyph 
 />
    <glyph glyph-name=".notdef" 
 />
    <glyph glyph-name="glyph1" horiz-adv-x="0" 
 />
    <glyph glyph-name="glyph2" horiz-adv-x="333" 
 />
    <glyph glyph-name="space" unicode=" " horiz-adv-x="316" 
 />
    <glyph glyph-name="exclam" unicode="!" horiz-adv-x="352" 
d="M206 96h-62l-7 672h76zM115 -90q0 28 17 45.5t43 17.5q27 0 44 -17.5t17 -45.5q0 -27 -17.5 -44t-43.5 -17t-43 17t-17 44z" />
    <glyph glyph-name="quotedbl" unicode="&#x22;" horiz-adv-x="445" 
d="M171 530h-52l-8 272h68zM324 530h-52l-7 272h67z" />
    <glyph glyph-name="numbersign" unicode="#" horiz-adv-x="868" 
d="M733 745l-65 -213h151v-57h-168l-85 -281h194v-56h-210l-79 -266h-66l78 266h-216l-79 -266h-67l81 266h-154v56h170l85 281h-195v57h212l64 213h67l-65 -213h217l64 213h66zM501 194l84 281h-216l-84 -281h216z" />
    <glyph glyph-name="dollar" unicode="$" horiz-adv-x="618" 
d="M345 -198h-51v82h-1q-93 0 -162 46.5t-69 135.5v39h64v-30q0 -65 47.5 -99t120.5 -36v371l-96 42q-31 13 -48 22.5t-40.5 26.5t-35 41t-11.5 54v67q0 44 21.5 77.5t57 51.5t73.5 27t79 11v69h51v-70q84 -9 139.5 -50t55.5 -111v-36h-63v27q0 49 -38.5 76t-93.5 37v-318
l62 -27q76 -32 112 -65.5t36 -86.5v-118q0 -74 -56 -119.5t-154 -53.5v-83zM386 271l-41 15v-343q66 6 106 39.5t40 87.5v82q0 81 -105 119zM127 546v-23q0 -44 26 -68.5t78 -47.5l63 -28v296q-167 -4 -167 -129z" />
    <glyph glyph-name="percent" unicode="%" horiz-adv-x="957" 
d="M729 758l-431 -900h-66l429 900h68zM407 613v-158q0 -72 -44 -113t-122 -41q-77 0 -120.5 40.5t-43.5 113.5v158q0 73 44 113.5t121 40.5t121 -41t44 -113zM347 464v140q0 57 -30 83t-76 26q-47 0 -75.5 -26.5t-28.5 -82.5v-132q0 -52 27.5 -84.5t76.5 -32.5
q47 0 77 29.5t29 79.5zM876 154v-157q0 -72 -43.5 -112.5t-121.5 -40.5q-77 0 -121 40.5t-44 112.5v157q0 73 44 113.5t121 40.5q78 0 121.5 -40.5t43.5 -113.5zM816 6v139q0 57 -30 83t-75 26q-106 0 -106 -109v-131q0 -53 28 -84.5t78 -31.5q47 0 76 27t29 81z" />
    <glyph glyph-name="ampersand" unicode="&#x26;" horiz-adv-x="811" 
d="M753 -126h-80l-75 94q-131 -105 -274 -105q-122 0 -194.5 59.5t-66.5 175.5q3 68 53 130t153 140q-11 12 -23.5 28.5t-25.5 33.5t-25 37t-21.5 39t-15 40.5t-5.5 41.5q0 55 19 94t53 59t70 28.5t78 8.5q77 0 133 -48t55 -142q0 -66 -48.5 -120.5t-140.5 -117.5l234 -297
q66 58 90 126h72q-36 -101 -120 -173zM555 15l-247 307q-95 -75 -135.5 -124.5t-42.5 -103.5q-4 -83 46.5 -126t152.5 -43q51 0 113.5 22.5t112.5 67.5zM495 585q0 64 -37 100t-96 36q-60 0 -99.5 -32t-39.5 -103q0 -28 20 -65t36.5 -58t53.5 -66q81 58 121.5 100.5
t40.5 87.5z" />
    <glyph glyph-name="quotesingle" unicode="'" horiz-adv-x="330" 
d="M192 530h-55l-7 272h70z" />
    <glyph glyph-name="parenleft" unicode="(" horiz-adv-x="362" 
d="M272 -179h-53q-49 89 -75 224t-26 255t25.5 257t72.5 227h54q-40 -95 -64 -229.5t-24 -247.5q0 -117 24 -253.5t66 -232.5z" />
    <glyph glyph-name="parenright" unicode=")" horiz-adv-x="362" 
d="M245 300q0 -119 -26 -255t-75 -225h-54q42 97 66.5 234t24.5 253q0 114 -24.5 248t-64.5 230h55q47 -91 72.5 -228.5t25.5 -256.5z" />
    <glyph glyph-name="asterisk" unicode="*" horiz-adv-x="600" 
d="M495 714l28 -52l-170 -96l171 -96l-30 -49l-169 97l1 -196h-59l1 193l-163 -94l-30 49l170 97l-170 96l30 51l163 -96l-1 167h59v-170z" />
    <glyph glyph-name="plus" unicode="+" horiz-adv-x="600" 
d="M96 294v56h169v176h64v-176h173v-56h-173v-187h-64v187h-169z" />
    <glyph glyph-name="comma" unicode="," horiz-adv-x="330" 
d="M198 -80q-1 -42 -29.5 -80.5t-56.5 -53.5l-32 13q46 32 52 76q-26 0 -42.5 15t-16.5 44q0 26 18.5 43.5t45.5 17.5q30 0 45.5 -22.5t15.5 -52.5z" />
    <glyph glyph-name="hyphen" unicode="-" horiz-adv-x="600" 
d="M114 294v58h370v-58h-370z" />
    <glyph glyph-name="period" unicode="." horiz-adv-x="330" 
d="M78 -83q0 28 17 45.5t44 17.5q26 0 43 -17.5t17 -45.5q0 -27 -17 -45t-43 -18q-27 0 -44 18t-17 45z" />
    <glyph glyph-name="slash" unicode="/" horiz-adv-x="600" 
d="M504 758l-342 -900h-67l341 900h68z" />
    <glyph glyph-name="zero" unicode="0" horiz-adv-x="630" 
d="M547 594v-573q0 -85 -65 -132.5t-168 -47.5t-167.5 47.5t-64.5 132.5v573q0 85 64.5 132t167.5 47t168 -47t65 -132zM482 40v535q0 142 -168 142t-168 -142v-535q0 -142 168 -142t168 142z" />
    <glyph glyph-name="one" unicode="1" horiz-adv-x="630" 
d="M391 -143h-65v823l-195 -101l-26 50l234 130h52v-902z" />
    <glyph glyph-name="two" unicode="2" horiz-adv-x="630" 
d="M563 -143h-480v69l343 439q57 74 57 148v63q0 59 -44 100t-135 41q-87 0 -130.5 -44t-43.5 -102v-62h-63v60q0 92 67 148.5t170 56.5q105 0 173.5 -50t68.5 -142v-84q0 -82 -56 -150l-339 -433h412v-58z" />
    <glyph glyph-name="three" unicode="3" horiz-adv-x="630" 
d="M139 582h-66q15 94 76.5 143.5t155.5 48.5q103 0 166 -51t63 -128v-72q0 -54 -27.5 -102t-88.5 -75q72 -23 107 -76.5t35 -116.5v-78q0 -105 -68 -169.5t-206 -64.5q-88 0 -155 52t-79 143h66q13 -69 58.5 -104t114.5 -35q108 0 156 50.5t48 131.5v80q0 64 -49 110
t-135 48h-68v56h64q88 4 125.5 50.5t37.5 110.5v41q0 67 -44 104.5t-131 37.5q-66 0 -105.5 -37t-50.5 -98z" />
    <glyph glyph-name="four" unicode="4" horiz-adv-x="630" 
d="M49 30v55l374 678h79v-676h85v-57h-85v-172h-61v172h-392zM114 87h327v591z" />
    <glyph glyph-name="five" unicode="5" horiz-adv-x="630" 
d="M553 259v-212q0 -91 -68.5 -148.5t-186.5 -57.5q-85 0 -144.5 46t-80.5 134h65q43 -124 161 -124q85 0 137.5 40t52.5 123v176q0 75 -52 117t-129 42q-47 0 -90 -25t-67 -62h-65l61 451h383v-57h-328l-42 -315q64 64 162 64q90 2 160.5 -50t70.5 -142z" />
    <glyph glyph-name="six" unicode="6" horiz-adv-x="630" 
d="M555 266v-231q0 -83 -69 -138.5t-172 -55.5q-106 0 -173 56.5t-67 134.5v229q0 41 13.5 86t28.5 71l183 340h72l-193 -360q16 16 35.5 27.5t34 17t33.5 8t28 3t25 0.5l15 -1q71 0 138.5 -53t67.5 -134zM491 41v228q0 46 -50 87.5t-127 41.5q-74 0 -124.5 -45t-50.5 -89
v-225q0 -55 47 -99t128 -44q80 0 128.5 43.5t48.5 101.5z" />
    <glyph glyph-name="seven" unicode="7" horiz-adv-x="630" 
d="M563 702l-290 -845h-73l294 845h-432v57h501v-57z" />
    <glyph glyph-name="eight" unicode="8" horiz-adv-x="630" 
d="M312 -159q-119 0 -188 59.5t-69 166.5v78q0 155 138 201q-112 48 -112 175v50q0 93 62.5 148t168.5 55q109 0 173 -55t64 -148v-50q0 -31 -8 -60.5t-35 -63t-71 -51.5q139 -47 139 -201v-78q0 -107 -70 -166.5t-192 -59.5zM312 318q-91 1 -142 -44t-51 -120v-89
q0 -80 50 -125t143 -45q96 0 147 45t51 125v89q0 73 -52.5 118.5t-145.5 45.5zM312 718q-83 0 -125.5 -42.5t-42.5 -116.5v-19q0 -80 38 -123.5t130 -43.5q97 0 135.5 43.5t38.5 123.5v19q0 75 -43 117t-131 42z" />
    <glyph glyph-name="nine" unicode="9" horiz-adv-x="630" 
d="M74 343v237q0 83 69.5 138.5t172.5 55.5q106 0 172.5 -56.5t66.5 -134.5v-251q0 -65 -42 -142l-176 -334h-73l188 350q-28 -28 -67 -41.5t-63 -11t-40 0.5q-71 0 -139.5 54t-68.5 135zM139 573v-235q0 -46 50 -87.5t127 -41.5q74 0 124.5 44.5t50.5 89.5v232q0 55 -47 99
t-128 44q-80 0 -128.5 -43.5t-48.5 -101.5z" />
    <glyph glyph-name="colon" unicode=":" horiz-adv-x="330" 
d="M101 553q0 30 18 48.5t46 18.5q27 0 45 -18.5t18 -48.5q0 -28 -18 -46.5t-45 -18.5q-28 0 -46 18.5t-18 46.5zM101 103q0 29 18 48t46 19q27 0 45 -19t18 -48t-18 -47.5t-45 -18.5q-28 0 -46 18.5t-18 47.5z" />
    <glyph glyph-name="semicolon" unicode=";" horiz-adv-x="330" 
d="M101 553q0 30 18 48.5t46 18.5q27 0 45 -18.5t18 -48.5q0 -28 -18 -46.5t-45 -18.5q-28 0 -46 18.5t-18 46.5zM231 97q-1 -46 -31.5 -90t-59.5 -61l-30 14q43 33 53 89q-27 -4 -45.5 15.5t-17.5 52.5q1 24 19 41.5t43 19.5q33 1 51.5 -23t17.5 -58z" />
    <glyph glyph-name="less" unicode="&#x3c;" horiz-adv-x="482" 
d="M461 746v-87l-340 -358l340 -358v-88l-407 421v48z" />
    <glyph glyph-name="equal" unicode="=" horiz-adv-x="600" 
d="M106 425v57h387v-57h-387zM106 161v57h387v-57h-387z" />
    <glyph glyph-name="greater" unicode="&#x3e;" horiz-adv-x="484" 
d="M423 276l-407 -421v88l340 358l-340 358v86l407 -421v-48z" />
    <glyph glyph-name="question" unicode="?" horiz-adv-x="661" 
d="M584 558q0 -99 -44.5 -159t-129.5 -97q-72 -33 -72 -126v-94h-66v91q0 135 95 172q151 63 151 214q0 76 -50 120t-134 44q-80 0 -128 -39t-58 -114h-69q14 106 82 158t178 52q114 0 179.5 -58t65.5 -164zM243 -90q0 28 17 45.5t44 17.5q26 0 43 -17.5t17 -45.5
q0 -27 -17 -44t-43 -17q-27 0 -44 17t-17 44z" />
    <glyph glyph-name="at" unicode="@" horiz-adv-x="892" 
d="M826 516v-421q0 -108 -64 -165.5t-168 -57.5h-301q-104 0 -167.5 57.5t-63.5 165.5v421q0 109 63.5 166.5t167.5 57.5h301q105 0 168.5 -57.5t63.5 -166.5zM769 81v448q0 65 -45.5 111.5t-118.5 46.5h-323q-71 0 -117 -47t-46 -111v-448q0 -63 46.5 -109.5t116.5 -46.5
h323q77 0 120.5 45.5t43.5 110.5zM227 227v160q0 78 48.5 128t131.5 50q107 0 158 -72v72h60v-517h-58v62q-48 -71 -151 -71q-84 0 -136.5 47.5t-52.5 140.5zM286 367v-136q0 -71 39.5 -104t100.5 -33q63 0 101.5 34.5t38.5 92.5v160q0 57 -39.5 93t-95.5 36
q-145 0 -145 -143z" />
    <glyph glyph-name="A" unicode="A" horiz-adv-x="755" 
d="M102 -142h-67l281 900h121l281 -900h-66l-76 241h-399zM361 700l-167 -543h365l-165 543h-33z" />
    <glyph glyph-name="B" unicode="B" horiz-adv-x="705" 
d="M607 586v-72q0 -56 -26.5 -101t-83.5 -65q72 -20 107.5 -66t35.5 -107v-108q0 -98 -68.5 -154t-176.5 -56h-314v902h279q116 0 181.5 -43t65.5 -130zM576 69v105q0 72 -53.5 107.5t-152.5 35.5h-225v-402h233q91 0 144.5 41.5t53.5 112.5zM542 530v31q0 75 -43 107.5
t-156 32.5h-198v-327h213q107 0 145.5 38t38.5 118z" />
    <glyph glyph-name="C" unicode="C" horiz-adv-x="646" 
d="M518 67h65v-55q0 -81 -70.5 -126t-187.5 -45q-106 0 -180 51t-74 140v552q0 89 74.5 139t181.5 50q110 0 181.5 -44t71.5 -125v-47h-65v31q0 38 -17.5 65t-47.5 40t-59.5 18.5t-63.5 5.5t-64.5 -6.5t-60.5 -22t-48 -45.5t-18 -72v-528q0 -42 18 -72t48 -45t60.5 -21.5
t64.5 -6.5t64.5 5.5t60.5 19t48 40t18 63.5v41z" />
    <glyph glyph-name="D" unicode="D" horiz-adv-x="687" 
d="M618 525v-435q0 -110 -68 -171.5t-182 -61.5h-287v902h287q113 0 181.5 -63.5t68.5 -170.5zM553 90v434q0 77 -49.5 127t-151.5 50h-206v-786h206q101 0 151 46.5t50 128.5z" />
    <glyph glyph-name="E" unicode="E" horiz-adv-x="599" 
d="M543 -143h-462v902h462v-58h-397v-349h395v-58h-395v-379h397v-58z" />
    <glyph glyph-name="F" unicode="F" horiz-adv-x="604" 
d="M146 -143h-65v902h475v-58h-410v-376h390v-58h-390v-410z" />
    <glyph glyph-name="G" unicode="G" horiz-adv-x="669" 
d="M338 -102q33 0 65 7.5t62.5 23.5t49.5 47.5t19 74.5v235h-196v56h261v-305q0 -91 -73 -143.5t-191 -52.5q-108 0 -186 49.5t-78 137.5v554q0 61 39.5 105.5t98.5 65t129 20.5q109 0 179.5 -47.5t70.5 -131.5v-47h-65v30q0 73 -56.5 106.5t-128.5 33.5q-34 0 -66.5 -7
t-64.5 -23t-51.5 -46.5t-19.5 -72.5v-528q0 -41 19.5 -71t52 -44.5t64.5 -20.5t66 -6z" />
    <glyph glyph-name="H" unicode="H" horiz-adv-x="675" 
d="M594 -143h-65v467h-383v-467h-65v902h65v-378h383v378h65v-902z" />
    <glyph glyph-name="I" unicode="I" horiz-adv-x="306" 
d="M186 -142h-65v900h65v-900z" />
    <glyph glyph-name="J" unicode="J" horiz-adv-x="396" 
d="M228 759h64v-590q0 -51 -16.5 -106.5t-48.5 -110t-87 -99t-124 -65.5v60q103 45 157.5 140t54.5 190v581z" />
    <glyph glyph-name="K" unicode="K" horiz-adv-x="701" 
d="M145 -143h-64v902h64v-508l417 508h80l-323 -397l356 -505h-79l-318 449l-133 -162v-287z" />
    <glyph glyph-name="L" unicode="L" horiz-adv-x="584" 
d="M81 -142v900h64v-843h394v-57h-458z" />
    <glyph glyph-name="M" unicode="M" horiz-adv-x="820" 
d="M740 -143h-63v739l-238 -681h-59l-238 681v-739h-63v902h60l271 -771l270 771h60v-902z" />
    <glyph glyph-name="N" unicode="N" horiz-adv-x="695" 
d="M144 -143h-63v902h73l396 -785v785h64v-902h-72l-398 784v-784z" />
    <glyph glyph-name="O" unicode="O" horiz-adv-x="647" 
d="M575 594v-573q0 -84 -73 -132t-179 -48t-179 48t-73 132v573q0 83 73 131t179 48t179 -48t73 -131zM510 40v535q0 42 -17.5 71.5t-47 44t-59 20.5t-63.5 6t-64 -6t-59.5 -20.5t-46.5 -44t-17 -71.5v-535q0 -55 31.5 -88.5t70 -43.5t85.5 -10q33 0 63 6t59.5 20.5t47 44
t17.5 71.5z" />
    <glyph glyph-name="P" unicode="P" horiz-adv-x="651" 
d="M146 -143h-65v902h260q113 0 175.5 -50t62.5 -140v-221q0 -104 -57.5 -162t-181.5 -58h-194v-271zM514 351v203q0 73 -40.5 110t-149.5 37h-178v-516h192q54 0 90.5 13t54 38t24.5 52t7 63z" />
    <glyph glyph-name="Q" unicode="Q" horiz-adv-x="691" 
d="M566 594v-572q0 -35 -14 -65l112 -127h-78l-72 81q-67 -70 -196 -70q-105 0 -176 48t-71 133v572q0 84 71 131.5t176 47.5t176.5 -47.5t71.5 -131.5zM501 40v535q0 42 -17 71.5t-45.5 44t-58 20.5t-62.5 6q-34 0 -63 -6t-57.5 -20.5t-45 -44t-16.5 -71.5v-535
q0 -55 30 -88.5t67.5 -43.5t84.5 -10q33 0 62.5 6t58 20.5t45.5 44t17 71.5z" />
    <glyph glyph-name="R" unicode="R" horiz-adv-x="676" 
d="M146 -143h-65v902h256q114 0 179 -48.5t65 -136.5v-144q0 -135 -97 -188l138 -385h-69l-126 363q-36 -11 -91 -11h-190v-352zM517 434v124q0 71 -43.5 107t-154.5 36h-173v-435h188q103 0 143 46t40 122z" />
    <glyph glyph-name="S" unicode="S" horiz-adv-x="641" 
d="M71 94h65v-57q0 -40 16.5 -68.5t46 -43t61.5 -21t71 -6.5q78 0 131.5 37.5t53.5 98.5v98q0 93 -118 143l-177 76q-139 58 -139 161v88q0 62 41 103t92.5 55.5t109.5 14.5q97 0 169.5 -43t72.5 -122v-55h-65v45q0 63 -54 91t-124 28q-34 0 -62.5 -6t-56 -20.5t-43.5 -43.5
t-16 -69v-39q1 -49 29.5 -80.5t81.5 -54.5l168 -75q74 -34 115 -73.5t41 -93.5v-139q0 -83 -72 -132.5t-189 -49.5q-62 0 -115.5 16.5t-93.5 60.5t-40 110v66z" />
    <glyph glyph-name="T" unicode="T" horiz-adv-x="675" 
d="M368 -143h-64v844h-260v58h587v-58h-263v-844z" />
    <glyph glyph-name="U" unicode="U" horiz-adv-x="661" 
d="M515 759h65v-737q0 -84 -72 -132.5t-178 -48.5q-105 0 -177 48.5t-72 132.5v735h65v-717q0 -42 17 -71.5t45.5 -44t58 -20.5t63.5 -6q33 0 62.5 6t59 20.5t46.5 44t17 71.5v719z" />
    <glyph glyph-name="V" unicode="V" horiz-adv-x="667" 
d="M112 759l221 -812l221 812h68l-252 -902h-74l-252 902h68z" />
    <glyph glyph-name="W" unicode="W" horiz-adv-x="870" 
d="M772 758h65l-182 -900h-63l-157 731l-158 -731h-63l-182 900h66l150 -773l159 750h55l159 -750z" />
    <glyph glyph-name="X" unicode="X" horiz-adv-x="669" 
d="M298 301l-239 458h71l204 -390l204 390h71l-240 -458l232 -444h-70l-197 375l-197 -375h-70z" />
    <glyph glyph-name="Y" unicode="Y" horiz-adv-x="713" 
d="M388 -143h-64v312l-280 590h71l241 -517l241 517h71l-280 -590v-312z" />
    <glyph glyph-name="Z" unicode="Z" horiz-adv-x="625" 
d="M580 -143h-531v45l449 799h-422v58h497v-53l-442 -791h449v-58z" />
    <glyph glyph-name="bracketleft" unicode="[" horiz-adv-x="377" 
d="M281 -182h-198v969h198v-53h-135v-863h135v-53z" />
    <glyph glyph-name="backslash" unicode="\" horiz-adv-x="599" 
d="M436 -142l-341 900h67l341 -900h-67z" />
    <glyph glyph-name="bracketright" unicode="]" horiz-adv-x="377" 
d="M281 -182h-198v53h135v863h-135v53h198v-969z" />
    <glyph glyph-name="asciicircum" unicode="^" horiz-adv-x="637" 
d="M543 457h-73l-152 265l-153 -265h-72l201 341h48z" />
    <glyph glyph-name="underscore" unicode="_" horiz-adv-x="575" 
d="M70 -115v57h434v-57h-434z" />
    <glyph glyph-name="grave" unicode="`" horiz-adv-x="330" 
d="M258 541h-54l-105 261h80z" />
    <glyph glyph-name="a" unicode="a" horiz-adv-x="608" 
d="M71 44v335q0 83 57 135t151 52q127 0 181 -80v70h63v-697h-62v66q-51 -77 -174 -77q-99 0 -157.5 48.5t-58.5 147.5zM134 365v-322q0 -73 45.5 -105.5t115.5 -32.5q72 0 118.5 34.5t46.5 91.5v349q0 56 -46.5 92t-110.5 36q-169 0 -169 -143z" />
    <glyph glyph-name="b" unicode="b" horiz-adv-x="613" 
d="M536 379v-337q0 -98 -60 -147t-159 -49q-123 0 -174 75v-64h-62v912h64v-281q54 78 181 78q96 0 154 -53t56 -134zM473 41v324q0 144 -172 144q-64 0 -110 -36t-46 -93v-351q0 -57 46.5 -91t118.5 -34q70 0 116.5 32.5t46.5 104.5z" />
    <glyph glyph-name="c" unicode="c" horiz-adv-x="589" 
d="M454 73h63v-47q0 -85 -62 -131.5t-164 -46.5q-95 0 -157.5 51t-62.5 144v340q0 86 61.5 138t161.5 52q99 0 159 -48.5t60 -123.5v-54h-64v33q0 70 -43.5 103t-111.5 33q-70 0 -114.5 -36.5t-44.5 -115.5v-311q0 -78 43.5 -113t113.5 -35q72 0 117 31.5t45 99.5v37z" />
    <glyph glyph-name="d" unicode="d" horiz-adv-x="613" 
d="M71 42v337q0 83 57 135t153 52q126 0 181 -79v282h63v-912h-62v64q-51 -75 -173 -75q-99 0 -159 49t-60 147zM134 366v-325q0 -72 46.5 -104.5t116.5 -32.5q72 0 118.5 34t46.5 91v352q0 57 -46.5 93t-110.5 36q-171 0 -171 -144z" />
    <glyph glyph-name="e" unicode="e" horiz-adv-x="590" 
d="M458 61h63v-27q0 -89 -60.5 -137.5t-161.5 -48.5q-95 0 -161.5 49.5t-66.5 141.5v345q0 85 63 136.5t162 51.5q100 0 161.5 -50.5t61.5 -131.5v-231h-385v-109q0 -78 47 -112t119 -34q71 0 114.5 33t43.5 105v19zM134 366v-152h322v155q0 76 -45.5 112t-114.5 36
q-70 0 -116 -36t-46 -115z" />
    <glyph glyph-name="f" unicode="f" horiz-adv-x="479" 
d="M434 768v-57q-41 12 -81 12q-51 1 -79.5 -29t-28.5 -93v-88h192v-57h-192v-598h-64v598h-142v57h142v98q0 81 48 126t115 44q54 0 90 -13z" />
    <glyph glyph-name="g" unicode="g" horiz-adv-x="621" 
d="M539 559v-579q0 -85 -55.5 -139.5t-180.5 -54.5q-163 0 -217 112h75q38 -56 147 -56q73 0 120.5 33.5t47.5 100.5v95q-24 -41 -77 -57.5t-101 -16.5q-104 0 -166 48.5t-62 141.5v208q0 79 62 129.5t152 50.5q139 0 192 -81v65h63zM476 185v200q0 58 -50 95.5t-117 37.5
q-80 0 -128 -35t-48 -110v-181q0 -71 48.5 -105t122.5 -34q75 0 123.5 35.5t48.5 96.5z" />
    <glyph glyph-name="h" unicode="h" horiz-adv-x="628" 
d="M146 362v-505h-63v912h63v-290q64 74 180 74q98 0 157.5 -54.5t59.5 -141.5v-500h-63v495q0 75 -47.5 109.5t-125.5 34.5q-63 0 -112 -36.5t-49 -97.5z" />
    <glyph glyph-name="i" unicode="i" horiz-adv-x="316" 
d="M191 -142h-63v657h63v-657zM97 711q0 28 17.5 46t44.5 18q26 0 44 -18t18 -46q0 -27 -18 -44.5t-44 -17.5q-27 0 -44.5 17.5t-17.5 44.5z" />
    <glyph glyph-name="j" unicode="j" horiz-adv-x="367" 
d="M177 526h64v-401q0 -275 -215 -342v61q89 42 120 119.5t31 199.5v363zM147 712q0 28 17 45.5t45 17.5q27 0 44.5 -17.5t17.5 -45.5t-17.5 -45.5t-44.5 -17.5q-28 0 -45 17.5t-17 45.5z" />
    <glyph glyph-name="k" unicode="k" horiz-adv-x="666" 
d="M146 -143h-63v912h63v-624l382 414h88l-290 -314l296 -388h-84l-257 337l-135 -144v-193z" />
    <glyph glyph-name="l" unicode="l" horiz-adv-x="295" 
d="M179 -142h-64v903h64v-903z" />
    <glyph glyph-name="m" unicode="m" horiz-adv-x="809" 
d="M729 -141h-64v509q0 73 -32.5 107.5t-87.5 34.5q-41 0 -75 -37.5t-34 -94.5v-519h-64v512q0 72 -33 105.5t-88 33.5q-39 0 -73.5 -37.5t-34.5 -94.5v-519h-63v698h63v-65q18 36 56.5 55t76.5 19q44 0 81 -24.5t54 -64.5q51 90 154 90q72 0 118 -51.5t46 -138.5v-518z" />
    <glyph glyph-name="n" unicode="n" horiz-adv-x="618" 
d="M146 375v-516h-63v698h63v-71q63 80 176 80q97 0 155 -53.5t58 -141.5v-512h-64v507q0 143 -168 143q-63 0 -110 -36.5t-47 -97.5z" />
    <glyph glyph-name="o" unicode="o" horiz-adv-x="601" 
d="M529 389v-352q0 -87 -68.5 -138t-160.5 -51t-160.5 51t-68.5 138v352q0 80 65.5 132t163.5 52t163.5 -52t65.5 -132zM466 56v309q0 80 -48 115.5t-118 35.5q-71 0 -118 -35.5t-47 -115.5v-309q0 -79 47 -115t118 -36q70 0 118 36.5t48 114.5z" />
    <glyph glyph-name="p" unicode="p" horiz-adv-x="613" 
d="M540 377v-238q2 -81 -57 -134t-155 -53q-127 0 -182 78v-250h-63v777h62v-60q49 76 174 76q99 0 160 -49t61 -147zM477 153v225q0 72 -47.5 105t-117.5 33q-72 0 -119 -34.5t-47 -91.5v-252q0 -57 47 -93.5t111 -36.5q78 0 125.5 34t47.5 111z" />
    <glyph glyph-name="q" unicode="q" horiz-adv-x="613" 
d="M72 139v238q0 98 61 147t160 49q126 0 175 -77v61h62v-777h-64v250q-54 -78 -182 -78q-96 0 -155 53t-57 134zM135 378v-225q0 -77 47.5 -111t125.5 -34q64 0 111 36.5t47 93.5v252q0 57 -47 91.5t-119 34.5q-70 0 -117.5 -33t-47.5 -105z" />
    <glyph glyph-name="r" unicode="r" horiz-adv-x="443" 
d="M407 579v-63q-87 -6 -165.5 -77.5t-78.5 -144.5v-435h-64v698h64v-135q37 72 109.5 113t134.5 44z" />
    <glyph glyph-name="s" unicode="s" horiz-adv-x="563" 
d="M60 57h64v-41q0 -53 46 -82.5t113 -29.5q71 0 114.5 34t43.5 79v44q0 23 -8.5 40.5t-27 30.5t-32.5 20t-39 17l-144 58q-26 11 -42 19.5t-38 24.5t-33 37t-11 47v67q0 76 61.5 115t143.5 39q87 0 152.5 -39t65.5 -109v-42h-64v34q0 46 -49 73t-105 27q-60 0 -101 -29.5
t-41 -82.5v-27q0 -39 22.5 -60t73.5 -43l154 -63q36 -16 59.5 -30t44.5 -39.5t21 -55.5v-80q0 -73 -61 -117t-168 -44q-90 0 -152.5 39.5t-62.5 121.5v47z" />
    <glyph glyph-name="t" unicode="t" horiz-adv-x="479" 
d="M428 -79v-57q-41 -19 -103 -19q-79 0 -120 51t-41 149v429h-129v57h129v237h64v-237h195v-57h-195v-449q0 -57 25.5 -89.5t77.5 -32.5q53 0 97 18z" />
    <glyph glyph-name="u" unicode="u" horiz-adv-x="611" 
d="M462 557h64v-532q0 -87 -64 -132t-157 -45t-157 45t-64 132v532h64v-514q0 -78 42.5 -108t114.5 -30q157 0 157 138v514z" />
    <glyph glyph-name="v" unicode="v" horiz-adv-x="613" 
d="M115 557l191 -611l191 611h69l-225 -691h-70l-225 691h69z" />
    <glyph glyph-name="w" unicode="w" horiz-adv-x="760" 
d="M657 556h65l-145 -693h-63l-134 539l-135 -539h-62l-146 693h65l117 -574l135 555h51l135 -555z" />
    <glyph glyph-name="x" unicode="x" horiz-adv-x="605" 
d="M266 210l-206 347h72l170 -286l170 286h72l-207 -347l210 -351h-71l-174 290l-173 -290h-71z" />
    <glyph glyph-name="y" unicode="y" horiz-adv-x="619" 
d="M473 557h64v-570q0 -89 -54 -145t-179 -56q-159 0 -212 113h76q39 -57 141 -57q72 0 118 33.5t46 101.5v116q-24 -42 -78 -64t-97 -22q-103 0 -160 49t-57 145v356h64v-353q0 -73 44 -106.5t116 -33.5q70 0 119 41.5t49 101.5v350z" />
    <glyph glyph-name="z" unicode="z" horiz-adv-x="565" 
d="M522 -141h-471v54l384 587h-370v57h444v-53l-381 -588h394v-57z" />
    <glyph glyph-name="braceleft" unicode="{" horiz-adv-x="433" 
d="M364 -128v-53q-88 -5 -129 48.5t-41 145.5v93q0 106 -29 143q-23 30 -89 33v61q66 1 89 30q29 34 29 126v111q0 88 45.5 132t124.5 44v-52q-56 1 -82 -32.5t-26 -103.5v-98q0 -73 -15.5 -119.5t-67.5 -67.5q29 -15 47 -35.5t25.5 -49t9 -48t1.5 -54.5v-125
q0 -57 26.5 -94.5t81.5 -34.5z" />
    <glyph glyph-name="bar" unicode="|" horiz-adv-x="297" 
d="M179 -145h-64v906h64v-906z" />
    <glyph glyph-name="braceright" unicode="}" horiz-adv-x="433" 
d="M68 -181v53q55 -3 81.5 34.5t26.5 94.5v125q0 35 1.5 54.5t9 48t25.5 49t47 35.5q-52 21 -67.5 67.5t-15.5 119.5v98q0 70 -26 103.5t-82 32.5v52q79 0 124.5 -44t45.5 -132v-111q0 -92 29 -126q23 -29 89 -30v-61q-66 -3 -89 -33q-29 -37 -29 -143v-93q0 -92 -41 -145.5
t-129 -48.5z" />
    <glyph glyph-name="asciitilde" unicode="~" horiz-adv-x="581" 
d="M525 398v-75q-41 -55 -113.5 -58.5t-127.5 43.5q-26 21 -52.5 31t-57.5 9t-62 -25t-57 -72v81q28 47 71 67t88 11t85 -42q36 -30 73.5 -39t77.5 7.5t75 61.5z" />
    <glyph glyph-name="uni20A9" unicode="&#x20a9;" 
d="M13 316v57h136l-78 385h66l75 -385h157l77 362h55l77 -362h157l76 385h65l-78 -385h135v-57h-147l-92 -458h-63l-99 458h-117l-99 -458h-63l-93 458h-147zM590 316l70 -331l64 331h-134zM223 316l64 -331l70 331h-134zM474 589l-47 -216h93z" />
    <glyph glyph-name="uni2010" unicode="&#x2010;" 
d="M268 301v58h410v-58h-410z" />
    <glyph glyph-name="copyright" unicode="&#xa9;" 
d="M617 225l63 2v-41q0 -69 -58.5 -108.5t-149.5 -39.5q-85 0 -143 43.5t-58 120.5v230q0 71 56.5 115t147.5 44q90 0 145.5 -41t55.5 -102v-48l-65 2v28q0 53 -39.5 78.5t-96.5 25.5q-59 0 -100 -29t-41 -89v-207q0 -58 40 -86.5t99 -28.5q61 0 102.5 24.5t41.5 74.5v32z
M476 -62q108 0 189 56.5t119 139.5t38 176q0 69 -23 134.5t-65.5 118.5t-109.5 85.5t-148 32.5q-107 0 -189 -56t-122 -139t-40 -174q0 -93 40 -177t122 -140.5t189 -56.5zM476 -112q-98 0 -177.5 37t-128.5 98.5t-75.5 135.5t-26.5 153q0 77 26.5 150t76 133.5t129 97.5
t176.5 37q79 0 146.5 -24.5t114 -66t79 -96.5t48 -115t15.5 -123q0 -77 -26.5 -150.5t-75 -133.5t-127 -96.5t-174.5 -36.5z" />
    <glyph glyph-name="uniE4F5" unicode="&#xe4f5;" 
d="M863 288h-50v365l-128 -327h-46l-127 328v-366h-51v512h49l153 -399l151 399h49v-512zM265 288h-52v464h-161v48h376v-48h-163v-464z" />
    <glyph glyph-name="uniE4F6" unicode="&#xe4f6;" 
d="M413 -83q0 28 17 45.5t44 17.5q26 0 43 -17.5t17 -45.5q0 -27 -17 -45t-43 -18q-27 0 -44 18t-17 45zM99 -83q0 28 17 45.5t44 17.5q26 0 43 -17.5t17 -45.5q0 -27 -17 -45t-43 -18q-27 0 -44 18t-17 45zM727 -83q0 28 17 45.5t43 17.5q27 0 44 -17.5t17 -45.5
q0 -27 -17.5 -45t-43.5 -18t-43 18t-17 45z" />
    <glyph glyph-name="uni3000" unicode="&#x3000;" 
 />
    <glyph glyph-name="uni3001" unicode="&#x3001;" horiz-adv-x="474" 
d="M348 49q-100 -73 -183 -199l-36 37q70 129 160 215z" />
    <glyph glyph-name="uni3002" unicode="&#x3002;" horiz-adv-x="474" 
d="M239 -150q-48 0 -75.5 32.5t-27.5 71t27.5 71t75.5 32.5t75.5 -32.5t27.5 -71t-27.5 -71t-75.5 -32.5zM239 16q-38 0 -54 -31.5t0 -63t54 -31.5t54 31.5t0 63t-54 31.5z" />
    <glyph glyph-name="periodcentered" unicode="&#xb7;" 
d="M413 331q0 28 17 45.5t44 17.5q26 0 43 -17.5t17 -45.5q0 -27 -17 -45t-43 -18q-27 0 -44 18t-17 45z" />
    <glyph glyph-name="twodotenleader" unicode="&#x2025;" 
d="M176 331q0 28 17 45.5t44 17.5q26 0 43 -17.5t17 -45.5q0 -27 -17 -45t-43 -18q-27 0 -44 18t-17 45zM650 331q0 28 17 45.5t44 17.5q26 0 43 -17.5t17 -45.5q0 -27 -17 -45t-43 -18q-27 0 -44 18t-17 45z" />
    <glyph glyph-name="ellipsis" unicode="&#x2026;" 
d="M413 331q0 28 17 45.5t44 17.5q26 0 43 -17.5t17 -45.5q0 -27 -17 -45t-43 -18q-27 0 -44 18t-17 45zM99 331q0 28 17 45.5t44 17.5q26 0 43 -17.5t17 -45.5q0 -27 -17 -45t-43 -18q-27 0 -44 18t-17 45zM727 331q0 28 17 45.5t43 17.5q27 0 44 -17.5t17 -45.5
q0 -27 -17.5 -45t-43.5 -18t-43 18t-17 45z" />
    <glyph glyph-name="dieresis" unicode="&#xa8;" 
d="M176 733q0 28 17 46t44 18q26 0 43 -18t17 -46q0 -27 -17 -44.5t-43 -17.5q-27 0 -44 17.5t-17 44.5zM650 733q0 28 17 46t44 18q26 0 43 -18t17 -46q0 -27 -17 -44.5t-43 -17.5q-27 0 -44 17.5t-17 44.5z" />
    <glyph glyph-name="uni3003" unicode="&#x3003;" 
d="M679 396l-190 -209l-42 37l179 219zM297 214l-42 36l176 221l54 -45z" />
    <glyph glyph-name="uni00AD" unicode="&#xad;" 
d="M285 301v58h376v-58h-376z" />
    <glyph glyph-name="uni2015" unicode="&#x2015;" 
d="M235 301v58h476v-58h-476z" />
    <glyph glyph-name="uni2016" unicode="&#x2016;" 
d="M402 -145h-62v906h62v-906zM607 -145h-62v906h62v-906z" />
    <glyph glyph-name="uniFF3C" unicode="&#xff3c;" 
d="M677 -142l-477 900h71l476 -900h-70z" />
    <glyph glyph-name="similar" unicode="&#x223c;" 
d="M708 398v-75q-40 -55 -112.5 -58.5t-128.5 43.5q-25 21 -52 31t-57.5 9t-61.5 -25.5t-57 -71.5v81q42 71 113.5 79t130.5 -43q36 -30 73 -39t77 7.5t75 61.5z" />
    <glyph glyph-name="quoteleft" unicode="&#x2018;" horiz-adv-x="474" 
d="M282 643q1 46 29 95t58 73l29 -13q-23 -23 -37 -54t-15 -56q25 2 42 -15.5t16 -46.5q-1 -22 -17.5 -39t-39.5 -18q-31 -1 -49 20.5t-16 53.5z" />
    <glyph glyph-name="quoteright" unicode="&#x2019;" horiz-adv-x="474" 
d="M191 725q-1 -47 -28 -95.5t-56 -72.5l-28 13q46 49 48 111q-25 -2 -42 15.5t-16 46.5q1 22 17.5 38t39.5 18q31 2 49 -20t16 -54z" />
    <glyph glyph-name="quotedblleft" unicode="&#x201c;" horiz-adv-x="474" 
d="M287 644q2 47 29.5 95.5t58.5 70.5l27 -12q-23 -23 -37.5 -54t-15.5 -56q23 2 40 -16t16 -47q-1 -22 -17 -38t-39 -18q-31 -1 -47.5 21t-14.5 54zM133 644q2 47 29.5 95.5t58.5 70.5l27 -12q-23 -23 -37.5 -54t-15.5 -56q23 2 40 -16t16 -47q-1 -22 -17 -38t-39 -18
q-31 -1 -47.5 21t-14.5 54z" />
    <glyph glyph-name="quotedblright" unicode="&#x201d;" horiz-adv-x="474" 
d="M185 725q-2 -47 -28 -96t-55 -72l-27 13q46 51 48 111q-23 -2 -40.5 15.5t-16.5 46.5q1 22 16.5 38t38.5 18q31 1 48.5 -20.5t15.5 -53.5zM339 725q-2 -47 -28 -96t-55 -72l-27 13q46 51 48 111q-23 -2 -40.5 15.5t-16.5 46.5q1 22 16.5 38t38.5 18q31 1 48.5 -20.5
t15.5 -53.5z" />
    <glyph glyph-name="uni3014" unicode="&#x3014;" horiz-adv-x="474" 
d="M423 -142l-210 136v612l210 136v-71l-146 -97v-552l146 -93v-71z" />
    <glyph glyph-name="uni3015" unicode="&#x3015;" horiz-adv-x="474" 
d="M261 -6l-210 -136v71l146 93v552l-146 97v71l210 -136v-612z" />
    <glyph glyph-name="uni3008" unicode="&#x3008;" horiz-adv-x="474" 
d="M423 -101l-56 -31l-264 432l264 432l56 -30l-246 -402z" />
    <glyph glyph-name="uni3009" unicode="&#x3009;" horiz-adv-x="474" 
d="M370 300l-264 -432l-55 31l245 401l-245 402l55 30z" />
    <glyph glyph-name="uni300A" unicode="&#x300a;" horiz-adv-x="474" 
d="M423 -132h-48l-189 432l189 432h47l-189 -432zM325 -132h-48l-189 432l189 432h47l-189 -432z" />
    <glyph glyph-name="uni300B" unicode="&#x300b;" horiz-adv-x="474" 
d="M386 300l-189 -432h-48l190 432l-189 432h47zM288 300l-189 -432h-48l190 432l-189 432h47z" />
    <glyph glyph-name="uni300C" unicode="&#x300c;" horiz-adv-x="474" 
d="M423 695h-226v-357h-56v413h282v-56z" />
    <glyph glyph-name="uni300D" unicode="&#x300d;" horiz-adv-x="474" 
d="M333 -151h-282v56h226v357h56v-413z" />
    <glyph glyph-name="uni300E" unicode="&#x300e;" horiz-adv-x="474" 
d="M423 643h-174v-305h-108v413h282v-108zM385 681v33h-206v-339h32v306h174z" />
    <glyph glyph-name="uni300F" unicode="&#x300f;" horiz-adv-x="474" 
d="M333 -151h-282v108h174v305h108v-413zM295 -114v339h-33v-306h-173v-33h206z" />
    <glyph glyph-name="uni3010" unicode="&#x3010;" horiz-adv-x="474" 
d="M423 -151h-325v901h324q-119 -77 -182 -200t-62.5 -250.5t63.5 -250.5t182 -200z" />
    <glyph glyph-name="uni3011" unicode="&#x3011;" horiz-adv-x="474" 
d="M376 -150h-325q119 77 182 200t63.5 250.5t-62.5 250.5t-182 200h324v-901z" />
    <glyph glyph-name="plusminus" unicode="&#xb1;" 
d="M268 379v56h171v150h63v-150h176v-56h-176v-162h-63v162h-171zM253 69v57h440v-57h-440z" />
    <glyph glyph-name="multiply" unicode="&#xd7;" 
d="M673 175l-46 -45l-156 156l-156 -156l-45 46l155 154l-149 149l46 46l149 -149l151 150l45 -45l-151 -151z" />
    <glyph glyph-name="divide" unicode="&#xf7;" 
d="M255 302v57h436v-57h-436zM415 501q0 26 16 42t42 16t42 -16t16 -42q0 -25 -16 -41t-42 -16t-42 16t-16 41zM415 156q0 26 16 42t42 16t42 -16t16 -42q0 -25 -16 -41t-42 -16t-42 16t-16 41z" />
    <glyph glyph-name="notequal" unicode="&#x2260;" 
d="M347 18h-52l89 171h-144v57h174l87 166h-261v58h291l73 139h51l-73 -139h125v-58h-155l-86 -166h241v-57h-271z" />
    <glyph glyph-name="lessequal" unicode="&#x2264;" 
d="M669 590v-66l-309 -139l316 -117v-65l-402 159v43zM253 69v57h440v-57h-440z" />
    <glyph glyph-name="greaterequal" unicode="&#x2265;" 
d="M278 524v66l395 -185v-43l-403 -159v65l317 117zM693 126v-57h-440v57h440z" />
    <glyph glyph-name="infinity" unicode="&#x221e;" 
d="M648 130q-41 0 -77 20t-55.5 44.5t-30.5 44.5l-11 20q-3 -8 -11 -21.5t-29.5 -41.5t-56.5 -47t-77 -19q-54 0 -93.5 25t-57.5 63t-18 82t18 82t57.5 63t93.5 25q42 0 78 -20t55 -44.5t30 -44.5l11 -20q3 8 11.5 21.5t29.5 41.5t56.5 47t76.5 19q54 0 93.5 -25t57 -63
t17.5 -82t-17.5 -82t-57 -63t-93.5 -25zM648 429q-35 0 -64.5 -20t-45.5 -44.5t-25 -44.5l-9 -20q2 -5 5.5 -14t16 -31t28 -39t41 -31t53.5 -14q60 0 94 40.5t34 88.5t-34 88.5t-94 40.5zM444 300q-2 5 -5.5 14t-16 31t-28 39t-41 31t-53.5 14q-60 0 -93.5 -40.5
t-33.5 -88.5t33.5 -88.5t93.5 -40.5q35 0 64.5 20t45.5 44.5t25 44.5z" />
    <glyph glyph-name="therefore" unicode="&#x2234;" 
d="M474 464q-34 0 -48 27.5t0 55t48 27.5t48 -27.5t0 -55t-48 -27.5zM712 15q-34 0 -48.5 27.5t0 54.5t48.5 27t48 -27t0 -54.5t-48 -27.5zM236 15q-34 0 -48 27.5t0 54.5t48 27t48.5 -27t0 -54.5t-48.5 -27.5z" />
    <glyph glyph-name="degree" unicode="&#xb0;" horiz-adv-x="474" 
d="M239 526q-53 0 -83 35t-30 77.5t30 77.5t83 35t83 -35t30 -77.5t-30 -77.5t-83 -35zM239 707q-43 0 -60.5 -34.5t0 -68.5t60.5 -34t60.5 34t0 68.5t-60.5 34.5z" />
    <glyph glyph-name="minute" unicode="&#x2032;" horiz-adv-x="474" 
d="M247 746l-196 -263l97 263h99z" />
    <glyph glyph-name="second" unicode="&#x2033;" horiz-adv-x="474" 
d="M364 746l-191 -263l97 263h94zM242 746l-191 -263l97 263h94z" />
    <glyph glyph-name="uni2103" unicode="&#x2103;" 
d="M830 67h65v-55q0 -78 -62.5 -124t-176.5 -46q-104 0 -168.5 50t-64.5 140v552q0 90 66 139.5t170 49.5q106 0 169.5 -44t63.5 -125v-47h-65v31q0 128 -168 128q-171 0 -171 -146v-509q0 -84 47 -123t124 -39q171 0 171 127v41zM336 635v-79q0 -64 -35 -99t-101 -35
q-65 0 -100 35t-35 99v79q0 63 35 98t101 35q65 0 100 -35t35 -98zM280 566v58q0 93 -80 93q-78 0 -78 -98v-49q0 -44 19.5 -71t58.5 -27q79 0 80 94z" />
    <glyph glyph-name="uni212B" unicode="&#x212b;" 
d="M203 -142h-68l271 684q-95 22 -95 126q0 62 38.5 97t100.5 35h48q62 0 101 -34.5t39 -97.5q0 -51 -26.5 -83.5t-70.5 -41.5l271 -685h-68l-80 201h-381zM487 529h-23l-161 -412h340zM447 587h55q32 0 53.5 22.5t21.5 58.5q0 37 -21 59.5t-54 22.5h-55q-32 0 -53.5 -22.5
t-21.5 -59.5q0 -35 22 -58t53 -23z" />
    <glyph glyph-name="uniFFE0" unicode="&#xffe0;" 
d="M501 -195h-51v101q-100 5 -167.5 55t-67.5 133v428q0 82 67.5 132t167.5 55v91h51v-90q100 -5 164 -49.5t64 -119.5v-46h-65v30q0 111 -163 127v-690q67 5 116.5 34.5t49.5 91.5v41h65v-55q0 -74 -63 -119t-168 -50v-100zM280 508v-402q0 -72 50 -105t120 -38v689
q-70 -5 -120 -38.5t-50 -105.5z" />
    <glyph glyph-name="uniFFE1" unicode="&#xffe1;" 
d="M280 332v245q0 91 66.5 143.5t169.5 52.5q106 0 170 -46.5t64 -129.5v-53h-65v37q0 73 -49.5 104.5t-119.5 31.5t-120.5 -36.5t-50.5 -117.5v-231h182v-57h-182v-365h217q166 0 166 124v85h65v-94q0 -79 -61 -125t-169 -46h-379v56h96v365h-125v57h125z" />
    <glyph glyph-name="uniFFE5" unicode="&#xffe5;" 
d="M203 186v57h205l-246 515h70l242 -514l241 514h70l-246 -515h204v-57h-237v-101h215v-58h-215v-169h-65v169h-216v58h216v101h-238z" />
    <glyph glyph-name="male" unicode="&#x2642;" 
d="M725 433l-37 -37l-187 232v-406q52 -8 88 -37.5t50.5 -69t11 -83.5t-23.5 -81t-60 -61t-93 -24t-93 24t-60 60.5t-23.5 80t11 82.5t50.5 68.5t88 37.5v406l-187 -228l-36 36l250 302zM474 169q-39 0 -68 -18t-42 -45.5t-13 -59.5t13 -59.5t42 -45.5t68 -18t68 18t42 45.5
t13 59.5t-13 59.5t-42 45.5t-68 18z" />
    <glyph glyph-name="female" unicode="&#x2640;" 
d="M775 207h-274v-344h-54v344h-274v54h274v118q-52 7 -88 36.5t-50 68.5t-11 83t23 80.5t60.5 60.5t92.5 24q53 0 93 -24.5t60 -61t23 -80.5t-11.5 -83t-50.5 -68.5t-87 -35.5v-118h274v-54zM474 676q-46 0 -77.5 -25t-39 -61t0 -72t39 -61t77.5 -25t77.5 25t39 61t0 72
t-39 61t-77.5 25z" />
    <glyph glyph-name="angle" unicode="&#x2220;" 
d="M812 -1h-648q-38 0 0 38l562 568l31 -30l-536 -538h591v-38z" />
    <glyph glyph-name="perpendicular" unicode="&#x22a5;" 
d="M794 -1h-640v38h298v545h44v-545h298v-38z" />
    <glyph glyph-name="uni2312" unicode="&#x2312;" 
d="M812 319h-44q-13 79 -58.5 136.5t-105 84t-128 26.5t-128.5 -26t-106.5 -83.5t-60.5 -137.5h-44q14 92 66.5 159t122 97t149 30t149 -30.5t122 -97t66.5 -158.5z" />
    <glyph glyph-name="partialdiff" unicode="&#x2202;" horiz-adv-x="474" 
d="M385 264q-15 -51 -49 -92t-73.5 -61t-78 -25t-68 13t-38.5 56q-4 20 4 47t44 60t96 49q45 12 122 12q3 24 -1 46.5t-16 45t-40 32.5t-69 3q-29 -5 -54 -22t-37.5 -30t-14.5 -11q-4 3 5 19t26 34t50.5 32t72.5 12q76 -3 111 -66t8 -154zM343 302q-97 0 -161 -45
q-28 -21 -43 -46t-15.5 -45.5t10.5 -36t29.5 -20t46 7t56.5 39.5q31 30 51.5 71.5t25.5 74.5z" />
    <glyph glyph-name="gradient" unicode="&#x2207;" 
d="M830 588l-356 -607l-356 607h712zM725 531h-505l255 -431z" />
    <glyph glyph-name="equivalence" unicode="&#x2261;" 
d="M812 432h-676v37h676v-37zM812 281h-676v38h676v-38zM812 131h-676v37h676v-37z" />
    <glyph glyph-name="uni2252" unicode="&#x2252;" 
d="M812 358h-676v44h676v-44zM283 501q-31 0 -44 25t0 50t44 25t44 -25t0 -50t-44 -25zM666 0q-31 0 -43.5 25t0 50t43.5 25t43.5 -25t0 -50t-43.5 -25zM812 198h-676v44h676v-44z" />
    <glyph glyph-name="section" unicode="&#xa7;" horiz-adv-x="474" 
d="M299 177q10 -9 19 -21.5t21.5 -38t14 -53t-5.5 -66.5q-16 -59 -65.5 -77.5t-96.5 7.5q-33 10 -51.5 31t-17 39t19.5 23q25 6 38 -17t9 -41q-3 -10 11 -17.5t32.5 -8.5t37 11.5t24.5 38.5q6 13 3 30.5t-4 28t-10.5 26t-15.5 25t-19.5 24.5t-22 24t-23 24t-22.5 24
q-26 28 -47.5 67.5t-31.5 78.5t10 63.5t72 17.5q-21 17 -43 55t-23 84q-1 64 31 98t86 35q34 1 63 -12.5t42.5 -32t17.5 -38t-11 -31.5q-25 -22 -46.5 2t-15.5 52q3 13 -14 22t-38.5 8.5t-40.5 -19.5t-19 -55q0 -43 25 -79t73 -79t67 -66q22 -27 35.5 -60.5t14.5 -63.5
t-19.5 -48.5t-63.5 -14.5zM293 319q-41 49 -78.5 65t-54.5 3t-14.5 -44.5t31.5 -65.5q41 -49 78 -64.5t54 -2t14.5 44.5t-30.5 64z" />
    <glyph glyph-name="uni203B" unicode="&#x203b;" 
d="M474 468q-32 0 -46 26t-0.5 52.5t46.5 26.5t46.5 -26.5t0 -52.5t-46.5 -26zM694 248q-24 0 -38 16t-13.5 36t14 36t37.5 16q33 0 46.5 -26t0 -52t-46.5 -26zM758 52l-35 -36l-248 247l-249 -247l-36 36l248 248l-247 248l35 36l248 -247l248 247l36 -36l-247 -248z
M254 248q-33 0 -46.5 26t0 52t46.5 26q32 0 45.5 -26t0.5 -52t-46 -26zM474 27q-33 0 -46.5 26t0 52t46.5 26t46.5 -26t0 -52t-46.5 -26z" />
    <glyph glyph-name="uni2606" unicode="&#x2606;" 
d="M848 420l-230 -167l87 -271l-230 168l-230 -168l86 273l-229 165h285l87 272l89 -272h285zM726 380h-192l-60 183l-58 -183h-193l155 -110l-57 -183l154 112l155 -112l-60 182z" />
    <glyph glyph-name="uni2605" unicode="&#x2605;" 
d="M848 420l-230 -167l87 -271l-230 168l-230 -168l86 273l-229 165h285l87 272l89 -272h285z" />
    <glyph glyph-name="circle" unicode="&#x25cb;" 
d="M474 -20q-101 0 -174.5 47.5t-107 118.5t-33.5 154t33.5 154t107 118.5t174.5 47.5t174.5 -47.5t107 -118.5t33.5 -154t-33.5 -154t-107 -118.5t-174.5 -47.5zM474 565q-83 0 -144.5 -39.5t-89 -98t-27.5 -127.5t27.5 -127.5t89 -98t144.5 -39.5t144.5 39.5t89 98
t27.5 127.5t-27.5 127.5t-89 98t-144.5 39.5z" />
    <glyph glyph-name="H18533" unicode="&#x25cf;" 
d="M474 -20q-101 0 -174.5 47.5t-107 118.5t-33.5 154t33.5 154t107 118.5t174.5 47.5t174.5 -47.5t107 -118.5t33.5 -154t-33.5 -154t-107 -118.5t-174.5 -47.5z" />
    <glyph glyph-name="uni25CE" unicode="&#x25ce;" 
d="M474 -85q-92 0 -166.5 33t-120.5 87t-70.5 123.5t-24.5 141.5t24.5 141.5t70.5 123.5t120.5 87t166.5 33t166.5 -33t120.5 -87t70.5 -123.5t24.5 -141.5t-24.5 -141.5t-70.5 -123.5t-120.5 -87t-166.5 -33zM474 648q-83 0 -150 -30t-108.5 -79t-64 -111.5t-22.5 -127.5
t22.5 -127.5t64 -111.5t108.5 -79t150 -30t150 30t108.5 79t64 111.5t22.5 127.5t-22.5 127.5t-64 111.5t-108.5 79t-150 30zM474 53q-78 0 -135 36.5t-83 91.5t-26 119t26 119t83 91.5t135 36.5t135 -36.5t83 -91.5t26 -119t-26 -119t-83 -91.5t-135 -36.5zM474 510
q-66 0 -114.5 -31t-70 -78t-21.5 -101t21.5 -101t70 -78t114.5 -31t114.5 31t70 78t21.5 101t-21.5 101t-70 78t-114.5 31z" />
    <glyph glyph-name="uni25C7" unicode="&#x25c7;" 
d="M838 300l-367 -367l-366 364l363 364zM761 300l-287 287l-287 -287l287 -287z" />
    <glyph glyph-name="uni25C6" unicode="&#x25c6;" 
d="M838 300l-367 -367l-366 364l363 364z" />
    <glyph glyph-name="H22073" unicode="&#x25a1;" 
d="M756 18h-564v564h564v-564zM701 73v454h-454v-454h454z" />
    <glyph glyph-name="filledbox" unicode="&#x25a0;" 
d="M756 18h-564v564h564v-564z" />
    <glyph glyph-name="uni25B3" unicode="&#x25b3;" 
d="M831 6h-712l355 606zM737 57l-263 451l-264 -451h527z" />
    <glyph glyph-name="triagup" unicode="&#x25b2;" 
d="M831 6h-712l355 606z" />
    <glyph glyph-name="uni25BD" unicode="&#x25bd;" 
d="M830 583l-357 -606l-355 606h712zM736 532h-527l264 -452z" />
    <glyph glyph-name="triagdn" unicode="&#x25bc;" 
d="M830 583l-357 -606l-355 606h712z" />
    <glyph glyph-name="arrowright" unicode="&#x2192;" 
d="M926 300l-304 -113l99 86h-698v54h699l-100 85z" />
    <glyph glyph-name="arrowleft" unicode="&#x2190;" 
d="M923 273h-697l99 -86l-305 113l305 112l-101 -85h699v-54z" />
    <glyph glyph-name="arrowup" unicode="&#x2191;" 
d="M587 449l-86 100v-698h-55v699l-86 -101l114 305z" />
    <glyph glyph-name="arrowdown" unicode="&#x2193;" 
d="M587 152l-113 -304l-114 304l86 -100v698h55v-697z" />
    <glyph glyph-name="arrowboth" unicode="&#x2194;" 
d="M932 300l-290 -114l94 87h-522l94 -87l-290 114l290 114l-94 -87h522l-95 87z" />
    <glyph glyph-name="uni3013" unicode="&#x3013;" 
d="M812 385h-658v37h658v-37zM812 178h-658v37h658v-37z" />
    <glyph glyph-name="uni226A" unicode="&#x226a;" 
d="M843 -11l-23 -28l-459 320q-18 13 -18.5 18.5t18.5 19.5l459 320l22 -30l-447 -309zM618 -11l-24 -28l-458 320q-14 9 -17 13.5t0 10t17 14.5l458 320l22 -30l-447 -309z" />
    <glyph glyph-name="uni226B" unicode="&#x226b;" 
d="M812 281l-458 -320l-24 28l449 311l-447 309l22 30l458 -320q14 -9 17 -14.5t0 -10t-17 -13.5zM587 281l-459 -320l-23 28l448 311l-447 309l22 30l459 -320q19 -14 18.5 -19.5t-18.5 -18.5z" />
    <glyph glyph-name="radical" unicode="&#x221a;" 
d="M841 534h-457l-103 -564q-1 -6 -6 -6.5t-9 4.5l-106 202l-49 -35l-19 32l82 59l88 -165l90 512h489v-39z" />
    <glyph glyph-name="uni223D" unicode="&#x223d;" 
d="M685 130q-32 0 -60 8t-41 16l-12 9l19 35q44 -29 99 -29q54 0 91 30.5t45.5 74t-1 87.5t-47 76t-92.5 35q-43 2 -77 -16.5t-57 -49.5t-43.5 -68.5t-42 -75t-47.5 -68t-65.5 -48t-90.5 -14.5q-60 4 -103 33.5t-61.5 71.5t-18 90.5t21 89.5t63.5 68t101 27q32 0 60.5 -8
t41.5 -16l12 -8l-18 -32q-41 27 -100 27q-46 0 -79.5 -22t-49 -55t-15.5 -72.5t15.5 -73.5t50 -58t82.5 -27q47 -3 85 22t61.5 64t51 84.5t53.5 84.5t70.5 64.5t100.5 24.5q59 -2 102.5 -31t63 -71t19 -91t-20 -91t-63.5 -69.5t-104 -27.5z" />
    <glyph glyph-name="proportional" unicode="&#x221d;" 
d="M832 135q-50 -32 -110 -32q-50 0 -92 23.5t-64 51.5t-34 52l-11 23q-2 -6 -7 -16t-23 -36t-39 -46t-57 -36t-75 -16q-62 0 -108 29t-66.5 73t-20.5 95t20.5 95t66.5 73t108 29q48 0 89.5 -23.5t64 -51.5t34.5 -52l13 -23q2 6 7 16t23 36t39 46t57 36t75 16q67 0 109 -33
l-20 -31q-33 25 -89 25q-38 0 -70.5 -16.5t-52 -39.5t-33 -46t-18.5 -40l-5 -16q2 -6 5.5 -17t18 -38t33 -48t51.5 -38t71 -17q54 0 88 25zM499 300q-2 6 -6.5 17t-20 38t-34.5 48t-50.5 38t-67.5 17q-50 0 -87 -23.5t-53.5 -58.5t-16.5 -76t16.5 -76t53.5 -58.5t87 -23.5
q44 0 81 24.5t56.5 54.5t30.5 55z" />
    <glyph glyph-name="uni2235" unicode="&#x2235;" 
d="M781 529q0 -43 -34.5 -61t-69.5 0t-35 61t35 61t69.5 0t34.5 -61zM306 529q0 -43 -35 -61t-69.5 0t-34.5 61t34.5 61t69.5 0t35 -61zM544 80q0 -43 -35 -61t-70 0t-35 61t35 61t70 0t35 -61z" />
    <glyph glyph-name="integral" unicode="&#x222b;" 
d="M633 636q-10 -16 -23.5 -16t-27.5 6.5t-20 4.5q-22 -8 -35 -52t-16 -86t-4.5 -105.5t-2.5 -74.5q-21 -376 -140 -403q-29 -7 -45.5 13t-3.5 40q11 16 25.5 16t27.5 -7t18 -5q23 9 36 58t16 95.5t4.5 116t2.5 81.5q3 38 5 63t8 72.5t16 81t24 69t36.5 57.5t49.5 27
q28 6 44 -14t5 -38z" />
    <glyph glyph-name="uni222C" unicode="&#x222c;" 
d="M504 636q-10 -16 -23 -16t-27 6.5t-20 4.5q-22 -8 -35.5 -52t-16.5 -85.5t-4.5 -106t-2.5 -74.5q-17 -375 -140 -403q-29 -7 -45.5 13t-3.5 40q11 16 25.5 16t27.5 -7t18 -5q23 9 36.5 58t16 96t4 116t2.5 81q3 41 5.5 63t8.5 72t16 81.5t24 68.5t36 58.5t49 26.5
q29 6 44.5 -14t4.5 -38zM759 636q-10 -16 -23.5 -16t-27.5 6.5t-20 4.5q-22 -8 -35 -52t-16 -86t-4.5 -105.5t-2.5 -74.5q-21 -376 -140 -403q-29 -7 -45.5 13t-3.5 40q11 16 25 16t27.5 -7t18.5 -5q23 9 36 58t16 95.5t4.5 116t2.5 81.5q3 38 5 63t8 72.5t16 81t24 69
t36.5 57.5t49.5 27q28 6 44 -14t5 -38z" />
    <glyph glyph-name="element" unicode="&#x2208;" 
d="M803 37h-391q-91 0 -158.5 39t-97.5 97.5t-30 126.5t30 126.5t97.5 97.5t158.5 39h391v-37h-401q-109 0 -169.5 -63.5t-64.5 -143.5h634v-38h-634q4 -81 64.5 -144t169.5 -63h401v-37z" />
    <glyph glyph-name="suchthat" unicode="&#x220b;" 
d="M536 37h-391v37h401q109 0 169.5 63t64.5 144h-634v38h634q-4 80 -64.5 143.5t-169.5 63.5h-401v37h391q91 0 158.5 -39t97.5 -97.5t30 -126.5t-30 -126.5t-97.5 -97.5t-158.5 -39z" />
    <glyph glyph-name="reflexsubset" unicode="&#x2286;" 
d="M803 150h-391q-70 0 -126.5 19.5t-91 51t-53.5 72t-18.5 83t19 83t53.5 72t91 51t126 19.5h391v-38h-402q-65 0 -116 -20.5t-77.5 -54t-39 -73.5t0 -80t38.5 -73.5t77.5 -54t116.5 -20.5h402v-37zM822 -1h-696v38h696v-38z" />
    <glyph glyph-name="reflexsuperset" unicode="&#x2287;" 
d="M536 150h-391v37h402q76 0 131.5 28t80.5 69.5t25 90.5t-25 90.5t-80.5 69.5t-131.5 28h-402v38h391q69 0 125.5 -19.5t91 -51t53.5 -72t19 -83t-18.5 -83t-53 -72t-91 -51t-126.5 -19.5zM822 -1h-696v38h696v-38z" />
    <glyph glyph-name="propersubset" unicode="&#x2282;" 
d="M803 37h-391q-91 0 -158.5 39t-97.5 97.5t-30 126.5t30 126.5t97.5 97.5t158.5 39h391v-37h-401q-75 0 -130 -33.5t-79.5 -83.5t-24.5 -109t24.5 -109t79.5 -83.5t130 -33.5h401v-37z" />
    <glyph glyph-name="propersuperset" unicode="&#x2283;" 
d="M536 37h-391v37h401q75 0 130 33.5t79.5 83.5t24.5 109t-24.5 109t-79.5 83.5t-130 33.5h-401v37h391q91 0 158.5 -39t97.5 -97.5t30 -126.5t-30 -126.5t-97.5 -97.5t-158.5 -39z" />
    <glyph glyph-name="union" unicode="&#x222a;" 
d="M724 238q0 -91 -39 -158.5t-97.5 -97.5t-126.5 -30t-126.5 30t-97.5 97.5t-39 158.5v391h37v-401q0 -75 33.5 -130t83.5 -79.5t108.5 -24.5t108.5 24.5t83.5 79.5t33.5 130v401h38v-391z" />
    <glyph glyph-name="intersection" unicode="&#x2229;" 
d="M737 -29h-37v401q0 75 -33.5 130t-83.5 79.5t-109 24.5t-109 -24.5t-83.5 -79.5t-33.5 -130v-401h-37v391q0 91 39 158.5t97.5 97.5t126.5 30t126.5 -30t97.5 -97.5t39 -158.5v-391z" />
    <glyph glyph-name="logicaland" unicode="&#x2227;" 
d="M788 -1l-33 -18l-281 576l-281 -576l-33 18l295 604q19 38 38 0z" />
    <glyph glyph-name="logicalor" unicode="&#x2228;" 
d="M788 603l-295 -604q-19 -38 -38 0l-295 604l33 18l281 -576l281 576z" />
    <glyph glyph-name="uniFFE2" unicode="&#xffe2;" 
d="M925 -151h-37v291h-865v38h902v-329z" />
    <glyph glyph-name="arrowdblright" unicode="&#x21d2;" 
d="M945 299l-327 -225l-35 44l130 88h-709v47h777l68 46l-70 48h-775v47h706l-127 86l35 44z" />
    <glyph glyph-name="arrowdblboth" unicode="&#x21d4;" 
d="M945 299l-327 -225l-35 44l123 83h-463l123 -83l-35 -44l-327 225l327 225l35 -44l-120 -84l457 3l-120 81l35 44zM849 299l-74 51h-601l-74 -51l71 -49h607z" />
    <glyph glyph-name="universal" unicode="&#x2200;" 
d="M748 758h67l-281 -900h-121l-281 900h66l76 -241h399zM489 -84l167 543h-365l165 -543h33z" />
    <glyph glyph-name="existential" unicode="&#x2203;" 
d="M247 759h454v-902h-454v58h390v349h-389v57h389v380h-390v58z" />
    <glyph glyph-name="acute" unicode="&#xb4;" 
d="M482 642q-78 -101 -118 -130q11 65 51 169q12 31 29 50.5t32 23.5t26 -2t15 -21t-4.5 -39t-30.5 -51z" />
    <glyph glyph-name="uniFF5E" unicode="&#xff5e;" 
d="M694 761q0 -51 -37 -81.5t-98 -25.5q-46 4 -97.5 32t-72.5 31q-30 5 -55 -9t-25 -41h-51q0 47 38 77t95 25q46 -4 95 -31t73 -30q41 -7 62.5 8t21.5 45h51z" />
    <glyph glyph-name="caron" unicode="&#x2c7;" 
d="M665 725l-191 -107l-191 107l28 46l163 -92l163 92z" />
    <glyph glyph-name="breve" unicode="&#x2d8;" 
d="M681 740q-36 -48 -90 -75.5t-117 -27.5t-116.5 27.5t-90.5 75.5l42 29q27 -36 73.5 -60.5t91.5 -24.5t92 24.5t73 60.5z" />
    <glyph glyph-name="hungarumlaut" unicode="&#x2dd;" 
d="M576 642q-78 -101 -118 -130q11 65 51 169q12 31 29 50.5t32 23.5t26 -2t15 -21t-4.5 -39t-30.5 -51zM434 642q-81 -102 -119 -130q11 65 51 169q15 37 36 57.5t37 18.5t25.5 -14.5t2.5 -40.5t-33 -60z" />
    <glyph glyph-name="ring" unicode="&#x2da;" 
d="M474 535q-50 0 -78.5 33.5t-28.5 74.5t28.5 74.5t78.5 33.5t78.5 -33.5t28.5 -74.5t-28.5 -74.5t-78.5 -33.5zM474 703q-38 0 -53.5 -30t0 -60t53.5 -30t53.5 30t0 60t-53.5 30z" />
    <glyph glyph-name="dotaccent" unicode="&#x2d9;" 
d="M473 554q-39 0 -61 25.5t-22 56.5t22 56.5t61 25.5t61 -25.5t22 -56.5t-22 -56.5t-61 -25.5z" />
    <glyph glyph-name="cedilla" unicode="&#xb8;" horiz-adv-x="474" 
d="M305 18l-137 -135v63l70 72l-70 67v62z" />
    <glyph glyph-name="ogonek" unicode="&#x2db;" horiz-adv-x="474" 
d="M305 -117l-137 135l137 129v-62l-70 -67l70 -72v-63z" />
    <glyph glyph-name="exclamdown" unicode="&#xa1;" 
d="M443 521h62l7 -672h-76zM534 707q0 -28 -17 -45.5t-43 -17.5q-27 0 -44 17.5t-17 45.5q0 27 17.5 44t43.5 17t43 -17t17 -44z" />
    <glyph glyph-name="questiondown" unicode="&#xbf;" 
d="M221 60q0 99 44.5 159t129.5 97q72 33 72 126v94h66v-91q0 -135 -95 -172q-151 -63 -151 -214q0 -76 50 -120t134 -44q80 0 128 39t58 114h69q-14 -106 -82 -158t-178 -52q-114 0 -179.5 58t-65.5 164zM562 708q0 -28 -17 -45.5t-44 -17.5q-26 0 -43 17.5t-17 45.5
q0 27 17 44t43 17q27 0 44 -17t17 -44z" />
    <glyph glyph-name="uni02D0" unicode="&#x2d0;" horiz-adv-x="474" 
d="M330 526l-91 -157l-91 157h182zM330 74h-182l91 157z" />
    <glyph glyph-name="uni222E" unicode="&#x222e;" 
d="M688 514q-31 -15 -53 15q-5 7 -7.5 21.5t-7.5 16.5q-16 5 -35.5 -34t-30 -80t-16.5 -58q42 -23 58.5 -65.5t7.5 -82.5t-46 -69t-93 -28q-3 -8 -11.5 -35t-14 -41t-16 -38t-21 -37.5t-25.5 -27.5t-33.5 -19.5t-40.5 -3.5q-34 4 -52.5 23.5t-15 41t23.5 30.5q31 17 53 -15
q5 -7 7.5 -21t7.5 -16q16 -5 36 35t30.5 81.5t16.5 59.5q-39 22 -56.5 56t-12 68t23.5 63.5t50.5 45.5t68.5 11q7 29 21 65t29.5 67t44 50.5t65.5 15.5q34 -3 52.5 -22.5t15 -41t-23.5 -31.5zM522 340q-12 -46 -40 -136q33 3 52.5 28t16.5 56.5t-29 51.5zM467 357
q-33 -3 -53 -28t-17 -57t29 -52q25 80 41 137z" />
    <glyph glyph-name="summation" unicode="&#x2211;" 
d="M751 -22h-543q-17 0 -22.5 7t-1.5 17.5t11 20t15 16.5l249 258l-255 238v85l540 -3v-214h-71v139h-372l259 -244l-237 -245h358v139h70v-214z" />
    <glyph glyph-name="product" unicode="&#x220f;" 
d="M794 544h-151v-564h-75v564h-188v-564h-75v564h-151v76h640v-76z" />
    <glyph glyph-name="currency" unicode="&#xa4;" 
d="M833 -6l-54 -53l-115 115q-83 -67 -191 -67t-192 66l-113 -114l-53 53l113 113q-66 86 -66.5 192t67.5 192l-114 114l53 54l115 -115q83 66 190 65.5t190 -66.5l116 116l54 -54q-116 -114 -117 -114q66 -85 66.5 -190.5t-65.5 -191.5zM472 534q-74 0 -128 -35t-78.5 -87
t-24.5 -113t24.5 -113t78.5 -87t128 -35t128 35t78.5 87t24.5 113t-24.5 113t-78.5 87t-128 35z" />
    <glyph glyph-name="uni2109" unicode="&#x2109;" 
d="M488 -142h-64v900h460v-57h-396v-376h373v-58h-373v-409zM336 635v-79q0 -64 -35 -99t-101 -35q-65 0 -100 35t-35 99v79q0 63 35 98t101 35q65 0 100 -35t35 -98zM280 566v58q0 93 -80 93q-78 0 -78 -98v-49q0 -44 19.5 -71t58.5 -27q79 0 80 94z" />
    <glyph glyph-name="perthousand" unicode="&#x2030;" 
d="M825 235q30 -21 38 -57t-4.5 -73.5t-37 -74.5t-58 -59.5t-67.5 -29.5t-67 16q-30 21 -38 57t4.5 73.5t37 74.5t58 59.5t67.5 29.5t67 -16zM340 642q30 -21 38 -57t-4.5 -73.5t-37 -74.5t-58 -59.5t-67.5 -29.5t-67 16q-30 21 -38 57t4.5 73.5t37 74.5t58 59.5t67.5 29.5
t67 -16zM689 662l-540 -726h-74l540 726h74zM548 236q36 -25 40 -71t-18 -90t-57.5 -82.5t-79 -48t-80.5 13.5q-26 18 -35.5 47.5t-3 61t23 65t42 59.5t53.5 43.5t58.5 18t56.5 -16.5zM792 189q-24 17 -58.5 -2.5t-57.5 -55t-32 -72.5t18 -56q19 -13 46 -3t49 34.5t38.5 55
t16 57.5t-19.5 42zM307 596q-24 17 -58.5 -2.5t-57.5 -55t-32 -72.5t18 -56q19 -13 46 -3t49 34.5t38.5 55t16 57.5t-19.5 42zM516 190q-19 13 -46 3t-49 -34.5t-38.5 -55t-16 -57.5t19.5 -42q24 -17 58.5 2.5t57.5 55t32 72.5t-18 56z" />
    <glyph glyph-name="uni25C1" unicode="&#x25c1;" 
d="M751 -57l-606 356l606 357v-713zM701 33v531l-453 -265z" />
    <glyph glyph-name="uni25C0" unicode="&#x25c0;" 
d="M751 -57l-606 356l606 357v-713z" />
    <glyph glyph-name="uni25B7" unicode="&#x25b7;" 
d="M803 299l-606 -356v713zM700 299l-453 265v-531z" />
    <glyph glyph-name="uni25B6" unicode="&#x25b6;" 
d="M803 299l-606 -356v713z" />
    <glyph glyph-name="uni2664" unicode="&#x2664;" 
d="M779 226q0 -48 -23.5 -81.5t-59.5 -46.5t-79.5 -7t-82.5 31q0 -60 7.5 -95.5t30 -56t51 -28t81.5 -12.5l5 -14h-470l5 14q53 5 81.5 12.5t51 28t30 56t7.5 95.5q-34 -25 -77 -31t-80.5 7t-63 47t-25.5 81q0 96 119 192q70 57 121.5 133t65.5 158q14 -82 65.5 -158
t121.5 -133q118 -95 118 -192zM732 214q0 43 -18.5 79t-36 52.5t-51.5 43.5q-53 44 -96.5 96t-55.5 89q-11 -37 -54.5 -88.5t-96.5 -96.5q-12 -9 -24.5 -20.5t-24.5 -22.5t-22.5 -25.5t-18.5 -30t-12.5 -36t-4.5 -43.5q0 -47 34.5 -66.5t77.5 -12t82 29.5t48 49
q2 -20 0.5 -59.5t-3.5 -78.5t-14 -75t-32 -49l131 1q-20 13 -32 49t-14 75.5t-3.5 79.5t0.5 60q7 -21 34 -41t61.5 -29.5t67.5 -9t55.5 21t22.5 58.5z" />
    <glyph glyph-name="spade" unicode="&#x2660;" 
d="M779 226q0 -71 -53 -108t-116 -33t-97 37q0 -59 11 -95.5t37.5 -56t57.5 -27.5t85 -13l5 -14h-470l5 14q54 5 85 13t57.5 27.5t37.5 56t11 95.5q-34 -33 -97.5 -37t-116.5 33t-53 108q0 99 119 193q70 58 121.5 133t65.5 157q14 -82 65.5 -157t121.5 -133
q118 -94 118 -193z" />
    <glyph glyph-name="uni2661" unicode="&#x2661;" 
d="M796 487q2 -110 -126 -259q-12 -14 -58.5 -67.5t-63 -75t-40.5 -63.5t-34 -80q-10 38 -34 80t-40.5 63t-63.5 75.5t-58 67.5q-128 149 -126 259q1 53 28 90t67.5 49t84.5 7.5t83.5 -33t58.5 -73.5q19 39 51 65t67 36.5t71.5 6.5t65.5 -21.5t47.5 -50.5t19.5 -76zM738 468
q0 53 -23.5 84.5t-58 33t-71.5 -13.5t-68 -55.5t-43 -93.5q-16 72 -60.5 115.5t-89 48.5t-79.5 -26t-35 -93q0 -36 19 -77.5t37.5 -66.5t50.5 -63q18 -21 47 -54t45.5 -52t35 -46t29.5 -52q22 44 67 98.5t90 105.5q32 38 50.5 63t37.5 66.5t19 77.5z" />
    <glyph glyph-name="heart" unicode="&#x2665;" 
d="M796 487q0 -112 -126 -259q-12 -14 -58.5 -67.5t-63 -75t-40.5 -63.5t-34 -80q-10 38 -34 79.5t-41 63.5t-63 74.5t-58 67.5q-126 147 -126 259q0 44 20.5 78t52 51.5t70.5 19.5t74.5 -11.5t64.5 -48.5t40 -85q11 51 40 86t64.5 49t74.5 12t70.5 -19.5t52 -52t20.5 -78.5
z" />
    <glyph glyph-name="uni2667" unicode="&#x2667;" 
d="M820 261q0 -75 -52.5 -121t-122 -41.5t-115.5 60.5q0 -129 37 -174.5t137 -54.5l5 -14h-470l5 14q100 9 137 54.5t37 175.5q-44 -56 -113.5 -60t-122.5 42t-53 119q0 76 60.5 128.5t146.5 26.5q-27 39 -24.5 82t22 79t58 59.5t83.5 23.5t83.5 -24.5t58.5 -60t20 -79.5
t-26 -81q81 25 145 -25.5t64 -128.5zM771 261q0 70 -64.5 101.5t-117.5 -11.5l-45 57q40 32 43.5 81t-29 85.5t-84.5 36.5q-51 0 -83.5 -36t-30 -84t41.5 -80l-44 -57q-54 41 -117 9t-63 -102q0 -43 26.5 -72.5t61.5 -37t71.5 7.5t55.5 53h67q1 -14 0 -36.5t-1 -48t-3.5 -53
t-8.5 -51.5t-15 -43t-23 -28h131q-13 9 -23 28t-15 43t-8.5 51.5t-3.5 53t-1 48t0 36.5h66q25 -51 77.5 -62t95.5 21t43 90z" />
    <glyph glyph-name="club" unicode="&#x2663;" 
d="M820 261q0 -75 -52.5 -121t-122 -41.5t-115.5 60.5q0 -129 37 -174.5t137 -54.5l5 -14h-470l5 14q100 9 137 54.5t37 175.5q-44 -56 -113.5 -60t-122.5 42t-53 119q0 76 60.5 128.5t146.5 26.5q-27 39 -24.5 82t22 79t58 59.5t83.5 23.5t83.5 -24.5t58.5 -60t20 -79.5
t-26 -81q81 25 145 -25.5t64 -128.5z" />
    <glyph glyph-name="uni2299" unicode="&#x2299;" 
d="M475 -84q-92 0 -166.5 33t-120.5 87t-70.5 123t-25 141t24.5 141t70.5 123t120.5 87t167 33t166 -33t119.5 -87t70 -123t24.5 -141t-25 -141t-70.5 -123t-119.5 -87t-165 -33zM475 624q-103 0 -179 -48t-110 -120t-34 -156.5t34 -156.5t110 -120t179 -48q102 0 177.5 48
t109.5 120t34 156.5t-34 156.5t-109.5 120t-177.5 48zM475 151q-47 0 -81 22t-50 55t-16 71.5t15.5 71.5t50 55t81.5 22q46 0 80 -22t49.5 -55t15.5 -71.5t-15.5 -71.5t-49.5 -55t-80 -22z" />
    <glyph glyph-name="uni25C8" unicode="&#x25c8;" 
d="M906 300l-434 -433l-434 432l434 435zM822 299l-350 351l-350 -351l350 -349zM697 299l-225 -225l-225 225l225 224z" />
    <glyph glyph-name="uni25A3" unicode="&#x25a3;" 
d="M822 -48h-696v696h696v-696zM763 10v580h-578v-580h578zM652 122h-356v356h356v-356z" />
    <glyph glyph-name="uni25D0" unicode="&#x25d0;" 
d="M475 -84q-92 0 -167 33t-121 87t-71 123t-25 141t25 141t71 123t121 87t167 33t166 -33t119.5 -87t70 -123t24.5 -141t-24.5 -141t-70 -123t-120 -87t-165.5 -33zM475 620v-646q102 0 176.5 48t108.5 119.5t34 155.5t-33.5 155.5t-108.5 119.5t-177 48z" />
    <glyph glyph-name="uni25D1" unicode="&#x25d1;" 
d="M474 -84q-91 0 -165.5 33t-120 87t-70 123t-24.5 141t24.5 141t70 123t119.5 87t166 33t167 -33t121 -87t71 -123t25 -141t-25 -141t-71 -123t-121 -87t-167 -33zM474 -23v645q-77 0 -139.5 -27.5t-101 -73t-59 -103.5t-20.5 -118.5t20.5 -118.5t59 -103.5t101 -73
t139.5 -27.5z" />
    <glyph glyph-name="shade" unicode="&#x2592;" 
d="M822 -48h-696v696h696v-696z" />
    <glyph glyph-name="uni25A4" unicode="&#x25a4;" 
d="M822 -48h-696v696h696v-696zM794 536v83h-640v-83h640zM794 425v83h-640v-83h640zM794 314v83h-640v-83h640zM794 203v83h-640v-83h640zM794 92v83h-640v-83h640zM794 -19v83h-640v-83h640z" />
    <glyph glyph-name="uni25A5" unicode="&#x25a5;" 
d="M822 -48h-696v696h696v-696zM793 -20v640h-83v-640h83zM682 -20v640h-83v-640h83zM571 -20v640h-83v-640h83zM460 -20v640h-83v-640h83zM349 -20v640h-83v-640h83zM238 -20v640h-83v-640h83z" />
    <glyph glyph-name="uni25A8" unicode="&#x25a8;" 
d="M822 -48h-696v696h696v-696zM263 620h-109v-109zM390 620h-89l-147 -146v-89zM517 620h-89l-274 -273v-89zM644 620h-89l-401 -400v-89zM776 620h-94l-528 -527v-94zM794 380v89l-489 -489h89zM794 126v89l-235 -235h89zM794 507v94l-622 -621h95zM794 253v89l-362 -362
h89zM794 -20v108l-109 -108h109z" />
    <glyph glyph-name="uni25A7" unicode="&#x25a7;" 
d="M822 -48h-696v696h696v-696zM794 511v109h-109zM794 385v89l-146 146h-89zM794 258v89l-273 273h-89zM794 131v89l-400 400h-89zM794 -1v94l-527 527h-95zM776 -20l-622 621v-94l528 -527h94zM644 -20l-490 489v-89l401 -400h89zM517 -20l-363 362v-89l274 -273h89z
M390 -20l-236 235v-89l147 -146h89zM263 -20l-109 108v-108h109z" />
    <glyph glyph-name="uni25A6" unicode="&#x25a6;" 
d="M822 -48h-696v696h696v-696zM793 536v83h-83v-83h83zM682 536v83h-83v-83h83zM793 425v83h-83v-83h83zM571 536v83h-83v-83h83zM682 425v83h-83v-83h83zM793 314v83h-83v-83h83zM460 536v83h-83v-83h83zM571 425v83h-83v-83h83zM682 314v83h-83v-83h83zM793 203v83h-83
v-83h83zM349 536v83h-83v-83h83zM460 425v83h-83v-83h83zM571 314v83h-83v-83h83zM682 203v83h-83v-83h83zM793 92v83h-83v-83h83zM238 536v83h-83v-83h83zM349 425v83h-83v-83h83zM460 314v83h-83v-83h83zM571 203v83h-83v-83h83zM682 92v83h-83v-83h83zM793 -19v83h-83
v-83h83zM238 425v83h-83v-83h83zM349 314v83h-83v-83h83zM460 203v83h-83v-83h83zM571 92v83h-83v-83h83zM682 -19v83h-83v-83h83zM238 314v83h-83v-83h83zM349 203v83h-83v-83h83zM460 92v83h-83v-83h83zM571 -19v83h-83v-83h83zM238 203v83h-83v-83h83zM349 92v83h-83v-83
h83zM460 -19v83h-83v-83h83zM238 92v83h-83v-83h83zM349 -19v83h-83v-83h83zM238 -19v83h-83v-83h83z" />
    <glyph glyph-name="uni25A9" unicode="&#x25a9;" 
d="M822 -48h-696v696h696v-696zM776 620h-95l47 -48zM794 507v94l-47 -47zM775 488l-47 47l-45 -44l47 -47zM709 553l-47 47l-44 -44l46 -47zM644 620h-90l45 -46zM794 380v89l-46 -44zM712 425l-47 47l-45 -45l47 -47zM775 361l-45 45l-45 -45l45 -44zM580 556l-44 45
l-45 -45l44 -45zM646 490l-47 47l-44 -45l47 -47zM517 620h-90l45 -46zM794 253v89l-46 -44zM517 493l-45 44l-45 -44l45 -45zM648 361l-47 47l-44 -45l46 -46zM711 298l-44 44l-44 -45l44 -44zM775 234l-44 45l-46 -45l45 -44zM453 556l-44 45l-45 -45l44 -45zM582 426
l-46 48l-45 -45l47 -47zM390 620h-90l45 -46zM794 126v89l-46 -44zM585 298l-47 47l-45 -45l47 -47zM648 234l-44 45l-45 -45l44 -44zM326 556l-44 45l-45 -46l44 -44zM390 493l-45 44l-45 -45l45 -45zM453 429l-45 44l-45 -44l45 -45zM519 363l-47 47l-45 -45l47 -47z
M711 170l-44 45l-45 -44l45 -45zM775 107l-44 44l-46 -45l45 -43zM794 -1v89l-46 -44zM263 620h-91l45 -46zM200 556l-46 45v-90zM776 -20l-45 46l-46 -46h91zM455 300l-47 47l-44 -45l47 -46zM522 235l-48 47l-45 -45l48 -47zM585 171l-44 44l-45 -44l44 -44zM648 108
l-44 44l-45 -45l45 -44zM712 44l-45 44l-44 -45l45 -44zM262 492l-44 45l-45 -44l45 -45zM326 429l-45 45l-44 -45l44 -45zM389 365l-44 45l-45 -44l45 -45zM200 429l-46 45v-89zM648 -20l-44 45l-45 -45h89zM326 303l-45 44l-44 -45l44 -44zM392 237l-47 46l-45 -44l47 -47
zM458 171l-48 47l-44 -44l47 -48zM521 107l-45 45l-44 -45l44 -44zM262 365l-44 45l-45 -44l45 -45zM584 44l-44 44l-45 -44l45 -45zM200 302l-46 45v-89zM521 -20l-44 45l-46 -45h90zM394 108l-47 46l-44 -44l46 -47zM262 239l-44 44l-45 -44l45 -44zM328 173l-47 47
l-44 -45l47 -47zM457 43l-44 46l-45 -45l45 -45zM200 175l-46 45v-89zM394 -20l-44 45l-45 -45h89zM265 109l-47 47l-45 -44l47 -47zM331 44l-48 47l-45 -44l48 -48zM201 46l-47 47v-94zM267 -20l-48 47l-47 -47h95z" />
    <glyph glyph-name="uni2668" unicode="&#x2668;" 
d="M653 288q5 -61 -46 -139q-10 -14 -15 -26.5t-5.5 -19t-3 -10.5t-7.5 -5q-8 -1 -13 27t7 63q8 22 13.5 48t3.5 63.5t-16 69.5q-41 94 19 213q6 13 9 35.5t7 23.5q5 1 9.5 -7.5t7.5 -24t1 -43.5t-10 -60q-7 -30 14.5 -105t24.5 -103zM533 308q6 -34 -10 -81.5t-36 -75.5
q-18 -27 -24.5 -48.5t-12.5 -23.5q-5 -2 -9 7.5t-6 24.5t2 37t13 43q41 93 -3 183q-21 45 -20.5 86.5t15 67.5t25.5 54q12 25 14.5 58t6.5 33q13 1 21.5 -47t-8.5 -103q-11 -23 -8.5 -54t8.5 -49t16.5 -51t15.5 -61zM403 288q3 -27 -9.5 -66t-36.5 -74q-10 -14 -15 -26.5
t-5 -18.5t-2.5 -10t-7.5 -5q-8 -1 -13 27t7 63q8 21 13 47.5t3 64t-15 69.5q-44 101 22 213q8 12 14.5 35t10.5 24t7 -7.5t3 -24.5t-3.5 -43t-11.5 -60q-7 -30 15 -104.5t24 -103.5zM839 131q0 -57 -55 -99t-137 -60t-178.5 -18t-178.5 18t-137 58t-55 93q0 36 22 65t57 47
t63 27.5t54 14.5q11 2 12.5 -5.5t-11.5 -11.5q-14 -5 -28.5 -11.5t-40.5 -21t-42.5 -35.5t-16.5 -44q0 -56 96 -87t210.5 -30.5t210.5 32t96 86.5q0 23 -12 43t-31 33.5t-33.5 21t-28.5 12.5q-10 3 -7.5 10t11.5 6q22 -5 46 -14.5t51.5 -26t45 -43.5t17.5 -60z" />
    <glyph glyph-name="uni260F" unicode="&#x260f;" 
d="M854 395q4 -35 -9.5 -44.5t-42.5 -8.5l-72 3q-28 1 -41 12.5t-19 47.5q-7 46 -64 60v-46q0 -34 33.5 -60.5t41.5 -50.5l69 -201l-10 -72h-530q-10 55 -10 72l69 201q8 24 41.5 50.5t33.5 60.5v46q-56 -14 -65 -60q-6 -36 -18.5 -47.5t-40.5 -12.5l-72 -3q-14 0 -22.5 1
t-17.5 6t-12 16.5t-1 29.5q8 62 29.5 91.5t72.5 43.5q133 38 278 38t278 -38q50 -14 71.5 -43t29.5 -92zM541 479q-67 6 -134 0l9 -46q58 8 116 0zM824 414q-7 44 -32 65t-80 36q-102 28 -237 28t-237 -28q-56 -15 -81 -36t-32 -65q-5 -31 1 -40.5t28 -8.5l59 2
q19 1 27.5 11t14.5 44q10 56 112 74q108 19 216 0q101 -18 112 -74q5 -33 13.5 -43.5t28.5 -11.5l58 -2q23 -1 28.5 8.5t0.5 40.5zM724 101l-64 187q-8 22 -19.5 36t-22 20.5t-20 14t-15 23t-5.5 41.5v50q-1 0 -5.5 0.5t-6.5 0.5l-12 -64q-80 13 -160 -1l-10 66l-12 -2v-50
q0 -32 -9 -49t-21 -22.5t-27.5 -21.5t-24.5 -42l-64 -187l6 -41h485zM472 135q-52 0 -82 36.5t-31 81t30 81t86 36.5q54 0 84 -36.5t30 -81t-31 -81t-86 -36.5zM475 344q-44 0 -68.5 -28.5t-23.5 -63t25 -63t64 -28.5q43 0 67 28.5t24.5 63t-23.5 63t-65 28.5z" />
    <glyph glyph-name="uni260E" unicode="&#x260e;" 
d="M857 377q0 -22 -14 -29t-41 -6l-72 3q-50 2 -57 42q36 -12 92 -15.5t92 5.5zM854 395q-75 -20 -184 10q-1 21 -20.5 38.5t-43.5 21.5v-46q0 -34 34 -62t41 -49l69 -201l-10 -74h-530q-10 57 -10 74l69 201q7 19 26 35t34 33.5t15 42.5v46q-24 -4 -44 -21.5t-21 -38.5
q-105 -30 -184 -10q8 67 26 94t76 43q127 36 278 36t278 -36q58 -16 76 -43t25 -94zM277 387q-7 -40 -57 -42l-72 -3q-27 -1 -41 6t-14 29q36 -9 92 -5.5t92 15.5zM566 473q-86 8 -184 -1l12 -68q72 5 80 5t80 -4zM475 370q-55 0 -86 -36.5t-30 -81t31 -81t82 -36.5
q55 0 86 36.5t31 81t-30 81t-84 36.5z" />
    <glyph glyph-name="uni261C" unicode="&#x261c;" 
d="M835 130h-121v43q-51 0 -76 -11q-50 -23 -101.5 -27t-93.5 0q-16 -22 -57 -22q-37 0 -76 18.5t-39 50.5q0 25 23 36q-15 14 -8 37.5t28 31.5q-11 12 -7.5 26t13.5 26l-136 5q-21 1 -31.5 2t-33 6t-34 17.5t-11.5 32.5q0 44 110 46q169 3 271 2q31 20 76 12.5t81.5 -28
t70.5 -36.5q14 -7 31 -7v40h121v-301zM776 155v250h-37v-250h37zM714 196v172q-27 0 -32 2q-14 6 -54.5 28.5t-64 32.5t-56.5 9t-57 -25l-46 -45q-6 -5 -15 -15.5t-9 -18.5q0 -16 12 -21t28.5 -0.5t32 11.5t24.5 14l41 34l11 -12l-40 -43q20 -14 35 -34q83 0 142 9
q7 -8 7 -16q-67 -11 -145 -16q-8 -25 -17 -35t-32 -13q0 -40 -30 -45v-14q114 -8 185 27q25 14 80 14zM464 305q-2 0 -18.5 -6t-30.5 -6q-40 0 -69 36q-14 -8 -14 -18t10 -19.5t20 -15.5t21 -11q65 -28 87 -28q25 0 31 17t-6.5 34t-30.5 17zM435 429q-46 0 -249 -2
q-87 0 -87 -27q0 -32 54 -35l162 -5h53zM436 223q-45 11 -84 37q-25 10 -36.5 2.5t-3.5 -26.5t32 -29q48 -20 86 -20q19 0 24 15t-18 21zM411 168q-68 11 -101 34q-5 4 -10 -4.5t-4 -18.5q3 -20 35 -34.5t55 -14.5q22 0 33 9t8 18.5t-16 10.5z" />
    <glyph glyph-name="uni261E" unicode="&#x261e;" 
d="M113 130h121v43q50 0 75 -11q51 -23 102.5 -27t93.5 0q16 -22 57 -22q37 0 76 18.5t39 50.5q0 25 -23 36q15 14 8 37t-28 32q21 17 -6 52l136 5q21 1 31.5 2t33 6t33.5 17.5t11 32.5q0 44 -109 46q-170 3 -271 2q-31 20 -76 12.5t-81.5 -28t-70.5 -36.5q-12 -7 -31 -7v40
h-121v-301zM172 155v250h37v-250h-37zM234 196v172q27 0 32 2q15 6 54.5 28.5t63.5 32.5t57 9t57 -25l46 -45q6 -5 15 -15.5t9 -18.5q0 -16 -12 -21t-28.5 -0.5t-32 11.5t-24.5 14l-41 34l-11 -12l40 -43q-20 -14 -35 -34q-83 0 -142 9q-7 -8 -7 -16q67 -11 145 -16
q8 -25 17 -35t32 -13q0 -40 30 -45v-14q-117 -8 -185 27q-28 14 -80 14zM484 305q2 0 18.5 -6t30.5 -6q40 0 69 36q13 -8 13.5 -18t-9.5 -19.5t-20 -15.5t-21 -11q-70 -28 -87 -28q-26 0 -31.5 17t7 34t30.5 17zM513 429q45 0 249 -2q87 0 87 -27q0 -18 -17.5 -26.5
t-36.5 -8.5l-162 -5h-53zM512 223q45 11 84 37q25 10 36.5 2.5t3.5 -26.5t-32 -29q-48 -20 -86 -20q-19 0 -23.5 14.5t17.5 21.5zM537 168q66 11 101 34q5 4 10 -4.5t4 -18.5q-3 -20 -35 -34.5t-55 -14.5q-17 0 -28 5.5t-13.5 12.5t2 13t14.5 7z" />
    <glyph glyph-name="paragraph" unicode="&#xb6;" 
d="M634 -123h-57v808h-94v-808h-56v479q-64 0 -110 27t-65.5 68t-18.5 88.5t21 88.5t62.5 68t98.5 27h219v-846z" />
    <glyph glyph-name="dagger" unicode="&#x2020;" 
d="M580 478q-69 20 -79 20q0 -41 30 -80q23 -27 23 -28.5t-23 -37.5q-20 -33 -28 -124t-8.5 -205.5t-0.5 -120.5q-2 -30 -11 -42t-18 0t-11 42q0 6 -0.5 121t-8.5 205.5t-28 123.5q-6 10 -14 22t-8 15.5t8 12.5t14 16q29 38 29 79q-11 0 -78 -20q-32 -10 -57 -5t-34 19.5
t-11 32t11 32t34 19.5t57 -4q67 -20 79 -20q1 13 -20 86q-9 35 -4 62t19.5 37.5t31.5 13t31 -12t19.5 -37.5t-4.5 -63q-20 -71 -20 -85q9 0 21 3t30.5 8.5t28.5 8.5q45 15 73 -2t29 -44t-26.5 -45t-75.5 -3z" />
    <glyph glyph-name="daggerdbl" unicode="&#x2021;" 
d="M579 345q-65 21 -78 21q0 -40 30 -78q5 -6 11 -12.5t7 -9t3.5 -5t0 -6t-3.5 -6.5t-7 -11.5t-11 -15.5q-21 -32 -28.5 -90t-7.5 -140v-89q-2 -30 -11 -42t-18 0t-11 42q-1 12 -1 90.5t-7.5 137.5t-27.5 91l-14 21q-9 12 -9 16t9 13q8 9 14 16q29 39 29 77q-8 0 -78 -21
q-33 -9 -57.5 -4t-33 19.5t-9.5 32t12.5 31.5t33.5 18.5t54 -5.5q11 -2 39 -10.5t39 -8.5v86q-9 0 -20.5 -3t-30 -9.5t-27.5 -9.5q-28 -8 -50.5 -5t-33 13.5t-15.5 25t1.5 28.5t17.5 24.5t32.5 13t47.5 -6.5q6 -1 36 -10t42 -9q1 11 -20 84q-14 51 3 81.5t43 30.5t43 -30
t2 -82q-20 -71 -20 -83q11 0 39.5 8t39.5 10q44 16 71.5 -1t29 -43.5t-25.5 -44t-75 -3.5q-65 21 -78 21v-85q11 0 39 8.5t40 10.5q30 10 53.5 5.5t33 -18.5t12.5 -31.5t-9.5 -32t-33 -19.5t-56.5 4z" />
    <glyph glyph-name="arrowupdn" unicode="&#x2195;" 
d="M594 141l-120 -302l-120 301l94 -106v532l-94 -106l120 301l120 -302l-94 107v-532z" />
    <glyph glyph-name="uni2197" unicode="&#x2197;" 
d="M915 741l-137 -336v159l-711 -711l-40 37l716 715h-168z" />
    <glyph glyph-name="uni2199" unicode="&#x2199;" 
d="M914 702l-714 -714h166l-339 -135l137 335v-160l711 713z" />
    <glyph glyph-name="uni2196" unicode="&#x2196;" 
d="M914 -102l-38 -39l-715 715v-167l-134 339l335 -137h-161z" />
    <glyph glyph-name="uni2198" unicode="&#x2198;" 
d="M919 -143l-335 137h158l-712 711l39 39l714 -715v169z" />
    <glyph glyph-name="uni266D" unicode="&#x266d;" 
d="M583 201q-1 -31 -21.5 -63t-39 -48.5t-52.5 -43.5q-44 -35 -110 -107v717h34v-403q33 35 78.5 41.5t78.5 -19t32 -74.5zM513 191q0 46 -29.5 56.5t-59.5 -6.5t-30 -39v-188q6 7 33 35.5t42 46.5t29.5 45.5t14.5 49.5z" />
    <glyph glyph-name="uni2669" unicode="&#x2669;" horiz-adv-x="474" 
d="M362 23q0 -55 -54 -96q-33 -25 -67 -34t-60.5 -4t-44.5 21t-22.5 38t8.5 50t46 54q19 15 42.5 25.5t57 14.5t64.5 -10v632h30v-691z" />
    <glyph glyph-name="musicalnote" unicode="&#x266a;" 
d="M625 87h-13q22 50 33 82.5t20 78t-2 85.5t-40 76q-26 31 -62 52.5t-70 24.5v-470q0 -53 -55 -96q-31 -24 -64 -33t-59.5 -4.5t-45 20t-24 37.5t8 50t46.5 55q19 16 42 26.5t56 14.5t65 -10v631h30q4 -23 6 -44.5t13 -49.5t31 -52q17 -20 50 -56t46 -51q119 -146 -12 -367
z" />
    <glyph glyph-name="uni266C" unicode="&#x266c;" 
d="M775 149q0 -55 -54 -96q-33 -25 -67 -34t-60.5 -4t-44.5 21t-22.5 38t8.5 50t46 54q36 28 75.5 38t88.5 -7v212l-370 -79v-279q0 -56 -52 -97q-49 -36 -98 -38t-75.5 20.5t-21 63t54.5 79.5q70 59 163 30v441l429 91v-504zM745 515v39l-370 -80v-38z" />
    <glyph glyph-name="uni327F" unicode="&#x327f;" 
d="M350 -50h-59v716h59v-412l331 412h78l-270 -334l275 -382h-74l-240 333l-100 -124v-209zM720 236v53h180v-230q0 -113 -58.5 -169t-159.5 -56h-416q-102 0 -160.5 56t-58.5 169v190h56v-215q0 -64 43.5 -105.5t103.5 -41.5h449q58 0 101.5 40t43.5 104v205h-124zM228 364
v-52h-181v229q0 113 58 169t160 56h416q102 0 160.5 -56t58.5 -169v-189h-56v215q0 64 -43.5 105.5t-103.5 41.5h-449q-58 0 -101.5 -40.5t-43.5 -103.5v-206h125z" />
    <glyph glyph-name="uni321C" unicode="&#x321c;" 
d="M181 658v58h585v-58h-262v-107l322 -280h-86l-266 225l-267 -225h-87l323 280v107h-262zM118 127v58h710v-58h-324v-265h-61v265h-325zM163 -172h-42q-53 92 -80 223.5t-27 248.5q0 116 27 251t78 228h42q-93 -237 -93 -474q0 -115 25.5 -243.5t69.5 -233.5zM826 -172
h-42q44 105 69.5 233.5t25.5 243.5q0 237 -93 474h42q51 -93 78 -228t27 -251q0 -117 -27 -248.5t-80 -223.5z" />
    <glyph glyph-name="uni2116" unicode="&#x2116;" 
d="M791 389v-352q0 -88 -48 -138.5t-114 -50.5q-67 0 -115 50.5t-48 138.5v352q0 81 46 132.5t117 51.5q70 0 116 -51.5t46 -132.5zM95 -143h-53v902h59l248 -758v758h54v-902h-58l-250 757v-757zM738 56v309q0 80 -31 115.5t-78 35.5q-48 0 -79 -35.5t-31 -115.5v-309
q0 -79 31 -115t79 -36q47 0 78 36t31 115zM833 -85q0 62 49 62t49 -62q0 -61 -49 -61t-49 61z" />
    <glyph glyph-name="uni33C7" unicode="&#x33c7;" 
d="M791 389v-352q0 -88 -48 -138.5t-114 -50.5q-67 0 -115 50.5t-48 138.5v352q0 81 46 132.5t117 51.5q70 0 116 -51.5t46 -132.5zM738 56v309q0 80 -31 115.5t-78 35.5q-48 0 -79 -35.5t-31 -115.5v-309q0 -79 31 -115t79 -36q47 0 78 36t31 115zM352 67h56v-55
q0 -81 -51 -126t-135 -45q-76 0 -129 51t-53 140v552q0 89 53.5 139t130.5 50q78 0 129.5 -44t51.5 -125v-47h-55v31q0 72 -37.5 100.5t-88.5 28.5q-23 0 -44 -6.5t-41 -22t-32 -45.5t-12 -72v-528q0 -79 38.5 -112t90.5 -33q51 0 89.5 29t38.5 99v41zM833 -85q0 62 49 62
t49 -62q0 -61 -49 -61t-49 61z" />
    <glyph glyph-name="trademark" unicode="&#x2122;" 
d="M819 368h-48v288l-114 -257h-44l-114 256v-287h-48v428h47l138 -327l136 327h47v-428zM278 368h-50v382h-139v46h330v-46h-141v-382z" />
    <glyph glyph-name="uni33C2" unicode="&#x33c2;" 
d="M12 44v335q0 83 36 135t95 52q69 0 102 -54v44h49v-697h-48v42q-35 -53 -99 -53q-62 0 -98.5 48.5t-36.5 147.5zM834 -141h-49v509q0 142 -66 142q-23 0 -41.5 -37t-18.5 -95v-519h-49v512q0 72 -19 105.5t-49 33.5q-22 0 -40.5 -37.5t-18.5 -94.5v-519h-49v698h49v-37
q27 46 74 46q57 0 82 -70q33 71 91 71q46 0 75 -51t29 -139v-518zM61 365v-322q0 -73 25.5 -105.5t64.5 -32.5q41 0 67.5 34.5t26.5 91.5v349q0 56 -26.5 92t-62.5 36q-95 0 -95 -143zM323 -93q0 59 40 59t40 -59q0 -58 -40 -58t-40 58zM860 -93q0 59 40 59t40 -59
q0 -58 -40 -58t-40 58z" />
    <glyph glyph-name="uni33D8" unicode="&#x33d8;" 
d="M319 377v-238q0 -82 -36.5 -134.5t-97.5 -52.5q-71 0 -105 54v-232h-49v783h48v-37q35 53 100 53q63 0 101.5 -49t38.5 -147zM834 -141h-49v509q0 142 -66 142q-23 0 -41.5 -37t-18.5 -95v-519h-49v512q0 72 -19 105.5t-49 33.5q-22 0 -40.5 -37.5t-18.5 -94.5v-519h-49
v698h49v-37q27 46 74 46q57 0 82 -70q33 71 91 71q46 0 75 -51t29 -139v-518zM270 153v225q0 72 -27.5 105t-67.5 33q-41 0 -68 -34.5t-27 -91.5v-252q0 -57 27 -93.5t63 -36.5q44 0 72 34.5t28 110.5zM860 -93q0 59 40 59t40 -59q0 -58 -40 -58t-40 58zM314 -93q0 59 39 59
q40 0 40 -59q0 -58 -40 -58q-39 0 -39 58z" />
    <glyph glyph-name="uni2121" unicode="&#x2121;" 
d="M666 61h53v-27q0 -87 -46 -136t-119 -49q-68 0 -118 49.5t-50 140.5v345q0 85 47 136.5t119 51.5t118 -51t46 -132v-231h-276v-109q0 -64 31 -104t84 -40q49 0 80 33t31 104v19zM237 -142h-55v843h-181v57h423v-57h-187v-843zM440 366v-153h222v156q0 75 -32 111.5
t-78 36.5q-48 0 -80 -36t-32 -115zM892 -142h-55v903h55v-903z" />
    <glyph glyph-name="uniFF01" unicode="&#xff01;" 
d="M504 96h-62l-7 672h76zM413 -90q0 28 17 45.5t43 17.5q27 0 44 -17.5t17 -45.5q0 -27 -17.5 -44t-43.5 -17t-43 17t-17 44z" />
    <glyph glyph-name="uniFF02" unicode="&#xff02;" 
d="M423 530h-52l-8 272h68zM576 530h-52l-7 272h67z" />
    <glyph glyph-name="uniFF03" unicode="&#xff03;" 
d="M773 745l-65 -213h151v-57h-168l-85 -281h194v-56h-210l-79 -266h-66l78 266h-216l-79 -266h-67l81 266h-154v56h170l85 281h-195v57h212l64 213h67l-65 -213h217l64 213h66zM541 194l84 281h-216l-84 -281h216z" />
    <glyph glyph-name="uniFF04" unicode="&#xff04;" 
d="M510 -198h-51v82h-1q-93 0 -162 46.5t-69 135.5v39h64v-30q0 -65 47.5 -99t120.5 -36v371l-96 42q-31 13 -48 22.5t-40.5 26.5t-35 41t-11.5 54v67q0 44 21.5 77.5t57 51.5t73.5 27t79 11v69h51v-70q84 -9 139.5 -50t55.5 -111v-36h-63v27q0 49 -38.5 76t-93.5 37v-318
l62 -27q76 -32 112 -65.5t36 -86.5v-118q0 -74 -56 -119.5t-154 -53.5v-83zM551 271l-41 15v-343q66 6 106 39.5t40 87.5v82q0 81 -105 119zM292 546v-23q0 -44 26 -68.5t78 -47.5l63 -28v296q-167 -4 -167 -129z" />
    <glyph glyph-name="uniFF05" unicode="&#xff05;" 
d="M726 758l-431 -900h-66l429 900h68zM404 613v-158q0 -72 -44 -113t-122 -41q-77 0 -120.5 40.5t-43.5 113.5v158q0 73 44 113.5t121 40.5t121 -41t44 -113zM344 464v140q0 57 -30 83t-76 26q-47 0 -75.5 -26.5t-28.5 -82.5v-132q0 -52 27.5 -84.5t76.5 -32.5
q47 0 77 29.5t29 79.5zM873 154v-157q0 -72 -43.5 -112.5t-121.5 -40.5q-77 0 -121 40.5t-44 112.5v157q0 73 44 113.5t121 40.5q78 0 121.5 -40.5t43.5 -113.5zM813 6v139q0 57 -30 83t-75 26q-106 0 -106 -109v-131q0 -53 28 -84.5t78 -31.5q47 0 76 27t29 81z" />
    <glyph glyph-name="uniFF06" unicode="&#xff06;" 
d="M812 -126h-80l-75 94q-131 -105 -274 -105q-122 0 -194.5 59.5t-66.5 175.5q3 68 53 130t153 140q-10 12 -23 28.5t-26 33.5t-25 37t-21.5 39t-15 40.5t-5.5 41.5q0 55 19 94t53 59t70 28.5t78 8.5q77 0 133 -48t55 -142q0 -66 -48.5 -120.5t-140.5 -117.5l234 -297
q66 58 90 126h72q-36 -101 -120 -173zM614 15l-247 307q-95 -75 -135.5 -124.5t-42.5 -103.5q-4 -83 46.5 -126t152.5 -43q51 0 113.5 22.5t112.5 67.5zM554 585q0 64 -37 100t-96 36q-60 0 -99.5 -32t-39.5 -103q0 -28 20 -65t36.5 -58t53.5 -66q81 58 121.5 100.5
t40.5 87.5z" />
    <glyph glyph-name="uniFF07" unicode="&#xff07;" 
d="M501 530h-55l-7 272h70z" />
    <glyph glyph-name="uniFF08" unicode="&#xff08;" horiz-adv-x="474" 
d="M392 -179h-54q-49 89 -75 224.5t-26 254.5t25.5 256.5t72.5 227.5h55q-40 -95 -64.5 -229.5t-24.5 -247.5q0 -116 24.5 -253t66.5 -233z" />
    <glyph glyph-name="uniFF09" unicode="&#xff09;" horiz-adv-x="474" 
d="M235 300q0 -119 -26 -255t-75 -225h-54q42 97 66.5 234t24.5 253q0 114 -24 248t-64 230h54q47 -91 72.5 -228t25.5 -257z" />
    <glyph glyph-name="uniFF0A" unicode="&#xff0a;" 
d="M669 714l28 -52l-170 -96l171 -96l-30 -49l-169 97l1 -196h-59l1 193l-163 -94l-30 49l170 97l-170 96l30 51l163 -96l-1 167h59v-170z" />
    <glyph glyph-name="uniFF0B" unicode="&#xff0b;" 
d="M271 294v56h169v176h64v-176h173v-56h-173v-187h-64v187h-169z" />
    <glyph glyph-name="uniFF0C" unicode="&#xff0c;" 
d="M536 -80q-1 -42 -29.5 -80.5t-56.5 -53.5l-32 13q46 32 52 76q-26 0 -42.5 15t-16.5 44q0 26 18.5 43.5t45.5 17.5q30 0 45.5 -22.5t15.5 -52.5z" />
    <glyph glyph-name="uniFF0D" unicode="&#xff0d;" 
d="M289 294v58h370v-58h-370z" />
    <glyph glyph-name="uniFF0E" unicode="&#xff0e;" 
d="M413 -83q0 28 17 45.5t44 17.5q26 0 43 -17.5t17 -45.5q0 -27 -17 -45t-43 -18q-27 0 -44 18t-17 45z" />
    <glyph glyph-name="uniFF0F" unicode="&#xff0f;" 
d="M678 758l-342 -900h-67l341 900h68z" />
    <glyph glyph-name="uniFF10" unicode="&#xff10;" 
d="M706 594v-573q0 -85 -65 -132.5t-168 -47.5t-167.5 47.5t-64.5 132.5v573q0 85 64.5 132t167.5 47t168 -47t65 -132zM641 40v535q0 142 -168 142t-168 -142v-535q0 -142 168 -142t168 142z" />
    <glyph glyph-name="uniFF11" unicode="&#xff11;" 
d="M617 -143h-65v823l-195 -101l-26 50l234 130h52v-902z" />
    <glyph glyph-name="uniFF12" unicode="&#xff12;" 
d="M722 -143h-480v69l343 439q57 74 57 148v63q0 59 -44 100t-135 41q-87 0 -130.5 -44t-43.5 -102v-62h-63v60q0 92 67 148.5t170 56.5q105 0 173.5 -50t68.5 -142v-84q0 -82 -56 -150l-339 -433h412v-58z" />
    <glyph glyph-name="uniFF13" unicode="&#xff13;" 
d="M307 582h-66q15 94 76.5 143.5t155.5 48.5q103 0 166 -51t63 -128v-72q0 -54 -27.5 -102t-88.5 -75q72 -23 107 -76.5t35 -116.5v-78q0 -105 -68 -169.5t-206 -64.5q-88 0 -155 52t-79 143h66q13 -69 58.5 -104t114.5 -35q108 0 156 50.5t48 131.5v80q0 64 -49 110
t-135 48h-68v56h64q88 4 125.5 50.5t37.5 110.5v41q0 67 -44 104.5t-131 37.5q-66 0 -105.5 -37t-50.5 -98z" />
    <glyph glyph-name="uniFF14" unicode="&#xff14;" 
d="M205 30v55l374 678h79v-676h85v-57h-85v-172h-61v172h-392zM270 87h327v591z" />
    <glyph glyph-name="uniFF15" unicode="&#xff15;" 
d="M714 259v-212q0 -91 -68.5 -148.5t-186.5 -57.5q-85 0 -144.5 46t-80.5 134h65q43 -124 161 -124q85 0 137.5 40t52.5 123v176q0 75 -52 117t-129 42q-47 0 -90 -25t-67 -62h-65l61 451h383v-57h-328l-42 -315q64 64 162 64q90 2 160.5 -50t70.5 -142z" />
    <glyph glyph-name="uniFF16" unicode="&#xff16;" 
d="M714 266v-231q0 -83 -69 -138.5t-172 -55.5q-106 0 -173 56.5t-67 134.5v229q0 41 13.5 86t28.5 71l183 340h72l-193 -360q16 16 35.5 27.5t34 17t33.5 8t28 3t24 0.5l16 -1q71 0 138.5 -53t67.5 -134zM650 41v228q0 46 -50 87.5t-127 41.5q-74 0 -124.5 -45t-50.5 -89
v-225q0 -55 47 -99t128 -44q80 0 128.5 43.5t48.5 101.5z" />
    <glyph glyph-name="uniFF17" unicode="&#xff17;" 
d="M724 702l-290 -845h-73l294 845h-432v57h501v-57z" />
    <glyph glyph-name="uniFF18" unicode="&#xff18;" 
d="M471 -159q-119 0 -188 59.5t-69 166.5v78q0 155 138 201q-112 48 -112 175v50q0 93 62.5 148t168.5 55q109 0 173 -55t64 -148v-50q0 -31 -8 -60.5t-35 -63t-71 -51.5q139 -47 139 -201v-78q0 -107 -70 -166.5t-192 -59.5zM471 318q-91 1 -142 -44t-51 -120v-89
q0 -80 50 -125t143 -45q96 0 147 45t51 125v89q0 73 -52.5 118.5t-145.5 45.5zM471 718q-83 0 -125.5 -42.5t-42.5 -116.5v-19q0 -80 38 -123.5t130 -43.5q97 0 135.5 43.5t38.5 123.5v19q0 75 -43 117t-131 42z" />
    <glyph glyph-name="uniFF19" unicode="&#xff19;" 
d="M233 343v237q0 83 69.5 138.5t172.5 55.5q106 0 172.5 -56.5t66.5 -134.5v-251q0 -65 -42 -142l-176 -334h-73l188 350q-28 -28 -67 -41.5t-63 -11t-40 0.5q-71 0 -139.5 54t-68.5 135zM298 573v-235q0 -46 50 -87.5t127 -41.5q74 0 124.5 44.5t50.5 89.5v232
q0 55 -47 99t-128 44q-80 0 -128.5 -43.5t-48.5 -101.5z" />
    <glyph glyph-name="uniFF1A" unicode="&#xff1a;" 
d="M410 553q0 30 18 48.5t46 18.5q27 0 45 -18.5t18 -48.5q0 -28 -18 -46.5t-45 -18.5q-28 0 -46 18.5t-18 46.5zM410 103q0 29 18 48t46 19q27 0 45 -19t18 -48t-18 -47.5t-45 -18.5q-28 0 -46 18.5t-18 47.5z" />
    <glyph glyph-name="uniFF1B" unicode="&#xff1b;" 
d="M409 553q0 30 18 48.5t46 18.5q27 0 45 -18.5t18 -48.5q0 -28 -18 -46.5t-45 -18.5q-28 0 -46 18.5t-18 46.5zM539 97q-1 -46 -31.5 -90t-59.5 -61l-30 14q43 33 53 89q-27 -4 -45.5 15.5t-17.5 52.5q1 24 19 41.5t43 19.5q33 1 51.5 -23t17.5 -58z" />
    <glyph glyph-name="uniFF1C" unicode="&#xff1c;" 
d="M933 746v-87l-340 -358l340 -358v-88l-407 421v48z" />
    <glyph glyph-name="uniFF1D" unicode="&#xff1d;" 
d="M280 425v57h387v-57h-387zM280 161v57h387v-57h-387z" />
    <glyph glyph-name="uniFF1E" unicode="&#xff1e;" 
d="M422 276l-407 -421v88l340 358l-340 358v86l407 -421v-48z" />
    <glyph glyph-name="uniFF1F" unicode="&#xff1f;" 
d="M726 558q0 -99 -44.5 -159t-129.5 -97q-72 -33 -72 -126v-94h-66v91q0 135 95 172q151 63 151 214q0 76 -50 120t-134 44q-80 0 -128 -39t-58 -114h-69q14 106 82 158t178 52q114 0 179.5 -58t65.5 -164zM385 -90q0 28 17 45.5t44 17.5q26 0 43 -17.5t17 -45.5
q0 -27 -17 -44t-43 -17q-27 0 -44 17t-17 44z" />
    <glyph glyph-name="uniFF20" unicode="&#xff20;" 
d="M856 516v-421q0 -108 -64 -165.5t-168 -57.5h-301q-104 0 -167.5 57.5t-63.5 165.5v421q0 109 63.5 166.5t167.5 57.5h301q105 0 168.5 -57.5t63.5 -166.5zM799 81v448q0 65 -45.5 111.5t-118.5 46.5h-323q-71 0 -117 -47t-46 -111v-448q0 -63 46.5 -109.5t116.5 -46.5
h323q77 0 120.5 45.5t43.5 110.5zM257 227v160q0 78 48.5 128t131.5 50q107 0 158 -72v72h60v-517h-58v62q-48 -71 -151 -71q-84 0 -136.5 47.5t-52.5 140.5zM316 367v-136q0 -71 39.5 -104t100.5 -33q63 0 101.5 34.5t38.5 92.5v160q0 57 -39.5 93t-95.5 36
q-145 0 -145 -143z" />
    <glyph glyph-name="uniFF21" unicode="&#xff21;" 
d="M199 -142h-67l281 900h121l281 -900h-66l-76 241h-399zM458 700l-167 -543h365l-165 543h-33z" />
    <glyph glyph-name="uniFF22" unicode="&#xff22;" 
d="M720 586v-72q0 -56 -26.5 -101t-83.5 -65q72 -20 107.5 -66t35.5 -107v-108q0 -98 -68.5 -154t-176.5 -56h-314v902h279q116 0 181.5 -43t65.5 -130zM689 69v105q0 72 -53.5 107.5t-152.5 35.5h-225v-402h233q91 0 144.5 41.5t53.5 112.5zM655 530v31q0 75 -43 107.5
t-156 32.5h-198v-327h213q107 0 145.5 38t38.5 118z" />
    <glyph glyph-name="uniFF23" unicode="&#xff23;" 
d="M665 67h65v-55q0 -81 -70.5 -126t-187.5 -45q-106 0 -180 51t-74 140v552q0 89 74.5 139t181.5 50q110 0 181.5 -44t71.5 -125v-47h-65v31q0 38 -17.5 65t-47.5 40t-59.5 18.5t-63.5 5.5t-64.5 -6.5t-60.5 -22t-48 -45.5t-18 -72v-528q0 -42 18 -72t48 -45t60.5 -21.5
t64.5 -6.5t64.5 5.5t60.5 19t48 40t18 63.5v41z" />
    <glyph glyph-name="uniFF24" unicode="&#xff24;" 
d="M742 525v-435q0 -110 -68 -171.5t-182 -61.5h-287v902h287q113 0 181.5 -63.5t68.5 -170.5zM677 90v434q0 77 -49.5 127t-151.5 50h-206v-786h206q101 0 151 46.5t50 128.5z" />
    <glyph glyph-name="uniFF25" unicode="&#xff25;" 
d="M705 -143h-462v902h462v-58h-397v-349h395v-58h-395v-379h397v-58z" />
    <glyph glyph-name="uniFF26" unicode="&#xff26;" 
d="M301 -143h-65v902h475v-58h-410v-376h390v-58h-390v-410z" />
    <glyph glyph-name="uniFF27" unicode="&#xff27;" 
d="M477 -102q33 0 65 7.5t62.5 23.5t49.5 47.5t19 74.5v235h-196v56h261v-305q0 -91 -73 -143.5t-191 -52.5q-108 0 -186 49.5t-78 137.5v554q0 61 39.5 105.5t98.5 65t129 20.5q109 0 179.5 -47.5t70.5 -131.5v-47h-65v30q0 73 -56.5 106.5t-128.5 33.5q-34 0 -66.5 -7
t-64.5 -23t-51.5 -46.5t-19.5 -72.5v-528q0 -41 19.5 -71t52 -44.5t64.5 -20.5t66 -6z" />
    <glyph glyph-name="uniFF28" unicode="&#xff28;" 
d="M730 -143h-65v467h-383v-467h-65v902h65v-378h383v378h65v-902z" />
    <glyph glyph-name="uniFF29" unicode="&#xff29;" 
d="M506 -142h-65v900h65v-900z" />
    <glyph glyph-name="uniFF2A" unicode="&#xff2a;" 
d="M548 759h64v-590q0 -51 -16.5 -106.5t-48.5 -110t-87 -99t-124 -65.5v60q103 45 157.5 140t54.5 190v581z" />
    <glyph glyph-name="uniFF2B" unicode="&#xff2b;" 
d="M241 -143h-64v902h64v-508l417 508h80l-323 -397l356 -505h-79l-318 449l-133 -162v-287z" />
    <glyph glyph-name="uniFF2C" unicode="&#xff2c;" 
d="M245 -142v900h64v-843h394v-57h-458z" />
    <glyph glyph-name="uniFF2D" unicode="&#xff2d;" 
d="M804 -143h-63v739l-238 -681h-59l-238 681v-739h-63v902h60l271 -771l270 771h60v-902z" />
    <glyph glyph-name="uniFF2E" unicode="&#xff2e;" 
d="M270 -143h-63v902h73l396 -785v785h64v-902h-72l-398 784v-784z" />
    <glyph glyph-name="uniFF2F" unicode="&#xff2f;" 
d="M726 594v-573q0 -84 -73 -132t-179 -48t-179 48t-73 132v573q0 83 73 131t179 48t179 -48t73 -131zM661 40v535q0 42 -17.5 71.5t-47 44t-59 20.5t-63.5 6t-64 -6t-59.5 -20.5t-46.5 -44t-17 -71.5v-535q0 -55 31.5 -88.5t70 -43.5t85.5 -10q33 0 63 6t59.5 20.5t47 44
t17.5 71.5z" />
    <glyph glyph-name="uniFF30" unicode="&#xff30;" 
d="M290 -143h-65v902h260q113 0 175.5 -50t62.5 -140v-221q0 -104 -57.5 -162t-181.5 -58h-194v-271zM658 351v203q0 73 -40.5 110t-149.5 37h-178v-516h192q54 0 90.5 13t54 38t24.5 52t7 63z" />
    <glyph glyph-name="uniFF31" unicode="&#xff31;" 
d="M672 594v-572q0 -35 -14 -65l112 -127h-78l-72 81q-67 -70 -196 -70q-105 0 -176 48t-71 133v572q0 84 71 131.5t176 47.5t176.5 -47.5t71.5 -131.5zM607 40v535q0 42 -17 71.5t-45.5 44t-58 20.5t-62.5 6q-34 0 -63 -6t-57.5 -20.5t-45 -44t-16.5 -71.5v-535
q0 -55 30 -88.5t67.5 -43.5t84.5 -10q33 0 62.5 6t58 20.5t45.5 44t17 71.5z" />
    <glyph glyph-name="uniFF32" unicode="&#xff32;" 
d="M268 -143h-65v902h256q114 0 179 -48.5t65 -136.5v-144q0 -135 -97 -188l138 -385h-69l-126 363q-36 -11 -91 -11h-190v-352zM639 434v124q0 71 -43.5 107t-154.5 36h-173v-435h188q103 0 143 46t40 122z" />
    <glyph glyph-name="uniFF33" unicode="&#xff33;" 
d="M219 94h65v-57q0 -40 16.5 -68.5t46 -43t61.5 -21t71 -6.5q78 0 131.5 37.5t53.5 98.5v98q0 93 -118 143l-177 76q-139 58 -139 161v88q0 62 41 103t92.5 55.5t109.5 14.5q97 0 169.5 -43t72.5 -122v-55h-65v45q0 63 -54 91t-124 28q-34 0 -62.5 -6t-56 -20.5
t-43.5 -43.5t-16 -69v-39q1 -49 29.5 -80.5t81.5 -54.5l168 -75q74 -34 115 -73.5t41 -93.5v-139q0 -83 -72 -132.5t-189 -49.5q-62 0 -115.5 16.5t-93.5 60.5t-40 110v66z" />
    <glyph glyph-name="uniFF34" unicode="&#xff34;" 
d="M504 -143h-64v844h-260v58h587v-58h-263v-844z" />
    <glyph glyph-name="uniFF35" unicode="&#xff35;" 
d="M658 759h65v-737q0 -84 -72 -132.5t-178 -48.5q-105 0 -177 48.5t-72 132.5v735h65v-717q0 -42 17 -71.5t45.5 -44t58 -20.5t63.5 -6q33 0 62.5 6t59 20.5t46.5 44t17 71.5v719z" />
    <glyph glyph-name="uniFF36" unicode="&#xff36;" 
d="M253 759l221 -812l221 812h68l-252 -902h-74l-252 902h68z" />
    <glyph glyph-name="uniFF37" unicode="&#xff37;" 
d="M811 758h65l-182 -900h-63l-157 731l-158 -731h-63l-182 900h66l150 -773l159 750h55l159 -750z" />
    <glyph glyph-name="uniFF38" unicode="&#xff38;" 
d="M438 301l-239 458h71l204 -390l204 390h71l-240 -458l232 -444h-70l-197 375l-197 -375h-70z" />
    <glyph glyph-name="uniFF39" unicode="&#xff39;" 
d="M506 -143h-64v312l-280 590h71l241 -517l241 517h71l-280 -590v-312z" />
    <glyph glyph-name="uniFF3A" unicode="&#xff3a;" 
d="M739 -143h-531v45l449 799h-422v58h497v-53l-442 -791h449v-58z" />
    <glyph glyph-name="uniFF3B" unicode="&#xff3b;" horiz-adv-x="474" 
d="M411 -182h-198v969h198v-53h-135v-863h135v-53z" />
    <glyph glyph-name="uniFFE6" unicode="&#xffe6;" 
d="M611 -142l-342 900h68l341 -900h-67z" />
    <glyph glyph-name="uniFF3D" unicode="&#xff3d;" horiz-adv-x="474" 
d="M261 -182h-199v53h135v863h-135v53h199v-969z" />
    <glyph glyph-name="uniFF3E" unicode="&#xff3e;" 
d="M699 457h-73l-152 265l-153 -265h-72l201 341h48z" />
    <glyph glyph-name="uniFF3F" unicode="&#xff3f;" 
d="M257 -115v57h434v-57h-434z" />
    <glyph glyph-name="uniFF40" unicode="&#xff40;" 
d="M553 541h-54l-105 261h80z" />
    <glyph glyph-name="uniFF41" unicode="&#xff41;" 
d="M248 44v335q0 83 57 135t151 52q127 0 181 -80v70h63v-697h-62v66q-51 -77 -174 -77q-99 0 -157.5 48.5t-58.5 147.5zM311 365v-322q0 -73 45.5 -105.5t115.5 -32.5q72 0 118.5 34.5t46.5 91.5v349q0 56 -46.5 92t-110.5 36q-169 0 -169 -143z" />
    <glyph glyph-name="uniFF42" unicode="&#xff42;" 
d="M701 379v-337q0 -98 -60 -147t-159 -49q-123 0 -174 75v-64h-62v912h64v-281q54 78 181 78q96 0 154 -53t56 -134zM638 41v324q0 144 -172 144q-64 0 -110 -36t-46 -93v-351q0 -57 46.5 -91t118.5 -34q70 0 116.5 32.5t46.5 104.5z" />
    <glyph glyph-name="uniFF43" unicode="&#xff43;" 
d="M634 73h63v-47q0 -85 -62 -131.5t-164 -46.5q-95 0 -157.5 51t-62.5 144v340q0 86 61.5 138t161.5 52q99 0 159 -48.5t60 -123.5v-54h-64v33q0 70 -43.5 103t-111.5 33q-70 0 -114.5 -36.5t-44.5 -115.5v-311q0 -78 43.5 -113t113.5 -35q72 0 117 31.5t45 99.5v37z" />
    <glyph glyph-name="uniFF44" unicode="&#xff44;" 
d="M247 42v337q0 83 57 135t153 52q126 0 181 -79v282h63v-912h-62v64q-51 -75 -173 -75q-99 0 -159 49t-60 147zM310 366v-325q0 -72 46.5 -104.5t116.5 -32.5q72 0 118.5 34t46.5 91v352q0 57 -46.5 93t-110.5 36q-171 0 -171 -144z" />
    <glyph glyph-name="uniFF45" unicode="&#xff45;" 
d="M636 61h63v-27q0 -89 -60.5 -137.5t-161.5 -48.5q-95 0 -161.5 49.5t-66.5 141.5v345q0 85 63 136.5t162 51.5q100 0 161.5 -50.5t61.5 -131.5v-231h-385v-109q0 -78 47 -112t119 -34q71 0 114.5 33t43.5 105v19zM312 366v-152h322v155q0 76 -45.5 112t-114.5 36
q-70 0 -116 -36t-46 -115z" />
    <glyph glyph-name="uniFF46" unicode="&#xff46;" 
d="M670 768v-57q-41 12 -81 12q-51 1 -79.5 -29t-28.5 -93v-88h192v-57h-192v-598h-64v598h-142v57h142v98q0 81 48 126t115 44q54 0 90 -13z" />
    <glyph glyph-name="uniFF47" unicode="&#xff47;" 
d="M708 559v-579q0 -85 -55.5 -139.5t-180.5 -54.5q-163 0 -217 112h75q38 -56 147 -56q73 0 120.5 33.5t47.5 100.5v95q-24 -41 -77 -57.5t-101 -16.5q-104 0 -166 48.5t-62 141.5v208q0 79 62 129.5t152 50.5q139 0 192 -81v65h63zM645 185v200q0 58 -50 95.5t-117 37.5
q-80 0 -128 -35t-48 -110v-181q0 -71 48.5 -105t122.5 -34q75 0 123.5 35.5t48.5 96.5z" />
    <glyph glyph-name="uniFF48" unicode="&#xff48;" 
d="M307 362v-505h-63v912h63v-290q64 74 180 74q98 0 157.5 -54.5t59.5 -141.5v-500h-63v495q0 75 -47.5 109.5t-125.5 34.5q-63 0 -112 -36.5t-49 -97.5z" />
    <glyph glyph-name="uniFF49" unicode="&#xff49;" 
d="M506 -142h-63v657h63v-657zM412 711q0 28 17.5 46t44.5 18q26 0 44 -18t18 -46q0 -27 -18 -44.5t-44 -17.5q-27 0 -44.5 17.5t-17.5 44.5z" />
    <glyph glyph-name="uniFF4A" unicode="&#xff4a;" 
d="M502 526h64v-401q0 -275 -215 -342v61q89 42 120 119.5t31 199.5v363zM472 712q0 28 17 45.5t45 17.5q26 0 44 -17.5t18 -45.5t-18 -45.5t-44 -17.5q-28 0 -45 17.5t-17 45.5z" />
    <glyph glyph-name="uniFF4B" unicode="&#xff4b;" 
d="M267 -143h-63v912h63v-624l382 414h88l-290 -314l296 -388h-84l-257 337l-135 -144v-193z" />
    <glyph glyph-name="uniFF4C" unicode="&#xff4c;" 
d="M506 -142h-64v903h64v-903z" />
    <glyph glyph-name="uniFF4D" unicode="&#xff4d;" 
d="M798 -141h-64v509q0 73 -32.5 107.5t-87.5 34.5q-41 0 -75 -37.5t-34 -94.5v-519h-64v512q0 72 -33 105.5t-88 33.5q-39 0 -73.5 -37.5t-34.5 -94.5v-519h-63v698h63v-65q18 36 56.5 55t76.5 19q44 0 81 -24.5t54 -64.5q51 90 154 90q72 0 118 -51.5t46 -138.5v-518z" />
    <glyph glyph-name="uniFF4E" unicode="&#xff4e;" 
d="M311 375v-516h-63v698h63v-71q63 80 176 80q97 0 155 -53.5t58 -141.5v-512h-64v507q0 143 -168 143q-63 0 -110 -36.5t-47 -97.5z" />
    <glyph glyph-name="uniFF4F" unicode="&#xff4f;" 
d="M703 389v-352q0 -87 -68.5 -138t-160.5 -51t-160.5 51t-68.5 138v352q0 80 65.5 132t163.5 52t163.5 -52t65.5 -132zM640 56v309q0 80 -48 115.5t-118 35.5q-71 0 -118 -35.5t-47 -115.5v-309q0 -79 47 -115t118 -36q70 0 118 36.5t48 114.5z" />
    <glyph glyph-name="uniFF50" unicode="&#xff50;" 
d="M702 377v-238q2 -81 -57 -134t-155 -53q-127 0 -182 78v-250h-63v777h62v-60q49 76 174 76q99 0 160 -49t61 -147zM639 153v225q0 72 -47.5 105t-117.5 33q-72 0 -119 -34.5t-47 -91.5v-252q0 -57 47 -93.5t111 -36.5q78 0 125.5 34t47.5 111z" />
    <glyph glyph-name="uniFF51" unicode="&#xff51;" 
d="M245 139v238q0 98 61 147t160 49q126 0 175 -77v61h62v-777h-64v250q-54 -78 -182 -78q-96 0 -155 53t-57 134zM308 378v-225q0 -77 47.5 -111t125.5 -34q64 0 111 36.5t47 93.5v252q0 57 -47 91.5t-119 34.5q-70 0 -117.5 -33t-47.5 -105z" />
    <glyph glyph-name="uniFF52" unicode="&#xff52;" 
d="M628 579v-63q-87 -6 -165.5 -77.5t-78.5 -144.5v-435h-64v698h64v-135q37 72 109.5 113t134.5 44z" />
    <glyph glyph-name="uniFF53" unicode="&#xff53;" 
d="M252 57h64v-41q0 -53 46 -82.5t113 -29.5q71 0 114.5 34t43.5 79v44q0 23 -8.5 40.5t-27 30.5t-32.5 20t-39 17l-144 58q-26 11 -42 19.5t-38 24.5t-33 37t-11 47v67q0 76 61.5 115t143.5 39q87 0 152.5 -39t65.5 -109v-42h-64v34q0 46 -49 73t-105 27q-60 0 -101 -29.5
t-41 -82.5v-27q0 -39 22.5 -60t73.5 -43l154 -63q36 -16 59.5 -30t44.5 -39.5t21 -55.5v-80q0 -73 -61 -117t-168 -44q-90 0 -152.5 39.5t-62.5 121.5v47z" />
    <glyph glyph-name="uniFF54" unicode="&#xff54;" 
d="M670 -79v-57q-41 -19 -103 -19q-79 0 -120 51t-41 149v429h-129v57h129v237h64v-237h195v-57h-195v-449q0 -57 25.5 -89.5t77.5 -32.5q53 0 97 18z" />
    <glyph glyph-name="uniFF55" unicode="&#xff55;" 
d="M631 557h64v-532q0 -87 -64 -132t-157 -45t-157 45t-64 132v532h64v-514q0 -78 42.5 -108t114.5 -30q157 0 157 138v514z" />
    <glyph glyph-name="uniFF56" unicode="&#xff56;" 
d="M283 557l191 -611l191 611h69l-225 -691h-70l-225 691h69z" />
    <glyph glyph-name="uniFF57" unicode="&#xff57;" 
d="M751 556h65l-145 -693h-63l-134 539l-135 -539h-62l-146 693h65l117 -574l135 555h51l135 -555z" />
    <glyph glyph-name="uniFF58" unicode="&#xff58;" 
d="M437 210l-206 347h72l170 -286l170 286h72l-207 -347l210 -351h-71l-174 290l-173 -290h-71z" />
    <glyph glyph-name="uniFF59" unicode="&#xff59;" 
d="M638 557h64v-570q0 -89 -54 -145t-179 -56q-159 0 -212 113h76q39 -57 141 -57q72 0 118 33.5t46 101.5v116q-24 -42 -78 -64t-97 -22q-103 0 -160 49t-57 145v356h64v-353q0 -73 44 -106.5t116 -33.5q70 0 119 41.5t49 101.5v350z" />
    <glyph glyph-name="uniFF5A" unicode="&#xff5a;" 
d="M709 -141h-471v54l384 587h-370v57h444v-53l-381 -588h394v-57z" />
    <glyph glyph-name="uniFF5B" unicode="&#xff5b;" horiz-adv-x="474" 
d="M410 -128v-53q-88 -5 -129 48.5t-41 145.5v93q0 106 -29 143q-23 30 -89 33v61q66 1 89 30q29 34 29 126v111q0 88 45.5 132t124.5 44v-52q-56 1 -82 -32.5t-26 -103.5v-98q0 -73 -15.5 -119.5t-67.5 -67.5q29 -15 47 -35.5t25.5 -49t9 -48t1.5 -54.5v-125
q0 -57 26.5 -94.5t81.5 -34.5z" />
    <glyph glyph-name="uniFF5C" unicode="&#xff5c;" 
d="M506 -145h-65v906h65v-906z" />
    <glyph glyph-name="uniFF5D" unicode="&#xff5d;" horiz-adv-x="474" 
d="M62 -181v53q55 -3 81.5 34.5t26.5 94.5v125q0 35 1.5 54.5t9 48t25.5 49t47 35.5q-52 21 -67.5 67.5t-15.5 119.5v98q0 70 -26 103.5t-82 32.5v52q79 0 124.5 -44t45.5 -132v-111q0 -92 29 -126q23 -29 89 -30v-61q-66 -3 -89 -33q-29 -37 -29 -143v-93q0 -92 -41 -145.5
t-129 -48.5z" />
    <glyph glyph-name="uniFFE3" unicode="&#xffe3;" 
d="M63 735v57h820v-57h-820z" />
    <glyph glyph-name="uni3131" unicode="&#x3131;" 
d="M162 485v56h618v-114q0 -98 -19 -210t-51 -163h-66q73 148 73 342v89h-555z" />
    <glyph glyph-name="uni3132" unicode="&#x3132;" 
d="M503 487v55h328v-127q0 -95 -19 -201.5t-49 -156.5h-66q33 67 52 160t19 184v86h-265zM143 487v55h296v-124q0 -96 -23 -202t-57 -159h-67q36 72 60 166t24 179v85h-233z" />
    <glyph glyph-name="uni3133" unicode="&#x3133;" 
d="M123 487v55h342v-124q0 -96 -23 -202t-57 -159h-67q36 72 60 166t24 179v85h-279zM549 71h-66l184 322v153h62v-153l185 -322h-66l-150 255z" />
    <glyph glyph-name="uni3134" unicode="&#x3134;" 
d="M788 228v-58q-87 -41 -228.5 -68t-269.5 -27h-126v465h63v-409h75q115 0 256 28t230 69z" />
    <glyph glyph-name="uni3135" unicode="&#x3135;" 
d="M500 485v55h382v-55h-159v-118l175 -300h-67l-139 237l-139 -237h-67l175 300v118h-161zM120 71v467h62v-409q174 0 285 55v-62q-100 -51 -284 -51h-63z" />
    <glyph glyph-name="uni3136" unicode="&#x3136;" 
d="M710 60h-68q-66 0 -110 33.5t-44 108.5q0 74 44.5 109t109.5 35h68q67 0 111 -34t44 -109t-44 -109t-111 -34zM641 110h70q49 0 72 26t23 67q0 93 -95 93h-70q-49 0 -71.5 -25.5t-22.5 -67.5q0 -41 23 -67t71 -26zM433 410v51h477v-51h-477zM547 538v50h252v-50h-252z
M106 71v462h63v-404q172 2 273 52v-61q-106 -49 -273 -49h-63z" />
    <glyph glyph-name="uni3137" unicode="&#x3137;" 
d="M764 484h-537v-360h66q124 0 274 25.5t241 63.5v-58q-90 -39 -239 -63t-287 -24h-118v472h600v-56z" />
    <glyph glyph-name="uni3138" unicode="&#x3138;" 
d="M85 70v470h329v-56h-267v-356q187 0 294 54v-60q-58 -26 -148 -39t-161 -13h-47zM488 70v470h340v-56h-277v-356q71 0 163.5 14t154.5 44v-59q-55 -25 -148.5 -40t-168.5 -17h-64z" />
    <glyph glyph-name="uni3139" unicode="&#x3139;" 
d="M828 163v-56q-82 -25 -222 -41.5t-289 -16.5h-154v304h551v150h-551v56h615v-261h-551v-193h102q142 0 279 16.5t220 41.5z" />
    <glyph glyph-name="uni313A" unicode="&#x313a;" 
d="M877 51h-63v452h-272v56h335v-508zM76 503v56h391v-260h-327v-193h55q76 0 165 13t154 36v-57q-60 -23 -162 -35t-182 -12h-94v303h327v149h-327z" />
    <glyph glyph-name="uni313B" unicode="&#x313b;" 
d="M529 51v508h348v-508h-348zM587 503v-396h232v396h-232zM76 503v56h364v-260h-300v-193h30q178 0 301 43v-58q-86 -33 -279 -40h-116v303h300v149h-300z" />
    <glyph glyph-name="uni313C" unicode="&#x313c;" 
d="M819 561h58v-510h-349v510h58v-184h233v184zM586 106h233v216h-233v-216zM76 503v56h362v-260h-298v-193h30q177 0 300 43v-58q-86 -33 -278 -40h-116v303h300v149h-300z" />
    <glyph glyph-name="uni313D" unicode="&#x313d;" 
d="M551 52h-66l174 337v176h63v-176l175 -337h-67l-139 265zM76 503v56h372v-260h-308v-193h38q177 0 300 43v-58q-86 -33 -278 -40h-124v303h310v149h-310z" />
    <glyph glyph-name="uni313E" unicode="&#x313e;" 
d="M471 149v-57q-103 -41 -325 -41h-70v303h300v149h-300v56h364v-260h-300v-192h31q194 0 300 42zM885 107v-55h-355v507h344v-56h-282v-145h281v-55h-281v-196h293z" />
    <glyph glyph-name="uni313F" unicode="&#x313f;" 
d="M76 503v56h363v-260h-299v-193h31q176 0 299 43v-58q-86 -33 -278 -40h-116v303h299v149h-299zM490 51v56h83l-13 347h57l13 -347h135l13 347h58l-15 -347h88v-56h-419zM496 503v56h403v-56h-403z" />
    <glyph glyph-name="uni3140" unicode="&#x3140;" 
d="M724 41h-45q-66 0 -110.5 35.5t-44.5 110.5q0 74 45 110.5t110 36.5h45q66 0 110.5 -36t44.5 -111t-44.5 -110.5t-110.5 -35.5zM677 91h50q49 0 72 27.5t23 68.5q0 43 -22.5 70t-72.5 27h-50q-49 0 -72 -27.5t-23 -69.5q0 -41 23.5 -68.5t71.5 -27.5zM479 404v54h443v-54
h-443zM567 540v52h263v-52h-263zM76 503v56h363v-260h-300v-192h31q179 0 300 42v-58q-112 -40 -339 -40h-55v303h300v149h-300z" />
    <glyph glyph-name="uni3141" unicode="&#x3141;" 
d="M163 66v474h621v-492h-63v108q-70 -35 -215 -62.5t-268 -27.5h-75zM226 123h31q105 0 249 27.5t215 63.5v270h-495v-361z" />
    <glyph glyph-name="uni3142" unicode="&#x3142;" 
d="M163 64v484h63v-161h495v161h63v-500h-63v106q-69 -35 -215 -62.5t-260 -27.5h-83zM226 121h39q99 0 243.5 28t212.5 63v120h-495v-211z" />
    <glyph glyph-name="uni3143" unicode="&#x3143;" 
d="M122 67v483h60v-173h192v173h61v-496h-61v54q-42 -20 -109.5 -30.5t-109.5 -10.5h-33zM182 323v-200q21 1 50.5 4t73.5 13.5t68 25.5v157h-192zM512 67v483h60v-173h192v173h61v-496h-61v54q-42 -20 -109.5 -30.5t-109.5 -10.5h-33zM572 323v-200q21 1 50.5 4t73.5 13.5
t68 25.5v157h-192z" />
    <glyph glyph-name="uni3144" unicode="&#x3144;" 
d="M98 67v483h60v-160h234v160h61v-496h-61v75q-46 -31 -119.5 -46.5t-141.5 -15.5h-33zM158 336v-213q150 5 234 66v147h-234zM561 57h-66l174 332v166h63v-166l175 -332h-67l-139 260z" />
    <glyph glyph-name="uni3145" unicode="&#x3145;" 
d="M849 71h-78l-297 297l-298 -297h-78l344 351v160h64v-160z" />
    <glyph glyph-name="uni3146" unicode="&#x3146;" 
d="M876 68h-63l-159 289l-151 -280h-59l-151 280l-159 -289h-63l192 356v147h62v-147l148 -281l150 281v147h62v-147z" />
    <glyph glyph-name="uni3147" unicode="&#x3147;" 
d="M580 67h-214q-94 0 -160.5 68t-66.5 187q0 116 65.5 177.5t161.5 61.5h214q96 0 161.5 -61.5t65.5 -177.5q0 -119 -66.5 -187t-160.5 -68zM375 121h196q81 0 127.5 58t46.5 142t-45.5 134.5t-128.5 50.5h-196q-82 0 -128 -51t-46 -134q0 -84 47 -142t127 -58z" />
    <glyph glyph-name="uni3148" unicode="&#x3148;" 
d="M442 487h-285v55h633v-55h-285v-133l338 -311h-81l-288 257l-289 -257h-81l338 311v133z" />
    <glyph glyph-name="uni3149" unicode="&#x3149;" 
d="M99 487v55h354v-55h-129v-138l150 -251l150 251v138h-131v55h354v-55h-161v-138l185 -305h-67l-149 242l-149 -242h-64l-149 242l-149 -242h-67l185 305v138h-163z" />
    <glyph glyph-name="uni314A" unicode="&#x314a;" 
d="M141 390v54h665v-54h-301v-98l352 -252h-89l-294 206l-296 -206h-89l353 252v98h-301zM268 555v54h411v-54h-411z" />
    <glyph glyph-name="uni314B" unicode="&#x314b;" 
d="M162 245v56h553q5 35 5 103v80h-558v56h621v-128q0 -97 -19.5 -209.5t-48.5 -162.5h-66q42 82 59 205h-546z" />
    <glyph glyph-name="uni314C" unicode="&#x314c;" 
d="M777 504h-550v-146h543v-55h-543v-196h66q355 0 535 61v-57q-179 -60 -546 -60h-118v509h613v-56z" />
    <glyph glyph-name="uni314D" unicode="&#x314d;" 
d="M114 65v55h154l-25 297h62l25 -297h286l26 297h62l-25 -297h154v-55h-719zM131 487v56h685v-56h-685z" />
    <glyph glyph-name="uni314E" unicode="&#x314e;" 
d="M588 31h-208q-35 0 -63.5 3t-58.5 13t-50.5 26t-33.5 43.5t-13 65.5t13 65.5t33.5 43.5t50.5 26t58.5 13t63.5 3h186q35 0 63.5 -3t59 -13t51 -26t33.5 -43.5t13 -65.5q0 -77 -54.5 -114t-143.5 -37zM359 85h204q34 0 59 3.5t50.5 13t39 30t13.5 50.5q0 97 -150 97h-192
q-161 0 -161 -97t137 -97zM109 414v55h730v-55h-730zM269 555v54h409v-54h-409z" />
    <glyph glyph-name="uni314F" unicode="&#x314f;" 
d="M476 -152h-63v920h63v-365h186v-55h-186v-500z" />
    <glyph glyph-name="uni3150" unicode="&#x3150;" 
d="M375 -151h-62v919h62v-364h197v364h61v-919h-61v500h-197v-500z" />
    <glyph glyph-name="uni3151" unicode="&#x3151;" 
d="M476 -151h-63v919h63v-207h185v-55h-185v-273h185v-55h-185v-329z" />
    <glyph glyph-name="uni3152" unicode="&#x3152;" 
d="M375 -151h-62v919h62v-199h197v199h61v-919h-61v335h-197v-335zM375 514v-275h197v275h-197z" />
    <glyph glyph-name="uni3153" unicode="&#x3153;" 
d="M571 -152h-63v500h-186v55h186v365h63v-920z" />
    <glyph glyph-name="uni3154" unicode="&#x3154;" 
d="M206 334v55h193v379h61v-919h-61v485h-193zM666 -151h-61v919h61v-919z" />
    <glyph glyph-name="uni3155" unicode="&#x3155;" 
d="M322 513v55h186v200h63v-919h-63v324h-186v55h186v285h-186z" />
    <glyph glyph-name="uni3156" unicode="&#x3156;" 
d="M214 500v55h185v213h61v-919h-61v319h-185v55h185v277h-185zM666 -151h-61v919h61v-919z" />
    <glyph glyph-name="uni3157" unicode="&#x3157;" 
d="M885 -66h-823v56h380v315h63v-315h380v-56z" />
    <glyph glyph-name="uni3158" unicode="&#x3158;" 
d="M787 -152h-62v920h62v-363h146v-55h-146v-502zM674 54v-57q-85 -33 -237 -51t-296 -18h-111v55h112q64 0 152 5v304h63v-298q212 18 317 60z" />
    <glyph glyph-name="uni3159" unicode="&#x3159;" 
d="M649 -151h-61v919h61v-355h156v355h62v-919h-62v509h-156v-509zM28 -72v56h107q56 0 113 4v302h62v-297q148 13 238 42v-56q-137 -47 -404 -51h-116z" />
    <glyph glyph-name="uni315A" unicode="&#x315a;" 
d="M50 -72v56h150q58 0 122 3v303h62v-298q227 16 342 62v-56q-85 -33 -235 -51.5t-292 -18.5h-149zM845 -151h-62v919h62v-919z" />
    <glyph glyph-name="uni315B" unicode="&#x315b;" 
d="M62 -65v55h222v310h63v-310h253v310h63v-310h221v-55h-822z" />
    <glyph glyph-name="uni315C" unicode="&#x315c;" 
d="M505 -139h-63v342h-383v56h829v-56h-383v-342z" />
    <glyph glyph-name="uni315D" unicode="&#x315d;" 
d="M565 28v55h218v685h62v-919h-62v179h-218zM373 -139h-63v326q-66 -3 -125 -3h-135v55h131q143 0 292.5 16.5t241.5 48.5v-57q-119 -42 -342 -56v-330z" />
    <glyph glyph-name="uni315E" unicode="&#x315e;" 
d="M440 26v55h171v687h61v-919h-61v177h-171zM867 -151h-62v919h62v-919zM311 -139h-61v324q-68 -4 -118 -4h-97v55h98q93 0 210 12.5t201 39.5v-57q-89 -31 -233 -42v-328z" />
    <glyph glyph-name="uni315F" unicode="&#x315f;" 
d="M389 -139h-63v317q-74 -3 -140 -3h-136v56h138q142 0 292.5 16t242.5 48v-56q-107 -39 -334 -57v-321zM845 -151h-62v919h62v-919z" />
    <glyph glyph-name="uni3160" unicode="&#x3160;" 
d="M320 -139h-63v342h-198v56h829v-56h-198v-342h-62v342h-308v-342z" />
    <glyph glyph-name="uni3161" unicode="&#x3161;" 
d="M62 57v56h822v-56h-822z" />
    <glyph glyph-name="uni3162" unicode="&#x3162;" 
d="M845 -151h-62v919h62v-919zM50 -59v55h150q142 0 292 18.5t234 51.5v-57q-85 -32 -235 -50t-292 -18h-149z" />
    <glyph glyph-name="uni3163" unicode="&#x3163;" 
d="M505 -151h-63v919h63v-919z" />
    <glyph glyph-name="uni3165" unicode="&#x3165;" 
d="M523 533h62v-405h284v-57h-346v462zM105 71v462h63v-405q183 0 289 53v-59q-100 -51 -289 -51h-63z" />
    <glyph glyph-name="uni3166" unicode="&#x3166;" 
d="M105 71v462h63v-405q183 0 289 53v-59q-100 -51 -289 -51h-63zM530 533h325v-55h-262v-350h278v-57h-341v462z" />
    <glyph glyph-name="uni3167" unicode="&#x3167;" 
d="M549 71h-66l174 322v153h62v-153l175 -322h-66l-140 255zM105 71v462h63v-405q183 0 289 53v-59q-100 -51 -289 -51h-63z" />
    <glyph glyph-name="uni3168" unicode="&#x3168;" 
d="M889 71h-393l178 487h38zM805 123l-112 329l-113 -329h225zM105 71v462h63v-405q183 0 289 53v-59q-100 -51 -289 -51h-63z" />
    <glyph glyph-name="uni3169" unicode="&#x3169;" 
d="M16 503v56h291v-260h-227v-193h36q38 0 108.5 10t123.5 30v-54q-48 -19 -121.5 -29.5t-123.5 -11.5h-87v303h229v149h-229zM695 52h-69l132 337v179h63v-179l130 -337h-67l-94 265zM606 50h-63v452h-197v56h260v-508z" />
    <glyph glyph-name="uni316A" unicode="&#x316a;" 
d="M886 107v-55h-337v507h324v-56h-261v-396h274zM491 149v-57q-103 -41 -345 -41h-70v303h320v149h-320v56h384v-260h-320v-192h35q210 0 316 42z" />
    <glyph glyph-name="uni316B" unicode="&#x316b;" 
d="M555 561h58v-510h-266v510h58v-184h150v184zM405 106h150v216h-150v-216zM16 503v56h272v-260h-208v-193h30q101 0 201 37v-54q-88 -35 -214 -38h-81v303h210v149h-210zM700 52h-69l127 337v179h63v-179l125 -337h-67l-89 265z" />
    <glyph glyph-name="uni316C" unicode="&#x316c;" 
d="M491 149v-57q-103 -41 -345 -41h-70v303h320v149h-320v56h384v-260h-320v-192h35q210 0 316 42zM907 51h-399l181 531h38zM823 107l-115 358l-116 -358h231z" />
    <glyph glyph-name="uni316D" unicode="&#x316d;" 
d="M512 503v55h387v-55h-387zM76 503v55h364v-260h-300v-192h30q179 0 301 41v-56q-86 -33 -279 -40h-116v303h300v149h-300zM878 278v-93q0 -70 -48.5 -107t-121.5 -37t-121.5 37t-48.5 107v93q0 70 48.5 107t121.5 37t121.5 -37t48.5 -107zM820 203v57q0 61 -34 85t-78 24
q-45 0 -78.5 -24t-33.5 -85v-57q0 -60 33.5 -84t78.5 -24q27 0 50 7.5t42.5 33.5t19.5 67z" />
    <glyph glyph-name="uni316E" unicode="&#x316e;" 
d="M138 66h-38v473h345v-487h-60v84q-41 -31 -112.5 -50.5t-134.5 -19.5zM788 539h58v-473h-316v473h58v-166h200v166zM160 483v-361q62 3 123.5 22.5t101.5 50.5v288h-225zM588 120h200v198h-200v-198z" />
    <glyph glyph-name="uni316F" unicode="&#x316f;" 
d="M138 66h-38v473h345v-487h-60v84q-41 -31 -112.5 -50.5t-134.5 -19.5zM161 483v-361q62 3 123.5 22.5t100.5 50.5v288h-224zM551 67h-66l174 327v156h63v-156l175 -327h-67l-139 255z" />
    <glyph glyph-name="uni3170" unicode="&#x3170;" 
d="M138 66h-38v473h345v-487h-60v84q-41 -31 -112.5 -50.5t-134.5 -19.5zM889 71h-393l178 487h38zM161 483v-361q62 3 123.5 22.5t100.5 50.5v288h-224zM805 123l-112 329l-113 -329h225z" />
    <glyph glyph-name="uni3171" unicode="&#x3171;" 
d="M170 335v373h606v-383h-62v99q-68 -35 -207.5 -62t-261.5 -27h-75zM572 -98h-193q-209 0 -209 173t208 173h195q208 0 208 -173t-209 -173zM233 392h32q105 0 242.5 27t206.5 64v169h-481v-260zM381 -44h189q149 0 149 118q0 58 -34 88.5t-115 30.5h-189
q-80 0 -114.5 -30.5t-34.5 -88.5q0 -117 149 -118z" />
    <glyph glyph-name="uni3172" unicode="&#x3172;" 
d="M98 67v483h60v-160h245v160h60v-496h-60v82q-48 -32 -127.5 -50.5t-144.5 -18.5h-33zM158 336v-213q56 2 126 21t119 52v140h-245zM845 58h-63v437h-247v55h310v-492z" />
    <glyph glyph-name="uni3173" unicode="&#x3173;" 
d="M98 67v483h60v-160h232v160h60v-496h-60v82q-47 -32 -121 -50.5t-138 -18.5h-33zM842 549v-55h-247v-370h259v-58h-319v483h307zM158 336v-213q56 2 120.5 20.5t111.5 52.5v140h-232z" />
    <glyph glyph-name="uni3174" unicode="&#x3174;" 
d="M245 550h58v-483h-276v483h58v-163h160v163zM85 122h160v210h-160v-210zM409 67h-67l138 322v168h63v-168l139 -322h-65l-105 245zM893 57h-63v437h-197v56h260v-493z" />
    <glyph glyph-name="uni3175" unicode="&#x3175;" 
d="M251 550h58v-483h-282v483h58v-163h166v163zM85 122h166v210h-166v-210zM402 67h-66l127 322v168h63v-168l125 -322h-64l-92 245zM928 549v-55h-189v-370h201v-58h-261v483h249z" />
    <glyph glyph-name="uni3176" unicode="&#x3176;" 
d="M98 67v483h60v-160h234v160h61v-496h-61v82q-48 -32 -122.5 -50.5t-138.5 -18.5h-33zM530 494v55h354v-55h-145v-127l162 -300h-62l-131 237l-132 -237h-61l162 300v127h-147zM158 336v-213q56 2 121.5 20.5t112.5 52.5v140h-234z" />
    <glyph glyph-name="uni3177" unicode="&#x3177;" 
d="M98 67v483h60v-160h232v160h60v-496h-60v82q-47 -32 -121 -50.5t-138 -18.5h-33zM840 549v-55h-247v-135h244v-56h-244v-179h259v-58h-319v483h307zM158 336v-213q56 2 120.5 20.5t111.5 52.5v140h-232z" />
    <glyph glyph-name="uni3178" unicode="&#x3178;" 
d="M572 -98h-193q-210 0 -210 173t209 173h195q208 0 208 -173t-209 -173zM163 333v389h63v-117h495v117h63v-397h-63v97q-69 -34 -215 -61.5t-260 -27.5h-83zM381 -44h189q149 0 149 118q0 58 -34.5 88.5t-114.5 30.5h-189q-80 0 -114.5 -30.5t-34.5 -88.5q0 -117 149 -118
zM226 389h39q100 0 244.5 28t211.5 63v72h-495v-163z" />
    <glyph glyph-name="uni3179" unicode="&#x3179;" 
d="M122 333v389h60v-115h192v115h61v-402h-61v54q-42 -20 -109.5 -30.5t-109.5 -10.5h-33zM182 553v-164q21 1 50.5 4t73.5 13.5t68 25.5v121h-192zM512 333v389h60v-115h192v115h61v-402h-61v54q-42 -20 -109.5 -30.5t-109.5 -10.5h-33zM572 553v-164q21 1 50.5 4
t73.5 13.5t68 25.5v121h-192zM572 -98h-193q-210 0 -210 173t209 173h195q208 0 208 -173t-209 -173zM381 -44h189q149 0 149 118q0 58 -34.5 88.5t-114.5 30.5h-189q-80 0 -114.5 -30.5t-34.5 -88.5q0 -117 149 -118z" />
    <glyph glyph-name="uni317A" unicode="&#x317a;" 
d="M816 58h-63v425h-255v55h318v-480zM138 67h-66l180 324v152h62v-152l180 -324h-67l-145 256z" />
    <glyph glyph-name="uni317B" unicode="&#x317b;" 
d="M544 539h62v-415h273v-57h-335v472zM116 67h-67l178 324v152h63v-152l177 -324h-67l-142 253z" />
    <glyph glyph-name="uni317C" unicode="&#x317c;" 
d="M874 124v-57h-339v471h323v-56h-263v-358h279zM467 67h-66l-143 254l-142 -254h-66l177 324v152h63v-152z" />
    <glyph glyph-name="uni317D" unicode="&#x317d;" 
d="M788 539h58v-473h-316v473h58v-166h200v166zM588 120h200v198h-200v-198zM467 67h-66l-143 254l-142 -254h-66l177 324v152h63v-152z" />
    <glyph glyph-name="uni317E" unicode="&#x317e;" 
d="M500 485v55h382v-55h-159v-118l175 -300h-67l-139 237l-139 -237h-67l175 300v118h-161zM467 67h-66l-143 254l-142 -254h-66l177 324v152h63v-152z" />
    <glyph glyph-name="uni317F" unicode="&#x317f;" 
d="M738 61h-532l248 527h38zM643 120l-170 374l-172 -374h342z" />
    <glyph glyph-name="uni3180" unicode="&#x3180;" 
d="M430 373v-148q0 -82 -47.5 -124t-125.5 -42t-126 42t-48 124v148q0 82 48 124t126 42t125.5 -42t47.5 -124zM373 237v116q0 133 -116 133t-116 -133v-107q0 -134 116 -134t116 125zM865 373v-148q0 -82 -47.5 -124t-125.5 -42t-126 42t-48 124v148q0 82 48 124t126 42
t125.5 -42t47.5 -124zM808 237v116q0 133 -116 133t-116 -133v-107q0 -134 116 -134t116 125z" />
    <glyph glyph-name="uni3181" unicode="&#x3181;" 
d="M685 335v-157q0 -70 -64 -111.5t-147 -41.5t-147.5 42t-64.5 111v157q0 63 51.5 102.5t129.5 46.5v143h61v-143q79 -5 130 -45t51 -104zM628 196v121q0 61 -47.5 89t-106.5 28q-35 0 -67.5 -9.5t-59.5 -37.5t-27 -70v-121q0 -41 28 -69.5t61 -38.5t65 -10q33 0 66 10
t60.5 38.5t27.5 69.5z" />
    <glyph glyph-name="uni3182" unicode="&#x3182;" 
d="M442 305v-120q0 -69 -49 -106t-122 -37t-122 37t-49 106v120q0 62 39 98.5t102 42.5v130h61v-130q63 -7 101.5 -43t38.5 -98zM385 205v81q0 61 -35 85.5t-79 24.5q-45 0 -79 -24.5t-34 -85.5v-81q0 -60 34.5 -85t78.5 -25q27 0 50.5 8t43.5 34.5t20 67.5zM553 59h-65
l159 327v157h62v-157l160 -327h-66l-125 255z" />
    <glyph glyph-name="uni3183" unicode="&#x3183;" 
d="M442 305v-120q0 -69 -49 -106t-122 -37t-122 37t-49 106v120q0 62 39 98.5t102 42.5v130h61v-130q63 -7 101.5 -43t38.5 -98zM385 205v81q0 61 -35 85.5t-79 24.5q-45 0 -79 -24.5t-34 -85.5v-81q0 -60 34.5 -85t78.5 -25q27 0 50.5 8t43.5 34.5t20 67.5zM889 58h-393
l178 493h38zM805 110l-112 335l-113 -335h225z" />
    <glyph glyph-name="uni3184" unicode="&#x3184;" 
d="M572 -98h-193q-210 0 -210 173t209 173h195q208 0 208 -173t-209 -173zM378 -44h195q79 0 112.5 30.5t33.5 87.5q0 58 -33 88.5t-113 30.5h-195q-79 0 -112.5 -30.5t-33.5 -88.5q0 -59 34.5 -88t111.5 -30zM119 337v55h154l-25 209h63l24 -209h277l25 209h62l-24 -209
h153v-55h-709zM136 653v55h675v-55h-675z" />
    <glyph glyph-name="uni3185" unicode="&#x3185;" 
d="M493 503v55h387v-55h-387zM859 278v-93q0 -70 -48.5 -107t-121.5 -37t-121 37t-48 107v93q0 70 48 107t121 37t121.5 -37t48.5 -107zM802 203v57q0 61 -34.5 85t-78.5 24q-45 0 -78.5 -24t-33.5 -85v-57q0 -60 34 -84t78 -24q19 0 37 4.5t36 15.5t29 33.5t11 54.5z
M67 503v55h387v-55h-387zM433 278v-93q0 -70 -48.5 -107t-121.5 -37t-121.5 37t-48.5 107v93q0 70 48.5 107t121.5 37t121.5 -37t48.5 -107zM375 203v57q0 61 -34 85t-78 24q-45 0 -78.5 -24t-33.5 -85v-57q0 -60 33.5 -84t78.5 -24q27 0 50 7.5t42.5 33.5t19.5 67z" />
    <glyph glyph-name="uni3186" unicode="&#x3186;" 
d="M683 294v-130q0 -70 -63 -111.5t-146 -41.5q-82 0 -145.5 41.5t-63.5 111.5v130q0 70 62 111t147 41q87 0 148 -41t61 -111zM625 182v94q0 61 -46 89t-105 28q-35 0 -67 -9.5t-58.5 -37.5t-26.5 -70v-94q0 -41 27.5 -69.5t60 -38.5t64.5 -10q33 0 65 10t59 38.5t27 69.5z
M213 553v56h521v-56h-521z" />
    <glyph glyph-name="uni3187" unicode="&#x3187;" 
d="M27 -72v56h140v308h61v-306q84 3 180 14v292h60v-285q137 19 206 47v-56q-85 -33 -238 -51.5t-295 -18.5h-114zM787 -151h-62v919h62v-234h146v-55h-146v-196h146v-55h-146v-379z" />
    <glyph glyph-name="uni3188" unicode="&#x3188;" 
d="M649 -151h-61v919h61v-217h156v217h62v-919h-62v361h-156v-361zM649 496v-231h156v231h-156zM26 -72v56h112v306h59v-304q82 2 154 11v293h59v-286q82 12 138 31v-56q-82 -28 -204.5 -39.5t-209.5 -11.5h-108z" />
    <glyph glyph-name="uni3189" unicode="&#x3189;" 
d="M45 -72v56h138v308h60v-307q97 2 198 12v295h61v-289q147 20 224 51v-56q-85 -33 -235 -51.5t-292 -18.5h-154zM845 -151h-62v919h62v-919z" />
    <glyph glyph-name="uni318A" unicode="&#x318a;" 
d="M573 541v55h210v172h62v-919h-62v494h-210v55h210v143h-210zM246 -139h-61v263h-137v55h132q139 0 291 16.5t244 48.5v-57q-71 -28 -219 -45v-281h-62v275q-75 -8 -188 -12v-263z" />
    <glyph glyph-name="uni318B" unicode="&#x318b;" 
d="M437 535v55h174v178h61v-919h-61v493h-174v55h174v138h-174zM200 -139h-59v263h-108v55h100q93 0 210 12.5t201 39.5v-57q-53 -19 -134 -31v-282h-59v275q-73 -9 -151 -11v-264zM867 -151h-62v919h62v-919z" />
    <glyph glyph-name="uni318C" unicode="&#x318c;" 
d="M259 -139h-61v279h-151v56h201q125 2 260 19t215 45v-56q-77 -29 -200 -43v-300h-62v293q-88 -10 -202 -14v-279zM845 -151h-62v919h62v-919z" />
    <glyph glyph-name="uni318D" unicode="&#x318d;" 
d="M415 331q0 28 16.5 45t42.5 17t42.5 -17t16.5 -45q0 -27 -16.5 -44t-42.5 -17t-42.5 17t-16.5 44z" />
    <glyph glyph-name="uni318E" unicode="&#x318e;" 
d="M661 -151h-62v919h62v-919zM284 330q0 28 16.5 45t42.5 17t42.5 -17t16.5 -45q0 -26 -17 -43.5t-42 -17.5t-42 17.5t-17 43.5z" />
    <glyph glyph-name="uni2170" unicode="&#x2170;" 
d="M511 590h-76v74h76v-74zM509 -62h-71v531h71v-531z" />
    <glyph glyph-name="uni2171" unicode="&#x2171;" 
d="M654 590h-74v74h74v-74zM368 590h-74v74h74v-74zM653 -62h-71v531h71v-531zM366 -62h-71v531h71v-531z" />
    <glyph glyph-name="uni2172" unicode="&#x2172;" 
d="M700 590h-75v74h75v-74zM512 590h-75v74h75v-74zM324 590h-75v74h75v-74zM698 -62h-71v531h71v-531zM510 -62h-71v531h71v-531zM322 -62h-71v531h71v-531z" />
    <glyph glyph-name="uni2173" unicode="&#x2173;" 
d="M258 590h-75v74h75v-74zM811 469l-215 -531h-80l-213 531h74l180 -448l178 448h76zM255 -62h-70v531h70v-531z" />
    <glyph glyph-name="uni2174" unicode="&#x2174;" 
d="M728 469l-215 -531h-79l-214 531h74l180 -448l179 448h75z" />
    <glyph glyph-name="uni2175" unicode="&#x2175;" 
d="M776 590h-75v74h75v-74zM773 -62h-70v531h70v-531zM647 469l-214 -531h-80l-214 531h75l179 -448l179 448h75z" />
    <glyph glyph-name="uni2176" unicode="&#x2176;" 
d="M810 590h-69v74h69v-74zM670 590h-70v74h70v-74zM808 -62h-65v531h65v-531zM668 -62h-66v531h66v-531zM555 469l-188 -531h-80l-188 531h71l157 -448l156 448h72z" />
    <glyph glyph-name="uni2177" unicode="&#x2177;" 
d="M861 590h-68v74h68v-74zM730 590h-70v74h70v-74zM598 590h-69v74h69v-74zM859 -62h-64v531h64v-531zM728 -62h-66v531h66v-531zM596 -62h-66v531h66v-531zM487 469l-177 -531h-79l-179 531h70l146 -448l145 448h74z" />
    <glyph glyph-name="uni2178" unicode="&#x2178;" 
d="M276 590h-76v74h76v-74zM788 -62h-78l-162 217l-161 -217h-78l200 272l-191 259h78l152 -205l153 205h78l-191 -259zM273 -62h-70v531h70v-531z" />
    <glyph glyph-name="uni2179" unicode="&#x2179;" 
d="M718 -62h-84l-163 216l-162 -216h-85l203 272l-194 259h82l153 -204l154 204h81l-193 -259z" />
    <glyph glyph-name="uni2160" unicode="&#x2160;" 
d="M509 -62h-70v724h70v-724z" />
    <glyph glyph-name="uni2161" unicode="&#x2161;" 
d="M653 -62h-71v724h71v-724zM366 -62h-71v724h71v-724z" />
    <glyph glyph-name="uni2162" unicode="&#x2162;" 
d="M697 -62h-71v724h71v-724zM510 -62h-71v724h71v-724zM322 -62h-71v724h71v-724z" />
    <glyph glyph-name="uni2163" unicode="&#x2163;" 
d="M799 662l-215 -724h-85l-215 724h73l184 -643l182 643h76zM246 -62h-71v724h71v-724z" />
    <glyph glyph-name="uni2164" unicode="&#x2164;" 
d="M789 662l-273 -724h-81l-271 724h73l239 -643l240 643h73z" />
    <glyph glyph-name="uni2165" unicode="&#x2165;" 
d="M767 -62h-69v724h69v-724zM651 662l-216 -724h-80l-216 724h74l182 -643l182 643h74z" />
    <glyph glyph-name="uni2166" unicode="&#x2166;" 
d="M808 -62h-65v724h65v-724zM667 -62h-66v724h66v-724zM555 662l-187 -724h-85l-187 724h73l155 -643l155 643h76z" />
    <glyph glyph-name="uni2167" unicode="&#x2167;" 
d="M859 -62h-64v724h64v-724zM728 -62h-65v724h65v-724zM595 -62h-65v724h65v-724zM493 662l-179 -724h-81l-178 724h73l143 -643l143 643h79z" />
    <glyph glyph-name="uni2168" unicode="&#x2168;" 
d="M820 -62h-79l-202 312q1 0 -101 -156l-101 -156h-79l241 375l-224 349h79l185 -286l185 286h79l-225 -350q0 1 121 -186zM217 -62h-65v724h65v-724z" />
    <glyph glyph-name="uni2169" unicode="&#x2169;" 
d="M755 -62h-79l-203 312q1 0 -101 -156l-101 -156h-79q15 24 40 62.5t78 121t88 136.5l36 54l-225 350h79l185 -286l186 286h79l-225 -349z" />
    <glyph glyph-name="Alpha" unicode="&#x391;" 
d="M759 -1q13 0 16 -8t-4.5 -16t-21.5 -8h-204q-20 0 -15.5 16t24.5 16q50 0 61 8.5t8 37.5l-15 138h-258l-86 -133q-23 -33 -16.5 -42t59.5 -9q13 0 16.5 -8t-4.5 -16t-22 -8h-174q-12 0 -15 8t4 16t20 8q39 0 56 11.5t47 57.5l366 560q5 8 11.5 11.5t11 0.5t5.5 -12
l69 -591q2 -25 13 -31.5t48 -6.5zM604 219l-35 298l-196 -298h231z" />
    <glyph glyph-name="Beta" unicode="&#x392;" 
d="M767 467q-17 -67 -73.5 -108t-128.5 -50q77 -7 123.5 -47t26.5 -116q-15 -55 -50 -92.5t-85 -55t-98 -24.5t-107 -7h-246q-14 0 -17 8t4.5 16t20.5 8q56 0 70.5 8t23.5 41l132 495q10 31 0 39.5t-67 8.5q-20 0 -15.5 16t24.5 16h286q39 0 72.5 -7.5t63 -24t41 -48.5
t-0.5 -76zM691 456q7 25 7.5 44.5t-6 33.5t-14.5 24t-25 16t-29 10t-35.5 5t-36 1.5t-38.5 0.5h-8q-43 0 -55 -7t-20 -40l-59 -223h51q105 0 147 17q43 16 76.5 47t44.5 71zM640 139q8 29 7.5 51.5t-6.5 38t-20 27t-30 18t-40.5 10t-46.5 4.5t-52 1h-89l-65 -241
q-9 -34 -2 -41.5t52 -7.5t72 1t69 8.5t67.5 21.5t49.5 41.5t34 67.5z" />
    <glyph glyph-name="Gamma" unicode="&#x393;" 
d="M801 607l-44 -201q-2 -10 -10 -15t-14.5 -1.5t-5.5 14.5q4 36 5.5 60t-2 45t-8 33.5t-19.5 22.5t-28.5 14.5t-43 7.5t-56 3.5t-73.5 0.5t-61 -8.5t-23 -44.5l-124 -472q-14 -44 -4 -55.5t70 -11.5q13 0 16.5 -8t-4 -16t-20.5 -8h-232q-14 0 -17.5 8t4 16t21.5 8
q58 0 72.5 10.5t26.5 56.5l128 477q9 33 -0.5 40.5t-66.5 7.5q-14 0 -17.5 8t4 16t21.5 8h490q10 0 13.5 -3t1.5 -13z" />
    <glyph glyph-name="uni0394" unicode="&#x394;" 
d="M698 37q4 -40 -1.5 -55t-29.5 -15h-440q-30 0 -34 13.5t22 55.5l386 592q5 8 11.5 11.5t11 0.5t5.5 -12zM623 45l-54 472l-305 -467q-23 -33 -16.5 -42t59.5 -9h247q44 0 58.5 9.5t10.5 36.5z" />
    <glyph glyph-name="Epsilon" unicode="&#x395;" 
d="M790 607l-43 -201q-2 -10 -10 -14.5t-14.5 -1t-5.5 13.5q3 37 4 61.5t-4.5 46t-9.5 33.5t-21 22t-29 14t-44 6.5t-55 3t-73 0.5q-43 0 -55 -7t-20 -40l-60 -224q43 0 62 0.5t43.5 4.5t33.5 9.5t22.5 19.5t22 31.5t20.5 47.5q5 12 14 17t14 0t1 -17l-70 -258
q-3 -13 -10.5 -17.5t-13.5 0t-5 16.5q4 30 5 47t-5 31t-12 19.5t-28 9.5t-41 4.5t-62 0.5l-63 -238q-10 -34 -3 -41.5t52 -7.5q66 0 100.5 1t72.5 8t56 17t40 33t36.5 51.5t35.5 76.5q5 11 13.5 15t14.5 -1t3 -16l-64 -201q-6 -16 -24 -16h-503q-14 0 -17 8t5 16t21 8
q56 0 70 8t23 41l132 495q11 31 1 39.5t-67 8.5q-13 0 -16.5 8t4 16t20.5 8h492q10 0 13 -3t1 -13z" />
    <glyph glyph-name="Zeta" unicode="&#x396;" 
d="M807 599l-562 -600h143q38 0 59 0.5t47 3.5t40 7.5t32 14t28.5 22.5t25 33.5t26 45.5t26.5 60q8 18 21 16.5t8 -18.5l-64 -201q-6 -16 -24 -16h-452q-25 0 -2 25l560 599h-117q-36 0 -56 -0.5t-45 -3t-38.5 -7.5t-31 -14.5t-28 -22.5t-24.5 -33.5t-26 -45.5t-27 -60
q-7 -17 -20.5 -15.5t-8.5 17.5l65 201q6 16 24 16h419q24 0 2 -24z" />
    <glyph glyph-name="Eta" unicode="&#x397;" 
d="M878 623q14 0 17.5 -8t-4 -16t-21.5 -8q-58 0 -72.5 -10t-26.5 -56l-123 -459q-14 -44 -4.5 -55.5t67.5 -11.5q14 0 17.5 -8t-4.5 -16t-22 -8h-233q-14 0 -17 8t5 16t21 8q60 0 75 10.5t27 56.5l59 221h-334l-59 -221q-14 -44 -4 -55.5t70 -11.5q14 0 17.5 -8t-4.5 -16
t-21 -8h-233q-14 0 -17.5 8t4 16t21.5 8q58 0 72.5 10.5t26.5 56.5l123 459q14 44 4.5 55t-67.5 11q-14 0 -17.5 8t4 16t22.5 8h233q13 0 16.5 -8t-4.5 -16t-21 -8q-60 0 -75 -10t-27 -56l-54 -202h335l53 202q14 44 4 55t-70 11q-14 0 -17.5 8t4.5 16t21 8h233z" />
    <glyph glyph-name="Theta" unicode="&#x398;" 
d="M391 -48q-98 0 -156 50.5t-70.5 127t11.5 165t76.5 165t138 127t183.5 50.5q74 0 125.5 -29.5t75.5 -77.5t28 -109.5t-13 -126t-53.5 -126t-86 -109.5t-117.5 -77.5t-142 -29.5zM565 602q-74 0 -141 -45.5t-110.5 -114t-65 -148t-15.5 -148t49 -114t118 -45.5
q74 0 141 45.5t110 114t64.5 148t15.5 148t-48.5 114t-117.5 45.5zM642 355l-28 -109q-11 -38 -25 -38q-10 0 -12 10t0 22t-3 22t-20 10h-153q-15 0 -25 -10t-14 -21.5t-11.5 -21.5t-17.5 -10q-5 0 -7.5 2t-2 9t1.5 10.5t4 15.5l28 109q10 36 23 36q15 -2 11 -16t-1 -30.5
t25 -16.5h155q17 0 27.5 10t14.5 22t11 22t16 10q11 0 3 -37z" />
    <glyph glyph-name="Iota" unicode="&#x399;" 
d="M686 623q13 0 16.5 -8t-4.5 -16t-21 -8q-60 0 -75 -10t-27 -56l-123 -459q-14 -44 -3.5 -55.5t70.5 -11.5q13 0 16.5 -8t-4.5 -16t-21 -8h-233q-14 0 -17.5 8t4.5 16t22 8q58 0 72.5 10.5t26.5 56.5l122 459q14 44 4.5 55t-67.5 11q-14 0 -17.5 8t4.5 16t22 8h233z" />
    <glyph glyph-name="Kappa" unicode="&#x39a;" 
d="M864 623q13 0 16.5 -8t-4 -16t-20.5 -8q-44 0 -65 -6t-50 -30l-253 -209l162 -309q12 -23 27 -30.5t55 -7.5q19 0 14 -16t-24 -16h-250q-12 0 -15.5 8t4 16t20.5 8q62 0 77.5 7.5t2.5 32.5l-132 258l-144 -118l-30 -113q-14 -44 -3.5 -55.5t70.5 -11.5q13 0 16.5 -8
t-4.5 -16t-21 -8h-233q-14 0 -17.5 8t4.5 16t22 8q57 0 71.5 10.5t26.5 56.5l123 459q14 44 4.5 55t-67.5 11q-14 0 -17.5 8t4.5 16t22 8h233q13 0 16.5 -8t-4 -16t-20.5 -8q-61 0 -76 -10t-27 -56l-77 -288l374 308q19 16 25 24.5t-2 13.5t-26 6.5t-57 1.5q-12 0 -15 8
t4 16t19 8h241z" />
    <glyph glyph-name="Lambda" unicode="&#x39b;" 
d="M759 -1q13 0 16 -8t-4.5 -16t-21.5 -8h-204q-20 0 -15.5 16t24.5 16q50 0 61.5 8.5t7.5 37.5l-54 472l-305 -467q-23 -33 -16.5 -42t59.5 -9q13 0 16.5 -8t-4.5 -16t-22 -8h-174q-12 0 -15 8t4 16t20 8q39 0 56 11.5t47 57.5l366 560q5 8 11.5 11.5t11 0.5t5.5 -12
l69 -591q2 -25 13 -31.5t48 -6.5z" />
    <glyph glyph-name="Mu" unicode="&#x39c;" 
d="M920 623q13 0 16 -8t-4.5 -16t-20.5 -8q-59 0 -73.5 -10t-26.5 -56l-121 -459q-14 -44 -4 -55.5t70 -11.5q13 0 16 -8t-4 -16t-20 -8h-229q-14 0 -17.5 8t4.5 16t22 8q40 0 56.5 5.5t23 16.5t15.5 45l136 513l-365 -609q-5 -8 -11 -11.5t-10.5 -0.5t-5.5 12l-58 611
l-136 -515q-13 -44 -3.5 -55.5t64.5 -11.5q13 0 16.5 -8t-4 -16t-20.5 -8h-196q-14 0 -17 8t5 16t21 8q52 0 65 10.5t25 56.5l121 459q12 46 4 56t-59 10q-13 0 -16.5 8t4 16t20.5 8h166q7 0 9 -3t3 -14l48 -507l303 508q11 16 21 16h167z" />
    <glyph glyph-name="Nu" unicode="&#x39d;" 
d="M878 623q14 0 17.5 -8t-4 -16t-21.5 -8q-53 0 -66.5 -10t-25.5 -56l-151 -560q-3 -13 -14 -13t-18 13l-255 568l-125 -467q-13 -44 -3.5 -55.5t65.5 -11.5q13 0 16.5 -8t-4.5 -16t-21 -8h-199q-14 0 -17.5 8t4 16t21.5 8q53 0 66.5 10.5t25.5 56.5l124 459q12 46 3.5 56
t-60.5 10q-13 0 -16.5 8t4 16t21.5 8h127q8 0 11 -2.5t6 -10.5l230 -507l113 422q13 44 4 55t-66 11q-13 0 -16.5 8t4.5 16t21 8h199z" />
    <glyph glyph-name="Xi" unicode="&#x39e;" 
d="M805 607l-44 -201q-2 -10 -10.5 -15t-15 -1.5t-5.5 14.5q4 31 5.5 54t-1 40t-5.5 29t-12.5 19.5t-16 12t-23 6t-26.5 2t-32 0.5h-5h-122h-8q-34 0 -49.5 -1.5t-38 -9t-37 -24.5t-32.5 -48t-37 -80q-7 -17 -21.5 -15.5t-9.5 17.5l65 201q5 16 22 16h444q10 0 13.5 -3
t1.5 -13zM656 345l-29 -108q-9 -39 -24 -39q-10 0 -12 10t-0.5 22t-3.5 22t-19 10h-196q-20 0 -30.5 -16t-19 -31.5t-20.5 -15.5q-5 0 -7.5 2t-1.5 9.5t1.5 10t4.5 16.5l29 108q10 37 23 37q15 -2 11 -16t-0.5 -30.5t25.5 -16.5h198q17 0 27.5 10t14.5 22t10.5 22t16.5 10
q12 0 2 -38zM730 184l-64 -201q-6 -16 -24 -16h-500q-18 0 -14 16l43 201q2 10 10.5 15.5t15.5 1.5t6 -15q-4 -30 -6 -53.5t1 -40.5t5.5 -28.5t11.5 -19t15.5 -12t22.5 -6t25.5 -2t31.5 -0.5h8h179h33.5t28 2t27 6t23 11.5t24 19t21 28.5t23.5 40.5t23 54.5q4 11 12.5 15
t14.5 -1.5t3 -15.5z" />
    <glyph glyph-name="Omicron" unicode="&#x39f;" 
d="M367 -48q-74 0 -126 29.5t-75.5 77.5t-27.5 109.5t13.5 126t53.5 126t86 109.5t118 77.5t142 29.5t125.5 -29.5t75.5 -77.5t28 -109.5t-13 -126t-53.5 -126t-86 -109.5t-118 -77.5t-142.5 -29.5zM542 602q-74 0 -141 -45.5t-110.5 -114t-65 -148t-15.5 -148t48.5 -114
t117.5 -45.5q74 0 141 45.5t110.5 114t65 148t15.5 148t-48.5 114t-117.5 45.5z" />
    <glyph glyph-name="Pi" unicode="&#x3a0;" 
d="M846 623q13 0 16 -8t-4.5 -16t-20.5 -8q-61 0 -76 -10t-27 -56l-122 -459q-14 -44 -3.5 -55.5t70.5 -11.5q13 0 16.5 -8t-4.5 -16t-21 -8h-234q-14 0 -17 8t5 16t22 8q58 0 72 10.5t26 56.5l123 459q13 49 -4.5 57.5t-114.5 8.5q-25 -2 -43.5 0t-33 -0.5t-24 -2
t-17.5 -4.5l-12 -7.5t-8.5 -12t-7 -17t-6.5 -22.5l-122 -459q-14 -44 -3.5 -55.5t70.5 -11.5q21 0 16 -16t-26 -16h-233q-14 0 -17.5 8t4.5 16t22 8q58 0 72.5 10.5t26.5 56.5l122 459q14 44 4.5 55t-67.5 11q-14 0 -17 8t5 16t22 8h571z" />
    <glyph glyph-name="Rho" unicode="&#x3a1;" 
d="M499 262q-109 -1 -158 0l-51 -195q-14 -44 -4 -55.5t70 -11.5q14 0 17 -8t-5.5 -16.5t-22.5 -8.5h-231q-14 0 -17.5 8.5t4.5 16.5t22 8q58 0 72.5 10.5t26.5 56.5l127 476q10 31 0 39.5t-67 8.5q-13 0 -16 8t4.5 16t20.5 8h292q77 0 125 -26.5t60 -67t-1.5 -87t-48.5 -87
t-93.5 -67t-125.5 -26.5zM574 591h-92q-36 0 -46 -7t-18 -40l-68 -250h103q66 0 119 22t81.5 55t39.5 71.5t1.5 71.5t-41 55t-79.5 22z" />
    <glyph glyph-name="Sigma" unicode="&#x3a3;" 
d="M803 607l-43 -201q-2 -10 -10 -14.5t-14.5 -1t-5.5 13.5q3 33 4.5 51t-0.5 40t-2.5 32t-10.5 23t-15.5 17.5t-27.5 11t-36 7.5t-50 3t-61.5 2h-78.5q-48 0 -56 -7.5t6 -39.5l92 -217q4 -10 1.5 -17.5t-17.5 -23.5l-256 -258q-14 -14 -8.5 -21.5t28.5 -7.5q69 0 109 0.5
t84.5 3.5t67.5 7.5t50.5 15t41.5 22.5t31 33.5t29 45t27 59.5q5 11 13 15t13.5 -1t2.5 -16l-64 -201q-6 -16 -23 -16h-457q-13 0 -18.5 1t-9.5 4.5t1.5 12.5t19.5 24l272 283l-120 294q-9 26 -4.5 31.5t25.5 5.5h456q10 0 13 -3t1 -13z" />
    <glyph glyph-name="Tau" unicode="&#x3a4;" 
d="M782 607l-43 -201q-2 -10 -11 -15t-16 -1.5t-5 14.5q7 54 7 89.5t-6 56.5t-23 31t-34.5 12.5t-50.5 2.5q-38 0 -48 -6t-18 -32l-131 -492q-14 -44 -4 -55.5t70 -11.5q13 0 16.5 -8t-4 -16t-20.5 -8h-233q-14 0 -17.5 8t4 16t21.5 8q58 0 72.5 10.5t26.5 56.5l131 492
q7 25 0 31.5t-45 6.5q-41 0 -63.5 -4.5t-49 -23.5t-48.5 -58t-49 -106q-7 -17 -21 -15.5t-9 17.5l64 201q5 16 23 16h500q10 0 13 -3t1 -13z" />
    <glyph glyph-name="Upsilon" unicode="&#x3a5;" 
d="M783 554q-9 -34 -36.5 -48t-49 -2.5t-15.5 39.5q5 25 31 46q-46 -1 -101.5 -44.5t-98 -106.5t-58.5 -122l-67 -251q-12 -49 -5.5 -59t52.5 -10q13 0 16.5 -8t-4.5 -16t-21 -8h-190q-14 0 -17.5 8t4.5 16t22 8q45 0 56 9.5t23 55.5l66 249q17 62 21.5 108t-4.5 84
t-39 58.5t-81 23.5q-19 1 -23.5 7.5t5 12.5t25.5 7q58 4 97 -10t57.5 -41t24.5 -58t3 -68q52 82 121 136t134 54q30 0 45.5 -20t6.5 -50z" />
    <glyph glyph-name="Phi" unicode="&#x3a6;" 
d="M446 40q-5 -27 8 -34t65 -7q13 0 16.5 -8t-4 -16t-20.5 -8h-233q-15 0 -18.5 8t4.5 16t22 8q49 0 65.5 7t25.5 33q-87 8 -140.5 47t-68 93t2.5 116t61 116t118.5 93t163.5 47q6 26 -6.5 33t-62.5 7q-14 0 -17.5 8t4 16t21.5 8h233q13 0 16.5 -8t-4 -16t-20.5 -8
q-52 0 -69 -7t-26 -34q85 -8 138 -47t67.5 -92.5t-2.5 -115.5t-60 -115.5t-117 -92.5t-163 -47zM575 520l-122 -451q65 7 120.5 41.5t89 81.5t48.5 102t7.5 102.5t-44.5 82t-99 41.5zM507 520q-65 -6 -121 -40.5t-90.5 -82.5t-50 -102.5t-7 -102.5t46 -82.5t101.5 -40.5z
" />
    <glyph glyph-name="Chi" unicode="&#x3a7;" 
d="M838 623q13 0 16.5 -8t-4.5 -16t-21 -8q-50 0 -65.5 -6.5t-45.5 -38.5l-205 -227l97 -253q18 -47 31.5 -57t63.5 -10q13 0 16 -8t-4 -16t-20 -8h-245q-13 0 -16.5 8t4.5 16t21 8q65 0 75.5 10t-7.5 57l-74 190l-171 -190q-42 -47 -37.5 -57t68.5 -10q13 0 16 -8t-4 -16
t-20 -8h-217q-14 0 -17.5 8t4.5 16t21 8q52 0 71.5 10t61.5 57l209 231l-95 249q-12 32 -24.5 38.5t-62.5 6.5q-20 0 -16 16t24 16h234q14 0 17.5 -8t-4.5 -16t-21 -8q-32 0 -45 -0.5t-22 -5.5t-7.5 -13t8.5 -26l71 -186l168 186q28 30 21.5 37.5t-62.5 7.5q-13 0 -16 8
t4.5 16t20.5 8h205z" />
    <glyph glyph-name="Psi" unicode="&#x3a8;" 
d="M852 557q-24 -18 -38 -15.5t-18.5 13.5t-9.5 23.5t-11 12.5q-17 1 -28.5 -25t-19 -68t-16 -88t-26.5 -92t-44 -73q-73 -74 -211 -79l-27 -100q-14 -44 -4 -55.5t70 -11.5q13 0 16.5 -8t-4 -16t-20.5 -8h-233q-14 0 -17.5 8t4 16t21.5 8q58 0 72.5 10.5t26.5 56.5l26 100
q-53 2 -102.5 20t-66.5 59q-10 24 -6.5 59.5t16 74t25.5 77t23.5 69t10 49t-15.5 17.5q-6 0 -17 -13t-21.5 -23.5t-26.5 -13.5t-31 16q-4 5 -4.5 14t5 19t18.5 18t34.5 11.5t53.5 -0.5q27 -4 42 -22t18 -41q4 -38 -33 -157.5t-28 -145.5q18 -51 113 -65l90 337q14 44 4.5 55
t-67.5 11q-14 0 -17.5 8t4 16t21.5 8h234q13 0 16 -8t-4.5 -16t-20.5 -8q-60 0 -75 -10t-27 -56l-91 -337q104 14 149 65q19 22 33.5 81t30.5 124.5t37 97.5q34 55 94 63q38 5 60 -1.5t26 -18t0 -23.5t-13 -19z" />
    <glyph glyph-name="uni03A9" unicode="&#x3a9;" 
d="M504 91l-19 -70h26h38.5t32 2t31 6.5t25 13t26 22t22 33t23.5 46.5q5 11 12.5 15t11.5 -0.5t0 -14.5l-53 -161q-6 -16 -23 -16h-224l39 147q70 8 129 48t94 94.5t49 116t3 113t-53.5 85.5t-112.5 34t-131.5 -34t-100.5 -85t-58 -112.5t-13 -116t44 -94.5t103 -49
l-39 -147h-229q-19 0 -15 16l33 161q2 10 9 15t12 1.5t4 -14.5q-9 -91 31 -113q23 -12 101 -12h31l19 70q-76 8 -121.5 52.5t-55 105t12.5 129t69.5 126t127.5 95.5t175 38q91 0 149.5 -37t77 -93t6 -123.5t-53 -128t-110.5 -106.5t-155 -58z" />
    <glyph glyph-name="alpha" unicode="&#x3b1;" horiz-adv-x="474" 
d="M455 390q13 -7 14.5 -19.5t-7.5 -32t-19 -36.5t-27 -43t-26 -41q-9 -16 -18.5 -30.5t-17.5 -30.5t-13.5 -31t-8 -32t-0.5 -33q3 -22 19.5 -34t33 -13.5t25.5 -7.5t1 -19q-19 -26 -55 -22t-59 26q-16 18 -25 49q-5 -9 -24 -26t-50 -34.5t-66 -19.5t-71 18q-35 22 -49.5 61
t-8.5 82.5t25 90.5t50.5 85t67 66t76.5 33.5t78 -12.5q29 -16 43 -50.5t13 -61.5l-1 -26q38 70 53 102q17 58 47 42zM277 358q-31 12 -69.5 -15t-69 -75.5t-51 -101.5t-18 -98t32.5 -60q32 -15 66.5 0.5t62.5 51.5t49.5 82.5t30.5 91t1 79.5t-35 45z" />
    <glyph glyph-name="beta" unicode="&#x3b2;" horiz-adv-x="474" 
d="M467 406q-8 -28 -27.5 -50t-38 -32.5t-33.5 -15.5l-14 -5q7 -7 18 -19.5t27.5 -52.5t13.5 -80q-5 -68 -35 -115.5t-71 -64.5t-83.5 -15.5t-77.5 29.5t-48 73q-14 -63 -22 -129q-7 -58 -18 -80t-35 -16q-12 3 -16.5 12t-3 21t4.5 26t7 27q1 5 11 50.5t22 96t29.5 119.5
t42 150t50.5 158q15 43 38.5 72.5t50 41.5t56 14.5t56 -8.5t49.5 -29t36.5 -46.5t17.5 -60.5t-7 -71zM412 457q6 57 -18 92.5t-59 40t-73.5 -25.5t-58.5 -91q-35 -105 -66.5 -230t-25.5 -150q6 -31 32.5 -55.5t60.5 -30t67 5.5t57 55.5t26 115.5q1 24 -7.5 51t-16.5 42
l-9 15q-33 -2 -55 2q-24 5 -39.5 17.5t-12.5 24.5t11 17.5t20.5 4t23.5 -4.5t25.5 -8t20.5 -7q25 -7 58 29t39 90z" />
    <glyph glyph-name="gamma" unicode="&#x3b3;" horiz-adv-x="474" 
d="M460 396q9 -7 9.5 -18.5t-4 -23t-17.5 -29.5t-24 -31t-30 -35.5t-29 -34.5q-56 -68 -74 -95t-46 -86q-14 -29 -29 -78t-16 -53q-16 -46 -39.5 -66t-49.5 -8q-18 10 -15 39.5t21 60.5q4 7 21 34t28.5 46t21 37.5t8.5 21.5q3 3 7 62.5t-12.5 129.5t-62.5 85
q-25 8 -46.5 -3.5t-32.5 -29.5t-21.5 -31t-16.5 -8q-11 8 0 39.5t44.5 59.5t77.5 24q38 -3 63 -31.5t34 -66.5t12 -76.5t2 -64.5l-2 -25q33 44 76 109q10 16 22.5 38t21.5 37.5t19 32.5t19 26.5t18.5 16t20 5.5t21.5 -10z" />
    <glyph glyph-name="delta" unicode="&#x3b4;" horiz-adv-x="474" 
d="M452 415q-13 -9 -24 -9t-19 7t-17.5 20.5t-18 28.5t-22 35t-26.5 36q-29 36 -61 43.5t-46 -17.5q-7 -12 -5.5 -28t9.5 -33t21 -36.5t29 -39t34 -39.5t35 -39q35 -32 51 -78t10.5 -92.5t-24.5 -92t-54 -76t-78 -45t-97 0.5q-57 15 -91.5 56t-43.5 91t2.5 103.5t40.5 96
t76.5 66.5t104.5 17q-22 25 -46 59q-50 75 -7 135q25 34 64.5 36t76 -18t65.5 -51q39 -42 61.5 -82t-0.5 -55zM256 355q-58 16 -106 -32t-66.5 -116.5t-1.5 -134t74 -81.5t104.5 32.5t66 117t2 134t-72.5 80.5z" />
    <glyph glyph-name="epsilon" unicode="&#x3b5;" horiz-adv-x="474" 
d="M429 57q-12 -45 -55.5 -73.5t-97.5 -32.5t-106.5 6.5t-88 43.5t-35.5 79q0 47 38 79t101 38q-54 6 -88.5 33t-34.5 72q0 40 33.5 68.5t82 38t99 6t90.5 -26.5t49 -60q5 -21 -12 -34t-37.5 -4.5t-22.5 38.5q-1 21 -23 36t-52.5 18.5t-61 -2t-51.5 -27t-21 -53.5
q0 -33 23 -54t52 -28t60 -5q47 2 47 -17q0 -12 -17.5 -15.5t-35.5 -0.5l-18 2q-57 0 -92 -28t-35 -71q0 -37 25.5 -63t61 -34t71 -5t59 24t20.5 52q-2 31 19.5 43t41 -1.5t12.5 -41.5z" />
    <glyph glyph-name="zeta" unicode="&#x3b6;" horiz-adv-x="474" 
d="M436 542q20 -37 -80 -93q-30 -18 -88 -30l-57 -12q-10 -11 -25 -32t-46 -68.5t-46 -98t-3 -86.5q10 -30 36 -46t56.5 -21t60.5 -11t54 -26t31 -56q11 -56 -39.5 -92.5t-113.5 -36.5q-99 0 -99 35q0 33 61 28q1 0 28.5 -5t46.5 -6t39.5 7.5t25.5 29.5q5 18 -9 29.5t-33 15
t-50 7.5t-44 7q-54 14 -79.5 53.5t-25.5 86.5q0 62 34 135t68 115l34 42q-5 1 -12.5 4.5t-23.5 13.5t-26.5 29.5t-9.5 43.5q1 31 27 63t55 47t40 4q19 -20 -31 -58q-36 -26 -43 -59.5t23.5 -37.5t102.5 42q25 17 55 31.5t63 20.5t43 -15z" />
    <glyph glyph-name="eta" unicode="&#x3b7;" horiz-adv-x="474" 
d="M401 114q-45 -115 -72 -197q-8 -24 -15.5 -41.5t-25 -34.5t-35.5 -6q-19 11 -20.5 28t8.5 36.5t21 44.5q18 38 56 127.5t54 142.5q13 42 12.5 75t-13.5 50.5t-32 26t-43.5 2t-47.5 -22t-44 -46t-33 -70.5q-5 -17 -15.5 -57t-20 -71.5t-21.5 -64t-27.5 -48t-31.5 -9.5
t-18 23.5t7 41.5t22 56.5l26 65t21.5 71.5t6.5 72q-2 27 -18 40t-32.5 13t-26.5 4.5t-2 17.5q20 25 56 21t59 -25q16 -18 26 -53q19 35 61 58t85 23t76.5 -27.5t35.5 -93t-39 -173.5z" />
    <glyph glyph-name="theta" unicode="&#x3b8;" horiz-adv-x="474" 
d="M147 -39q-61 16 -92 77t-31.5 140t22.5 164.5t63 154t97.5 105.5t117.5 21q52 -14 83 -61.5t36.5 -111.5t-3.5 -137t-37.5 -141t-65.5 -121t-87.5 -78.5t-102.5 -11.5zM357 287h-246q-27 -114 -16 -196.5t61 -96.5q38 -10 74 22.5t61.5 88t41.5 101.5t24 81zM363 317
q24 106 12 182.5t-60 89.5q-40 11 -77.5 -22.5t-62 -88.5t-38.5 -97t-18 -64h244z" />
    <glyph glyph-name="iota" unicode="&#x3b9;" horiz-adv-x="474" 
d="M335 30q7 -19 -36 -51.5t-79 -25.5q-38 7 -57.5 32t-19 47.5t0.5 38.5q6 35 65 238q1 4 3 13q8 27 12 39t11.5 26t18 17.5t26.5 -0.5q46 -10 11 -95q-20 -42 -72 -182q-7 -15 -12.5 -32.5t-8 -33t7.5 -28t34 -16.5q16 -2 30.5 1t24 8.5t17.5 10t13.5 3.5t9.5 -10z" />
    <glyph glyph-name="kappa" unicode="&#x3ba;" horiz-adv-x="474" 
d="M410 301q-16 0 -35.5 10.5t-34.5 5.5q-9 -3 -27.5 -38.5t-23.5 -41.5q-8 -11 -19 -20t-19 -13.5t-13 -7.5l-5 -3l10 -8q10 -8 20.5 -26t10.5 -38q0 -53 8 -73t28 -22t36 18t28.5 36t25.5 8q15 -10 0.5 -46.5t-37.5 -55.5q-51 -42 -102 -26q-34 11 -44.5 43t-10.5 82
q0 30 -10 56.5t-33 26.5h-29q-22 -70 -36 -130q-3 -10 -5 -20t-4.5 -18.5t-5.5 -15.5t-7.5 -11.5t-9.5 -7.5t-13 -2.5t-17 3.5q-25 9 -11 58t47 140q34 102 46 155l4 20t5.5 23.5t7.5 19t13.5 15t19.5 3.5q30 -4 33.5 -22.5t-13.5 -57.5l-39 -99h34q31 0 51.5 20.5
t47.5 70.5q54 99 123 88q34 -6 47.5 -30t1 -46t-43.5 -23z" />
    <glyph glyph-name="lambda" unicode="&#x3bb;" horiz-adv-x="474" 
d="M422 -34q-27 -25 -49.5 7.5t-43.5 102.5q-12 40 -17 102.5t-4 105.5l1 43q-131 -195 -162 -290q-14 -44 -37 -67.5t-48 -15.5q-49 15 37 154q27 44 79 113t90 117l37 47q2 2 3 23.5t-6 51.5t-25 47q-19 17 -46 28t-34 17q-13 9 -14.5 27.5t10.5 30.5q14 14 39 15
t55.5 -22.5t47.5 -72.5q18 -53 17.5 -104t-4.5 -55q-10 -167 28 -251q8 -17 21 -42.5t19.5 -38.5t12 -29t3.5 -26t-10 -18z" />
    <glyph glyph-name="uni03BC" unicode="&#x3bc;" horiz-adv-x="474" 
d="M464 25q1 -27 -28 -46.5t-57 -12.5q-19 6 -34.5 23.5t-18.5 32.5q-51 -56 -109.5 -60.5t-111.5 50.5q-18 -59 -27 -119q-5 -38 -21 -54t-31 -7q-33 19 -7 90q10 29 36.5 71.5t32.5 66.5q26 159 44 216q3 10 9.5 25.5t21.5 47t34.5 46t37.5 2.5q10 -7 10.5 -26t-6.5 -42
t-17.5 -49.5t-22 -48.5t-19.5 -39q-26 -53 -42 -96l-15 -44q13 -20 36.5 -33.5t51 -16.5t56.5 17.5t47 65.5q8 20 28 96t27 99q8 28 18.5 53t29 45.5t36.5 12.5q48 -22 -47 -212q-56 -114 -40 -138q12 -19 34.5 -20.5t41.5 14.5q20 17 22 -10z" />
    <glyph glyph-name="nu" unicode="&#x3bd;" horiz-adv-x="474" 
d="M409 397q11 -3 11.5 -34.5t-7.5 -74.5t-28.5 -93t-47.5 -84q-27 -33 -63.5 -63t-70.5 -48.5t-66.5 -31.5t-51.5 -13t-26 7q-5 8 1 23.5t22 53.5t28 81q21 77 23.5 119.5t-7.5 66.5q-5 14 -8 29t-4.5 27.5t4 23t18.5 14.5q27 8 44.5 -30.5t14.5 -92.5q-2 -27 -12 -69
t-21.5 -77.5t-19.5 -60.5l-9 -25q-1 -3 27 8t70.5 39t74.5 65q28 33 46.5 71t25 67.5t11 54t8.5 37t13 10.5z" />
    <glyph glyph-name="xi" unicode="&#x3be;" horiz-adv-x="474" 
d="M434 475q-6 -21 -36.5 -23t-82.5 5t-73 7q-45 0 -74 -21.5t-25 -60.5q3 -21 13.5 -33t28.5 -15.5t34 -3.5t39 2.5t33 2.5q120 0 114 -51q-2 -19 -28 -23t-58.5 3t-64.5 11q-74 10 -123.5 -40.5t-40.5 -119.5q4 -30 28.5 -47.5t56 -24.5t63 -14.5t55 -26t26.5 -51.5
t-19 -60.5t-51.5 -39t-55.5 -10.5t-30 18q-3 13 11.5 20t34.5 9.5t36.5 12t16.5 26.5q0 19 -17 28t-53.5 15t-51.5 11q-99 34 -97 142q0 39 14 72t36.5 54.5t36.5 32t28 18.5q-39 23 -49.5 56.5t1.5 61.5t32 49t37 23l1 16q2 17 6 35t21.5 39t47.5 32q20 8 40 11t36.5 -3
t15.5 -25q-1 -12 -21.5 -17t-45 -6t-43.5 -11t-18 -31q1 -16 32.5 -15.5t89.5 5.5q41 1 70 -10t23 -35z" />
    <glyph glyph-name="omicron" unicode="&#x3bf;" horiz-adv-x="474" 
d="M178 -40q-63 16 -100 61t-44.5 99t8 111t49 100t88 63.5t116.5 3.5t99.5 -62t45 -99t-8 -110.5t-49 -100t-88 -63.5t-116.5 -3zM287 370q-40 11 -77.5 -9.5t-62 -59.5t-38 -88t-11.5 -95t24.5 -82.5t63.5 -47.5q40 -11 77 9.5t61.5 59.5t37.5 88t11 95t-24 82.5t-62 47.5
z" />
    <glyph glyph-name="pi" unicode="&#x3c0;" horiz-adv-x="474" 
d="M468 370q-3 -30 -18.5 -39.5t-41.5 -8.5q-73 3 -77 -7q-11 -32 -27.5 -133t-9.5 -127q6 -21 21 -28.5t28.5 -4.5t22.5 0.5t6 -17.5q-4 -24 -32.5 -35t-50.5 -5q-27 8 -39.5 27.5t-11.5 38t1 33.5q1 23 21 131t19 123q0 7 -48.5 7t-50.5 -6q-6 -15 -27 -113t-36 -144
q-15 -50 -43.5 -80t-53.5 -10q-6 4 -10 12.5t-1 27t18 39.5q26 36 53 103t41 116l14 49q-50 6 -73 -6q-9 -5 -17 -13t-11 -12t-9 -6.5t-12 3.5q-4 5 -4.5 17t9.5 27.5t24 29.5t39 23t54 7q76 -5 198 -3q26 1 57.5 6t46 7.5t24 -3.5t7.5 -26z" />
    <glyph glyph-name="rho" unicode="&#x3c1;" horiz-adv-x="474" 
d="M215 -22q-47 13 -80 46.5t-48 76.5q0 -3 -4 -71t-3 -111q0 -27 0.5 -53.5t-9.5 -45.5t-30 -17q-17 2 -25 15.5t-6.5 46.5t6 62t15.5 88q28 153 58 247q27 75 95.5 115.5t141.5 20.5q61 -16 96.5 -59t43 -95t-7.5 -106.5t-47.5 -95.5t-84.5 -60.5t-111 -3.5zM318 369
q-56 16 -102.5 -28.5t-66.5 -118.5q-21 -70 -2 -134.5t77 -80.5q56 -15 103.5 32t65.5 114.5t0.5 133t-75.5 82.5z" />
    <glyph glyph-name="sigma" unicode="&#x3c3;" horiz-adv-x="474" 
d="M416 399q17 -7 21.5 -19t-5 -20.5t-27.5 -5.5q-123 20 -151 -4q2 2 28.5 1t48.5 -12q40 -20 63.5 -51.5t29.5 -68t-1 -75t-26 -73.5t-47.5 -62.5t-62 -43.5t-74 -15t-79.5 22q-61 32 -83.5 85t-9.5 107.5t44.5 105.5t75.5 88q34 29 92.5 40.5t102 9.5t60.5 -9zM318 311
q-52 27 -106.5 -6.5t-85 -92t-28 -122t51.5 -89.5q36 -19 70 -7.5t65 39.5t51 69.5t28.5 81t-3 75.5t-43.5 52z" />
    <glyph glyph-name="tau" unicode="&#x3c4;" horiz-adv-x="474" 
d="M450 370q-3 -50 -60 -48q-127 5 -129 -4q-6 -14 -36 -95.5t-36 -99.5q-26 -89 22 -100q13 -3 40 1t43 3t15 -15q-1 -29 -40 -44.5t-69 -13.5q-54 3 -72.5 34.5t-8.5 71.5q6 26 46.5 137.5t36.5 122.5q-1 7 -52.5 4.5t-69.5 -11.5q-9 -5 -17 -13t-11 -12t-9 -6.5t-12 3.5
q-4 5 -4.5 17t9.5 27.5t24 29.5t39 23t54 7q71 -4 172 -3q26 1 55.5 6t42.5 7.5t21 -3.5t6 -26z" />
    <glyph glyph-name="upsilon" unicode="&#x3c5;" horiz-adv-x="474" 
d="M440 266q-11 -48 -43 -109t-80.5 -117t-104.5 -76.5t-115 12.5q-16 10 -27.5 21t-18.5 22.5t-11 24.5t-5 27t0 29t4.5 30.5t8 33t10 35t11.5 36.5q8 26 12 73t12 71t30 23q71 -4 28 -125q-5 -13 -23.5 -54t-27 -65t-16.5 -57t-0.5 -56.5t28.5 -38.5q44 -31 106 4t99 106
q32 62 44.5 120t9 86.5t1 44.5t25.5 15q23 -2 38 -37.5t5 -78.5z" />
    <glyph glyph-name="phi" unicode="&#x3c6;" horiz-adv-x="474" 
d="M206 -21l-18 -92q-7 -36 -20.5 -49t-32.5 -5q-14 5 -17.5 14.5t0.5 24.5t11 38q3 10 11 38t13 45q-42 14 -71 45.5t-39 70.5t-9.5 82.5t18 83t44 70.5t68 48t90.5 12q15 -1 19 -8t-4 -14t-23 -8q-49 -4 -87 -49t-51.5 -102t-1 -114t54.5 -84l63 240q16 61 53.5 95t77.5 9
q50 -33 72 -87.5t12 -110t-38.5 -104t-81 -74.5t-113.5 -15zM334 345q-8 6 -16 6t-14.5 -4t-13 -13t-11 -19t-9.5 -24t-8 -25.5t-6.5 -25.5t-5 -22.5t-3.5 -19.5l-36 -188q51 0 90.5 38.5t56 91t11.5 110.5t-35 95z" />
    <glyph glyph-name="chi" unicode="&#x3c7;" horiz-adv-x="474" 
d="M438 389q33 -35 -50 -91q-23 -16 -66 -57t-64 -69q23 -132 61 -148q15 -6 32.5 3t30 17t18.5 1q10 -13 -15.5 -50.5t-51.5 -41.5q-20 -3 -36.5 5t-27 20.5t-19.5 34.5t-13.5 38t-10.5 40t-9 33q-74 -86 -85 -103q-21 -34 -48 -55.5t-46 1.5q-12 15 -7 30.5t22 28.5t37 31
l117 118q-7 42 -21 97.5t-31 63.5q-18 9 -43 -5.5t-29 -8.5q-12 16 17 51t64 34q24 -1 40.5 -14.5t24 -37.5t10.5 -46.5t5.5 -52t5.5 -42.5q22 28 92 125q20 25 27 34t21.5 21t25 10t22.5 -15z" />
    <glyph glyph-name="psi" unicode="&#x3c8;" horiz-adv-x="474" 
d="M449 405q17 1 18.5 -4.5t-7 -13t-21.5 -15.5q-23 -13 -36 -69.5t-30.5 -126t-50.5 -106.5q-65 -72 -165 -78q-9 -36 -14 -72q-5 -39 -23.5 -65t-41.5 -19q-15 4 -21 14t-2.5 25.5t9 29.5t16.5 35q4 6 25 54q-34 9 -56 25t-34 51q-11 29 -3 80t22 93t20 82t-9 47
q-10 7 -13.5 15t3 13.5t22.5 4.5q44 -4 53 -63q4 -37 -19.5 -135t-15.5 -129q10 -42 40 -56q49 122 70 269q4 27 7 42t10.5 37t19.5 30.5t29 2.5q13 -4 19 -14.5t6.5 -20.5t-5 -30t-9 -30t-13.5 -34q-56 -137 -88 -258q45 0 103 61q28 30 47.5 129.5t43.5 135.5q39 59 94 63
z" />
    <glyph glyph-name="omega" unicode="&#x3c9;" horiz-adv-x="474" 
d="M457 130q-23 -84 -64.5 -131t-94.5 -48q-36 0 -62.5 26.5t-29.5 48.5q-8 -14 -31.5 -31.5t-56.5 -26.5t-62 16q-33 27 -43 84.5t-0.5 117.5t31.5 106q17 35 65 83t73 25q13 -12 -4 -39t-47.5 -71t-40.5 -80q-13 -47 -15 -96t11.5 -82t42.5 -26t44.5 33.5t19.5 57
t9.5 74.5t13.5 69q11 36 32.5 61.5t39.5 21.5q22 -6 24 -39t-7 -66t-20 -54q-67 -132 -24 -162q39 -27 81.5 26.5t51.5 119.5q6 44 5 78.5t-5 63t-7.5 48t-2.5 33.5t9 20q21 16 43 -27t29 -106.5t-8 -127.5z" />
    <glyph glyph-name="SF100000" unicode="&#x2500;" 
d="M944 281h-940v38h940v-38z" />
    <glyph glyph-name="SF110000" unicode="&#x2502;" 
d="M494 -170h-40v940h40v-940z" />
    <glyph glyph-name="SF010000" unicode="&#x250c;" 
d="M944 281h-450v-451h-40v489h490v-38z" />
    <glyph glyph-name="SF030000" unicode="&#x2510;" 
d="M494 -170h-40v451h-450v38h490v-489z" />
    <glyph glyph-name="SF040000" unicode="&#x2518;" 
d="M494 281h-490v38h450v451h40v-489z" />
    <glyph glyph-name="SF020000" unicode="&#x2514;" 
d="M944 281h-490v489h40v-451h450v-38z" />
    <glyph glyph-name="SF080000" unicode="&#x251c;" 
d="M944 281h-450v-451h-40v940h40v-451h450v-38z" />
    <glyph glyph-name="SF060000" unicode="&#x252c;" 
d="M944 281h-450v-451h-40v451h-450v38h940v-38z" />
    <glyph glyph-name="SF090000" unicode="&#x2524;" 
d="M494 -169h-40v450h-450v38h450v451h40v-939z" />
    <glyph glyph-name="SF070000" unicode="&#x2534;" 
d="M944 281h-940v38h450v450h40v-450h450v-38z" />
    <glyph glyph-name="SF050000" unicode="&#x253c;" 
d="M944 281h-450v-451h-40v451h-450v38h450v451h40v-451h450v-38z" />
    <glyph glyph-name="uni2501" unicode="&#x2501;" 
d="M944 262h-940v76h940v-76z" />
    <glyph glyph-name="uni2503" unicode="&#x2503;" 
d="M513 -170h-78v940h78v-940z" />
    <glyph glyph-name="uni250F" unicode="&#x250f;" 
d="M944 262h-431v-432h-78v508h509v-76z" />
    <glyph glyph-name="uni2513" unicode="&#x2513;" 
d="M513 -170h-78v432h-431v76h509v-508z" />
    <glyph glyph-name="uni251B" unicode="&#x251b;" 
d="M513 262h-509v76h431v432h78v-508z" />
    <glyph glyph-name="uni2517" unicode="&#x2517;" 
d="M944 262h-509v508h78v-432h431v-76z" />
    <glyph glyph-name="uni2523" unicode="&#x2523;" 
d="M944 262h-431v-432h-78v940h78v-432h431v-76z" />
    <glyph glyph-name="uni2533" unicode="&#x2533;" 
d="M944 262h-431v-432h-78v432h-431v76h940v-76z" />
    <glyph glyph-name="uni252B" unicode="&#x252b;" 
d="M513 -170h-78v432h-431v76h431v432h78v-940z" />
    <glyph glyph-name="uni253B" unicode="&#x253b;" 
d="M944 262h-940v76h431v432h78v-432h431v-76z" />
    <glyph glyph-name="uni254B" unicode="&#x254b;" 
d="M944 262h-431v-432h-78v432h-431v76h431v432h78v-432h431v-76z" />
    <glyph glyph-name="uni2520" unicode="&#x2520;" 
d="M944 281h-431v-451h-78v940h78v-451h431v-38z" />
    <glyph glyph-name="uni252F" unicode="&#x252f;" 
d="M944 262h-450v-432h-40v432h-450v76h940v-76z" />
    <glyph glyph-name="uni2528" unicode="&#x2528;" 
d="M513 -170h-78v451h-431v38h431v451h78v-940z" />
    <glyph glyph-name="uni2537" unicode="&#x2537;" 
d="M944 262h-940v76h450v432h40v-432h450v-76z" />
    <glyph glyph-name="uni253F" unicode="&#x253f;" 
d="M944 262h-450v-432h-40v432h-450v76h450v432h40v-432h450v-76z" />
    <glyph glyph-name="uni251D" unicode="&#x251d;" 
d="M944 262h-450v-432h-40v940h40v-432h450v-76z" />
    <glyph glyph-name="uni2530" unicode="&#x2530;" 
d="M944 281h-431v-451h-78v451h-431v38h940v-38z" />
    <glyph glyph-name="uni2525" unicode="&#x2525;" 
d="M494 -169h-40v431h-450v76h450v432h40v-939z" />
    <glyph glyph-name="uni2538" unicode="&#x2538;" 
d="M944 281h-940v38h431v451h78v-451h431v-38z" />
    <glyph glyph-name="uni2542" unicode="&#x2542;" 
d="M944 281h-431v-451h-78v451h-431v38h431v451h78v-451h431v-38z" />
    <glyph glyph-name="uni2512" unicode="&#x2512;" 
d="M513 -170h-78v451h-431v38h509v-489z" />
    <glyph glyph-name="uni2511" unicode="&#x2511;" 
d="M494 -170h-40v432h-450v76h490v-508z" />
    <glyph glyph-name="uni251A" unicode="&#x251a;" 
d="M513 281h-509v38h431v451h78v-489z" />
    <glyph glyph-name="uni2519" unicode="&#x2519;" 
d="M494 262h-490v76h450v432h40v-508z" />
    <glyph glyph-name="uni2516" unicode="&#x2516;" 
d="M944 281h-509v489h78v-451h431v-38z" />
    <glyph glyph-name="uni2515" unicode="&#x2515;" 
d="M944 262h-490v508h40v-432h450v-76z" />
    <glyph glyph-name="uni250E" unicode="&#x250e;" 
d="M944 281h-431v-451h-78v489h509v-38z" />
    <glyph glyph-name="uni250D" unicode="&#x250d;" 
d="M944 262h-450v-432h-40v508h490v-76z" />
    <glyph glyph-name="uni251E" unicode="&#x251e;" 
d="M944 281h-451l1 -451h-40v470h-19v470h78v-451h431v-38z" />
    <glyph glyph-name="uni251F" unicode="&#x251f;" 
d="M944 281h-431v-451h-78v470h19v470h40v-451h450v-38z" />
    <glyph glyph-name="uni2521" unicode="&#x2521;" 
d="M944 262h-450v-432h-40v470h-19v470h78v-432h431v-76z" />
    <glyph glyph-name="uni2522" unicode="&#x2522;" 
d="M944 262h-431v-432h-78v470h19v470h40v-432h450v-76z" />
    <glyph glyph-name="uni2526" unicode="&#x2526;" 
d="M513 300h-19v-470h-40v451h-450v38h431v451h78v-470z" />
    <glyph glyph-name="uni2527" unicode="&#x2527;" 
d="M513 -170h-78v451h-431v38h450v451h40v-470h19v-470z" />
    <glyph glyph-name="uni2529" unicode="&#x2529;" 
d="M513 300h-19v-469h-40v431h-450v76h431v432h78v-470z" />
    <glyph glyph-name="uni252A" unicode="&#x252a;" 
d="M513 -170h-78v432h-431v76h450v432h40v-470h19v-470z" />
    <glyph glyph-name="uni252D" unicode="&#x252d;" 
d="M944 281h-450v-451h-40v432h-450v76h470v-19h470v-38z" />
    <glyph glyph-name="uni252E" unicode="&#x252e;" 
d="M944 262h-450v-432h-40v451h-450v38h470v19h470v-76z" />
    <glyph glyph-name="uni2531" unicode="&#x2531;" 
d="M944 281h-431v-451h-78v432h-431v76h470v-19h470v-38z" />
    <glyph glyph-name="uni2532" unicode="&#x2532;" 
d="M944 262h-431v-432h-78v451h-431v38h470v19h470v-76z" />
    <glyph glyph-name="uni2535" unicode="&#x2535;" 
d="M944 281h-470v-19h-470v76h450v431h40v-450h450v-38z" />
    <glyph glyph-name="uni2536" unicode="&#x2536;" 
d="M944 262h-470v19h-470v38h450v450h40v-431h450v-76z" />
    <glyph glyph-name="uni2539" unicode="&#x2539;" 
d="M944 281h-470v-19h-470v76h431v432h78v-451h431v-38z" />
    <glyph glyph-name="uni253A" unicode="&#x253a;" 
d="M944 262h-470v19h-470v38h431v451h78v-432h431v-76z" />
    <glyph glyph-name="uni253D" unicode="&#x253d;" 
d="M944 281h-450v-451h-40v432h-450v79h450v429h40v-451h450v-38z" />
    <glyph glyph-name="uni253E" unicode="&#x253e;" 
d="M944 262h-450v-432h-40v451h-450v38h450v451h40v-432h450v-76z" />
    <glyph glyph-name="uni2540" unicode="&#x2540;" 
d="M944 281h-450v-451h-40v451h-450v38h431v451h78v-451h431v-38z" />
    <glyph glyph-name="uni2541" unicode="&#x2541;" 
d="M944 281h-431v-451h-78v451h-431v38h450v451h40v-451h450v-38z" />
    <glyph glyph-name="uni2543" unicode="&#x2543;" 
d="M944 281h-450v-451h-40v432h-450v76h431v432h78v-451h431v-38z" />
    <glyph glyph-name="uni2544" unicode="&#x2544;" 
d="M944 262h-450v-432h-40v451h-450v38h431v451h78v-432h431v-76z" />
    <glyph glyph-name="uni2545" unicode="&#x2545;" 
d="M944 281h-431v-451h-78v432h-431v76h450v432h40v-451h450v-38z" />
    <glyph glyph-name="uni2546" unicode="&#x2546;" 
d="M944 262h-431v-432h-78v451h-431v38h450v451h40v-432h450v-76z" />
    <glyph glyph-name="uni2547" unicode="&#x2547;" 
d="M944 262h-450v-432h-40v432h-450v76h431v432h78v-432h431v-76z" />
    <glyph glyph-name="uni2548" unicode="&#x2548;" 
d="M944 262h-431v-432h-78v432h-431v76h450v432h40v-432h450v-76z" />
    <glyph glyph-name="uni2549" unicode="&#x2549;" 
d="M944 281h-431v-451h-78v432h-431v76h431v432h78v-451h431v-38z" />
    <glyph glyph-name="uni254A" unicode="&#x254a;" 
d="M944 262h-431v-432h-78v451h-431v38h431v451h78v-432h431v-76z" />
    <glyph glyph-name="uni3395" unicode="&#x3395;" 
d="M873 26q-19 -43 -48 -70t-62.5 -34.5t-71 13t-68.5 68.5q-48 -20 -105 -20l-18 58q47 -3 95 14q-58 142 -45 321.5t88 269.5q42 50 83 49.5t68 -40t37 -102.5q26 -182 -23.5 -327t-122.5 -194q28 -46 59.5 -50.5t54.5 20.5t36 65zM482 438l-72 -431q-1 -12 9 -16.5
t25 -3.5t31 1l-12 -49q-69 -7 -94 8.5t-14 77.5q-10 -25 -36 -48t-56 -35.5t-61 -1t-48 51.5l-24 -142h-60l98 588h62l-47 -291q-10 -62 -2 -96t26.5 -49.5t44 -8t49.5 27t44.5 55.5t27.5 78l50 285zM760 580q-12 46 -33 53.5t-44 -21.5q-49 -69 -65.5 -176.5t-5 -200
t38.5 -151.5q73 54 108.5 206.5t0.5 289.5z" />
    <glyph glyph-name="uni3396" unicode="&#x3396;" 
d="M887 26q-19 -43 -48.5 -70t-63 -34.5t-71 13t-68.5 68.5q-48 -20 -102 -20l-18 58q44 -2 92 14q-59 142 -45.5 321.5t89.5 269.5q42 50 82.5 50t67.5 -40t36 -103q27 -182 -23 -327t-123 -194q28 -46 59.5 -50.5t55 20.5t36.5 65zM501 -61h-56v315q0 46 -8.5 79
t-21.5 46.5t-28.5 12.5t-28.5 -16t-21.5 -47.5t-8.5 -74.5v-315h-57v315q0 55 -12.5 91t-30 42.5t-35 -3.5t-30 -45.5t-12.5 -84.5v-315h-58v490h54v-65q10 55 42 75t66 -3t49 -79q16 49 42 73.5t52 20t49.5 -25.5t38.5 -61.5t15 -88.5v-336zM773 580q-12 46 -33.5 53.5
t-44.5 -21.5q-49 -69 -65.5 -176t-5.5 -200.5t39 -151.5q73 54 109 206.5t1 289.5z" />
    <glyph glyph-name="uni3397" unicode="&#x3397;" 
d="M853 26q-19 -43 -48.5 -70t-63.5 -34.5t-71 13t-69 68.5q-48 -20 -104 -20l-18 58q46 -3 96 14q-59 142 -46 321.5t89 269.5q42 50 82.5 50t67.5 -40t36 -103q27 -182 -23 -327t-123 -194q21 -35 44.5 -46.5t44 -1t36.5 32t26 50.5zM436 -53h-57v98q-19 -47 -49 -75
t-62.5 -34.5t-65 8t-58.5 45.5t-42 84t-16 119q0 65 22 122.5t57 90t74 43.5t77.5 -14.5t62.5 -86.5v293h57v-693zM738 580q-12 46 -33 53.5t-44 -21.5q-49 -69 -65.5 -176t-5.5 -200.5t39 -151.5q73 54 108.5 206.5t0.5 289.5zM372 194q0 70 -16.5 117.5t-42 66t-54.5 15.5
t-54.5 -26.5t-42 -69.5t-16.5 -103q0 -69 16.5 -117.5t42 -68t54.5 -17t54.5 25.5t42 70t16.5 107z" />
    <glyph glyph-name="uni2113" unicode="&#x2113;" 
d="M471 26q-26 -59 -71.5 -88.5t-99.5 -15t-97 78.5q-48 -20 -108 -20l-19 60q57 0 99 13q-60 143 -46.5 323.5t91.5 270.5q33 38 66 47.5t58.5 -7.5t44 -51.5t25.5 -81.5q27 -183 -24.5 -329t-126.5 -195q29 -46 63 -51t59.5 20.5t38.5 65.5zM346 582q-12 46 -34.5 53
t-46.5 -22q-51 -70 -67.5 -177.5t-5 -200t39.5 -152.5q74 52 112 208t2 291z" />
    <glyph glyph-name="uni3398" unicode="&#x3398;" 
d="M860 26q-19 -43 -48 -70t-63 -34.5t-71.5 13t-69.5 68.5q-46 -20 -104 -20l-18 58q48 -3 96 14q-59 142 -46 321.5t89 269.5q42 50 83 50t67.5 -40t35.5 -103q27 -181 -22.5 -326.5t-122.5 -194.5q28 -46 59.5 -50.5t54.5 20.5t36 65zM514 -61h-75l-196 262l-58 -60v-202
h-60v721h60v-439l220 239h71l-189 -215zM746 580q-12 46 -33 53.5t-44 -21.5q-49 -69 -66 -176t-5.5 -200t39.5 -152q73 54 108.5 206.5t0.5 289.5z" />
    <glyph glyph-name="uni33C4" unicode="&#x33c4;" 
d="M889 93q-10 -51 -37 -89.5t-63.5 -56.5t-78 -23t-81.5 12t-72 48t-52 86t-20 124q0 81 29 141.5t72.5 89.5t94.5 35t96 -12t76.5 -62t35.5 -105h-63q-3 43 -25 73t-53 42t-66 6t-64.5 -28.5t-49 -69t-19.5 -108.5q0 -67 18.5 -115.5t47.5 -70.5t63 -27.5t64.5 6.5
t54 39.5t29.5 64.5h63zM466 93q-11 -58 -46 -99t-80 -58t-94.5 -10.5t-90.5 35.5t-68 90t-27 143q0 83 29.5 143.5t73.5 89t96 34t97 -13.5t76 -62.5t33 -103.5h-62q-4 42 -26 72t-53 42t-66 6.5t-65 -28t-49.5 -69t-19.5 -108.5q0 -67 18.5 -115t47 -70.5t62.5 -28
t64.5 6.5t54.5 39.5t31 64.5h64z" />
    <glyph glyph-name="uni33A3" unicode="&#x33a3;" 
d="M831 363q-47 -1 -72 24.5t-25 70.5h46q-2 -56 49 -56q30 0 45 21t6.5 44t-36.5 30l-41 1v38q33 0 40 1q19 10 24.5 32t-6.5 39.5t-37 17.5q-40 -1 -40 -51h-42q-2 36 21 62t63 26q48 0 72 -29t16 -63t-40 -49q43 -19 51.5 -57t-19 -69.5t-75.5 -32.5zM738 -61h-49v315
q0 54 -8.5 90t-21 43t-25 -2.5t-21 -45t-8.5 -85.5v-315h-50v315q0 54 -8.5 89.5t-20.5 42.5t-24.5 -2.5t-21 -45t-8.5 -84.5v-315h-49v490h45v-64q4 38 19 60t32.5 23.5t35 -21.5t26.5 -68q8 41 27 65t40.5 24.5t42 -15.5t34 -58t13.5 -100v-336zM368 -61h-49v315
q0 54 -8.5 90t-21 43t-25 -2.5t-21 -45t-8.5 -85.5v-315h-50v315q0 46 -6 78t-15.5 45.5t-20.5 12t-20.5 -16.5t-15.5 -46.5t-6 -72.5v-315h-49v490h44v-64q7 56 30 74.5t48 -4.5t37 -76q6 39 24.5 63.5t40.5 25.5t43 -14t35 -57t14 -102v-336z" />
    <glyph glyph-name="uni33A4" unicode="&#x33a4;" 
d="M828 363q-47 -1 -71.5 24.5t-24.5 70.5h45q-2 -56 50 -56q29 0 43.5 20.5t6.5 44t-36 30.5l-40 1v38q33 0 39 1q20 10 25.5 32t-6.5 39.5t-37 17.5q-40 -1 -40 -51h-42q-2 36 20.5 62t62.5 26q49 0 72.5 -29t15.5 -63.5t-40 -48.5q44 -19 52.5 -57t-19.5 -69.5t-76 -32.5
zM739 -61h-51v315q0 54 -9 90t-22 43t-25.5 -2.5t-21.5 -45t-9 -85.5v-315h-49v315q0 53 -9.5 88.5t-22.5 43.5t-26.5 -1t-23 -44.5t-9.5 -86.5v-315h-50v490h46v-64q6 55 31.5 74t52 -3.5t36.5 -76.5q10 44 30.5 68t42.5 22.5t42.5 -19t33.5 -59t13 -96.5v-336zM381 92
q-8 -59 -37 -100.5t-67.5 -58t-81 -9t-78 37t-59 89t-23.5 139.5q0 83 25.5 143.5t63.5 88t82.5 32.5t83 -13.5t64 -61.5t26.5 -102h-55q-2 43 -20.5 74.5t-44 44t-55 7t-54.5 -28.5t-41 -71t-16 -113t16 -113t40 -70t52.5 -27.5t54 6.5t44.5 40t23 66h57z" />
    <glyph glyph-name="uni33A5" unicode="&#x33a5;" 
d="M747 360q-54 -1 -82 26.5t-27 71.5h49q-2 -22 12.5 -39.5t47.5 -17.5q31 0 46 21.5t6.5 46t-36.5 30.5h-49v38q37 -1 48 0q24 12 30 34t-8 39.5t-43 17.5q-21 0 -32 -12t-12.5 -21t-0.5 -19h-46q-2 39 23.5 64.5t71.5 26.5q51 0 78 -30.5t19 -67t-45 -51.5
q24 -7 39.5 -25.5t16 -40t-8.5 -42.5t-35 -35t-62 -15zM625 -61h-55v314q0 52 -16 87.5t-38.5 43.5t-44.5 -0.5t-38 -44t-16 -86.5v-314h-56v314q0 43 -11.5 74.5t-29 45.5t-37.5 13.5t-37.5 -14.5t-29 -45.5t-11.5 -73.5v-314h-58v490h53v-65q10 53 50 73t82 -2.5t57 -77.5
q14 41 42.5 65.5t61 25t62.5 -15t50 -57.5t20 -100v-336z" />
    <glyph glyph-name="uni33A6" unicode="&#x33a6;" 
d="M829 363q-47 -1 -71 24.5t-24 70.5h45q-2 -56 49 -56q29 0 43.5 20.5t6 44t-36.5 30.5l-40 1v38q33 0 39 1q19 10 25 31.5t-5.5 39t-36.5 17.5q-38 -1 -38 -50h-43q-2 37 20 62.5t62 25.5q48 0 71.5 -29t15.5 -63.5t-40 -48.5q44 -19 52.5 -57t-19 -69.5t-75.5 -32.5z
M743 -61h-51v315q0 54 -9.5 90t-23 43.5t-26.5 -1.5t-22.5 -45t-9.5 -87v-315h-51v315q0 52 -9.5 87.5t-23.5 43.5t-27.5 -0.5t-23 -44t-9.5 -86.5v-315h-52v490h48v-64q6 54 32 73.5t53 -3t37 -76.5q9 38 29.5 62t43.5 26t45 -13t36 -57t14 -102v-336zM398 -61h-66
l-154 259l-49 -62v-197h-60v712h60v-429l177 226h66l-154 -199z" />
    <glyph glyph-name="uni3399" unicode="&#x3399;" 
d="M811 -61h-56v315q0 54 -12 90t-29.5 43.5t-34.5 -1.5t-29 -45t-12 -87v-315h-58v315q0 68 -19 104t-42 33.5t-42 -39.5t-19 -98v-315h-55v490h51v-65q12 56 45 75t66 -4t48 -78q16 49 42 73.5t52.5 20t50 -25.5t38.5 -61.5t15 -88.5v-336zM335 574q-27 0 -44 0.5
t-24.5 -10.5t-7.5 -41v-74h70v-56h-70v-460h-61v460h-63v56h63v82q0 39 9 60t26 28t43 8t59 0v-53z" />
    <glyph glyph-name="uni339A" unicode="&#x339a;" 
d="M864 -61h-55v315q0 45 -8.5 78t-22 47t-28.5 13t-28.5 -16t-22 -47t-8.5 -75v-315h-56v315q0 46 -9 78t-22.5 45.5t-29.5 12.5t-29.5 -16.5t-22.5 -47t-9 -72.5v-315h-56v490h52v-65q12 56 44 75t65 -4t48 -78q23 62 58 82.5t65.5 3.5t52.5 -62.5t22 -105.5v-336z
M375 -62h-56v313q0 48 -13 82t-33 48t-43 13t-43 -17t-33 -49.5t-13 -77.5v-312h-58v490h56v-71q16 43 45.5 67.5t61.5 23.5t61.5 -18t48.5 -57.5t19 -93.5v-341z" />
    <glyph glyph-name="uni339B" unicode="&#x339b;" 
d="M874 -61h-55v315q0 68 -18 105t-40 35t-40 -39.5t-18 -100.5v-315h-56v315q0 68 -18.5 104t-41.5 33.5t-41.5 -39.5t-18.5 -98v-315h-55v490h51v-65q12 56 44 75.5t64.5 -4t47.5 -78.5q19 50 45 74t51.5 19t48 -26t36.5 -61.5t14 -87.5v-336zM430 438l-71 -431
q-1 -17 19 -19.5t43 0.5q0 -9 -6 -29l-6 -20q-65 -7 -88 9.5t-12 76.5q-8 -24 -32 -48.5t-52 -37.5t-55 -1t-39 54l-25 -142h-55l97 588h56l-48 -294q-10 -60 -2.5 -92t23.5 -48t39 -9.5t44.5 24.5t40 54t25.5 78l47 288z" />
    <glyph glyph-name="uni339C" unicode="&#x339c;" 
d="M874 -61h-51v315q0 54 -10.5 89.5t-26 43.5t-31 -1t-26 -45t-10.5 -87v-315h-50v315q0 53 -11 88.5t-27.5 43.5t-32.5 -1t-27 -44.5t-11 -86.5v-315h-52v491h46v-65q12 57 41 75.5t58 -5t43 -77.5q14 49 37.5 73t47 20t45 -24.5t35 -61t13.5 -89.5v-337zM439 -61h-51v315
q0 45 -8 77.5t-19.5 46.5t-25 14t-25 -15t-19.5 -47.5t-8 -75.5v-315h-52v315q0 66 -17 102t-38 35t-38 -37.5t-17 -99.5v-315h-51v491h46v-65q14 56 43 74.5t57.5 -4.5t42.5 -77q18 61 49 81.5t60 4.5t50 -62t21 -106v-337z" />
    <glyph glyph-name="uni339D" unicode="&#x339d;" 
d="M874 -61h-55v315q0 68 -18 105t-40 35t-40 -39.5t-18 -100.5v-315h-56v315q0 68 -18.5 104t-41.5 33.5t-41.5 -39.5t-18.5 -98v-315h-55v490h51v-65q12 56 44 75.5t64.5 -4t47.5 -78.5q19 50 45 74t51.5 19t48 -26t36.5 -61.5t14 -87.5v-336zM442 93q-10 -50 -36.5 -88
t-62 -57t-76.5 -24.5t-80 11t-70.5 47t-51 86t-19.5 126.5q0 82 28.5 143t72 89.5t94 34t94.5 -13t74 -62.5t32 -104h-62q-3 43 -24.5 73.5t-51.5 42.5t-64 5.5t-62.5 -29.5t-47.5 -69t-19 -108q0 -67 18 -115.5t45 -71t60 -28t62.5 6.5t52.5 39.5t30 65.5h64z" />
    <glyph glyph-name="uni339E" unicode="&#x339e;" 
d="M874 -61h-55v315q0 68 -18 105t-40 35t-40 -39.5t-18 -100.5v-315h-56v315q0 68 -18.5 104t-41.5 33.5t-41.5 -39.5t-18.5 -98v-315h-55v490h51v-65q12 56 44 75.5t64.5 -4t47.5 -78.5q19 50 45 74t51.5 19t48 -26t36.5 -61.5t14 -87.5v-336zM457 -61h-71l-183 265
l-56 -64v-201h-59v721h59v-438l198 238h71l-170 -210z" />
    <glyph glyph-name="uni339F" unicode="&#x339f;" 
d="M924 388h-178q-1 33 11 59t30.5 42t36.5 29.5t31 27.5t14 30q1 24 -12.5 36.5t-29.5 11t-28.5 -17t-10.5 -40.5h-45q-2 43 24.5 69t59.5 27.5t60 -22t25 -66.5q-1 -22 -20 -44.5t-41 -38t-39.5 -33t-16.5 -31.5h126zM738 -61h-50v315q0 54 -8.5 90t-20.5 43t-24 -2.5
t-20.5 -45t-8.5 -85.5v-315h-51v315q0 45 -6 77t-15 46t-20 13t-20 -15.5t-15 -46.5t-6 -74v-315h-50v490h44v-64q7 55 30.5 74.5t48 -3.5t34.5 -77q8 41 27 65t41 24.5t42.5 -15.5t34 -58t13.5 -100v-336zM369 -61h-51v315q0 54 -8.5 89.5t-21 43t-24.5 -1.5t-20.5 -45
t-8.5 -86v-315h-51v315q0 46 -6 78.5t-15 45.5t-20 12t-20 -16.5t-15 -47t-6 -72.5v-315h-50v490h44v-64q6 51 29.5 72.5t49 0.5t36.5 -79q8 41 27 65.5t41 24.5t42.5 -16.5t34 -58.5t13.5 -99v-336z" />
    <glyph glyph-name="uni33A0" unicode="&#x33a0;" 
d="M924 388h-178q-1 33 11 59t30.5 42t36.5 29.5t31 27.5t14 30q1 24 -12.5 36.5t-29.5 11t-28.5 -17t-10.5 -40.5h-45q-2 43 24.5 69t59.5 27.5t60 -22t25 -66.5q-1 -22 -20 -44.5t-41 -38t-39.5 -33t-16.5 -31.5h126zM739 -61h-52v315q0 54 -9 89.5t-21.5 42.5t-24.5 -2
t-21 -44.5t-9 -85.5v-315h-52v315q0 53 -9 88.5t-22 43.5t-26 -1t-22 -44.5t-9 -86.5v-315h-52v490h46v-64q6 55 31.5 74t52 -3.5t36.5 -76.5q11 45 31 69t42.5 22t43 -20.5t33.5 -60t13 -94.5v-336zM380 92q-8 -59 -37 -100.5t-67.5 -58t-81 -9t-78 37t-59 89t-23.5 139.5
q0 83 25.5 143.5t63.5 88t82.5 32.5t83 -13.5t64 -61.5t26.5 -102h-54q-3 43 -21 74.5t-44 44t-55.5 7t-54.5 -28.5t-41 -71t-16 -113t16 -113t40 -70t53 -27.5t54.5 6.5t44.5 40t23 66h56z" />
    <glyph glyph-name="uni33A1" unicode="&#x33a1;" 
d="M871 378h-187q-1 41 18.5 73t43 48t44 35.5t21.5 39.5q1 31 -20.5 44t-43.5 -2t-22 -51h-44q-1 46 27.5 73t63 28t62 -23.5t24.5 -68.5q-1 -25 -21 -48t-43 -37.5t-41.5 -34t-17.5 -37.5h136v-39zM626 -61h-54v314q0 65 -24 101.5t-53 36t-53 -37t-24 -100.5v-314h-56
v314q0 65 -24.5 101t-54 35t-54 -37.5t-24.5 -98.5v-314h-57v490h52v-65q8 40 34.5 61t57 20.5t59 -24t39.5 -64.5q14 41 42.5 65.5t61 25t62.5 -15t50 -57.5t20 -100v-336z" />
    <glyph glyph-name="uni33A2" unicode="&#x33a2;" 
d="M924 388h-178q-1 33 11 58.5t30.5 42t36.5 29.5t31 27.5t14 30.5q1 30 -20 42t-42.5 -3t-19.5 -49h-44q-1 44 25.5 70t59 27t59 -22.5t25.5 -66.5q-1 -27 -31 -55t-58.5 -51.5t-27.5 -40.5h126zM743 -61h-53v315q0 53 -9 88.5t-22 43t-26.5 -1.5t-22.5 -44t-9 -86v-315
h-53v315q0 53 -9.5 88.5t-22.5 42.5t-26.5 -2.5t-23 -44.5t-9.5 -84v-315h-53v490h47v-64q7 54 33 73.5t53.5 -2.5t37.5 -77q9 38 29.5 62t43.5 26t45 -13t36 -57t14 -102v-336zM398 -61h-67l-153 259l-50 -62v-197h-59v712h59v-429l178 226h66l-155 -199z" />
    <glyph glyph-name="uni33CA" unicode="&#x33ca;" 
d="M872 -36l-46 -34q-15 11 -32 37t-20 59q-16 -35 -44.5 -58.5t-61.5 -32.5t-66 2t-58.5 38.5t-40 84t-10.5 132.5q4 77 29.5 136.5t62 87t74.5 34.5t71 -14t49 -65l2 62h49l-8 -168l-2 -204q0 -26 13 -50.5t26 -35.5zM431 -61h-63v306q0 48 -14 81.5t-35.5 47.5t-46 13
t-46 -17t-35.5 -49.5t-14 -77.5v-304h-60v718h60v-301q21 48 54.5 71.5t67 19t64 -26t49.5 -64.5t19 -95v-322zM755 192q2 69 -11.5 118t-35 69t-48 18t-50 -25.5t-40.5 -70.5t-20 -108q-3 -65 10 -113t35.5 -69.5t49.5 -21.5t50.5 21.5t40.5 69t19 112.5z" />
    <glyph glyph-name="uni338D" unicode="&#x338d;" 
d="M833 7q0 -55 -17 -97.5t-44 -65.5t-60.5 -35t-67.5 -5.5t-63.5 24t-50 52t-25.5 79.5h60q6 -44 30 -72t55 -32t60.5 7.5t49.5 48.5t20 89v65q-23 -45 -53.5 -69t-61.5 -26.5t-61.5 13.5t-54 47.5t-38 80t-14.5 105.5q0 70 21.5 129t55 90.5t71 42t74.5 -15t60 -83.5v79
h54v-451zM454 436l-70 -431q-1 -17 19 -19.5t43 0.5q0 -9 -6 -29l-6 -20q-65 -7 -88.5 9.5t-12.5 75.5q-7 -23 -30.5 -47t-52 -37t-56 -1.5t-39.5 53.5l-25 -142h-55l97 588h57l-48 -294q-10 -60 -2.5 -92t23.5 -48t39 -9.5t44.5 24.5t40 54t25.5 78l47 288zM772 222
q0 65 -16 113t-40.5 69t-52.5 20.5t-52 -22.5t-40 -70t-16 -113q0 -63 16.5 -108.5t40.5 -65.5t52 -19.5t52 21.5t40 67t16 108z" />
    <glyph glyph-name="uni338E" unicode="&#x338e;" 
d="M843 7q0 -63 -22.5 -110t-57 -69t-75.5 -25t-77 13t-63 53.5t-33 89.5h61q6 -44 30 -72t54.5 -32t60.5 7.5t50 48.5t20 89v65q-27 -54 -65 -78.5t-75.5 -16t-70 37t-53 84.5t-20.5 124q0 70 21.5 128.5t55 90.5t71 42.5t74.5 -15t61 -83.5v79h53v-451zM459 -63h-54v315
q0 54 -10 90t-24.5 44t-29 -1t-24.5 -45t-10 -88v-315h-54v315q0 44 -7.5 76.5t-19.5 46.5t-25 13.5t-25 -15.5t-19.5 -46.5t-7.5 -74.5v-315h-54v491h49v-65q12 57 40 75t56 -5.5t42 -76.5q18 61 48.5 82t58.5 4.5t49 -63t21 -106.5v-336zM782 222q0 65 -16 113t-40.5 69
t-52.5 20.5t-52 -22.5t-40 -70t-16 -113q0 -63 16.5 -108.5t40.5 -65.5t52 -19.5t52 21.5t40 67t16 108z" />
    <glyph glyph-name="uni338F" unicode="&#x338f;" 
d="M829 7q0 -63 -22.5 -109.5t-57 -69t-75.5 -25.5t-77 13t-63 53.5t-33 89.5h60q6 -44 30.5 -72t55 -32t60.5 7.5t50 48.5t20 89v65q-27 -54 -65 -78.5t-75.5 -16t-70 37t-53 84.5t-20.5 124q0 70 21.5 128.5t55 90.5t71 42.5t74.5 -15t61 -83.5v79h53v-451zM478 -63h-71
l-174 262l-55 -61v-201h-59v721h59v-438l199 234h70l-171 -208zM768 222q0 66 -16.5 114t-40.5 68.5t-52.5 20t-52.5 -22.5t-40 -70.5t-15 -112.5q1 -63 17.5 -108.5t40.5 -65.5t52 -19.5t51.5 22t39.5 67t16 107.5z" />
    <glyph glyph-name="uni33CF" unicode="&#x33cf;" 
d="M765 -61h-50t-37.5 3.5t-25.5 13.5t-15 29.5t-5 51.5v362h-63v52h63v147h61v-147h62v-52h-62v-354q0 -18 2.5 -29t7.5 -16.5t13.5 -7.5t20.5 -2h28v-51zM555 -61h-76l-198 264l-57 -62v-202h-59v721h59v-439l211 235h75l-185 -207z" />
    <glyph glyph-name="uni3388" unicode="&#x3388;" 
d="M923 22q-17 -42 -41.5 -68t-52 -33t-58.5 13t-58 67q-42 -20 -85 -20l-15 60q50 -2 77 12q-49 136 -31 318.5t83 268.5q57 74 102 48.5t54 -131.5q16 -184 -26.5 -330t-107.5 -197q18 -35 36 -46t33 0.5t26.5 31.5t19.5 46zM630 -35l-41 -36q-14 8 -30.5 33.5t-20.5 59.5
q-21 -47 -44 -67.5t-65 -19.5q-40 2 -67 41.5t-37.5 97.5t-6 125.5t23 124.5t55 94t83.5 36q18 -1 30.5 -7.5t19.5 -18t13 -27t12 -33.5l4 65h48l-13 -158l-9 -216q-1 -28 10 -51.5t23 -33.5zM306 280q-17 2 -50 3q-1 47 -14.5 79t-32.5 43t-41 3t-40.5 -32.5t-31 -71.5
t-12.5 -106q0 -68 12 -117.5t30 -72.5t39.5 -29.5t40 6t32 41t14.5 68.5h49q2 -50 -17.5 -90.5t-50 -61.5t-66 -19t-66.5 27.5t-51.5 89t-20.5 154.5q0 80 21 140.5t52 90.5t67 37t66.5 -11t51 -63t19.5 -108zM839 582q-16 84 -58 23q-43 -66 -60 -174t-10 -201.5t27 -147.5
q56 48 92 206t9 294zM477 402q-32 1 -56.5 -40t-33.5 -100t-8 -118.5t17 -102t43 -43.5q44 -2 70 60.5t28.5 138.5t-14 140t-46.5 65z" />
    <glyph glyph-name="uni3389" unicode="&#x3389;" 
d="M928 -9q-17 -42 -41.5 -61.5t-55.5 -5t-59 69.5q-37 -14 -62 -17q13 -17 15 -19l-40 -26q-28 24 -39 92q-16 -43 -37 -68t-56 -23q-41 3 -66 59.5t-27 134t10 154.5t47 128.5t83 48.5q37 -3 53 -75l6 57l43 -2q-15 -121 -16.5 -141.5t-6.5 -122.5q-4 -97 6 -146
q46 6 66 18q-41 126 -24.5 313t73.5 282q30 50 56 52t41.5 -35t19.5 -100q12 -185 -21 -330.5t-84 -195.5q15 -45 32.5 -57.5t31.5 3t24 48.5zM455 294h-46q0 44 -9 74.5t-22 41t-28.5 2.5t-29 -33t-22.5 -73t-9 -111q0 -58 7.5 -103.5t20 -69.5t26.5 -33t27 -1.5t22 31.5
t11 61h47q-1 -53 -17.5 -91t-40.5 -54.5t-51.5 -10t-51 35.5t-39 91t-15.5 146t17 145.5t42.5 89.5t55 33t54 -13.5t39.5 -60t12 -97.5zM270 -66h-52l-102 264l-39 -60v-201h-48v723h49v-431l133 220h55l-118 -206zM872 577q-8 57 -17.5 59t-27.5 -39q-47 -98 -57.5 -267
t16.5 -248q46 53 74.5 209t11.5 286zM590 402q-40 4 -60.5 -98t-13 -206.5t37.5 -107.5q32 -4 54 58.5t26.5 140t-7 144t-37.5 69.5z" />
    <glyph glyph-name="uni33C8" unicode="&#x33c8;" 
d="M639 -62h-130v719h139q66 0 111.5 -29.5t61.5 -74t14.5 -91.5t-26 -87.5t-63.5 -56.5q49 -16 80.5 -60.5t35 -98t-14.5 -103.5t-73 -84t-135 -34zM418 -53h-58v96q-24 -58 -62 -86.5t-77.5 -22.5t-75 35t-58 88.5t-22.5 134.5q0 73 23.5 132t59.5 87.5t76 36t77.5 -19
t58.5 -80.5v309h58v-710zM647 606q0 1 1 2q-2 0 -2.5 0.5t-7.5 0.5h-13.5h-23.5h-34v-272h79q51 0 85.5 27t42.5 66t-0.5 78.5t-42.5 67.5t-84 30zM654 289h-87v-300h86q58 0 97 31t47.5 75t-1.5 88t-48.5 75t-93.5 31zM356 194q0 67 -17 114.5t-43 67.5t-56 18.5t-56 -23.5
t-43 -69t-17 -108q0 -67 17 -115t43 -68.5t56 -19.5t56 23.5t43 69.5t17 110z" />
    <glyph glyph-name="uni33A7" unicode="&#x33a7;" 
d="M846 34q-3 -39 -35 -66t-75.5 -33t-87.5 2t-74 39.5t-30 78.5h54q0 -38 29.5 -58.5t65 -20.5t66 16t33.5 43q2 29 -20.5 46.5t-56.5 26.5t-68 19t-57.5 32t-22.5 57q1 32 21.5 56.5t50.5 37t64.5 13t64 -11t49 -39t19.5 -66.5h-51q0 33 -25.5 52t-56.5 19.5t-56 -15
t-24 -43.5q-2 -26 20.5 -42.5t57 -26t68.5 -20.5t57 -35t20 -61zM880 640l-735 -741l-36 28l740 743zM432 281h-50v208q0 48 -9.5 79.5t-23 38t-27 -1.5t-23 -40t-9.5 -77v-207h-50v207q0 40 -7 68.5t-18 41t-23 11.5t-23 -14.5t-18 -42t-7 -65.5v-206h-50v368h44v-63
q3 34 20.5 55t38 22.5t40.5 -21t28 -66.5q8 37 27.5 61t43 26.5t45.5 -11t36.5 -54t14.5 -99.5v-218z" />
    <glyph glyph-name="uni33A8" unicode="&#x33a8;" 
d="M900 234h-138q-1 29 13 50t31 31t32.5 24t17.5 28q0 19 -15 28t-31 0t-17 -36h-34q0 47 34 63.5t67 -1.5t30 -56q-2 -26 -45.5 -56.5t-43.5 -46.5h99v-28zM851 658l-736 -742l-35 29l742 742zM759 26q-3 -36 -33.5 -61t-72 -30.5t-82.5 2t-69.5 37.5t-28.5 74h53
q0 -35 27.5 -54.5t61 -19.5t62 14.5t30.5 39.5q3 28 -18.5 44.5t-53.5 25t-64.5 18t-55 31t-21.5 56.5q1 45 40.5 72.5t86.5 28.5t86 -28t39 -83h-49q-1 34 -24 52.5t-50.5 18t-51 -16t-26.5 -41.5q-2 -26 20.5 -41.5t55.5 -24.5t65.5 -19.5t54 -34t18.5 -60.5zM413 300h-47
v191q0 58 -14.5 90.5t-32.5 31.5t-32.5 -33.5t-14.5 -88.5v-191h-49v191q0 60 -15 92t-33.5 29.5t-33.5 -35.5t-15 -88v-189h-48v352h43v-63q4 46 31 66.5t56.5 0t39.5 -77.5q10 50 37 73t55.5 16t50.5 -51t22 -115v-201z" />
    <glyph glyph-name="uni33B0" unicode="&#x33b0;" 
d="M870 78q-2 -42 -31 -74.5t-71 -48.5t-90.5 -16.5t-90 15t-69.5 54t-29 92.5h63q1 -53 39.5 -81t85 -27.5t86.5 24t44 61.5q4 41 -25.5 65t-75 36t-91 25t-76.5 44t-29 82q2 44 29 76.5t66.5 47t84.5 13.5t83 -17.5t62.5 -53.5t23.5 -87h-56q-1 41 -24 68t-56.5 33.5
t-67 1.5t-58 -27t-26.5 -52q-3 -38 27.5 -60.5t75.5 -34t90.5 -25t76.5 -47t29 -87.5zM456 215q0 -73 -23 -131t-59 -86t-76 -34.5t-77 20.5t-58 82v-258h-57v650h57v-98q24 59 62.5 88.5t77.5 23.5t74 -35t57 -88t22 -134zM397 215q0 66 -17 113t-42.5 67t-55 19t-55 -23
t-42.5 -68.5t-17 -107.5q0 -63 17 -109t42.5 -66.5t55 -20.5t55 21t42.5 67t17 108z" />
    <glyph glyph-name="uni33B1" unicode="&#x33b1;" 
d="M851 66q-2 -42 -31 -74.5t-71 -48.5t-90.5 -16.5t-90 15t-69.5 54t-29 92.5h63q1 -53 40 -81t85 -27.5t86 24t44 61.5q4 41 -25.5 65t-75 35.5t-91 25t-76.5 44.5t-29 82q2 44 29 76.5t66.5 47t84.5 13.5t83.5 -17.5t63 -53.5t23.5 -87h-57q-1 51 -36 78.5t-77.5 28
t-79 -22t-39.5 -60.5t27.5 -60.5t76 -34t90.5 -25.5t76 -47t29 -87zM410 -62h-56v313q0 71 -29 109t-64.5 35.5t-64.5 -41.5t-29 -104v-312h-59v490h57v-71q19 53 60.5 75.5t82 12t71.5 -55t31 -110.5v-341z" />
    <glyph glyph-name="uni33B2" unicode="&#x33b2;" 
d="M866 61q-2 -41 -30.5 -72t-70.5 -47t-90.5 -16t-90 16t-70 54t-30.5 92h63q1 -42 27 -69.5t62 -33.5t73 0t64 28t30 53q4 41 -25.5 65t-75 35.5t-91 25t-77 44.5t-29.5 81q2 52 39.5 88.5t88.5 45t102 -1.5t86.5 -50.5t34.5 -101.5h-58q-1 41 -24 68t-56.5 33.5t-67 1.5
t-58 -28t-26.5 -55q-2 -33 19.5 -54.5t56 -31t74.5 -22t74.5 -26.5t56 -45t19.5 -77zM455 438l-69 -429q-1 -17 19.5 -19.5t43.5 0.5q0 -9 -7 -30l-7 -21q-65 -7 -89 9.5t-15 76.5q-3 -18 -19 -38.5t-39 -34t-47 -18t-45 10t-31 47.5l-26 -142h-56l97 588h59l-49 -294
q-10 -59 -2.5 -91.5t24 -48.5t40 -9.5t45.5 24.5t41 53.5t26 78.5l49 288z" />
    <glyph glyph-name="uni33B3" unicode="&#x33b3;" 
d="M455 -61h-52v315q0 45 -7.5 77.5t-19.5 46.5t-25 14t-25 -15t-19.5 -47.5t-7.5 -75.5v-315h-52v315q0 66 -17 102t-38 35t-38 -37.5t-17 -99.5v-315h-51v491h46v-65q14 56 43 74.5t57.5 -4.5t42.5 -77q18 61 49 81.5t60 4.5t50 -62t21 -106v-337zM866 61
q-2 -41 -30.5 -72t-70.5 -47t-90.5 -16t-90 16t-70 54t-30.5 92h63q1 -42 27 -69.5t62 -33.5t73 0t64 28t30 53q4 41 -25.5 65t-75 35.5t-91 25t-77 44.5t-29.5 81q2 52 39.5 88.5t88.5 45t102 -1.5t86.5 -50.5t34.5 -101.5h-58q-1 41 -24 68t-56.5 33.5t-67 1.5t-58 -28
t-26.5 -55q-2 -33 19.5 -54.5t56 -31t74.5 -22t74.5 -26.5t56 -45t19.5 -77z" />
    <glyph glyph-name="uni33B4" unicode="&#x33b4;" 
d="M873 657l-236 -719h-57l-236 719h64l200 -630l203 630h62zM416 206q0 -76 -21.5 -132.5t-54 -80.5t-67.5 -27.5t-65.5 22t-45.5 72.5v-224h-53v582h53v-72q23 52 57 76.5t67.5 17.5t63 -34.5t48 -80.5t18.5 -119zM360 205q0 61 -14 104t-35 61t-46 16t-46 -22.5
t-35.5 -62.5t-14.5 -97q0 -58 14 -100.5t35 -62t46 -19.5t46.5 19t35.5 62t14 102z" />
    <glyph glyph-name="uni33B5" unicode="&#x33b5;" 
d="M875 657l-236 -719h-56l-236 719h64l200 -630l202 630h62zM392 -62h-54v297q0 62 -27 95.5t-59.5 32t-59.5 -37.5t-27 -96v-291h-56v462h55v-66q24 64 79.5 78t102 -28.5t46.5 -121.5v-324z" />
    <glyph glyph-name="uni33B6" unicode="&#x33b6;" 
d="M893 657l-236 -719h-57l-236 719h64l201 -630l201 630h63zM425 396l-66 -401q-2 -15 17 -17.5t41 0.5q0 -12 -6 -29l-6 -17q-60 -7 -83.5 8t-12.5 70q-8 -39 -43 -64t-73 -17t-52 52l-21 -135h-56l90 550h57l-45 -274q-9 -54 -2 -84t22 -45.5t36.5 -10.5t42 21.5t37.5 50
t24 75.5l44 267h55z" />
    <glyph glyph-name="uni33B7" unicode="&#x33b7;" 
d="M885 657l-230 -719h-57l-229 719h62l196 -626l197 626h61zM430 -62h-50v297q0 50 -10.5 83t-25 39.5t-29.5 -2t-25.5 -41.5t-10.5 -79v-297h-51v297q0 61 -15.5 94t-34.5 31.5t-34.5 -35.5t-15.5 -90v-297h-50v460h46v-60q3 34 20.5 54t38.5 21t41.5 -19.5t28.5 -60.5
q7 32 27.5 54t45.5 24.5t48.5 -9t39.5 -50.5t16 -97v-317z" />
    <glyph glyph-name="uni33B8" unicode="&#x33b8;" 
d="M883 657l-230 -719h-58l-229 719h62l195 -627l199 627h61zM433 -62h-64l-162 269l-41 -53v-216h-55v719h55v-422l164 219h62l-149 -201z" />
    <glyph glyph-name="uni33B9" unicode="&#x33b9;" 
d="M920 657l-173 -719h-58l-173 719h62l139 -627l142 627h61zM510 -63h-55v578l-140 -578h-62l-140 578v-578h-49v4h-4v716h68l156 -628l155 628h71v-720z" />
    <glyph glyph-name="uni3380" unicode="&#x3380;" 
d="M905 -62h-63l-64 207h-281l-64 -207h-62l236 719h62zM388 205q0 -74 -21 -130t-52.5 -80.5t-65 -29t-63 21t-42.5 73.5v-223h-52v581h52v-72q24 53 57 77t65 15.5t60 -37t45 -81t17 -115.5zM760 198l-122 384l-124 -384h246zM334 204q0 60 -13.5 103t-34 61t-44 17
t-44 -21.5t-34.5 -62.5t-14 -97q0 -58 13.5 -101t34 -62.5t44.5 -19.5t44.5 19.5t34 62t13.5 101.5z" />
    <glyph glyph-name="uni3381" unicode="&#x3381;" 
d="M909 -62h-62l-64 207h-281l-64 -207h-62l235 719h63zM360 -62h-56v297q0 65 -25.5 98.5t-56 30t-56 -40t-25.5 -94.5v-291h-55v462h55v-66q15 48 51.5 68.5t72.5 11t64 -50t28 -101.5zM765 198l-122 384l-123 -384h245z" />
    <glyph glyph-name="uni3382" unicode="&#x3382;" 
d="M909 -62h-62l-64 207h-281l-64 -207h-55l-2 -6q-59 -6 -80.5 9t-12.5 69q-8 -45 -44.5 -67t-73.5 -11t-48 49l-21 -135h-53l87 550h52l-42 -274q-6 -41 -2.5 -71.5t15.5 -45t27.5 -20.5t34 3t35 25.5t30 47.5t19.5 68l42 267h53l-62 -401q-3 -14 14.5 -17t37.5 0l222 679
h63zM765 198l-122 384l-123 -384h245z" />
    <glyph glyph-name="uni3383" unicode="&#x3383;" 
d="M920 -62h-62l-62 207h-261l-62 -207h-60l221 719h62zM403 -62h-50v297q0 42 -6.5 72t-17 43t-22 12.5t-22 -14.5t-17 -44t-6.5 -69v-297h-51v297q0 49 -9.5 81.5t-23.5 39.5t-27.5 -1.5t-23 -41t-9.5 -78.5v-297h-51v460h46v-60q4 47 30.5 66.5t55 -0.5t37.5 -71
q12 47 40 67.5t56 11.5t49.5 -50.5t21.5 -106.5v-317zM780 197l-114 379l-115 -379h229z" />
    <glyph glyph-name="uni3384" unicode="&#x3384;" 
d="M905 -62h-63l-62 207h-266l-63 -207h-99l-160 268l-41 -52v-216h-55v719h55v-425l163 222h60l-148 -201l173 -287l218 691h63zM764 197l-117 382l-116 -382h233z" />
    <glyph glyph-name="uni33BA" unicode="&#x33ba;" 
d="M903 667l-121 -736h-59l-110 630l-108 -630h-59l-122 736h58l94 -607l102 607h72l101 -610l97 610h55zM221 -33q-22 0 -39 9.5t-27 28.5t-14 28t-9 27v-225h-52v583h52v-72q6 13 11.5 25.5t13.5 24t17 20.5t23 14.5t31 5.5q49 0 82.5 -48.5t41 -117.5t-1 -138t-43.5 -117
t-86 -48zM220 385q-32 0 -54 -37.5t-27 -90.5t-0.5 -106.5t25.5 -91t52 -37.5q32 0 54.5 37.5t27.5 91t0.5 106.5t-26 90.5t-52.5 37.5z" />
    <glyph glyph-name="uni33BB" unicode="&#x33bb;" 
d="M903 667l-121 -736h-59l-110 630l-108 -630h-59l-122 736h58l94 -607l102 607h72l101 -610l97 610h55zM340 -62h-54v297q0 42 -11.5 72t-28 43t-36.5 11.5t-36.5 -16t-28 -45.5t-11.5 -71v-291h-54v462h53v-66q16 52 51 71t69.5 7.5t60.5 -52.5t26 -98v-324z" />
    <glyph glyph-name="uni33BC" unicode="&#x33bc;" 
d="M909 667l-120 -736h-59l-110 630l-108 -630h-60l-121 736h57l94 -607l103 607h71l102 -610l97 610h54zM366 396l-62 -401q-3 -15 15.5 -17.5t39.5 0.5l-11 -46q-59 -6 -80.5 9t-12.5 69q-5 -28 -24.5 -51t-43 -32t-46.5 4t-33 50l-21 -135h-53l87 550h52l-42 -274
q-8 -53 -2.5 -83t18.5 -46t31.5 -11.5t36.5 20t33.5 50t22.5 77.5l42 267h53z" />
    <glyph glyph-name="uni33BD" unicode="&#x33bd;" 
d="M912 667l-112 -736h-59l-103 626l-98 -626h-59l-112 736h57l85 -604l95 604h67l96 -610l88 610h55zM389 -62h-49v297q0 50 -9 83.5t-22 40t-26.5 -2t-22.5 -41.5t-9 -80v-297h-50v297q0 49 -9 81.5t-21.5 39.5t-25 -1t-21.5 -40.5t-9 -79.5v-297h-50v460h45v-59
q5 37 22 56.5t36 18t36 -23t22 -57.5q10 38 30 60t42.5 22t43 -15t34 -53.5t13.5 -91.5v-317z" />
    <glyph glyph-name="uni33BE" unicode="&#x33be;" 
d="M898 667l-112 -736h-59l-102 626l-99 -626h-60l-111 736h57l85 -604l94 604h68l96 -610l87 610h56zM407 -62h-61l-157 268l-41 -52v-216h-54v719h54v-423l161 220h60l-146 -202z" />
    <glyph glyph-name="uni33BF" unicode="&#x33bf;" 
d="M913 450l-91 -512h-64l-74 415l-72 -415h-64l-93 512h58l67 -408l69 408h69l71 -409l70 409h54zM438 -62h-51v407l-115 -407h-57l-115 407v-407h-53v512h76l120 -429l123 429h72v-512z" />
    <glyph glyph-name="uni3390" unicode="&#x3390;" 
d="M872 -62h-338v51l256 408h-241v49h308v-49l-257 -409h272v-50zM474 -62h-60v353h-250v-353h-59v719h59v-313h250v313h60v-719z" />
    <glyph glyph-name="uni3391" unicode="&#x3391;" 
d="M910 -62h-215v44l147 226h-144v44h196v-44l-146 -226h162v-44zM667 -62h-55v239h-168v-239h-56v511h56v-225h168v225h55v-511zM376 -62h-60l-154 250l-45 -59v-191h-55v511h55v-240l170 240h58l-149 -213z" />
    <glyph glyph-name="uni3392" unicode="&#x3392;" 
d="M914 -62h-193v43l125 228h-122v43h175v-43l-126 -228h141v-43zM700 -62h-55v239h-135v-239h-56v511h56v-225h135v225h55v-511zM407 -62h-51v407l-96 -407h-57l-97 407v-407h-52v512h76l101 -429l104 429h72v-512z" />
    <glyph glyph-name="uni3393" unicode="&#x3393;" 
d="M907 -62h-194v42l125 231h-123v41h176v-41l-127 -231h143v-42zM682 -62h-55v239h-151v-239h-56v511h56v-225h151v225h55v-511zM371 -57h-50v51q-43 -60 -110 -61q-58 -1 -100 38t-60 97.5t-17 126.5t21.5 127t64 98t101.5 39q41 0 72 -16t46.5 -42t23 -52t7.5 -52h-49
q-1 38 -25 73t-77 35q-39 0 -68.5 -31t-43.5 -77.5t-15 -100.5t11.5 -100.5t41.5 -77.5t69 -31q33 0 56 15t33.5 40t14 45.5t3.5 42.5v25h-83v48h133v-260z" />
    <glyph glyph-name="uni3394" unicode="&#x3394;" 
d="M905 -62h-215v44l146 226h-143v44h196v-44l-145 -226h161v-44zM662 -62h-54v239h-165v-239h-55v511h55v-225h165v225h54v-511zM366 402h-134v-464h-55v464h-144v47h333v-47z" />
    <glyph glyph-name="Omega" unicode="&#x2126;" 
d="M564 65v-77h118v-52h-138q-34 0 -34 44v92q0 16 5 27t9 14l5 3q56 11 95 53t55 97.5t11.5 117.5t-28.5 113.5t-73 85.5t-115 34q-65 0 -113.5 -34t-73 -85.5t-29 -113.5t11 -117.5t54.5 -97.5t95 -53q20 -9 20 -44v-92q0 -44 -34 -44h-138v52h118v77q-67 22 -112.5 77
t-63 122t-9.5 140t39.5 132.5t93 98.5t141.5 39q79 0 140.5 -38.5t93 -98t40 -132.5t-8 -140t-62 -122t-113.5 -78z" />
    <glyph glyph-name="uni33C0" unicode="&#x33c0;" 
d="M732 28v-49h85v-42h-111q-27 0 -27 32v66q0 11 3.5 19.5t7.5 11.5l4 2q48 11 78 51.5t34 90.5t-9 98t-51.5 80.5t-92.5 32.5q-53 0 -92.5 -32.5t-53 -80.5t-10 -98t35.5 -90.5t83 -51.5q2 -5 6 -9.5t5.5 -9t1.5 -14.5q0 -70 -2 -72q0 -26 -23 -26h-108v42h81v48
q-62 22 -98 75.5t-37 116t19.5 121t71.5 97t119 38.5q60 0 106 -28.5t70 -72.5t31 -97.5t-4.5 -103t-43.5 -89.5t-79 -56zM455 -61h-66l-176 254l-57 -68v-186h-57v511h57v-245l194 245h63l-164 -212z" />
    <glyph glyph-name="uni33C1" unicode="&#x33c1;" 
d="M798 32v-50h82v-44h-103q-27 0 -27 34v69q0 12 4 20t8 10l3 2q42 14 69 57t31 95.5t-7 103t-46.5 84.5t-86.5 34q-49 0 -84 -34t-46.5 -84.5t-8 -103.5t31 -96t71.5 -56q4 -9 7 -14t3.5 -6.5t1 -4t0.5 -9.5q0 -71 -2 -73q-2 -28 -21 -28h-101v44h76v50q-54 20 -87 75.5
t-35.5 121t15 128t65.5 104t114 41.5q58 0 101.5 -30t64 -76t25.5 -102.5t-7 -108t-41 -94t-70 -59.5zM504 -61h-56v589l-131 -589h-64l-130 586v-586h-54v718h81l135 -619l137 619h82v-718z" />
    <glyph glyph-name="uni338A" unicode="&#x338a;" 
d="M868 605h-313v-284h278v-53h-278v-330h-59v719h372v-52zM427 206q0 -78 -22 -135t-55 -80t-68.5 -25t-65.5 23.5t-42 70.5v-223h-53v581h53v-72q21 51 54.5 75.5t67 18t63.5 -33t49 -80t19 -120.5zM372 205q0 61 -14 104t-35 60.5t-45.5 16t-45.5 -22t-35.5 -62.5
t-14.5 -97q0 -58 14 -100.5t35 -61.5t45.5 -19t46 19t35.5 62t14 101z" />
    <glyph glyph-name="uni338B" unicode="&#x338b;" 
d="M867 605h-307v-284h272v-53h-272v-330h-59v719h366v-52zM404 -62h-54v297q0 62 -26.5 96t-58.5 32.5t-58.5 -37.5t-26.5 -97v-291h-56v462h55v-66q18 49 56 68.5t75 9.5t65.5 -50.5t28.5 -99.5v-324z" />
    <glyph glyph-name="uni338C" unicode="&#x338c;" 
d="M886 605h-312v-284h277v-53h-277v-330h-60v719h372v-52zM433 396l-62 -401q-3 -15 16 -17.5t40 0.5q0 -12 -5 -29l-6 -17q-61 -7 -83.5 8t-12.5 70q-7 -38 -42.5 -63.5t-74.5 -18t-53 52.5l-22 -135h-56l87 550h57l-43 -273q-9 -54 -1.5 -84t23 -45.5t37.5 -10.5t42.5 21
t38 50t23.5 75l42 267h55z" />
    <glyph glyph-name="uni33D6" unicode="&#x33d6;" 
d="M920 22q-23 -56 -55 -83.5t-71 -13.5t-75 76q-44 -20 -79 -20l-16 58q37 -2 73 14q-49 137 -31 319t82 268q58 74 101 49t52 -132q16 -184 -26 -330.5t-107 -196.5q19 -35 37.5 -46t32.5 0.5t24.5 31t17.5 46.5zM502 -67q-54 0 -89.5 54t-43 131t2 154t46.5 131t89 54
t86.5 -54t42 -131t-2 -154t-45 -131t-86.5 -54zM342 -61h-48v315q0 53 -8 89t-19 43.5t-22.5 -1.5t-19.5 -44.5t-8 -86.5v-315h-49v315q0 54 -8 89.5t-20 42.5t-23.5 -2.5t-19.5 -44.5t-8 -85v-315h-49v490h43v-64q7 55 29 73.5t46 -4.5t36 -75q7 42 24.5 66t38 24t40 -16.5
t32.5 -58.5t13 -99v-336zM843 583q-6 32 -15 42.5t-19 4.5t-22 -25q-43 -66 -60.5 -173.5t-11 -201.5t27.5 -148q55 42 91.5 203t8.5 298zM505 406q-39 0 -62 -65.5t-24.5 -144t20 -143.5t62.5 -65q40 0 63.5 65.5t24 144t-22 143.5t-61.5 65z" />
    <glyph glyph-name="uni33C5" unicode="&#x33c5;" 
d="M826 -53h-57v96q-24 -58 -63 -86.5t-80 -22t-77.5 35.5t-60 88.5t-23.5 133.5t24.5 133t62 87t79 35t79.5 -19.5t59 -79.5v295h57v-696zM435 93q-10 -59 -42.5 -100t-74 -57t-88 -8t-85 37.5t-63.5 88.5t-25 138q0 64 16.5 114.5t43 81t60.5 48.5t69.5 20t69 -9t60 -33.5
t42.5 -58.5t16 -79h-59q-2 42 -22 72t-48 42t-61 6.5t-60.5 -27.5t-46 -68.5t-18.5 -109.5q0 -65 17.5 -112t44 -69.5t58 -28.5t59.5 5.5t49 38.5t25 65zM764 194q0 67 -18 114.5t-44.5 67t-57.5 18.5t-57.5 -23.5t-44.5 -69t-18 -107.5q0 -67 18 -115t44.5 -68.5
t57.5 -19.5t57.5 23.5t44.5 69.5t18 110z" />
    <glyph glyph-name="uni33AD" unicode="&#x33ad;" 
d="M879 -53h-53v96q-9 -27 -15 -41t-18 -31.5t-28.5 -25.5t-39.5 -8q-48 0 -82.5 37.5t-49.5 94t-13.5 122.5t18 123t51.5 94t82 37q67 -1 95 -98v300h53v-700zM582 -35l-41 -36q-14 8 -30.5 33.5t-20.5 59.5q-19 -45 -45 -66.5t-69 -20.5q-40 2 -68.5 41t-39 97t-6 124.5
t23 123t55.5 93.5t86 36q25 0 40.5 -12t22 -25.5t17.5 -44.5l4 65h49l-14 -158l-9 -216q-1 -28 10 -51.5t23 -33.5zM286 374q-71 0 -118.5 -50.5t-47.5 -121.5v-264h-60v490h60v-90q23 44 70 73t96 29v-66zM734 390q-36 0 -60.5 -41t-31 -99t-1 -116t29.5 -98.5t59 -40.5
q34 1 58 42t29.5 99t1 115.5t-27.5 98t-57 40.5zM424 399q-34 1 -59.5 -39.5t-34 -99.5t-7.5 -118t18.5 -101t45.5 -43q45 -2 72 60t29.5 137.5t-14.5 139t-50 64.5z" />
    <glyph glyph-name="uni33AE" unicode="&#x33ae;" 
d="M596 349h-37v65q-7 -26 -24 -47t-45 -21q-36 0 -60.5 27t-29.5 65.5t1.5 77t32.5 65.5t63 27q27 0 43 -21t19 -43v185h37v-380zM834 10q-3 -36 -39.5 -57t-79 -21.5t-77.5 25t-35 71.5h48q-1 -38 31.5 -53t67 -3t37.5 38q2 23 -14.5 36t-41.5 19.5t-50.5 14t-43.5 25
t-17 46.5q1 37 33 59.5t69.5 23.5t69 -23t31.5 -69h-42q-1 27 -19.5 42t-40 15.5t-40 -11.5t-19.5 -33t17 -33.5t44 -19t52 -15t43.5 -27.5t15.5 -50zM914 600l-722 -730l-29 26l726 730zM406 371l-36 -28q-28 20 -32 62q-12 -30 -28.5 -44.5t-50.5 -13.5q-30 0 -50 28.5
t-22.5 68t5.5 78.5t36.5 63.5t68.5 19.5q18 -2 29.5 -13.5t13.5 -23t5 -20.5l2 52l37 -2l-8 -86l-3 -75q0 -25 8 -41.5t17 -20.5zM200 565q-41 -4 -69 -26.5t-28 -61.5v-128h-43v256h43v-56q14 29 39.5 45.5t57.5 15.5v-45zM497 572q-27 0 -42.5 -29t-16 -64t12.5 -64.5
t37 -29.5q38 0 53 46.5t1.5 93.5t-45.5 47zM285 573q-35 1 -49.5 -45.5t-3 -93.5t38.5 -48q23 -1 38.5 17.5t20 46t2 55t-15 47.5t-31.5 21z" />
    <glyph glyph-name="uni33AF" unicode="&#x33af;" 
d="M901 167h-128q-1 25 12 45t30 30t31.5 23.5t16.5 27.5q0 19 -14 27.5t-28.5 -0.5t-16.5 -34h-33q0 45 32 61.5t63 -1t28 -54.5q-3 -26 -42.5 -54t-39.5 -45h89v-26zM591 349h-38v65q-7 -27 -24 -47.5t-45 -20.5q-36 0 -60.5 27t-29.5 65.5t1.5 77t32.5 65.5t63 27
q27 0 43 -21t19 -43v185h38v-380zM914 597l-722 -729l-29 25l726 730zM401 371l-37 -28q-27 19 -32 62q-12 -30 -28.5 -44.5t-50.5 -13.5q-29 0 -49 28.5t-22.5 68t5.5 78.5t36.5 63.5t68.5 19.5q14 -1 23.5 -8.5t13.5 -16t7.5 -17.5t3.5 -15l1 52l37 -2l-7 -86l-3 -75
q-1 -25 7.5 -41.5t16.5 -20.5zM769 8q-2 -28 -25.5 -48t-56 -24.5t-64 1t-53.5 29.5t-22 60h44q0 -29 20 -44t44.5 -15t45.5 11.5t24 29.5q3 27 -21.5 41.5t-56.5 20t-58 24.5t-25 52q1 29 21.5 49t49 25.5t56.5 0.5t47.5 -27.5t19.5 -56.5h-39q-2 26 -20 39.5t-38.5 13
t-38 -11t-18.5 -28.5q-1 -21 16.5 -33.5t42.5 -19t50 -14.5t41.5 -26.5t13.5 -48.5zM195 565q-41 -4 -69.5 -26.5t-28.5 -61.5v-128h-42v256h42v-56q32 64 98 61v-45zM491 572q-35 0 -50 -46.5t-2.5 -93.5t43.5 -47q38 0 53.5 46.5t1.5 93.5t-46 47zM279 573
q-35 1 -49.5 -45.5t-3 -93.5t38.5 -48q23 -1 38.5 17.5t20 46t2 55t-15 47.5t-31.5 21z" />
    <glyph glyph-name="uni33DB" unicode="&#x33db;" 
d="M823 368q-84 0 -142 -43.5t-58 -125.5v-260h-61v484h61v-91q32 47 87.5 75t112.5 26v-65zM478 59q-1 -38 -30 -68.5t-71 -45.5t-90.5 -15.5t-90.5 14.5t-70 52.5t-29 91.5h63q1 -53 39.5 -81t85 -27.5t86.5 23.5t44 61q4 35 -17 58t-55 33t-74 22.5t-74.5 25t-56.5 41.5
t-20 72q2 52 39 88.5t88.5 45t102 -1.5t85.5 -50.5t34 -101.5h-56q-1 40 -24 67.5t-56.5 34t-67 1.5t-58 -27.5t-26.5 -55.5q-3 -33 18.5 -55t55.5 -31t73.5 -21.5t74 -26t56.5 -45t21 -78.5z" />
    <glyph glyph-name="uni33A9" unicode="&#x33a9;" 
d="M869 -37l-47 -34q-46 36 -52 96q-22 -46 -59.5 -69.5t-81.5 -23.5q-52 1 -87.5 40t-48 97t-7.5 125.5t27 125t63.5 96t94.5 38.5q41 0 65.5 -20t39.5 -60l1 61h52l-10 -167l-2 -210q0 -26 13 -50t26 -34zM286 227h-108v-289h-61v719h169q64 0 111.5 -32t69.5 -79.5
t22 -103.5t-21 -103.5t-69 -79.5t-113 -32zM668 399q-42 0 -73.5 -41.5t-41.5 -101.5t-7.5 -119.5t27.5 -101.5t65 -43q44 -1 74 41t38.5 102t4 120t-28 102t-58.5 42zM279 603h-101v-323h101q57 0 96 33.5t48.5 80.5t0.5 94.5t-48 81t-97 33.5z" />
    <glyph glyph-name="uni33AA" unicode="&#x33aa;" 
d="M926 -31l-37 -37q-36 25 -44 83q-32 -81 -106 -76q-43 3 -70 46t-29.5 102.5t10 117.5t50 96.5t88.5 34.5q56 -5 71 -76l1 56h45l-11 -138l-7 -128q-1 -24 8.5 -44.5t20.5 -28.5zM479 105h-59v-166h-54v511h111q55 0 95.5 -25.5t58 -64t17 -83t-18.5 -83t-57.5 -64
t-92.5 -25.5zM359 -62h-59l-151 251l-45 -62v-189h-55v511h55v-238l167 238h58l-145 -212zM785 289q-39 4 -64 -40.5t-29.5 -100.5t10 -105t46.5 -52q31 -3 53.5 25.5t30.5 72t7.5 87.5t-15.5 77t-39 36zM477 402h-57v-248h55q44 0 75 25.5t39.5 62t2 73t-37 62t-77.5 25.5z
" />
    <glyph glyph-name="uni33AB" unicode="&#x33ab;" 
d="M931 -35l-38 -36q-34 23 -43 86q-17 -42 -38 -61.5t-61 -15.5q-41 4 -65.5 47.5t-26 102.5t11 117t48 96t82.5 34q16 -1 28 -8t19 -19.5t10 -22t7 -25.5l1 55h44l-10 -137l-9 -129q-1 -24 9 -45t20 -30zM519 105h-52v-166h-50v511h100q51 0 87 -25.5t51 -64t14 -83
t-18 -83t-51.5 -64t-80.5 -25.5zM373 -62h-50v403l-87 -403h-59l-87 403v-403h-49v512h74l91 -435l94 435h73v-512zM798 286q-37 5 -61 -39.5t-27.5 -101t9.5 -104.5t40 -51q37 -4 60 40.5t27 100t-8.5 104t-39.5 51.5zM515 404h-48v-252h45q39 0 66.5 26t34.5 63t1.5 74
t-32.5 63t-67 26z" />
    <glyph glyph-name="uni33AC" unicode="&#x33ac;" 
d="M930 -37l-38 -36q-36 24 -43 86q-16 -41 -37.5 -60.5t-61.5 -16.5q-41 4 -65.5 47.5t-26 102.5t11 117t48 96t82.5 34q16 -1 27.5 -7.5t18.5 -19.5t10 -21.5t8 -26.5l1 55h44l-10 -137l-9 -129q-1 -24 9 -45t21 -30zM518 104h-52v-167h-50v512h100q51 0 87 -25.5t51 -64
t14 -83t-18 -83t-51.5 -64t-80.5 -25.5zM371 -57h-50v51q-43 -60 -110 -61q-58 -1 -100 38t-60 97.5t-17 126.5t21.5 127t64 98t101.5 39q41 0 72 -16t46.5 -42t23 -52t7.5 -52h-49q-1 38 -25 73t-77 35q-39 0 -68.5 -31t-43.5 -77.5t-15 -100.5t11.5 -100.5t41.5 -77.5
t69 -31q33 0 56 15t33.5 40t14 45.5t3.5 42.5v25h-83v48h133v-260zM797 284q-37 5 -61 -39.5t-27.5 -101t9.5 -104.5t40 -51q37 -3 60 41.5t27 100t-8.5 103.5t-39.5 51zM514 402h-48v-251h45q49 0 77.5 39t29.5 86.5t-26.5 86.5t-77.5 39z" />
    <glyph glyph-name="uni33DD" unicode="&#x33dd;" 
d="M725 -62q-46 0 -73 28t-46 77v-96h-56v696h56v-296q37 94 119 96q53 1 92.5 -36t57.5 -93t18 -122t-17.5 -122.5t-57 -94t-93.5 -37.5zM515 450l-91 -512h-64l-75 415l-70 -415h-66l-92 512h57l68 -408l68 408h70l70 -408l69 408h56zM724 390q-43 0 -73 -41t-37 -99
t-0.5 -116.5t35.5 -99.5t72 -41q44 -1 74.5 40t37.5 99.5t0.5 117t-36.5 99.5t-73 41z" />
    <glyph glyph-name="uni33D0" unicode="&#x33d0;" 
d="M873 -61h-57v315q0 68 -18 105t-40 35t-40 -39.5t-18 -100.5v-315h-58v315q0 46 -9 78.5t-22.5 46t-29 12t-29 -17t-22.5 -47t-9 -72.5v-315h-56v490h52v-65q12 56 44.5 75t65.5 -4t48 -78q16 49 42 73.5t52.5 20t50 -25.5t38.5 -61.5t15 -88.5v-336zM439 26
q-19 -43 -48.5 -70t-63 -34.5t-71 13t-69.5 68.5q-46 -20 -100 -20l-18 58q44 -2 92 14q-59 142 -46 321.5t89 269.5q42 50 83 49.5t67.5 -40t35.5 -102.5q27 -181 -22.5 -326.5t-122.5 -194.5q28 -46 59.5 -50.5t54.5 20.5t36 65zM325 580q-12 46 -33.5 53.5t-44.5 -21.5
q-49 -69 -65.5 -176t-5 -200t38.5 -152q73 54 108.5 206.5t1.5 289.5z" />
    <glyph glyph-name="uni33D3" unicode="&#x33d3;" 
d="M884 -62h-72l-152 213l-149 -213h-71l183 260l-166 250h70l133 -201l134 201h69l-167 -250zM440 26q-19 -43 -48.5 -70t-63 -34.5t-70.5 13t-69 68.5q-46 -20 -100 -20l-19 58q44 -2 92 14q-58 142 -45 321.5t88 269.5q42 50 83 49.5t67.5 -40t36.5 -102.5
q27 -181 -22.5 -326.5t-122.5 -194.5q28 -46 59 -50.5t54.5 20.5t36.5 65zM326 580q-12 46 -33 53.5t-44 -21.5q-49 -69 -65 -176.5t-5 -200t38 -151.5q73 54 108.5 206.5t0.5 289.5z" />
    <glyph glyph-name="uni33C3" unicode="&#x33c3;" 
d="M840 -192h-53v258q-37 -100 -118 -100q-55 0 -95 37t-56.5 92.5t-16 121t19 121t57.5 93t91 37.5q46 0 72 -28.5t46 -79.5v98h53v-650zM236 -62h-130v719h139q66 0 111.5 -29.5t61.5 -74t14 -91.5t-26.5 -87.5t-63.5 -56.5q49 -16 81 -60.5t35.5 -98t-14.5 -103.5
t-73 -84t-135 -34zM673 416q-36 0 -62.5 -29.5t-39 -73.5t-13 -95t11 -95t38.5 -73.5t65 -29.5q43 0 72 40.5t35.5 99t-0.5 116.5t-36 99t-71 41zM244 606q0 1 1 1.5t-0.5 0.5t-2 0.5t-7.5 0.5h-13.5h-23.5h-34v-272h79q43 0 74 19.5t44.5 49t13.5 64t-14 64t-44.5 50.5
t-72.5 22zM250 289h-86v-300h85q49 0 84.5 22t50.5 55.5t14.5 72.5t-16.5 72.5t-51 55.5t-81 22z" />
    <glyph glyph-name="uni33C9" unicode="&#x33c9;" 
d="M891 460l-193 -567q-9 -25 -18.5 -40t-17.5 -23.5t-26.5 -12t-29.5 -4t-43 -0.5v51h17.5t16 0.5t14 3t12.5 6t10.5 10.5t8.5 17l33 90l-149 469h59l119 -384l128 384h59zM507 451h-59q-5 25 -9.5 42t-16 44t-26 43.5t-39.5 29.5t-56 13q-59 0 -103 -48t-64 -119.5
t-20.5 -155t18 -155t60 -119t98.5 -47.5q45 0 77 20.5t48.5 56.5t23 74t6.5 83v40h-147v52h205v-367h-56v112q-25 -60 -60 -95t-96 -36q-77 -1 -133.5 55.5t-81.5 141t-24 183.5t27.5 184t85 141.5t137.5 56.5q54 0 94 -22.5t62 -60.5t33 -72.5t16 -74.5z" />
    <glyph glyph-name="uni33DC" unicode="&#x33dc;" 
d="M890 460l-193 -567q-8 -25 -18 -40t-17.5 -23.5t-26.5 -12t-30 -4t-43 -0.5v51h17.5t16 0.5t14 3t12.5 6t10.5 10.5t8.5 17l33 90l-148 469h60l117 -383l129 383h58zM506 118q-3 -63 -38 -110.5t-84.5 -70t-106.5 -21t-104.5 27t-78 84t-27.5 140.5h61q0 -65 22 -111
t56 -65.5t74 -21t75.5 14.5t61 49.5t29.5 76.5q4 47 -13 79.5t-47.5 49.5t-68.5 30.5t-77 28.5t-71.5 35.5t-53 59t-20.5 93.5q0 54 22.5 97t58.5 64t79 30.5t86 -3t77.5 -37.5t55 -73t17.5 -108h-60q1 53 -18.5 92t-50.5 57t-67 20t-67 -12.5t-52 -48t-21 -79.5
q0 -49 27 -82t67 -49t86.5 -35t85.5 -38.5t63.5 -61.5t21.5 -102z" />
    <glyph glyph-name="uni33C6" unicode="&#x33c6;" 
d="M855 -36q0 -43 -29.5 -70.5t-65.5 -31.5t-68 17.5t-37 66.5h44q3 -35 32 -45.5t56.5 8.5t27.5 58v37q-22 -50 -67 -50q-38 0 -62.5 24.5t-29.5 60t2 70.5t31.5 60t58.5 25q47 0 67 -49v43h40v-224zM820 678l-737 -743l-29 24l740 741zM375 440q-3 -38 -25 -67t-52 -42.5
t-64.5 -11.5t-63.5 20t-48.5 59.5t-19.5 98.5q0 59 20.5 101t51.5 60t67 19.5t66.5 -13.5t50 -46t17.5 -71h-47q0 34 -18 58t-44 28.5t-52 -5t-44 -44t-18 -86.5q0 -43 12.5 -73.5t31 -44t40.5 -16t41.5 6t33 27t15.5 42.5h49zM645 -62h-50l-85 116l-30 -29v-87h-41v337h41
v-199l101 99h51l-94 -96zM748 160q-25 0 -39.5 -27t-15 -59.5t14 -59.5t41.5 -27q28 0 43.5 27t15.5 59.5t-16 59.5t-44 27z" />
    <glyph glyph-name="AE" unicode="&#xc6;" 
d="M888 -62h-262l-80 197h-359l-80 -197h-73l292 724h552v-61h-446l104 -256h323v-62h-299l115 -284h213v-61zM522 197q1 0 -77 191l-78 192l-155 -383h310z" />
    <glyph glyph-name="Eth" unicode="&#xd0;" 
d="M500 -62h-251v259h-160v51h160v414h251q81 0 147 -31t106 -82t62 -116t22 -133t-22 -133t-62 -116t-106 -82t-147 -31zM485 601h-166v-353h259v-51h-259v-198h166q65 0 118.5 26t86.5 68t51 96.5t18.5 110.5t-17 110.5t-50.5 96.5t-86.5 68t-120.5 26z" />
    <glyph glyph-name="ordfeminine" unicode="&#xaa;" 
d="M701 122h-69q-14 25 -14 76q-30 -35 -82 -62t-111 -30q-55 -3 -97.5 13t-64 43t-27.5 61t4.5 66.5t39.5 60.5t71 41q31 10 106 18t118 23.5t43 51.5q0 41 -31 69t-75 34t-87.5 -1t-73 -35.5t-26.5 -70.5h-68q-3 51 27.5 90t78 57t104 19t105 -15.5t81 -56t32.5 -93.5
v-279q0 -26 8 -53zM772 -62h-582v53h582v-53zM618 301v96q-32 -24 -133 -39.5t-126 -28.5q-46 -23 -54.5 -65.5t27.5 -74t102 -25.5q70 6 127 49t57 88z" />
    <glyph glyph-name="Hbar" unicode="&#x126;" 
d="M859 488h-114v-550h-71v350h-399v-350h-71v550h-115v52h115v122h71v-122h399v122h71v-122h114v-52zM674 350v138h-399v-138h399z" />
    <glyph glyph-name="IJ" unicode="&#x132;" 
d="M768 108q0 -61 -30 -105.5t-75 -64.5t-97 -20t-97 20t-75 64.5t-30 105.5v60h71v-54q0 -50 27 -84t65.5 -42t77.5 0t66 42t27 84v543h70v-549zM256 -67h-72v724h72v-724z" />
    <glyph glyph-name="Ldot" unicode="&#x13f;" 
d="M660 191q-32 0 -44.5 25t0.5 50t44 25t44.5 -25t0.5 -50t-45 -25zM721 -62h-489v724h72v-663h417v-61z" />
    <glyph glyph-name="Lslash" unicode="&#x141;" 
d="M721 -62h-489v333l-90 -76l-34 40l124 104v323h72v-263l107 90l34 -40l-141 -118v-332h417v-61z" />
    <glyph glyph-name="Oslash" unicode="&#xd8;" 
d="M808 721q-101 -145 -102 -146q54 -61 78.5 -147t13.5 -172.5t-47.5 -162t-109.5 -123t-167 -47.5q-103 0 -185 56l-99 -141l-44 31q84 118 102 146q-47 50 -73 120.5t-29 143t17.5 144.5t60 128t105 91t145.5 35q112 0 193 -64l97 139zM664 515l-336 -479q64 -51 146 -51
q74 0 129.5 38.5t82.5 99t35 131t-7.5 140.5t-49.5 121zM627 557q-64 58 -153 58q-74 0 -130.5 -39.5t-84 -102.5t-35 -135t10 -143t56.5 -120z" />
    <glyph glyph-name="OE" unicode="&#x152;" 
d="M886 -77h-546q-93 0 -161 56t-98.5 139.5t-30 181.5t32 181.5t101 139.5t163.5 56h530v-61h-361q114 -92 125 -278h217v-62h-216q-4 -96 -37 -172t-89 -120h370v-61zM347 615q-71 0 -123 -46.5t-75.5 -116.5t-23.5 -152t23.5 -152t75.5 -116.5t123 -46.5t123 46.5
t75.5 116.5t23.5 152t-23.5 152t-75.5 116.5t-123 46.5z" />
    <glyph glyph-name="ordmasculine" unicode="&#xba;" 
d="M472 109q-75 0 -130.5 40t-80.5 100t-25 130t25 130t81 100t132 40t131.5 -40t80 -100t24 -130t-25.5 -130t-81 -100t-131 -40zM772 -62h-583v53h583v-53zM475 592q-54 0 -93 -31.5t-57 -78.5t-18.5 -102.5t17.5 -102.5t57 -78.5t93 -31.5t93 31.5t56.5 78.5t17.5 102.5
t-17.5 102.5t-56.5 78.5t-92 31.5z" />
    <glyph glyph-name="Thorn" unicode="&#xde;" 
d="M732 267q0 -106 -50.5 -179t-119.5 -96t-142.5 -4t-117.5 82v-137h-71v734h71v-207q27 42 70.5 66.5t91 28.5t95.5 -13t86.5 -51.5t62.5 -92.5t24 -131zM651 267q0 62 -19 110t-49.5 73t-67.5 37t-74 0t-67.5 -36.5t-49.5 -73t-19 -110.5t19 -110.5t49.5 -73t67.5 -36.5
t74 0t67.5 37t49.5 73t19 110z" />
    <glyph glyph-name="Tbar" unicode="&#x166;" 
d="M761 309h-251v-376h-72v376h-251v52h251v240h-251v61h574v-61h-251v-240h251v-52z" />
    <glyph glyph-name="Eng" unicode="&#x14a;" 
d="M450 -85v63q59 5 101.5 40.5t61 84.5t17.5 105.5t-20 104.5t-59.5 79.5t-94.5 31.5q-78 0 -121.5 -62t-43.5 -156v-207h-71v668h71v-266q26 40 71 63.5t100 23.5q76 0 133 -41.5t84 -103.5t28 -135t-25 -136.5t-86.5 -108t-145.5 -48.5z" />
    <glyph glyph-name="uni3260" unicode="&#x3260;" 
d="M236 466v57h443v-117q0 -89 -24 -192.5t-60 -165.5h-68q38 72 63 164.5t25 176.5v77h-379zM474 -138q203 0 307 115.5t104 323.5t-104 323t-307 115q-204 0 -309 -115.5t-105 -323.5t104.5 -323t309.5 -115zM474 -186q-230 0 -346.5 129.5t-116.5 357.5
q0 227 116.5 356.5t346.5 129.5q229 0 345.5 -129.5t116.5 -356.5t-116.5 -357t-345.5 -130z" />
    <glyph glyph-name="uni3261" unicode="&#x3261;" 
d="M281 83v450h64v-393q255 -7 424 86v-59q-161 -84 -389 -84h-99zM474 -138q203 0 307 115.5t104 323.5t-104 323t-307 115q-204 0 -309 -115.5t-105 -323.5t104.5 -323t309.5 -115zM474 -186q-230 0 -346.5 129.5t-116.5 357.5q0 227 116.5 356.5t346.5 129.5
q229 0 345.5 -129.5t116.5 -356.5t-116.5 -357t-345.5 -130z" />
    <glyph glyph-name="uni3262" unicode="&#x3262;" 
d="M241 74v461h455v-56h-392v-348q279 -2 442 70v-58q-153 -69 -414 -69h-91zM474 -138q203 0 307 115.5t104 323.5t-104 323t-307 115q-204 0 -309 -115.5t-105 -323.5t104.5 -323t309.5 -115zM474 -186q-230 0 -346.5 129.5t-116.5 357.5q0 227 116.5 356.5t346.5 129.5
q229 0 345.5 -129.5t116.5 -356.5t-116.5 -357t-345.5 -130z" />
    <glyph glyph-name="uni3263" unicode="&#x3263;" 
d="M703 295h-400v-183h62q246 4 388 64v-57q-158 -63 -414 -63h-100v294h400v146h-399v55h463v-256zM474 -138q203 0 307 115.5t104 323.5t-104 323t-307 115q-204 0 -309 -115.5t-105 -323.5t104.5 -323t309.5 -115zM474 -186q-230 0 -346.5 129.5t-116.5 357.5
q0 227 116.5 356.5t346.5 129.5q229 0 345.5 -129.5t116.5 -356.5t-116.5 -357t-345.5 -130z" />
    <glyph glyph-name="uni3264" unicode="&#x3264;" 
d="M474 -186q-230 0 -346.5 129.5t-116.5 357.5q0 227 116.5 356.5t346.5 129.5q229 0 345.5 -129.5t116.5 -356.5t-116.5 -357t-345.5 -130zM474 -138q203 0 307 115.5t104 323.5t-104 323t-307 115q-204 0 -309 -115.5t-105 -323.5t104.5 -323t309.5 -115zM239 73v462h467
v-479h-63v102q-58 -35 -152 -60t-184 -25h-68zM302 130h31q80 1 168 26t142 59v265h-341v-350z" />
    <glyph glyph-name="uni3265" unicode="&#x3265;" 
d="M474 -186q-230 0 -346.5 129.5t-116.5 357.5q0 227 116.5 356.5t346.5 129.5q229 0 345.5 -129.5t116.5 -356.5t-116.5 -357t-345.5 -130zM474 -138q203 0 307 115.5t104 323.5t-104 323t-307 115q-204 0 -309 -115.5t-105 -323.5t104.5 -323t309.5 -115zM239 71v471h63
v-156h341v156h63v-486h-63v101q-58 -35 -152.5 -60.5t-183.5 -25.5h-68zM302 129h31q80 0 168 25.5t142 59.5v118h-341v-203z" />
    <glyph glyph-name="uni3266" unicode="&#x3266;" 
d="M268 66h-74l247 337v170h63v-169l248 -334h-73l-206 272zM474 -138q203 0 307 115.5t104 323.5t-104 323t-307 115q-204 0 -309 -115.5t-105 -323.5t104.5 -323t309.5 -115zM474 -186q-230 0 -346.5 129.5t-116.5 357.5q0 227 116.5 356.5t346.5 129.5
q229 0 345.5 -129.5t116.5 -356.5t-116.5 -357t-345.5 -130z" />
    <glyph glyph-name="uni3267" unicode="&#x3267;" 
d="M710 390v-183q0 -79 -69.5 -125.5t-166.5 -46.5t-167.5 46.5t-70.5 125.5v183q0 79 70.5 125.5t167.5 46.5t166.5 -46.5t69.5 -125.5zM646 228v141q0 51 -28 83.5t-64 43.5t-80 11q-45 0 -81.5 -11t-64.5 -43.5t-28 -83.5v-141q0 -73 51.5 -105.5t122.5 -32.5
q69 0 120.5 33t51.5 105zM474 -138q203 0 307 115.5t104 323.5t-104 323t-307 115q-204 0 -309 -115.5t-105 -323.5t104.5 -323t309.5 -115zM474 -186q-230 0 -346.5 129.5t-116.5 357.5q0 227 116.5 356.5t346.5 129.5q229 0 345.5 -129.5t116.5 -356.5t-116.5 -357
t-345.5 -130z" />
    <glyph glyph-name="uni3268" unicode="&#x3268;" 
d="M232 479v56h482v-56h-209v-135l242 -294h-72l-202 237l-200 -241h-74l242 298v135h-209zM474 -138q203 0 307 115.5t104 323.5t-104 323t-307 115q-204 0 -309 -115.5t-105 -323.5t104.5 -323t309.5 -115zM474 -186q-230 0 -346.5 129.5t-116.5 357.5q0 227 116.5 356.5
t346.5 129.5q229 0 345.5 -129.5t116.5 -356.5t-116.5 -357t-345.5 -130z" />
    <glyph glyph-name="uni3269" unicode="&#x3269;" 
d="M220 402v53h506v-53h-221v-112l235 -259h-74l-193 211l-191 -215h-76l235 262v113h-221zM320 556v51h303v-51h-303zM474 -138q203 0 307 115.5t104 323.5t-104 323t-307 115q-204 0 -309 -115.5t-105 -323.5t104.5 -323t309.5 -115zM474 -186q-230 0 -346.5 129.5
t-116.5 357.5q0 227 116.5 356.5t346.5 129.5q229 0 345.5 -129.5t116.5 -356.5t-116.5 -357t-345.5 -130z" />
    <glyph glyph-name="uni326A" unicode="&#x326a;" 
d="M235 269v55h398q5 52 5 85v71h-404v55h466v-123q0 -99 -21 -212t-53 -166h-64q51 98 68 235h-395zM474 -138q203 0 307 115.5t104 323.5t-104 323t-307 115q-204 0 -309 -115.5t-105 -323.5t104.5 -323t309.5 -115zM474 -186q-230 0 -346.5 129.5t-116.5 357.5
q0 227 116.5 356.5t346.5 129.5q229 0 345.5 -129.5t116.5 -356.5t-116.5 -357t-345.5 -130z" />
    <glyph glyph-name="uni326B" unicode="&#x326b;" 
d="M239 56v493h466v-54h-403v-150h404v-54h-404v-178h55q245 4 391 68v-57q-152 -68 -417 -68h-92zM474 -138q203 0 307 115.5t104 323.5t-104 323t-307 115q-204 0 -309 -115.5t-105 -323.5t104.5 -323t309.5 -115zM474 -186q-230 0 -346.5 129.5t-116.5 357.5
q0 227 116.5 356.5t346.5 129.5q229 0 345.5 -129.5t116.5 -356.5t-116.5 -357t-345.5 -130z" />
    <glyph glyph-name="uni326C" unicode="&#x326c;" 
d="M195 66v55h113l-23 307h63l23 -307q92 0 183 13l19 294h64l-20 -290q71 11 137 33v-57q-161 -48 -417 -48h-142zM209 481v55h510v-55h-510zM474 -138q203 0 307 115.5t104 323.5t-104 323t-307 115q-204 0 -309 -115.5t-105 -323.5t104.5 -323t309.5 -115zM474 -186
q-230 0 -346.5 129.5t-116.5 357.5q0 227 116.5 356.5t346.5 129.5q229 0 345.5 -129.5t116.5 -356.5t-116.5 -357t-345.5 -130z" />
    <glyph glyph-name="uni326D" unicode="&#x326d;" 
d="M547 29h-146q-65 0 -108.5 38t-43.5 109q0 69 44 109t108 40h146q65 0 108.5 -39.5t43.5 -109.5t-43.5 -108.5t-108.5 -38.5zM402 79h145q42 0 66.5 28t24.5 69q0 43 -24 70.5t-67 27.5h-145q-42 0 -66.5 -27.5t-24.5 -70.5q0 -41 25 -69.5t66 -27.5zM201 408v51h543v-51
h-543zM320 554v51h303v-51h-303zM474 -138q203 0 307 115.5t104 323.5t-104 323t-307 115q-204 0 -309 -115.5t-105 -323.5t104.5 -323t309.5 -115zM474 -186q-230 0 -346.5 129.5t-116.5 357.5q0 227 116.5 356.5t346.5 129.5q229 0 345.5 -129.5t116.5 -356.5t-116.5 -357
t-345.5 -130z" />
    <glyph glyph-name="uni326E" unicode="&#x326e;" 
d="M179 573v51h345v-164q0 -136 -62 -258t-161 -207h-77q98 80 170 201.5t72 245.5v131h-287zM720 -38h-57v671h57v-260h114v-50h-114v-361zM474 -138q203 0 307 115.5t104 323.5t-104 323t-307 115q-204 0 -309 -115.5t-105 -323.5t104.5 -323t309.5 -115zM474 -186
q-230 0 -346.5 129.5t-116.5 357.5q0 227 116.5 356.5t346.5 129.5q229 0 345.5 -129.5t116.5 -356.5t-116.5 -357t-345.5 -130z" />
    <glyph glyph-name="uni326F" unicode="&#x326f;" 
d="M200 15v609h58v-558q81 -2 189 16.5t170 48.5v-53q-53 -25 -159 -44t-181 -19h-77zM731 -37h-56v672h56v-261h113v-50h-113v-361zM474 -138q203 0 307 115.5t104 323.5t-104 323t-307 115q-204 0 -309 -115.5t-105 -323.5t104.5 -323t309.5 -115zM474 -186
q-230 0 -346.5 129.5t-116.5 357.5q0 227 116.5 356.5t346.5 129.5q229 0 345.5 -129.5t116.5 -356.5t-116.5 -357t-345.5 -130z" />
    <glyph glyph-name="uni3270" unicode="&#x3270;" 
d="M197 14v612h355v-52h-298v-509q84 -1 193 17.5t170 48.5v-54q-53 -25 -160 -44t-183 -19h-77zM731 -37h-57v672h57v-260h113v-50h-113v-362zM474 -138q203 0 307 115.5t104 323.5t-104 323t-307 115q-204 0 -309 -115.5t-105 -323.5t104.5 -323t309.5 -115zM474 -186
q-230 0 -346.5 129.5t-116.5 357.5q0 227 116.5 356.5t346.5 129.5q229 0 345.5 -129.5t116.5 -356.5t-116.5 -357t-345.5 -130z" />
    <glyph glyph-name="uni3271" unicode="&#x3271;" 
d="M188 576v50h339v-309h-282v-259q82 -3 193.5 16t175.5 50v-54q-53 -25 -160 -44t-183 -19h-83v360h282v209h-282zM730 -37h-58v672h58v-261h113v-50h-113v-361zM474 -138q203 0 307 115.5t104 323.5t-104 323t-307 115q-204 0 -309 -115.5t-105 -323.5t104.5 -323
t309.5 -115zM474 -186q-230 0 -346.5 129.5t-116.5 357.5q0 227 116.5 356.5t346.5 129.5q229 0 345.5 -129.5t116.5 -356.5t-116.5 -357t-345.5 -130z" />
    <glyph glyph-name="uni3272" unicode="&#x3272;" 
d="M189 10v616h363v-627h-57v70q-46 -24 -117 -41.5t-136 -17.5h-53zM246 61h20q56 1 121.5 19t107.5 43v453h-249v-515zM730 -37h-57v672h57v-262h113v-50h-113v-360zM474 -138q203 0 307 115.5t104 323.5t-104 323t-307 115q-204 0 -309 -115.5t-105 -323.5t104.5 -323
t309.5 -115zM474 -186q-230 0 -346.5 129.5t-116.5 357.5q0 227 116.5 356.5t346.5 129.5q229 0 345.5 -129.5t116.5 -356.5t-116.5 -357t-345.5 -130z" />
    <glyph glyph-name="uni3273" unicode="&#x3273;" 
d="M189 10v619h57v-233h249v233h57v-630h-57v70q-45 -24 -117 -41.5t-136 -17.5h-53zM246 61h20q57 1 122.5 19t106.5 43v223h-249v-285zM730 -37h-57v672h57v-262h113v-50h-113v-360zM474 -138q203 0 307 115.5t104 323.5t-104 323t-307 115q-204 0 -309 -115.5
t-105 -323.5t104.5 -323t309.5 -115zM474 -186q-230 0 -346.5 129.5t-116.5 357.5q0 227 116.5 356.5t346.5 129.5q229 0 345.5 -129.5t116.5 -356.5t-116.5 -357t-345.5 -130z" />
    <glyph glyph-name="uni3274" unicode="&#x3274;" 
d="M210 0h-62l187 393v239h59v-239l191 -393h-61l-159 321zM724 -37h-57v672h57v-260h113v-50h-113v-362zM474 -138q203 0 307 115.5t104 323.5t-104 323t-307 115q-204 0 -309 -115.5t-105 -323.5t104.5 -323t309.5 -115zM474 -186q-230 0 -346.5 129.5t-116.5 357.5
q0 227 116.5 356.5t346.5 129.5q229 0 345.5 -129.5t116.5 -356.5t-116.5 -357t-345.5 -130z" />
    <glyph glyph-name="uni3275" unicode="&#x3275;" 
d="M545 518v-389q0 -59 -54.5 -94.5t-123.5 -35.5q-70 0 -124.5 35.5t-54.5 94.5v389q0 58 55 93.5t124 35.5t123.5 -35.5t54.5 -93.5zM729 -35h-57v672h57v-260h113v-50h-113v-362zM488 142v362q0 49 -38 71.5t-83 22.5q-47 0 -84.5 -22.5t-37.5 -71.5v-362
q0 -49 37.5 -71.5t84.5 -22.5q45 0 83 22.5t38 71.5zM474 -138q203 0 307 115.5t104 323.5t-104 323t-307 115q-204 0 -309 -115.5t-105 -323.5t104.5 -323t309.5 -115zM474 -186q-230 0 -346.5 129.5t-116.5 357.5q0 227 116.5 356.5t346.5 129.5q229 0 345.5 -129.5
t116.5 -356.5t-116.5 -357t-345.5 -130z" />
    <glyph glyph-name="uni3276" unicode="&#x3276;" 
d="M178 576v50h399v-50h-176v-199l186 -377h-62l-153 306l-150 -306h-62l184 376v200h-166zM726 -37h-57v672h57v-260h113v-49h-113v-363zM474 -138q203 0 307 115.5t104 323.5t-104 323t-307 115q-204 0 -309 -115.5t-105 -323.5t104.5 -323t309.5 -115zM474 -186
q-230 0 -346.5 129.5t-116.5 357.5q0 227 116.5 356.5t346.5 129.5q229 0 345.5 -129.5t116.5 -356.5t-116.5 -357t-345.5 -130z" />
    <glyph glyph-name="uni3277" unicode="&#x3277;" 
d="M175 439v49h413v-49h-182v-140l188 -299h-61l-156 243l-150 -243h-63l185 298v141h-174zM726 -36h-56v671h56v-284h113v-50h-113v-337zM236 587v49h292v-49h-292zM474 -138q203 0 307 115.5t104 323.5t-104 323t-307 115q-204 0 -309 -115.5t-105 -323.5t104.5 -323
t309.5 -115zM474 -186q-230 0 -346.5 129.5t-116.5 357.5q0 227 116.5 356.5t346.5 129.5q229 0 345.5 -129.5t116.5 -356.5t-116.5 -357t-345.5 -130z" />
    <glyph glyph-name="uni3278" unicode="&#x3278;" 
d="M191 319v52h282q8 40 8 93v109h-290v52h347v-165q0 -147 -64.5 -268t-152.5 -197h-78q69 54 130.5 142.5t89.5 181.5h-272zM730 -37h-57v672h57v-262h113v-50h-113v-360zM474 -138q203 0 307 115.5t104 323.5t-104 323t-307 115q-204 0 -309 -115.5t-105 -323.5
t104.5 -323t309.5 -115zM474 -186q-230 0 -346.5 129.5t-116.5 357.5q0 227 116.5 356.5t346.5 129.5q229 0 345.5 -129.5t116.5 -356.5t-116.5 -357t-345.5 -130z" />
    <glyph glyph-name="uni3279" unicode="&#x3279;" 
d="M197 10v616h355v-50h-296v-203h293v-51h-293v-261q76 -2 187.5 17t173.5 49v-54q-52 -25 -159.5 -44t-183.5 -19h-77zM731 -37h-57v672h57v-260h113v-50h-113v-362zM474 -138q203 0 307 115.5t104 323.5t-104 323t-307 115q-204 0 -309 -115.5t-105 -323.5t104.5 -323
t309.5 -115zM474 -186q-230 0 -346.5 129.5t-116.5 357.5q0 227 116.5 356.5t346.5 129.5q229 0 345.5 -129.5t116.5 -356.5t-116.5 -357t-345.5 -130z" />
    <glyph glyph-name="uni327A" unicode="&#x327a;" 
d="M169 10v51h80l-16 456h56l17 -455q66 2 147 17l16 438h56l-15 -428q82 16 128 41v-55q-52 -26 -166.5 -45.5t-197.5 -19.5h-105zM736 -37h-57v672h57v-263h110v-49h-110v-360zM180 576v50h403v-50h-403zM474 -138q203 0 307 115.5t104 323.5t-104 323t-307 115
q-204 0 -309 -115.5t-105 -323.5t104.5 -323t309.5 -115zM474 -186q-230 0 -346.5 129.5t-116.5 357.5q0 227 116.5 356.5t346.5 129.5q229 0 345.5 -129.5t116.5 -356.5t-116.5 -357t-345.5 -130z" />
    </font>
</defs>
</svg>
