<?xml version="1.0" standalone="no"?>
<!DOCTYPE svg PUBLIC "-//W3C//DTD SVG 1.1//EN" "http://www.w3.org/Graphics/SVG/1.1/DTD/svg11.dtd" >
<svg xmlns="http://www.w3.org/2000/svg" xmlns:xlink="http://www.w3.org/1999/xlink" version="1.1">
<metadata>
Created by FontForge 20190801 at Wed Aug 19 10:20:54 2015
 By Jimmy Wärting
Copyright (c) 1992-2015 AsiaSoft Inc. Seoul Korea All Rights Reserved. http://www.asiasoft.co.kr
</metadata>
<defs>
<font id="KoreanYNSJG5-R" horiz-adv-x="948" >
  <font-face 
    font-family="KoreanYNSJG5R"
    font-weight="400"
    font-stretch="normal"
    units-per-em="1000"
    panose-1="2 2 6 0 0 0 0 0 0 0"
    ascent="800"
    descent="-200"
    x-height="568"
    cap-height="668"
    bbox="-236 -249 993 834"
    underline-thickness="0"
    underline-position="0"
    unicode-range="U+0020-FFE6"
  />
<missing-glyph 
 />
    <glyph glyph-name=".notdef" 
 />
    <glyph glyph-name="glyph1" horiz-adv-x="0" 
 />
    <glyph glyph-name="glyph2" horiz-adv-x="333" 
 />
    <glyph glyph-name="space" unicode=" " horiz-adv-x="316" 
 />
    <glyph glyph-name="exclam" unicode="!" horiz-adv-x="352" 
d="M254 114h-158l-16 665h190zM65 -63q0 46 32 78t78 32t78 -32t32 -78t-32 -77.5t-78 -31.5t-78 31.5t-32 77.5z" />
    <glyph glyph-name="quotedbl" unicode="&#x22;" horiz-adv-x="445" 
d="M395 800l-20 -267h-123l-17 267h160zM210 800l-19 -267h-123l-18 267h160z" />
    <glyph glyph-name="numbersign" unicode="#" horiz-adv-x="868" 
d="M590 87l-66 -228h-170l66 228h-114l-66 -228h-170l66 228h-106v134h145l64 217h-155v135h194l55 185h170l-55 -185h114l55 185h170l-55 -185h106v-135h-145l-64 -217h155v-134h-194zM409 438l-64 -217h114l64 217h-114z" />
    <glyph glyph-name="dollar" unicode="$" horiz-adv-x="618" 
d="M374 -195h-113v71q-99 9 -165 57t-66 142v46h164v-32q0 -61 67 -77v260l-61 28q-24 9 -53 23.5t-53.5 30.5t-41.5 43.5t-17 61.5v93q0 60 36.5 102t84 60t105.5 24v62h113v-64q87 -14 145.5 -60t58.5 -120v-45h-164v18q0 50 -40 69v-213l45 -23q31 -14 61.5 -30.5
t54.5 -33.5t38.5 -43t14.5 -59v-129q0 -78 -57 -127t-157 -62v-73zM424 91v57q0 29 -12.5 44.5t-37.5 27.5v-202q50 24 50 73zM198 531v-17q0 -26 15 -40.5t48 -31.5v163q-63 -13 -63 -74z" />
    <glyph glyph-name="percent" unicode="%" horiz-adv-x="957" 
d="M418 596v-124q0 -96 -47 -138t-148 -42q-98 0 -144.5 42.5t-46.5 137.5v124q0 95 46.5 137.5t146.5 42.5t146.5 -42.5t46.5 -137.5zM750 769l-384 -923h-164l384 923h164zM269 470v128q0 30 -10 42.5t-36 12.5q-24 0 -33.5 -12.5t-9.5 -42.5v-128q0 -30 9.5 -42.5
t33.5 -12.5q26 0 36 12.5t10 42.5zM915 136v-124q0 -96 -47 -138t-148 -42q-98 0 -144.5 42.5t-46.5 137.5v124q0 95 46.5 137.5t146.5 42.5t146.5 -42.5t46.5 -137.5zM766 10v128q0 30 -10 42.5t-36 12.5q-24 0 -33.5 -12.5t-9.5 -42.5v-128q0 -30 9.5 -42.5t33.5 -12.5
q26 0 36 12.5t10 42.5z" />
    <glyph glyph-name="ampersand" unicode="&#x26;" horiz-adv-x="811" 
d="M806 -138h-197l-49 65q-105 -75 -237 -75q-133 0 -210.5 67.5t-77.5 192.5q0 72 44.5 132.5t134.5 131.5q-37 46 -66 100t-29 90q0 52 15 91t38 61.5t57.5 36t67 18t73.5 4.5q94 0 157.5 -50.5t61.5 -160.5q0 -117 -147 -222l142 -199q34 39 40 84h170
q-15 -67 -45.5 -121t-64.5 -85zM466 42l-160 219q-40 -35 -58.5 -53t-34 -45t-15.5 -55q0 -118 130 -118q82 0 138 52zM427 566q0 79 -67 79q-73 0 -73 -79q0 -13 18.5 -45.5t44.5 -64.5q77 60 77 110z" />
    <glyph glyph-name="quotesingle" unicode="'" horiz-adv-x="330" 
d="M251 800l-20 -267h-135l-17 267h172z" />
    <glyph glyph-name="parenleft" unicode="(" horiz-adv-x="362" 
d="M322 -181h-145q-54 88 -80.5 222.5t-26.5 258.5q0 122 26.5 258t77.5 226h148q-43 -80 -66 -214.5t-23 -262.5t23.5 -266.5t65.5 -221.5z" />
    <glyph glyph-name="parenright" unicode=")" horiz-adv-x="362" 
d="M292 300q0 -124 -26.5 -258.5t-80.5 -222.5h-145q42 83 65.5 221.5t23.5 266.5t-23 262.5t-66 214.5h148q51 -90 77.5 -226t26.5 -258z" />
    <glyph glyph-name="asterisk" unicode="*" horiz-adv-x="600" 
d="M35 627l74 123l118 -75l-4 119h148l-2 -118l124 74l69 -124l-140 -72l143 -73l-74 -118l-124 74l4 -130h-148l4 127l-116 -72l-76 119l141 74z" />
    <glyph glyph-name="plus" unicode="+" horiz-adv-x="600" 
d="M381 81h-167v180h-157v137h157v170h167v-170h161v-137h-161v-180z" />
    <glyph glyph-name="comma" unicode="," horiz-adv-x="330" 
d="M249 -7q8 -117 -122 -213l-81 27q57 44 61 87q-30 5 -49.5 28.5t-22.5 62.5q-3 35 22.5 66.5t65.5 39.5q51 11 87 -21t39 -77z" />
    <glyph glyph-name="hyphen" unicode="-" horiz-adv-x="600" 
d="M517 259h-435v141h435v-141z" />
    <glyph glyph-name="period" unicode="." horiz-adv-x="330" 
d="M40 -59q0 46 32.5 79.5t77.5 33.5t77.5 -33.5t32.5 -79.5t-32.5 -79.5t-77.5 -33.5t-77.5 33.5t-32.5 79.5z" />
    <glyph glyph-name="slash" unicode="/" horiz-adv-x="600" 
d="M549 770l-333 -924h-166l333 924h166z" />
    <glyph glyph-name="zero" unicode="0" horiz-adv-x="630" 
d="M582 597v-579q0 -62 -45 -106.5t-104 -62.5t-119 -18t-118.5 18t-103.5 62.5t-45 106.5v579q0 62 45 106.5t103.5 62.5t118.5 18q61 0 119.5 -18t103.5 -62.5t45 -106.5zM415 54v507q0 89 -101 89q-100 0 -100 -89v-507q0 -89 100 -89q101 0 101 89z" />
    <glyph glyph-name="one" unicode="1" horiz-adv-x="630" 
d="M444 -154h-170v730l-156 -79l-62 121l253 152h135v-924z" />
    <glyph glyph-name="two" unicode="2" horiz-adv-x="630" 
d="M595 -154h-522v146l300 394q41 55 41 120v51q0 39 -27 66.5t-82 27.5q-53 0 -79.5 -28.5t-26.5 -67.5v-99h-160v97q0 102 75.5 167t190.5 65q119 0 194.5 -58t75.5 -167v-74q0 -91 -57 -165l-257 -338h334v-137z" />
    <glyph glyph-name="three" unicode="3" horiz-adv-x="630" 
d="M203 532h-162q5 129 74.5 192t191.5 61q119 0 188.5 -58.5t69.5 -150.5v-66q0 -91 -84 -163q51 -29 80.5 -80t29.5 -104v-73q0 -116 -75 -187.5t-228 -71.5q-116 0 -187 66.5t-72 193.5h161q1 -65 26.5 -93t76.5 -28q132 0 132 124v75q0 44 -32.5 75.5t-88.5 31.5h-67
v135h56q58 0 82.5 34t24.5 81v30q0 44 -25.5 69t-77.5 25q-94 0 -94 -118z" />
    <glyph glyph-name="four" unicode="4" horiz-adv-x="630" 
d="M26 134l334 641h166v-634h85v-137h-85v-158h-154v158h-346v130zM194 141h178v378z" />
    <glyph glyph-name="five" unicode="5" horiz-adv-x="630" 
d="M579 254v-190q0 -101 -80 -167t-199 -66q-110 0 -178 62.5t-77 186.5h159q6 -59 29 -85.5t68 -26.5q51 0 82 27.5t31 81.5v155q0 50 -30.5 78t-74.5 28q-37 0 -61 -20t-31 -51h-163l66 503h445v-137h-304l-24 -185q38 23 82 25q109 5 184.5 -52.5t75.5 -166.5z" />
    <glyph glyph-name="six" unicode="6" horiz-adv-x="630" 
d="M587 271v-222q0 -95 -77.5 -156.5t-195.5 -61.5q-120 0 -195.5 62.5t-75.5 152.5v218q0 42 13.5 89.5t29.5 76.5l182 339h181l-154 -293q22 9 61 9q94 0 162.5 -61.5t68.5 -152.5zM421 58v213q0 29 -30 55t-77 26q-45 0 -75 -28.5t-30 -57.5v-210q0 -35 29 -63.5
t76 -28.5t77 29t30 65z" />
    <glyph glyph-name="seven" unicode="7" horiz-adv-x="630" 
d="M587 631l-255 -785h-184l270 787h-376v137h545v-139z" />
    <glyph glyph-name="eight" unicode="8" horiz-adv-x="630" 
d="M312 -169q-132 0 -208 67.5t-76 184.5v73q0 55 28 108.5t76 82.5q-35 32 -57.5 75.5t-22.5 85.5v47q0 104 70 167t190 63q123 0 194.5 -63t71.5 -167v-47q0 -42 -23 -85.5t-58 -75.5q49 -29 77 -82.5t28 -108.5v-73q0 -117 -78 -184.5t-212 -67.5zM312 280
q-57 1 -89.5 -30t-32.5 -83v-86q0 -57 31.5 -87.5t90.5 -30.5q62 0 94.5 30.5t32.5 87.5v86q0 50 -33.5 81.5t-93.5 31.5zM312 652q-48 0 -73 -29t-25 -80v-19q0 -57 22 -86.5t76 -29.5q58 0 81 29.5t23 86.5v19q0 109 -104 109z" />
    <glyph glyph-name="nine" unicode="9" horiz-adv-x="630" 
d="M43 344v223q0 95 78.5 156.5t196.5 61.5q120 0 194.5 -62.5t74.5 -152.5v-241q0 -53 -48 -152l-159 -331h-183l142 285q-22 -11 -61 -11q-93 0 -164 66.5t-71 157.5zM209 558v-224q0 -29 30.5 -55t78.5 -26q45 0 74 28.5t29 57.5v221q0 35 -28 63.5t-75 28.5
q-48 0 -78.5 -29t-30.5 -65z" />
    <glyph glyph-name="colon" unicode=":" horiz-adv-x="330" 
d="M55 558q0 46 32 78t78 32t78 -32t32 -78t-32 -78t-78 -32t-78 32t-32 78zM55 104q0 46 32 78t78 32t78 -32t32 -78t-32 -78t-78 -32t-78 32t-32 78z" />
    <glyph glyph-name="semicolon" unicode=";" horiz-adv-x="330" 
d="M55 558q0 46 32 78t78 32t78 -32t32 -78t-32 -78t-78 -32t-78 32t-32 78zM272 120q5 -74 -35.5 -136.5t-86.5 -96.5l-71 25q53 49 59 109q-31 6 -54 29.5t-26 61.5q-3 35 21.5 68t64.5 41q51 11 88 -22.5t40 -78.5z" />
    <glyph glyph-name="less" unicode="&#x3c;" horiz-adv-x="482" 
d="M482 778v-203l-302 -274l302 -274v-204l-472 425v105z" />
    <glyph glyph-name="equal" unicode="=" horiz-adv-x="600" 
d="M517 408h-435v137h435v-137zM517 114h-435v137h435v-137z" />
    <glyph glyph-name="greater" unicode="&#x3e;" horiz-adv-x="484" 
d="M474 248l-474 -426v205l303 274l-303 274v202l474 -424v-105z" />
    <glyph glyph-name="question" unicode="?" horiz-adv-x="661" 
d="M611 550q0 -109 -44.5 -174t-138.5 -103q-15 -6 -23.5 -17.5t-10 -23t-2.5 -22.5t0 -16v-85h-170v79q0 92 24 136t85 68q115 43 115 158q0 104 -112 104q-60 0 -88.5 -29.5t-28.5 -103.5h-167q0 145 75 207.5t214 62.5q272 0 272 -241zM195 -63q0 46 32 78t78 32t78 -32
t32 -78t-32 -77.5t-78 -31.5t-78 31.5t-32 77.5z" />
    <glyph glyph-name="at" unicode="@" horiz-adv-x="892" 
d="M860 497v-383q0 -123 -72 -196.5t-184 -73.5h-321q-111 0 -183 73.5t-72 196.5v383q0 124 71.5 198t183.5 74h321q112 0 184 -74t72 -198zM720 101v410q0 57 -33 96.5t-81 39.5h-325q-46 0 -79.5 -39.5t-33.5 -96.5v-410q0 -55 34 -95t79 -40h325q51 0 82.5 38.5
t31.5 96.5zM212 217v164q0 85 48.5 138t142.5 53q67 0 101 -23v21h147v-533h-141v23q-40 -34 -108 -34q-84 0 -137 51.5t-53 139.5zM358 354v-115q0 -85 77 -85q70 0 70 77v133q0 81 -72 81q-37 0 -56 -20.5t-19 -70.5z" />
    <glyph glyph-name="A" unicode="A" horiz-adv-x="755" 
d="M574 -154l-55 223h-284l-54 -223h-171l233 924h269l233 -924h-171zM377 649l-108 -443h216z" />
    <glyph glyph-name="B" unicode="B" horiz-adv-x="705" 
d="M637 568v-58q0 -43 -21.5 -87.5t-56.5 -75.5q48 -31 77 -77t29 -97v-89q0 -116 -71 -177t-197 -61h-347v924h310q131 0 204 -51t73 -151zM498 78v101q0 96 -130 96h-151v-292h145q71 0 103.5 20.5t32.5 74.5zM470 516v29q0 50 -26.5 69t-99.5 19h-127v-221h140
q67 0 90 24t23 80z" />
    <glyph glyph-name="C" unicode="C" horiz-adv-x="646" 
d="M444 79h167v-63q0 -93 -81 -139t-215 -46q-47 0 -92.5 11.5t-88 35.5t-68.5 68t-26 102v529q0 58 27.5 100.5t72.5 64.5t91 32t94 10q53 0 101.5 -10.5t91 -31.5t68 -58t25.5 -85v-67h-167v39q0 26 -11 43t-31 24.5t-37 9.5t-40 2q-118 0 -118 -89v-507q0 -89 118 -89
q26 0 42 2t36.5 9t30.5 24t10 44v35z" />
    <glyph glyph-name="D" unicode="D" horiz-adv-x="687" 
d="M647 511v-407q0 -119 -70.5 -188.5t-196.5 -69.5h-330v924h330q125 0 196 -71.5t71 -187.5zM480 98v419q0 54 -35 85t-104 31h-124v-650h124q139 0 139 115z" />
    <glyph glyph-name="E" unicode="E" horiz-adv-x="599" 
d="M559 -154h-509v924h509v-137h-342v-245h341v-137h-341v-268h342v-137z" />
    <glyph glyph-name="F" unicode="F" horiz-adv-x="604" 
d="M217 -154h-167v924h529v-137h-362v-275h344v-137h-344v-375z" />
    <glyph glyph-name="G" unicode="G" horiz-adv-x="669" 
d="M334 -35q26 0 43.5 2t40 9t34.5 24t12 44v202h-139v137h304v-367q0 -93 -85 -139t-220 -46q-47 0 -94 11.5t-91 35.5t-71.5 68t-27.5 102v529q0 57 29 100t75.5 65t94 32t95.5 10q73 0 137 -17.5t111 -61t47 -106.5v-77h-167v49q0 79 -128 79q-31 0 -56.5 -5.5t-48 -27
t-22.5 -56.5v-507q0 -35 22.5 -56t48.5 -27t56 -6z" />
    <glyph glyph-name="H" unicode="H" horiz-adv-x="675" 
d="M625 -154h-167v435h-241v-435h-167v924h167v-352h241v352h167v-924z" />
    <glyph glyph-name="I" unicode="I" horiz-adv-x="306" 
d="M237 -154h-167v924h167v-924z" />
    <glyph glyph-name="J" unicode="J" horiz-adv-x="396" 
d="M168 770h168v-582q0 -47 -11 -96t-37 -100.5t-64.5 -93.5t-99 -71.5t-134.5 -36.5v144q178 46 178 262v574z" />
    <glyph glyph-name="K" unicode="K" horiz-adv-x="701" 
d="M217 -154h-167v924h167v-409l276 409h191l-278 -412l289 -512h-194l-195 364l-89 -133v-231z" />
    <glyph glyph-name="L" unicode="L" horiz-adv-x="584" 
d="M564 -154h-514v924h167v-787h347v-137z" />
    <glyph glyph-name="M" unicode="M" horiz-adv-x="820" 
d="M770 -154h-160v493l-153 -428h-94l-153 428v-493h-160v924h151l209 -626l209 626h151v-924z" />
    <glyph glyph-name="N" unicode="N" horiz-adv-x="695" 
d="M212 -154h-162v924h160l273 -584v584h162v-924h-158l-275 583v-583z" />
    <glyph glyph-name="O" unicode="O" horiz-adv-x="647" 
d="M607 597v-579q0 -62 -48 -106.5t-110.5 -62.5t-125.5 -18t-125 18t-110 62.5t-48 106.5v579q0 62 48 106.5t110 62.5t125 18q64 0 126 -18t110 -62.5t48 -106.5zM440 54v507q0 89 -117 89q-116 0 -116 -89v-507q0 -89 116 -89q117 0 117 89z" />
    <glyph glyph-name="P" unicode="P" horiz-adv-x="651" 
d="M217 -154h-167v924h284q131 0 204 -51t73 -152v-247q0 -109 -74.5 -172t-202.5 -63h-117v-239zM444 326v219q0 50 -26.5 69t-99.5 19h-101v-411h114q67 0 90 24t23 80z" />
    <glyph glyph-name="Q" unicode="Q" horiz-adv-x="691" 
d="M601 597v-579q0 -30 -11 -55l116 -143h-178l-39 48q-78 -37 -169 -37q-63 0 -124.5 18t-108.5 62.5t-47 106.5v579q0 62 47 106.5t108.5 62.5t124.5 18q46 0 93 -11t90.5 -32.5t70.5 -59t27 -84.5zM434 54v507q0 89 -114 89q-113 0 -113 -89v-507q0 -89 113 -89
q114 0 114 89z" />
    <glyph glyph-name="R" unicode="R" horiz-adv-x="676" 
d="M217 -154h-167v924h284q132 0 209.5 -51.5t77.5 -151.5v-172q0 -117 -90 -180l130 -369h-172l-105 316q-16 -2 -50 -2h-117v-314zM454 401v144q0 49 -30.5 68.5t-105.5 19.5h-101v-336h114q68 0 95.5 25t27.5 79z" />
    <glyph glyph-name="S" unicode="S" horiz-adv-x="641" 
d="M40 114h167v-60q0 -89 123 -89q46 0 75.5 24.5t29.5 64.5v66q0 47 -16 71t-51 41l-160 73q-33 15 -55 28t-49 35t-41 51t-14 65v103q0 55 26 96t69 61.5t88 30t93 9.5q110 0 190.5 -50.5t80.5 -144.5v-65h-167v37q0 89 -105 89q-44 0 -76 -23.5t-32 -75.5v-13
q1 -35 17.5 -56t53.5 -40l153 -77q43 -22 64 -34t48 -34.5t38.5 -49.5t11.5 -62v-151q0 -97 -74 -150t-208 -53q-51 0 -97.5 11t-89 34t-68 66t-25.5 101v71z" />
    <glyph glyph-name="T" unicode="T" horiz-adv-x="675" 
d="M421 -154h-167v787h-224v137h615v-137h-224v-787z" />
    <glyph glyph-name="U" unicode="U" horiz-adv-x="661" 
d="M444 770h167v-752q0 -62 -47.5 -106.5t-109 -62.5t-124.5 -18t-124.5 18t-108.5 62.5t-47 106.5v752h167v-716q0 -89 113 -89q114 0 114 89v716z" />
    <glyph glyph-name="V" unicode="V" horiz-adv-x="667" 
d="M184 770l149 -648l150 648h174l-243 -924h-161l-243 924h174z" />
    <glyph glyph-name="W" unicode="W" horiz-adv-x="870" 
d="M499 770l106 -591l92 591h163l-172 -924h-141l-112 553l-112 -553h-141l-172 924h163l91 -591l107 591h128z" />
    <glyph glyph-name="X" unicode="X" horiz-adv-x="669" 
d="M246 297l-236 473h176l148 -297l149 297h176l-237 -473l226 -451h-176l-138 275l-137 -275h-176z" />
    <glyph glyph-name="Y" unicode="Y" horiz-adv-x="713" 
d="M440 -154h-167v321l-263 603h174l172 -418l173 418h174l-263 -603v-321z" />
    <glyph glyph-name="Z" unicode="Z" horiz-adv-x="625" 
d="M602 -154h-574v114l374 673h-359v137h552v-113l-371 -674h378v-137z" />
    <glyph glyph-name="bracketleft" unicode="[" horiz-adv-x="377" 
d="M327 -190h-277v983h277v-123h-117v-737h117v-123z" />
    <glyph glyph-name="backslash" unicode="\" horiz-adv-x="599" 
d="M383 -154l-333 924h166l333 -924h-166z" />
    <glyph glyph-name="bracketright" unicode="]" horiz-adv-x="377" 
d="M327 -190h-277v123h117v737h-117v123h277v-983z" />
    <glyph glyph-name="asciicircum" unicode="^" horiz-adv-x="637" 
d="M607 400h-173l-116 217l-116 -217h-172l227 400h123z" />
    <glyph glyph-name="underscore" unicode="_" horiz-adv-x="575" 
d="M525 -154h-475v137h475v-137z" />
    <glyph glyph-name="grave" unicode="`" horiz-adv-x="330" 
d="M292 547h-130l-124 253h199z" />
    <glyph glyph-name="a" unicode="a" horiz-adv-x="608" 
d="M40 59v299q0 102 62 162.5t170 60.5q74 0 122 -36v28h164v-727h-158v33q-52 -44 -129 -44q-111 0 -171 58t-60 166zM204 353v-295q0 -85 90 -85q43 0 72.5 19.5t29.5 52.5v323q0 37 -26.5 56.5t-66.5 19.5q-99 0 -99 -91z" />
    <glyph glyph-name="b" unicode="b" horiz-adv-x="613" 
d="M573 362v-303q0 -108 -63 -166t-175 -58q-72 0 -127 36v-25h-158v934h164v-225q50 30 120 30q115 0 180 -62.5t59 -160.5zM409 58v299q0 94 -106 94q-39 0 -64 -20.5t-25 -58.5v-327q0 -33 28 -52.5t70 -19.5q97 0 97 85z" />
    <glyph glyph-name="c" unicode="c" horiz-adv-x="589" 
d="M385 79h164v-51q0 -95 -65.5 -146t-192.5 -51q-104 0 -177.5 54t-73.5 163v334q0 57 23.5 99t62.5 65t81.5 33.5t88.5 10.5q105 0 179 -49t74 -137v-67h-164v39q0 42 -25 61t-64 19q-92 0 -92 -90v-312q0 -89 92 -89q46 0 67.5 15t21.5 64v35z" />
    <glyph glyph-name="d" unicode="d" horiz-adv-x="613" 
d="M40 59v304q0 104 62 163.5t176 59.5q66 0 121 -34v228h164v-934h-158v25q-55 -36 -128 -36q-111 0 -174 58t-63 166zM204 361v-303q0 -85 96 -85q42 0 70.5 19.5t28.5 52.5v331q0 37 -25.5 56.5t-64.5 19.5q-105 0 -105 -91z" />
    <glyph glyph-name="e" unicode="e" horiz-adv-x="590" 
d="M391 59h159v-31q0 -95 -66.5 -146t-194.5 -51q-103 0 -176 54t-73 163v334q0 57 23 99t61.5 64.5t81 33t88.5 10.5q106 0 181 -48.5t75 -136.5v-276h-348v-79q0 -87 92 -87q48 0 72.5 14.5t24.5 63.5v19zM201 368v-110h188v120q0 41 -27.5 62t-67.5 21q-41 0 -67 -22
t-26 -71z" />
    <glyph glyph-name="f" unicode="f" horiz-adv-x="479" 
d="M459 774v-141q-55 22 -112 20q-48 -2 -48 -70v-34h160v-137h-160v-566h-164v566h-120v137h120v46q0 99 54.5 147t132.5 51q75 2 137 -19z" />
    <glyph glyph-name="g" unicode="g" horiz-adv-x="621" 
d="M571 573v-585q0 -89 -65.5 -148.5t-210.5 -59.5q-101 0 -161 42.5t-76 143.5h166q7 -54 83 -54q43 0 71.5 18.5t28.5 53.5v57q-17 -17 -52.5 -26t-63.5 -9q-131 0 -191 56t-60 147v185q0 91 71 143t160 52q100 0 136 -45v29h164zM407 236v118q0 46 -26 74t-78 28
q-53 0 -76 -25t-23 -74v-125q0 -47 24.5 -68.5t79.5 -21.5q99 0 99 94z" />
    <glyph glyph-name="h" unicode="h" horiz-adv-x="628" 
d="M214 366v-520h-164v934h164v-226q49 25 125 25q113 0 176 -60.5t63 -162.5v-510h-164v505q0 91 -105 91q-40 0 -67.5 -19.5t-27.5 -56.5z" />
    <glyph glyph-name="i" unicode="i" horiz-adv-x="316" 
d="M241 -154h-163v656h163v-656zM50 684q0 46 32 78t78 32t78 -32t32 -78t-32 -77.5t-78 -31.5t-78 31.5t-32 77.5z" />
    <glyph glyph-name="j" unicode="j" horiz-adv-x="367" 
d="M122 510h165v-362q0 -61 -14 -118.5t-46 -113t-93 -92.5t-144 -44v144q42 10 69 34t40.5 61t18 75.5t4.5 91.5v324zM95 684q0 46 32 78t78 32t78 -32t32 -78t-32 -77.5t-78 -31.5t-78 31.5t-32 77.5z" />
    <glyph glyph-name="k" unicode="k" horiz-adv-x="666" 
d="M214 -154h-164v934h164v-501l232 289h209l-268 -322l278 -400h-200l-184 273l-67 -81v-192z" />
    <glyph glyph-name="l" unicode="l" horiz-adv-x="295" 
d="M230 -154h-165v934h165v-934z" />
    <glyph glyph-name="m" unicode="m" horiz-adv-x="809" 
d="M759 -154h-164v512q0 84 -54 84q-28 0 -41.5 -19t-13.5 -49v-528h-163v523q0 39 -13 56t-43 17q-25 0 -39 -20t-14 -49v-527h-164v722h164v-33q14 16 42.5 28.5t62.5 12.5q25 0 57 -12t53 -32q49 46 143 46q76 0 131.5 -53t55.5 -148v-531z" />
    <glyph glyph-name="n" unicode="n" horiz-adv-x="618" 
d="M214 360v-514h-164v722h164v-41q22 22 57 35.5t68 13.5q112 0 170.5 -60t58.5 -163v-507h-164v502q0 91 -95 91q-41 0 -68 -20.5t-27 -58.5z" />
    <glyph glyph-name="o" unicode="o" horiz-adv-x="601" 
d="M561 403v-385q0 -62 -42.5 -106t-99.5 -62.5t-119 -18.5q-45 0 -89 11t-83.5 32.5t-63.5 59t-24 84.5v385q0 47 24 84.5t63.5 59t83.5 32.5t89 11q62 0 119 -18t99.5 -62.5t42.5 -106.5zM397 54v313q0 89 -97 89q-44 0 -70 -18.5t-26 -70.5v-313q0 -89 96 -89q97 0 97 89
z" />
    <glyph glyph-name="p" unicode="p" horiz-adv-x="613" 
d="M573 360v-189q6 -98 -59 -160.5t-180 -62.5q-70 0 -120 30v-198h-164v788h158v-25q49 41 127 41q112 0 175 -58t63 -166zM412 176v185q0 88 -100 88q-42 0 -70 -20.5t-28 -54.5v-213q0 -38 25.5 -60t63.5 -22q47 0 78 23.5t31 73.5z" />
    <glyph glyph-name="q" unicode="q" horiz-adv-x="613" 
d="M40 171v189q0 108 63 166t175 58q78 0 127 -41v25h158v-788h-164v198q-50 -30 -120 -30q-115 0 -180 62.5t-59 160.5zM201 361v-185q0 -50 31 -73.5t78 -23.5q38 0 63.5 22t25.5 60v213q0 34 -28 54.5t-70 20.5q-100 0 -100 -88z" />
    <glyph glyph-name="r" unicode="r" horiz-adv-x="443" 
d="M430 580v-150q-95 4 -151 -50t-56 -125v-409h-163v722h163v-67q71 89 207 79z" />
    <glyph glyph-name="s" unicode="s" horiz-adv-x="563" 
d="M37 93h161v-69q0 -31 27.5 -46t68.5 -15q34 0 54 19.5t20 45.5v32q0 46 -64 75l-124 54q-33 15 -49 23.5t-43.5 27.5t-40 43t-12.5 54v83q0 48 21.5 83.5t57.5 55t75.5 28.5t82.5 9q100 0 173.5 -44.5t73.5 -125.5v-63h-161v41q0 31 -25.5 45.5t-60.5 14.5
q-32 0 -53.5 -18.5t-21.5 -52.5v-16q0 -36 60 -64l108 -51q39 -20 75.5 -35.5t62 -45t25.5 -68.5v-101q0 -84 -63.5 -132t-183.5 -48q-46 0 -87 9.5t-77.5 30t-58 57.5t-21.5 86v78z" />
    <glyph glyph-name="t" unicode="t" horiz-adv-x="479" 
d="M124 428h-109v137h109v215h164v-215h171v-137h-171v-385q0 -68 48 -70q69 -3 122 24v-141q-65 -25 -147 -23q-78 3 -132.5 51t-54.5 147v397z" />
    <glyph glyph-name="u" unicode="u" horiz-adv-x="611" 
d="M397 568h164v-550q0 -47 -23.5 -84.5t-62 -59t-82 -32.5t-88.5 -11q-61 0 -117 18.5t-97 62.5t-41 106v550h164v-514q0 -52 24 -70.5t67 -18.5q42 0 67 19t25 70v514z" />
    <glyph glyph-name="v" unicode="v" horiz-adv-x="613" 
d="M177 568l129 -489l130 489h171l-222 -722h-157l-222 722h171z" />
    <glyph glyph-name="w" unicode="w" horiz-adv-x="760" 
d="M438 568l72 -434l76 434h163l-148 -722h-139l-82 401l-82 -401h-139l-149 722h164l75 -434l73 434h116z" />
    <glyph glyph-name="x" unicode="x" horiz-adv-x="605" 
d="M215 206l-207 362h174l120 -210l121 210h174l-208 -362l207 -360h-174l-120 208l-119 -208h-174z" />
    <glyph glyph-name="y" unicode="y" horiz-adv-x="619" 
d="M405 568h164v-554q0 -48 -12 -87.5t-39.5 -74t-79.5 -54t-126 -19.5q-218 0 -244 191h166q4 -32 25 -45.5t64 -13.5q82 0 82 77v68q-42 -38 -114 -38q-128 0 -184.5 58.5t-56.5 155.5v336h164v-321q0 -50 22 -72.5t75 -22.5q44 0 69 23.5t25 70.5v322z" />
    <glyph glyph-name="z" unicode="z" horiz-adv-x="565" 
d="M540 -154h-510v114l306 471h-293v137h492v-113l-303 -472h308v-137z" />
    <glyph glyph-name="braceleft" unicode="{" horiz-adv-x="433" 
d="M403 -189h-48q-202 0 -202 188v139q0 76 -18 96q-17 17 -95 17v122q49 0 67.5 3.5t27.5 12.5q18 23 18 98v117q0 188 204 188h46v-121q-58 0 -75.5 -14t-17.5 -65v-134q0 -108 -67 -144q67 -44 67 -148v-157q2 -51 17 -64t76 -13v-121z" />
    <glyph glyph-name="bar" unicode="|" horiz-adv-x="297" 
d="M232 -164h-167v944h167v-944z" />
    <glyph glyph-name="braceright" unicode="}" horiz-adv-x="433" 
d="M78 -189h-48v121q61 0 76 13t17 64v157q0 104 67 148q-67 36 -67 144v134q0 51 -17.5 65t-75.5 14v121h46q204 0 204 -188v-117q0 -75 18 -98q9 -9 27.5 -12.5t67.5 -3.5v-122q-78 0 -95 -17q-18 -20 -18 -96v-139q0 -188 -202 -188z" />
    <glyph glyph-name="asciitilde" unicode="~" horiz-adv-x="581" 
d="M551 469v-178q-48 -54 -127.5 -57.5t-140.5 42.5q-146 105 -253 -70v181q48 75 127 86t143 -40q139 -104 251 36z" />
    <glyph glyph-name="uni20A9" unicode="&#x20a9;" 
d="M130 333h-124v127h100l-57 310h163l47 -310h95l56 310h128l55 -310h95l48 310h163l-58 -310h100v-127h-124l-90 -487h-141l-99 487h-27l-98 -487h-141zM279 333l24 -154l28 154h-52zM616 333l28 -154l24 154h-52z" />
    <glyph glyph-name="uni2010" unicode="&#x2010;" 
d="M711 259h-475v141h475v-141z" />
    <glyph glyph-name="copyright" unicode="&#xa9;" 
d="M476 -32q74 0 134.5 31t97 81t55.5 109.5t19 120.5q0 62 -19.5 121.5t-56.5 109t-97 80t-133 30.5q-74 0 -134.5 -30.5t-98 -80t-57.5 -108.5t-20 -120q0 -62 20 -122t57.5 -110t98 -81t134.5 -31zM476 -123q-101 0 -182 38.5t-130.5 101.5t-75.5 139t-26 156
q0 79 26.5 154t76 137.5t130.5 100.5t181 38q102 0 182.5 -38.5t128.5 -102t73 -139.5t25 -157q0 -79 -26 -153.5t-75 -137t-129 -100t-179 -37.5zM558 214h124v-38q0 -71 -54.5 -110t-151.5 -39q-80 0 -140.5 41t-60.5 123v253q0 56 34.5 93t78 50t92.5 13q81 0 141.5 -37
t60.5 -103v-51h-124v29q0 32 -23 46.5t-55 14.5q-34 0 -57.5 -16t-23.5 -52v-236q0 -67 81 -67q17 0 29 2t24 7.5t18.5 18.5t6.5 32v26z" />
    <glyph glyph-name="uniE4F5" unicode="&#xe4f5;" 
d="M880 236h-107v259l-82 -220h-64l-82 221v-260h-107v564h101l120 -345l120 345h101v-564zM279 236h-110v472h-135v92h379v-92h-134v-472z" />
    <glyph glyph-name="uniE4F6" unicode="&#xe4f6;" 
d="M364 -59q0 46 32.5 79.5t77.5 33.5t77.5 -33.5t32.5 -79.5t-32.5 -79.5t-77.5 -33.5t-77.5 33.5t-32.5 79.5zM49 -59q0 46 32.5 79.5t77.5 33.5t77.5 -33.5t32.5 -79.5t-32.5 -79.5t-77.5 -33.5t-77.5 33.5t-32.5 79.5zM678 -59q0 46 32.5 79.5t77.5 33.5t77.5 -33.5
t32.5 -79.5t-32.5 -79.5t-77.5 -33.5t-77.5 33.5t-32.5 79.5z" />
    <glyph glyph-name="uni3000" unicode="&#x3000;" 
 />
    <glyph glyph-name="uni3001" unicode="&#x3001;" horiz-adv-x="474" 
d="M370 57q-37 -24 -76.5 -63.5t-60 -65t-61.5 -78.5l-64 57l8 13q7 13 21 35.5t33.5 50t47.5 62t59 65.5z" />
    <glyph glyph-name="uni3002" unicode="&#x3002;" horiz-adv-x="474" 
d="M239 -150q-40 0 -67 21.5t-33 52.5t0 62t33 52.5t67 21.5t67 -21.5t33 -52.5t0 -62t-33 -52.5t-67 -21.5zM239 11q-34 0 -48.5 -28t0 -56t48.5 -28t48.5 28t0 56t-48.5 28z" />
    <glyph glyph-name="periodcentered" unicode="&#xb7;" 
d="M364 325q0 46 32.5 79.5t77.5 33.5t77.5 -33.5t32.5 -79.5t-32.5 -79.5t-77.5 -33.5t-77.5 33.5t-32.5 79.5z" />
    <glyph glyph-name="twodotenleader" unicode="&#x2025;" 
d="M127 325q0 46 32.5 79.5t77.5 33.5t77.5 -33.5t32.5 -79.5t-32.5 -79.5t-77.5 -33.5t-77.5 33.5t-32.5 79.5zM600 325q0 46 32.5 79.5t77.5 33.5t77.5 -33.5t32.5 -79.5t-32.5 -79.5t-77.5 -33.5t-77.5 33.5t-32.5 79.5z" />
    <glyph glyph-name="ellipsis" unicode="&#x2026;" 
d="M364 325q0 46 32.5 79.5t77.5 33.5t77.5 -33.5t32.5 -79.5t-32.5 -79.5t-77.5 -33.5t-77.5 33.5t-32.5 79.5zM49 325q0 46 32.5 79.5t77.5 33.5t77.5 -33.5t32.5 -79.5t-32.5 -79.5t-77.5 -33.5t-77.5 33.5t-32.5 79.5zM678 325q0 46 32.5 79.5t77.5 33.5t77.5 -33.5
t32.5 -79.5t-32.5 -79.5t-77.5 -33.5t-77.5 33.5t-32.5 79.5z" />
    <glyph glyph-name="dieresis" unicode="&#xa8;" 
d="M127 687q0 46 32.5 79.5t77.5 33.5t77.5 -33.5t32.5 -79.5t-32.5 -79.5t-77.5 -33.5t-77.5 33.5t-32.5 79.5zM600 687q0 46 32.5 79.5t77.5 33.5t77.5 -33.5t32.5 -79.5t-32.5 -79.5t-77.5 -33.5t-77.5 33.5t-32.5 79.5z" />
    <glyph glyph-name="uni3003" unicode="&#x3003;" 
d="M735 354l-221 -215l-101 91l194 239zM530 420l-213 -223l-104 87l185 246z" />
    <glyph glyph-name="uni00AD" unicode="&#xad;" 
d="M671 259h-395v141h395v-141z" />
    <glyph glyph-name="uni2015" unicode="&#x2015;" 
d="M721 259h-495v141h495v-141z" />
    <glyph glyph-name="uni2016" unicode="&#x2016;" 
d="M442 -164h-157v944h157v-944zM662 -164h-157v944h157v-944z" />
    <glyph glyph-name="uniFF3C" unicode="&#xff3c;" 
d="M597 -154l-418 924h171l418 -924h-171z" />
    <glyph glyph-name="similar" unicode="&#x223c;" 
d="M734 469v-178q-48 -54 -127.5 -57.5t-140.5 42.5q-146 105 -253 -70v181q48 75 127 86t143 -40q139 -104 251 36z" />
    <glyph glyph-name="quoteleft" unicode="&#x2018;" horiz-adv-x="474" 
d="M231 567q-4 75 35.5 143.5t80.5 99.5l68 -25q-25 -25 -39.5 -58.5t-16.5 -60.5q30 -6 51.5 -29.5t24.5 -61.5q2 -36 -19.5 -68.5t-58.5 -40.5q-50 -11 -87 21t-39 80z" />
    <glyph glyph-name="quoteright" unicode="&#x2019;" horiz-adv-x="474" 
d="M246 697q4 -75 -35.5 -143.5t-80.5 -99.5l-68 25q25 25 39.5 58.5t16.5 60.5q-30 6 -51.5 29.5t-24.5 61.5q-2 36 19.5 68.5t58.5 40.5q50 11 87 -21t39 -80z" />
    <glyph glyph-name="quotedblleft" unicode="&#x201c;" horiz-adv-x="474" 
d="M253 567q-4 75 33 144t76 99l64 -25q-23 -25 -38 -59t-17 -60q23 -7 46 -31t26 -60q2 -36 -17.5 -68.5t-54.5 -40.5q-47 -10 -81.5 21.5t-36.5 79.5zM42 567q-4 75 33 144t76 99l64 -25q-23 -25 -38 -59t-17 -60q23 -7 46 -31t26 -60q2 -36 -17.5 -68.5t-54.5 -40.5
q-47 -10 -81.5 21.5t-36.5 79.5z" />
    <glyph glyph-name="quotedblright" unicode="&#x201d;" horiz-adv-x="474" 
d="M220 697q4 -75 -33 -144t-76 -99l-64 25q23 25 38 59t17 60q-23 7 -46 31t-26 60q-2 36 17.5 68.5t54.5 40.5q47 10 81.5 -21.5t36.5 -79.5zM431 697q4 -75 -33 -144t-76 -99l-64 25q23 25 38 59t17 60q-23 7 -46 31t-26 60q-2 36 17.5 68.5t54.5 40.5q47 10 81.5 -21.5
t36.5 -79.5z" />
    <glyph glyph-name="uni3014" unicode="&#x3014;" horiz-adv-x="474" 
d="M423 -142l-237 150v584l237 150v-106l-141 -93v-492l141 -87v-106z" />
    <glyph glyph-name="uni3015" unicode="&#x3015;" horiz-adv-x="474" 
d="M288 8l-237 -150v106l141 87v492l-141 93v106l237 -150v-584z" />
    <glyph glyph-name="uni3008" unicode="&#x3008;" horiz-adv-x="474" 
d="M423 -83l-96 -55l-268 439l268 438l96 -55l-234 -384z" />
    <glyph glyph-name="uni3009" unicode="&#x3009;" horiz-adv-x="474" 
d="M415 301l-268 -439l-96 55l234 383l-234 384l96 55z" />
    <glyph glyph-name="uni300A" unicode="&#x300a;" horiz-adv-x="474" 
d="M423 -132h-48l-189 432l189 432h47l-189 -432zM311 -132h-48l-189 432l189 432h47l-189 -432z" />
    <glyph glyph-name="uni300B" unicode="&#x300b;" horiz-adv-x="474" 
d="M400 300l-189 -432h-48l190 432l-189 432h47zM288 300l-189 -432h-48l190 432l-189 432h47z" />
    <glyph glyph-name="uni300C" unicode="&#x300c;" horiz-adv-x="474" 
d="M423 679h-210v-341h-72v413h282v-72z" />
    <glyph glyph-name="uni300D" unicode="&#x300d;" horiz-adv-x="474" 
d="M333 -151h-282v72h210v341h72v-413z" />
    <glyph glyph-name="uni300E" unicode="&#x300e;" horiz-adv-x="474" 
d="M423 619h-149v-281h-133v413h282v-132zM379 663v44h-194v-325h44v281h150z" />
    <glyph glyph-name="uni300F" unicode="&#x300f;" horiz-adv-x="474" 
d="M333 -151h-282v132h149v281h133v-413zM289 -107v325h-44v-281h-151v-44h195z" />
    <glyph glyph-name="uni3010" unicode="&#x3010;" horiz-adv-x="474" 
d="M423 -151h-353v901h352q-119 -77 -182 -200t-62.5 -250.5t63.5 -250.5t182 -200z" />
    <glyph glyph-name="uni3011" unicode="&#x3011;" horiz-adv-x="474" 
d="M403 -150h-352q119 77 182 200t63.5 250.5t-62.5 250.5t-182 200h351v-901z" />
    <glyph glyph-name="plusminus" unicode="&#xb1;" 
d="M552 199h-161v143h-160v134h160v130h161v-130h164v-134h-164v-143zM726 21h-505v137h505v-137z" />
    <glyph glyph-name="multiply" unicode="&#xd7;" 
d="M733 183l-113 -113l-150 146l-150 -147l-116 112l150 147l-144 141l114 116l146 -144l146 144l113 -114l-145 -142z" />
    <glyph glyph-name="divide" unicode="&#xf7;" 
d="M731 261h-515v137h515v-137zM373 546q0 41 29.5 70t70.5 29t70 -29t29 -70t-29 -70.5t-70 -29.5t-70.5 29.5t-29.5 70.5zM373 115q0 41 29.5 70t70.5 29t70 -29t29 -70t-29 -70.5t-70 -29.5t-70.5 29.5t-29.5 70.5z" />
    <glyph glyph-name="notequal" unicode="&#x2260;" 
d="M371 9h-105l69 135h-119v137h190l50 97h-240v137h311l56 108h101l-55 -108h102v-137h-172l-49 -97h221v-137h-291z" />
    <glyph glyph-name="lessequal" unicode="&#x2264;" 
d="M717 641v-159l-240 -88l240 -63v-154l-485 173v85zM726 21h-505v137h505v-137z" />
    <glyph glyph-name="greaterequal" unicode="&#x2265;" 
d="M230 482v159l485 -206v-85l-485 -173v154l246 63zM726 21h-505v137h505v-137z" />
    <glyph glyph-name="infinity" unicode="&#x221e;" 
d="M648 130q-41 0 -77 20t-55.5 44.5t-30.5 44.5l-11 20q-3 -8 -11 -21.5t-29.5 -41.5t-56.5 -47t-77 -19q-54 0 -93.5 25t-57.5 63t-18 82t18 82t57.5 63t93.5 25q42 0 78 -20t55 -44.5t30 -44.5l11 -20q3 8 11.5 21.5t29.5 41.5t56.5 47t76.5 19q54 0 93.5 -25t57 -63
t17.5 -82t-17.5 -82t-57 -63t-93.5 -25zM648 429q-35 0 -64.5 -20t-45.5 -44.5t-25 -44.5l-9 -20q2 -5 5.5 -14t16 -31t28 -39t41 -31t53.5 -14q60 0 94 40.5t34 88.5t-34 88.5t-94 40.5zM444 300q-2 5 -5.5 14t-16 31t-28 39t-41 31t-53.5 14q-60 0 -93.5 -40.5
t-33.5 -88.5t33.5 -88.5t93.5 -40.5q35 0 64.5 20t45.5 44.5t25 44.5z" />
    <glyph glyph-name="therefore" unicode="&#x2234;" 
d="M474 451q-32 0 -49.5 21.5t-17.5 46.5t17.5 46.5t49.5 21.5t49.5 -21.5t17.5 -46.5t-17.5 -46.5t-49.5 -21.5zM712 2q-32 0 -49.5 21t-17.5 46.5t17.5 46.5t49.5 21t49.5 -21t17.5 -46.5t-17.5 -46.5t-49.5 -21zM236 2q-32 0 -49.5 21t-17.5 46.5t17.5 46.5t49.5 21
t49.5 -21t17.5 -46.5t-17.5 -46.5t-49.5 -21z" />
    <glyph glyph-name="degree" unicode="&#xb0;" horiz-adv-x="474" 
d="M239 526q-53 0 -83 35t-30 77.5t30 77.5t83 35t83 -35t30 -77.5t-30 -77.5t-83 -35zM239 699q-38 0 -54 -30.5t0 -61t54 -30.5t54 30.5t0 61t-54 30.5z" />
    <glyph glyph-name="minute" unicode="&#x2032;" horiz-adv-x="474" 
d="M273 751l-204 -263l-18 15l97 248h125z" />
    <glyph glyph-name="second" unicode="&#x2033;" horiz-adv-x="474" 
d="M426 751l-200 -263l-18 15l96 248h122zM269 751l-201 -263l-17 15l96 248h122z" />
    <glyph glyph-name="uni2103" unicode="&#x2103;" 
d="M349 636v-80q0 -76 -37.5 -110t-118.5 -34q-78 0 -115 34t-37 110v80q0 76 37 110t117 34t117 -34t37 -110zM230 555v82q0 24 -8 34t-29 10q-19 0 -26.5 -10t-7.5 -34v-82q0 -24 7.5 -34t26.5 -10q21 0 29 10t8 34zM750 79h167v-63q0 -94 -72.5 -139.5t-203.5 -45.5
q-46 0 -89 11.5t-81.5 35.5t-61.5 68t-23 102v529q0 58 24.5 100.5t65 64.5t84.5 32t91 10q71 0 129 -17.5t97.5 -60.5t39.5 -107v-67h-167v39q0 35 -16 53.5t-34.5 22t-48.5 3.5q-45 0 -71.5 -18.5t-26.5 -70.5v-507q0 -89 98 -89q25 0 39 2t30 9t23 24t7 44v35z" />
    <glyph glyph-name="uni212B" unicode="&#x212b;" 
d="M670 -154l-58 173h-278l-57 -173h-171l237 660q-74 46 -74 136q0 71 51 119.5t130 48.5h44q80 0 131.5 -48t51.5 -119q0 -88 -73 -135l237 -662h-171zM473 434l-93 -278h186zM461 586h24q20 0 36 17.5t16 39.5q0 26 -15 42.5t-37 16.5h-24q-21 0 -35 -17t-14 -42
q0 -24 15 -40.5t34 -16.5z" />
    <glyph glyph-name="uniFFE0" unicode="&#xffe0;" 
d="M539 -195h-113v68q-45 4 -86.5 18t-79 38.5t-60 65.5t-22.5 93v449q0 50 22.5 89.5t60 62.5t78.5 36t87 17v58h113v-60q98 -13 164 -58t66 -123v-67h-167v39q0 57 -63 72v-593q63 15 63 74v35h167v-63q0 -78 -63 -123.5t-167 -57.5v-70zM345 521v-427q0 -67 81 -85v596
q-81 -16 -81 -84z" />
    <glyph glyph-name="uniFFE1" unicode="&#xffe1;" 
d="M241 372v205q0 58 25 100.5t66.5 64.5t85 32t91.5 10q71 0 129.5 -17.5t99 -60.5t40.5 -107v-67h-167v39q0 26 -8.5 43t-25 24.5t-31.5 9.5t-37 2q-101 0 -101 -89v-189h150v-137h-150v-266h150q21 0 33 0.5t27.5 5t24 12t14.5 22.5t6 36v97h167v-125q0 -92 -74.5 -138.5
t-205.5 -46.5h-406v137h97v266h-123v137h123z" />
    <glyph glyph-name="uniFFE5" unicode="&#xffe5;" 
d="M557 -154h-167v188h-204v141h200l-19 44h-211v141h150l-179 410h174l168 -410h7l170 410h174l-180 -410h151v-141h-212l-19 -44h201v-141h-204v-188z" />
    <glyph glyph-name="male" unicode="&#x2642;" 
d="M725 433l-52 -52l-160 202v-362q58 -14 94.5 -55t41 -90.5t-10.5 -96.5t-59 -78.5t-105 -31.5t-105 31.5t-59 78.5t-10.5 96.5t41 90.5t94.5 55v362l-159 -200l-52 52l250 303zM474 152q-50 0 -78.5 -33t-28.5 -73t28.5 -73t78.5 -33t78.5 33t28.5 73t-28.5 73t-78.5 33z
" />
    <glyph glyph-name="female" unicode="&#x2640;" 
d="M775 195h-262v-332h-78v332h-262v79h262v106q-49 11 -82.5 42t-46 70t-8 81.5t25 77.5t60 58t90.5 23t90.5 -23t60 -58t25 -77.5t-8 -81.5t-46 -70t-82.5 -42v-106h262v-79zM474 660q-50 0 -78.5 -33t-28.5 -73t28.5 -73t78.5 -33t78.5 33t28.5 73t-28.5 73t-78.5 33z
" />
    <glyph glyph-name="angle" unicode="&#x2220;" 
d="M812 -1h-648q-38 0 0 38l562 568l31 -30l-536 -538h591v-38z" />
    <glyph glyph-name="perpendicular" unicode="&#x22a5;" 
d="M794 -1h-640v38h298v545h44v-545h298v-38z" />
    <glyph glyph-name="uni2312" unicode="&#x2312;" 
d="M812 319h-44q-13 79 -58.5 136.5t-105 84t-128 26.5t-128.5 -26t-106.5 -83.5t-60.5 -137.5h-44q14 92 66.5 159t122 97t149 30t149 -30.5t122 -97t66.5 -158.5z" />
    <glyph glyph-name="partialdiff" unicode="&#x2202;" horiz-adv-x="474" 
d="M385 264q-15 -51 -50.5 -92.5t-76.5 -61.5t-80 -25.5t-67 13t-33 57.5q-5 46 23 83t72 56.5t90.5 27.5t80.5 1q3 24 -1 46.5t-16 45t-40 32.5t-69 3q-29 -5 -54 -22t-37.5 -30t-14.5 -11q-4 3 5 19t26 34t50.5 32t72.5 12q76 -3 111 -66t8 -154zM343 302q-97 0 -161 -45
q-28 -21 -43 -46t-15.5 -45.5t10.5 -36t29.5 -20t46 7t56.5 39.5q31 30 51.5 71.5t25.5 74.5z" />
    <glyph glyph-name="gradient" unicode="&#x2207;" 
d="M829 582l-355 -606l-357 606h712zM694 506h-442l222 -376z" />
    <glyph glyph-name="equivalence" unicode="&#x2261;" 
d="M812 432h-676v37h676v-37zM812 281h-676v38h676v-38zM812 131h-676v37h676v-37z" />
    <glyph glyph-name="uni2252" unicode="&#x2252;" 
d="M812 358h-676v44h676v-44zM283 501q-31 0 -44 25t0 50t44 25t44 -25t0 -50t-44 -25zM666 0q-31 0 -43.5 25t0 50t43.5 25t43.5 -25t0 -50t-43.5 -25zM812 198h-676v44h676v-44z" />
    <glyph glyph-name="section" unicode="&#xa7;" horiz-adv-x="474" 
d="M309 177q34 -33 50.5 -80t13 -89.5t-36.5 -72.5t-90 -30q-74 0 -112.5 43t-10.5 71q30 27 56 5t13 -53q-6 -13 11 -22.5t40 -9.5t42.5 18.5t19.5 54.5q0 52 -29.5 89.5t-79 75t-70.5 63.5q-30 38 -39 82t12 74.5t69 26.5q-49 43 -62 107.5t20 114.5t105 50
q73 0 111 -42.5t10 -71.5q-28 -28 -53.5 -5.5t-14.5 53.5q5 13 -12 22.5t-39.5 9.5t-42 -18.5t-19.5 -54.5q0 -41 20 -74.5t46 -53t60.5 -48t53.5 -52.5q17 -22 28.5 -53.5t13.5 -63t-19 -51t-65 -15.5zM189 391q-31 0 -39 -18.5t4.5 -44.5t32.5 -52.5t46 -46t45 -20.5
q35 -3 45.5 15t-1.5 45.5t-33 55t-49.5 47t-50.5 19.5z" />
    <glyph glyph-name="uni203B" unicode="&#x203b;" 
d="M474 460q-39 0 -55 31t0 62.5t55 31.5t55 -31.5t0 -62.5t-55 -31zM696 237q-39 0 -55 31.5t0 62.5t55 31t55 -31t0 -62.5t-55 -31.5zM767 57l-50 -50l-243 243l-243 -243l-50 50l243 243l-243 243l50 50l243 -243l243 243l50 -50l-243 -243zM252 237q-39 0 -55 31.5
t0 62.5t55 31t55 -31t0 -62.5t-55 -31.5zM474 15q-39 0 -55 31.5t0 62.5t55 31t55 -31t0 -62.5t-55 -31.5z" />
    <glyph glyph-name="uni2606" unicode="&#x2606;" 
d="M848 420l-230 -167l87 -271l-230 168l-230 -168l86 273l-229 165h285l87 272l89 -272h285zM674 364h-152l-48 146l-46 -146h-153l122 -88l-45 -146l123 89l123 -89l-47 145z" />
    <glyph glyph-name="uni2605" unicode="&#x2605;" 
d="M848 420l-230 -167l87 -271l-230 168l-230 -168l86 273l-229 165h285l87 272l89 -272h285z" />
    <glyph glyph-name="circle" unicode="&#x25cb;" 
d="M474 -21q-101 0 -175.5 47.5t-108 119t-33.5 154.5t33.5 154.5t108 119t175.5 47.5t175.5 -47.5t108 -119t33.5 -154.5t-33.5 -154.5t-108 -119t-175.5 -47.5zM474 527q-72 0 -124.5 -33.5t-76 -84t-23.5 -109.5t23.5 -109.5t76 -84t124.5 -33.5t124.5 33.5t76 84
t23.5 109.5t-23.5 109.5t-76 84t-124.5 33.5z" />
    <glyph glyph-name="H18533" unicode="&#x25cf;" 
d="M474 -21q-101 0 -175.5 47.5t-108 119t-33.5 154.5t33.5 154.5t108 119t175.5 47.5t175.5 -47.5t108 -119t33.5 -154.5t-33.5 -154.5t-108 -119t-175.5 -47.5z" />
    <glyph glyph-name="uni25CE" unicode="&#x25ce;" 
d="M474 -85q-92 0 -166.5 33t-120.5 87t-70.5 123.5t-24.5 141.5t24.5 141.5t70.5 123.5t120.5 87t166.5 33t166.5 -33t120.5 -87t70.5 -123.5t24.5 -141.5t-24.5 -141.5t-70.5 -123.5t-120.5 -87t-166.5 -33zM474 648q-83 0 -150 -30t-108.5 -79t-64 -111.5t-22.5 -127.5
t22.5 -127.5t64 -111.5t108.5 -79t150 -30t150 30t108.5 79t64 111.5t22.5 127.5t-22.5 127.5t-64 111.5t-108.5 79t-150 30zM474 53q-78 0 -135 36.5t-83 91.5t-26 119t26 119t83 91.5t135 36.5t135 -36.5t83 -91.5t26 -119t-26 -119t-83 -91.5t-135 -36.5zM474 510
q-66 0 -114.5 -31t-70 -78t-21.5 -101t21.5 -101t70 -78t114.5 -31t114.5 31t70 78t21.5 101t-21.5 101t-70 78t-114.5 31z" />
    <glyph glyph-name="uni25C7" unicode="&#x25c7;" 
d="M842 300l-368 -368l-367 368l367 368zM703 300l-229 229l-229 -229l229 -229z" />
    <glyph glyph-name="uni25C6" unicode="&#x25c6;" 
d="M842 300l-368 -368l-367 368l367 368z" />
    <glyph glyph-name="H22073" unicode="&#x25a1;" 
d="M758 16h-568v568h568v-568zM668 106v388h-388v-388h388z" />
    <glyph glyph-name="filledbox" unicode="&#x25a0;" 
d="M758 16h-568v568h568v-568z" />
    <glyph glyph-name="uni25B3" unicode="&#x25b3;" 
d="M834 15h-721l361 613zM665 110l-191 328l-194 -328h385z" />
    <glyph glyph-name="triagup" unicode="&#x25b2;" 
d="M834 15h-721l361 613z" />
    <glyph glyph-name="uni25BD" unicode="&#x25bd;" 
d="M833 574l-359 -612l-361 612h720zM665 480h-385l193 -329z" />
    <glyph glyph-name="triagdn" unicode="&#x25bc;" 
d="M833 574l-359 -612l-361 612h720z" />
    <glyph glyph-name="arrowright" unicode="&#x2192;" 
d="M920 300l-332 -155l111 110h-681v90h683l-113 111z" />
    <glyph glyph-name="arrowleft" unicode="&#x2190;" 
d="M923 255h-681l111 -110l-333 155l333 156l-113 -111h683v-90z" />
    <glyph glyph-name="arrowup" unicode="&#x2191;" 
d="M625 415l-103 117v-681h-97v681l-105 -119l154 339z" />
    <glyph glyph-name="arrowdown" unicode="&#x2193;" 
d="M625 173l-151 -325l-154 326l105 -106v682h97v-681z" />
    <glyph glyph-name="arrowboth" unicode="&#x2194;" 
d="M934 300l-304 -149l101 104h-515l101 -104l-303 149l303 149l-101 -103h515l-101 103z" />
    <glyph glyph-name="uni3013" unicode="&#x3013;" 
d="M812 385h-658v42h658v-42zM812 173h-658v42h658v-42z" />
    <glyph glyph-name="uni226A" unicode="&#x226a;" 
d="M843 -11l-23 -28l-459 320q-18 13 -18.5 18.5t18.5 19.5l459 320l22 -30l-447 -309zM618 -11l-24 -28l-458 320q-14 9 -17 13.5t0 10t17 14.5l458 320l22 -30l-447 -309z" />
    <glyph glyph-name="uni226B" unicode="&#x226b;" 
d="M812 281l-458 -320l-24 28l449 311l-447 309l22 30l458 -320q14 -9 17 -14.5t0 -10t-17 -13.5zM587 281l-459 -320l-23 28l448 311l-447 309l22 30l459 -320q19 -14 18.5 -19.5t-18.5 -18.5z" />
    <glyph glyph-name="radical" unicode="&#x221a;" 
d="M841 534h-457l-103 -564q-1 -6 -6 -6.5t-9 4.5l-106 202l-49 -35l-19 32l82 59l88 -165l90 512h489v-39z" />
    <glyph glyph-name="uni223D" unicode="&#x223d;" 
d="M685 130q-32 0 -60 8t-41 16l-12 9l19 35q44 -29 99 -29q54 0 91 30.5t45.5 74t-1 87.5t-47 76t-92.5 35q-43 2 -77 -16.5t-57 -49.5t-43.5 -68.5t-42 -75t-47.5 -68t-65.5 -48t-90.5 -14.5q-60 4 -103 33.5t-61.5 71.5t-18 90.5t21 89.5t63.5 68t101 27q32 0 60.5 -8
t41.5 -16l12 -8l-18 -32q-41 27 -100 27q-46 0 -79.5 -22t-49 -55t-15.5 -72.5t15.5 -73.5t50 -58t82.5 -27q47 -3 85 22t61.5 64t51 84.5t53.5 84.5t70.5 64.5t100.5 24.5q59 -2 102.5 -31t63 -71t19 -91t-20 -91t-63.5 -69.5t-104 -27.5z" />
    <glyph glyph-name="proportional" unicode="&#x221d;" 
d="M832 135q-50 -32 -110 -32q-50 0 -92 23.5t-64 51.5t-34 52l-11 23q-2 -6 -7 -16t-23 -36t-39 -46t-57 -36t-75 -16q-62 0 -108 29t-66.5 73t-20.5 95t20.5 95t66.5 73t108 29q48 0 89.5 -23.5t64 -51.5t34.5 -52l13 -23q2 6 7 16t23 36t39 46t57 36t75 16q67 0 109 -33
l-20 -31q-33 25 -89 25q-38 0 -70.5 -16.5t-52 -39.5t-33 -46t-18.5 -40l-5 -16q2 -6 5.5 -17t18 -38t33 -48t51.5 -38t71 -17q54 0 88 25zM499 300q-2 6 -6.5 17t-20 38t-34.5 48t-50.5 38t-67.5 17q-50 0 -87 -23.5t-53.5 -58.5t-16.5 -76t16.5 -76t53.5 -58.5t87 -23.5
q44 0 81 24.5t56.5 54.5t30.5 55z" />
    <glyph glyph-name="uni2235" unicode="&#x2235;" 
d="M781 529q0 -43 -34.5 -61t-69.5 0t-35 61t35 61t69.5 0t34.5 -61zM306 529q0 -43 -35 -61t-69.5 0t-34.5 61t34.5 61t69.5 0t35 -61zM544 80q0 -43 -35 -61t-70 0t-35 61t35 61t70 0t35 -61z" />
    <glyph glyph-name="integral" unicode="&#x222b;" 
d="M633 636q-10 -16 -23.5 -16t-27.5 6.5t-20 4.5q-22 -8 -35 -52t-16 -86t-4.5 -105.5t-2.5 -74.5q-21 -376 -140 -403q-29 -7 -45.5 13t-3.5 40q11 16 25.5 16t27.5 -7t18 -5q23 9 36 58t16 95.5t4.5 116t2.5 81.5q3 38 5 63t8 72.5t16 81t24 69t36.5 57.5t49.5 27
q28 6 44 -14t5 -38z" />
    <glyph glyph-name="uni222C" unicode="&#x222c;" 
d="M504 636q-10 -16 -23 -16t-27 6.5t-20 4.5q-22 -8 -35.5 -52t-16.5 -85.5t-4.5 -106t-2.5 -74.5q-17 -375 -140 -403q-29 -7 -45.5 13t-3.5 40q11 16 25.5 16t27.5 -7t18 -5q23 9 36.5 58t16 96t4 116t2.5 81q3 41 5.5 63t8.5 72t16 81.5t24 68.5t36 58.5t49 26.5
q29 6 44.5 -14t4.5 -38zM759 636q-10 -16 -23.5 -16t-27.5 6.5t-20 4.5q-22 -8 -35 -52t-16 -86t-4.5 -105.5t-2.5 -74.5q-21 -376 -140 -403q-29 -7 -45.5 13t-3.5 40q11 16 25 16t27.5 -7t18.5 -5q23 9 36 58t16 95.5t4.5 116t2.5 81.5q3 38 5 63t8 72.5t16 81t24 69
t36.5 57.5t49.5 27q28 6 44 -14t5 -38z" />
    <glyph glyph-name="element" unicode="&#x2208;" 
d="M803 37h-391q-91 0 -158.5 39t-97.5 97.5t-30 126.5t30 126.5t97.5 97.5t158.5 39h391v-37h-401q-109 0 -169.5 -63.5t-64.5 -143.5h634v-38h-634q4 -81 64.5 -144t169.5 -63h401v-37z" />
    <glyph glyph-name="suchthat" unicode="&#x220b;" 
d="M536 37h-391v37h401q109 0 169.5 63t64.5 144h-634v38h634q-4 80 -64.5 143.5t-169.5 63.5h-401v37h391q91 0 158.5 -39t97.5 -97.5t30 -126.5t-30 -126.5t-97.5 -97.5t-158.5 -39z" />
    <glyph glyph-name="reflexsubset" unicode="&#x2286;" 
d="M803 150h-391q-70 0 -126.5 19.5t-91 51t-53.5 72t-18.5 83t19 83t53.5 72t91 51t126 19.5h391v-38h-402q-65 0 -116 -20.5t-77.5 -54t-39 -73.5t0 -80t38.5 -73.5t77.5 -54t116.5 -20.5h402v-37zM822 -1h-696v38h696v-38z" />
    <glyph glyph-name="reflexsuperset" unicode="&#x2287;" 
d="M536 150h-391v37h402q76 0 131.5 28t80.5 69.5t25 90.5t-25 90.5t-80.5 69.5t-131.5 28h-402v38h391q69 0 125.5 -19.5t91 -51t53.5 -72t19 -83t-18.5 -83t-53 -72t-91 -51t-126.5 -19.5zM822 -1h-696v38h696v-38z" />
    <glyph glyph-name="propersubset" unicode="&#x2282;" 
d="M803 37h-391q-91 0 -158.5 39t-97.5 97.5t-30 126.5t30 126.5t97.5 97.5t158.5 39h391v-37h-401q-75 0 -130 -33.5t-79.5 -83.5t-24.5 -109t24.5 -109t79.5 -83.5t130 -33.5h401v-37z" />
    <glyph glyph-name="propersuperset" unicode="&#x2283;" 
d="M536 37h-391v37h401q75 0 130 33.5t79.5 83.5t24.5 109t-24.5 109t-79.5 83.5t-130 33.5h-401v37h391q91 0 158.5 -39t97.5 -97.5t30 -126.5t-30 -126.5t-97.5 -97.5t-158.5 -39z" />
    <glyph glyph-name="union" unicode="&#x222a;" 
d="M724 238q0 -91 -39 -158.5t-97.5 -97.5t-126.5 -30t-126.5 30t-97.5 97.5t-39 158.5v391h37v-401q0 -75 33.5 -130t83.5 -79.5t108.5 -24.5t108.5 24.5t83.5 79.5t33.5 130v401h38v-391z" />
    <glyph glyph-name="intersection" unicode="&#x2229;" 
d="M737 -29h-37v401q0 75 -33.5 130t-83.5 79.5t-109 24.5t-109 -24.5t-83.5 -79.5t-33.5 -130v-401h-37v391q0 91 39 158.5t97.5 97.5t126.5 30t126.5 -30t97.5 -97.5t39 -158.5v-391z" />
    <glyph glyph-name="logicaland" unicode="&#x2227;" 
d="M788 -1l-33 -18l-281 576l-281 -576l-33 18l295 604q19 38 38 0z" />
    <glyph glyph-name="logicalor" unicode="&#x2228;" 
d="M788 603l-295 -604q-19 -38 -38 0l-295 604l33 18l281 -576l281 576z" />
    <glyph glyph-name="uniFFE2" unicode="&#xffe2;" 
d="M925 -151h-37v291h-865v38h902v-329z" />
    <glyph glyph-name="arrowdblright" unicode="&#x21d2;" 
d="M945 299l-327 -225l-42 51l106 72h-678v56h761l68 46l-70 48h-759v56h675l-103 70l42 51z" />
    <glyph glyph-name="arrowdblboth" unicode="&#x21d4;" 
d="M945 299l-327 -225l-42 51l106 72h-415l105 -71l-42 -51l-327 225l327 225l42 -51l-105 -71h412l-103 70l42 51zM833 299l-70 48h-579l-69 -47l69 -47h581z" />
    <glyph glyph-name="universal" unicode="&#x2200;" 
d="M277 770l54 -223h284l55 223h171l-233 -924h-269l-233 924h171zM365 410l109 -443l108 443h-217z" />
    <glyph glyph-name="existential" unicode="&#x2203;" 
d="M219 770h509v-924h-509v137h342v245h-341v137h341v268h-342v137z" />
    <glyph glyph-name="acute" unicode="&#xb4;" 
d="M482 642q-78 -101 -118 -130q11 65 51 169q12 31 29 50.5t32 23.5t26 -2t15 -21t-4.5 -39t-30.5 -51z" />
    <glyph glyph-name="uniFF5E" unicode="&#xff5e;" 
d="M694 761q0 -51 -37 -81.5t-98 -25.5q-46 4 -97.5 32t-72.5 31q-30 5 -55 -9t-25 -41h-51q0 47 38 77t95 25q46 -4 95 -31t73 -30q41 -7 62.5 8t21.5 45h51z" />
    <glyph glyph-name="caron" unicode="&#x2c7;" 
d="M665 721l-191 -107l-191 107l28 46l163 -92l163 92z" />
    <glyph glyph-name="breve" unicode="&#x2d8;" 
d="M681 738q-51 -68 -129 -92t-156 0.5t-129 91.5l42 29q64 -84 165.5 -84t164.5 84z" />
    <glyph glyph-name="hungarumlaut" unicode="&#x2dd;" 
d="M576 642q-78 -101 -118 -130q11 65 51 169q12 31 29 50.5t32 23.5t26 -2t15 -21t-4.5 -39t-30.5 -51zM434 642q-81 -102 -119 -130q11 65 51 169q15 37 36 57.5t37 18.5t25.5 -14.5t2.5 -40.5t-33 -60z" />
    <glyph glyph-name="ring" unicode="&#x2da;" 
d="M474 535q-50 0 -78.5 33.5t-28.5 74.5t28.5 74.5t78.5 33.5t78.5 -33.5t28.5 -74.5t-28.5 -74.5t-78.5 -33.5zM474 703q-38 0 -53.5 -30t0 -60t53.5 -30t53.5 30t0 60t-53.5 30z" />
    <glyph glyph-name="dotaccent" unicode="&#x2d9;" 
d="M473 554q-39 0 -61 25.5t-22 56.5t22 56.5t61 25.5t61 -25.5t22 -56.5t-22 -56.5t-61 -25.5z" />
    <glyph glyph-name="cedilla" unicode="&#xb8;" horiz-adv-x="474" 
d="M305 18l-137 -135v63l70 72l-70 67v62z" />
    <glyph glyph-name="ogonek" unicode="&#x2db;" horiz-adv-x="474" 
d="M305 -117l-137 135l137 129v-62l-70 -67l70 -72v-63z" />
    <glyph glyph-name="exclamdown" unicode="&#xa1;" 
d="M395 493h158l16 -665h-190zM584 670q0 -46 -32 -78t-78 -32t-78 32t-32 78t32 77.5t78 31.5t78 -31.5t32 -77.5z" />
    <glyph glyph-name="questiondown" unicode="&#xbf;" 
d="M193 59q0 109 44.5 174t138.5 103q15 6 23.5 17.5t10 23t2.5 22.5t0 16v85h170v-79q0 -92 -24 -136t-85 -68q-115 -43 -115 -158q0 -104 112 -104q60 0 88.5 29.5t28.5 103.5h167q0 -145 -75 -207.5t-214 -62.5q-272 0 -272 241zM609 672q0 -46 -32 -78t-78 -32t-78 32
t-32 78t32 77.5t78 31.5t78 -31.5t32 -77.5z" />
    <glyph glyph-name="uni02D0" unicode="&#x2d0;" horiz-adv-x="474" 
d="M330 526l-91 -157l-91 157h182zM330 74h-182l91 157z" />
    <glyph glyph-name="uni222E" unicode="&#x222e;" 
d="M688 514q-31 -15 -53 15q-5 7 -7.5 21.5t-7.5 16.5q-16 5 -35.5 -34t-30 -80t-16.5 -58q41 -23 57 -66t6.5 -83.5t-46 -69t-90.5 -26.5q-8 -29 -22 -65.5t-29.5 -68t-44.5 -52t-66 -16.5q-34 4 -52.5 23.5t-15 41t23.5 30.5q31 17 53 -15q5 -7 7.5 -21t7.5 -16
q16 -5 36 35t30.5 81.5t16.5 59.5q-65 40 -72 102t37 105.5t109 36.5q7 29 21 65t29.5 67t44 50.5t65.5 15.5q34 -3 52.5 -22.5t15 -41t-23.5 -31.5zM522 340q-12 -46 -40 -136q33 3 52.5 28t16.5 56.5t-29 51.5zM467 357q-33 -3 -53 -28t-17 -57t29 -52q25 80 41 137z" />
    <glyph glyph-name="summation" unicode="&#x2211;" 
d="M751 -20h-543q-17 0 -22.5 7.5t-1.5 17.5t11 20t15 16l249 259l-255 238v82h540v-214h-94v120h-302l241 -225l-219 -227h287v121h94v-215z" />
    <glyph glyph-name="product" unicode="&#x220f;" 
d="M794 526h-141v-546h-94v546h-170v-546h-94v546h-141v94h640v-94z" />
    <glyph glyph-name="currency" unicode="&#xa4;" 
d="M839 2l-67 -67q-115 115 -116 115q-81 -61 -184 -61t-184 61l-115 -115l-67 66q13 13 32.5 32t51.5 51l32 32q-60 83 -60 184.5t61 183.5l-116 116l67 67l116 -117q82 59 182 59t182 -59l118 117l67 -67l-118 -117q60 -81 61 -182.5t-59 -182.5zM472 511
q-66 0 -115 -31.5t-71 -78.5t-22 -101.5t22 -101.5t71 -78.5t115 -31.5t115 31.5t71 78.5t22 101.5t-22 101.5t-71 78.5t-115 31.5z" />
    <glyph glyph-name="uni2109" unicode="&#x2109;" 
d="M553 -154h-167v924h499v-137h-332v-275h304v-137h-304v-375zM349 636v-80q0 -76 -37.5 -110t-118.5 -34q-78 0 -115 34t-37 110v80q0 76 37 110t117 34t117 -34t37 -110zM230 555v82q0 24 -8 34t-29 10q-19 0 -26.5 -10t-7.5 -34v-82q0 -24 7.5 -34t26.5 -10q21 0 29 10
t8 34z" />
    <glyph glyph-name="perthousand" unicode="&#x2030;" 
d="M824 235q30 -21 38 -57t-4.5 -73.5t-36.5 -74.5t-57.5 -59.5t-67.5 -29.5t-67 16q-30 21 -38 57t4.5 73.5t36.5 74.5t57.5 59.5t67.5 29.5t67 -16zM306 609q30 -21 38 -57t-4.5 -73t-36 -74t-57.5 -60t-68 -30t-67 16q-36 25 -40 71t18.5 90.5t57.5 82.5t78.5 47.5
t80.5 -13.5zM651 662l-540 -726h-74l540 726h74zM548 236q30 -21 38 -57t-4.5 -73.5t-37 -74.5t-58 -59.5t-67.5 -29.5t-67 16q-30 21 -38 57t4.5 73.5t37 74.5t58 59.5t67.5 29.5t67 -16zM791 189q-24 17 -58.5 -2.5t-57 -55t-31.5 -72.5t18 -56q24 -17 58.5 2.5t57 55
t31.5 72.5t-18 56zM273 563q-23 17 -57.5 -2t-57.5 -55t-32 -73t18 -56q19 -13 46 -3t48.5 34.5t38.5 55t16 57.5t-20 42zM515 190q-24 17 -58.5 -2.5t-57.5 -55t-32 -72.5t18 -56q19 -13 46 -3t49 34.5t38.5 55t16 57.5t-19.5 42z" />
    <glyph glyph-name="uni25C1" unicode="&#x25c1;" 
d="M749 -62l-613 362l613 360v-722zM654 106v384l-329 -191z" />
    <glyph glyph-name="uni25C0" unicode="&#x25c0;" 
d="M749 -62l-613 362l613 360v-722z" />
    <glyph glyph-name="uni25B7" unicode="&#x25b7;" 
d="M806 300l-614 -362v722zM616 299l-328 191v-384z" />
    <glyph glyph-name="uni25B6" unicode="&#x25b6;" 
d="M812 300l-613 -362v722z" />
    <glyph glyph-name="uni2664" unicode="&#x2664;" 
d="M779 226q0 -64 -38.5 -103t-93 -38t-113.5 37q0 -60 7.5 -95.5t30 -56t51 -28t81.5 -12.5l5 -14h-470l5 14q53 5 81.5 12.5t51 28t30 56t7.5 95.5q-36 -25 -79.5 -31t-80 7t-61.5 46.5t-25 81.5q0 96 119 192q70 57 121.5 133t65.5 158q14 -82 65.5 -158t121.5 -133
q118 -95 118 -192zM732 211q0 60 -25.5 97t-80.5 81q-53 44 -96.5 96t-55.5 89q-11 -37 -54.5 -88.5t-96.5 -96.5q-12 -9 -24.5 -20.5t-24.5 -22.5t-22.5 -25.5t-18.5 -30t-12.5 -36t-4.5 -43.5q0 -47 34.5 -66.5t77.5 -12t82 29.5t48 49q2 -20 0.5 -59.5t-3.5 -78.5
t-14 -75t-32 -49h131q-20 13 -32 49t-14 75t-3.5 78.5t0.5 59.5q7 -21 34 -41t61.5 -29.5t67.5 -9t55.5 21t22.5 58.5z" />
    <glyph glyph-name="spade" unicode="&#x2660;" 
d="M779 226q0 -71 -53 -108t-116 -33t-97 37q0 -59 11 -95.5t37.5 -56t57.5 -27.5t85 -13l5 -14h-470l5 14q54 5 85 13t57.5 27.5t37.5 56t11 95.5q-34 -33 -97.5 -37t-116.5 33t-53 108q0 99 119 193q70 58 121.5 133t65.5 157q14 -82 65.5 -157t121.5 -133
q118 -94 118 -193z" />
    <glyph glyph-name="uni2661" unicode="&#x2661;" 
d="M796 487q2 -110 -126 -259q-12 -14 -58.5 -67.5t-63 -75t-40.5 -63.5t-34 -80q-10 38 -34 80t-40.5 63t-63.5 75.5t-58 67.5q-128 149 -126 259q1 53 28.5 90.5t69 50t86 8.5t83 -33t55.5 -76q25 60 79 88.5t107 22.5t94 -46.5t42 -104.5zM738 468q0 53 -23.5 84.5
t-58 33t-71.5 -13.5t-68 -55.5t-43 -93.5q-16 72 -60.5 115.5t-89 48.5t-79.5 -26t-35 -93q0 -36 19 -77.5t37.5 -66.5t50.5 -63q18 -21 47 -54t45.5 -52t35 -46t29.5 -52q22 44 67 98.5t90 105.5q32 38 50.5 63t37.5 66.5t19 77.5z" />
    <glyph glyph-name="heart" unicode="&#x2665;" 
d="M796 487q0 -112 -126 -259q-12 -14 -58.5 -67.5t-63 -75t-40.5 -63.5t-34 -80q-10 38 -34 79.5t-41 63.5t-63 74.5t-58 67.5q-126 147 -126 259q0 44 20.5 78t52 51.5t70.5 19.5t74.5 -11.5t64.5 -48.5t40 -85q11 51 40 86t64.5 49t74.5 12t70.5 -19.5t52 -52t20.5 -78.5
z" />
    <glyph glyph-name="uni2667" unicode="&#x2667;" 
d="M820 261q0 -66 -47.5 -114t-117.5 -48q-76 0 -125 60q0 -129 37 -174.5t137 -54.5l5 -14h-470l5 14q100 9 137 54.5t37 175.5q-44 -56 -113.5 -60t-122.5 42t-53 119q0 76 59 127t148 28q-27 39 -24.5 82t22 79t58 59.5t83.5 23.5t83.5 -24.5t58.5 -60t20 -79.5t-26 -81
q82 25 145.5 -25.5t63.5 -128.5zM771 261q0 70 -64.5 101.5t-117.5 -11.5l-45 57q40 32 43.5 81t-29 85.5t-84.5 36.5q-51 0 -83.5 -36t-30 -84t41.5 -80l-44 -57q-54 41 -117 9t-63 -102q0 -43 26.5 -72.5t61.5 -37t71.5 7.5t55.5 53h67q1 -14 0 -36.5t-1 -48t-3.5 -53
t-8.5 -51.5t-15 -43t-23 -28h131q-13 9 -23 28t-15 43t-8.5 51.5t-3.5 53t-1 48t0 36.5h66q14 -29 41 -46.5t61 -17.5q47 0 80.5 33t33.5 80z" />
    <glyph glyph-name="club" unicode="&#x2663;" 
d="M820 261q0 -66 -47.5 -114t-117.5 -48q-76 0 -125 60q0 -129 37 -174.5t137 -54.5l5 -14h-470l5 14q100 9 137 54.5t37 175.5q-44 -56 -113.5 -60t-122.5 42t-53 119q0 76 59 127t148 28q-27 39 -24.5 82t22 79t58 59.5t83.5 23.5t83.5 -24.5t58.5 -60t20 -79.5t-26 -81
q82 25 145.5 -25.5t63.5 -128.5z" />
    <glyph glyph-name="uni2299" unicode="&#x2299;" 
d="M475 -83q-92 0 -166.5 33t-120.5 87t-70.5 122.5t-24.5 140.5t24.5 140.5t70.5 122.5t120.5 87t166.5 33q91 0 165 -33t119.5 -87t70 -122.5t24.5 -140.5t-24.5 -140.5t-70 -122.5t-119.5 -87t-165 -33zM475 623q-103 0 -179 -48t-109.5 -120t-33.5 -155.5t34 -155.5
t109.5 -120t178.5 -48q102 0 177 48t109 120t34 155.5t-33.5 155.5t-109 120t-177.5 48zM475 152q-47 0 -81 22t-49.5 55t-15.5 71t15.5 71t49.5 55t81 22q46 0 80 -22t49.5 -55t15.5 -71t-15.5 -71t-49.5 -55t-80 -22z" />
    <glyph glyph-name="uni25C8" unicode="&#x25c8;" 
d="M906 300l-434 -433l-434 432l434 435zM822 299l-350 351l-350 -351l350 -349zM697 299l-225 -225l-225 225l225 224z" />
    <glyph glyph-name="uni25A3" unicode="&#x25a3;" 
d="M822 -48h-696v696h696v-696zM763 10v580h-578v-580h578zM652 122h-356v356h356v-356z" />
    <glyph glyph-name="uni25D0" unicode="&#x25d0;" 
d="M475 -84q-92 0 -167 33t-121 87t-71 123t-25 141t25 141t71 123t121 87t167 33t166 -33t119.5 -87t70 -123t24.5 -141t-24.5 -141t-70 -123t-120 -87t-165.5 -33zM475 622v-648q77 0 139.5 28t101 73.5t59 103.5t20.5 119t-20.5 119t-59 103.5t-101 73.5t-139.5 28z" />
    <glyph glyph-name="uni25D1" unicode="&#x25d1;" 
d="M474 -84q-91 0 -165.5 33t-120 87t-70 123t-24.5 141t24.5 141t70 123t119.5 87t166 33t167 -33t121 -87t71 -123t25 -141t-25 -141t-71 -123t-121 -87t-167 -33zM474 -23v645q-77 0 -139.5 -27.5t-101 -73t-59 -103.5t-20.5 -118.5t20.5 -118.5t59 -103.5t101 -73
t139.5 -27.5z" />
    <glyph glyph-name="shade" unicode="&#x2592;" 
d="M822 -48h-696v696h696v-696z" />
    <glyph glyph-name="uni25A4" unicode="&#x25a4;" 
d="M822 -48h-696v696h696v-696zM794 536v83h-640v-83h640zM794 425v83h-640v-83h640zM794 314v83h-640v-83h640zM794 203v83h-640v-83h640zM794 92v83h-640v-83h640zM794 -19v83h-640v-83h640z" />
    <glyph glyph-name="uni25A5" unicode="&#x25a5;" 
d="M822 -48h-696v696h696v-696zM793 -20v640h-83v-640h83zM682 -20v640h-83v-640h83zM571 -20v640h-83v-640h83zM460 -20v640h-83v-640h83zM349 -20v640h-83v-640h83zM238 -20v640h-83v-640h83z" />
    <glyph glyph-name="uni25A8" unicode="&#x25a8;" 
d="M822 -48h-696v696h696v-696zM263 620h-109v-109zM390 620h-89l-147 -146v-89zM517 620h-89l-274 -273v-89zM644 620h-89l-401 -400v-89zM776 620h-94l-528 -527v-94zM794 380v89l-489 -489h89zM794 126v89l-235 -235h89zM794 507v94l-622 -621h95zM794 253v89l-362 -362
h89zM794 -20v108l-109 -108h109z" />
    <glyph glyph-name="uni25A7" unicode="&#x25a7;" 
d="M822 -48h-696v696h696v-696zM794 511v109h-109zM794 385v89l-146 146h-89zM794 258v89l-273 273h-89zM794 131v89l-400 400h-89zM794 -1v94l-527 527h-95zM776 -20l-622 621v-94l528 -527h94zM644 -20l-490 489v-89l401 -400h89zM517 -20l-363 362v-89l274 -273h89z
M390 -20l-236 235v-89l147 -146h89zM263 -20l-109 108v-108h109z" />
    <glyph glyph-name="uni25A6" unicode="&#x25a6;" 
d="M822 -48h-696v696h696v-696zM793 536v83h-83v-83h83zM682 536v83h-83v-83h83zM793 425v83h-83v-83h83zM571 536v83h-83v-83h83zM682 425v83h-83v-83h83zM793 314v83h-83v-83h83zM460 536v83h-83v-83h83zM571 425v83h-83v-83h83zM682 314v83h-83v-83h83zM793 203v83h-83
v-83h83zM349 536v83h-83v-83h83zM460 425v83h-83v-83h83zM571 314v83h-83v-83h83zM682 203v83h-83v-83h83zM793 92v83h-83v-83h83zM238 536v83h-83v-83h83zM349 425v83h-83v-83h83zM460 314v83h-83v-83h83zM571 203v83h-83v-83h83zM682 92v83h-83v-83h83zM793 -19v83h-83
v-83h83zM238 425v83h-83v-83h83zM349 314v83h-83v-83h83zM460 203v83h-83v-83h83zM571 92v83h-83v-83h83zM682 -19v83h-83v-83h83zM238 314v83h-83v-83h83zM349 203v83h-83v-83h83zM460 92v83h-83v-83h83zM571 -19v83h-83v-83h83zM238 203v83h-83v-83h83zM349 92v83h-83v-83
h83zM460 -19v83h-83v-83h83zM238 92v83h-83v-83h83zM349 -19v83h-83v-83h83zM238 -19v83h-83v-83h83z" />
    <glyph glyph-name="uni25A9" unicode="&#x25a9;" 
d="M822 -48h-696v696h696v-696zM776 620h-95l47 -48zM794 507v94l-47 -47zM775 488l-47 47l-45 -44l47 -47zM709 553l-47 47l-44 -44l46 -47zM644 620h-90l45 -46zM794 380v89l-46 -44zM712 425l-47 47l-45 -45l47 -47zM775 361l-45 45l-45 -45l45 -44zM580 556l-44 45
l-45 -45l44 -45zM646 490l-47 47l-44 -45l47 -47zM517 620h-90l45 -46zM794 253v89l-46 -44zM517 493l-45 44l-45 -44l45 -45zM648 361l-47 47l-44 -45l46 -46zM711 298l-44 44l-44 -45l44 -44zM775 234l-44 45l-46 -45l45 -44zM453 556l-44 45l-45 -45l44 -45zM582 426
l-46 48l-45 -45l47 -47zM390 620h-90l45 -46zM794 126v89l-46 -44zM585 298l-47 47l-45 -45l47 -47zM648 234l-44 45l-45 -45l44 -44zM326 556l-44 45l-45 -46l44 -44zM390 493l-45 44l-45 -45l45 -45zM453 429l-45 44l-45 -44l45 -45zM519 363l-47 47l-45 -45l47 -47z
M711 170l-44 45l-45 -44l45 -45zM775 107l-44 44l-46 -45l45 -43zM794 -1v89l-46 -44zM263 620h-91l45 -46zM200 556l-46 45v-90zM776 -20l-45 46l-46 -46h91zM455 300l-47 47l-44 -45l47 -46zM522 235l-48 47l-45 -45l48 -47zM585 171l-44 44l-45 -44l44 -44zM648 108
l-44 44l-45 -45l45 -44zM712 44l-45 44l-44 -45l45 -44zM262 492l-44 45l-45 -44l45 -45zM326 429l-45 45l-44 -45l44 -45zM389 365l-44 45l-45 -44l45 -45zM200 429l-46 45v-89zM648 -20l-44 45l-45 -45h89zM326 303l-45 44l-44 -45l44 -44zM392 237l-47 46l-45 -44l47 -47
zM458 171l-48 47l-44 -44l47 -48zM521 107l-45 45l-44 -45l44 -44zM262 365l-44 45l-45 -44l45 -45zM584 44l-44 44l-45 -44l45 -45zM200 302l-46 45v-89zM521 -20l-44 45l-46 -45h90zM394 108l-47 46l-44 -44l46 -47zM262 239l-44 44l-45 -44l45 -44zM328 173l-47 47
l-44 -45l47 -47zM457 43l-44 46l-45 -45l45 -45zM200 175l-46 45v-89zM394 -20l-44 45l-45 -45h89zM265 109l-47 47l-45 -44l47 -47zM331 44l-48 47l-45 -44l48 -48zM201 46l-47 47v-94zM267 -20l-48 47l-47 -47h95z" />
    <glyph glyph-name="uni2668" unicode="&#x2668;" 
d="M653 288q5 -61 -46 -139q-10 -14 -15 -26.5t-5.5 -19t-3 -10.5t-7.5 -5q-8 -1 -13 27t7 63q8 22 13.5 48t3.5 63.5t-16 69.5q-41 94 19 213q6 13 9 35.5t7 23.5q5 1 9.5 -7.5t7.5 -24t1 -43.5t-10 -60q-7 -30 14.5 -105t24.5 -103zM533 308q6 -34 -10 -81.5t-36 -75.5
q-18 -27 -24.5 -48.5t-12.5 -23.5q-5 -2 -9 7.5t-6 24.5t2 37t13 43q41 93 -3 183q-21 45 -20.5 86.5t15 67.5t25.5 54q12 25 14.5 58t6.5 33q13 1 21.5 -47t-8.5 -103q-11 -23 -8.5 -54t8.5 -49t16.5 -51t15.5 -61zM403 288q3 -27 -9.5 -66t-36.5 -74q-10 -14 -15 -26.5
t-5 -18.5t-2.5 -10t-7.5 -5q-8 -1 -13 27t7 63q8 21 13 47.5t3 64t-15 69.5q-44 101 22 213q8 12 14.5 35t10.5 24t7 -7.5t3 -24.5t-3.5 -43t-11.5 -60q-7 -30 15 -104.5t24 -103.5zM839 131q0 -57 -55 -99t-137 -60t-178.5 -18t-178.5 18t-137 58t-55 93q0 36 22 65t57 47
t63 27.5t54 14.5q11 2 12.5 -5.5t-11.5 -11.5q-14 -5 -28.5 -11.5t-40.5 -21t-42.5 -35.5t-16.5 -44q0 -56 96 -87t210.5 -30.5t210.5 32t96 86.5q0 23 -12 43t-31 33.5t-33.5 21t-28.5 12.5q-10 3 -7.5 10t11.5 6q22 -5 46 -14.5t51.5 -26t45 -43.5t17.5 -60z" />
    <glyph glyph-name="uni260F" unicode="&#x260f;" 
d="M854 395q4 -35 -9.5 -44.5t-42.5 -8.5l-72 3q-28 1 -41 12.5t-19 47.5q-7 46 -64 60v-46q0 -34 33.5 -60.5t41.5 -50.5l69 -201l-10 -72h-530q-10 55 -10 72l69 201q8 24 41.5 50.5t33.5 60.5v46q-56 -14 -65 -60q-6 -36 -18.5 -47.5t-40.5 -12.5l-72 -3q-14 0 -22.5 1
t-17.5 6t-12 16.5t-1 29.5q8 62 29.5 91.5t72.5 43.5q133 38 278 38t278 -38q50 -14 71.5 -43t29.5 -92zM541 479q-67 6 -134 0l9 -46q58 8 116 0zM824 414q-7 44 -32 65t-80 36q-102 28 -237 28t-237 -28q-56 -15 -81 -36t-32 -65q-5 -31 1 -40.5t28 -8.5l59 2
q19 1 27.5 11t14.5 44q10 56 112 74q108 19 216 0q101 -18 112 -74q5 -33 13.5 -43.5t28.5 -11.5l58 -2q23 -1 28.5 8.5t0.5 40.5zM724 101l-64 187q-8 22 -19.5 36t-22 20.5t-20 14t-15 23t-5.5 41.5v50q-1 0 -5.5 0.5t-6.5 0.5l-12 -64q-78 8 -160 -1l-10 66l-12 -2v-50
q0 -32 -9 -49t-21 -22.5t-27.5 -21.5t-24.5 -42l-64 -187l6 -41h485zM472 135q-52 0 -82 36.5t-31 81t30 81t86 36.5q54 0 84 -36.5t30 -81t-31 -81t-86 -36.5zM475 344q-44 0 -68.5 -28.5t-23.5 -63t25 -63t64 -28.5q43 0 67 28.5t24.5 63t-23.5 63t-65 28.5z" />
    <glyph glyph-name="uni260E" unicode="&#x260e;" 
d="M857 377q0 -22 -14 -29t-41 -6l-72 3q-50 2 -57 42q36 -12 92 -15.5t92 5.5zM854 395q-75 -20 -184 10q-1 21 -20.5 38.5t-43.5 21.5v-46q0 -22 4 -29t24 -27q8 -8 19 -17t17 -16.5t11 -21.5l69 -201l-10 -74h-530q-10 57 -10 74l69 201q4 14 10.5 21.5t17.5 16.5t19 17
l14.5 14.5t8.5 11t4 12t1 18.5v46q-24 -4 -44 -21.5t-21 -38.5q-105 -30 -184 -10q8 67 26 94t76 43q127 36 278 36t278 -36q58 -16 76 -43t25 -94zM277 387q-7 -40 -57 -42l-72 -3q-27 -1 -41 6t-14 29q36 -9 92 -5.5t92 15.5zM566 473q-86 8 -184 -1l12 -68q72 5 80 5
t80 -4zM475 370q-55 0 -86 -36.5t-30 -81t31 -81t82 -36.5q55 0 86 36.5t31 81t-30 81t-84 36.5z" />
    <glyph glyph-name="uni261C" unicode="&#x261c;" 
d="M835 130h-121v43q-51 0 -76 -11q-50 -23 -101.5 -27t-93.5 0q-16 -22 -57 -22q-37 0 -76 18.5t-39 50.5q0 25 23 36q-15 14 -8 37.5t28 31.5q-11 12 -7.5 26t13.5 26l-136 5q-21 1 -31.5 2t-33 6t-34 17.5t-11.5 32.5q0 44 110 46q169 3 271 2q31 20 76 12.5t81.5 -28
t70.5 -36.5q14 -7 31 -7v40h121v-301zM776 155v250h-37v-250h37zM714 196v172q-27 0 -32 2q-14 6 -54.5 28.5t-64 32.5t-56.5 9t-57 -25q-7 -5 -38.5 -36.5t-31.5 -42.5q0 -16 12 -21t28.5 -0.5t32 11.5t24.5 14l41 34l11 -12l-40 -43q20 -14 35 -34q5 -1 13 -2t30.5 -3
t37.5 0q8 1 61 14q6 -8 6 -13q-42 -16 -65 -19q-31 -3 -55 -2l-24 2q-8 -25 -17 -35t-32 -13q0 -40 -30 -45v-14q114 -8 185 27q25 14 80 14zM464 305q-2 0 -18.5 -6t-30.5 -6q-40 0 -69 36q-14 -8 -14 -18t10 -19.5t20 -15.5t21 -11q65 -28 87 -28q25 0 31 17t-6.5 34
t-30.5 17zM435 429q-46 0 -249 -2q-87 0 -87 -27q0 -32 54 -35q160 -5 215 -5zM436 223q-45 11 -84 37q-25 10 -36.5 2.5t-3.5 -26.5t32 -29q48 -20 86 -20q19 0 24 15t-18 21zM411 168q-68 11 -101 34q-5 4 -10 -4.5t-4 -18.5q3 -20 35 -34.5t55 -14.5q22 0 33 9t8 18.5
t-16 10.5z" />
    <glyph glyph-name="uni261E" unicode="&#x261e;" 
d="M113 130h121v43q50 0 75 -11q51 -23 102.5 -27t93.5 0q16 -22 57 -22q37 0 76 18.5t39 50.5q0 25 -23 36q15 14 8 37.5t-28 31.5q21 17 -6 52l136 5q21 1 31.5 2t33 6t33.5 17.5t11 32.5q0 44 -109 46q-170 3 -271 2q-31 20 -76 12.5t-81.5 -28t-70.5 -36.5
q-14 -7 -31 -7v40h-121v-301zM172 155v250h37v-250h-37zM234 196v172q27 0 32 2q15 6 54.5 28.5t63.5 32.5t57 9t57 -25q1 -1 20.5 -19t34.5 -35t15 -25q0 -16 -12 -21t-28.5 -0.5t-32 11.5t-24.5 14l-41 34l-11 -12l40 -43q-20 -14 -35 -34q-5 -1 -13 -2t-31 -3t-37 0
q-8 1 -61 14q-6 -7 -6 -13q42 -16 65 -19q31 -3 55 -2l24 2q8 -25 17 -35t32 -13q0 -40 30 -45v-14q-115 -8 -185 27q-26 14 -80 14zM484 305q2 0 18.5 -6t30.5 -6q40 0 69 36q13 -8 13.5 -18t-9.5 -19.5t-20 -15.5t-21 -11q-70 -28 -87 -28q-26 0 -31.5 17t7 34t30.5 17z
M513 429q45 0 249 -2q87 0 87 -27q0 -32 -54 -35q-161 -5 -215 -5zM512 223q45 11 84 37q25 10 36.5 2.5t3.5 -26.5t-32 -29q-48 -20 -86 -20q-19 0 -24 15t18 21zM537 168q66 11 101 34q5 4 10 -4.5t4 -18.5q-3 -20 -35 -34.5t-55 -14.5q-17 0 -28 5.5t-13.5 12.5t2 13
t14.5 7z" />
    <glyph glyph-name="paragraph" unicode="&#xb6;" 
d="M634 -123h-57v808h-94v-808h-56v479q-64 0 -110 27t-65.5 68t-18.5 88.5t21 88.5t62.5 68t98.5 27h219v-846z" />
    <glyph glyph-name="dagger" unicode="&#x2020;" 
d="M580 478q-69 20 -79 20q0 -41 30 -80q23 -27 23 -28.5t-23 -37.5q-20 -33 -28 -124t-8.5 -205.5t-0.5 -120.5q-2 -30 -11 -42t-18 0t-11 42q0 6 -0.5 121t-8.5 205.5t-28 123.5q-6 10 -14 22t-8 15.5t8 12.5t14 16q29 38 29 79q-11 0 -78 -20q-32 -10 -57 -5t-34 19.5
t-11 32t11 32t34 19.5t57 -4q67 -20 79 -20q1 13 -20 86q-9 35 -4 62t19.5 37.5t31.5 13t31 -12t19.5 -37.5t-4.5 -63q-20 -71 -20 -85q9 0 21 3t30.5 8.5t28.5 8.5q45 15 73 -2t29 -44t-26.5 -45t-75.5 -3z" />
    <glyph glyph-name="daggerdbl" unicode="&#x2021;" 
d="M579 345q-65 21 -78 21q0 -40 30 -78q5 -6 11 -12.5t7 -9t3.5 -5t0 -6t-3.5 -6.5t-7 -11.5t-11 -15.5q-21 -32 -28.5 -90t-7.5 -140v-89q-2 -30 -11 -42t-18 0t-11 42q-1 12 -1 90.5t-7.5 137.5t-27.5 91l-14 21q-9 12 -9 16t9 13q8 9 14 16q29 39 29 77q-8 0 -78 -21
q-33 -9 -57.5 -4t-33 19.5t-9.5 32t12.5 31.5t33.5 18.5t54 -5.5q11 -2 39 -10.5t39 -8.5v86q-9 0 -20.5 -3t-30 -9.5t-27.5 -9.5q-28 -8 -50.5 -5t-33 13.5t-15.5 25t1.5 28.5t17.5 24.5t32.5 13t47.5 -6.5q6 -1 36 -10t42 -9q1 11 -20 84q-14 51 3 81.5t43 30.5t43 -30
t2 -82q-20 -71 -20 -83q11 0 39.5 8t39.5 10q44 16 71.5 -1t29 -43.5t-25.5 -44t-75 -3.5q-65 21 -78 21v-85q11 0 39 8.5t40 10.5q30 10 53.5 5.5t33 -18.5t12.5 -31.5t-9.5 -32t-33 -19.5t-56.5 4z" />
    <glyph glyph-name="arrowupdn" unicode="&#x2195;" 
d="M629 150l-155 -312l-156 312l107 -108v516l-107 -108l156 312l155 -312l-107 108v-516z" />
    <glyph glyph-name="uni2197" unicode="&#x2197;" 
d="M914 743l-148 -401l-2 182l-663 -666l-70 66l666 666h-187z" />
    <glyph glyph-name="uni2199" unicode="&#x2199;" 
d="M917 675l-665 -666h184l-403 -151l149 400l1 -183l664 666z" />
    <glyph glyph-name="uni2196" unicode="&#x2196;" 
d="M912 -76l-70 -66l-663 666l-2 -182l-148 401l405 -153h-187z" />
    <glyph glyph-name="uni2198" unicode="&#x2198;" 
d="M912 -142l-402 152h182l-664 666l70 65l665 -667l1 186z" />
    <glyph glyph-name="uni266D" unicode="&#x266d;" 
d="M583 201q-1 -31 -21.5 -63t-39 -48.5t-52.5 -43.5q-44 -35 -110 -107v717h34v-403q33 35 78.5 41.5t78.5 -19t32 -74.5zM513 191q0 46 -29.5 56.5t-59.5 -6.5t-30 -39v-188q6 7 33 35.5t42 46.5t29.5 45.5t14.5 49.5z" />
    <glyph glyph-name="uni2669" unicode="&#x2669;" horiz-adv-x="474" 
d="M362 23q0 -55 -54 -96q-33 -25 -67 -34t-60.5 -4t-44.5 21t-22.5 38t8.5 50t46 54q30 24 71 34t93 -4v632h30v-691z" />
    <glyph glyph-name="musicalnote" unicode="&#x266a;" 
d="M625 87h-13q22 50 33 82.5t20 78t-2 85.5t-40 76q-26 31 -62 52.5t-70 24.5v-470q0 -53 -55 -96q-31 -24 -64 -33t-59.5 -4.5t-45 20t-24 37.5t8 50t46.5 55q74 61 163 31v631h30q4 -23 6 -44.5t13 -49.5t31 -52q17 -20 50 -56t46 -51q119 -146 -12 -367z" />
    <glyph glyph-name="uni266C" unicode="&#x266c;" 
d="M775 149q0 -55 -54 -96q-33 -25 -67 -34t-60.5 -4t-44.5 21t-22.5 38t8.5 50t46 54q22 18 49.5 29.5t58.5 14t56 -12.5v212l-370 -79v-279q0 -56 -52 -97q-49 -36 -98 -38t-75.5 20.5t-21 63t54.5 79.5q19 16 45 27.5t58 14.5t60 -12v441l429 91v-504zM745 515v39
l-370 -80v-38z" />
    <glyph glyph-name="uni327F" unicode="&#x327f;" 
d="M391 -29h-121v674h121v-292l217 292h151l-231 -309l237 -365h-147l-166 264l-61 -81v-183zM244 396v-92h-216v230q0 123 66 187.5t179 64.5h401q113 0 179.5 -64.5t66.5 -187.5v-190h-110v223q0 56 -35.5 91.5t-84.5 35.5h-434q-48 0 -83 -34.5t-35 -89.5v-174h106z
M704 205v92h216v-230q0 -123 -66 -187.5t-179 -64.5h-401q-113 0 -179.5 64.5t-66.5 187.5v190h110v-223q0 -56 35.5 -91.5t84.5 -35.5h434q48 0 83 34.5t35 89.5v174h-106z" />
    <glyph glyph-name="uni321C" unicode="&#x321c;" 
d="M405 608h-188v125h512v-125h-187v-56l244 -303h-172l-140 187l-139 -187h-173l243 302v57zM542 -131h-137v203h-244v126h626v-126h-245v-203zM6 300q0 109 33 249.5t93 234.5h87q-52 -119 -78 -232t-26 -253q0 -232 104 -474h-87q-65 100 -95.5 229t-30.5 246zM941 300
q0 -117 -30.5 -246t-95.5 -229h-87q104 242 104 474q0 140 -26 253t-78 232h87q60 -94 93 -234.5t33 -249.5z" />
    <glyph glyph-name="uni2116" unicode="&#x2116;" 
d="M135 -154h-117v924h112l167 -564v564h117v-924h-110l-169 563v-563zM804 403v-385q0 -91 -53.5 -139t-121.5 -48t-121.5 48t-53.5 139v385q0 91 53.5 139t121.5 48t121.5 -47.5t53.5 -139.5zM686 54v313q0 53 -14.5 71t-42.5 18q-29 0 -43.5 -18t-14.5 -71v-313
q0 -52 14.5 -70.5t43.5 -18.5q28 0 42.5 18.5t14.5 70.5zM830 -67q0 53 11.5 80.5t47.5 27.5t47.5 -27t11.5 -81q0 -53 -12 -80t-47 -27t-47 27.5t-12 79.5z" />
    <glyph glyph-name="uni33C7" unicode="&#x33c7;" 
d="M296 79h125v-63q0 -93 -58 -139t-152 -46q-33 0 -65 11.5t-62.5 35.5t-49 68t-18.5 102v529q0 57 19.5 100t51.5 65t64.5 32t66.5 10q51 0 95 -17.5t76 -61t32 -106.5v-67h-125v39q0 26 -7 43t-20 24.5t-24 9.5t-27 2q-77 0 -77 -89v-507q0 -89 77 -89q18 0 28.5 2
t23.5 9t19.5 24t6.5 44v35zM804 403v-385q0 -91 -53.5 -139t-121.5 -48t-121.5 48t-53.5 139v385q0 91 53.5 139t121.5 48t121.5 -47.5t53.5 -139.5zM686 54v313q0 53 -14.5 71t-42.5 18q-29 0 -43.5 -18t-14.5 -71v-313q0 -52 14.5 -70.5t43.5 -18.5q28 0 42.5 18.5
t14.5 70.5zM830 -67q0 53 11.5 80.5t47.5 27.5t47.5 -27t11.5 -81q0 -53 -12 -80t-47 -27t-47 27.5t-12 79.5z" />
    <glyph glyph-name="trademark" unicode="&#x2122;" 
d="M848 282h-107v205l-64 -170h-66l-64 170v-205h-108v518h101l104 -317l103 317h101v-518zM297 282h-110v424h-121v94h352v-94h-121v-424z" />
    <glyph glyph-name="uni33C2" unicode="&#x33c2;" 
d="M6 59v299q0 102 38 162.5t103 60.5q41 0 65 -32v24h98v-727h-94v33q-29 -44 -75 -44q-64 0 -99.5 58t-35.5 166zM104 353v-295q0 -49 13 -67t38 -18t41.5 19.5t16.5 52.5v323q0 37 -14.5 56.5t-38.5 19.5q-27 0 -41.5 -20.5t-14.5 -70.5zM850 -154h-98v512q0 84 -32 84
q-33 0 -33 -68v-528h-98v523q0 39 -8 56t-26 17q-15 0 -23.5 -20t-8.5 -49v-527h-98v722h98v-33q23 41 63 41q38 0 66 -44q30 46 86 46q46 0 79 -53t33 -148v-531zM866 -97q0 51 8 74.5t33 23.5q26 0 33.5 -23t7.5 -75q0 -51 -8 -74t-33 -23t-33 23t-8 74zM325 -97
q0 51 8 74.5t33 23.5q26 0 33.5 -23t7.5 -75q0 -51 -8 -74t-33 -23t-33 23t-8 74z" />
    <glyph glyph-name="uni33D8" unicode="&#x33d8;" 
d="M344 360v-189q0 -98 -40 -160.5t-108 -62.5q-48 0 -77 30v-198h-99v788h95v-25q29 41 81 41q67 0 107.5 -58.5t40.5 -165.5zM247 176v185q0 48 -19.5 68t-45.5 20q-25 0 -44 -21t-19 -54v-213q0 -37 17.5 -59.5t40.5 -22.5q29 0 49.5 24t20.5 73zM850 -154h-98v512
q0 84 -32 84q-33 0 -33 -68v-528h-98v523q0 39 -8 56t-26 17q-15 0 -23.5 -20t-8.5 -49v-527h-98v722h98v-33q23 41 63 41q38 0 66 -44q30 46 86 46q46 0 79 -53t33 -148v-531zM866 -97q0 51 8 74.5t33 23.5q26 0 33.5 -23t7.5 -75q0 -51 -8 -74t-33 -23t-33 23t-8 74z
M317 -97q0 51 8 74.5t33 23.5q26 0 33.5 -23t7.5 -75q0 -51 -8 -74t-33 -23t-33 23t-8 74z" />
    <glyph glyph-name="uni2121" unicode="&#x2121;" 
d="M611 59h116v-31q0 -94 -49 -145.5t-139 -51.5q-73 0 -126 54t-53 163v334q0 108 55.5 157.5t127.5 49.5q75 0 129.5 -48.5t54.5 -136.5v-276h-249v-79q0 -87 65 -87q33 0 50.5 14.5t17.5 63.5v19zM268 -154h-127v787h-142v137h430v-137h-161v-787zM927 -154h-126v934h126
v-934zM478 368v-110h131v120q0 41 -19.5 62t-46.5 21q-65 0 -65 -93z" />
    <glyph glyph-name="uniFF01" unicode="&#xff01;" 
d="M553 114h-158l-16 665h190zM364 -63q0 46 32 78t78 32t78 -32t32 -78t-32 -77.5t-78 -31.5t-78 31.5t-32 77.5z" />
    <glyph glyph-name="uniFF02" unicode="&#xff02;" 
d="M646 800l-20 -267h-123l-17 267h160zM461 800l-19 -267h-123l-18 267h160z" />
    <glyph glyph-name="uniFF03" unicode="&#xff03;" 
d="M630 87l-66 -228h-170l66 228h-114l-66 -228h-170l66 228h-106v134h145l64 217h-155v135h194l55 185h170l-55 -185h114l55 185h170l-55 -185h106v-135h-145l-64 -217h155v-134h-194zM449 438l-64 -217h114l64 217h-114z" />
    <glyph glyph-name="uniFF04" unicode="&#xff04;" 
d="M539 -195h-113v71q-99 9 -165 57t-66 142v46h164v-32q0 -61 67 -77v260l-61 28q-24 9 -53 23.5t-53.5 30.5t-41.5 43.5t-17 61.5v93q0 60 36.5 102t84 60t105.5 24v62h113v-64q87 -14 145.5 -60t58.5 -120v-45h-164v18q0 50 -40 69v-213l45 -23q31 -14 61.5 -30.5
t54.5 -33.5t38.5 -43t14.5 -59v-129q0 -78 -57 -127t-157 -62v-73zM589 91v57q0 29 -12.5 44.5t-37.5 27.5v-202q50 24 50 73zM363 531v-17q0 -26 15 -40.5t48 -31.5v163q-63 -13 -63 -74z" />
    <glyph glyph-name="uniFF05" unicode="&#xff05;" 
d="M418 596v-124q0 -96 -47 -138t-148 -42q-98 0 -144.5 42.5t-46.5 137.5v124q0 95 46.5 137.5t146.5 42.5t146.5 -42.5t46.5 -137.5zM750 769l-384 -923h-164l384 923h164zM269 470v128q0 30 -10 42.5t-36 12.5q-24 0 -33.5 -12.5t-9.5 -42.5v-128q0 -30 9.5 -42.5
t33.5 -12.5q26 0 36 12.5t10 42.5zM915 136v-124q0 -96 -47 -138t-148 -42q-98 0 -144.5 42.5t-46.5 137.5v124q0 95 46.5 137.5t146.5 42.5t146.5 -42.5t46.5 -137.5zM766 10v128q0 30 -10 42.5t-36 12.5q-24 0 -33.5 -12.5t-9.5 -42.5v-128q0 -30 9.5 -42.5t33.5 -12.5
q26 0 36 12.5t10 42.5z" />
    <glyph glyph-name="uniFF06" unicode="&#xff06;" 
d="M859 -138h-197l-49 65q-105 -75 -237 -75q-133 0 -210.5 67.5t-77.5 192.5q0 72 44.5 132.5t134.5 131.5q-37 46 -66 100t-29 90q0 52 15 91t38 61.5t57.5 36t67 18t73.5 4.5q94 0 157.5 -50.5t61.5 -160.5q0 -117 -147 -222l142 -199q34 39 40 84h170
q-15 -67 -45.5 -121t-64.5 -85zM519 42l-160 219q-40 -35 -58.5 -53t-34 -45t-15.5 -55q0 -118 130 -118q82 0 138 52zM480 566q0 79 -67 79q-73 0 -73 -79q0 -13 18.5 -45.5t44.5 -64.5q77 60 77 110z" />
    <glyph glyph-name="uniFF07" unicode="&#xff07;" 
d="M560 800l-20 -267h-135l-17 267h172z" />
    <glyph glyph-name="uniFF08" unicode="&#xff08;" horiz-adv-x="474" 
d="M444 -181h-145q-54 88 -80.5 222.5t-26.5 258.5q0 122 26.5 258t77.5 226h148q-43 -80 -66 -214.5t-23 -262.5t23.5 -266.5t65.5 -221.5z" />
    <glyph glyph-name="uniFF09" unicode="&#xff09;" horiz-adv-x="474" 
d="M283 300q0 -124 -26.5 -258.5t-80.5 -222.5h-145q42 83 65.5 221.5t23.5 266.5t-23 262.5t-66 214.5h148q51 -90 77.5 -226t26.5 -258z" />
    <glyph glyph-name="uniFF0A" unicode="&#xff0a;" 
d="M209 627l74 123l118 -75l-4 119h148l-2 -118l124 74l69 -124l-140 -72l143 -73l-74 -118l-124 74l4 -130h-148l4 127l-116 -72l-76 119l141 74z" />
    <glyph glyph-name="uniFF0B" unicode="&#xff0b;" 
d="M555 81h-167v180h-157v137h157v170h167v-170h161v-137h-161v-180z" />
    <glyph glyph-name="uniFF0C" unicode="&#xff0c;" 
d="M581 -7q8 -117 -122 -213l-81 27q57 44 61 87q-30 5 -49.5 28.5t-22.5 62.5q-3 35 22.5 66.5t65.5 39.5q51 11 87 -21t39 -77z" />
    <glyph glyph-name="uniFF0D" unicode="&#xff0d;" 
d="M691 259h-435v141h435v-141z" />
    <glyph glyph-name="uniFF0E" unicode="&#xff0e;" 
d="M364 -59q0 46 32.5 79.5t77.5 33.5t77.5 -33.5t32.5 -79.5t-32.5 -79.5t-77.5 -33.5t-77.5 33.5t-32.5 79.5z" />
    <glyph glyph-name="uniFF0F" unicode="&#xff0f;" 
d="M723 770l-333 -924h-166l333 924h166z" />
    <glyph glyph-name="uniFF10" unicode="&#xff10;" 
d="M741 597v-579q0 -47 -26 -84.5t-67 -59t-86 -32.5t-89 -11q-60 0 -118.5 18t-103.5 62.5t-45 106.5v579q0 62 45 106.5t103.5 62.5t118.5 18q61 0 119.5 -18t103.5 -62.5t45 -106.5zM574 54v507q0 89 -101 89q-100 0 -100 -89v-507q0 -89 100 -89q101 0 101 89z" />
    <glyph glyph-name="uniFF11" unicode="&#xff11;" 
d="M668 -154h-170v730l-156 -79l-62 121l253 152h135v-924z" />
    <glyph glyph-name="uniFF12" unicode="&#xff12;" 
d="M752 -154h-522v146l300 394q41 55 41 120v51q0 39 -27 66.5t-82 27.5q-53 0 -79.5 -28.5t-26.5 -67.5v-99h-160v97q0 102 75.5 167t190.5 65q119 0 194.5 -58t75.5 -167v-74q0 -91 -57 -165l-257 -338h334v-137z" />
    <glyph glyph-name="uniFF13" unicode="&#xff13;" 
d="M367 532h-162q5 129 74.5 192t191.5 61q119 0 188.5 -58.5t69.5 -150.5v-66q0 -91 -84 -163q51 -29 80.5 -80t29.5 -104v-73q0 -116 -75 -187.5t-228 -71.5q-116 0 -187 66.5t-72 193.5h161q1 -65 26.5 -93t76.5 -28q132 0 132 124v75q0 44 -32.5 75.5t-88.5 31.5h-67
v135h56q58 0 82.5 34t24.5 81v30q0 44 -25.5 69t-77.5 25q-94 0 -94 -118z" />
    <glyph glyph-name="uniFF14" unicode="&#xff14;" 
d="M181 134l334 641h166v-634h85v-137h-85v-158h-154v158h-346v130zM349 141h178v378z" />
    <glyph glyph-name="uniFF15" unicode="&#xff15;" 
d="M741 254v-190q0 -101 -80 -167t-199 -66q-110 0 -178 62.5t-77 186.5h159q6 -59 29 -85.5t68 -26.5q51 0 82 27.5t31 81.5v155q0 50 -30.5 78t-74.5 28q-37 0 -61 -20t-31 -51h-163l66 503h445v-137h-304l-24 -185q38 23 82 25q109 5 184.5 -52.5t75.5 -166.5z" />
    <glyph glyph-name="uniFF16" unicode="&#xff16;" 
d="M746 271v-222q0 -95 -77.5 -156.5t-195.5 -61.5q-120 0 -195.5 62.5t-75.5 152.5v218q0 42 13.5 89.5t29.5 76.5l182 339h181l-154 -293q22 9 61 9q94 0 162.5 -61.5t68.5 -152.5zM580 58v213q0 29 -30 55t-77 26q-45 0 -75 -28.5t-30 -57.5v-210q0 -35 29 -63.5
t76 -28.5t77 29t30 65z" />
    <glyph glyph-name="uniFF17" unicode="&#xff17;" 
d="M746 631l-255 -785h-184l270 787h-376v137h545v-139z" />
    <glyph glyph-name="uniFF18" unicode="&#xff18;" 
d="M471 -169q-132 0 -208 67.5t-76 184.5v73q0 55 28 108.5t76 82.5q-35 32 -57.5 75.5t-22.5 85.5v47q0 104 70 167t190 63q123 0 194.5 -63t71.5 -167v-47q0 -42 -23 -85.5t-58 -75.5q49 -29 77 -82.5t28 -108.5v-73q0 -117 -78 -184.5t-212 -67.5zM471 280
q-57 1 -89.5 -30t-32.5 -83v-86q0 -57 31.5 -87.5t90.5 -30.5q62 0 94.5 30.5t32.5 87.5v86q0 50 -33.5 81.5t-93.5 31.5zM471 652q-48 0 -73 -29t-25 -80v-19q0 -57 22 -86.5t76 -29.5q58 0 81 29.5t23 86.5v19q0 109 -104 109z" />
    <glyph glyph-name="uniFF19" unicode="&#xff19;" 
d="M202 344v223q0 95 78.5 156.5t196.5 61.5q120 0 194.5 -62.5t74.5 -152.5v-241q0 -53 -48 -152l-159 -331h-183l142 285q-22 -11 -61 -11q-93 0 -164 66.5t-71 157.5zM368 558v-224q0 -29 30.5 -55t78.5 -26q45 0 74 28.5t29 57.5v221q0 35 -28 63.5t-75 28.5
q-48 0 -78.5 -29t-30.5 -65z" />
    <glyph glyph-name="uniFF1A" unicode="&#xff1a;" 
d="M364 558q0 46 32 78t78 32t78 -32t32 -78t-32 -78t-78 -32t-78 32t-32 78zM364 104q0 46 32 78t78 32t78 -32t32 -78t-32 -78t-78 -32t-78 32t-32 78z" />
    <glyph glyph-name="uniFF1B" unicode="&#xff1b;" 
d="M364 558q0 46 32 78t78 32t78 -32t32 -78t-32 -78t-78 -32t-78 32t-32 78zM581 120q5 -74 -35.5 -136.5t-86.5 -96.5l-71 25q53 49 59 109q-31 6 -54 29.5t-26 61.5q-3 35 22.5 66.5t65.5 39.5q51 11 87 -21t39 -77z" />
    <glyph glyph-name="uniFF1C" unicode="&#xff1c;" 
d="M948 778v-203l-302 -274l302 -274v-204l-472 425v105z" />
    <glyph glyph-name="uniFF1D" unicode="&#xff1d;" 
d="M691 408h-435v137h435v-137zM691 114h-435v137h435v-137z" />
    <glyph glyph-name="uniFF1E" unicode="&#xff1e;" 
d="M474 248l-474 -426v205l303 274l-303 274v202l474 -424v-105z" />
    <glyph glyph-name="uniFF1F" unicode="&#xff1f;" 
d="M754 550q0 -109 -44.5 -174t-138.5 -103q-15 -6 -23.5 -17.5t-10 -23t-2.5 -22.5t0 -16v-85h-170v79q0 92 24 136t85 68q115 43 115 158q0 104 -112 104q-60 0 -88.5 -29.5t-28.5 -103.5h-167q0 145 75 207.5t214 62.5q272 0 272 -241zM338 -63q0 46 32 78t78 32t78 -32
t32 -78t-32 -77.5t-78 -31.5t-78 31.5t-32 77.5z" />
    <glyph glyph-name="uniFF20" unicode="&#xff20;" 
d="M890 497v-383q0 -123 -72 -196.5t-184 -73.5h-321q-111 0 -183 73.5t-72 196.5v383q0 124 71.5 198t183.5 74h321q112 0 184 -74t72 -198zM750 101v410q0 57 -33 96.5t-81 39.5h-325q-46 0 -79.5 -39.5t-33.5 -96.5v-410q0 -55 34 -95t79 -40h325q51 0 82.5 38.5
t31.5 96.5zM242 217v164q0 85 48.5 138t142.5 53q67 0 101 -23v21h147v-533h-141v23q-40 -34 -108 -34q-84 0 -137 51.5t-53 139.5zM388 354v-115q0 -85 77 -85q70 0 70 77v133q0 81 -72 81q-37 0 -56 -20.5t-19 -70.5z" />
    <glyph glyph-name="uniFF21" unicode="&#xff21;" 
d="M670 -154l-55 223h-284l-54 -223h-171l233 924h269l233 -924h-171zM473 649l-108 -443h216z" />
    <glyph glyph-name="uniFF22" unicode="&#xff22;" 
d="M753 568v-58q0 -43 -21.5 -87.5t-56.5 -75.5q48 -31 77 -77t29 -97v-89q0 -116 -71 -177t-197 -61h-347v924h310q131 0 204 -51t73 -151zM614 78v101q0 96 -130 96h-151v-292h145q71 0 103.5 20.5t32.5 74.5zM586 516v29q0 50 -26.5 69t-99.5 19h-127v-221h140
q67 0 90 24t23 80z" />
    <glyph glyph-name="uniFF23" unicode="&#xff23;" 
d="M592 79h167v-63q0 -93 -81 -139t-215 -46q-47 0 -92.5 11.5t-88 35.5t-68.5 68t-26 102v529q0 58 27.5 100.5t72.5 64.5t91 32t94 10q53 0 101.5 -10.5t91 -31.5t68 -58t25.5 -85v-67h-167v39q0 26 -11 43t-31 24.5t-37 9.5t-40 2q-118 0 -118 -89v-507q0 -89 118 -89
q26 0 42 2t36.5 9t30.5 24t10 44v35z" />
    <glyph glyph-name="uniFF24" unicode="&#xff24;" 
d="M772 511v-407q0 -119 -70.5 -188.5t-196.5 -69.5h-330v924h330q125 0 196 -71.5t71 -187.5zM605 98v419q0 54 -35 85t-104 31h-124v-650h124q139 0 139 115z" />
    <glyph glyph-name="uniFF25" unicode="&#xff25;" 
d="M728 -154h-509v924h509v-137h-342v-245h341v-137h-341v-268h342v-137z" />
    <glyph glyph-name="uniFF26" unicode="&#xff26;" 
d="M376 -154h-167v924h529v-137h-362v-275h344v-137h-344v-375z" />
    <glyph glyph-name="uniFF27" unicode="&#xff27;" 
d="M473 -35q26 0 43.5 2t40 9t34.5 24t12 44v202h-139v137h304v-367q0 -93 -85 -139t-220 -46q-47 0 -94 11.5t-91 35.5t-71.5 68t-27.5 102v529q0 57 29 100t75.5 65t94 32t95.5 10q73 0 137 -17.5t111 -61t47 -106.5v-77h-167v49q0 79 -128 79q-31 0 -56.5 -5.5t-48 -27
t-22.5 -56.5v-507q0 -35 22.5 -56t48.5 -27t56 -6z" />
    <glyph glyph-name="uniFF28" unicode="&#xff28;" 
d="M761 -154h-167v435h-241v-435h-167v924h167v-352h241v352h167v-924z" />
    <glyph glyph-name="uniFF29" unicode="&#xff29;" 
d="M557 -154h-167v924h167v-924z" />
    <glyph glyph-name="uniFF2A" unicode="&#xff2a;" 
d="M479 770h168v-582q0 -47 -11 -96t-37 -100.5t-64.5 -93.5t-99 -71.5t-134.5 -36.5v144q178 46 178 262v574z" />
    <glyph glyph-name="uniFF2B" unicode="&#xff2b;" 
d="M318 -154h-167v924h167v-409l276 409h191l-278 -412l289 -512h-194l-195 364l-89 -133v-231z" />
    <glyph glyph-name="uniFF2C" unicode="&#xff2c;" 
d="M731 -154h-514v924h167v-787h347v-137z" />
    <glyph glyph-name="uniFF2D" unicode="&#xff2d;" 
d="M834 -154h-160v493l-153 -428h-94l-153 428v-493h-160v924h151l209 -626l209 626h151v-924z" />
    <glyph glyph-name="uniFF2E" unicode="&#xff2e;" 
d="M338 -154h-162v924h160l273 -584v584h162v-924h-158l-275 583v-583z" />
    <glyph glyph-name="uniFF2F" unicode="&#xff2f;" 
d="M757 597v-579q0 -62 -48 -106.5t-110.5 -62.5t-125.5 -18t-125 18t-110 62.5t-48 106.5v579q0 62 48 106.5t110 62.5t125 18q64 0 126 -18t110 -62.5t48 -106.5zM590 54v507q0 89 -117 89q-116 0 -116 -89v-507q0 -89 116 -89q117 0 117 89z" />
    <glyph glyph-name="uniFF30" unicode="&#xff30;" 
d="M360 -154h-167v924h284q131 0 204 -51t73 -152v-247q0 -109 -74.5 -172t-202.5 -63h-117v-239zM587 326v219q0 50 -26.5 69t-99.5 19h-101v-411h114q67 0 90 24t23 80z" />
    <glyph glyph-name="uniFF31" unicode="&#xff31;" 
d="M702 597v-579q0 -30 -11 -55l116 -143h-178l-39 48q-78 -37 -169 -37q-63 0 -124.5 18t-108.5 62.5t-47 106.5v579q0 62 47 106.5t108.5 62.5t124.5 18q46 0 93 -11t90.5 -32.5t70.5 -59t27 -84.5zM535 54v507q0 89 -114 89q-113 0 -113 -89v-507q0 -89 113 -89
q114 0 114 89z" />
    <glyph glyph-name="uniFF32" unicode="&#xff32;" 
d="M335 -154h-167v924h284q132 0 209.5 -51.5t77.5 -151.5v-172q0 -117 -90 -180l130 -369h-172l-105 316q-16 -2 -50 -2h-117v-314zM572 401v144q0 49 -30.5 68.5t-105.5 19.5h-101v-336h114q68 0 95.5 25t27.5 79z" />
    <glyph glyph-name="uniFF33" unicode="&#xff33;" 
d="M193 114h167v-60q0 -89 123 -89q46 0 75.5 24.5t29.5 64.5v66q0 47 -16 71t-51 41l-160 73q-33 15 -55 28t-49 35t-41 51t-14 65v103q0 55 26 96t69 61.5t88 30t93 9.5q110 0 190.5 -50.5t80.5 -144.5v-65h-167v37q0 89 -105 89q-44 0 -76 -23.5t-32 -75.5v-13
q1 -35 17.5 -56t53.5 -40l153 -77q43 -22 64 -34t48 -34.5t38.5 -49.5t11.5 -62v-151q0 -97 -74 -150t-208 -53q-51 0 -97.5 11t-89 34t-68 66t-25.5 101v71z" />
    <glyph glyph-name="uniFF34" unicode="&#xff34;" 
d="M557 -154h-167v787h-224v137h615v-137h-224v-787z" />
    <glyph glyph-name="uniFF35" unicode="&#xff35;" 
d="M587 770h167v-752q0 -62 -47.5 -106.5t-109 -62.5t-124.5 -18t-124.5 18t-108.5 62.5t-47 106.5v752h167v-716q0 -89 113 -89q114 0 114 89v716z" />
    <glyph glyph-name="uniFF36" unicode="&#xff36;" 
d="M324 770l149 -648l150 648h174l-243 -924h-161l-243 924h174z" />
    <glyph glyph-name="uniFF37" unicode="&#xff37;" 
d="M538 770l106 -591l92 591h163l-172 -924h-141l-112 553l-112 -553h-141l-172 924h163l91 -591l107 591h128z" />
    <glyph glyph-name="uniFF38" unicode="&#xff38;" 
d="M385 297l-236 473h176l148 -297l149 297h176l-237 -473l226 -451h-176l-138 275l-137 -275h-176z" />
    <glyph glyph-name="uniFF39" unicode="&#xff39;" 
d="M557 -154h-167v321l-263 603h174l172 -418l173 418h174l-263 -603v-321z" />
    <glyph glyph-name="uniFF3A" unicode="&#xff3a;" 
d="M761 -154h-574v114l374 673h-359v137h552v-113l-371 -674h378v-137z" />
    <glyph glyph-name="uniFF3B" unicode="&#xff3b;" horiz-adv-x="474" 
d="M434 -190h-277v983h277v-123h-117v-737h117v-123z" />
    <glyph glyph-name="uniFFE6" unicode="&#xffe6;" 
d="M557 -154l-333 924h166l333 -924h-166z" />
    <glyph glyph-name="uniFF3D" unicode="&#xff3d;" horiz-adv-x="474" 
d="M317 -190h-277v123h117v737h-117v123h277v-983z" />
    <glyph glyph-name="uniFF3E" unicode="&#xff3e;" 
d="M762 400h-173l-116 217l-116 -217h-172l227 400h123z" />
    <glyph glyph-name="uniFF3F" unicode="&#xff3f;" 
d="M711 -154h-475v137h475v-137z" />
    <glyph glyph-name="uniFF40" unicode="&#xff40;" 
d="M601 547h-130l-124 253h199z" />
    <glyph glyph-name="uniFF41" unicode="&#xff41;" 
d="M215 59v299q0 102 62 162.5t170 60.5q74 0 122 -36v28h164v-727h-158v33q-52 -44 -129 -44q-111 0 -171 58t-60 166zM379 353v-295q0 -85 90 -85q43 0 72.5 19.5t29.5 52.5v323q0 37 -26.5 56.5t-66.5 19.5q-99 0 -99 -91z" />
    <glyph glyph-name="uniFF42" unicode="&#xff42;" 
d="M735 362v-303q0 -108 -63 -166t-175 -58q-72 0 -127 36v-25h-158v934h164v-225q50 30 120 30q115 0 180 -62.5t59 -160.5zM571 58v299q0 94 -106 94q-39 0 -64 -20.5t-25 -58.5v-327q0 -33 28 -52.5t70 -19.5q97 0 97 85z" />
    <glyph glyph-name="uniFF43" unicode="&#xff43;" 
d="M564 79h164v-51q0 -95 -65.5 -146t-192.5 -51q-104 0 -177.5 54t-73.5 163v334q0 57 23.5 99t62.5 65t81.5 33.5t88.5 10.5q105 0 179 -49t74 -137v-67h-164v39q0 42 -25 61t-64 19q-92 0 -92 -90v-312q0 -89 92 -89q46 0 67.5 15t21.5 64v35z" />
    <glyph glyph-name="uniFF44" unicode="&#xff44;" 
d="M212 59v304q0 104 62 163.5t176 59.5q66 0 121 -34v228h164v-934h-158v25q-55 -36 -128 -36q-111 0 -174 58t-63 166zM376 361v-303q0 -85 96 -85q42 0 70.5 19.5t28.5 52.5v331q0 37 -25.5 56.5t-64.5 19.5q-105 0 -105 -91z" />
    <glyph glyph-name="uniFF45" unicode="&#xff45;" 
d="M570 59h159v-31q0 -95 -66.5 -146t-194.5 -51q-103 0 -176 54t-73 163v334q0 57 23 99t61.5 64.5t81 33t88.5 10.5q106 0 181 -48.5t75 -136.5v-276h-348v-79q0 -87 92 -87q48 0 72.5 14.5t24.5 63.5v19zM380 368v-110h188v120q0 41 -27.5 62t-67.5 21q-41 0 -67 -22
t-26 -71z" />
    <glyph glyph-name="uniFF46" unicode="&#xff46;" 
d="M696 774v-141q-55 22 -112 20q-48 -2 -48 -70v-34h160v-137h-160v-566h-164v566h-120v137h120v46q0 99 54.5 147t132.5 51q75 2 137 -19z" />
    <glyph glyph-name="uniFF47" unicode="&#xff47;" 
d="M739 573v-585q0 -89 -65.5 -148.5t-210.5 -59.5q-101 0 -161 42.5t-76 143.5h166q7 -54 83 -54q43 0 71.5 18.5t28.5 53.5v57q-17 -17 -52.5 -26t-63.5 -9q-131 0 -191 56t-60 147v185q0 91 71 143t160 52q100 0 136 -45v29h164zM575 236v118q0 46 -26 74t-78 28
q-53 0 -76 -25t-23 -74v-125q0 -47 24.5 -68.5t79.5 -21.5q99 0 99 94z" />
    <glyph glyph-name="uniFF48" unicode="&#xff48;" 
d="M374 366v-520h-164v934h164v-226q49 25 125 25q113 0 176 -60.5t63 -162.5v-510h-164v505q0 91 -105 91q-40 0 -67.5 -19.5t-27.5 -56.5z" />
    <glyph glyph-name="uniFF49" unicode="&#xff49;" 
d="M555 -154h-163v656h163v-656zM364 684q0 46 32 78t78 32t78 -32t32 -78t-32 -77.5t-78 -31.5t-78 31.5t-32 77.5z" />
    <glyph glyph-name="uniFF4A" unicode="&#xff4a;" 
d="M443 510h165v-362q0 -61 -14 -118.5t-46 -113t-93 -92.5t-144 -44v144q42 10 69 34t40.5 61t18 75.5t4.5 91.5v324zM416 684q0 46 32 78t78 32t78 -32t32 -78t-32 -77.5t-78 -31.5t-78 31.5t-32 77.5z" />
    <glyph glyph-name="uniFF4B" unicode="&#xff4b;" 
d="M330 -154h-164v934h164v-501l232 289h209l-268 -322l278 -400h-200l-184 273l-67 -81v-192z" />
    <glyph glyph-name="uniFF4C" unicode="&#xff4c;" 
d="M556 -154h-165v934h165v-934z" />
    <glyph glyph-name="uniFF4D" unicode="&#xff4d;" 
d="M828 -154h-164v512q0 84 -54 84q-28 0 -41.5 -19t-13.5 -49v-528h-163v523q0 39 -13 56t-43 17q-25 0 -39 -20t-14 -49v-527h-164v722h164v-33q14 16 42.5 28.5t62.5 12.5q25 0 57 -12t53 -32q49 46 143 46q76 0 131.5 -53t55.5 -148v-531z" />
    <glyph glyph-name="uniFF4E" unicode="&#xff4e;" 
d="M379 360v-514h-164v722h164v-41q22 22 57 35.5t68 13.5q112 0 170.5 -60t58.5 -163v-507h-164v502q0 91 -95 91q-41 0 -68 -20.5t-27 -58.5z" />
    <glyph glyph-name="uniFF4F" unicode="&#xff4f;" 
d="M734 403v-385q0 -62 -42.5 -106t-99.5 -62.5t-119 -18.5q-45 0 -89 11t-83.5 32.5t-63.5 59t-24 84.5v385q0 47 24 84.5t63.5 59t83.5 32.5t89 11q62 0 119 -18t99.5 -62.5t42.5 -106.5zM570 54v313q0 89 -97 89q-44 0 -70 -18.5t-26 -70.5v-313q0 -89 96 -89q97 0 97 89
z" />
    <glyph glyph-name="uniFF50" unicode="&#xff50;" 
d="M735 360v-189q6 -98 -59 -160.5t-180 -62.5q-70 0 -120 30v-198h-164v788h158v-25q49 41 127 41q112 0 175 -58t63 -166zM574 176v185q0 88 -100 88q-42 0 -70 -20.5t-28 -54.5v-213q0 -38 25.5 -60t63.5 -22q47 0 78 23.5t31 73.5z" />
    <glyph glyph-name="uniFF51" unicode="&#xff51;" 
d="M213 171v189q0 108 63 166t175 58q78 0 127 -41v25h158v-788h-164v198q-50 -30 -120 -30q-115 0 -180 62.5t-59 160.5zM374 361v-185q0 -50 31 -73.5t78 -23.5q38 0 63.5 22t25.5 60v213q0 34 -28 54.5t-70 20.5q-100 0 -100 -88z" />
    <glyph glyph-name="uniFF52" unicode="&#xff52;" 
d="M659 580v-150q-95 4 -151 -50t-56 -125v-409h-163v722h163v-67q71 89 207 79z" />
    <glyph glyph-name="uniFF53" unicode="&#xff53;" 
d="M229 93h161v-69q0 -31 27.5 -46t68.5 -15q34 0 54 19.5t20 45.5v32q0 46 -64 75l-124 54q-33 15 -49 23.5t-43.5 27.5t-40 43t-12.5 54v83q0 48 21.5 83.5t57.5 55t75.5 28.5t82.5 9q100 0 173.5 -44.5t73.5 -125.5v-63h-161v41q0 31 -25.5 45.5t-60.5 14.5
q-32 0 -53.5 -18.5t-21.5 -52.5v-16q0 -36 60 -64l108 -51q39 -20 75.5 -35.5t62 -45t25.5 -68.5v-101q0 -84 -63.5 -132t-183.5 -48q-46 0 -87 9.5t-77.5 30t-58 57.5t-21.5 86v78z" />
    <glyph glyph-name="uniFF54" unicode="&#xff54;" 
d="M361 428h-109v137h109v215h164v-215h171v-137h-171v-385q0 -68 48 -70q69 -3 122 24v-141q-65 -25 -147 -23q-78 3 -132.5 51t-54.5 147v397z" />
    <glyph glyph-name="uniFF55" unicode="&#xff55;" 
d="M565 568h164v-550q0 -47 -23.5 -84.5t-62 -59t-82 -32.5t-88.5 -11q-61 0 -117 18.5t-97 62.5t-41 106v550h164v-514q0 -52 24 -70.5t67 -18.5q42 0 67 19t25 70v514z" />
    <glyph glyph-name="uniFF56" unicode="&#xff56;" 
d="M344 568l129 -489l130 489h171l-222 -722h-157l-222 722h171z" />
    <glyph glyph-name="uniFF57" unicode="&#xff57;" 
d="M532 568l72 -434l76 434h163l-148 -722h-139l-82 401l-82 -401h-139l-149 722h164l75 -434l73 434h116z" />
    <glyph glyph-name="uniFF58" unicode="&#xff58;" 
d="M386 206l-207 362h174l120 -210l121 210h174l-208 -362l207 -360h-174l-120 208l-119 -208h-174z" />
    <glyph glyph-name="uniFF59" unicode="&#xff59;" 
d="M569 568h164v-554q0 -48 -12 -87.5t-39.5 -74t-79.5 -54t-126 -19.5q-218 0 -244 191h166q4 -32 25 -45.5t64 -13.5q82 0 82 77v68q-42 -38 -114 -38q-128 0 -184.5 58.5t-56.5 155.5v336h164v-321q0 -50 22 -72.5t75 -22.5q44 0 69 23.5t25 70.5v322z" />
    <glyph glyph-name="uniFF5A" unicode="&#xff5a;" 
d="M729 -154h-510v114l306 471h-293v137h492v-113l-303 -472h308v-137z" />
    <glyph glyph-name="uniFF5B" unicode="&#xff5b;" horiz-adv-x="474" 
d="M433 -189h-48q-202 0 -202 188v139q0 76 -18 96q-17 17 -95 17v122q49 0 67.5 3.5t27.5 12.5q18 23 18 98v117q0 188 204 188h46v-121q-58 0 -75.5 -14t-17.5 -65v-134q0 -108 -67 -144q67 -44 67 -148v-157q2 -51 17 -64t76 -13v-121z" />
    <glyph glyph-name="uniFF5C" unicode="&#xff5c;" 
d="M557 -164h-167v944h167v-944z" />
    <glyph glyph-name="uniFF5D" unicode="&#xff5d;" horiz-adv-x="474" 
d="M88 -189h-48v121q61 0 76 13t17 64v157q0 104 67 148q-67 36 -67 144v134q0 51 -17.5 65t-75.5 14v121h46q204 0 204 -188v-117q0 -75 18 -98q9 -9 27.5 -12.5t67.5 -3.5v-122q-78 0 -95 -17q-18 -20 -18 -96v-139q0 -188 -202 -188z" />
    <glyph glyph-name="uniFFE3" unicode="&#xffe3;" 
d="M901 663h-855v137h855v-137z" />
    <glyph glyph-name="uni3131" unicode="&#x3131;" 
d="M816 580v-254q0 -88 -13 -169.5t-25 -118.5l-13 -37h-169q6 18 16 50t26 118.5t16 159.5v119h-531v132h693z" />
    <glyph glyph-name="uni3132" unicode="&#x3132;" 
d="M854 586v-240q0 -88 -12 -171t-24 -123l-11 -39h-169q6 18 15 49t24 119t15 167v106h-192v132h354zM452 586v-226q0 -70 -11.5 -139.5t-25 -112t-25.5 -68.5l-11 -27h-173q10 19 24 51.5t37.5 122.5t23.5 166v101h-197v132h358z" />
    <glyph glyph-name="uni3133" unicode="&#x3133;" 
d="M922 13h-166l-88 209l-88 -209h-165l171 387v185h161v-184zM442 586v-226q0 -70 -11.5 -139.5t-25 -112t-25.5 -68.5l-11 -27h-173q10 19 24 51.5t37.5 122.5t23.5 166v101h-239v132h400z" />
    <glyph glyph-name="uni3134" unicode="&#x3134;" 
d="M847 214v-135q-207 -48 -548 -48h-175v545h164v-410h52q119 0 263 12.5t244 35.5z" />
    <glyph glyph-name="uni3135" unicode="&#x3135;" 
d="M604 449h-154v130h459v-130h-148v-91l166 -345h-162l-84 182l-82 -182h-164l169 345v91zM454 220v-137q-117 -51 -316 -51h-77v540h160v-400q136 7 233 48z" />
    <glyph glyph-name="uni3136" unicode="&#x3136;" 
d="M902 164q0 -68 -47 -112t-123 -44h-94q-75 0 -121.5 43.5t-46.5 111.5q0 69 46.5 115t121.5 46h94q75 0 122.5 -45.5t47.5 -114.5zM662 118h49q20 0 33.5 12.5t13.5 33.5q0 50 -47 50h-49q-20 0 -32 -13t-12 -37q0 -23 12.5 -34.5t31.5 -11.5zM913 348h-486v115h486v-115
zM838 488h-300v112h300v-112zM454 220v-136q-119 -52 -307 -52h-77v522h161v-383q124 9 223 49z" />
    <glyph glyph-name="uni3137" unicode="&#x3137;" 
d="M819 444h-533v-287h51q117 0 263 12.5t247 35.5v-135q-203 -47 -548 -47h-175v553h695v-132z" />
    <glyph glyph-name="uni3138" unicode="&#x3138;" 
d="M859 207v-139q-55 -20 -173 -34t-192 -14h-20v556h359v-132h-197v-282q134 13 223 45zM450 195v-133q-58 -22 -158 -32t-178 -10h-14v556h334v-132h-173v-281q29 1 93 10.5t96 21.5z" />
    <glyph glyph-name="uni3139" unicode="&#x3139;" 
d="M857 180v-133q-203 -47 -558 -47h-175v372h535v87h-535v132h699v-351h-534v-107h51q120 0 268.5 12.5t248.5 34.5z" />
    <glyph glyph-name="uni313A" unicode="&#x313a;" 
d="M892 592v-583h-161v451h-211v132h372zM487 173v-133q-82 -31 -308 -31h-119v368h250v83h-250v132h414v-347h-250v-103h50q126 0 213 31z" />
    <glyph glyph-name="uni313B" unicode="&#x313b;" 
d="M468 173v-133q-82 -31 -297 -31h-111v368h231v83h-231v132h395v-347h-231v-103h42q115 0 202 31zM892 9h-393v583h393v-583zM751 140v321h-112v-321h112z" />
    <glyph glyph-name="uni313C" unicode="&#x313c;" 
d="M751 591h141v-582h-398v582h142v-153h115v153zM636 138h115v171h-115v-171zM464 173v-133q-83 -31 -293 -31h-111v368h231v83h-231v132h390v-347h-226v-103h42q110 0 198 31z" />
    <glyph glyph-name="uni313D" unicode="&#x313d;" 
d="M926 9h-163l-72 200l-74 -200h-162l9 25q-84 -25 -289 -25h-114v368h240v83h-240v132h404v-347h-240v-103h45q124 0 212 31v-93l127 334v177h160v-176z" />
    <glyph glyph-name="uni313E" unicode="&#x313e;" 
d="M468 173v-133q-82 -31 -297 -31h-111v368h231v83h-231v132h395v-347h-231v-103h42q115 0 202 31zM893 141v-132h-394v583h390v-132h-229v-88h227v-132h-227v-99h233z" />
    <glyph glyph-name="uni313F" unicode="&#x313f;" 
d="M464 173v-133q-82 -31 -292 -31h-112v368h226v83h-226v132h391v-347h-226v-103h42q110 0 197 31zM912 9h-430v132h48l-14 287h139l12 -287h44l13 287h139l-15 -287h64v-132zM903 460h-425v132h425v-132z" />
    <glyph glyph-name="uni3140" unicode="&#x3140;" 
d="M899 168q0 -69 -47 -113t-123 -44h-65q-76 0 -122 43.5t-46 112.5q0 68 46.5 114t121.5 46h65q75 0 122.5 -45.5t47.5 -113.5zM683 121h30q20 0 33.5 12.5t13.5 34.5q0 49 -47 49h-30q-20 0 -32 -13t-12 -36t12.5 -35t31.5 -12zM920 346h-448v124h448v-124zM840 498h-282
v115h282v-115zM466 173v-133q-82 -30 -297 -30h-111v367h231v83h-231v132h395v-347h-231v-102h42q114 0 202 30z" />
    <glyph glyph-name="uni3141" unicode="&#x3141;" 
d="M123 576h703v-573h-161v69q-89 -26 -221 -42t-231 -16h-90v562zM284 444v-293q69 1 183 16t198 40v237h-381z" />
    <glyph glyph-name="uni3142" unicode="&#x3142;" 
d="M665 588h161v-592h-161v68q-88 -26 -220 -41.5t-232 -15.5h-90v581h161v-150h381v150zM284 306v-162q69 1 183 16t198 40v106h-381z" />
    <glyph glyph-name="uni3143" unicode="&#x3143;" 
d="M678 589h157v-592h-157v69q-89 -27 -227.5 -42.5t-247.5 -15.5h-89v581h157v-156h124v156h157v-156h126v156zM271 301v-156q53 0 124 7v149h-124zM552 301v-128q67 12 126 29v99h-126z" />
    <glyph glyph-name="uni3144" unicode="&#x3144;" 
d="M333 591h151v-528l131 346v181h161v-180l151 -389h-162l-68 194l-69 -194h-144v-12h-151v65q-114 -53 -229 -53h-51v570h151v-154h129v154zM204 310v-154q60 12 129 46v108h-129z" />
    <glyph glyph-name="uni3145" unicode="&#x3145;" 
d="M896 15h-184l-237 284l-239 -284h-184l341 417v170h163v-170z" />
    <glyph glyph-name="uni3146" unicode="&#x3146;" 
d="M909 15h-154l-114 251l-99 -235h-137l-98 236l-114 -252h-154l190 417v170h160v-170l86 -235l84 235v170h160v-170z" />
    <glyph glyph-name="uni3147" unicode="&#x3147;" 
d="M601 22h-256q-100 0 -172 83.5t-72 207.5q0 120 71.5 204t170.5 84h260q99 0 170.5 -84t71.5 -204q0 -124 -72 -207.5t-172 -83.5zM377 151h192q50 0 83.5 43.5t33.5 115.5q0 75 -33 118t-84 43h-192q-51 0 -84 -43t-33 -118q0 -72 33.5 -115.5t83.5 -43.5z" />
    <glyph glyph-name="uni3148" unicode="&#x3148;" 
d="M392 444h-269v132h702v-132h-270v-91l332 -348h-202l-211 212l-210 -212h-203l331 347v92z" />
    <glyph glyph-name="uni3149" unicode="&#x3149;" 
d="M895 15h-165l-95 169l-101 -164h-121l-100 165l-95 -170h-165l181 324v105h-139v132h759v-132h-140v-105zM394 339l81 -159l79 159v105h-160v-105z" />
    <glyph glyph-name="uni314A" unicode="&#x314a;" 
d="M392 350h-273v127h711v-127h-275v-89l343 -271h-217l-207 159l-206 -159h-218l342 270v90zM711 543h-474v127h474v-127z" />
    <glyph glyph-name="uni314B" unicode="&#x314b;" 
d="M654 190h-531v132h541v122h-541v132h703v-240q0 -88 -10 -172t-20 -124l-11 -39h-169q24 79 38 189z" />
    <glyph glyph-name="uni314C" unicode="&#x314c;" 
d="M820 463h-534v-85h529v-130h-529v-110h51q121 0 271 12.5t250 34.5v-133q-203 -47 -559 -47h-175v590h696v-132z" />
    <glyph glyph-name="uni314D" unicode="&#x314d;" 
d="M863 9h-779v132h122l-16 271h160l16 -271h215l16 271h161l-16 -271h121v-132zM853 454h-758v132h758v-132z" />
    <glyph glyph-name="uni314E" unicode="&#x314e;" 
d="M820 166q0 -71 -49 -125.5t-122 -54.5h-352q-73 0 -121 54t-48 125q0 70 48 126t121 56h352q73 0 122 -55.5t49 -125.5zM327 112h294q19 0 33 16t14 38q0 24 -13 39.5t-34 15.5h-294q-20 0 -32 -15.5t-12 -39.5t12.5 -39t31.5 -15zM854 379h-759v129h759v-129zM707 543
h-465v127h465v-127z" />
    <glyph glyph-name="uni314F" unicode="&#x314f;" 
d="M551 -145h-160v906h160v-329h164v-130h-164v-447z" />
    <glyph glyph-name="uni3150" unicode="&#x3150;" 
d="M684 -145h-156v440h-108v-440h-156v906h156v-336h108v336h156v-906z" />
    <glyph glyph-name="uni3151" unicode="&#x3151;" 
d="M551 -145h-160v906h160v-176h164v-130h-164v-194h164v-130h-164v-276z" />
    <glyph glyph-name="uni3152" unicode="&#x3152;" 
d="M684 -145h-156v278h-108v-278h-156v906h156v-175h108v175h156v-906zM420 456v-193h108v193h-108z" />
    <glyph glyph-name="uni3153" unicode="&#x3153;" 
d="M632 -145h-161v447h-179v130h179v329h161v-906z" />
    <glyph glyph-name="uni3154" unicode="&#x3154;" 
d="M513 -145h-156v440h-158v130h158v336h156v-906zM725 -145h-156v906h156v-906z" />
    <glyph glyph-name="uni3155" unicode="&#x3155;" 
d="M632 -145h-161v285h-179v130h179v183h-179v130h179v178h161v-906z" />
    <glyph glyph-name="uni3156" unicode="&#x3156;" 
d="M513 -145h-156v288h-158v130h158v178h-158v131h158v179h156v-906zM725 -145h-156v906h156v-906z" />
    <glyph glyph-name="uni3157" unicode="&#x3157;" 
d="M878 -74h-808v132h323v266h161v-266h324v-132z" />
    <glyph glyph-name="uni3158" unicode="&#x3158;" 
d="M807 -145h-160v906h160v-323h124v-130h-124v-453zM620 95v-136q-178 -52 -496 -52h-79v132h78q39 0 119 2v288h160v-276q135 16 218 42z" />
    <glyph glyph-name="uni3159" unicode="&#x3159;" 
d="M901 -145h-156v449h-61v-449h-156v906h156v-327h61v327h156v-906zM500 78v-135q-149 -36 -395 -36h-59v132h58q36 0 93 3v287h155v-275q82 10 148 24z" />
    <glyph glyph-name="uni315A" unicode="&#x315a;" 
d="M860 -145h-161v906h161v-906zM666 95v-136q-178 -52 -491 -52h-117v132h116q68 0 103 2v288h160v-277q137 14 229 43z" />
    <glyph glyph-name="uni315B" unicode="&#x315b;" 
d="M878 -74h-808v132h171v260h161v-260h143v260h161v-260h172v-132z" />
    <glyph glyph-name="uni315C" unicode="&#x315c;" 
d="M554 -138h-161v294h-323v132h808v-132h-324v-294z" />
    <glyph glyph-name="uni315D" unicode="&#x315d;" 
d="M860 -145h-161v113h-150v130h150v663h161v-906zM426 -126h-161v278h-207v132h173q86 0 214 12.5t221 32.5v-133q-109 -24 -240 -35v-287z" />
    <glyph glyph-name="uni315E" unicode="&#x315e;" 
d="M708 -145h-156v120h-135v129h135v657h156v-906zM900 -145h-155v906h155v-906zM359 -126h-156v279q-31 -1 -77 -1h-82v132h81q75 0 189 9.5t203 29.5v-135q-67 -17 -158 -25v-289z" />
    <glyph glyph-name="uni315F" unicode="&#x315f;" 
d="M860 -145h-161v906h161v-906zM444 -126h-161v265h-226v132h174q86 0 214 12.5t221 32.5v-133q-106 -22 -222 -34v-275z" />
    <glyph glyph-name="uni3160" unicode="&#x3160;" 
d="M383 -138h-161v294h-152v132h808v-132h-153v-294h-161v294h-181v-294z" />
    <glyph glyph-name="uni3161" unicode="&#x3161;" 
d="M878 29h-808v133h808v-133z" />
    <glyph glyph-name="uni3162" unicode="&#x3162;" 
d="M860 -145h-161v906h161v-906zM666 114v-136q-178 -52 -491 -52h-117v132h116q316 0 492 56z" />
    <glyph glyph-name="uni3163" unicode="&#x3163;" 
d="M554 -145h-161v906h161v-906z" />
    <glyph glyph-name="uni3165" unicode="&#x3165;" 
d="M469 220v-137q-59 -26 -154.5 -38.5t-177.5 -12.5h-77v521h160v-383q152 11 249 50zM889 170v-138h-390v521h160v-383h230z" />
    <glyph glyph-name="uni3166" unicode="&#x3166;" 
d="M898 170v-138h-399v521h388v-132h-227v-251h238zM469 220v-137q-59 -26 -154.5 -38.5t-177.5 -12.5h-77v521h161v-383q151 11 248 50z" />
    <glyph glyph-name="uni3167" unicode="&#x3167;" 
d="M927 31h-161l-69 195l-69 -195h-160l148 370v157h160v-156zM470 220v-137q-59 -26 -154.5 -38.5t-177.5 -12.5h-77v521h160v-382q148 9 249 49z" />
    <glyph glyph-name="uni3168" unicode="&#x3168;" 
d="M927 31h-461l199 542h68zM759 149l-60 182l-60 -182h120zM470 220v-137q-59 -26 -154.5 -38.5t-177.5 -12.5h-77v522h160v-383q155 11 249 49z" />
    <glyph glyph-name="uni3169" unicode="&#x3169;" 
d="M947 9h-122l-54 207l-57 -207h-238v451h-138v132h276v-496l88 308v187h139v-186zM347 173v-133q-62 -31 -250 -31h-93v368h172v83h-172v132h310v-347h-177v-103h39q107 0 171 31z" />
    <glyph glyph-name="uni316A" unicode="&#x316a;" 
d="M899 141v-132h-381v583h368v-132h-207v-319h220zM488 173v-133q-83 -31 -317 -31h-111v368h250v83h-250v132h414v-347h-250v-103h61q115 0 203 31z" />
    <glyph glyph-name="uni316B" unicode="&#x316b;" 
d="M947 9h-122l-47 209l-54 -209h-396v582h116v-153h65v153h116v-491l86 304v187h131v-186zM305 173v-133q-62 -31 -208 -31h-83v368h152v83h-152v132h281v-347h-148v-103h19q75 0 139 31zM444 138h65v171h-65v-171z" />
    <glyph glyph-name="uni316C" unicode="&#x316c;" 
d="M927 15h-461l7 20q-85 -26 -301 -26h-111v368h250v83h-250v132h414v-347h-250v-103h61q115 0 202 31v-95l177 517h68zM758 126l-59 198l-59 -198h118z" />
    <glyph glyph-name="uni316D" unicode="&#x316d;" 
d="M906 458h-420v133h420v-133zM893 263v-121q0 -74 -59 -111.5t-137 -37.5t-137 37.5t-59 111.5v121q0 72 59 110.5t137 38.5t137 -37.5t59 -111.5zM754 175v54q0 35 -14.5 47t-42.5 12q-29 0 -42.5 -11.5t-13.5 -47.5v-54q0 -34 14 -46.5t42 -12.5q27 0 42 12.5t15 46.5z
M469 172v-133q-83 -30 -298 -30h-111v368h231v82h-231v132h395v-347h-230v-102h41q114 0 203 30z" />
    <glyph glyph-name="uni316E" unicode="&#x316e;" 
d="M51 576h416v-573h-151v61q-102 -50 -213 -50h-52v562zM754 575h142v-561h-390v561h142v-147h106v147zM202 444v-295q57 14 114 43v252h-114zM648 138h106v161h-106v-161z" />
    <glyph glyph-name="uni316F" unicode="&#x316f;" 
d="M52 576h416v-573h-151v62q-102 -51 -214 -51h-51v562zM937 14h-162l-68 195l-69 -195h-160l147 389v173h161v-172zM203 444v-295q57 14 114 43v252h-114z" />
    <glyph glyph-name="uni3170" unicode="&#x3170;" 
d="M52 576h416v-557l197 556h68l194 -561h-459v-11h-151v62q-102 -51 -214 -51h-51v562zM203 444v-295q57 14 114 43v252h-114zM762 126l-63 201l-63 -201h126z" />
    <glyph glyph-name="uni3171" unicode="&#x3171;" 
d="M152 738h645v-440h-160v68q-173 -56 -395 -56h-90v428zM592 -131h-218q-101 0 -163 52t-62 148q0 92 62 145t161 53h222q99 0 161 -53t62 -145q0 -96 -62 -148t-163 -52zM313 606v-160q64 1 155 15.5t169 40.5v104h-324zM411 -2h144q55 0 79 13t24 55q0 46 -23.5 58.5
t-79.5 12.5h-144q-56 0 -79.5 -12.5t-23.5 -58.5q0 -42 24 -55t79 -13z" />
    <glyph glyph-name="uni3172" unicode="&#x3172;" 
d="M345 591h151v-582h-151v66q-50 -22 -118 -38t-125 -16h-51v570h151v-154h143v154zM892 591v-581h-162v449h-201v132h363zM345 203v107h-143v-154q70 14 143 47z" />
    <glyph glyph-name="uni3173" unicode="&#x3173;" 
d="M332 591h151v-582h-151v65q-114 -53 -229 -53h-51v570h151v-154h129v154zM907 154v-139h-389v576h379v-132h-227v-305h237zM332 202v108h-129v-154q62 12 129 46z" />
    <glyph glyph-name="uni3174" unicode="&#x3174;" 
d="M718 22h-126l-64 205l-56 -205h-455v569h119v-153h86v153h128v-555l110 381v174h134v-173zM928 591v-569h-138v437h-138v132h276zM136 151h86v159h-86v-159z" />
    <glyph glyph-name="uni3175" unicode="&#x3175;" 
d="M941 154v-139h-279v7h-119l-48 202l-55 -202h-424v569h119v-153h87v153h119v-492l87 318v174h130v-173l104 -365v538h270v-132h-144v-305h153zM135 151h87v159h-87v-159z" />
    <glyph glyph-name="uni3176" unicode="&#x3176;" 
d="M332 591h151v-582h-151v65q-114 -53 -229 -53h-51v570h151v-154h129v154zM638 460h-126v130h407v-130h-125v-102l143 -343h-150l-72 180l-73 -180h-150l146 343v102zM332 202v108h-129v-154q60 12 129 46z" />
    <glyph glyph-name="uni3177" unicode="&#x3177;" 
d="M332 591h151v-582h-151v65q-114 -53 -229 -53h-51v570h151v-154h129v154zM907 154v-139h-389v576h379v-132h-227v-84h221v-132h-221v-89h237zM332 202v108h-129v-154q62 12 129 46z" />
    <glyph glyph-name="uni3178" unicode="&#x3178;" 
d="M665 745h161v-447h-161v58q-88 -26 -219.5 -41t-232.5 -15h-90v445h161v-97h381v97zM592 -131h-219q-101 0 -163 52t-62 148q0 92 62 145t161 53h223q99 0 161 -53t62 -145q0 -96 -62 -148t-163 -52zM410 -2h145q54 0 78 13t24 56q0 45 -23.5 57.5t-78.5 12.5h-145
q-55 0 -78.5 -12.5t-23.5 -57.5q0 -43 24 -56t78 -13zM665 489v36h-381v-90q71 1 184.5 15t196.5 39z" />
    <glyph glyph-name="uni3179" unicode="&#x3179;" 
d="M679 745h156v-447h-156v50q-95 -24 -230.5 -36t-245.5 -12h-89v445h156v-97h125v97h157v-97h127v97zM592 -131h-219q-101 0 -163 52t-62 148q0 92 62 145t161 53h223q99 0 161 -53t62 -145q0 -96 -62 -148t-163 -52zM410 -2h145q54 0 78 13t24 56q0 45 -23.5 57.5
t-78.5 12.5h-145q-55 0 -78.5 -12.5t-23.5 -57.5q0 -43 24 -56t78 -13zM395 441v84h-125v-90q47 0 125 6zM679 482v43h-127v-67q73 10 127 24z" />
    <glyph glyph-name="uni317A" unicode="&#x317a;" 
d="M526 15h-162l-91 205l-89 -205h-160l171 379v183h161v-182zM872 574v-564h-162v432h-233v132h395z" />
    <glyph glyph-name="uni317B" unicode="&#x317b;" 
d="M914 153v-138h-391v560h161v-422h230zM508 15h-162l-81 194l-80 -194h-160l162 379v183h160v-182z" />
    <glyph glyph-name="uni317C" unicode="&#x317c;" 
d="M907 153v-138h-390v556h379v-132h-227v-286h238zM508 15h-162l-81 194l-80 -194h-160l162 379v183h160v-182z" />
    <glyph glyph-name="uni317D" unicode="&#x317d;" 
d="M895 15h-549l-82 194l-80 -194h-159l161 379v183h161v-182l159 -378v558h141v-147h107v147h141v-560zM647 138h107v162h-107v-162z" />
    <glyph glyph-name="uni317E" unicode="&#x317e;" 
d="M632 15h-285l-82 194l-80 -194h-159l161 379v183h161v-182l147 -350l132 294v106h-125v130h406v-130h-124v-106l142 -324h-150l-72 164z" />
    <glyph glyph-name="uni317F" unicode="&#x317f;" 
d="M761 31h-575l256 542h68zM564 159l-88 198l-88 -198h176z" />
    <glyph glyph-name="uni3180" unicode="&#x3180;" 
d="M448 405v-215q0 -74 -59 -111.5t-137 -37.5t-137 37.5t-59 111.5v215q0 73 59 111t137 38q79 0 137.5 -37.5t58.5 -111.5zM309 223v149q0 35 -14.5 47t-42.5 12t-42 -12t-14 -47v-149q0 -34 14 -46.5t42 -12.5q27 0 42 12.5t15 46.5zM895 405v-215q0 -74 -59.5 -111.5
t-137.5 -37.5t-136.5 37.5t-58.5 111.5v215q0 73 58.5 111t136.5 38q79 0 138 -37.5t59 -111.5zM755 223v149q0 35 -14.5 47t-42.5 12t-42 -12t-14 -47v-149q0 -34 14 -46.5t42 -12.5t42.5 12.5t14.5 46.5z" />
    <glyph glyph-name="uni3181" unicode="&#x3181;" 
d="M709 309v-167q0 -49 -40.5 -85.5t-92.5 -52.5t-102 -16q-36 0 -75.5 9.5t-75.5 27.5t-59.5 49t-23.5 68v167q0 54 45 90.5t110 52.5v163h155v-161q67 -16 113 -53t46 -92zM569 176v99q0 34 -31 49.5t-64 15.5t-63.5 -15.5t-30.5 -49.5v-99q0 -33 30.5 -49t63.5 -16
q32 0 63.5 16t31.5 49z" />
    <glyph glyph-name="uni3182" unicode="&#x3182;" 
d="M459 305v-168q0 -50 -32 -85t-76 -49.5t-93 -14.5q-78 0 -139 38t-61 111v168q0 54 35 89t90 50v145h155v-146q54 -16 87.5 -50.5t33.5 -87.5zM916 14h-161l-69 195l-69 -195h-159l147 389v173h160v-172zM320 175v92q0 64 -62 64q-61 0 -61 -64v-92q0 -64 61 -64
q62 0 62 64z" />
    <glyph glyph-name="uni3183" unicode="&#x3183;" 
d="M460 305v-168q0 -50 -32 -85t-76.5 -49.5t-93.5 -14.5q-78 0 -139 38t-61 111v168q0 54 35 89t90 50v145h155v-146q54 -15 88 -49.5t34 -88.5zM927 14h-461l199 561h68zM320 175v92q0 64 -62 64q-60 0 -60 -64v-92q0 -64 60 -64q62 0 62 64zM762 126l-63 201l-63 -201
h126z" />
    <glyph glyph-name="uni3184" unicode="&#x3184;" 
d="M592 -131h-219q-101 0 -163 52t-62 148q0 92 62 145t161 53h223q99 0 161 -53t62 -145q0 -96 -62 -148t-163 -52zM844 307h-741v127h122l-14 146h160l14 -146h178l14 146h160l-14 -146h121v-127zM834 609h-720v129h720v-129zM410 -2h145q54 0 78 13t24 55
q0 46 -23.5 58.5t-78.5 12.5h-145q-55 0 -78.5 -12.5t-23.5 -58.5q0 -42 24 -55t78 -13z" />
    <glyph glyph-name="uni3185" unicode="&#x3185;" 
d="M907 458h-420v133h420v-133zM895 263v-121q0 -74 -59.5 -111.5t-137.5 -37.5t-137 37.5t-59 111.5v121q0 72 59 110.5t137 38.5t137.5 -37.5t59.5 -111.5zM755 175v54q0 35 -14.5 47t-42.5 12t-42 -12t-14 -47v-54q0 -34 14 -46.5t42 -12.5q27 0 42 12.5t15 46.5z
M461 458h-420v133h420v-133zM448 263v-121q0 -74 -59 -111.5t-137 -37.5t-137 37.5t-59 111.5v121q0 72 59 110.5t137 38.5t137 -37.5t59 -111.5zM309 175v54q0 35 -14.5 47t-42.5 12q-29 0 -42.5 -11.5t-13.5 -47.5v-54q0 -34 14 -46.5t42 -12.5q27 0 42 12.5t15 46.5z" />
    <glyph glyph-name="uni3186" unicode="&#x3186;" 
d="M699 270v-147q0 -50 -38 -86.5t-87.5 -52.5t-99.5 -16t-99.5 16t-87 52.5t-37.5 86.5v147q0 49 37.5 85.5t87.5 53t99 16.5q50 0 99.5 -16t87.5 -52.5t38 -86.5zM559 156v81q0 34 -27 49t-58 15q-32 0 -58.5 -15t-26.5 -49v-81q0 -33 27 -49t58 -16q30 0 57.5 16t27.5 49
zM750 476h-552v133h552v-133z" />
    <glyph glyph-name="uni3187" unicode="&#x3187;" 
d="M807 -145h-160v906h160v-198h124v-131h-124v-145h124v-130h-124v-302zM620 95v-136q-178 -52 -496 -52h-89v132h93v290h151v-286l77 6v280h151v-261q77 15 113 27z" />
    <glyph glyph-name="uni3188" unicode="&#x3188;" 
d="M901 -145h-156v316h-61v-316h-156v906h156v-175h61v175h156v-906zM500 78v-135q-149 -36 -395 -36h-69v132h59v290h147v-285q34 2 51 4v281h147v-263zM684 456v-155h61v155h-61z" />
    <glyph glyph-name="uni3189" unicode="&#x3189;" 
d="M666 95v-136q-178 -52 -491 -52h-137v132h106v290h153v-287q32 1 91 5v282h154v-263q71 12 124 29zM860 -145h-161v906h161v-906z" />
    <glyph glyph-name="uni318A" unicode="&#x318a;" 
d="M860 -145h-161v446h-150v130h150v59h-150v131h150v140h161v-906zM297 -126h-156v217h-93v132h183q84 0 212.5 13t222.5 32v-133q-70 -15 -122 -22v-239h-156v223q-63 -4 -91 -5v-218z" />
    <glyph glyph-name="uni318B" unicode="&#x318b;" 
d="M708 -145h-156v448h-145v129h145v52h-145v129h145v148h156v-906zM900 -145h-155v906h155v-906zM245 -126h-146v217h-65v132h91q75 0 189 9.5t203 29.5v-135q-23 -6 -73 -14v-239h-146v223q-19 -2 -53 -4v-219z" />
    <glyph glyph-name="uni318C" unicode="&#x318c;" 
d="M315 -126h-156v265h-112v132h184q86 0 214 12.5t221 32.5v-133q-62 -13 -104 -19v-290h-156v272q-47 -5 -91 -6v-266zM860 -145h-161v906h161v-906z" />
    <glyph glyph-name="uni318D" unicode="&#x318d;" 
d="M369 325q0 44 31 75.5t74 31.5t73.5 -31.5t30.5 -75.5t-30.5 -75.5t-73.5 -31.5t-74 31.5t-31 75.5z" />
    <glyph glyph-name="uni318E" unicode="&#x318e;" 
d="M238 324q0 44 31 75.5t74 31.5t73.5 -31.5t30.5 -75.5t-30.5 -75.5t-73.5 -31.5t-74 31.5t-31 75.5zM709 -145h-161v906h161v-906z" />
    <glyph glyph-name="uni2170" unicode="&#x2170;" 
d="M534 550h-121v121h121v-121zM534 -69h-121v538h121v-538z" />
    <glyph glyph-name="uni2171" unicode="&#x2171;" 
d="M704 550h-121v121h121v-121zM364 550h-120v121h120v-121zM704 -69h-121v538h121v-538zM364 -69h-120v538h120v-538z" />
    <glyph glyph-name="uni2172" unicode="&#x2172;" 
d="M752 550h-120v121h120v-121zM534 550h-120v121h120v-121zM752 -69h-120v538h120v-538zM315 550h-120v121h120v-121zM534 -69h-120v538h120v-538zM315 -69h-120v538h120v-538z" />
    <glyph glyph-name="uni2173" unicode="&#x2173;" 
d="M282 550h-121v121h121v-121zM812 468l-185 -531h-140l-185 531h132l124 -380l123 380h131zM282 -69h-121v537h121v-537z" />
    <glyph glyph-name="uni2174" unicode="&#x2174;" 
d="M728 468l-185 -532h-140l-186 532h132l124 -381l123 381h132z" />
    <glyph glyph-name="uni2175" unicode="&#x2175;" 
d="M789 550h-121v121h121v-121zM789 -69h-121v537h121v-537zM648 468l-185 -531h-140l-186 531h132l124 -380l123 380h132z" />
    <glyph glyph-name="uni2176" unicode="&#x2176;" 
d="M839 550h-112v121h112v-121zM685 550h-112v121h112v-121zM839 -69h-112v538h112v-538zM685 -69h-112v538h112v-538zM554 469l-163 -532h-139l-162 532h123l109 -377l109 377h123z" />
    <glyph glyph-name="uni2177" unicode="&#x2177;" 
d="M883 550h-104v121h104v-121zM740 550h-105v121h105v-121zM595 550h-105v121h105v-121zM883 -69h-104v538h104v-538zM740 -69h-105v538h105v-538zM595 -69h-105v538h105v-538zM465 469l-140 -532h-139l-139 532h118l91 -382l91 382h118z" />
    <glyph glyph-name="uni2178" unicode="&#x2178;" 
d="M288 550h-121v121h121v-121zM811 -70h-141l-107 163l-107 -163h-141l178 275l-169 262h140l99 -152l99 152h140l-168 -262zM288 -69h-121v537h121v-537z" />
    <glyph glyph-name="uni2179" unicode="&#x2179;" 
d="M735 -67h-142l-118 170l-119 -170h-142l189 272l-180 259h142l110 -156l109 156h142l-180 -259z" />
    <glyph glyph-name="uni2160" unicode="&#x2160;" 
d="M534 -70h-121v740h121v-740z" />
    <glyph glyph-name="uni2161" unicode="&#x2161;" 
d="M705 -70h-121v740h121v-740zM365 -70h-121v740h121v-740z" />
    <glyph glyph-name="uni2162" unicode="&#x2162;" 
d="M746 -70h-121v740h121v-740zM534 -70h-120v740h120v-740zM323 -70h-121v740h121v-740z" />
    <glyph glyph-name="uni2163" unicode="&#x2163;" 
d="M833 671l-199 -740h-142l-199 740h129l141 -560l140 560h130zM270 -69h-121v740h121v-740z" />
    <glyph glyph-name="uni2164" unicode="&#x2164;" 
d="M809 671l-263 -740h-141l-262 740h133l200 -588l200 588h133z" />
    <glyph glyph-name="uni2165" unicode="&#x2165;" 
d="M809 -69h-122v740h122v-740zM662 671l-199 -740h-142l-200 740h130l140 -560l141 560h130z" />
    <glyph glyph-name="uni2166" unicode="&#x2166;" 
d="M853 -69h-113v740h113v-740zM698 -69h-112v740h112v-740zM561 671l-171 -740h-142l-171 740h130l113 -553l113 553h128z" />
    <glyph glyph-name="uni2167" unicode="&#x2167;" 
d="M900 -69h-105v739h105v-739zM756 -69h-104v739h104v-739zM610 -69h-103v739h103v-739zM480 670l-148 -742h-141l-147 740h115l103 -555l102 555z" />
    <glyph glyph-name="uni2168" unicode="&#x2168;" 
d="M844 -73h-136l-154 261l-154 -261h-137l222 378l-217 368h136q150 -252 150 -253l148 253h136l-216 -368zM230 -73h-121v746h121v-746z" />
    <glyph glyph-name="uni2169" unicode="&#x2169;" 
d="M807 -73h-137l-189 285l-188 -285h-137l257 387l-238 359h135l171 -256l170 256h136l-239 -359z" />
    <glyph glyph-name="Alpha" unicode="&#x391;" 
d="M759 -1q13 0 16 -8t-4.5 -16t-21.5 -8h-204q-20 0 -15.5 16t24.5 16q50 0 61 8.5t8 37.5l-15 138h-258l-86 -133q-23 -33 -16.5 -42t59.5 -9q13 0 16.5 -8t-4.5 -16t-22 -8h-174q-12 0 -15 8t4 16t20 8q39 0 56 11.5t47 57.5l366 560q5 8 11.5 11.5t11 0.5t5.5 -12
l69 -591q2 -25 13 -31.5t48 -6.5zM604 219l-35 298l-196 -298h231z" />
    <glyph glyph-name="Beta" unicode="&#x392;" 
d="M767 467q-17 -67 -73.5 -108t-128.5 -50q77 -7 123.5 -47t26.5 -116q-15 -55 -50 -92.5t-85 -55t-98 -24.5t-107 -7h-246q-14 0 -17 8t4.5 16t20.5 8q56 0 70.5 8t23.5 41l132 495q10 31 0 39.5t-67 8.5q-20 0 -15.5 16t24.5 16h286q39 0 72.5 -7.5t63 -24t41 -48.5
t-0.5 -76zM691 456q7 25 7.5 44.5t-6 33.5t-14.5 24t-25 16t-29 10t-35.5 5t-36 1.5t-38.5 0.5h-8q-43 0 -55 -7t-20 -40l-59 -223h51q105 0 147 17q43 16 76.5 47t44.5 71zM640 139q8 29 7.5 51.5t-6.5 38t-20 27t-30 18t-40.5 10t-46.5 4.5t-52 1h-89l-65 -241
q-9 -34 -2 -41.5t52 -7.5t72 1t69 8.5t67.5 21.5t49.5 41.5t34 67.5z" />
    <glyph glyph-name="Gamma" unicode="&#x393;" 
d="M801 607l-44 -201q-2 -10 -10 -15t-14.5 -1.5t-5.5 14.5q4 36 5.5 60t-2 45t-8 33.5t-19.5 22.5t-28.5 14.5t-43 7.5t-56 3.5t-73.5 0.5t-61 -8.5t-23 -44.5l-124 -472q-14 -44 -4 -55.5t70 -11.5q13 0 16.5 -8t-4 -16t-20.5 -8h-232q-14 0 -17.5 8t4 16t21.5 8
q58 0 72.5 10.5t26.5 56.5l128 477q9 33 -0.5 40.5t-66.5 7.5q-14 0 -17.5 8t4 16t21.5 8h490q10 0 13.5 -3t1.5 -13z" />
    <glyph glyph-name="uni0394" unicode="&#x394;" 
d="M698 37q4 -40 -1.5 -55t-29.5 -15h-440q-30 0 -34 13.5t22 55.5l386 592q5 8 11.5 11.5t11 0.5t5.5 -12zM623 45l-54 472l-305 -467q-23 -33 -16.5 -42t59.5 -9h247q44 0 58.5 9.5t10.5 36.5z" />
    <glyph glyph-name="Epsilon" unicode="&#x395;" 
d="M790 607l-43 -201q-2 -10 -10 -14.5t-14.5 -1t-5.5 13.5q3 37 4 61.5t-4.5 46t-9.5 33.5t-21 22t-29 14t-44 6.5t-55 3t-73 0.5q-43 0 -55 -7t-20 -40l-60 -224q43 0 62 0.5t43.5 4.5t33.5 9.5t22.5 19.5t22 31.5t20.5 47.5q5 12 14 17t14 0t1 -17l-70 -258
q-3 -13 -10.5 -17.5t-13.5 0t-5 16.5q4 30 5 47t-5 31t-12 19.5t-28 9.5t-41 4.5t-62 0.5l-63 -238q-10 -34 -3 -41.5t52 -7.5q66 0 100.5 1t72.5 8t56 17t40 33t36.5 51.5t35.5 76.5q5 11 13.5 15t14.5 -1t3 -16l-64 -201q-6 -16 -24 -16h-503q-14 0 -17 8t5 16t21 8
q56 0 70 8t23 41l132 495q11 31 1 39.5t-67 8.5q-13 0 -16.5 8t4 16t20.5 8h492q10 0 13 -3t1 -13z" />
    <glyph glyph-name="Zeta" unicode="&#x396;" 
d="M807 599l-562 -600h143q38 0 59 0.5t47 3.5t40 7.5t32 14t28.5 22.5t25 33.5t26 45.5t26.5 60q8 18 21 16.5t8 -18.5l-64 -201q-6 -16 -24 -16h-452q-25 0 -2 25l560 599h-117q-36 0 -56 -0.5t-45 -3t-38.5 -7.5t-31 -14.5t-28 -22.5t-24.5 -33.5t-26 -45.5t-27 -60
q-7 -17 -20.5 -15.5t-8.5 17.5l65 201q6 16 24 16h419q24 0 2 -24z" />
    <glyph glyph-name="Eta" unicode="&#x397;" 
d="M878 623q14 0 17.5 -8t-4 -16t-21.5 -8q-58 0 -72.5 -10t-26.5 -56l-123 -459q-14 -44 -4.5 -55.5t67.5 -11.5q14 0 17.5 -8t-4.5 -16t-22 -8h-233q-14 0 -17 8t5 16t21 8q60 0 75 10.5t27 56.5l59 221h-334l-59 -221q-14 -44 -4 -55.5t70 -11.5q14 0 17.5 -8t-4.5 -16
t-21 -8h-233q-14 0 -17.5 8t4 16t21.5 8q58 0 72.5 10.5t26.5 56.5l123 459q14 44 4.5 55t-67.5 11q-14 0 -17.5 8t4 16t22.5 8h233q13 0 16.5 -8t-4.5 -16t-21 -8q-60 0 -75 -10t-27 -56l-54 -202h335l53 202q14 44 4 55t-70 11q-14 0 -17.5 8t4.5 16t21 8h233z" />
    <glyph glyph-name="Theta" unicode="&#x398;" 
d="M391 -48q-98 0 -156 50.5t-70.5 127t11.5 165t76.5 165t138 127t183.5 50.5q74 0 125.5 -29.5t75.5 -77.5t28 -109.5t-13 -126t-53.5 -126t-86 -109.5t-117.5 -77.5t-142 -29.5zM565 602q-74 0 -141 -45.5t-110.5 -114t-65 -148t-15.5 -148t49 -114t118 -45.5
q74 0 141 45.5t110 114t64.5 148t15.5 148t-48.5 114t-117.5 45.5zM642 355l-28 -109q-11 -38 -25 -38q-10 0 -12 10t0 22t-3 22t-20 10h-153q-15 0 -25 -10t-14 -21.5t-11.5 -21.5t-17.5 -10q-5 0 -7.5 2t-2 9t1.5 10.5t4 15.5l28 109q10 36 23 36q15 -2 11 -16t-1 -30.5
t25 -16.5h155q17 0 27.5 10t14.5 22t11 22t16 10q11 0 3 -37z" />
    <glyph glyph-name="Iota" unicode="&#x399;" 
d="M686 623q13 0 16.5 -8t-4.5 -16t-21 -8q-60 0 -75 -10t-27 -56l-123 -459q-14 -44 -3.5 -55.5t70.5 -11.5q13 0 16.5 -8t-4.5 -16t-21 -8h-233q-14 0 -17.5 8t4.5 16t22 8q58 0 72.5 10.5t26.5 56.5l122 459q14 44 4.5 55t-67.5 11q-14 0 -17.5 8t4.5 16t22 8h233z" />
    <glyph glyph-name="Kappa" unicode="&#x39a;" 
d="M864 623q13 0 16.5 -8t-4 -16t-20.5 -8q-44 0 -65 -6t-50 -30l-253 -209l162 -309q12 -23 27 -30.5t55 -7.5q19 0 14 -16t-24 -16h-250q-12 0 -15.5 8t4 16t20.5 8q62 0 77.5 7.5t2.5 32.5l-132 258l-144 -118l-30 -113q-14 -44 -3.5 -55.5t70.5 -11.5q13 0 16.5 -8
t-4.5 -16t-21 -8h-233q-14 0 -17.5 8t4.5 16t22 8q57 0 71.5 10.5t26.5 56.5l123 459q14 44 4.5 55t-67.5 11q-14 0 -17.5 8t4.5 16t22 8h233q13 0 16.5 -8t-4 -16t-20.5 -8q-61 0 -76 -10t-27 -56l-77 -288l374 308q19 16 25 24.5t-2 13.5t-26 6.5t-57 1.5q-12 0 -15 8
t4 16t19 8h241z" />
    <glyph glyph-name="Lambda" unicode="&#x39b;" 
d="M759 -1q13 0 16 -8t-4.5 -16t-21.5 -8h-204q-20 0 -15.5 16t24.5 16q50 0 61.5 8.5t7.5 37.5l-54 472l-305 -467q-23 -33 -16.5 -42t59.5 -9q13 0 16.5 -8t-4.5 -16t-22 -8h-174q-12 0 -15 8t4 16t20 8q39 0 56 11.5t47 57.5l366 560q5 8 11.5 11.5t11 0.5t5.5 -12
l69 -591q2 -25 13 -31.5t48 -6.5z" />
    <glyph glyph-name="Mu" unicode="&#x39c;" 
d="M920 623q13 0 16 -8t-4.5 -16t-20.5 -8q-59 0 -73.5 -10t-26.5 -56l-121 -459q-14 -44 -4 -55.5t70 -11.5q13 0 16 -8t-4 -16t-20 -8h-229q-14 0 -17.5 8t4.5 16t22 8q40 0 56.5 5.5t23 16.5t15.5 45l136 513l-365 -609q-5 -8 -11 -11.5t-10.5 -0.5t-5.5 12l-58 611
l-136 -515q-13 -44 -3.5 -55.5t64.5 -11.5q13 0 16.5 -8t-4 -16t-20.5 -8h-196q-14 0 -17 8t5 16t21 8q52 0 65 10.5t25 56.5l121 459q12 46 4 56t-59 10q-13 0 -16.5 8t4 16t20.5 8h166q7 0 9 -3t3 -14l48 -507l303 508q11 16 21 16h167z" />
    <glyph glyph-name="Nu" unicode="&#x39d;" 
d="M878 623q14 0 17.5 -8t-4 -16t-21.5 -8q-53 0 -66.5 -10t-25.5 -56l-151 -560q-3 -13 -14 -13t-18 13l-255 568l-125 -467q-13 -44 -3.5 -55.5t65.5 -11.5q13 0 16.5 -8t-4.5 -16t-21 -8h-199q-14 0 -17.5 8t4 16t21.5 8q53 0 66.5 10.5t25.5 56.5l124 459q12 46 3.5 56
t-60.5 10q-13 0 -16.5 8t4 16t21.5 8h127q8 0 11 -2.5t6 -10.5l230 -507l113 422q13 44 4 55t-66 11q-13 0 -16.5 8t4.5 16t21 8h199z" />
    <glyph glyph-name="Xi" unicode="&#x39e;" 
d="M805 607l-44 -201q-2 -10 -10.5 -15t-15 -1.5t-5.5 14.5q4 31 5.5 54t-1 40t-5.5 29t-12.5 19.5t-16 12t-23 6t-26.5 2t-32 0.5h-5h-122h-8q-34 0 -49.5 -1.5t-38 -9t-37 -24.5t-32.5 -48t-37 -80q-7 -17 -21.5 -15.5t-9.5 17.5l65 201q5 16 22 16h444q10 0 13.5 -3
t1.5 -13zM656 345l-29 -108q-9 -39 -24 -39q-10 0 -12 10t-0.5 22t-3.5 22t-19 10h-196q-20 0 -30.5 -16t-19 -31.5t-20.5 -15.5q-5 0 -7.5 2t-1.5 9.5t1.5 10t4.5 16.5l29 108q10 37 23 37q15 -2 11 -16t-0.5 -30.5t25.5 -16.5h198q17 0 27.5 10t14.5 22t10.5 22t16.5 10
q12 0 2 -38zM730 184l-64 -201q-6 -16 -24 -16h-500q-18 0 -14 16l43 201q2 10 10.5 15.5t15.5 1.5t6 -15q-4 -30 -6 -53.5t1 -40.5t5.5 -28.5t11.5 -19t15.5 -12t22.5 -6t25.5 -2t31.5 -0.5h8h179h33.5t28 2t27 6t23 11.5t24 19t21 28.5t23.5 40.5t23 54.5q4 11 12.5 15
t14.5 -1.5t3 -15.5z" />
    <glyph glyph-name="Omicron" unicode="&#x39f;" 
d="M367 -48q-74 0 -126 29.5t-75.5 77.5t-27.5 109.5t13.5 126t53.5 126t86 109.5t118 77.5t142 29.5t125.5 -29.5t75.5 -77.5t28 -109.5t-13 -126t-53.5 -126t-86 -109.5t-118 -77.5t-142.5 -29.5zM542 602q-74 0 -141 -45.5t-110.5 -114t-65 -148t-15.5 -148t48.5 -114
t117.5 -45.5q74 0 141 45.5t110.5 114t65 148t15.5 148t-48.5 114t-117.5 45.5z" />
    <glyph glyph-name="Pi" unicode="&#x3a0;" 
d="M846 623q13 0 16 -8t-4.5 -16t-20.5 -8q-61 0 -76 -10t-27 -56l-122 -459q-14 -44 -3.5 -55.5t70.5 -11.5q13 0 16.5 -8t-4.5 -16t-21 -8h-234q-14 0 -17 8t5 16t22 8q58 0 72 10.5t26 56.5l123 459q13 49 -4.5 57.5t-114.5 8.5q-25 -2 -43.5 0t-33 -0.5t-24 -2
t-17.5 -4.5l-12 -7.5t-8.5 -12t-7 -17t-6.5 -22.5l-122 -459q-14 -44 -3.5 -55.5t70.5 -11.5q21 0 16 -16t-26 -16h-233q-14 0 -17.5 8t4.5 16t22 8q58 0 72.5 10.5t26.5 56.5l122 459q14 44 4.5 55t-67.5 11q-14 0 -17 8t5 16t22 8h571z" />
    <glyph glyph-name="Rho" unicode="&#x3a1;" 
d="M499 262q-109 -1 -158 0l-51 -195q-14 -44 -4 -55.5t70 -11.5q14 0 17 -8t-5.5 -16.5t-22.5 -8.5h-231q-14 0 -17.5 8.5t4.5 16.5t22 8q58 0 72.5 10.5t26.5 56.5l127 476q10 31 0 39.5t-67 8.5q-13 0 -16 8t4.5 16t20.5 8h292q77 0 125 -26.5t60 -67t-1.5 -87t-48.5 -87
t-93.5 -67t-125.5 -26.5zM574 591h-92q-36 0 -46 -7t-18 -40l-68 -250h103q66 0 119 22t81.5 55t39.5 71.5t1.5 71.5t-41 55t-79.5 22z" />
    <glyph glyph-name="Sigma" unicode="&#x3a3;" 
d="M803 607l-43 -201q-2 -10 -10 -14.5t-14.5 -1t-5.5 13.5q3 33 4.5 51t-0.5 40t-2.5 32t-10.5 23t-15.5 17.5t-27.5 11t-36 7.5t-50 3t-61.5 2h-78.5q-48 0 -56 -7.5t6 -39.5l92 -217q4 -10 1.5 -17.5t-17.5 -23.5l-256 -258q-14 -14 -8.5 -21.5t28.5 -7.5q69 0 109 0.5
t84.5 3.5t67.5 7.5t50.5 15t41.5 22.5t31 33.5t29 45t27 59.5q5 11 13 15t13.5 -1t2.5 -16l-64 -201q-6 -16 -23 -16h-457q-13 0 -18.5 1t-9.5 4.5t1.5 12.5t19.5 24l272 283l-120 294q-9 26 -4.5 31.5t25.5 5.5h456q10 0 13 -3t1 -13z" />
    <glyph glyph-name="Tau" unicode="&#x3a4;" 
d="M782 607l-43 -201q-2 -10 -11 -15t-16 -1.5t-5 14.5q7 54 7 89.5t-6 56.5t-23 31t-34.5 12.5t-50.5 2.5q-38 0 -48 -6t-18 -32l-131 -492q-14 -44 -4 -55.5t70 -11.5q13 0 16.5 -8t-4 -16t-20.5 -8h-233q-14 0 -17.5 8t4 16t21.5 8q58 0 72.5 10.5t26.5 56.5l131 492
q7 25 0 31.5t-45 6.5q-41 0 -63.5 -4.5t-49 -23.5t-48.5 -58t-49 -106q-7 -17 -21 -15.5t-9 17.5l64 201q5 16 23 16h500q10 0 13 -3t1 -13z" />
    <glyph glyph-name="Upsilon" unicode="&#x3a5;" 
d="M783 554q-9 -34 -36.5 -48t-49 -2.5t-15.5 39.5q5 25 31 46q-46 -1 -101.5 -44.5t-98 -106.5t-58.5 -122l-67 -251q-12 -49 -5.5 -59t52.5 -10q13 0 16.5 -8t-4.5 -16t-21 -8h-190q-14 0 -17.5 8t4.5 16t22 8q45 0 56 9.5t23 55.5l66 249q17 62 21.5 108t-4.5 84
t-39 58.5t-81 23.5q-19 1 -23.5 7.5t5 12.5t25.5 7q58 4 97 -10t57.5 -41t24.5 -58t3 -68q52 82 121 136t134 54q30 0 45.5 -20t6.5 -50z" />
    <glyph glyph-name="Phi" unicode="&#x3a6;" 
d="M446 40q-5 -27 8 -34t65 -7q13 0 16.5 -8t-4 -16t-20.5 -8h-233q-15 0 -18.5 8t4.5 16t22 8q49 0 65.5 7t25.5 33q-87 8 -140.5 47t-68 93t2.5 116t61 116t118.5 93t163.5 47q6 26 -6.5 33t-62.5 7q-14 0 -17.5 8t4 16t21.5 8h233q13 0 16.5 -8t-4 -16t-20.5 -8
q-52 0 -69 -7t-26 -34q85 -8 138 -47t67.5 -92.5t-2.5 -115.5t-60 -115.5t-117 -92.5t-163 -47zM575 520l-122 -451q65 7 120.5 41.5t89 81.5t48.5 102t7.5 102.5t-44.5 82t-99 41.5zM507 520q-65 -6 -121 -40.5t-90.5 -82.5t-50 -102.5t-7 -102.5t46 -82.5t101.5 -40.5z
" />
    <glyph glyph-name="Chi" unicode="&#x3a7;" 
d="M838 623q13 0 16.5 -8t-4.5 -16t-21 -8q-50 0 -65.5 -6.5t-45.5 -38.5l-205 -227l97 -253q18 -47 31.5 -57t63.5 -10q13 0 16 -8t-4 -16t-20 -8h-245q-13 0 -16.5 8t4.5 16t21 8q65 0 75.5 10t-7.5 57l-74 190l-171 -190q-42 -47 -37.5 -57t68.5 -10q13 0 16 -8t-4 -16
t-20 -8h-217q-14 0 -17.5 8t4.5 16t21 8q52 0 71.5 10t61.5 57l209 231l-95 249q-12 32 -24.5 38.5t-62.5 6.5q-20 0 -16 16t24 16h234q14 0 17.5 -8t-4.5 -16t-21 -8q-32 0 -45 -0.5t-22 -5.5t-7.5 -13t8.5 -26l71 -186l168 186q28 30 21.5 37.5t-62.5 7.5q-13 0 -16 8
t4.5 16t20.5 8h205z" />
    <glyph glyph-name="Psi" unicode="&#x3a8;" 
d="M852 557q-24 -18 -38 -15.5t-18.5 13.5t-9.5 23.5t-11 12.5q-17 1 -28.5 -25t-19 -68t-16 -88t-26.5 -92t-44 -73q-73 -74 -211 -79l-27 -100q-14 -44 -4 -55.5t70 -11.5q13 0 16.5 -8t-4 -16t-20.5 -8h-233q-14 0 -17.5 8t4 16t21.5 8q58 0 72.5 10.5t26.5 56.5l26 100
q-53 2 -102.5 20t-66.5 59q-10 24 -6.5 59.5t16 74t25.5 77t23.5 69t10 49t-15.5 17.5q-6 0 -17 -13t-21.5 -23.5t-26.5 -13.5t-31 16q-4 5 -4.5 14t5 19t18.5 18t34.5 11.5t53.5 -0.5q27 -4 42 -22t18 -41q4 -38 -33 -157.5t-28 -145.5q18 -51 113 -65l90 337q14 44 4.5 55
t-67.5 11q-14 0 -17.5 8t4 16t21.5 8h234q13 0 16 -8t-4.5 -16t-20.5 -8q-60 0 -75 -10t-27 -56l-91 -337q104 14 149 65q19 22 33.5 81t30.5 124.5t37 97.5q34 55 94 63q38 5 60 -1.5t26 -18t0 -23.5t-13 -19z" />
    <glyph glyph-name="uni03A9" unicode="&#x3a9;" 
d="M504 91l-19 -70h26h38.5t32 2t31 6.5t25 13t26 22t22 33t23.5 46.5q5 11 12.5 15t11.5 -0.5t0 -14.5l-53 -161q-6 -16 -23 -16h-224l39 147q70 8 129 48t94 94.5t49 116t3 113t-53.5 85.5t-112.5 34t-131.5 -34t-100.5 -85t-58 -112.5t-13 -116t44 -94.5t103 -49
l-39 -147h-229q-19 0 -15 16l33 161q2 10 9 15t12 1.5t4 -14.5q-9 -91 31 -113q23 -12 101 -12h31l19 70q-76 8 -121.5 52.5t-55 105t12.5 129t69.5 126t127.5 95.5t175 38q91 0 149.5 -37t77 -93t6 -123.5t-53 -128t-110.5 -106.5t-155 -58z" />
    <glyph glyph-name="alpha" unicode="&#x3b1;" horiz-adv-x="474" 
d="M455 390q13 -7 14.5 -19.5t-7.5 -32t-19 -36.5t-27 -43t-26 -41q-9 -16 -18.5 -30.5t-17.5 -30.5t-13.5 -31t-8 -32t-0.5 -33q3 -22 19.5 -34t33 -13.5t25.5 -7.5t1 -19q-19 -26 -55 -22t-59 26q-16 18 -25 49q-5 -9 -24 -26t-50 -34.5t-66 -19.5t-71 18q-35 22 -49.5 61
t-8.5 82.5t25 90.5t50.5 85t67 66t76.5 33.5t78 -12.5q29 -16 43 -50.5t13 -61.5l-1 -26q38 70 53 102q17 58 47 42zM277 358q-31 12 -69.5 -15t-69 -75.5t-51 -101.5t-18 -98t32.5 -60q32 -15 66.5 0.5t62.5 51.5t49.5 82.5t30.5 91t1 79.5t-35 45z" />
    <glyph glyph-name="beta" unicode="&#x3b2;" horiz-adv-x="474" 
d="M467 406q-8 -28 -27.5 -50t-38 -32.5t-33.5 -15.5l-14 -5q7 -7 18 -19.5t27.5 -52.5t13.5 -80q-5 -68 -35 -115.5t-71 -64.5t-83.5 -15.5t-77.5 29.5t-48 73q-14 -63 -22 -129q-7 -58 -18 -80t-35 -16q-12 3 -16.5 12t-3 21t4.5 26t7 27q1 5 11 50.5t22 96t29.5 119.5
t42 150t50.5 158q15 43 38.5 72.5t50 41.5t56 14.5t56 -8.5t49.5 -29t36.5 -46.5t17.5 -60.5t-7 -71zM412 457q6 57 -18 92.5t-59 40t-73.5 -25.5t-58.5 -91q-35 -105 -66.5 -230t-25.5 -150q6 -31 32.5 -55.5t60.5 -30t67 5.5t57 55.5t26 115.5q1 24 -7.5 51t-16.5 42
l-9 15q-33 -2 -55 2q-24 5 -39.5 17.5t-12.5 24.5t11 17.5t20.5 4t23.5 -4.5t25.5 -8t20.5 -7q25 -7 58 29t39 90z" />
    <glyph glyph-name="gamma" unicode="&#x3b3;" horiz-adv-x="474" 
d="M460 396q9 -7 9.5 -18.5t-4 -23t-17.5 -29.5t-24 -31t-30 -35.5t-29 -34.5q-56 -68 -74 -95t-46 -86q-14 -29 -29 -78t-16 -53q-16 -46 -39.5 -66t-49.5 -8q-18 10 -15 39.5t21 60.5q4 7 21 34t28.5 46t21 37.5t8.5 21.5q3 3 7 62.5t-12.5 129.5t-62.5 85
q-25 8 -46.5 -3.5t-32.5 -29.5t-21.5 -31t-16.5 -8q-11 8 0 39.5t44.5 59.5t77.5 24q38 -3 63 -31.5t34 -66.5t12 -76.5t2 -64.5l-2 -25q33 44 76 109q10 16 22.5 38t21.5 37.5t19 32.5t19 26.5t18.5 16t20 5.5t21.5 -10z" />
    <glyph glyph-name="delta" unicode="&#x3b4;" horiz-adv-x="474" 
d="M452 415q-13 -9 -24 -9t-19 7t-17.5 20.5t-18 28.5t-22 35t-26.5 36q-29 36 -61 43.5t-46 -17.5q-7 -12 -5.5 -28t9.5 -33t21 -36.5t29 -39t34 -39.5t35 -39q35 -32 51 -78t10.5 -92.5t-24.5 -92t-54 -76t-78 -45t-97 0.5q-57 15 -91.5 56t-43.5 91t2.5 103.5t40.5 96
t76.5 66.5t104.5 17q-22 25 -46 59q-50 75 -7 135q25 34 64.5 36t76 -18t65.5 -51q39 -42 61.5 -82t-0.5 -55zM256 355q-58 16 -106 -32t-66.5 -116.5t-1.5 -134t74 -81.5t104.5 32.5t66 117t2 134t-72.5 80.5z" />
    <glyph glyph-name="epsilon" unicode="&#x3b5;" horiz-adv-x="474" 
d="M429 57q-12 -45 -55.5 -73.5t-97.5 -32.5t-106.5 6.5t-88 43.5t-35.5 79q0 47 38 79t101 38q-54 6 -88.5 33t-34.5 72q0 40 33.5 68.5t82 38t99 6t90.5 -26.5t49 -60q5 -21 -12 -34t-37.5 -4.5t-22.5 38.5q-1 21 -23 36t-52.5 18.5t-61 -2t-51.5 -27t-21 -53.5
q0 -33 23 -54t52 -28t60 -5q47 2 47 -17q0 -12 -17.5 -15.5t-35.5 -0.5l-18 2q-57 0 -92 -28t-35 -71q0 -37 25.5 -63t61 -34t71 -5t59 24t20.5 52q-2 31 19.5 43t41 -1.5t12.5 -41.5z" />
    <glyph glyph-name="zeta" unicode="&#x3b6;" horiz-adv-x="474" 
d="M436 542q20 -37 -80 -93q-30 -18 -88 -30l-57 -12q-10 -11 -25 -32t-46 -68.5t-46 -98t-3 -86.5q10 -30 36 -46t56.5 -21t60.5 -11t54 -26t31 -56q11 -56 -39.5 -92.5t-113.5 -36.5q-99 0 -99 35q0 33 61 28q1 0 28.5 -5t46.5 -6t39.5 7.5t25.5 29.5q5 18 -9 29.5t-33 15
t-50 7.5t-44 7q-54 14 -79.5 53.5t-25.5 86.5q0 62 34 135t68 115l34 42q-5 1 -12.5 4.5t-23.5 13.5t-26.5 29.5t-9.5 43.5q1 31 27 63t55 47t40 4q19 -20 -31 -58q-36 -26 -43 -59.5t23.5 -37.5t102.5 42q25 17 55 31.5t63 20.5t43 -15z" />
    <glyph glyph-name="eta" unicode="&#x3b7;" horiz-adv-x="474" 
d="M401 114q-45 -115 -72 -197q-8 -24 -15.5 -41.5t-25 -34.5t-35.5 -6q-19 11 -20.5 28t8.5 36.5t21 44.5q18 38 56 127.5t54 142.5q13 42 12.5 75t-13.5 50.5t-32 26t-43.5 2t-47.5 -22t-44 -46t-33 -70.5q-5 -17 -15.5 -57t-20 -71.5t-21.5 -64t-27.5 -48t-31.5 -9.5
t-18 23.5t7 41.5t22 56.5l26 65t21.5 71.5t6.5 72q-2 27 -18 40t-32.5 13t-26.5 4.5t-2 17.5q20 25 56 21t59 -25q16 -18 26 -53q19 35 61 58t85 23t76.5 -27.5t35.5 -93t-39 -173.5z" />
    <glyph glyph-name="theta" unicode="&#x3b8;" horiz-adv-x="474" 
d="M147 -39q-61 16 -92 77t-31.5 140t22.5 164.5t63 154t97.5 105.5t117.5 21q52 -14 83 -61.5t36.5 -111.5t-3.5 -137t-37.5 -141t-65.5 -121t-87.5 -78.5t-102.5 -11.5zM357 287h-246q-27 -114 -16 -196.5t61 -96.5q38 -10 74 22.5t61.5 88t41.5 101.5t24 81zM363 317
q24 106 12 182.5t-60 89.5q-40 11 -77.5 -22.5t-62 -88.5t-38.5 -97t-18 -64h244z" />
    <glyph glyph-name="iota" unicode="&#x3b9;" horiz-adv-x="474" 
d="M335 30q7 -19 -36 -51.5t-79 -25.5q-38 7 -57.5 32t-19 47.5t0.5 38.5q6 35 65 238q1 4 3 13q8 27 12 39t11.5 26t18 17.5t26.5 -0.5q46 -10 11 -95q-20 -42 -72 -182q-7 -15 -12.5 -32.5t-8 -33t7.5 -28t34 -16.5q16 -2 30.5 1t24 8.5t17.5 10t13.5 3.5t9.5 -10z" />
    <glyph glyph-name="kappa" unicode="&#x3ba;" horiz-adv-x="474" 
d="M410 301q-16 0 -35.5 10.5t-34.5 5.5q-9 -3 -27.5 -38.5t-23.5 -41.5q-8 -11 -19 -20t-19 -13.5t-13 -7.5l-5 -3l10 -8q10 -8 20.5 -26t10.5 -38q0 -53 8 -73t28 -22t36 18t28.5 36t25.5 8q15 -10 0.5 -46.5t-37.5 -55.5q-51 -42 -102 -26q-34 11 -44.5 43t-10.5 82
q0 30 -10 56.5t-33 26.5h-29q-22 -70 -36 -130q-3 -10 -5 -20t-4.5 -18.5t-5.5 -15.5t-7.5 -11.5t-9.5 -7.5t-13 -2.5t-17 3.5q-25 9 -11 58t47 140q34 102 46 155l4 20t5.5 23.5t7.5 19t13.5 15t19.5 3.5q30 -4 33.5 -22.5t-13.5 -57.5l-39 -99h34q31 0 51.5 20.5
t47.5 70.5q54 99 123 88q34 -6 47.5 -30t1 -46t-43.5 -23z" />
    <glyph glyph-name="lambda" unicode="&#x3bb;" horiz-adv-x="474" 
d="M422 -34q-27 -25 -49.5 7.5t-43.5 102.5q-12 40 -17 102.5t-4 105.5l1 43q-131 -195 -162 -290q-14 -44 -37 -67.5t-48 -15.5q-49 15 37 154q27 44 79 113t90 117l37 47q2 2 3 23.5t-6 51.5t-25 47q-19 17 -46 28t-34 17q-13 9 -14.5 27.5t10.5 30.5q14 14 39 15
t55.5 -22.5t47.5 -72.5q18 -53 17.5 -104t-4.5 -55q-10 -167 28 -251q8 -17 21 -42.5t19.5 -38.5t12 -29t3.5 -26t-10 -18z" />
    <glyph glyph-name="uni03BC" unicode="&#x3bc;" horiz-adv-x="474" 
d="M464 25q1 -27 -28 -46.5t-57 -12.5q-19 6 -34.5 23.5t-18.5 32.5q-51 -56 -109.5 -60.5t-111.5 50.5q-18 -59 -27 -119q-5 -38 -21 -54t-31 -7q-33 19 -7 90q10 29 36.5 71.5t32.5 66.5q26 159 44 216q3 10 9.5 25.5t21.5 47t34.5 46t37.5 2.5q10 -7 10.5 -26t-6.5 -42
t-17.5 -49.5t-22 -48.5t-19.5 -39q-26 -53 -42 -96l-15 -44q13 -20 36.5 -33.5t51 -16.5t56.5 17.5t47 65.5q8 20 28 96t27 99q8 28 18.5 53t29 45.5t36.5 12.5q48 -22 -47 -212q-56 -114 -40 -138q12 -19 34.5 -20.5t41.5 14.5q20 17 22 -10z" />
    <glyph glyph-name="nu" unicode="&#x3bd;" horiz-adv-x="474" 
d="M409 397q11 -3 11.5 -34.5t-7.5 -74.5t-28.5 -93t-47.5 -84q-27 -33 -63.5 -63t-70.5 -48.5t-66.5 -31.5t-51.5 -13t-26 7q-5 8 1 23.5t22 53.5t28 81q21 77 23.5 119.5t-7.5 66.5q-5 14 -8 29t-4.5 27.5t4 23t18.5 14.5q27 8 44.5 -30.5t14.5 -92.5q-2 -27 -12 -69
t-21.5 -77.5t-19.5 -60.5l-9 -25q-1 -3 27 8t70.5 39t74.5 65q28 33 46.5 71t25 67.5t11 54t8.5 37t13 10.5z" />
    <glyph glyph-name="xi" unicode="&#x3be;" horiz-adv-x="474" 
d="M434 475q-6 -21 -36.5 -23t-82.5 5t-73 7q-45 0 -74 -21.5t-25 -60.5q3 -21 13.5 -33t28.5 -15.5t34 -3.5t39 2.5t33 2.5q120 0 114 -51q-2 -19 -28 -23t-58.5 3t-64.5 11q-74 10 -123.5 -40.5t-40.5 -119.5q4 -30 28.5 -47.5t56 -24.5t63 -14.5t55 -26t26.5 -51.5
t-19 -60.5t-51.5 -39t-55.5 -10.5t-30 18q-3 13 11.5 20t34.5 9.5t36.5 12t16.5 26.5q0 19 -17 28t-53.5 15t-51.5 11q-99 34 -97 142q0 39 14 72t36.5 54.5t36.5 32t28 18.5q-39 23 -49.5 56.5t1.5 61.5t32 49t37 23l1 16q2 17 6 35t21.5 39t47.5 32q20 8 40 11t36.5 -3
t15.5 -25q-1 -12 -21.5 -17t-45 -6t-43.5 -11t-18 -31q1 -16 32.5 -15.5t89.5 5.5q41 1 70 -10t23 -35z" />
    <glyph glyph-name="omicron" unicode="&#x3bf;" horiz-adv-x="474" 
d="M178 -40q-63 16 -100 61t-44.5 99t8 111t49 100t88 63.5t116.5 3.5t99.5 -62t45 -99t-8 -110.5t-49 -100t-88 -63.5t-116.5 -3zM287 370q-40 11 -77.5 -9.5t-62 -59.5t-38 -88t-11.5 -95t24.5 -82.5t63.5 -47.5q40 -11 77 9.5t61.5 59.5t37.5 88t11 95t-24 82.5t-62 47.5
z" />
    <glyph glyph-name="pi" unicode="&#x3c0;" horiz-adv-x="474" 
d="M468 370q-3 -30 -18.5 -39.5t-41.5 -8.5q-73 3 -77 -7q-11 -32 -27.5 -133t-9.5 -127q6 -21 21 -28.5t28.5 -4.5t22.5 0.5t6 -17.5q-4 -24 -32.5 -35t-50.5 -5q-27 8 -39.5 27.5t-11.5 38t1 33.5q1 23 21 131t19 123q0 7 -48.5 7t-50.5 -6q-6 -15 -27 -113t-36 -144
q-15 -50 -43.5 -80t-53.5 -10q-6 4 -10 12.5t-1 27t18 39.5q26 36 53 103t41 116l14 49q-50 6 -73 -6q-9 -5 -17 -13t-11 -12t-9 -6.5t-12 3.5q-4 5 -4.5 17t9.5 27.5t24 29.5t39 23t54 7q76 -5 198 -3q26 1 57.5 6t46 7.5t24 -3.5t7.5 -26z" />
    <glyph glyph-name="rho" unicode="&#x3c1;" horiz-adv-x="474" 
d="M215 -22q-47 13 -80 46.5t-48 76.5q0 -3 -4 -71t-3 -111q0 -27 0.5 -53.5t-9.5 -45.5t-30 -17q-17 2 -25 15.5t-6.5 46.5t6 62t15.5 88q28 153 58 247q27 75 95.5 115.5t141.5 20.5q61 -16 96.5 -59t43 -95t-7.5 -106.5t-47.5 -95.5t-84.5 -60.5t-111 -3.5zM318 369
q-56 16 -102.5 -28.5t-66.5 -118.5q-21 -70 -2 -134.5t77 -80.5q56 -15 103.5 32t65.5 114.5t0.5 133t-75.5 82.5z" />
    <glyph glyph-name="sigma" unicode="&#x3c3;" horiz-adv-x="474" 
d="M416 399q17 -7 21.5 -19t-5 -20.5t-27.5 -5.5q-123 20 -151 -4q2 2 28.5 1t48.5 -12q40 -20 63.5 -51.5t29.5 -68t-1 -75t-26 -73.5t-47.5 -62.5t-62 -43.5t-74 -15t-79.5 22q-61 32 -83.5 85t-9.5 107.5t44.5 105.5t75.5 88q34 29 92.5 40.5t102 9.5t60.5 -9zM318 311
q-52 27 -106.5 -6.5t-85 -92t-28 -122t51.5 -89.5q36 -19 70 -7.5t65 39.5t51 69.5t28.5 81t-3 75.5t-43.5 52z" />
    <glyph glyph-name="tau" unicode="&#x3c4;" horiz-adv-x="474" 
d="M450 370q-3 -50 -60 -48q-127 5 -129 -4q-6 -14 -36 -95.5t-36 -99.5q-26 -89 22 -100q13 -3 40 1t43 3t15 -15q-1 -29 -40 -44.5t-69 -13.5q-54 3 -72.5 34.5t-8.5 71.5q6 26 46.5 137.5t36.5 122.5q-1 7 -52.5 4.5t-69.5 -11.5q-9 -5 -17 -13t-11 -12t-9 -6.5t-12 3.5
q-4 5 -4.5 17t9.5 27.5t24 29.5t39 23t54 7q71 -4 172 -3q26 1 55.5 6t42.5 7.5t21 -3.5t6 -26z" />
    <glyph glyph-name="upsilon" unicode="&#x3c5;" horiz-adv-x="474" 
d="M440 266q-11 -48 -43 -109t-80.5 -117t-104.5 -76.5t-115 12.5q-16 10 -27.5 21t-18.5 22.5t-11 24.5t-5 27t0 29t4.5 30.5t8 33t10 35t11.5 36.5q8 26 12 73t12 71t30 23q71 -4 28 -125q-5 -13 -23.5 -54t-27 -65t-16.5 -57t-0.5 -56.5t28.5 -38.5q44 -31 106 4t99 106
q32 62 44.5 120t9 86.5t1 44.5t25.5 15q23 -2 38 -37.5t5 -78.5z" />
    <glyph glyph-name="phi" unicode="&#x3c6;" horiz-adv-x="474" 
d="M206 -21l-18 -92q-7 -36 -20.5 -49t-32.5 -5q-14 5 -17.5 14.5t0.5 24.5t11 38q3 10 11 38t13 45q-42 14 -71 45.5t-39 70.5t-9.5 82.5t18 83t44 70.5t68 48t90.5 12q15 -1 19 -8t-4 -14t-23 -8q-49 -4 -87 -49t-51.5 -102t-1 -114t54.5 -84l63 240q16 61 53.5 95t77.5 9
q50 -33 72 -87.5t12 -110t-38.5 -104t-81 -74.5t-113.5 -15zM334 345q-8 6 -16 6t-14.5 -4t-13 -13t-11 -19t-9.5 -24t-8 -25.5t-6.5 -25.5t-5 -22.5t-3.5 -19.5l-36 -188q51 0 90.5 38.5t56 91t11.5 110.5t-35 95z" />
    <glyph glyph-name="chi" unicode="&#x3c7;" horiz-adv-x="474" 
d="M438 389q33 -35 -50 -91q-23 -16 -66 -57t-64 -69q23 -132 61 -148q15 -6 32.5 3t30 17t18.5 1q10 -13 -15.5 -50.5t-51.5 -41.5q-20 -3 -36.5 5t-27 20.5t-19.5 34.5t-13.5 38t-10.5 40t-9 33q-74 -86 -85 -103q-21 -34 -48 -55.5t-46 1.5q-12 15 -7 30.5t22 28.5t37 31
l117 118q-7 42 -21 97.5t-31 63.5q-18 9 -43 -5.5t-29 -8.5q-12 16 17 51t64 34q24 -1 40.5 -14.5t24 -37.5t10.5 -46.5t5.5 -52t5.5 -42.5q22 28 92 125q20 25 27 34t21.5 21t25 10t22.5 -15z" />
    <glyph glyph-name="psi" unicode="&#x3c8;" horiz-adv-x="474" 
d="M449 405q17 1 18.5 -4.5t-7 -13t-21.5 -15.5q-23 -13 -36 -69.5t-30.5 -126t-50.5 -106.5q-65 -72 -165 -78q-9 -36 -14 -72q-5 -39 -23.5 -65t-41.5 -19q-15 4 -21 14t-2.5 25.5t9 29.5t16.5 35q4 6 25 54q-34 9 -56 25t-34 51q-11 29 -3 80t22 93t20 82t-9 47
q-10 7 -13.5 15t3 13.5t22.5 4.5q44 -4 53 -63q4 -37 -19.5 -135t-15.5 -129q10 -42 40 -56q49 122 70 269q4 27 7 42t10.5 37t19.5 30.5t29 2.5q13 -4 19 -14.5t6.5 -20.5t-5 -30t-9 -30t-13.5 -34q-56 -137 -88 -258q45 0 103 61q28 30 47.5 129.5t43.5 135.5q39 59 94 63
z" />
    <glyph glyph-name="omega" unicode="&#x3c9;" horiz-adv-x="474" 
d="M457 130q-23 -84 -64.5 -131t-94.5 -48q-36 0 -62.5 26.5t-29.5 48.5q-8 -14 -31.5 -31.5t-56.5 -26.5t-62 16q-33 27 -43 84.5t-0.5 117.5t31.5 106q17 35 65 83t73 25q13 -12 -4 -39t-47.5 -71t-40.5 -80q-13 -47 -15 -96t11.5 -82t42.5 -26t44.5 33.5t19.5 57
t9.5 74.5t13.5 69q11 36 32.5 61.5t39.5 21.5q22 -6 24 -39t-7 -66t-20 -54q-67 -132 -24 -162q39 -27 81.5 26.5t51.5 119.5q6 44 5 78.5t-5 63t-7.5 48t-2.5 33.5t9 20q21 16 43 -27t29 -106.5t-8 -127.5z" />
    <glyph glyph-name="SF100000" unicode="&#x2500;" 
d="M944 281h-940v38h940v-38z" />
    <glyph glyph-name="SF110000" unicode="&#x2502;" 
d="M494 -170h-40v940h40v-940z" />
    <glyph glyph-name="SF010000" unicode="&#x250c;" 
d="M944 281h-450v-451h-40v489h490v-38z" />
    <glyph glyph-name="SF030000" unicode="&#x2510;" 
d="M494 -170h-40v451h-450v38h490v-489z" />
    <glyph glyph-name="SF040000" unicode="&#x2518;" 
d="M494 281h-490v38h450v451h40v-489z" />
    <glyph glyph-name="SF020000" unicode="&#x2514;" 
d="M944 281h-490v489h40v-451h450v-38z" />
    <glyph glyph-name="SF080000" unicode="&#x251c;" 
d="M944 281h-450v-451h-40v940h40v-451h450v-38z" />
    <glyph glyph-name="SF060000" unicode="&#x252c;" 
d="M944 281h-450v-451h-40v451h-450v38h940v-38z" />
    <glyph glyph-name="SF090000" unicode="&#x2524;" 
d="M494 -169h-40v450h-450v38h450v451h40v-939z" />
    <glyph glyph-name="SF070000" unicode="&#x2534;" 
d="M944 281h-940v38h450v450h40v-450h450v-38z" />
    <glyph glyph-name="SF050000" unicode="&#x253c;" 
d="M944 281h-450v-451h-40v451h-450v38h450v451h40v-451h450v-38z" />
    <glyph glyph-name="uni2501" unicode="&#x2501;" 
d="M944 262h-940v76h940v-76z" />
    <glyph glyph-name="uni2503" unicode="&#x2503;" 
d="M513 -170h-78v940h78v-940z" />
    <glyph glyph-name="uni250F" unicode="&#x250f;" 
d="M944 262h-431v-432h-78v508h509v-76z" />
    <glyph glyph-name="uni2513" unicode="&#x2513;" 
d="M513 -170h-78v432h-431v76h509v-508z" />
    <glyph glyph-name="uni251B" unicode="&#x251b;" 
d="M513 262h-509v76h431v432h78v-508z" />
    <glyph glyph-name="uni2517" unicode="&#x2517;" 
d="M944 262h-509v508h78v-432h431v-76z" />
    <glyph glyph-name="uni2523" unicode="&#x2523;" 
d="M944 262h-431v-432h-78v940h78v-432h431v-76z" />
    <glyph glyph-name="uni2533" unicode="&#x2533;" 
d="M944 262h-431v-432h-78v432h-431v76h940v-76z" />
    <glyph glyph-name="uni252B" unicode="&#x252b;" 
d="M513 -170h-78v432h-431v76h431v432h78v-940z" />
    <glyph glyph-name="uni253B" unicode="&#x253b;" 
d="M944 262h-940v76h431v432h78v-432h431v-76z" />
    <glyph glyph-name="uni254B" unicode="&#x254b;" 
d="M944 262h-431v-432h-78v432h-431v76h431v432h78v-432h431v-76z" />
    <glyph glyph-name="uni2520" unicode="&#x2520;" 
d="M944 281h-431v-451h-78v940h78v-451h431v-38z" />
    <glyph glyph-name="uni252F" unicode="&#x252f;" 
d="M944 262h-450v-432h-40v432h-450v76h940v-76z" />
    <glyph glyph-name="uni2528" unicode="&#x2528;" 
d="M513 -170h-78v451h-431v38h431v451h78v-940z" />
    <glyph glyph-name="uni2537" unicode="&#x2537;" 
d="M944 262h-940v76h450v432h40v-432h450v-76z" />
    <glyph glyph-name="uni253F" unicode="&#x253f;" 
d="M944 262h-450v-432h-40v432h-450v76h450v432h40v-432h450v-76z" />
    <glyph glyph-name="uni251D" unicode="&#x251d;" 
d="M944 262h-450v-432h-40v940h40v-432h450v-76z" />
    <glyph glyph-name="uni2530" unicode="&#x2530;" 
d="M944 281h-431v-451h-78v451h-431v38h940v-38z" />
    <glyph glyph-name="uni2525" unicode="&#x2525;" 
d="M494 -169h-40v431h-450v76h450v432h40v-939z" />
    <glyph glyph-name="uni2538" unicode="&#x2538;" 
d="M944 281h-940v38h431v451h78v-451h431v-38z" />
    <glyph glyph-name="uni2542" unicode="&#x2542;" 
d="M944 281h-431v-451h-78v451h-431v38h431v451h78v-451h431v-38z" />
    <glyph glyph-name="uni2512" unicode="&#x2512;" 
d="M513 -170h-78v451h-431v38h509v-489z" />
    <glyph glyph-name="uni2511" unicode="&#x2511;" 
d="M494 -170h-40v432h-450v76h490v-508z" />
    <glyph glyph-name="uni251A" unicode="&#x251a;" 
d="M513 281h-509v38h431v451h78v-489z" />
    <glyph glyph-name="uni2519" unicode="&#x2519;" 
d="M494 262h-490v76h450v432h40v-508z" />
    <glyph glyph-name="uni2516" unicode="&#x2516;" 
d="M944 281h-509v489h78v-451h431v-38z" />
    <glyph glyph-name="uni2515" unicode="&#x2515;" 
d="M944 262h-490v508h40v-432h450v-76z" />
    <glyph glyph-name="uni250E" unicode="&#x250e;" 
d="M944 281h-431v-451h-78v489h509v-38z" />
    <glyph glyph-name="uni250D" unicode="&#x250d;" 
d="M944 262h-450v-432h-40v508h490v-76z" />
    <glyph glyph-name="uni251E" unicode="&#x251e;" 
d="M944 281h-451l1 -451h-40v470h-19v470h78v-451h431v-38z" />
    <glyph glyph-name="uni251F" unicode="&#x251f;" 
d="M944 281h-431v-451h-78v470h19v470h40v-451h450v-38z" />
    <glyph glyph-name="uni2521" unicode="&#x2521;" 
d="M944 262h-450v-432h-40v470h-19v470h78v-432h431v-76z" />
    <glyph glyph-name="uni2522" unicode="&#x2522;" 
d="M944 262h-431v-432h-78v470h19v470h40v-432h450v-76z" />
    <glyph glyph-name="uni2526" unicode="&#x2526;" 
d="M513 300h-19v-470h-40v451h-450v38h431v451h78v-470z" />
    <glyph glyph-name="uni2527" unicode="&#x2527;" 
d="M513 -170h-78v451h-431v38h450v451h40v-470h19v-470z" />
    <glyph glyph-name="uni2529" unicode="&#x2529;" 
d="M513 300h-19v-469h-40v431h-450v76h431v432h78v-470z" />
    <glyph glyph-name="uni252A" unicode="&#x252a;" 
d="M513 -170h-78v432h-431v76h450v432h40v-470h19v-470z" />
    <glyph glyph-name="uni252D" unicode="&#x252d;" 
d="M944 281h-450v-451h-40v432h-450v76h470v-19h470v-38z" />
    <glyph glyph-name="uni252E" unicode="&#x252e;" 
d="M944 262h-450v-432h-40v451h-450v38h470v19h470v-76z" />
    <glyph glyph-name="uni2531" unicode="&#x2531;" 
d="M944 281h-431v-451h-78v432h-431v76h470v-19h470v-38z" />
    <glyph glyph-name="uni2532" unicode="&#x2532;" 
d="M944 262h-431v-432h-78v451h-431v38h470v19h470v-76z" />
    <glyph glyph-name="uni2535" unicode="&#x2535;" 
d="M944 281h-470v-19h-470v76h450v431h40v-450h450v-38z" />
    <glyph glyph-name="uni2536" unicode="&#x2536;" 
d="M944 262h-470v19h-470v38h450v450h40v-431h450v-76z" />
    <glyph glyph-name="uni2539" unicode="&#x2539;" 
d="M944 281h-470v-19h-470v76h431v432h78v-451h431v-38z" />
    <glyph glyph-name="uni253A" unicode="&#x253a;" 
d="M944 262h-470v19h-470v38h431v451h78v-432h431v-76z" />
    <glyph glyph-name="uni253D" unicode="&#x253d;" 
d="M944 281h-450v-451h-40v432h-450v79h450v429h40v-451h450v-38z" />
    <glyph glyph-name="uni253E" unicode="&#x253e;" 
d="M944 262h-450v-432h-40v451h-450v38h450v451h40v-432h450v-76z" />
    <glyph glyph-name="uni2540" unicode="&#x2540;" 
d="M944 281h-450v-451h-40v451h-450v38h431v451h78v-451h431v-38z" />
    <glyph glyph-name="uni2541" unicode="&#x2541;" 
d="M944 281h-431v-451h-78v451h-431v38h450v451h40v-451h450v-38z" />
    <glyph glyph-name="uni2543" unicode="&#x2543;" 
d="M944 281h-450v-451h-40v432h-450v76h431v432h78v-451h431v-38z" />
    <glyph glyph-name="uni2544" unicode="&#x2544;" 
d="M944 262h-450v-432h-40v451h-450v38h431v451h78v-432h431v-76z" />
    <glyph glyph-name="uni2545" unicode="&#x2545;" 
d="M944 281h-431v-451h-78v432h-431v76h450v432h40v-451h450v-38z" />
    <glyph glyph-name="uni2546" unicode="&#x2546;" 
d="M944 262h-431v-432h-78v451h-431v38h450v451h40v-432h450v-76z" />
    <glyph glyph-name="uni2547" unicode="&#x2547;" 
d="M944 262h-450v-432h-40v432h-450v76h431v432h78v-432h431v-76z" />
    <glyph glyph-name="uni2548" unicode="&#x2548;" 
d="M944 262h-431v-432h-78v432h-431v76h450v432h40v-432h450v-76z" />
    <glyph glyph-name="uni2549" unicode="&#x2549;" 
d="M944 281h-431v-451h-78v432h-431v76h431v432h78v-451h431v-38z" />
    <glyph glyph-name="uni254A" unicode="&#x254a;" 
d="M944 262h-431v-432h-78v451h-431v38h431v451h78v-432h431v-76z" />
    <glyph glyph-name="uni3395" unicode="&#x3395;" 
d="M886 19q-19 -41 -49 -68.5t-66 -38t-77.5 7t-78.5 64.5q-43 -16 -88 -16l-28 96q60 3 75 6q-33 82 -41 188.5t15 212t77 167.5q74 80 136.5 46t79.5 -143q14 -111 7 -195.5t-33.5 -150.5t-54 -105t-55.5 -58q33 -39 61 -23t47 75zM497 435l-66 -412q-2 -10 8 -14t25 -2.5
t32 1.5l-17 -80q-29 -1 -65 -2.5t-62.5 17t-18.5 55.5q-13 -24 -35 -42.5t-45.5 -26.5t-45.5 3.5t-34 43.5l-20 -123h-98l94 582h101l-40 -253q-13 -81 3.5 -118t45.5 -29t59 51t40 104l43 246zM744 545q-11 45 -23.5 50t-29.5 -21q-40 -57 -54.5 -148t-6.5 -172t29 -133
q55 45 84 177t1 247z" />
    <glyph glyph-name="uni3396" unicode="&#x3396;" 
d="M904 21q-19 -41 -49 -69t-66 -38.5t-78 7t-80 64.5q-46 -16 -87 -16l-28 96q54 3 73 6q-33 82 -41 188.5t15 212t77 167.5q47 55 93.5 56.5t78.5 -41t43 -111.5q14 -111 7 -196t-33 -151t-53.5 -105t-55.5 -58q33 -39 60.5 -23t47.5 75zM509 -69h-91v315q0 43 -8 71
t-19.5 34t-23 -1.5t-19.5 -35.5t-8 -68v-315h-92v315q0 42 -8 70.5t-19 34t-22.5 -1.5t-19.5 -35t-8 -68v-315h-91v501h79v-48q12 45 42.5 58.5t60 -8t40.5 -66.5q20 53 56 72t69 5t57.5 -59t24.5 -108v-347zM761 546q-11 46 -23.5 50t-29.5 -22q-39 -56 -53.5 -147
t-6.5 -172t29 -132q55 45 83.5 176.5t0.5 246.5z" />
    <glyph glyph-name="uni3397" unicode="&#x3397;" 
d="M861 21q-20 -41 -49.5 -69t-65.5 -38.5t-77 7t-79 64.5q-44 -16 -89 -16l-26 97q44 0 74 6q-33 81 -41 187.5t15.5 212t77.5 167.5q74 80 135.5 46.5t78.5 -142.5q14 -111 7 -196t-33 -151t-53 -105t-55 -58q33 -39 60 -23t48 75zM445 -62h-91v75q-31 -83 -112 -84
q-58 -1 -100 37.5t-60 97.5t-16.5 127.5t22.5 128t65.5 99t104.5 40.5q66 1 96 -65v246h91v-702zM717 546q-11 46 -22.5 50.5t-27.5 -21.5q-40 -56 -55 -147.5t-7 -172.5t30 -132q54 45 82 176.5t0 246.5zM262 369q-45 0 -71 -54.5t-26.5 -120.5t23 -120t65.5 -52
q36 1 59.5 37t29 86.5t0.5 101t-27 86t-53 36.5z" />
    <glyph glyph-name="uni2113" unicode="&#x2113;" 
d="M506 22q-20 -41 -54 -69.5t-75 -39t-87 7t-84 64.5q-48 -16 -99 -16l-28 99h35t49 5q-34 81 -42 187.5t16.5 211.5t80.5 167q80 83 145.5 49t81.5 -145q13 -109 5 -194t-35 -151t-55.5 -106t-56.5 -59q33 -40 70 -22.5t58 75.5zM341 546q-11 45 -23.5 48.5t-30.5 -21.5
q-40 -59 -55.5 -149.5t-7.5 -170.5t30 -131q55 43 85 177t2 247z" />
    <glyph glyph-name="uni3398" unicode="&#x3398;" 
d="M872 21q-19 -41 -49 -69t-66 -38.5t-77.5 7t-78.5 64.5q-44 -16 -88 -16l-29 97q46 0 76 6q-32 81 -40 187.5t15 211.5t77 168q47 55 93.5 56t78 -41t42.5 -111q14 -111 7 -196t-33 -151t-53.5 -105t-55.5 -58q32 -39 60.5 -23t47.5 75zM528 -69h-121l-173 233l-34 -37
v-196h-94v728h94v-401l174 194h120l-189 -216zM729 546q-11 45 -23 49.5t-30 -20.5q-38 -57 -52.5 -148t-7 -172t28.5 -132q55 44 83.5 175.5t0.5 247.5z" />
    <glyph glyph-name="uni33C4" unicode="&#x33c4;" 
d="M913 97q-5 -52 -30.5 -93t-63.5 -62t-82.5 -29.5t-88.5 7t-79.5 46.5t-58 90t-22.5 135q0 86 32 148t79.5 89.5t102.5 30t102 -19t77 -69t27 -109.5h-96q-1 34 -18 59t-41.5 36t-52.5 7.5t-52 -21.5t-40 -57t-16 -93q0 -59 15.5 -101t38.5 -61t50.5 -23.5t52 5.5t42 32.5
t20.5 52.5h102zM479 97q-4 -45 -24.5 -82t-51 -60.5t-68.5 -35t-77 -9t-76 21.5t-65.5 51.5t-46 86t-17.5 121.5q0 86 32 148t79.5 89.5t102.5 30t102 -19t77 -69t28 -109.5h-96q-2 34 -19.5 59.5t-42 36t-52.5 6t-51.5 -22.5t-39 -56.5t-15.5 -91.5q0 -59 15 -101t38 -61
t50.5 -23.5t52 5.5t42 32.5t21.5 52.5h102z" />
    <glyph glyph-name="uni33A3" unicode="&#x33a3;" 
d="M828 353q-51 -1 -78 28t-27 78h63q0 -46 40 -46q19 0 30.5 10.5t13 23.5t-6.5 25.5t-23 15.5h-39v54q30 0 37 1q25 13 19 42.5t-35 28.5q-34 -2 -34 -43h-58q-3 39 23 68.5t71 29.5q50 0 76.5 -29.5t21 -65.5t-38.5 -54q43 -18 51 -58.5t-22 -74t-84 -34.5zM736 -68h-78
v316q0 42 -5 70t-12 33.5t-13.5 -1.5t-11.5 -35t-5 -67v-316h-78v316q0 42 -5 69.5t-12 33t-14 -1.5t-12 -34.5t-5 -66.5v-316h-77v501h62v-43q9 43 31.5 56t44.5 -8.5t31 -65.5q14 54 41 72t53 2.5t45.5 -61t19.5 -106.5v-347zM371 -68h-78v316q0 42 -5 69.5t-11.5 33.5
t-13.5 -1t-12 -34.5t-5 -67.5v-316h-78v316q0 43 -5 71t-12 33t-14 -2.5t-12 -35t-5 -66.5v-316h-78v501h63v-43q9 44 31.5 55.5t45 -10t30.5 -63.5q9 40 28.5 61.5t41 19t42 -20.5t34 -59t13.5 -94v-347z" />
    <glyph glyph-name="uni33A4" unicode="&#x33a4;" 
d="M826 353q-51 -1 -78.5 28t-27.5 79h64q-2 -47 40 -47q19 0 31 10.5t13 23.5t-7 25.5t-24 15.5h-39v55q31 0 38 1q26 14 19 42.5t-35 27.5q-34 -2 -34 -42h-58q-3 39 23 68.5t71 29.5q49 0 76 -29.5t21 -65.5t-39 -54q43 -18 51 -58.5t-21.5 -74.5t-83.5 -35zM738 -68h-81
v316q0 41 -5.5 69t-13.5 34.5t-16.5 0t-14 -34.5t-5.5 -69v-316h-80v316q0 41 -6 68.5t-14.5 34t-17 -0.5t-14.5 -34.5t-6 -67.5v-316h-84v501h68v-44q9 44 33 56t48 -9.5t33 -64.5q12 38 33 59.5t44.5 20.5t45 -18t35.5 -57.5t15 -95.5zM366 101q-3 -61 -29 -106.5
t-63.5 -65.5t-81 -15.5t-80 33t-61 92t-24.5 149.5t25.5 149t63.5 90.5t82 31t82 -18t62 -69t23 -110.5h-89q0 34 -11.5 60t-28 39.5t-36.5 11t-37.5 -20.5t-29 -60.5t-12.5 -102.5q-1 -68 15 -114t38.5 -59.5t45.5 -10t39 30.5t17 66h90z" />
    <glyph glyph-name="uni33A5" unicode="&#x33a5;" 
d="M746 352q-55 -1 -84 28t-29 79h68q-2 -46 43 -46q26 0 37.5 17t4 35.5t-28.5 22.5h-42v55q33 0 41 1q27 14 20.5 42.5t-37.5 27.5q-40 -1 -36 -42h-62q-2 40 25 69.5t75 29.5q52 0 80.5 -29.5t23 -65.5t-40.5 -56q47 -19 55 -59.5t-25 -74t-88 -34.5zM620 -67h-92v315
q0 52 -17 80.5t-37 27t-37 -30t-17 -77.5v-315h-93v315q0 50 -17 78t-38 28t-38 -28t-17 -78v-315h-93v500h81v-47q12 42 48.5 58t74 -4.5t49.5 -70.5q21 51 62.5 70.5t81 7.5t69.5 -56.5t30 -110.5v-347z" />
    <glyph glyph-name="uni33A6" unicode="&#x33a6;" 
d="M739 -68h-81v315q0 42 -5 69.5t-12 33.5t-14.5 -0.5t-12.5 -34.5t-5 -68v-315h-80v315q0 41 -5 69t-12.5 33.5t-15 -1.5t-12.5 -34.5t-5 -66.5v-315h-179l-122 229l-31 -42v-187h-92v717h92v-391l131 182h105l-143 -203l155 -290v486h64v-44q9 41 32.5 54.5t47 -7
t31.5 -65.5q16 56 45 73t55 -0.5t46 -62.5t20 -103zM824 354q-51 -1 -77.5 27.5t-26.5 78.5h64q-2 -47 39 -47q19 0 30.5 11t12.5 24t-7 25t-24 15l-38 1v54h37q25 14 19 43t-35 28q-32 -1 -32 -42h-59q-3 39 22.5 68.5t70.5 29.5q50 0 76 -30t20 -66t-39 -53
q44 -20 52 -60.5t-22 -73.5t-83 -33z" />
    <glyph glyph-name="uni3399" unicode="&#x3399;" 
d="M830 -68h-95v316q0 43 -8 71.5t-19.5 34t-23 -1.5t-19.5 -35.5t-8 -68.5v-316h-96v316q0 43 -8 71.5t-19.5 34t-22.5 -2t-19 -35.5t-8 -68v-316h-96v501h82v-46q12 45 42.5 58.5t60.5 -8t42 -67.5q15 41 42.5 62.5t56.5 19.5t55.5 -20t43.5 -58.5t17 -93.5v-348zM340 359
h-60v-425h-92v425h-67v85h67v66q0 68 9.5 93.5t46.5 25.5h93v-86h-18.5t-15.5 -1t-12 -4t-8 -9t-3 -15v-70h60v-85z" />
    <glyph glyph-name="uni339A" unicode="&#x339a;" 
d="M870 -69h-91v315q0 42 -8 70t-19.5 34t-23 -1t-19.5 -35t-8 -68v-315h-93v315q0 43 -8 71t-19 33.5t-22.5 -2t-19.5 -35.5t-8 -67v-315h-90v501h73v-48q10 42 41.5 56.5t63 -5.5t42.5 -66q17 51 52.5 70t70 6t60.5 -58t26 -109v-347zM382 -70h-93v315q0 57 -18 85.5
t-40 25t-40 -34t-18 -76.5v-315h-94v502h89v-58q16 35 43.5 54t56.5 17t55 -19t42.5 -55t16.5 -89v-352z" />
    <glyph glyph-name="uni339B" unicode="&#x339b;" 
d="M886 -70h-89v314q0 42 -7.5 70t-17.5 34t-20.5 -1t-18 -35t-7.5 -68v-314h-89v313q0 42 -7.5 70t-18.5 34t-22 -1t-18.5 -35t-7.5 -68v-313h-88v499h73v-45q12 43 41 57.5t58 -6.5t40 -68q14 41 39 62.5t52 19t51.5 -20.5t40.5 -58.5t16 -93.5v-346zM444 435l-67 -412
q-1 -6 1 -10t9.5 -5t13 -1t17.5 1t18 1l-17 -81q-136 -23 -136 69q-12 -23 -31.5 -41.5t-39.5 -25.5t-37.5 3t-24.5 40l-21 -120h-92l94 582h96l-43 -264q-9 -63 -3.5 -99.5t23 -41t37.5 9.5t39 52.5t27 87.5l44 255h93z" />
    <glyph glyph-name="uni339C" unicode="&#x339c;" 
d="M877 -69h-82v316q0 40 -6.5 68t-15.5 34.5t-18.5 0t-16 -34.5t-6.5 -68v-316h-83v316q0 40 -6.5 67.5t-15.5 33.5t-18.5 0t-16 -33.5t-6.5 -67.5v-316h-85v502h68v-45q10 42 36 55.5t52.5 -7t37.5 -67.5q18 54 49.5 72.5t60.5 3.5t50.5 -60t21.5 -106v-348zM446 -69h-84
v316q0 41 -6.5 68.5t-15.5 34t-18 0t-15.5 -34.5t-6.5 -68v-316h-84v316q0 34 -4.5 58.5t-11.5 35.5t-15.5 11t-15.5 -11.5t-11.5 -36t-4.5 -57.5v-316h-84v502h68v-46q12 47 38 58t51 -11t36 -64q14 43 38 64.5t48.5 17t47 -24t36.5 -59.5t14 -89v-348z" />
    <glyph glyph-name="uni339D" unicode="&#x339d;" 
d="M886 -69h-88v313q0 42 -7.5 70.5t-18.5 34.5t-22 -1t-18.5 -35t-7.5 -69v-313h-88v313q0 43 -7.5 71t-18 33.5t-21.5 -2t-18.5 -35.5t-7.5 -67v-313h-89v499h75v-44q11 45 39 58t56.5 -9.5t40.5 -68.5q14 43 39.5 65.5t53 19.5t52 -21.5t40.5 -60t16 -93.5v-345zM452 99
q-6 -61 -38 -106t-76.5 -65t-94.5 -15.5t-92.5 33.5t-70.5 93t-28 152q0 66 17 119t45.5 84.5t64.5 49.5t73 19t73 -12t63.5 -38t44 -64.5t15.5 -87.5h-93q-3 38 -19 64.5t-38.5 37t-48 6t-47 -23.5t-35.5 -59t-14 -93q0 -59 14 -101t35 -61.5t46 -24t47 5.5t38.5 33
t20.5 54h98z" />
    <glyph glyph-name="uni339E" unicode="&#x339e;" 
d="M885 -69h-88v314q0 42 -7.5 70.5t-18.5 34.5t-22 -1t-18.5 -35.5t-7.5 -68.5v-314h-88v313q0 43 -7.5 71t-18.5 33.5t-21.5 -2t-18 -35.5t-7.5 -67v-313h-89v500h74v-44q10 45 38.5 58t57.5 -9t42 -69q14 43 39.5 65.5t52.5 19.5t51.5 -22t40.5 -60t16 -94v-345zM463 -69
h-113l-151 230l-32 -38v-192h-94v728h94v-398l156 188h115l-172 -213z" />
    <glyph glyph-name="uni339F" unicode="&#x339f;" 
d="M924 380h-186q-1 38 11 67t29.5 45t36 29t31 26.5t12.5 29.5q0 24 -17.5 34.5t-33.5 -4t-13 -48.5h-61q-2 40 16.5 68.5t46 36t55.5 3.5t46.5 -29t17.5 -63q-1 -21 -13 -39.5t-28 -31.5t-32 -24.5t-27.5 -23.5t-12.5 -24h122v-52zM370 -68h-78v316q0 41 -4.5 68.5
t-11.5 34t-14 -0.5t-11.5 -34.5t-4.5 -67.5v-316h-80v316q0 43 -5 71t-12 33t-13.5 -2.5t-11.5 -35.5t-5 -66v-316h-78v501h64v-44q8 43 30.5 55.5t45 -8t29.5 -63.5q11 43 31 64t42 16t41.5 -24.5t32.5 -60t13 -89.5v-347zM733 -68h-78v316q0 41 -4.5 68.5t-11.5 34
t-14 -0.5t-11.5 -34.5t-4.5 -67.5v-316h-80v316q0 43 -5 71t-11.5 33t-13.5 -2.5t-12 -35.5t-5 -66v-316h-78v501h64v-44q9 43 31.5 55.5t45 -8t29.5 -63.5q11 43 31 64t41.5 16t41.5 -24.5t32.5 -60t12.5 -89.5v-347z" />
    <glyph glyph-name="uni33A0" unicode="&#x33a0;" 
d="M924 380h-186q-1 38 11 67t29.5 45t36 29t31 26.5t12.5 29.5q0 24 -17.5 34.5t-33.5 -4t-13 -48.5h-61q-2 40 16.5 68.5t46 36t55.5 3.5t46.5 -29t17.5 -63q-1 -21 -13 -39.5t-28 -31.5t-32 -24.5t-27.5 -23.5t-12.5 -24h122v-52zM734 -69h-80v315q0 40 -6 68t-14 34.5
t-16 0t-14 -34.5t-6 -68v-315h-81v315q0 41 -5.5 69t-13.5 33.5t-16.5 -1.5t-14 -34.5t-5.5 -66.5v-315h-83v501h68v-44q9 42 33.5 55t49 -8t31.5 -65q17 51 47 69.5t57.5 5t48 -58t20.5 -108.5v-347zM363 97q-2 -62 -28.5 -107.5t-64 -65.5t-80.5 -15.5t-79.5 33.5t-61 92
t-24.5 149t25.5 148.5t63.5 90.5t82 31.5t81.5 -18t62 -69t22.5 -110.5h-88q0 35 -11.5 61.5t-28.5 38.5t-37 8.5t-37 -22t-29 -60t-12 -99.5q0 -57 11 -98.5t28 -60.5t37 -24t37 5.5t29 34.5t13 57h89z" />
    <glyph glyph-name="uni33A1" unicode="&#x33a1;" 
d="M855 378h-192q-1 38 11 67t30 45.5t36.5 29t32 26.5t14.5 30q1 17 -10 28t-24.5 11.5t-24.5 -14t-10 -42.5h-59q-3 50 26.5 80t65.5 32.5t65.5 -23.5t27.5 -73q-1 -27 -19 -49t-38.5 -35t-38.5 -29.5t-19 -32.5h126v-51zM624 -69h-93v314q0 52 -16.5 80.5t-37 27t-37 -30
t-16.5 -77.5v-314h-93v314q0 50 -17 78.5t-38 28.5t-38 -28.5t-17 -78.5v-314h-93v500h80v-48q12 44 49 58.5t74.5 -7t49.5 -68.5q28 69 87 81.5t107.5 -36t48.5 -134.5v-346z" />
    <glyph glyph-name="uni33A2" unicode="&#x33a2;" 
d="M738 -68h-81v315q0 42 -5 69.5t-12.5 33.5t-14.5 -0.5t-12 -34.5t-5 -68v-315h-79v315q0 41 -5 69t-12.5 33.5t-15 -1.5t-12.5 -34.5t-5 -66.5v-315h-180l-122 229l-31 -42v-187h-92v717h92v-391l132 182h104l-143 -203l155 -290v486h64v-44q9 41 32.5 54.5t47 -7
t31.5 -65.5q6 21 10.5 33.5t21.5 28t41 15.5q36 0 57.5 -26t28 -61t7.5 -83zM924 380h-186q-1 38 11 67t29.5 45t36 29t31 26.5t12.5 29.5q0 24 -17.5 34.5t-33.5 -4t-13 -48.5h-61q-2 40 16.5 68.5t46 36t55.5 3.5t46.5 -29t17.5 -63q-1 -21 -13 -39.5t-28 -31.5t-32 -24.5
t-27.5 -23.5t-12.5 -24h122v-52z" />
    <glyph glyph-name="uni33CA" unicode="&#x33ca;" 
d="M890 -32l-72 -51q-40 40 -49 86q-43 -82 -140 -79q-55 2 -92.5 42.5t-51 99.5t-7.5 127.5t29 127t67 97.5t99 39q76 0 101 -64l3 43h77q-5 -31 -8 -102l-4 -71l-1 -202q0 -21 12.5 -44t24.5 -36zM452 -69h-100v296q0 58 -23 91t-51 32.5t-51 -34t-23 -91.5v-294h-98v720
h98v-276q25 48 67.5 62.5t82.5 -2t69 -64t29 -111.5v-329zM665 368q-54 0 -80.5 -88t-10 -176.5t65.5 -89.5q34 -1 57.5 35.5t30 88.5t3 104.5t-21.5 89t-44 36.5z" />
    <glyph glyph-name="uni338D" unicode="&#x338d;" 
d="M846 48q0 -67 -25.5 -116.5t-64 -73t-84 -27t-85.5 14t-69 58.5t-33 99h100q4 -45 32.5 -68t60 -19.5t57.5 33t26 77.5v37q-17 -30 -38 -44t-63 -15q-60 -1 -103.5 36.5t-61.5 94.5t-17 123.5t21 124t62 95.5t98 38q71 0 102 -70v53h85v-451zM468 471l-65 -412
q-1 -6 1.5 -10t10.5 -5t14 -1t19 1t18 1l-16 -85q-36 -2 -68 -3t-53.5 17t-21.5 57q-11 -23 -30.5 -41t-40.5 -26t-41 2.5t-30 41.5l-20 -122h-94l94 582h95l-40 -255q-9 -59 -4 -90.5t17 -46t30 -7.5t35 25.5t32.5 52.5t21.5 74l41 251zM659 431q-41 0 -65 -52.5t-25 -116
t23.5 -116t70.5 -52.5q43 0 66.5 52.5t22.5 116t-25.5 116t-67.5 52.5z" />
    <glyph glyph-name="uni338E" unicode="&#x338e;" 
d="M460 -34h-84v317q0 41 -6.5 69t-15 34t-17.5 -0.5t-15.5 -34.5t-6.5 -68v-317h-84v317q0 41 -6.5 68.5t-15.5 33.5t-17.5 -0.5t-15 -34t-6.5 -67.5v-317h-85v502h68v-46q11 45 37 58.5t51.5 -8t34.5 -67.5q16 43 40 64.5t48.5 17.5t46.5 -24t35.5 -60t13.5 -89v-348z
M846 48q0 -67 -25.5 -116.5t-64 -73t-84 -27t-85.5 14t-69 58.5t-33 99h100q4 -45 32.5 -68t60 -19.5t57.5 33t26 77.5v37q-17 -30 -38 -44t-63 -15q-60 -1 -103.5 36.5t-61.5 94.5t-17 123.5t21 124t62 95.5t98 38q71 0 102 -70v53h85v-451zM659 431q-41 0 -65 -52.5
t-25 -116t23.5 -116t70.5 -52.5q43 0 66.5 52.5t22.5 116t-25.5 116t-67.5 52.5z" />
    <glyph glyph-name="uni338F" unicode="&#x338f;" 
d="M846 48q0 -63 -23 -111.5t-58.5 -73t-78 -31t-82 6t-70.5 46.5t-43 83h-109l-148 231l-34 -37v-194h-95v728h95v-395l163 186h119l-178 -214l183 -287q-1 3 -1.5 8.5t-0.5 8.5h100q4 -45 32.5 -67.5t60 -19t57.5 32.5t26 77v38q-17 -31 -38 -45t-63 -15
q-60 -1 -103.5 36.5t-61.5 94.5t-17 123.5t21 124t62 95.5t98 38q71 0 102 -70v53h85v-451zM659 431q-41 0 -65 -52.5t-25 -116t23.5 -116t70.5 -52.5q43 0 66.5 52.5t22.5 116t-25.5 116t-67.5 52.5z" />
    <glyph glyph-name="uni33CF" unicode="&#x33cf;" 
d="M795 -68q-60 0 -98 -3t-55.5 19.5t-17.5 87.5v342h-64v82h64v139h99v-139h62v-85h-62v-323q0 -24 9.5 -34t25.5 -9t37 1v-78zM566 -68h-121l-164 231l-34 -37v-194h-95v728h95v-395l163 185h119l-178 -213z" />
    <glyph glyph-name="uni3388" unicode="&#x3388;" 
d="M937 10q-15 -37 -39.5 -61t-53.5 -32t-62 8.5t-62 58.5q-33 -15 -73 -15l-25 95q49 2 62 6q-29 77 -34.5 183t17 212t69.5 169q64 82 115.5 48.5t57.5 -144.5q12 -188 -25 -322.5t-87 -180.5q18 -34 41 -22.5t34 56.5zM647 -37l-56 -51q-46 46 -54 87
q-20 -44 -41.5 -61.5t-56.5 -18.5q-44 0 -74.5 39.5t-41.5 99.5t-6 129.5t24 129t56.5 98.5t84.5 37q52 -2 72 -61l3 42h69l-17 -172l-6 -206q-1 -22 10 -45t23 -35zM315 253h-81q-1 43 -10 71.5t-21 37t-26.5 0.5t-26.5 -30t-20.5 -62t-8.5 -89q-1 -63 10 -107t27.5 -58
t33 -11t28 29.5t11.5 65.5h82q-1 -59 -22.5 -104t-53 -65.5t-68.5 -17t-68.5 31t-52 89t-20.5 146.5q0 83 22 146t55 93t70.5 36t69.5 -14.5t52 -69.5t18 -118zM825 541q-4 25 -7 35.5t-7 10t-9.5 -8t-12.5 -18.5q-31 -55 -44 -142t-9 -165.5t20 -128.5q34 50 59 178.5
t10 238.5zM474 367q-22 1 -38.5 -35.5t-23.5 -89t-7 -105.5t11 -89.5t30 -36.5q38 0 55.5 88.5t8.5 177.5t-36 90z" />
    <glyph glyph-name="uni3389" unicode="&#x3389;" 
d="M473 256h-71q3 20 -1.5 62.5t-22.5 43.5q-19 1 -32.5 -35t-17 -88.5t-2 -104.5t12.5 -88.5t28 -36.5t23 21.5t8 66.5h73q-7 80 6 161.5t46 138t79 54.5q36 -2 50 -54l2 37l55 -1l-13 -173v-203q30 0 48 4q-24 75 -28 182.5t14 214.5t56 171q53 83 92.5 49.5t44.5 -143.5
q10 -187 -20 -323t-69 -183q13 -36 31 -27t25 53l49 -61q-16 -45 -41 -68t-59 -12.5t-65 64.5q-14 -7 -46 -9l5 -6l-49 -49q-35 35 -44 87q-19 -47 -33 -64.5t-43 -16.5q-39 1 -63 50.5t-30 126.5q-2 -81 -23.5 -129t-77.5 -48q-42 0 -72 39.5t-42.5 98.5t-11 128t16.5 128
t45 98.5t70 39.5q102 0 97 -196zM288 -69h-81l-86 227l-22 -37v-190h-75v713h75v-389l101 178h81l-110 -198zM594 367q-15 1 -27 -35t-17 -88t-6.5 -104t6 -89t20.5 -38q15 -1 27 35t17 88t5.5 104t-6.5 89t-19 38zM852 539q-3 26 -5.5 33t-5 3.5t-9.5 -19.5
q-37 -83 -44 -226.5t14 -209.5q26 47 43.5 177.5t6.5 241.5z" />
    <glyph glyph-name="uni33C8" unicode="&#x33c8;" 
d="M671 -69h-170v721h177q70 0 118 -39.5t61.5 -93t-7.5 -112t-78 -93.5q40 -16 67.5 -51t38.5 -77t4 -87.5t-30.5 -82.5t-70.5 -61t-110 -24zM436 -61h-91v75q-33 -82 -113 -83q-58 -1 -100 37.5t-60.5 97t-17 126.5t22 126.5t65 98t103.5 39.5q72 0 100 -62v255h91v-710z
M658 573h-64v-224h61q41 0 70.5 23t37 56t1.5 66t-34.5 56t-71.5 23zM660 261h-66v-246h67q61 0 94.5 38.5t32 84.5t-35.5 84.5t-92 38.5zM249 370q-36 0 -60.5 -36t-31 -87.5t-1.5 -103t28 -86.5t57 -34q35 1 59 37t30 86.5t1 101t-27 86t-55 36.5z" />
    <glyph glyph-name="uni33A7" unicode="&#x33a7;" 
d="M860 39q-2 -46 -36 -77.5t-81 -39t-94 1t-79.5 44.5t-32.5 89h86q0 -34 24 -51t52.5 -15.5t53 15t25.5 34.5q1 25 -33 41t-75 24t-76 34t-35 70q0 42 29.5 73t72.5 40t85.5 2.5t72.5 -41t30 -87.5h-77q0 29 -20 45.5t-44 17t-44 -11.5t-21 -33q-1 -20 22 -33.5t55.5 -23
t65 -22t54.5 -36.5t20 -60zM899 632l-743 -750l-54 46l747 749zM434 279h-79v193q0 41 -6 68t-14.5 33t-17 -1t-14.5 -34t-6 -66v-193h-80v193q0 42 -6 69.5t-14.5 32.5t-16.5 -2.5t-14 -34.5t-6 -65v-193h-79v377h62v-46q9 44 34 56.5t50 -9t35 -64.5q10 39 30.5 60.5
t44.5 20.5t46 -17.5t36.5 -57.5t14.5 -97v-223z" />
    <glyph glyph-name="uni33A8" unicode="&#x33a8;" 
d="M910 226h-150q-1 26 8 46t23 31.5t28 20.5t24 18.5t11 21.5q1 16 -12.5 23.5t-26.5 -2t-12 -34.5h-47q-2 39 21 61.5t52 22.5t52.5 -19.5t21.5 -53.5q-1 -21 -22.5 -40.5t-43 -34t-22.5 -22.5h95v-39zM870 643l-744 -750l-52 45l749 749zM421 298h-77v182q0 41 -6 68.5
t-14.5 33t-17 -1.5t-14.5 -34t-6 -66v-182h-79v182q0 42 -6 69.5t-14.5 32.5t-17 -2.5t-14.5 -35t-6 -64.5v-182h-78v366h62v-45q9 45 34 56.5t49.5 -10t34.5 -63.5q8 31 24 51.5t34.5 27t38.5 -1t36 -27.5t26.5 -56.5t10.5 -84.5v-213zM770 23q-3 -39 -35 -66.5
t-75.5 -33.5t-86.5 1.5t-72.5 40t-29.5 81.5h80q0 -41 34 -56t69.5 -3t38.5 36q2 23 -17.5 36t-50 20.5t-61 16.5t-52 32t-21.5 60q0 50 41.5 79t91 30t90.5 -31t41 -91h-72q-1 30 -19 46t-39.5 16.5t-40 -11t-21.5 -31.5q-2 -20 19.5 -33t53.5 -21.5t63.5 -20t52.5 -36
t18 -61.5z" />
    <glyph glyph-name="uni33B0" unicode="&#x33b0;" 
d="M883 81q-2 -43 -32 -77t-73.5 -51.5t-94.5 -18.5t-95 15.5t-73.5 57.5t-31.5 100h104q1 -35 20 -57.5t47 -27.5t56 -0.5t48.5 20.5t23.5 38q4 33 -24.5 53t-72 31t-87 25t-73.5 46.5t-28 83.5q2 47 30.5 82.5t70 52t89.5 16t88.5 -18.5t67.5 -58.5t26 -97.5h-92
q-1 34 -19 56.5t-44 27.5t-52 1.5t-45 -19t-21 -36.5q-2 -26 18.5 -43t53 -25t71 -20.5t71.5 -27.5t54 -48t19 -80zM290 -51q-73 0 -105 62v-209h-91v651h91v-72q14 35 42 60t68 25q56 0 98 -38t61.5 -95.5t20 -124.5t-18 -124.5t-62 -96t-104.5 -38.5zM282 373
q-34 -1 -57 -36.5t-28 -84.5t1 -98t28.5 -83.5t55.5 -34.5q36 0 60.5 35t29.5 85t-1 100t-30 84t-59 33z" />
    <glyph glyph-name="uni33B1" unicode="&#x33b1;" 
d="M864 70q-1 -43 -31 -77t-74 -51.5t-95 -18.5t-95 15.5t-74 57.5t-31 100h104q1 -43 30 -66t65 -22.5t66.5 17.5t34.5 44q4 33 -24.5 52.5t-72 31t-87 25.5t-73.5 46.5t-28 83.5q2 46 30 81t69 52t89 16.5t88.5 -18t67.5 -58.5t27 -98h-92q-1 42 -28.5 65t-60.5 23.5
t-61 -15.5t-31 -43q-2 -25 18.5 -42.5t53 -25.5t71 -20.5t71.5 -27.5t54 -47.5t19 -79.5zM429 -70h-96v315q0 54 -21 82.5t-45.5 27t-45.5 -31t-21 -78.5v-315h-95v502h91v-58q16 37 45.5 55.5t61 15t60.5 -21t47.5 -55.5t18.5 -86v-352z" />
    <glyph glyph-name="uni33B2" unicode="&#x33b2;" 
d="M877 69q-2 -43 -32 -77t-73.5 -51.5t-94.5 -18.5t-95 15.5t-74 57.5t-31 100h104q1 -43 31 -66t65.5 -22.5t66 17.5t33.5 44q3 28 -17 47t-52.5 27.5t-71 21t-71.5 26.5t-54 44t-19 74q2 46 30 81t69.5 51.5t89 16.5t88.5 -17.5t68 -58.5t27 -98h-92q-1 42 -28.5 65
t-61 23.5t-61.5 -16t-30 -42.5t18.5 -43.5t53 -25t71 -20t71 -27.5t53.5 -48t19 -80zM478 434l-66 -411q-1 -6 1.5 -10t10.5 -5t14 -1t19 1t19 1l-17 -85q-36 -2 -68 -3.5t-53.5 16.5t-21.5 57q-11 -23 -30.5 -40.5t-40.5 -25.5t-41 2.5t-30 41.5l-20 -122h-94l94 582h95
l-39 -255q-9 -59 -4.5 -90.5t16.5 -46.5t30 -7.5t35 25.5t32.5 52.5t21.5 74.5l42 251z" />
    <glyph glyph-name="uni33B3" unicode="&#x33b3;" 
d="M883 70q-2 -42 -31 -76t-71.5 -52t-91.5 -19.5t-91.5 14t-71.5 57t-30 102.5h100q1 -36 20 -58.5t45 -27t53 0t46.5 20.5t21.5 37q3 28 -16.5 47t-51 28t-68.5 22t-69 27t-52.5 44t-18.5 72q2 47 30 83t68 52.5t86.5 15.5t86 -18.5t65.5 -58.5t26 -98h-92q-1 43 -27 66
t-57.5 23t-58.5 -16.5t-29 -42.5q-3 -31 25.5 -49.5t70.5 -29.5t84.5 -26t71.5 -49.5t27 -89.5zM475 -69h-87v315q0 42 -7 70t-16.5 34t-19 -1t-16.5 -35t-7 -68v-315h-88v315q0 40 -7 67.5t-16.5 34.5t-19 1t-16.5 -33.5t-7 -69.5v-315h-89v502h71v-48q9 43 37 57.5
t56.5 -6t37.5 -66.5q15 39 39.5 61t51 20.5t50 -19t38.5 -58t15 -95.5v-348z" />
    <glyph glyph-name="uni33B4" unicode="&#x33b4;" 
d="M879 652l-227 -721h-88l-226 721h98l171 -567l172 567h100zM270 -35q-66 1 -93 72v-199h-85v579h82v-40q38 67 100 67q49 0 84.5 -35.5t51.5 -89t15.5 -116t-17 -115.5t-53 -88.5t-85.5 -34.5zM266 359q-30 0 -50.5 -31.5t-25.5 -76.5t-0.5 -90t24 -76.5t48.5 -31.5
q30 0 51 31.5t26 76.5t1 90t-24 76.5t-50 31.5z" />
    <glyph glyph-name="uni33B5" unicode="&#x33b5;" 
d="M879 654l-228 -725h-91l-229 725h102l172 -576l173 576h101zM404 -71h-95v291q0 54 -17 80.5t-37.5 23t-37.5 -32t-17 -72.5v-290h-97v476h96v-50q30 59 79.5 63t87.5 -42.5t38 -119.5v-327z" />
    <glyph glyph-name="uni33B6" unicode="&#x33b6;" 
d="M894 651l-221 -722h-86l-220 722h95l167 -582l168 582h97zM435 392l-57 -369q-2 -14 16 -15.5t41 2.5l-16 -81q-34 -5 -62.5 -4.5t-46.5 19t-18 54.5q-9 -21 -27.5 -38.5t-38 -26t-38 0.5t-25.5 39l-19 -128h-85l82 547h90l-35 -222q-9 -57 -5 -87.5t15 -45t27.5 -7.5
t32.5 24.5t30 51t20 72.5l34 214h85z" />
    <glyph glyph-name="uni33B7" unicode="&#x33b7;" 
d="M889 652l-219 -722h-87l-217 722h96l164 -580l167 580h96zM442 -70h-78v284q0 42 -7 69.5t-16.5 33t-19 -1.5t-16.5 -34.5t-7 -66.5v-284h-78v284q0 41 -6.5 68.5t-16 33.5t-18.5 -0.5t-15.5 -34t-6.5 -67.5v-284h-78v468h62v-44q8 31 25 46.5t35.5 13t35 -23t23.5 -54.5
q14 41 37.5 62t48 17.5t46.5 -22t36 -58t14 -89.5v-316z" />
    <glyph glyph-name="uni33B8" unicode="&#x33b8;" 
d="M887 652l-215 -721h-87l-213 721h97l159 -575l163 575h96zM448 -69h-100l-127 243l-32 -44v-199h-87v721h87v-385l129 184h101l-138 -200z" />
    <glyph glyph-name="uni33B9" unicode="&#x33b9;" 
d="M925 652l-151 -721h-89l-152 721h91l105 -532l107 532h89zM524 -69h-88v481l-107 -481h-90l-103 477v-477h-84v721h107l126 -557l129 557h110v-721z" />
    <glyph glyph-name="uni3380" unicode="&#x3380;" 
d="M912 -71h-98l-62 204h-233l-61 -204h-97l234 722h83zM247 -36q-63 1 -87 70v-197h-85v580h82v-41q9 18 18.5 30.5t29 23.5t45.5 11q49 0 84.5 -35.5t51 -89t15 -115.5t-17 -115t-52.5 -88t-84 -34zM724 223l-87 289l-89 -289h176zM241 355q-34 0 -53.5 -47t-20 -103.5
t18.5 -103.5t54 -47q30 0 50.5 31t25.5 75t0.5 88.5t-25 75.5t-50.5 31z" />
    <glyph glyph-name="uni3381" unicode="&#x3381;" 
d="M911 -70h-95l-60 203h-225l-59 -203h-97l226 721h84zM369 -70h-90v289q0 55 -17 82.5t-37 24t-37 -33t-17 -75.5v-287h-89v472h89v-55q17 36 43 54t52 13.5t49.5 -22.5t38.5 -54.5t15 -82.5v-325zM727 223l-83 281l-84 -281h167z" />
    <glyph glyph-name="uni3382" unicode="&#x3382;" 
d="M913 -71h-96l-60 203h-222l-60 -203q-32 0 -53 -0.5t-28 -0.5h-9l-2 -1q-21 1 -40.5 3.5t-34.5 7t-24.5 19.5t-9.5 40q-14 -30 -40.5 -51t-53.5 -16.5t-36 43.5l-18 -128h-85l83 546h89l-35 -221q-9 -62 -3.5 -98.5t23 -41t36.5 9t37 52t26 86.5l35 213h85l-57 -368
q-1 -7 2 -11t9.5 -4.5t14.5 0t17 1.5l200 641h84zM728 221l-85 281l-83 -281h168z" />
    <glyph glyph-name="uni3383" unicode="&#x3383;" 
d="M922 -70h-96l-56 203h-205l-56 -203h-155v284q0 40 -7 67.5t-17 33.5t-19.5 -0.5t-16.5 -33.5t-7 -67v-284h-80v284q0 41 -6.5 68.5t-15.5 33t-18 -1.5t-15.5 -34t-6.5 -66v-284h-79v468h63v-44q8 39 33 53t51 -5t35 -66q14 46 45 65.5t61.5 10t53.5 -53.5t23 -113v-252
l192 658h86zM744 222l-77 277l-76 -277h153z" />
    <glyph glyph-name="uni3384" unicode="&#x3384;" 
d="M905 -70h-95l-60 203h-216l-58 -203h-144l-123 243l-33 -44v-199h-86v722h86v-388l127 186h97l-134 -200l134 -258l200 660h84zM722 222l-79 281l-84 -281h163z" />
    <glyph glyph-name="uni33BA" unicode="&#x33ba;" 
d="M912 661l-117 -732h-85l-96 551l-95 -551h-84l-119 732h87l73 -493l84 493h103l83 -505l74 505h92zM229 -35q-20 0 -36 8t-24 19t-15 22.5t-10 20.5v-197h-79v579h79v-39q11 20 18 30.5t25.5 22t43.5 11.5q52 0 87.5 -49.5t43.5 -120t-0.5 -140.5t-44.5 -119t-88 -48z
M222 356q-42 0 -60 -75.5t-1 -150.5t59 -75q25 0 42 31t21.5 75t1 88.5t-20.5 75.5t-42 31z" />
    <glyph glyph-name="uni33BB" unicode="&#x33bb;" 
d="M908 661l-116 -731h-83l-96 550l-94 -550h-84l-120 731h88l73 -493l84 493h103l83 -505l74 505h88zM348 -69h-85v289q0 54 -16 81.5t-35 25t-35 -32t-16 -75.5v-288h-86v472h84v-54q24 59 70 67t82.5 -37t36.5 -122v-326z" />
    <glyph glyph-name="uni33BC" unicode="&#x33bc;" 
d="M921 660l-115 -732h-85l-94 550l-92 -550h-81l-115 732h86l71 -493l82 493h101l81 -505l72 505h89zM380 10l-14 -80q-33 -2 -60 -1.5t-44 17t-17 51.5q-15 -34 -39 -53t-45 -12t-27 41l-18 -126h-83l81 546h84l-33 -222q-9 -64 -4.5 -100t19 -39.5t31 11.5t33 53t23.5 84
l33 213h80l-54 -368q-1 -14 16 -16t38 1z" />
    <glyph glyph-name="uni33BD" unicode="&#x33bd;" 
d="M918 661l-114 -732h-83l-84 546l-84 -546h-81l-115 732h87l69 -491l75 491h98l74 -504l71 504h87zM394 -69h-74v284q0 41 -6 68t-14.5 33t-17 -1t-14.5 -34t-6 -66v-284h-75v284q0 40 -5.5 67t-13.5 33t-16 0t-13.5 -33.5t-5.5 -66.5v-284h-76v468h60v-44q8 39 31 53
t46 -5t31 -66q14 41 36 62t44.5 17.5t43 -22t33 -58.5t12.5 -90v-315z" />
    <glyph glyph-name="uni33BE" unicode="&#x33be;" 
d="M909 662l-114 -732h-84l-91 550l-91 -550h-84l-79 503l-117 -182l156 -320h-94l-118 244l-33 -49v-195h-81v721h81v-388l122 185h81l-33 213h88l68 -493l81 493h101l79 -505l70 505h92z" />
    <glyph glyph-name="uni33BF" unicode="&#x33bf;" 
d="M926 448l-91 -519h-88l-61 337l-58 -337h-87l-92 519h82l52 -329l52 329h97l55 -334l57 334h82zM440 -71h-77v307l-84 -307h-80l-85 306v-306h-79v519h104l98 -375l104 375h99v-519z" />
    <glyph glyph-name="uni3390" unicode="&#x3390;" 
d="M876 -69h-339v79l218 349h-206v80h309v-78l-220 -351h238v-79zM495 -69h-96v334h-213v-334h-95v721h95v-297h213v297h96v-721z" />
    <glyph glyph-name="uni3391" unicode="&#x3391;" 
d="M911 -71h-216v64l122 187h-117v67h197v-65l-119 -188h133v-65zM673 -71h-85v227h-121v-227h-83v517h83v-217h121v217h85v-517zM370 -71h-95l-118 216l-28 -41v-178h-85v518h85v-206l145 206h92l-153 -228z" />
    <glyph glyph-name="uni3392" unicode="&#x3392;" 
d="M915 -71h-200v63l108 188h-103v67h182l-1 -65l-105 -188h119v-65zM696 -71h-81v227h-91v-227h-79v517h79v-217h91v217h81v-517zM408 -71h-76v312l-62 -312h-77l-68 312v-312h-75v519h99l80 -375l81 375h98v-519z" />
    <glyph glyph-name="uni3393" unicode="&#x3393;" 
d="M913 -71h-206v63l111 189h-108v66h188l-1 -65l-108 -188h124v-65zM683 -71h-83v226h-108v-226h-85v517h82v-217h108v217h83zM381 286h-86q0 32 -12.5 56.5t-31.5 36t-41 6.5t-41.5 -25t-32.5 -66t-13 -111q0 -58 12 -100.5t31 -61t41.5 -22t41.5 9t32 40.5t13 65v21h-85
v77h169v-283h-78v64q-13 -39 -44 -59t-67.5 -14t-71 31t-57.5 82.5t-24 133.5q-1 96 24.5 165t64 100t83.5 36.5t84 -14.5t64.5 -64.5t24.5 -103.5z" />
    <glyph glyph-name="uni3394" unicode="&#x3394;" 
d="M911 -71h-218v65l121 186h-116v67h199v-65l-119 -187h133v-66zM670 -71h-85v227h-119v-227h-85v518h85v-217h119v217h85v-518zM363 369h-112v-440h-93v440h-122v78h327v-78z" />
    <glyph glyph-name="Omega" unicode="&#x2126;" 
d="M601 63v-59h97v-80h-154q-13 0 -21.5 4.5t-12 12t-5.5 16.5t-1.5 17t0.5 14v83q0 22 6 37t12 19l7 4q60 18 98 71t43 116t-11 123t-65.5 100.5t-118.5 40.5q-65 0 -113.5 -38.5t-66.5 -97t-15.5 -120.5t38.5 -115.5t97 -76.5q11 -1 22 -20.5t11 -46.5q1 -85 -1 -85
q-1 -6 -1 -13t-2 -15t-5.5 -14.5t-10.5 -11t-18 -4.5h-152v80h95v54q-68 30 -111.5 89t-57 127t-0.5 140t48.5 130t98.5 95.5t143 37.5q71 0 129 -27.5t92.5 -73t55.5 -102.5t19 -118t-19 -117t-56 -103t-94 -73z" />
    <glyph glyph-name="uni33C0" unicode="&#x33c0;" 
d="M772 33v-40h70v-66h-121q-18 0 -25.5 6t-6.5 14t0 17v81q0 18 9 32l9 14q41 17 66 53.5t27.5 77.5t-9 79t-44 63t-77.5 25q-46 0 -79.5 -25.5t-44.5 -64.5t-8 -80t29 -77t68 -51q16 -15 16 -44q1 0 1 -76q0 -28 -7 -34q-8 -10 -23 -10h-119v66h66v37q-48 22 -79 65
t-40 92t1.5 100.5t37 93.5t74 68.5t107.5 26.5q76 0 129 -39t71.5 -97t16.5 -120t-33.5 -114t-81.5 -73zM477 -71h-104l-156 232l-38 -46v-186h-95v518h95v-209l156 209h102l-163 -218z" />
    <glyph glyph-name="uni33C1" unicode="&#x33c1;" 
d="M817 40v-42h62v-69h-107q-18 0 -25.5 6.5t-6.5 15t0 17.5v86q0 19 8 32l9 14q43 23 65 75.5t18 105t-34.5 92.5t-80.5 40q-52 0 -83 -41.5t-34.5 -95t19 -105t65.5 -70.5q15 -15 15 -44q1 0 1 -81q0 -28 -6 -35q-7 -12 -22 -12h-106v69h59v40q-50 27 -79 83.5t-29.5 120
t19 123t68 98.5t114.5 39q68 0 115.5 -40t63.5 -100.5t13.5 -124.5t-30 -119t-71.5 -78zM507 -71h-86v463l-97 -463h-90l-92 455v-455h-83v721h106l115 -551l119 551h108v-721z" />
    <glyph glyph-name="uni338A" unicode="&#x338a;" 
d="M872 566h-288v-240h253v-85h-253v-310h-95v721h383v-86zM289 -35q-66 1 -93 72v-199h-85v579h82v-40q36 66 100 67q49 1 84.5 -34.5t51.5 -89t15.5 -116t-17 -116t-53 -89t-85.5 -34.5zM285 359q-29 0 -49.5 -31.5t-25.5 -76.5t-1 -90t23 -76.5t48 -31.5q37 0 59 48
t22.5 105t-19.5 105t-57 48z" />
    <glyph glyph-name="uni338B" unicode="&#x338b;" 
d="M872 566h-282v-240h248v-85h-248v-310h-95v721h377v-86zM418 -69h-92v289q0 37 -8.5 62.5t-21 35t-27.5 7.5t-27.5 -14.5t-21 -37t-8.5 -54.5v-288h-92v472h92v-55q15 33 41 51t54 15.5t53 -18.5t41.5 -53t16.5 -87v-325z" />
    <glyph glyph-name="uni338C" unicode="&#x338c;" 
d="M883 565h-288v-240h253v-85h-253v-311h-95v722h383v-86zM445 392l-57 -368q-3 -14 15.5 -15.5t40.5 1.5l-16 -81q-34 -5 -62.5 -4.5t-46.5 19t-18 54.5q-12 -27 -31.5 -45t-38.5 -22t-36 7t-23 36l-19 -128h-85l83 546h89l-35 -222q-9 -57 -5 -87t15 -44t27.5 -7t32.5 25
t30 51t20 71l34 213h86z" />
    <glyph glyph-name="uni33D6" unicode="&#x33d6;" 
d="M937 10q-15 -37 -39.5 -61t-53.5 -32t-62 8.5t-62 58.5q-33 -15 -73 -15l-24 89q-32 -135 -123 -135q-46 0 -79 40t-47.5 100t-13.5 130.5t16.5 130.5t49 100t78.5 40q53 0 85 -46.5t40.5 -113.5t6.5 -130.5t-12 -109.5h16t20.5 1t23.5 5q-29 77 -34.5 183t17 212
t69.5 169q64 82 115.5 48.5t57.5 -144.5q12 -188 -25 -322.5t-87 -180.5q18 -34 41 -22.5t34 56.5zM345 -68h-74v313q0 40 -4.5 67.5t-11 33.5t-12.5 -1t-10.5 -34t-4.5 -66v-313h-75v313q0 42 -4.5 69t-10.5 32t-12 -2.5t-10.5 -34.5t-4.5 -64v-313h-74v498h59v-37
q11 36 34 45.5t43 -10t22 -56.5q6 32 23.5 53t38.5 22.5t41 -12t33.5 -54.5t13.5 -102v-347zM825 541q-4 25 -7 35.5t-7 10t-9.5 -8t-12.5 -18.5q-31 -55 -44 -142t-9 -165.5t20 -128.5q34 50 59 178.5t10 238.5zM501 382q-27 0 -43 -58.5t-17 -128t14.5 -128t43.5 -58.5
q37 0 53 93.5t1.5 186.5t-52.5 93z" />
    <glyph glyph-name="uni33C5" unicode="&#x33c5;" 
d="M845 -62h-88v75q-33 -83 -113 -84q-57 -1 -98 37.5t-59 97t-17 127t21.5 127t64 98t102.5 39.5q69 0 99 -62v255h88v-710zM460 104q-5 -59 -36.5 -104t-76 -66t-95.5 -16.5t-93.5 32.5t-71 92.5t-28.5 154.5q0 64 17.5 115t46 82.5t64.5 49.5t74 20.5t73.5 -9.5t63 -36
t43.5 -63.5t14 -87.5h-93q-1 36 -16.5 62t-38 36t-48 5t-47.5 -24t-36.5 -58t-14.5 -91q0 -56 14 -97t35 -60.5t46 -25.5t47.5 3.5t38.5 32t19 53.5h99zM660 369q-35 0 -59 -36.5t-29.5 -88.5t-0.5 -103.5t27.5 -86.5t55.5 -33q43 3 67.5 57.5t25 119t-22.5 118t-64 53.5z
" />
    <glyph glyph-name="uni33AD" unicode="&#x33ad;" 
d="M896 -61h-84v55q-23 -61 -78 -62q-56 -2 -94 51t-46.5 129.5t1.5 153.5t49.5 131t97.5 54q47 0 70 -42v242h84v-712zM606 -37l-56 -51q-46 46 -54 87q-21 -44 -42 -61.5t-56 -18.5q-44 0 -74.5 39.5t-41.5 99.5t-6 129.5t24 129t56 98.5t84 37q53 -2 73 -61l2 42h70
l-17 -172q-3 -28 -5 -117l-2 -89q0 -22 11 -45t22 -35zM304 344q-72 0 -113 -41.5t-41 -115.5v-255h-96v501h96v-71q30 43 66 64t88 22v-104zM748 368q-34 1 -53 -53.5t-19 -119.5t18 -119t50 -52q40 2 55.5 87.5t0 170.5t-51.5 86zM433 367q-22 1 -39 -35.5t-23.5 -89
t-7 -105.5t10.5 -89.5t30 -36.5q38 0 56 88.5t9 177.5t-36 90z" />
    <glyph glyph-name="uni33AE" unicode="&#x33ae;" 
d="M620 342h-53v44q-21 -47 -63 -47q-38 0 -64 28.5t-31.5 69t1.5 81.5t34.5 69.5t67.5 28.5q39 0 55 -39v154h53v-389zM859 4q-3 -41 -44 -66.5t-89 -26.5t-87 28.5t-39 86.5h70q0 -39 28.5 -52t58 -2.5t32.5 31.5q3 26 -24 39.5t-61 19t-62 27.5t-28 62q0 42 36.5 69
t80 29t79.5 -27.5t36 -86.5h-62q-1 36 -26 50t-50.5 4t-28.5 -32q-2 -18 16.5 -29.5t46.5 -19.5t55.5 -18t46 -31.5t15.5 -54.5zM924 560l-699 -703l-44 38l705 706zM426 373l-50 -37q-26 15 -35 54q-12 -27 -29 -39t-50 -12q-32 0 -51.5 25t-24 60t-0.5 70.5t14 59.5
q-86 -7 -86 -85v-127h-60v271h60v-43q15 25 36.5 34.5t55.5 12.5v-52q31 55 95 47q35 -5 47 -40l3 37l51 -2l-10 -95l-3 -75q0 -24 9 -40t18 -20zM512 563q-28 0 -39.5 -41.5t-1.5 -83.5t34 -42q30 0 41.5 41.5t0.5 83.5t-35 42zM291 560q-28 1 -41 -40t-5 -82.5t31 -41.5
q31 0 44.5 40.5t4.5 82t-34 41.5z" />
    <glyph glyph-name="uni33AF" unicode="&#x33af;" 
d="M905 167h-130q-1 28 10.5 48.5t26 29.5t28 20.5t14.5 22.5q1 14 -9 21.5t-21.5 -1t-12.5 -33.5h-40q-4 47 29 66.5t66.5 3t29.5 -56.5q-2 -25 -37 -52t-37 -34h83v-35zM620 342h-53v44q-21 -47 -63 -47q-38 0 -64 28.5t-31.5 69t1.5 81.5t34.5 69.5t67.5 28.5
q39 0 55 -39v154h53v-389zM924 560l-699 -703l-44 38l705 706zM793 -12q-3 -32 -29 -54.5t-60.5 -27.5t-69 1.5t-58 33t-23.5 66.5h64q0 -34 27.5 -46.5t55.5 -2.5t31 29q3 23 -21.5 35.5t-56 17.5t-57.5 25.5t-26 56.5q0 39 33 62.5t72.5 24.5t72 -24.5t32.5 -73.5h-56
q-2 31 -25.5 42.5t-46.5 2.5t-25 -28q-2 -17 15.5 -27.5t43 -17.5t51 -16t42 -29t14.5 -50zM426 373l-50 -37q-26 15 -35 54q-12 -27 -29 -39t-50 -12q-32 0 -51.5 25t-24 60t-0.5 70.5t14 59.5q-86 -7 -86 -85v-127h-60v271h60v-43q15 25 36.5 34.5t55.5 12.5v-52
q31 55 95 47q35 -5 47 -40l3 37l51 -2l-10 -95l-3 -75q0 -24 9 -40t18 -20zM512 563q-28 0 -39.5 -41.5t-1.5 -83.5t34 -42q30 0 41.5 41.5t0.5 83.5t-35 42zM291 560q-28 1 -41 -40t-5 -82.5t31 -41.5q31 0 44.5 40.5t4.5 82t-34 41.5z" />
    <glyph glyph-name="uni33DB" unicode="&#x33db;" 
d="M837 330q-201 -12 -201 -163v-236h-96v494h96v-87q62 90 201 94v-102zM481 69q-2 -43 -32 -77t-73.5 -51.5t-94.5 -18.5t-95 15.5t-73.5 57t-31.5 99.5h104q1 -43 31 -65.5t65.5 -22t66 17.5t33.5 44q4 34 -24.5 54t-72 30.5t-87 24t-73.5 46t-28 85.5q2 46 30.5 81
t69.5 51.5t88.5 16t88 -18t67.5 -58.5t27 -98h-92q-1 34 -19 56t-44 27.5t-52 2.5t-45 -18.5t-20 -36.5q-3 -31 26.5 -49t72.5 -28.5t86.5 -25.5t73 -50t27.5 -91z" />
    <glyph glyph-name="uni33A9" unicode="&#x33a9;" 
d="M889 -31l-72 -51q-41 41 -49 86q-42 -83 -140 -80q-56 2 -93 42.5t-50.5 100t-7.5 129t29.5 128.5t67 98.5t98.5 39.5q74 0 102 -67l3 44l77 -1q-4 -31 -8 -102l-4 -71l-1 -205q0 -20 12 -43t24 -35zM296 208h-96v-277h-101v721h200q65 0 112 -33t68 -82t20 -107
t-22.5 -107t-69 -82t-111.5 -33zM665 371q-33 0 -57 -36.5t-31.5 -88.5t-5.5 -104.5t20.5 -89.5t47.5 -38q35 -1 58.5 35.5t30 89t3.5 105.5t-21.5 90t-44.5 37zM273 559h-73v-260h73q58 0 92.5 40.5t36 89.5t-32.5 89.5t-96 40.5z" />
    <glyph glyph-name="uni33AA" unicode="&#x33aa;" 
d="M500 96h-50v-169h-175l-115 223l-28 -46v-177h-86v519h86v-199l123 198h92l-129 -215l151 -295v513h130q51 0 88 -26t53 -65t15.5 -85t-17.5 -85t-53.5 -65t-84.5 -26zM930 -24l-48 -49q-29 20 -43 70q-28 -70 -102 -65q-44 3 -71 47t-29 104t11 119.5t49.5 98.5t85.5 34
t65 -54l1 38h62l-11 -145l-9 -122q-1 -19 9 -38t20 -28zM779 262q-26 4 -44.5 -34.5t-23.5 -86.5t5 -89t34 -42q29 -2 47 36t21 85.5t-7.5 87.5t-31.5 43zM492 370h-42v-192h40q49 0 70 48t1.5 96t-69.5 48z" />
    <glyph glyph-name="uni33AB" unicode="&#x33ab;" 
d="M534 96h-33v-169h-77v518h108q85 0 126 -68t25 -148q17 51 46.5 80.5t70.5 26.5q25 -2 36.5 -16t19.5 -38v37h61l-12 -145l-8 -122q-1 -19 8 -38t19 -28l9 -10l-45 -49q-27 20 -41 69q-13 -32 -33.5 -49.5t-58.5 -14.5q-58 4 -79.5 89t-1.5 177q-16 -46 -52 -74t-88 -28z
M393 -71h-76v293l-57 -293h-85l-58 293v-293h-75v519h98l75 -375l78 375h97zM796 263q-31 5 -48.5 -58t-11.5 -129t31 -67q33 -2 49.5 60t10 126.5t-30.5 67.5zM526 370h-25v-192h24q37 0 59 30t22.5 66t-20.5 66t-60 30z" />
    <glyph glyph-name="uni33AC" unicode="&#x33ac;" 
d="M924 -24l-48 -49q-29 20 -43 70q-28 -70 -94 -65q-41 3 -66.5 46.5t-27 104t10.5 119.5t47 98.5t82 34.5q25 -3 37 -17t20 -37l1 38h62l-11 -145l-9 -122q-1 -19 9 -38t20 -28zM508 96h-36v-169h-79v518h114q49 0 86 -26t54.5 -64.5t18 -84t-15.5 -84t-53 -64.5t-89 -26z
M365 286h-86q0 92 -68 92q-36 0 -61 -38.5t-31 -94t-1 -110.5t29 -92.5t59 -36.5q21 1 35.5 10t21.5 20.5t11 31.5t4.5 33t0.5 34h-79v77h162v-282h-81v64q-19 -71 -84 -72q-56 -1 -96 38.5t-57.5 99.5t-16 130.5t21.5 131.5t62.5 101.5t100.5 40.5q47 0 79.5 -17t47.5 -46
t20.5 -56.5t5.5 -58.5zM781 262q-31 4 -49.5 -58.5t-13 -127.5t33.5 -66q34 -2 50.5 60t9.5 125.5t-31 66.5zM499 370h-27v-192h25q39 0 61.5 30t23 66t-21 66t-61.5 30z" />
    <glyph glyph-name="uni33DD" unicode="&#x33dd;" 
d="M734 -70q-71 1 -100 81v-73h-84v711h84v-260q33 65 95 64q55 -1 95.5 -40t58.5 -97.5t18 -126.5t-17.5 -126t-57 -96t-92.5 -37zM531 449l-88 -519h-93l-59 331l-58 -331h-95l-87 519h89l48 -325l49 325h102l53 -330l53 330h86zM723 368q-30 0 -50.5 -35.5t-26 -86
t-0.5 -101t26.5 -86.5t54.5 -37q32 -1 53.5 34.5t26.5 86.5t-0.5 102t-28 87t-55.5 36z" />
    <glyph glyph-name="uni33D0" unicode="&#x33d0;" 
d="M886 -69h-91v315q0 42 -8 70t-19.5 34t-23 -1t-19.5 -35t-8 -68v-315h-93v315q0 43 -8 71t-19 33.5t-22.5 -2t-19.5 -35.5t-8 -67v-315h-91v501h78v-46q12 45 42 57t60 -10t41 -65q13 40 39 61.5t54.5 19.5t55 -19.5t43.5 -58t17 -93.5v-347zM446 20q-19 -40 -48.5 -67
t-65 -38t-76.5 6t-78 64q-44 -16 -88 -16l-26 96q54 3 73 6q-33 82 -40.5 188.5t16.5 211.5t78 168q74 80 134.5 46.5t77.5 -142.5q14 -111 7.5 -196t-32.5 -151t-53.5 -105t-55.5 -58q32 -39 61.5 -23t47.5 74zM307 546q-11 45 -23 49.5t-28 -21.5q-39 -56 -54 -147
t-8 -172t28 -132q55 44 84 176t1 247z" />
    <glyph glyph-name="uni33D3" unicode="&#x33d3;" 
d="M903 -70h-118l-122 185l-123 -185h-112l175 260l-158 250h111l107 -174l106 174h111l-160 -249zM449 19q-19 -40 -48.5 -67t-64.5 -37.5t-76 6.5t-78 64q-46 -16 -88 -16l-27 96q57 3 73 6q-33 81 -40.5 188t16.5 212t78 167q74 80 134.5 46.5t77.5 -142.5
q14 -111 7 -196t-33 -151t-53 -105t-55 -57q33 -39 61 -24.5t48 70.5zM310 546q-11 45 -23 49.5t-27 -21.5q-39 -56 -54.5 -147t-8.5 -172.5t28 -132.5q55 46 84 177.5t1 246.5z" />
    <glyph glyph-name="uni33C3" unicode="&#x33c3;" 
d="M859 -197h-84v208q-11 -25 -37.5 -43t-64.5 -18q-61 0 -103.5 38.5t-60.5 96t-16.5 124t21.5 124t61 95.5t95 38q74 0 102 -84v69h85zM262 -70h-166v721h173q70 0 118 -39t61.5 -92.5t-8 -112t-77.5 -93.5q40 -15 67.5 -50t38.5 -77.5t4 -88t-30 -83t-70 -61.5t-111 -24z
M684 376q-35 1 -59.5 -33t-31 -84t-2 -100.5t28 -85.5t59.5 -35q41 1 65 53t24.5 115t-22 116t-62.5 54zM248 572h-59v-223h57q42 0 71 23t36.5 56t1.5 65.5t-35 55.5t-72 23zM250 260h-61v-246h62q61 0 95 38.5t32.5 84.5t-35.5 84.5t-93 38.5z" />
    <glyph glyph-name="uni33C9" unicode="&#x33c9;" 
d="M899 457l-184 -564q-11 -33 -25.5 -51t-33.5 -23t-44 -6t-55 0v83q13 -3 39.5 -1t32.5 17l31 84l-136 461h94l90 -313l97 313h94zM515 436h-94q-3 14 -4 33.5t-8.5 41t-18 39.5t-31.5 30.5t-49 12.5q-52 0 -89.5 -43.5t-54 -109t-17 -142t15.5 -142t51 -109.5t82 -44
q39 0 64.5 17t37 50t15 64t3.5 75v19h-120v88h212v-388h-87v80q-35 -96 -127 -97q-79 -2 -137.5 54t-84 142t-24.5 187t28.5 187.5t88 144.5t142.5 58q57 0 99 -23.5t64 -63t32 -79t11 -82.5z" />
    <glyph glyph-name="uni33DC" unicode="&#x33dc;" 
d="M897 457l-185 -564q-11 -33 -26 -51t-34 -23t-44 -5.5t-56 0.5v81q14 -3 39.5 -0.5t31.5 18.5l31 84l-135 460h94l89 -313l97 313h98zM526 121q-2 -48 -23.5 -89t-55.5 -68t-76 -42t-85.5 -15.5t-85 15.5t-73.5 47t-50.5 83.5t-17.5 120.5h104q0 -58 18.5 -99t46.5 -57.5
t61 -18t61.5 12.5t49.5 41.5t24 62.5q4 48 -19 79t-60.5 44.5t-82.5 31t-84 37t-65.5 64t-26.5 110.5q0 49 19 89.5t49.5 65.5t69.5 38t79 12.5t78 -16.5t67 -44t45.5 -74t13.5 -103h-96q1 55 -22 92.5t-56.5 47.5t-67.5 4t-58 -37t-24 -76q0 -36 19.5 -62t50.5 -42.5
t68 -30.5t74 -31.5t67 -40t48 -61.5t16 -91z" />
    <glyph glyph-name="uni33C6" unicode="&#x33c6;" 
d="M823 695l-749 -753l-42 38l752 754zM393 447q-2 -60 -35.5 -103t-103.5 -44q-51 -1 -88 27t-53 71t-15 93t18.5 93t54.5 72t87 29q70 0 103.5 -50t30.5 -109h-73q0 86 -61 86q-30 0 -51 -24.5t-26.5 -59.5t-1.5 -70t24 -59.5t50 -24.5q28 0 45.5 21.5t18.5 51.5h76z
M876 -37q0 -43 -32.5 -71t-73 -32.5t-77.5 15.5t-45 62l-72 1l-72 98l-16 -14v-85h-68v338h68v-167l77 72h91l-104 -102l93 -121h59q-47 20 -59 79.5t18 111t89 51.5q38 0 60 -26v21h64v-231zM756 149q-20 0 -32 -23t-12.5 -51t11.5 -50.5t34 -22.5q29 0 41 37t0 73.5
t-42 36.5zM812 -25q-23 -28 -59 -28q-19 0 -36 5q3 -19 18 -28t32 -6.5t31 18t14 39.5z" />
    <glyph glyph-name="AE" unicode="&#xc6;" 
d="M883 -65h-307l-61 169h-295l-60 -169h-124l265 727h573v-113h-399l67 -183h315v-114h-273l73 -203h226v-114zM474 217l-107 294l-106 -294h213z" />
    <glyph glyph-name="Eth" unicode="&#xd0;" 
d="M514 -67h-271v260h-150v83h150v384h271q104 0 181 -54t112 -134.5t35.5 -175t-33.5 -175t-111.5 -134.5t-183.5 -54zM496 549h-131v-271h212v-82h-212v-147h131q68 0 118.5 37t73 92.5t23 120.5t-22 120.5t-73 92.5t-119.5 37z" />
    <glyph glyph-name="ordfeminine" unicode="&#xaa;" 
d="M717 117h-115q-14 23 -17 59q-26 -25 -76 -46.5t-99 -25.5q-58 -6 -101.5 9.5t-65 43t-27 63t6.5 69.5t42.5 63.5t75.5 43.5q7 2 79 14t118.5 31.5t46.5 50.5t-38 50.5t-83.5 20t-83 -25t-35.5 -73.5h-109q-4 59 28.5 102.5t84 63t112.5 21t113.5 -15t88 -54.5t35.5 -90
v-286q0 -26 10 -57zM777 -67h-592v88h592v-88zM586 323v43q-29 -19 -102.5 -33.5t-93.5 -22.5q-33 -12 -48 -34.5t-6.5 -40.5t35.5 -28t79 3q53 13 94.5 46t41.5 67z" />
    <glyph glyph-name="Hbar" unicode="&#x126;" 
d="M855 475h-121v-536h-122v325h-276v-325h-122v536h-121v83h121v108h122v-108h276v108h122v-108h121v-83zM612 376v99h-276v-99h276z" />
    <glyph glyph-name="IJ" unicode="&#x132;" 
d="M771 120q0 -64 -31 -111t-77 -68.5t-100 -21.5t-100 20.5t-77 66.5t-31 109v72h122v-52q0 -50 27 -78t59 -28t59 28t27 78v517h122v-532zM299 -72h-122v724h122v-724z" />
    <glyph glyph-name="Ldot" unicode="&#x13f;" 
d="M655 169q-34 0 -52.5 22t-18.5 49t19 49t52 22t52 -22t19 -49t-18.5 -49t-52.5 -22zM717 -67h-485v723h123v-610h362v-113z" />
    <glyph glyph-name="Lslash" unicode="&#x141;" 
d="M714 -62h-485v307l-75 -62l-53 63l128 107v308h122v-205l51 41l53 -62l-104 -87v-297h363v-113z" />
    <glyph glyph-name="Oslash" unicode="&#xd8;" 
d="M814 709l-101 -146q43 -51 65 -119.5t22.5 -138t-21.5 -137.5t-61.5 -120.5t-103 -85t-140.5 -32.5q-99 0 -172 47l-94 -137l-69 47l101 144q-44 52 -67.5 120.5t-25 139t20 139t61 121.5t103.5 86t142 33q102 0 177 -50l97 136zM584 523q-47 37 -110 37
q-71 0 -120 -46.5t-65.5 -112.5t-10 -138.5t35.5 -125.5zM638 456l-269 -383q43 -33 105 -33q71 0 119 45t65 110t12 136.5t-32 124.5z" />
    <glyph glyph-name="OE" unicode="&#x152;" 
d="M883 -70h-530q-94 0 -162.5 55t-99 137t-30.5 178.5t31 178.5t99 137t161 55h520v-114h-301q57 -78 69 -193h215v-116h-213q-10 -119 -71 -205h312v-113zM353 560q-56 0 -97.5 -38.5t-60 -96.5t-18.5 -125t18.5 -125t60 -96.5t97.5 -38.5t96.5 38.5t59 96.5t18.5 125
t-18.5 125t-59 96.5t-96.5 38.5z" />
    <glyph glyph-name="ordmasculine" unicode="&#xba;" 
d="M474 104q-80 0 -138 40.5t-84 101.5t-26 131.5t26.5 131.5t85 101.5t137.5 40.5t137.5 -40.5t85 -101.5t26.5 -131.5t-26.5 -131.5t-85 -101.5t-138.5 -40.5zM775 -65h-591v88h591v-88zM474 558q-45 0 -78 -26.5t-47.5 -66.5t-15 -87t14.5 -87t48 -66.5t78 -26.5
t78.5 26.5t48 66.5t14.5 87t-15 87t-48 66.5t-78 26.5z" />
    <glyph glyph-name="Thorn" unicode="&#xde;" 
d="M494 -16q-94 0 -138 54v-100h-125v723h125v-165q50 55 138 55q77 0 133.5 -42t82 -105t26 -136.5t-25 -136.5t-82.5 -105t-134 -42zM480 434q-50 0 -83.5 -34.5t-41.5 -84t0 -98.5t42 -83.5t83 -34.5t83 34.5t42 83.5t0 98.5t-41.5 84t-83.5 34.5z" />
    <glyph glyph-name="Tbar" unicode="&#x166;" 
d="M763 292h-228v-351h-122v351h-228v83h228v175h-228v114h578v-114h-228v-175h228v-83z" />
    <glyph glyph-name="Eng" unicode="&#x14a;" 
d="M471 -82l-1 112q52 4 86 40t41 84t-2.5 96t-43.5 81t-82 33q-60 0 -94 -46t-34 -121v-195h-119v659h119v-230q52 55 143 55q74 0 130.5 -41t84 -102.5t28.5 -134t-25 -135.5t-86 -107t-145 -48z" />
    <glyph glyph-name="uni3260" unicode="&#x3260;" 
d="M713 553v-208q0 -61 -16.5 -124t-36.5 -104t-36 -67l-17 -27h-196q9 10 23 29.5t44 66t50 107.5t20 119v73h-337v135h502zM474 -106q188 0 281 106t93 301q0 194 -93 300.5t-281 106.5t-282 -106.5t-94 -301.5q0 -194 93.5 -300t282.5 -106zM474 -188q-231 0 -348 130.5
t-117 358.5t117 358.5t348 130.5q230 0 347 -130.5t117 -358.5t-117 -358.5t-347 -130.5z" />
    <glyph glyph-name="uni3261" unicode="&#x3261;" 
d="M781 252v-140q-75 -26 -196.5 -42t-218.5 -16h-125v503h164v-365q220 4 376 60zM474 -106q188 0 281 106t93 301q0 194 -93 300.5t-281 106.5t-282 -106.5t-94 -301.5q0 -194 93.5 -300t282.5 -106zM474 -188q-231 0 -348 130.5t-117 358.5t117 358.5t348 130.5
q230 0 347 -130.5t117 -358.5t-117 -358.5t-347 -130.5z" />
    <glyph glyph-name="uni3262" unicode="&#x3262;" 
d="M749 242v-137q-69 -26 -190 -41t-211 -15h-125v507h489v-133h-325v-235q79 1 185 15.5t177 38.5zM474 -106q188 0 281 106t93 301q0 194 -93 300.5t-281 106.5t-282 -106.5t-94 -301.5q0 -194 93.5 -300t282.5 -106zM474 -188q-231 0 -348 130.5t-117 358.5t117 358.5
t348 130.5q230 0 347 -130.5t117 -358.5t-117 -358.5t-347 -130.5z" />
    <glyph glyph-name="uni3263" unicode="&#x3263;" 
d="M755 207v-133q-147 -50 -409 -50h-128v351h342v67h-341v130h505v-326h-342v-88q79 0 191 13t182 36zM474 -106q188 0 281 106t93 301q0 194 -93 300.5t-281 106.5t-282 -106.5t-94 -301.5q0 -194 93.5 -300t282.5 -106zM474 -188q-231 0 -348 130.5t-117 358.5t117 358.5
t348 130.5q230 0 347 -130.5t117 -358.5t-117 -358.5t-347 -130.5z" />
    <glyph glyph-name="uni3264" unicode="&#x3264;" 
d="M474 -188q-231 0 -348 130.5t-117 358.5t117 358.5t348 130.5q230 0 347 -130.5t117 -358.5t-117 -358.5t-347 -130.5zM474 -106q188 0 281 106t93 301q0 194 -93 300.5t-281 106.5t-282 -106.5t-94 -301.5q0 -194 93.5 -300t282.5 -106zM218 556h506v-522h-159v51
q-61 -20 -145 -32t-140 -12h-62v515zM377 426v-245q92 2 188 34v211h-188z" />
    <glyph glyph-name="uni3265" unicode="&#x3265;" 
d="M474 -188q-231 0 -348 130.5t-117 358.5t117 358.5t348 130.5q230 0 347 -130.5t117 -358.5t-117 -358.5t-347 -130.5zM474 -106q188 0 281 106t93 301q0 194 -93 300.5t-281 106.5t-282 -106.5t-94 -301.5q0 -194 93.5 -300t282.5 -106zM565 563h159v-535h-159v51
q-61 -20 -145 -32t-140 -12h-62v528h159v-132h188v132zM377 305v-130q94 4 188 34v96h-188z" />
    <glyph glyph-name="uni3266" unicode="&#x3266;" 
d="M782 52h-183l-125 218l-121 -218h-181l219 375v164h164v-163zM474 -106q188 0 281 106t93 301q0 194 -93 300.5t-281 106.5t-282 -106.5t-94 -301.5q0 -194 93.5 -300t282.5 -106zM474 -188q-231 0 -348 130.5t-117 358.5t117 358.5t348 130.5q230 0 347 -130.5
t117 -358.5t-117 -358.5t-347 -130.5z" />
    <glyph glyph-name="uni3267" unicode="&#x3267;" 
d="M735 402v-195q0 -60 -43.5 -103t-101.5 -60.5t-119 -17.5t-118.5 17.5t-101 60.5t-43.5 103v195q0 60 43.5 103t101 60.5t118.5 17.5t119 -17.5t101.5 -60t43.5 -103.5zM571 242v125q0 86 -100 86q-99 0 -99 -86v-125q0 -86 99 -86q100 0 100 86zM474 -106q188 0 281 106
t93 301q0 194 -93 300.5t-281 106.5t-282 -106.5t-94 -301.5q0 -194 93.5 -300t282.5 -106zM474 -188q-231 0 -348 130.5t-117 358.5t117 358.5t348 130.5q230 0 347 -130.5t117 -358.5t-117 -358.5t-347 -130.5z" />
    <glyph glyph-name="uni3268" unicode="&#x3268;" 
d="M474 -188q-231 0 -348 130.5t-117 358.5t117 358.5t348 130.5q230 0 347 -130.5t117 -358.5t-117 -358.5t-347 -130.5zM474 -106q210 0 304 136h-181l-122 172l-118 -172h-181l216 312v82h-174v133h506v-133h-168v-81l223 -312q69 102 69 270q0 194 -93 300.5t-281 106.5
t-282 -106.5t-94 -301.5q0 -194 93.5 -300t282.5 -106z" />
    <glyph glyph-name="uni3269" unicode="&#x3269;" 
d="M474 -188q-231 0 -348 130.5t-117 358.5t117 358.5t348 130.5q230 0 347 -130.5t117 -358.5t-117 -358.5t-347 -130.5zM744 334h-188v-83l215 -231q77 102 77 281q0 194 -93 300.5t-281 106.5t-282 -106.5t-94 -301.5q0 -183 81 -286l213 236v84h-193v123h545v-123z
M474 -106q195 0 290 117h-170l-119 131l-115 -131h-178q95 -117 292 -117zM631 496h-329v116h329v-116z" />
    <glyph glyph-name="uni326A" unicode="&#x326a;" 
d="M474 -188q-231 0 -348 130.5t-117 358.5t117 358.5t348 130.5q230 0 347 -130.5t117 -358.5t-117 -358.5t-347 -130.5zM474 -106q188 0 281 106t93 301q0 194 -93 300.5t-281 106.5t-282 -106.5t-94 -301.5q0 -194 93.5 -300t282.5 -106zM723 556v-216
q0 -79 -16.5 -159.5t-32.5 -121.5l-17 -41h-161q36 80 55 188h-335v128h348v92h-347v130h506z" />
    <glyph glyph-name="uni326B" unicode="&#x326b;" 
d="M723 249h-346v-85q251 5 378 49v-133q-69 -26 -186.5 -38.5t-225.5 -12.5h-125v541h499v-128h-340v-65h346v-128zM474 -106q188 0 281 106t93 301q0 194 -93 300.5t-281 106.5t-282 -106.5t-94 -301.5q0 -194 93.5 -300t282.5 -106zM474 -188q-231 0 -348 130.5
t-117 358.5t117 358.5t348 130.5q230 0 347 -130.5t117 -358.5t-117 -358.5t-347 -130.5z" />
    <glyph glyph-name="uni326C" unicode="&#x326c;" 
d="M769 45h-586v130h84l-10 224h163l8 -224h90l10 224h163l-10 -224h88v-130zM751 432h-555v130h555v-130zM474 -106q188 0 281 106t93 301q0 194 -93 300.5t-281 106.5t-282 -106.5t-94 -301.5q0 -194 93.5 -300t282.5 -106zM474 -188q-231 0 -348 130.5t-117 358.5
t117 358.5t348 130.5q230 0 347 -130.5t117 -358.5t-117 -358.5t-347 -130.5z" />
    <glyph glyph-name="uni326D" unicode="&#x326d;" 
d="M754 346h-570v114h570v-114zM631 491h-329v113h329v-113zM720 161q0 -69 -48.5 -112t-125.5 -43h-143q-78 0 -125.5 42.5t-47.5 111.5q0 70 48 115t125 45h143q77 0 125.5 -45t48.5 -114zM433 118h84q21 0 34.5 11t13.5 32q0 47 -48 47h-84q-45 0 -45 -47q0 -43 45 -43z
M474 -106q188 0 281 106t93 301q0 194 -93 300.5t-281 106.5t-282 -106.5t-94 -301.5q0 -194 93.5 -300t282.5 -106zM474 -188q-231 0 -348 130.5t-117 358.5t117 358.5t348 130.5q230 0 347 -130.5t117 -358.5t-117 -358.5t-347 -130.5z" />
    <glyph glyph-name="uni326E" unicode="&#x326e;" 
d="M474 -188q-231 0 -348 130.5t-117 358.5t117 358.5t348 130.5q230 0 347 -130.5t117 -358.5t-117 -358.5t-347 -130.5zM474 -106q162 0 255 81h9v8q110 103 110 318q0 194 -93 300.5t-281 106.5q-176 0 -272 -96h331v-232q0 -69 -24 -142.5t-53 -122t-53 -80.5l-24 -32
h-166q11 12 30 35t58.5 78.5t66 126t26.5 135.5v119h-231v66q-65 -99 -65 -263q0 -194 93.5 -300t282.5 -106zM738 -17v305h93v109h-93v218h-138v-640h129l4 4t5 4z" />
    <glyph glyph-name="uni326F" unicode="&#x326f;" 
d="M474 -188q-231 0 -348 130.5t-117 358.5t117 358.5t348 130.5q230 0 347 -130.5t117 -358.5t-117 -358.5t-347 -130.5zM474 -106q166 0 261 86h-125v640h127q-94 88 -263 88q-176 0 -273 -97h117v-479q56 2 135.5 16t136.5 33v-118q-58 -19 -157 -33.5t-159 -14.5h-96
q96 -121 296 -121zM748 402h87v-109h-87v-300q100 103 100 308t-100 308v-207zM98 300q0 -177 75 -278v556q-75 -101 -75 -278z" />
    <glyph glyph-name="uni3270" unicode="&#x3270;" 
d="M474 -188q-231 0 -348 130.5t-117 358.5t117 358.5t348 130.5q230 0 347 -130.5t117 -358.5t-117 -358.5t-347 -130.5zM590 180v-119q-58 -19 -157 -33.5t-159 -14.5h-94q94 -119 294 -119q166 0 261 86h-125v640h127q-94 88 -263 88q-173 0 -267 -91h339v-115h-234v-371
q151 6 278 49zM748 405h87v-109h-87v-303q100 103 100 308t-100 308v-204zM98 300q0 -177 75 -278v556q-75 -101 -75 -278z" />
    <glyph glyph-name="uni3271" unicode="&#x3271;" 
d="M474 -188q-231 0 -348 130.5t-117 358.5t117 358.5t348 130.5q230 0 347 -130.5t117 -358.5t-117 -358.5t-347 -130.5zM474 -106q166 0 261 86h-126v640h128q-94 88 -263 88q-173 0 -267 -91h328v-335h-228v-159q57 2 139.5 16t137.5 33v-115q-58 -18 -156.5 -32.5
t-158.5 -14.5h-87q96 -116 292 -116zM168 29v362h229v116h-228v65q-71 -101 -71 -272q0 -172 70 -271zM748 402h86v-109h-86v-300q100 103 100 308t-100 308v-207z" />
    <glyph glyph-name="uni3272" unicode="&#x3272;" 
d="M474 -188q-231 0 -348 130.5t-117 358.5t117 358.5t348 130.5q230 0 347 -130.5t117 -358.5t-117 -358.5t-347 -130.5zM474 -106q166 0 261 86h-125v640h127q-94 88 -263 88q-173 0 -267 -91h359v-612h-139v36q-106 -31 -207 -31h-38q96 -116 292 -116zM311 508v-385
q53 4 116 28v357h-116zM748 399h86v-109h-86v-297q100 103 100 308t-100 308v-210zM98 300q0 -177 75 -278v556q-75 -101 -75 -278z" />
    <glyph glyph-name="uni3273" unicode="&#x3273;" 
d="M474 -188q-231 0 -348 130.5t-117 358.5t117 358.5t348 130.5q230 0 347 -130.5t117 -358.5t-117 -358.5t-347 -130.5zM474 -106q166 0 261 86h-125v640h127q-94 88 -263 88q-171 0 -266 -90h103v-196h117v196h138v-613h-138v35q-100 -30 -208 -30h-38q96 -116 292 -116z
M748 399h86v-109h-86v-297q100 103 100 308t-100 308v-210zM98 300q0 -177 75 -278v556q-75 -101 -75 -278zM311 313v-190q52 3 117 27v163h-117z" />
    <glyph glyph-name="uni3274" unicode="&#x3274;" 
d="M474 -188q-231 0 -348 130.5t-117 358.5t117 358.5t348 130.5q230 0 347 -130.5t117 -358.5t-117 -358.5t-347 -130.5zM474 -106q166 0 261 86h-132v640h134q-94 88 -263 88q-188 0 -282 -106.5t-94 -301.5q0 -133 43 -223l134 325v218h146v-218l164 -395h-140l-97 230
l-96 -230h-67q96 -113 289 -113zM742 407h86v-109h-86v-311q106 102 106 314q0 209 -106 314v-208z" />
    <glyph glyph-name="uni3275" unicode="&#x3275;" 
d="M474 -188q-231 0 -348 130.5t-117 358.5t117 358.5t348 130.5q230 0 347 -130.5t117 -358.5t-117 -358.5t-347 -130.5zM474 -106q169 0 264 89h-130v641h124q-95 84 -258 84q-188 0 -282 -106.5t-94 -301.5q0 -194 93.5 -300t282.5 -106zM559 505v-376q0 -64 -61 -98
t-135 -34t-134.5 34t-60.5 98v376q0 64 60.5 98t134.5 34t135 -34t61 -98zM421 152v330q0 47 -58 47q-57 0 -57 -47v-330q0 -48 57 -48q58 0 58 48zM746 407h86v-109h-86v-307q102 103 102 310t-102 310v-204z" />
    <glyph glyph-name="uni3276" unicode="&#x3276;" 
d="M474 -188q-231 0 -348 130.5t-117 358.5t117 358.5t348 130.5q230 0 347 -130.5t117 -358.5t-117 -358.5t-347 -130.5zM474 -106q166 0 261 86h-130v640h132q-94 88 -263 88q-173 0 -267 -91h361v-110h-133v-127l161 -373h-143l-89 219l-89 -219h-90q96 -113 289 -113z
M153 54l144 325v128h-134v56q-65 -99 -65 -263q0 -149 55 -246zM744 408h86v-109h-86v-310q104 104 104 312t-104 312v-205z" />
    <glyph glyph-name="uni3277" unicode="&#x3277;" 
d="M474 -188q-231 0 -348 130.5t-117 358.5t117 358.5t348 130.5q230 0 347 -130.5t117 -358.5t-117 -358.5t-347 -130.5zM509 527h-285v105q-126 -103 -126 -332q0 -158 60 -256l144 250v85h-139v109h410v-109h-133v-84l156 -287h-144l-84 160l-87 -160h-97
q97 -114 290 -114q169 0 263 88h-132v640h129q-95 86 -260 86q-154 0 -249 -75h284v-106zM743 377h86v-109h-86v-280q105 102 105 313q0 208 -105 313v-237zM225 633h-1v-1q1 0 1 1z" />
    <glyph glyph-name="uni3278" unicode="&#x3278;" 
d="M474 -188q-231 0 -348 130.5t-117 358.5t117 358.5t348 130.5q230 0 347 -130.5t117 -358.5t-117 -358.5t-347 -130.5zM548 613v-232q0 -69 -24 -142.5t-52.5 -122t-52.5 -80.5l-24 -32h-170q8 8 21.5 23.5t43.5 53.5t58 89.5t43 103.5h-221v115h240v109h-240v76
q-72 -101 -72 -274q0 -194 93.5 -300t282.5 -106q166 0 261 86h-125v640h127q-94 88 -263 88q-176 0 -271 -95h345zM748 399h86v-109h-86v-297q100 103 100 308t-100 308v-210z" />
    <glyph glyph-name="uni3279" unicode="&#x3279;" 
d="M474 -188q-231 0 -348 130.5t-117 358.5t117 358.5t348 130.5q230 0 347 -130.5t117 -358.5t-117 -358.5t-347 -130.5zM474 -106q166 0 261 86h-125v640h127q-94 88 -263 88q-173 0 -267 -91h342v-110h-230v-113h227v-111h-227v-160q57 2 137 16t136 33v-115
q-57 -18 -158 -32.5t-161 -14.5h-91q96 -116 292 -116zM748 405h86v-109h-86v-303q100 103 100 308t-100 308v-204zM98 300q0 -177 75 -278v556q-75 -101 -75 -278z" />
    <glyph glyph-name="uni327A" unicode="&#x327a;" 
d="M474 -188q-231 0 -348 130.5t-117 358.5t117 358.5t348 130.5q230 0 347 -130.5t117 -358.5t-117 -358.5t-347 -130.5zM474 -106q166 0 261 86h-118v640h120q-94 88 -263 88q-173 0 -267 -91h368v-109h-418v46q-59 -99 -59 -254q0 -150 55 -247v68h51l-8 357h136l8 -352
q29 2 56 5l8 347h136l-8 -323q45 9 67 16v-117q-60 -20 -164.5 -32.5t-193.5 -12.5h-58q96 -115 291 -115zM755 396h77v-109h-77v-287q93 103 93 301q0 196 -93 301v-206z" />
    <glyph glyph-name="uni327B" unicode="&#x327b;" 
d="M474 -188q-231 0 -348 130.5t-117 358.5t117 358.5t348 130.5q230 0 347 -130.5t117 -358.5t-117 -358.5t-347 -130.5zM474 -106q166 0 261 86h-128v640h130q-94 88 -263 88q-188 0 -282 -106.5t-94 -301.5q0 -194 93.5 -300t282.5 -106zM568 237v-125q0 -64 -60.5 -99
t-132.5 -35q-73 0 -133.5 35t-60.5 99v125q0 64 60.5 99t133.5 35q72 0 132.5 -35t60.5 -99zM587 392h-432v110h432v-110zM745 370h86v-109h-86v-271q103 103 103 311t-103 311v-242zM506 526h-267v107h267v-107zM430 132v86q0 52 -55 52t-55 -52v-86q0 -53 55 -53t55 53z
" />
    <glyph glyph-name="uni24D0" unicode="&#x24d0;" 
d="M241 145v226q0 77 52 122.5t141 45.5q62 0 102 -27v21h137v-548h-132v25q-41 -33 -108 -33q-92 0 -142 43.5t-50 124.5zM378 368v-224q0 -63 75 -63q35 0 59.5 14.5t24.5 39.5v244q0 28 -22 42.5t-55 14.5q-82 0 -82 -68zM474 -106q188 0 281 106t93 301q0 194 -93 300.5
t-281 106.5t-282 -106.5t-94 -301.5q0 -194 93.5 -300t282.5 -106zM474 -188q-231 0 -348 130.5t-117 358.5t117 358.5t348 130.5q230 0 347 -130.5t117 -358.5t-117 -358.5t-347 -130.5z" />
    <glyph glyph-name="uni24D1" unicode="&#x24d1;" 
d="M709 342v-228q0 -81 -52.5 -125t-145.5 -44q-62 0 -106 27v-19h-131v705h136v-170q41 23 100 23q95 0 149.5 -47.5t49.5 -121.5zM572 113v226q0 71 -88 71q-32 0 -53 -16t-21 -44v-247q0 -25 23.5 -39.5t58.5 -14.5q80 0 80 64zM474 -106q188 0 281 106t93 301
q0 194 -93 300.5t-281 106.5t-282 -106.5t-94 -301.5q0 -194 93.5 -300t282.5 -106zM474 -188q-231 0 -348 130.5t-117 358.5t117 358.5t348 130.5q230 0 347 -130.5t117 -358.5t-117 -358.5t-347 -130.5z" />
    <glyph glyph-name="uni24D2" unicode="&#x24d2;" 
d="M541 161h138v-38q0 -72 -54.5 -110.5t-160.5 -38.5q-87 0 -148.5 40.5t-61.5 123.5v252q0 43 19.5 75t52 49t68.5 25t74 8q88 0 149.5 -37t61.5 -104v-50h-138v29q0 61 -73 61q-76 0 -76 -68v-236q0 -67 76 -67q37 0 55 11.5t18 48.5v26zM474 -106q188 0 281 106t93 301
q0 194 -93 300.5t-281 106.5t-282 -106.5t-94 -301.5q0 -194 93.5 -300t282.5 -106zM474 -188q-231 0 -348 130.5t-117 358.5t117 358.5t348 130.5q230 0 347 -130.5t117 -358.5t-117 -358.5t-347 -130.5z" />
    </font>
</defs>
</svg>
