<?xml version="1.0" standalone="no"?>
<!DOCTYPE svg PUBLIC "-//W3C//DTD SVG 1.1//EN" "http://www.w3.org/Graphics/SVG/1.1/DTD/svg11.dtd" >
<svg xmlns="http://www.w3.org/2000/svg" xmlns:xlink="http://www.w3.org/1999/xlink" version="1.1">
<metadata>
Created by FontForge 20190801 at Thu Jun 23 17:33:55 2005
 By Jimmy Wärting
Copyright 2002 International Typeface Corporation. All rights reserved. "ITC" is a trademark of International Typeface Corporation Registered in U.S. Patent and Trademark Office and may be registered in certain other jurisdictions;"Newtext" is a trademark of International Typeface Corporation and may be registered in certain jurisdictions.
</metadata>
<defs>
<font id="NewtextITCStd-Regular" horiz-adv-x="700" >
  <font-face 
    font-family="Newtext ITC Std"
    font-weight="450"
    font-stretch="normal"
    units-per-em="1000"
    panose-1="2 0 5 5 4 0 0 2 0 4"
    ascent="800"
    descent="-200"
    x-height="467"
    cap-height="667"
    bbox="-95 -211 1527 926"
    underline-thickness="50"
    underline-position="-100"
    stemh="103"
    stemv="127"
    unicode-range="U+0020-FB02"
  />
<missing-glyph horiz-adv-x="500" 
d="M12 0v665h475v-665h-475zM88 618l162 -243l161 243h-323zM60 575v-484c0 -1 161 242 161 242zM440 575l-162 -242l162 -243v485zM411 48l-161 242l-162 -242h323z" />
    <glyph glyph-name="f_i" unicode="fi" horiz-adv-x="664" 
d="M626 0h-206c42 32 47 64 47 113v209c0 36 -18 39 -59 39h-158v-248c0 -52 6 -81 47 -113h-206c42 32 47 63 47 113v248h-106c-14 0 -26 -5 -37 -13l37 122c10 -13 28 -17 54 -17h53c-1 18 -2 39 -2 52c0 109 81 178 248 178c87 0 154 -18 191 -18c10 0 20 4 25 6
l-29 -111c-22 23 -88 36 -172 36c-115 0 -159 -32 -159 -108c0 -11 4 -25 9 -35h347c-15 -12 -18 -23 -18 -53v-300c0 -48 16 -76 47 -100z" />
    <glyph glyph-name="f_l" unicode="fl" horiz-adv-x="664" 
d="M626 0h-206c42 32 47 64 47 113v462c-35 12 -72 20 -110 20c-77 0 -116 -36 -116 -88c0 -17 2 -36 9 -54h76c24 0 45 1 69 11l-35 -117c-12 12 -29 14 -59 14h-51v-248c0 -52 6 -81 47 -113h-206c42 32 47 63 47 113v248h-106c-14 0 -26 -5 -37 -13l37 122
c10 -13 28 -17 54 -17h53c0 16 -2 36 -2 46c0 123 88 183 209 183c57 0 120 -18 182 -18c22 0 48 2 70 4c-19 -12 -19 -28 -19 -61v-494c0 -48 4 -80 47 -113z" />
    <glyph glyph-name=".notdef" horiz-adv-x="500" 
d="M12 0v665h475v-665h-475zM88 618l162 -243l161 243h-323zM60 575v-484c0 -1 161 242 161 242zM440 575l-162 -242l162 -243v485zM411 48l-161 242l-162 -242h323z" />
    <glyph glyph-name="space" unicode=" " horiz-adv-x="307" 
 />
    <glyph glyph-name="exclam" unicode="!" horiz-adv-x="335" 
d="M247 477c0 -43 -7 -110 -18 -172c-13 -69 -28 -104 -61 -104c-40 0 -56 54 -71 169c-5 42 -11 87 -11 132c0 114 32 178 83 178c53 0 78 -69 78 -203zM258 60c0 -39 -29 -73 -88 -73s-91 26 -91 73c0 46 37 75 90 75c54 0 89 -29 89 -75z" />
    <glyph glyph-name="quotedbl" unicode="&#x22;" horiz-adv-x="530" 
d="M435 667c-15 -12 -21 -29 -23 -51l-23 -209h-62l-24 210c-3 28 -10 38 -24 50h156zM251 667c-15 -12 -21 -29 -23 -51l-23 -209h-62l-25 210c-3 29 -10 38 -23 50h155h1z" />
    <glyph glyph-name="numbersign" unicode="#" 
d="M596 443l-9 -62h-114l-15 -103h115l-9 -62h-114l-25 -178h-66l25 178h-106l-25 -178h-65l25 178h-109l9 62h109l14 103h-109l9 62h109l23 163h65l-23 -163h106l23 163h65l-22 -163h114zM408 381h-107l-14 -103h106z" />
    <glyph glyph-name="dollar" unicode="$" 
d="M606 212c0 -101 -78 -187 -212 -194v-48c0 -21 3 -30 14 -38h-100c8 6 14 13 14 26v60c-72 9 -121 33 -176 33c-23 0 -35 -6 -49 -17v166c63 -53 145 -86 225 -90v183c-117 33 -204 67 -204 185c0 85 61 158 204 171v28c0 13 -8 21 -14 28h100c-9 -7 -14 -16 -14 -28v-28
c15 -4 32 -6 40 -7c41 -6 74 -19 100 -19c13 0 20 5 27 10v-146c-54 39 -106 64 -167 71v-172c109 -22 212 -54 212 -174zM322 400v159c-53 -3 -89 -31 -89 -77c0 -40 29 -70 89 -82zM494 199c0 48 -41 67 -100 81v-172c72 7 100 49 100 91z" />
    <glyph glyph-name="percent" unicode="%" horiz-adv-x="1061" 
d="M1032 188c0 -125 -79 -201 -231 -201c-129 0 -219 65 -219 201c0 123 91 197 235 197c132 0 215 -70 215 -197zM790 668c-26 -15 -38 -34 -56 -63l-332 -553c-6 -10 -16 -31 -16 -39c0 -5 4 -11 6 -13h-118c33 19 42 40 60 70l330 549c6 11 15 26 15 29v7c0 5 -1 7 -7 13
h118zM479 483c0 -125 -80 -201 -231 -201c-130 0 -219 66 -219 201c0 122 91 197 235 197c132 0 215 -70 215 -197zM940 181c0 89 -44 135 -127 135c-89 0 -139 -50 -139 -127c0 -85 48 -133 135 -133c88 0 131 54 131 125zM387 476c0 89 -44 135 -127 135
c-89 0 -139 -49 -139 -126c0 -85 48 -134 135 -134c88 0 131 54 131 125z" />
    <glyph glyph-name="ampersand" unicode="&#x26;" horiz-adv-x="884" 
d="M857 305h-41c-44 0 -71 -7 -91 -45l-20 -38c117 -107 85 -185 117 -222h-162c14 11 18 18 18 38c0 50 -19 72 -34 87c-38 -40 -106 -137 -288 -137c-194 0 -307 88 -307 224c0 117 78 152 141 179c-35 30 -58 60 -58 112c0 108 96 177 290 177c84 0 158 -21 195 -21
c16 0 25 1 37 11v-147c-87 43 -164 66 -235 66c-96 0 -147 -41 -147 -84c0 -93 130 -98 343 -222c12 10 16 36 16 65c0 26 -5 42 -16 57h242c-7 -5 -10 -11 -10 -22v-57c0 -10 6 -17 10 -21zM569 191c-59 41 -125 66 -191 96c-35 16 -70 33 -103 48
c-51 -21 -83 -68 -83 -115c0 -81 74 -135 172 -135c73 0 152 33 205 106z" />
    <glyph glyph-name="quoteright" unicode="&#x2019;" horiz-adv-x="307" 
d="M249 587c0 -57 -40 -121 -63 -141c-34 -30 -36 -35 -36 -41v-2l-83 50c49 7 68 52 68 70c0 12 -9 20 -38 34c-16 8 -27 27 -27 51c0 42 32 72 86 72c59 0 93 -35 93 -93z" />
    <glyph glyph-name="parenleft" unicode="(" horiz-adv-x="500" 
d="M409 -138c-180 16 -345 183 -345 406c0 235 170 392 330 412c-2 -3 -8 -11 -8 -18v-44c0 -9 2 -12 8 -16c-97 -22 -200 -166 -200 -331c0 -185 143 -327 215 -334c-3 -3 -7 -9 -7 -17v-41c0 -8 5 -14 7 -17z" />
    <glyph glyph-name="parenright" unicode=")" horiz-adv-x="500" 
d="M437 264c0 -210 -161 -381 -331 -402c2 3 9 12 9 18v44c0 8 -3 12 -9 16c99 22 201 172 201 323c0 200 -147 335 -216 342c3 3 7 9 7 17v41c0 7 -5 14 -7 17c153 -14 290 -135 332 -291c13 -47 14 -76 14 -125z" />
    <glyph glyph-name="asterisk" unicode="*" horiz-adv-x="473" 
d="M411 495c-12 13 -18 18 -36 18c-6 0 -19 -3 -24 -4l-46 -9c-2 -8 -3 -17 -9 -28l36 -38c10 -11 24 -21 36 -21c7 0 11 1 18 2c-33 -44 -56 -61 -110 -80c4 7 11 15 11 28c0 9 -8 25 -13 35l-23 41c-2 0 -11 -1 -14 -1s-13 1 -17 2l-21 -42c-5 -10 -12 -22 -12 -32
c0 -14 2 -18 9 -29c-53 16 -77 36 -110 78c6 -1 9 -1 15 -1c14 0 26 8 37 19l38 38c-5 10 -7 17 -9 31l-44 7c-8 1 -11 3 -19 3c-19 0 -26 -3 -42 -17v23c0 28 12 64 39 101c6 -18 7 -29 36 -43l47 -22c8 7 13 11 24 17l-7 58c-3 27 -13 32 -33 40c18 5 40 12 68 12
c27 0 51 -7 70 -12c-24 -6 -30 -15 -34 -42l-9 -56c9 -4 14 -6 25 -17l48 23c28 14 29 19 34 43c33 -44 41 -78 41 -125z" />
    <glyph glyph-name="plus" unicode="+" 
d="M601 291h-208v-202h-86v202h-208v84h208v201h86v-201h208v-84z" />
    <glyph glyph-name="comma" unicode="," horiz-adv-x="307" 
d="M249 42c0 -57 -40 -121 -63 -141c-34 -30 -36 -35 -36 -41v-2l-83 50c49 7 68 52 68 70c0 12 -9 20 -38 34c-16 8 -27 27 -27 51c0 42 32 72 86 72c59 0 93 -35 93 -93z" />
    <glyph glyph-name="hyphen" unicode="-" horiz-adv-x="323" 
d="M323 321l-30 -74c-18 -44 -32 -56 -84 -56h-134c-36 0 -54 -5 -75 -19l24 62c20 52 40 57 85 57h102c61 0 76 3 112 30z" />
    <glyph glyph-name="period" unicode="." horiz-adv-x="307" 
d="M243 60c0 -45 -34 -73 -89 -73c-57 0 -90 26 -90 72s32 76 91 76c57 0 88 -31 88 -75z" />
    <glyph glyph-name="slash" unicode="/" horiz-adv-x="397" 
d="M393 667c-25 -14 -34 -33 -49 -70l-280 -684c-4 -10 -11 -24 -11 -35c0 -8 4 -14 9 -18h-121c23 13 35 29 48 62l286 702c3 6 8 18 8 28c0 8 -5 12 -8 15h118z" />
    <glyph glyph-name="zero" unicode="0" 
d="M665 337c0 -111 -33 -208 -91 -269c-62 -65 -136 -81 -233 -81c-206 0 -307 107 -307 333c0 153 50 261 144 318c57 35 116 42 184 42c201 0 303 -117 303 -343zM535 342c0 167 -53 241 -172 241c-134 0 -199 -76 -199 -262c0 -166 61 -237 181 -237
c130 0 190 77 190 258z" />
    <glyph glyph-name="one" unicode="1" 
d="M506 0h-238c53 45 57 88 57 155v334c-28 -18 -66 -45 -121 -45c-7 0 -20 1 -25 1c-7 0 -14 -3 -17 -5v122c12 -15 22 -21 44 -21c77 0 147 54 147 106c0 8 -2 15 -9 20h123c-11 -9 -17 -22 -17 -52v-472c0 -83 25 -114 56 -143z" />
    <glyph glyph-name="two" unicode="2" 
d="M670 0h-636c22 16 20 31 23 70c7 99 78 183 211 245c152 71 234 109 234 178c0 55 -47 90 -138 90c-82 0 -228 -45 -284 -88v166c17 -11 31 -12 45 -12h7c52 0 146 31 261 31c139 0 239 -58 239 -178c0 -89 -52 -156 -143 -198c-211 -99 -278 -126 -283 -208h270
c65 0 126 2 169 59v-106c0 -29 4 -33 25 -49z" />
    <glyph glyph-name="three" unicode="3" 
d="M646 209c0 -125 -123 -223 -325 -223c-105 0 -175 20 -221 20c-24 0 -35 0 -51 -13v155c81 -44 167 -65 250 -65c114 0 217 42 217 129c0 68 -75 92 -205 92h-102c-34 0 -46 -4 -59 -19v129c11 -14 19 -14 46 -14h93c122 0 181 35 181 96c0 62 -47 87 -134 87
c-76 0 -178 -23 -248 -61v151c12 -9 23 -12 39 -12c57 0 143 19 235 19c159 0 238 -63 238 -166c0 -64 -35 -114 -104 -147c96 -18 150 -62 150 -158z" />
    <glyph glyph-name="four" unicode="4" 
d="M683 284l-26 -77c-10 -28 -24 -42 -54 -42h-17v-55c0 -54 16 -81 61 -110h-241c34 23 58 44 58 110v55h-426c1 3 2 4 2 7c0 5 -1 7 -2 12l-17 77c-2 11 -5 15 -12 23l367 353c3 3 10 9 10 17c0 6 -6 11 -8 13h226c-18 -16 -18 -27 -18 -65v-341h22c46 0 57 10 75 23z
M464 261v326l-339 -326h339z" />
    <glyph glyph-name="five" unicode="5" 
d="M644 208c0 -137 -136 -221 -322 -221c-115 0 -188 19 -211 19c-13 0 -21 -7 -27 -13l-39 158c77 -33 164 -67 271 -67c125 0 198 50 198 125c0 67 -61 104 -159 104c-74 0 -151 -18 -213 -48c-1 7 -1 10 -8 16l-49 41c-5 5 -11 5 -15 5h-4l26 287c1 8 1 12 1 20
c0 18 -7 26 -17 33h513c-5 -5 -9 -10 -9 -21c0 -6 2 -10 3 -16l26 -116c-51 50 -116 57 -212 57h-195l-17 -194c56 23 112 33 178 33c185 0 281 -69 281 -202z" />
    <glyph glyph-name="six" unicode="6" 
d="M650 231c0 -149 -119 -245 -292 -245c-205 0 -308 115 -308 344c0 205 129 350 353 350c79 0 154 -22 186 -22c11 0 16 1 25 6l-25 -135c-54 32 -111 54 -183 54c-146 0 -221 -89 -227 -197c65 32 149 50 218 50c168 0 253 -81 253 -205zM527 221c0 75 -54 118 -146 118
c-64 0 -142 -18 -201 -60v-15c0 -110 61 -181 179 -181c85 0 168 51 168 138z" />
    <glyph glyph-name="seven" unicode="7" 
d="M684 667c-33 -30 -66 -74 -104 -128c-132 -186 -205 -329 -205 -449c0 -37 11 -72 29 -90h-208c33 27 9 82 60 207c51 124 131 238 215 364h-155c-102 0 -184 -4 -269 -56l47 113c3 7 5 11 5 19c0 10 -5 17 -8 20h593z" />
    <glyph glyph-name="eight" unicode="8" 
d="M657 200c0 -131 -135 -213 -295 -213c-213 0 -321 69 -321 205c0 113 77 152 157 182c-58 18 -116 40 -116 131c0 102 102 176 283 176c102 0 176 -25 219 -72c32 -35 35 -66 35 -102c0 -58 -34 -110 -120 -133c108 -24 158 -73 158 -174zM489 500c0 56 -51 84 -133 84
c-95 0 -144 -38 -144 -82c0 -63 50 -95 139 -95c80 0 138 34 138 93zM527 199c0 77 -58 117 -167 117c-125 0 -189 -48 -189 -114c0 -74 60 -118 184 -118c112 0 172 54 172 115z" />
    <glyph glyph-name="nine" unicode="9" 
d="M649 336c0 -207 -140 -350 -348 -350c-89 0 -161 25 -191 25c-4 0 -7 1 -11 1s-9 -1 -16 -7l27 137c50 -37 122 -59 187 -59c127 0 214 80 224 200c-50 -24 -116 -52 -218 -52c-166 0 -252 78 -252 210c0 134 102 239 298 239c101 0 189 -39 239 -109
c48 -67 61 -144 61 -235zM519 391v16c0 99 -66 176 -171 176c-99 0 -167 -59 -167 -139c0 -73 52 -116 138 -116c70 0 150 22 200 63z" />
    <glyph glyph-name="colon" unicode=":" horiz-adv-x="307" 
d="M243 408c0 -44 -33 -73 -91 -73c-52 0 -88 25 -88 73c0 44 33 75 90 75c59 0 89 -29 89 -75zM243 60c0 -44 -32 -73 -91 -73c-53 0 -88 25 -88 73c0 44 33 75 90 75c59 0 89 -29 89 -75z" />
    <glyph glyph-name="semicolon" unicode=";" horiz-adv-x="307" 
d="M244 410c0 -44 -33 -75 -91 -75c-59 0 -88 28 -88 73c0 42 31 75 91 75c54 0 88 -29 88 -73zM249 42c0 -57 -40 -121 -63 -141c-34 -30 -36 -35 -36 -41v-2l-83 50c49 7 68 52 68 70c0 12 -9 20 -38 34c-16 8 -27 27 -27 51c0 42 32 72 86 72c59 0 93 -35 93 -93z" />
    <glyph glyph-name="less" unicode="&#x3c;" 
d="M601 73l-502 214v89l502 213v-104l-390 -154l390 -153v-105z" />
    <glyph glyph-name="equal" unicode="=" 
d="M601 375h-502v80h502v-80zM601 210h-502v80h502v-80z" />
    <glyph glyph-name="greater" unicode="&#x3e;" 
d="M601 287l-502 -214v105l390 153l-390 154v104l502 -213v-89z" />
    <glyph glyph-name="question" unicode="?" horiz-adv-x="643" 
d="M617 462c0 -135 -119 -216 -285 -222c-111 -4 -129 -3 -139 -22v127c20 -14 38 -14 67 -14c51 0 95 1 143 22s75 60 75 109c0 78 -52 127 -157 127c-97 0 -217 -49 -289 -109v165c8 -9 18 -13 34 -13c52 0 135 48 267 48c195 0 284 -98 284 -218zM387 59
c0 -38 -27 -72 -95 -72c-50 0 -84 29 -84 72c0 41 27 76 94 76c54 0 85 -30 85 -76z" />
    <glyph glyph-name="at" unicode="@" horiz-adv-x="776" 
d="M776 361c0 -129 -83 -215 -168 -215c-44 0 -77 19 -104 55c-35 -31 -71 -51 -131 -51c-99 0 -183 71 -183 177c0 110 80 193 187 193c56 0 99 -20 130 -59l15 30h65c-24 -27 -27 -65 -30 -137c-1 -21 -4 -47 -4 -72c0 -53 28 -78 60 -78c54 0 104 58 104 153
c0 158 -120 270 -305 270c-197 0 -353 -122 -353 -308c0 -165 129 -275 314 -275c63 0 121 13 142 32l31 -63l-5 1c-38 0 -77 -24 -167 -24c-222 0 -374 141 -374 331c0 220 181 357 410 357c226 0 366 -141 366 -317zM490 339c0 83 -42 123 -104 123
c-68 0 -115 -55 -115 -133s43 -121 106 -121c67 0 113 45 113 131z" />
    <glyph glyph-name="A" unicode="A" horiz-adv-x="854" 
d="M856 0h-220c16 15 24 25 24 51c0 14 -7 40 -16 59l-17 38h-407l-13 -25c-9 -18 -17 -46 -17 -67c0 -29 18 -44 36 -56h-228c60 69 86 131 107 175l201 426c5 10 12 24 12 32c0 17 0 23 -13 34h249c-8 -7 -14 -13 -14 -28c0 -12 8 -28 14 -40l195 -423
c23 -51 49 -115 107 -176zM580 254l-155 326l-157 -326h312z" />
    <glyph glyph-name="B" unicode="B" horiz-adv-x="829" 
d="M787 197c0 -41 -20 -91 -61 -126c-77 -67 -188 -71 -358 -71h-325c34 26 56 46 56 142v385c0 94 -21 114 -56 140h357c212 0 329 -25 329 -175c0 -38 -25 -87 -99 -129c103 -27 157 -65 157 -166zM586 479c0 78 -78 82 -195 82h-162v-171h133c143 0 224 10 224 89z
M644 206c0 62 -59 88 -163 88h-252v-188h139c171 0 276 5 276 100z" />
    <glyph glyph-name="C" unicode="C" horiz-adv-x="746" 
d="M714 662l-57 -163c-39 45 -129 76 -221 76c-153 0 -254 -96 -254 -249c0 -146 88 -233 255 -233c83 0 180 31 247 71v-159c-5 8 -9 10 -21 10c-46 0 -135 -28 -250 -28c-231 0 -374 118 -374 335c0 214 151 359 380 359c110 0 203 -26 258 -26c17 0 28 3 37 7z" />
    <glyph glyph-name="D" unicode="D" horiz-adv-x="841" 
d="M803 344c0 -99 -31 -177 -92 -238c-78 -77 -178 -106 -323 -106h-345c36 25 57 46 57 138v388c0 93 -21 116 -57 141h357c88 0 165 -8 238 -46c105 -54 165 -152 165 -277zM660 340c0 172 -99 221 -271 221h-159v-455h159c130 0 207 28 247 117c15 33 24 76 24 117z" />
    <glyph glyph-name="E" unicode="E" horiz-adv-x="808" 
d="M778 162l-43 -110c-3 -7 -7 -20 -7 -25c0 -15 9 -21 16 -27h-706c46 19 62 59 62 137v390c0 80 -17 121 -62 140h685c-8 -7 -9 -13 -9 -18v-6c0 -3 5 -19 9 -31l32 -107c-50 42 -92 56 -209 56h-316v-163h301c41 0 73 0 107 16l-47 -78c-21 -34 -25 -44 -115 -44h-246
v-186h269c107 0 192 5 279 56z" />
    <glyph glyph-name="F" unicode="F" horiz-adv-x="710" 
d="M693 505c-49 43 -114 56 -205 56h-258v-182h305c39 0 63 0 94 17l-49 -84c-23 -39 -36 -39 -88 -39h-262v-133c0 -57 9 -99 26 -114c8 -7 21 -19 29 -26h-243c38 25 58 50 58 140v384c0 92 -21 118 -58 143h642c-14 -8 -16 -16 -16 -32c0 -5 3 -23 5 -33z" />
    <glyph glyph-name="G" unicode="G" horiz-adv-x="850" 
d="M796 397c-16 -11 -23 -26 -23 -47v-323c-15 5 -35 12 -55 12c-62 0 -165 -52 -303 -52c-229 0 -376 128 -376 340c0 85 34 175 95 240c74 78 175 113 311 113c117 0 197 -23 257 -23c18 0 34 2 49 8l-44 -159c-59 44 -152 68 -254 68c-169 0 -271 -103 -271 -251
c0 -143 86 -230 248 -230c54 0 105 6 153 30c50 25 68 57 68 108v60h-200c-39 0 -53 -2 -66 -18l25 88c9 33 23 36 49 36h337z" />
    <glyph glyph-name="H" unicode="H" horiz-adv-x="863" 
d="M820 0h-244c39 26 57 51 57 140v165h-404v-165c0 -92 21 -115 57 -140h-244c37 25 57 49 57 140v386c0 91 -19 115 -57 141h244c-37 -25 -57 -49 -57 -141v-115h404v115c0 88 -18 115 -57 141h244c-34 -25 -57 -44 -57 -141v-386c0 -96 24 -115 57 -140z" />
    <glyph glyph-name="I" unicode="I" horiz-adv-x="329" 
d="M286 0h-244c38 25 58 50 58 140v387c0 89 -20 116 -58 140h244c-34 -25 -56 -44 -56 -140v-387c0 -96 22 -115 56 -140z" />
    <glyph glyph-name="J" unicode="J" horiz-adv-x="579" 
d="M547 667c-41 -24 -58 -54 -58 -140v-253c0 -54 -4 -99 -8 -120c-20 -102 -107 -167 -232 -167c-114 0 -189 34 -214 34c-14 0 -17 -1 -28 -10v157c61 -49 137 -75 211 -75c123 0 141 76 141 180v254c0 95 -22 113 -51 136c-2 1 -3 3 -5 4h244z" />
    <glyph glyph-name="K" unicode="K" horiz-adv-x="864" 
d="M863 0h-270c11 7 21 16 21 29c0 15 -14 31 -28 48l-196 250l-160 -124v-63c0 -89 19 -115 57 -140h-245c39 25 58 51 58 140v387c0 88 -19 115 -58 140h245c-39 -25 -57 -52 -57 -140v-182l315 243c26 20 42 36 42 56c0 11 -6 18 -11 23h287c-81 -44 -160 -98 -238 -158
l-126 -98l200 -251c59 -75 119 -132 164 -160z" />
    <glyph glyph-name="L" unicode="L" horiz-adv-x="687" 
d="M683 157l-31 -91c-4 -13 -9 -30 -9 -42s8 -19 14 -24h-618c45 22 60 59 60 139v388c0 101 -24 116 -55 140h242c-35 -24 -57 -46 -57 -140v-421h239c86 0 143 4 215 51z" />
    <glyph glyph-name="M" unicode="M" horiz-adv-x="1078" 
d="M1037 0h-246c39 26 58 51 58 140v441l-221 -542c-1 -3 -5 -12 -5 -18c0 -8 3 -16 5 -21h-179c3 5 8 10 8 21c0 9 -9 27 -17 46l-218 504v-431c0 -87 20 -115 59 -140h-240c41 25 59 55 59 140v387c0 88 -19 115 -58 140h301c-6 -5 -15 -12 -15 -24c0 -8 8 -28 16 -46
l203 -465l187 455c8 19 15 40 15 48c0 17 -5 24 -15 32h303c-41 -25 -58 -55 -58 -140v-387c0 -87 18 -115 58 -140z" />
    <glyph glyph-name="N" unicode="N" horiz-adv-x="836" 
d="M794 667c-39 -24 -58 -53 -58 -140v-477c0 -29 6 -38 20 -50h-195c2 4 8 14 8 20c0 9 -9 22 -15 30l-337 447v-357c0 -95 23 -115 57 -140h-231c36 26 57 47 57 140v387c0 92 -21 115 -57 140h238c-4 -4 -11 -10 -11 -20c0 -13 11 -27 19 -38l330 -439v357
c0 98 -24 115 -56 140h231z" />
    <glyph glyph-name="O" unicode="O" horiz-adv-x="863" 
d="M824 336c0 -198 -136 -349 -394 -349c-231 0 -391 125 -391 355c0 51 16 111 41 158c63 117 187 180 364 180c232 0 380 -129 380 -344zM681 330c0 162 -86 244 -241 244c-162 0 -258 -91 -258 -231c0 -162 87 -250 248 -250c157 0 251 97 251 237z" />
    <glyph glyph-name="P" unicode="P" horiz-adv-x="755" 
d="M734 454c0 -46 -11 -85 -37 -121c-60 -82 -159 -96 -310 -96h-158v-97c0 -56 10 -99 27 -114c7 -7 19 -18 29 -26h-243c38 25 57 49 57 140v386c0 89 -19 116 -57 141h385c106 0 193 -7 254 -71c39 -40 53 -86 53 -142zM591 456c0 92 -69 105 -173 105h-189v-218h153
c133 0 209 12 209 113z" />
    <glyph glyph-name="Q" unicode="Q" horiz-adv-x="863" 
d="M832 -109c-47 -25 -90 -40 -133 -40c-45 0 -93 15 -141 46c-53 34 -90 64 -146 64c-69 0 -128 -29 -179 -90c-2 6 -5 12 -9 18l-43 59c-4 5 -13 9 -16 11c36 31 67 51 107 58c-140 29 -233 152 -233 325c0 51 16 111 41 158c63 117 187 180 364 180
c232 0 380 -129 380 -344c0 -152 -82 -283 -246 -331c53 -27 71 -48 115 -48c35 0 65 15 93 30c0 0 -1 -7 -1 -8c0 -5 1 -8 3 -13l27 -56c5 -10 13 -15 17 -19zM681 330c0 162 -86 244 -241 244c-162 0 -258 -91 -258 -231c0 -162 87 -250 248 -250c157 0 251 97 251 237z
" />
    <glyph glyph-name="R" unicode="R" horiz-adv-x="837" 
d="M825 0h-242c8 9 16 20 16 37c0 31 -15 63 -43 105c-58 89 -119 115 -212 115h-114v-117c0 -93 21 -114 57 -140h-246c43 25 59 57 59 140v388c0 81 -16 115 -59 139h364c167 0 266 -4 323 -83c25 -35 36 -73 36 -118c0 -31 -11 -71 -31 -100c-34 -50 -87 -72 -152 -88
c134 -63 131 -200 244 -278zM621 467c0 80 -65 94 -181 94h-210v-198h198c110 0 193 10 193 104z" />
    <glyph glyph-name="S" unicode="S" horiz-adv-x="701" 
d="M670 207c0 -134 -126 -220 -308 -220c-107 0 -184 18 -222 18c-23 0 -39 -1 -59 -15l-41 194c58 -39 179 -91 332 -91c89 0 155 43 155 105c0 114 -202 78 -364 136c-80 29 -115 70 -115 144c0 119 112 202 320 202c114 0 184 -19 238 -19c6 0 22 3 31 5l-25 -151
c-74 39 -153 59 -238 59c-116 0 -190 -32 -190 -83c0 -59 75 -64 227 -88c155 -24 259 -60 259 -196z" />
    <glyph glyph-name="T" unicode="T" horiz-adv-x="732" 
d="M727 497c-57 43 -131 64 -210 64h-87v-422c0 -98 24 -114 56 -139h-244c41 25 58 54 58 139v422h-80c-109 0 -170 -37 -214 -64l38 115c3 10 8 27 8 30c0 13 -1 16 -8 25h644c-3 -5 -10 -14 -10 -24c0 -8 6 -23 9 -32z" />
    <glyph glyph-name="U" unicode="U" horiz-adv-x="831" 
d="M801 667c-37 -24 -57 -49 -57 -140v-226c0 -15 1 -36 1 -50c0 -159 -116 -264 -338 -264c-86 0 -166 20 -215 51c-76 48 -102 121 -102 227v262c0 85 -17 116 -58 140h244c-29 -25 -56 -37 -56 -140v-229c0 -65 2 -114 42 -155c32 -33 87 -50 156 -50c63 0 115 15 150 45
c44 38 46 90 46 158v231c0 92 -21 115 -57 140h244z" />
    <glyph glyph-name="V" unicode="V" horiz-adv-x="840" 
d="M845 667c-41 -33 -69 -79 -109 -161l-220 -450c-4 -8 -11 -24 -11 -26c0 -16 2 -18 11 -30h-213c8 8 12 13 12 26c0 2 -8 17 -12 26l-230 491c-24 52 -49 95 -77 124h237c-15 -11 -32 -25 -32 -55c0 -20 9 -51 24 -83l192 -412l194 410c18 38 32 67 32 94
c0 20 -14 34 -31 46h233z" />
    <glyph glyph-name="W" unicode="W" horiz-adv-x="1108" 
d="M1103 667c-25 -41 -48 -99 -67 -160l-137 -451c-3 -10 -9 -24 -9 -30c0 -15 4 -18 9 -26h-207c4 6 8 12 8 23s-5 25 -7 33l-131 478l-149 -484c-3 -8 -7 -22 -7 -27c0 -9 0 -14 8 -23h-203c8 8 9 13 9 23c0 5 -5 21 -9 33l-140 472c-17 56 -36 102 -66 139h227
c-27 -19 -40 -45 -40 -64c0 -27 6 -54 13 -77l118 -415l149 492c5 15 10 34 10 40c0 12 -4 18 -8 24h190c-5 -5 -10 -13 -10 -25c0 -8 4 -26 8 -40l137 -495l115 398c11 38 18 72 18 87c0 40 -10 54 -33 75h204z" />
    <glyph glyph-name="X" unicode="X" horiz-adv-x="838" 
d="M841 0h-273c9 8 19 19 19 35c0 26 -19 47 -39 72l-126 152l-129 -153c-25 -29 -44 -55 -44 -72v-5c0 -11 1 -17 14 -29h-266c80 38 147 97 248 214l111 128l-117 147c-65 81 -158 158 -218 178h301c-16 -11 -19 -19 -19 -37c0 -13 12 -33 28 -53l112 -137l118 138
c17 20 30 41 30 57s-7 25 -16 32h240c-49 -31 -106 -80 -161 -144l-145 -168l179 -214c46 -56 93 -111 153 -141z" />
    <glyph glyph-name="Y" unicode="Y" horiz-adv-x="823" 
d="M834 667c-19 -15 -63 -44 -127 -132l-229 -316v-79c0 -97 24 -115 57 -140h-248c40 25 58 53 58 140v79l-217 308c-44 63 -83 111 -139 140h275c-16 -8 -26 -21 -26 -41s13 -41 33 -70l151 -218l168 235c17 23 26 41 26 61c0 10 -8 24 -25 33h243z" />
    <glyph glyph-name="Z" unicode="Z" horiz-adv-x="748" 
d="M728 151l-39 -112c-3 -9 -5 -15 -5 -20c0 -7 3 -12 10 -19h-670l450 561h-251c-95 0 -134 -17 -167 -49l30 90c4 12 10 30 10 38c0 15 -4 20 -14 27h635l-453 -561h274c83 0 127 7 190 45z" />
    <glyph glyph-name="bracketleft" unicode="[" horiz-adv-x="500" 
d="M423 -125h-383c15 11 26 24 26 51v696c0 24 -9 36 -25 46h382c-7 -4 -16 -11 -16 -23v-58c0 -13 9 -20 16 -25h-227v-581h227c-8 -5 -16 -11 -16 -25v-50c0 -15 9 -24 16 -31z" />
    <glyph glyph-name="backslash" unicode="\" horiz-adv-x="397" 
d="M457 -140h-118c3 3 8 7 8 15c0 10 -5 22 -8 28l-286 702c-14 35 -26 50 -48 62h121c-5 -4 -9 -9 -9 -18c0 -11 7 -26 11 -36l280 -683c15 -36 23 -55 49 -70z" />
    <glyph glyph-name="bracketright" unicode="]" horiz-adv-x="500" 
d="M460 -125h-383c7 7 16 15 16 31v50c0 14 -8 20 -16 25h227v581h-227c8 5 16 12 16 25v58c0 13 -9 19 -16 23h381c-16 -10 -24 -23 -24 -46v-696c0 -27 10 -40 26 -51z" />
    <glyph glyph-name="asciicircum" unicode="^" 
d="M575 363h-97l-129 233l-128 -233h-96l166 304h118z" />
    <glyph glyph-name="underscore" unicode="_" horiz-adv-x="500" 
d="M500 -126h-500v68h500v-68z" />
    <glyph glyph-name="quoteleft" unicode="&#x2018;" horiz-adv-x="307" 
d="M240 630c-49 -7 -68 -52 -68 -70c0 -12 9 -20 38 -34c16 -8 27 -27 27 -51c0 -42 -32 -72 -86 -72c-59 0 -93 35 -93 93c0 57 40 121 63 141c34 30 36 35 36 41v2z" />
    <glyph glyph-name="a" unicode="a" horiz-adv-x="680" 
d="M662 0h-82c-25 0 -53 0 -75 46c-35 -24 -83 -61 -224 -61c-153 0 -239 53 -239 141c0 29 7 50 26 72c69 82 210 87 424 95c-7 67 -37 103 -122 103c-81 0 -205 -30 -292 -67l47 143c14 -8 25 -9 36 -9h6c43 0 119 20 217 20c92 0 157 -27 193 -84c25 -39 26 -81 26 -158
v-108c0 -62 15 -106 59 -133zM494 214h-11c-204 0 -311 -24 -311 -87c0 -37 40 -55 117 -55c69 0 129 14 163 37c35 23 42 51 42 105z" />
    <glyph glyph-name="b" unicode="b" horiz-adv-x="697" 
d="M657 239c0 -167 -118 -254 -280 -254c-69 0 -125 11 -181 55c-18 -37 -32 -40 -59 -40h-100c42 32 47 64 47 113v442c0 45 -7 90 -47 112h172c-10 -7 -13 -22 -13 -33v-213c47 42 109 62 186 62c178 0 275 -89 275 -244zM534 231c0 112 -63 165 -159 165
c-97 0 -179 -59 -179 -164c0 -107 61 -164 177 -164c99 0 161 65 161 163z" />
    <glyph glyph-name="c" unicode="c" horiz-adv-x="573" 
d="M539 477l-33 -137c-28 38 -84 56 -141 56c-131 0 -203 -60 -203 -164c0 -111 61 -160 183 -160c84 0 135 21 175 59v-134c-10 4 -16 6 -26 6c-23 0 -87 -18 -175 -18c-174 0 -280 91 -280 244c0 147 115 254 325 254c56 0 104 -15 146 -15c13 0 23 5 29 9z" />
    <glyph glyph-name="d" unicode="d" 
d="M662 0h-102c-31 0 -45 10 -57 41c-52 -36 -128 -56 -207 -56c-153 0 -256 81 -256 237c0 171 99 261 292 261c77 0 126 -21 171 -50v121c0 48 -6 83 -47 113h173c-7 -7 -13 -17 -13 -30v-524c0 -49 4 -81 46 -113zM504 233c0 109 -67 163 -172 163
c-111 0 -169 -59 -169 -171c0 -96 54 -153 162 -153c117 0 179 70 179 161z" />
    <glyph glyph-name="e" unicode="e" horiz-adv-x="630" 
d="M592 246c0 -19 0 -41 -2 -64c-12 8 -25 8 -35 8l-11 -1h-389c7 -76 75 -117 183 -117c100 0 178 17 229 50v-134c-9 5 -22 6 -40 6c-42 0 -109 -9 -200 -9c-188 0 -288 83 -288 228c0 174 109 270 297 270c77 0 142 -22 189 -63c50 -43 67 -99 67 -174zM480 268
c-5 85 -59 128 -140 128c-103 0 -164 -43 -183 -128h323z" />
    <glyph glyph-name="f" unicode="f" horiz-adv-x="481" 
d="M487 677l-27 -111c-28 20 -65 29 -107 29c-84 0 -112 -37 -112 -107c0 -11 4 -25 9 -35h162c24 0 45 1 69 11l-35 -117c-12 12 -27 14 -58 14h-138v-248c0 -52 6 -81 47 -113h-206c42 32 47 63 47 113v248h-106c-14 0 -26 -5 -37 -13l37 122c10 -13 28 -17 54 -17h53
c0 14 -2 32 -2 42c0 128 81 187 196 187c61 0 97 -11 130 -11c10 0 19 4 24 6z" />
    <glyph glyph-name="g" unicode="g" horiz-adv-x="696" 
d="M658 447c-42 -32 -46 -64 -46 -113v-271c0 -105 -45 -178 -127 -208c-36 -13 -84 -19 -140 -19c-102 0 -181 15 -232 15c-10 0 -17 -3 -23 -8v131c56 -32 135 -51 225 -51c124 0 186 43 186 132c0 4 -1 16 -1 20c-52 -38 -108 -53 -193 -53c-183 0 -268 90 -268 205
c0 172 96 256 293 256c76 0 149 -24 185 -65c12 18 18 29 43 29h98zM500 251c0 97 -55 145 -165 145c-116 0 -173 -65 -173 -151c0 -91 56 -136 153 -136c123 0 185 45 185 142z" />
    <glyph glyph-name="h" unicode="h" horiz-adv-x="697" 
d="M666 0h-206c42 32 47 64 47 113v118v8c0 84 -2 156 -128 156c-86 0 -155 -44 -174 -95c-6 -17 -9 -46 -9 -76v-111c0 -51 7 -82 47 -113h-206c42 32 47 64 47 113v442c0 47 -5 82 -47 113h175c-13 -12 -16 -26 -16 -59v-191c55 43 124 64 205 64c70 0 125 -11 171 -54
s47 -89 47 -159v-1v-6v-149c0 -51 6 -82 47 -113z" />
    <glyph glyph-name="i" unicode="i" horiz-adv-x="281" 
d="M214 612c0 -42 -27 -66 -81 -66c-56 0 -86 21 -86 64c0 50 29 72 86 72c53 0 81 -24 81 -70zM243 0h-206c42 32 47 64 47 113v241c0 48 -5 82 -47 113h177c-16 -13 -18 -26 -18 -54v-300c0 -51 6 -82 47 -113z" />
    <glyph glyph-name="j" unicode="j" horiz-adv-x="285" 
d="M220 612c0 -42 -27 -66 -82 -66c-56 0 -86 21 -86 64c0 50 29 72 86 72c53 0 82 -24 82 -70zM219 467c-16 -15 -17 -25 -17 -46v-352c0 -62 -5 -108 -31 -145c-30 -42 -88 -68 -161 -68c-46 0 -78 6 -86 6c-7 0 -14 -3 -19 -5v102c28 -14 51 -16 79 -16
c94 0 106 52 106 148v263c0 45 -4 81 -47 113h176z" />
    <glyph glyph-name="k" unicode="k" horiz-adv-x="743" 
d="M752 0h-247c4 4 12 9 12 18c0 17 -15 34 -39 56l-167 154l-115 -70v-45c0 -51 6 -82 47 -113h-206c42 32 47 64 47 113v442c0 52 -6 82 -47 114h174c-14 -14 -15 -28 -15 -61v-341l220 134c28 17 44 29 44 44c0 12 -9 18 -15 22h280c-63 -28 -123 -63 -188 -103l-118 -72
l187 -174c88 -82 133 -108 146 -118z" />
    <glyph glyph-name="l" unicode="l" horiz-adv-x="281" 
d="M243 0h-206c42 32 47 64 47 113v442c0 46 -5 83 -47 113h178c-18 -12 -19 -27 -19 -61v-494c0 -50 5 -81 47 -113z" />
    <glyph glyph-name="m" unicode="m" horiz-adv-x="1069" 
d="M1039 0h-206c42 32 47 64 47 113v144c0 100 -27 139 -132 139c-37 0 -82 -12 -111 -34c-36 -27 -42 -63 -42 -112v-137c0 -51 5 -82 46 -113h-205c42 32 47 64 47 113v164c0 90 -40 119 -119 119c-41 0 -84 -10 -113 -30c-41 -28 -54 -64 -54 -117v-136
c0 -49 4 -81 46 -113h-207c43 28 49 68 49 113v241c0 44 -6 86 -49 113h95c21 0 37 0 53 13v-69c47 33 112 72 206 72c82 0 141 -24 180 -77c42 32 102 77 215 77c114 0 197 -64 203 -149c2 -21 4 -47 4 -71v-150c0 -51 6 -82 47 -113z" />
    <glyph glyph-name="n" unicode="n" horiz-adv-x="699" 
d="M668 0h-205c42 32 46 64 46 113v141c0 93 -21 142 -132 142c-165 0 -180 -100 -180 -193v-90c0 -51 6 -82 46 -113h-205c39 33 47 57 47 113v241c0 53 -7 80 -47 113h100c24 0 31 1 43 13v-68c41 23 95 71 220 71c131 0 220 -59 220 -184v-186c0 -49 5 -81 47 -113z" />
    <glyph glyph-name="o" unicode="o" horiz-adv-x="678" 
d="M639 237c0 -156 -106 -252 -308 -252c-82 0 -161 24 -209 61c-59 46 -83 107 -83 191c0 153 121 246 313 246c175 0 287 -86 287 -246zM516 228c0 111 -58 168 -169 168c-120 0 -185 -62 -185 -157c0 -105 64 -167 180 -167c118 0 174 68 174 156z" />
    <glyph glyph-name="p" unicode="p" horiz-adv-x="696" 
d="M656 229c0 -144 -102 -243 -281 -243c-81 0 -130 19 -179 49v-67c0 -51 6 -82 47 -113h-206c42 32 47 64 47 113v386c0 48 -5 82 -47 113h104c33 0 42 -17 56 -43c61 41 119 58 205 58c76 0 143 -23 185 -60c51 -46 69 -108 69 -193zM533 235c0 104 -56 160 -157 160
c-115 0 -180 -65 -180 -168c0 -101 62 -154 171 -154c106 0 166 60 166 162z" />
    <glyph glyph-name="q" unicode="q" horiz-adv-x="696" 
d="M658 -145h-206c42 32 47 64 47 114v76c-45 -41 -107 -60 -184 -60c-184 0 -276 86 -276 242c0 157 103 255 293 255c65 0 122 -19 167 -57c18 29 24 42 56 42h103c-42 -32 -46 -65 -46 -113v-385c0 -50 4 -82 46 -114zM500 239c0 100 -66 156 -173 156
c-102 0 -165 -64 -165 -160c0 -109 60 -163 155 -163c105 0 183 59 183 167z" />
    <glyph glyph-name="r" unicode="r" horiz-adv-x="508" 
d="M507 463l-37 -123c-34 33 -81 47 -128 47c-77 0 -146 -48 -146 -164v-110c0 -50 6 -81 47 -113h-206c42 32 47 64 47 113v241c0 47 -5 82 -47 113h94c31 0 36 0 51 13v-74c56 52 107 78 179 78s111 -27 135 -27c5 0 7 3 11 6z" />
    <glyph glyph-name="s" unicode="s" horiz-adv-x="627" 
d="M579 150c0 -119 -97 -168 -280 -168c-70 0 -130 15 -172 15c-22 0 -34 -5 -46 -19l-28 162c82 -49 185 -71 270 -71c92 0 137 27 137 67c0 51 -69 51 -212 62c-127 9 -198 43 -198 122c0 34 2 64 31 97c44 50 126 70 245 70c99 0 176 -21 219 -21c6 0 11 0 15 1l-40 -116
c-59 32 -127 49 -196 49c-105 0 -159 -18 -159 -57c0 -48 70 -48 211 -58c139 -10 203 -50 203 -135z" />
    <glyph glyph-name="t" unicode="t" horiz-adv-x="495" 
d="M472 471l-39 -124c-10 13 -15 13 -57 13h-134v-162c0 -82 17 -118 98 -118c48 0 84 20 110 55v-139c-8 5 -15 5 -21 5h-6c-24 0 -71 -12 -123 -12c-54 0 -108 22 -138 61c-34 44 -34 92 -34 141v2c0 16 2 25 2 41v126h-93c-27 0 -36 0 -53 -14l38 122
c14 -12 28 -14 49 -14c54 0 87 14 87 145c0 19 -3 31 -15 44h114c-13 -14 -15 -38 -15 -78v-109h164c30 0 48 6 66 15z" />
    <glyph glyph-name="u" unicode="u" horiz-adv-x="698" 
d="M661 0h-101c-33 0 -42 22 -49 49c-55 -42 -140 -65 -198 -65c-73 0 -133 11 -178 44c-54 39 -57 94 -57 159v167c0 48 -5 82 -47 113h173c-8 -8 -14 -18 -14 -32v-248c0 -74 26 -116 132 -116c74 0 131 24 159 62c20 27 21 54 21 81v140c0 47 -4 81 -47 113h177
c-18 -15 -18 -25 -18 -57v-297c0 -51 6 -82 47 -113z" />
    <glyph glyph-name="v" unicode="v" horiz-adv-x="651" 
d="M669 467c-24 -27 -55 -75 -92 -139l-166 -285c-4 -7 -10 -16 -10 -28c0 -6 6 -12 9 -15h-163c4 4 8 8 8 17c0 6 -8 21 -15 33l-92 171c-14 25 -30 49 -42 70c-46 79 -87 139 -118 176h202c-13 -10 -18 -23 -18 -40s9 -38 20 -58l143 -267l151 261c14 24 25 48 25 64
c0 21 -13 30 -25 40h183z" />
    <glyph glyph-name="w" unicode="w" horiz-adv-x="1021" 
d="M1033 467c-29 -23 -54 -65 -85 -129l-136 -281c-7 -14 -15 -30 -15 -41c0 -5 5 -13 7 -16h-165c3 2 9 9 9 15c0 5 -7 22 -13 36l-129 277l-126 -285c-3 -7 -9 -20 -9 -26c0 -7 6 -14 8 -17h-159c3 3 8 9 8 17c0 2 -5 15 -8 21l-150 301c-32 64 -55 107 -82 128h195
c-13 -11 -22 -21 -22 -41c0 -12 6 -29 12 -41l132 -266l129 290c8 18 15 35 15 46c0 5 -4 10 -6 12h139c-3 -3 -7 -7 -7 -14c0 -8 8 -24 13 -35l142 -301l128 268c6 12 13 28 13 47c0 18 -11 27 -24 35h186z" />
    <glyph glyph-name="x" unicode="x" horiz-adv-x="742" 
d="M737 0h-237c8 6 17 12 17 26s-14 30 -41 54l-112 99l-115 -99c-20 -17 -35 -36 -35 -49c0 -16 8 -22 20 -31h-240c34 19 72 51 118 90l180 155l-185 166c-32 29 -60 45 -81 56h261c-10 -6 -21 -15 -21 -30c0 -18 13 -35 33 -53l79 -71l108 93c14 12 28 26 28 37
c0 12 -8 19 -14 24h215c-51 -39 -91 -72 -122 -98l-144 -121l151 -136c57 -52 102 -91 137 -112z" />
    <glyph glyph-name="y" unicode="y" horiz-adv-x="639" 
d="M655 467c-51 -62 -87 -114 -116 -159l-201 -313c-28 -43 -45 -78 -45 -107c0 -16 7 -25 13 -33h-226c58 38 112 93 151 153l37 56l-175 261c-25 38 -57 89 -114 142h212c-10 -10 -16 -18 -16 -35c0 -19 12 -40 25 -60l134 -202l125 192c21 33 37 57 37 77
c0 14 -7 22 -15 28h174z" />
    <glyph glyph-name="z" unicode="z" horiz-adv-x="565" 
d="M555 129l-25 -84c-2 -6 -6 -19 -6 -28c0 -5 7 -14 9 -17h-521l313 371h-130c-109 0 -145 -20 -173 -34l28 76c3 7 7 19 7 30c0 10 -8 19 -12 24h488l-303 -375h187c65 0 108 12 138 37z" />
    <glyph glyph-name="braceleft" unicode="{" horiz-adv-x="500" 
d="M411 -125h-152h-9c-70 0 -116 1 -152 45c-25 31 -30 64 -30 104v149c0 61 -9 75 -49 98c43 24 49 41 49 98v149c0 41 6 74 30 104c34 43 77 45 137 45h24h152c-7 -7 -12 -11 -12 -23v-57c0 -14 4 -18 12 -26h-130c-73 0 -83 -21 -83 -80v-99c0 -61 -13 -86 -44 -111
c31 -25 44 -49 44 -110v-100c0 -59 10 -80 83 -80h130c-8 -8 -12 -11 -12 -25v-58c0 -13 5 -17 12 -23z" />
    <glyph glyph-name="bar" unicode="|" horiz-adv-x="218" 
d="M152 -168h-86v835h86v-835z" />
    <glyph glyph-name="braceright" unicode="}" horiz-adv-x="500" 
d="M481 270c-42 -23 -49 -40 -49 -98v-149c0 -41 -5 -73 -30 -104c-34 -42 -74 -44 -135 -44h-26h-152c7 6 12 11 12 23v57c0 14 -4 18 -12 26h130c73 0 83 20 83 79v100c0 61 14 86 44 110c-31 25 -44 50 -44 111v100c0 59 -10 79 -83 79h-130c7 7 12 12 12 26v58
c0 12 -5 16 -12 22h152h12c71 0 114 -1 149 -44c24 -30 30 -63 30 -104v-149c0 -59 7 -76 49 -99z" />
    <glyph glyph-name="asciitilde" unicode="~" 
d="M591 372c-35 -76 -76 -122 -141 -122c-62 0 -146 67 -202 67c-38 0 -59 -25 -84 -68l-55 43c36 81 80 122 141 122c69 0 146 -67 202 -67c36 0 59 25 84 69z" />
    <glyph glyph-name="exclamdown" unicode="&#xa1;" horiz-adv-x="335" 
d="M258 410c0 -46 -39 -75 -91 -75c-53 0 -88 28 -88 74c0 39 28 74 87 74s92 -25 92 -73zM250 -34c0 -110 -31 -177 -83 -177c-49 0 -78 72 -78 176c0 98 12 187 26 239c10 40 26 65 53 65c42 0 56 -57 71 -169c6 -47 11 -94 11 -134z" />
    <glyph glyph-name="cent" unicode="&#xa2;" 
d="M590 565l-44 -119c-40 35 -88 48 -143 53v-324c76 7 136 31 161 56v-132c-7 4 -17 9 -28 9c-22 0 -55 -16 -133 -28v-35c0 -32 1 -43 20 -56h-117c19 15 20 23 20 52v38c-26 4 -57 8 -90 22c-90 38 -135 114 -135 227c0 151 77 232 225 263v36c0 25 -1 35 -19 54h116
c-16 -13 -20 -23 -20 -55v-35c93 -3 140 -30 166 -30c5 0 17 3 21 4zM326 182v310c-74 -15 -110 -75 -110 -163c0 -81 36 -132 110 -147z" />
    <glyph glyph-name="sterling" unicode="&#xa3;" 
d="M681 170c0 -44 -14 -78 -46 -109c-57 -56 -136 -61 -245 -61h-364c92 76 140 161 140 245c0 28 -4 50 -6 65h-70c-53 0 -81 -11 -108 -23l49 68c31 44 51 51 90 51h12c-7 23 -11 48 -11 71c0 115 96 203 244 203c103 0 156 -30 211 -30c15 0 26 8 33 13v-177
c-69 56 -151 88 -227 88c-87 0 -131 -37 -131 -108c0 -9 5 -37 14 -60h172c58 0 80 13 96 21l-60 -80c-25 -34 -51 -37 -81 -37h-100c2 -11 3 -27 3 -41c0 -71 -21 -127 -67 -173h169c95 0 171 8 171 69c0 27 -10 44 -32 54l121 68s-3 -6 -3 -8c0 -42 26 -53 26 -109z" />
    <glyph glyph-name="fraction" unicode="&#x2044;" horiz-adv-x="399" 
d="M491 668c-25 -15 -38 -33 -56 -63l-332 -553c-6 -11 -16 -31 -16 -39c0 -5 4 -11 6 -13h-118c33 19 43 41 60 70l330 549c7 11 15 26 15 29c0 4 1 6 1 9s-1 6 -8 11h118z" />
    <glyph glyph-name="yen" unicode="&#xa5;" horiz-adv-x="657" 
d="M657 667c-49 -33 -66 -58 -105 -142l-59 -127h64c38 0 64 8 88 18l-28 -70c-12 -31 -25 -32 -68 -32h-8h-87l-30 -62h120c44 0 70 10 88 17l-28 -70c-12 -29 -22 -31 -61 -31h-15h-137v-45c0 -65 4 -93 50 -123h-212c46 31 50 57 50 121v47h-163c-30 0 -53 0 -92 -15
l21 57c15 40 25 42 63 42h11h123l-32 62h-97c-29 0 -49 0 -91 -15l21 57c15 40 25 42 63 42h11h51l-66 135c-34 70 -43 97 -102 134h202c-11 -10 -24 -24 -24 -45c0 -23 15 -56 36 -99l117 -246l115 244c19 41 34 75 34 99c0 20 -11 35 -24 47h201z" />
    <glyph glyph-name="florin" unicode="&#x192;" 
d="M684 728l-45 -108c-25 20 -61 29 -100 29c-97 0 -131 -52 -134 -141h163h11c29 0 46 1 67 15l-60 -121c-13 14 -32 14 -81 14h-112l-49 -295c-20 -118 -45 -255 -233 -255c-61 0 -108 13 -139 13c-9 0 -16 -1 -22 -4l46 107c22 -20 59 -29 96 -29c106 0 117 69 134 168
l51 295h-94c-19 0 -36 -3 -52 -14l60 121c9 -12 26 -15 65 -15h38c6 41 14 80 29 112c33 71 106 116 202 116c52 0 98 -13 134 -13c11 0 19 3 25 5z" />
    <glyph glyph-name="section" unicode="&#xa7;" horiz-adv-x="567" 
d="M512 270c0 -52 -33 -106 -96 -129c45 -29 77 -61 77 -130c0 -90 -80 -154 -184 -154c-146 0 -202 75 -247 75c-3 0 -15 -1 -18 -1l73 124c24 -64 128 -101 182 -101c57 0 82 27 82 54c0 47 -44 69 -155 125c-107 54 -166 76 -166 183c0 52 35 90 77 122
c-29 25 -46 54 -46 100c0 83 80 142 197 142c108 0 133 -43 184 -43h5l-63 -112c-23 39 -81 58 -123 58c-70 0 -88 -28 -88 -42c0 -27 20 -49 100 -81c53 -21 103 -45 152 -73c36 -20 57 -61 57 -117zM400 266c0 60 -129 106 -174 106c-37 0 -58 -28 -58 -57
c0 -34 21 -53 69 -78c34 -18 67 -30 102 -30c38 0 61 32 61 59z" />
    <glyph glyph-name="currency" unicode="&#xa4;" horiz-adv-x="607" 
d="M525 175l-38 -39l-66 66c-44 -28 -81 -39 -117 -39c-33 0 -72 8 -118 39l-66 -66l-39 39l67 63c-29 48 -38 86 -38 116c0 31 8 69 38 116l-67 64l39 39l66 -66c47 30 85 39 118 39s73 -10 117 -39l66 66l38 -39l-66 -64c31 -49 39 -87 39 -116c0 -30 -9 -67 -39 -116z
M443 355c0 80 -69 138 -139 138c-79 0 -140 -63 -140 -138c0 -76 63 -139 140 -139c76 0 139 63 139 139z" />
    <glyph glyph-name="quotesingle" unicode="'" horiz-adv-x="307" 
d="M231 667c-15 -12 -21 -29 -23 -51l-23 -209h-62l-25 210c-3 29 -10 38 -22 50h155z" />
    <glyph glyph-name="quotedblleft" unicode="&#x201c;" horiz-adv-x="530" 
d="M463 630c-49 -7 -68 -52 -68 -70c0 -12 9 -20 38 -34c16 -8 27 -27 27 -51c0 -42 -32 -72 -86 -72c-59 0 -93 35 -93 93c0 57 40 121 63 141c34 30 36 35 36 41v2zM240 630c-49 -7 -68 -52 -68 -70c0 -12 9 -20 38 -34c16 -8 27 -27 27 -51c0 -42 -32 -72 -86 -72
c-59 0 -93 35 -93 93c0 57 40 121 63 141c34 30 36 35 36 41v2z" />
    <glyph glyph-name="guillemotleft" unicode="&#xab;" horiz-adv-x="454" 
d="M389 73h-76l-84 174l84 174h76l-61 -174zM225 73h-76l-84 174l84 174h76l-61 -174z" />
    <glyph glyph-name="guilsinglleft" unicode="&#x2039;" horiz-adv-x="290" 
d="M225 73h-76l-84 174l84 174h76l-61 -174z" />
    <glyph glyph-name="guilsinglright" unicode="&#x203a;" horiz-adv-x="290" 
d="M225 247l-84 -174h-76l61 174l-61 174h76z" />
    <glyph glyph-name="endash" unicode="&#x2013;" horiz-adv-x="645" 
d="M622 321l-30 -74c-18 -44 -33 -56 -84 -56h-411c-37 0 -55 -6 -75 -19l24 62c20 52 40 57 85 57h380c60 0 75 2 111 30z" />
    <glyph glyph-name="dagger" unicode="&#x2020;" horiz-adv-x="493" 
d="M468 404c-12 13 -24 16 -45 19l-149 21l32 -178l-25 -361v-9c0 -16 3 -24 12 -34h-99c11 10 15 21 15 36v7l-25 361l33 178l-155 -21c-20 -3 -29 -11 -37 -19v139c8 -9 15 -17 32 -19l160 -21l-23 130c-4 21 -8 36 -23 47h148c-16 -12 -19 -23 -23 -47l-22 -130l155 21
c19 3 27 5 39 20v-140z" />
    <glyph glyph-name="daggerdbl" unicode="&#x2021;" horiz-adv-x="493" 
d="M468 -1c-12 12 -24 14 -38 16l-155 25l20 -122c5 -30 7 -41 23 -56h-146c15 13 17 25 23 56l22 122l-155 -26c-15 -3 -25 -3 -37 -15v139c13 -12 19 -14 43 -18l149 -23l-29 171l29 178l-150 -24c-23 -4 -32 -5 -42 -19v144c12 -13 20 -16 44 -20l148 -22l-29 143
c-3 15 -3 21 -15 32h145c-10 -9 -13 -16 -16 -32l-27 -143l158 22c17 2 28 12 35 20v-143c-10 13 -20 17 -35 19l-158 23l27 -178l-27 -171l155 24c18 3 28 9 38 17v-139z" />
    <glyph glyph-name="periodcentered" unicode="&#xb7;" 
d="M412 332c0 -34 -28 -62 -62 -62s-61 28 -61 62s26 62 61 62c34 0 62 -27 62 -62z" />
    <glyph glyph-name="paragraph" unicode="&#xb6;" 
d="M639 668c-40 -39 -42 -70 -42 -116v-20v-647h-66v721h-73v-721h-67v440h-98c-82 0 -144 0 -190 49c-31 33 -45 74 -45 124s21 102 58 132c45 37 99 38 171 38h9h343z" />
    <glyph glyph-name="bullet" unicode="&#x2022;" horiz-adv-x="500" 
d="M388 340c0 -77 -60 -140 -137 -140s-139 64 -139 140s61 140 138 140c76 0 138 -63 138 -140z" />
    <glyph glyph-name="quotesinglbase" unicode="&#x201a;" horiz-adv-x="307" 
d="M249 42c0 -57 -40 -121 -63 -141c-34 -30 -36 -35 -36 -41v-2l-83 50c49 7 68 52 68 70c0 12 -9 20 -38 34c-16 8 -27 27 -27 51c0 42 32 72 86 72c59 0 93 -35 93 -93z" />
    <glyph glyph-name="quotedblbase" unicode="&#x201e;" horiz-adv-x="530" 
d="M472 42c0 -57 -40 -121 -63 -141c-34 -30 -36 -35 -36 -41v-2l-83 50c49 7 68 52 68 70c0 12 -9 20 -38 34c-16 8 -27 27 -27 51c0 42 32 72 86 72c59 0 93 -35 93 -93zM249 42c0 -57 -40 -121 -63 -141c-34 -30 -36 -35 -36 -41v-2l-83 50c49 7 68 52 68 70
c0 12 -9 20 -38 34c-16 8 -27 27 -27 51c0 42 32 72 86 72c59 0 93 -35 93 -93z" />
    <glyph glyph-name="quotedblright" unicode="&#x201d;" horiz-adv-x="530" 
d="M472 587c0 -57 -40 -121 -63 -141c-34 -30 -36 -35 -36 -41v-2l-83 50c49 7 68 52 68 70c0 12 -9 20 -38 34c-16 8 -27 27 -27 51c0 42 32 72 86 72c59 0 93 -35 93 -93zM249 587c0 -57 -40 -121 -63 -141c-34 -30 -36 -35 -36 -41v-2l-83 50c49 7 68 52 68 70
c0 12 -9 20 -38 34c-16 8 -27 27 -27 51c0 42 32 72 86 72c59 0 93 -35 93 -93z" />
    <glyph glyph-name="guillemotright" unicode="&#xbb;" horiz-adv-x="454" 
d="M389 247l-84 -174h-76l61 174l-61 174h76zM225 247l-84 -174h-76l61 174l-61 174h76z" />
    <glyph glyph-name="ellipsis" unicode="&#x2026;" horiz-adv-x="920" 
d="M857 60c0 -46 -35 -73 -89 -73c-57 0 -90 26 -90 72c0 45 32 76 91 76c57 0 88 -30 88 -75zM550 60c0 -46 -34 -73 -89 -73c-57 0 -90 26 -90 72s32 76 91 76c57 0 88 -30 88 -75zM243 60c0 -45 -34 -73 -89 -73c-57 0 -90 26 -90 72s32 76 91 76c57 0 88 -31 88 -75z
" />
    <glyph glyph-name="perthousand" unicode="&#x2030;" horiz-adv-x="1557" 
d="M1527 188c0 -125 -79 -201 -231 -201c-130 0 -219 66 -219 201c0 123 91 197 235 197c132 0 215 -70 215 -197zM1032 188c0 -125 -79 -201 -231 -201c-129 0 -219 65 -219 201c0 123 91 197 235 197c132 0 215 -70 215 -197zM790 668c-26 -15 -38 -34 -56 -63l-332 -553
c-6 -10 -16 -31 -16 -39c0 -5 4 -11 6 -13h-118c33 19 42 40 60 70l330 549c6 11 15 26 15 29v7c0 5 -1 7 -7 13h118zM479 483c0 -125 -80 -201 -231 -201c-130 0 -219 66 -219 201c0 122 91 197 235 197c132 0 215 -70 215 -197zM1435 181c0 89 -44 135 -127 135
c-90 0 -139 -51 -139 -127c0 -85 48 -133 135 -133c88 0 131 54 131 125zM940 181c0 89 -44 135 -127 135c-89 0 -139 -50 -139 -127c0 -85 48 -133 135 -133c88 0 131 54 131 125zM387 476c0 89 -44 135 -127 135c-89 0 -139 -49 -139 -126c0 -85 48 -134 135 -134
c88 0 131 54 131 125z" />
    <glyph glyph-name="questiondown" unicode="&#xbf;" horiz-adv-x="643" 
d="M436 411c0 -42 -28 -76 -94 -76c-54 0 -85 29 -85 76c0 37 26 72 94 72c48 0 85 -27 85 -72zM611 -175c-9 10 -20 12 -33 12c-53 0 -137 -47 -266 -47c-195 0 -286 95 -286 219c0 132 119 215 286 221c109 4 128 1 139 21v-126c-17 12 -35 13 -56 13h-17
c-143 0 -213 -46 -213 -132c0 -75 53 -125 153 -125c104 0 220 50 293 109v-165z" />
    <glyph glyph-name="grave" unicode="`" horiz-adv-x="500" 
d="M321 564c0 -19 -14 -30 -29 -30c-39 0 -145 78 -145 136c0 18 18 37 42 37c50 0 132 -101 132 -143z" />
    <glyph glyph-name="acute" unicode="&#xb4;" horiz-adv-x="500" 
d="M366 670c0 -58 -105 -136 -144 -136c-15 0 -30 11 -30 30c0 42 83 143 133 143c23 0 41 -17 41 -37z" />
    <glyph glyph-name="circumflex" unicode="&#x2c6;" horiz-adv-x="500" 
d="M470 605l-40 -78c-5 11 -14 14 -21 18l-159 87l-160 -87c-7 -4 -15 -7 -20 -18l-40 78h8c5 0 14 3 17 5l195 96l195 -96c8 -4 14 -5 20 -5h5z" />
    <glyph glyph-name="tilde" unicode="&#x2dc;" horiz-adv-x="500" 
d="M478 636c-42 -25 -85 -94 -160 -94c-21 0 -49 11 -74 30c-43 32 -64 51 -88 51c-28 0 -71 -32 -81 -66l-52 52c29 17 73 86 138 86c21 0 43 -9 63 -24c49 -37 71 -57 98 -57c34 0 91 38 101 78z" />
    <glyph glyph-name="macron" unicode="&#xaf;" horiz-adv-x="500" 
d="M441 672l-27 -51c-10 -18 -23 -38 -63 -38h-224c-24 0 -43 -1 -67 -13l21 42c14 27 29 39 64 39h195c47 0 65 0 101 21z" />
    <glyph glyph-name="breve" unicode="&#x2d8;" horiz-adv-x="500" 
d="M458 701c-9 -6 -15 -13 -16 -29c-6 -81 -71 -136 -192 -136s-186 55 -192 136c-1 17 -8 23 -16 29h104c-6 -6 -9 -11 -9 -22c0 -46 39 -80 113 -80c75 0 114 34 114 80c0 11 -4 16 -10 22h104z" />
    <glyph glyph-name="dotaccent" unicode="&#x2d9;" horiz-adv-x="500" 
d="M318 617c0 -36 -30 -68 -69 -68c-36 0 -67 29 -67 68c0 35 29 68 68 68c37 0 68 -30 68 -68z" />
    <glyph glyph-name="dieresis" unicode="&#xa8;" horiz-adv-x="500" 
d="M425 618c0 -39 -32 -68 -68 -68c-38 0 -68 31 -68 67c0 38 30 69 68 69c37 0 68 -32 68 -68zM212 617c0 -36 -30 -68 -69 -68c-36 0 -67 29 -67 68c0 35 29 68 68 68c37 0 68 -30 68 -68z" />
    <glyph glyph-name="ring" unicode="&#x2da;" horiz-adv-x="500" 
d="M351 629c0 -56 -45 -100 -101 -100c-55 0 -100 44 -100 101c0 55 44 100 100 100s101 -45 101 -101zM292 629c0 23 -19 43 -42 43s-41 -20 -41 -43s19 -42 41 -42c23 0 42 19 42 42z" />
    <glyph glyph-name="cedilla" unicode="&#xb8;" horiz-adv-x="500" 
d="M394 -83c0 -49 -46 -88 -139 -88c-44 0 -81 4 -109 4c-12 0 -25 0 -38 -4l28 69c35 -9 79 -14 120 -14c33 0 53 8 53 28s-23 32 -60 32c-18 0 -40 -2 -59 -5l22 54c26 3 50 3 71 3c68 0 111 -29 111 -79z" />
    <glyph glyph-name="hungarumlaut" unicode="&#x2dd;" horiz-adv-x="500" 
d="M457 670c0 -58 -105 -136 -144 -136c-15 0 -30 11 -30 30c0 42 83 143 133 143c24 0 41 -18 41 -37zM275 670c0 -58 -105 -136 -144 -136c-15 0 -30 11 -30 30c0 42 83 143 133 143c23 0 41 -17 41 -37z" />
    <glyph glyph-name="ogonek" unicode="&#x2db;" horiz-adv-x="500" 
d="M503 -154c-4 1 -12 1 -14 1c-8 0 -45 -19 -82 -19c-50 0 -94 30 -94 92c0 39 38 62 68 80h82c-46 -24 -72 -43 -72 -70c0 -22 17 -33 44 -33c24 0 47 4 68 16v-67z" />
    <glyph glyph-name="caron" unicode="&#x2c7;" horiz-adv-x="500" 
d="M470 627c-3 0 -5 1 -8 1c-5 0 -14 -3 -17 -5l-195 -96l-195 96c-7 3 -13 5 -18 5c-3 0 -5 -1 -7 -1l40 79c5 -11 11 -13 20 -18l160 -87l159 87c9 5 16 7 21 18z" />
    <glyph glyph-name="emdash" unicode="&#x2014;" horiz-adv-x="973" 
d="M973 321l-30 -74c-18 -44 -34 -55 -85 -55h-783c-32 0 -51 -4 -75 -20l24 62c20 51 39 58 85 58h752c56 0 75 0 112 29z" />
    <glyph glyph-name="AE" unicode="&#xc6;" horiz-adv-x="1083" 
d="M1053 158l-42 -101c-3 -7 -9 -20 -9 -30s8 -21 13 -27h-541c36 30 37 67 37 120v19h-290l-12 -19c-17 -26 -30 -48 -30 -78c0 -24 12 -34 24 -42h-212c35 33 63 79 100 137l293 465c6 9 13 26 13 30c0 20 -4 24 -13 35h618c-11 -8 -15 -15 -15 -30c0 -6 6 -22 10 -34
l27 -80c-69 35 -124 38 -249 38h-134v-168h173c58 0 103 2 146 17l-43 -77c-22 -40 -44 -46 -107 -46h-169v-181h181c99 0 162 2 231 52zM511 239v358l-226 -358h226z" />
    <glyph glyph-name="ordfeminine" unicode="&#xaa;" horiz-adv-x="438" 
d="M432 389h-63c-25 0 -33 3 -48 25c-20 -13 -51 -34 -138 -34c-97 0 -152 32 -152 86c0 84 120 98 279 102c-4 37 -26 54 -72 54c-44 0 -118 -15 -186 -42l32 95c9 -5 16 -6 23 -6h6c26 0 73 11 134 11c135 0 139 -80 139 -135v-11v-64c0 -42 12 -63 46 -81zM312 515h-3
c-124 0 -190 -14 -190 -48c0 -20 25 -29 69 -29c117 0 124 45 124 77z" />
    <glyph glyph-name="Lslash" unicode="&#x141;" horiz-adv-x="687" 
d="M683 157l-31 -91c-4 -12 -9 -30 -9 -42s8 -19 14 -24h-618c45 22 60 60 60 139v143l-92 -59v83l92 60v161c0 95 -22 113 -51 136c-2 1 -2 3 -4 4h242c-35 -25 -57 -46 -57 -140v-98l160 102v-83l-160 -103v-239h239c86 0 143 4 215 51z" />
    <glyph glyph-name="Oslash" unicode="&#xd8;" horiz-adv-x="863" 
d="M824 336c0 -199 -137 -349 -394 -349c-59 0 -125 10 -185 33l-30 -39c-2 -3 -9 -12 -9 -18s1 -10 4 -14h-145c41 22 52 40 74 69l32 42c-88 63 -132 158 -132 282c0 51 16 111 41 158c63 117 187 180 364 180c57 0 116 -9 169 -28l33 42c4 5 6 9 6 15c0 9 -6 13 -10 16
h156c-35 -14 -50 -36 -80 -74l-29 -37c91 -66 135 -156 135 -278zM681 330c0 81 -18 139 -63 183l-308 -399c41 -16 79 -21 120 -21c157 0 251 97 251 237zM550 556c-33 11 -68 18 -110 18c-162 0 -258 -91 -258 -231c0 -77 18 -136 61 -183z" />
    <glyph glyph-name="OE" unicode="&#x152;" horiz-adv-x="1093" 
d="M1063 162l-43 -122c-2 -6 -3 -10 -3 -17c0 -9 6 -18 9 -23h-495c5 8 10 17 10 34v22c-43 -37 -96 -69 -196 -69c-190 0 -306 114 -306 339c0 237 123 354 317 354c77 0 138 -21 185 -66v18c0 16 -4 25 -14 35h478c-3 -3 -9 -10 -9 -18c0 -9 5 -24 9 -35l32 -97
c-52 38 -129 44 -235 44h-144v-169h171c83 0 123 4 149 21l-63 -90c-23 -33 -41 -37 -86 -37h-171v-180h212c91 0 142 13 193 56zM535 337c0 162 -69 237 -176 237c-111 0 -177 -89 -177 -239c0 -60 7 -111 20 -142c25 -62 81 -100 152 -100c121 0 181 82 181 244z" />
    <glyph glyph-name="ordmasculine" unicode="&#xba;" horiz-adv-x="437" 
d="M409 532c0 -94 -68 -152 -196 -152c-109 0 -185 50 -185 152c0 92 76 148 198 148c111 0 183 -52 183 -148zM324 527c0 64 -34 95 -101 95c-71 0 -110 -34 -110 -89c0 -61 37 -95 107 -95c71 0 104 38 104 89z" />
    <glyph glyph-name="ae" unicode="&#xe6;" horiz-adv-x="1103" 
d="M1065 182c-12 4 -25 6 -38 6h-416c8 -98 126 -116 204 -116c69 0 160 13 219 50v-122c-8 2 -17 4 -25 4c-28 0 -57 -6 -84 -9c-45 -6 -90 -10 -135 -10c-98 0 -176 20 -247 90c-60 -74 -174 -90 -264 -90c-85 0 -237 18 -237 132c0 186 323 171 450 173
c-5 74 -47 106 -119 106c-94 0 -214 -28 -297 -72l48 148c14 -8 30 -13 47 -13c27 0 55 6 81 11c43 7 86 13 130 13c85 0 137 -19 194 -82c59 57 142 82 223 82c56 0 121 -17 168 -49c94 -66 93 -148 98 -252zM949 267c-6 87 -62 129 -146 129s-176 -35 -190 -129h336z
M495 213c-71 0 -256 5 -309 -49c-11 -11 -21 -23 -21 -40c0 -53 90 -52 125 -52c95 0 203 27 205 141z" />
    <glyph glyph-name="dotlessi" unicode="&#x131;" horiz-adv-x="281" 
d="M243 0h-206c42 32 47 64 47 113v241c0 48 -5 82 -47 113h177c-16 -13 -18 -26 -18 -54v-300c0 -51 6 -82 47 -113z" />
    <glyph glyph-name="lslash" unicode="&#x142;" horiz-adv-x="281" 
d="M270 389l-74 -46v-230c0 -49 5 -81 47 -113h-206c42 32 47 64 47 113v171l-69 -44v75l69 44v196c0 46 -4 83 -47 113h178c-18 -12 -19 -27 -19 -61v-189l74 47v-76z" />
    <glyph glyph-name="oslash" unicode="&#xf8;" horiz-adv-x="678" 
d="M639 237c0 -156 -105 -252 -308 -252c-35 0 -75 6 -113 16l-25 -32c-1 -2 -7 -8 -7 -13c0 -8 3 -10 8 -13h-131c24 12 37 28 64 64l18 24c-74 45 -106 109 -106 206c0 153 120 246 313 246c40 0 78 -5 115 -15l19 26c3 4 4 8 4 14s-6 12 -9 14h135
c-15 -10 -34 -24 -54 -51l-25 -34c72 -46 102 -110 102 -200zM516 228c0 50 -10 87 -38 120l-208 -267c21 -6 49 -9 72 -9c118 0 174 67 174 156zM413 388c-21 5 -44 8 -66 8c-120 0 -185 -61 -185 -157c0 -50 12 -88 43 -120z" />
    <glyph glyph-name="oe" unicode="&#x153;" horiz-adv-x="1094" 
d="M1056 180c-13 7 -21 8 -28 8h-10h-411c12 -73 63 -116 184 -116c79 0 165 17 238 50v-126c-6 3 -14 8 -25 8c-56 0 -133 -19 -241 -19c-106 0 -178 29 -233 80c-40 -54 -111 -80 -217 -80c-124 0 -210 44 -251 124c-20 40 -23 77 -23 117c0 156 99 257 295 257
c95 0 168 -30 206 -84c60 51 121 84 246 84c93 0 167 -28 216 -80c54 -57 54 -122 54 -212v-2v-9zM947 267c-6 85 -56 129 -156 129c-123 0 -180 -54 -183 -129h339zM487 224c0 115 -52 172 -160 172c-107 0 -165 -62 -165 -174c0 -97 57 -150 156 -150
c108 0 169 62 169 152z" />
    <glyph glyph-name="germandbls" unicode="&#xdf;" horiz-adv-x="632" 
d="M581 199c0 -112 -67 -214 -187 -214c-27 0 -54 2 -81 5c-12 2 -26 6 -39 6c-11 0 -21 -4 -29 -11v131c37 -27 70 -44 117 -44c70 0 96 53 96 116c0 106 -74 117 -160 117c-21 0 -36 1 -53 -14v127c15 -21 26 -22 51 -22c75 0 135 10 135 101c0 62 -38 106 -102 106
c-147 0 -139 -151 -139 -259v-426c0 -20 -2 -41 15 -56h-146c17 17 19 32 19 56v434c0 53 0 112 13 164c29 122 119 174 240 174c114 0 223 -65 223 -189c0 -69 -36 -113 -96 -143c80 -16 123 -80 123 -159z" />
    <glyph glyph-name="onesuperior" unicode="&#xb9;" horiz-adv-x="451" 
d="M331 267h-165c33 26 41 41 41 94v192c-22 -14 -44 -24 -71 -24h-16c-5 0 -12 -4 -14 -5v86c9 -12 15 -18 31 -18c45 0 88 30 88 60c0 8 -9 13 -13 15h97c-9 -5 -18 -10 -18 -34v-279c0 -54 20 -69 40 -87z" />
    <glyph glyph-name="logicalnot" unicode="&#xac;" 
d="M601 210h-102v153h-400v92h502v-245z" />
    <glyph glyph-name="mu" unicode="&#xb5;" horiz-adv-x="698" 
d="M661 0h-101c-33 0 -42 22 -49 49c-54 -42 -139 -65 -198 -65c-57 0 -112 15 -143 44v-100c0 -29 1 -52 20 -73h-132c14 16 20 38 20 60v439c0 48 -5 82 -47 113h173c-8 -8 -14 -18 -14 -32v-248c0 -74 26 -116 132 -116c74 0 131 24 159 62c20 27 21 54 21 81v140
c0 47 -4 81 -47 113h177c-18 -15 -18 -25 -18 -57v-297c0 -51 6 -82 47 -113z" />
    <glyph glyph-name="trademark" unicode="&#x2122;" horiz-adv-x="1161" 
d="M1133 667c-30 -16 -45 -28 -45 -86v-229c0 -58 14 -69 44 -85h-176c28 17 43 26 43 85v241l-124 -291c-2 -6 -8 -17 -8 -20c0 -5 4 -13 6 -15h-125c2 3 7 8 7 15c0 5 -5 18 -9 26l-126 280v-236c0 -59 15 -69 44 -85h-174c30 16 45 27 45 85v229c0 58 -14 69 -44 86h209
c-5 -3 -16 -10 -16 -17c0 -5 7 -19 10 -26l107 -234c5 -12 11 -28 15 -39c4 12 10 29 14 39l98 228c3 8 9 22 9 27c0 11 -7 16 -15 22h211zM466 553c-30 22 -71 46 -138 46h-50v-247c0 -60 15 -66 41 -85h-175c29 16 45 26 45 85v247h-45c-73 0 -111 -27 -140 -44l27 78
c1 3 5 14 5 16c0 9 -5 13 -9 18h414c-3 -3 -9 -11 -9 -17c0 -4 4 -14 5 -18z" />
    <glyph glyph-name="Eth" unicode="&#xd0;" horiz-adv-x="841" 
d="M803 344c0 -99 -29 -177 -91 -238c-78 -77 -178 -106 -323 -106h-345c36 25 57 45 57 138v161h-72v77h72v150c0 93 -21 116 -57 141h357c88 0 165 -8 238 -46c105 -54 164 -152 164 -277zM660 340c0 171 -99 221 -271 221h-158v-185h205v-77h-205v-193h159
c90 0 156 13 202 54c42 37 68 103 68 180z" />
    <glyph glyph-name="onehalf" unicode="&#xbd;" horiz-adv-x="975" 
d="M964 0h-405c15 9 19 13 20 44c1 51 40 106 130 148c80 37 141 62 141 99s-29 54 -77 54c-55 0 -143 -26 -180 -55v109c14 -9 22 -10 35 -10c31 0 88 19 159 19c86 0 148 -36 148 -108c0 -62 -38 -98 -112 -131c-106 -47 -140 -63 -147 -107h190c31 0 58 13 77 40v-70
c0 -19 4 -19 21 -32zM734 668c-25 -15 -38 -33 -56 -63l-332 -553c-6 -10 -16 -31 -16 -39c0 -5 4 -11 6 -13h-118c32 18 42 40 60 70l330 549c6 10 15 26 15 29v8c0 4 -1 7 -7 12h118zM328 267h-159c32 26 40 42 40 94v192c-32 -20 -54 -24 -70 -24c-7 0 -13 1 -17 1
c-5 0 -11 -3 -13 -4v83c6 -8 13 -16 26 -16c45 0 90 23 90 63c0 3 -9 11 -11 12h92c-8 -5 -16 -12 -16 -35v-279c0 -53 18 -69 38 -87z" />
    <glyph glyph-name="plusminus" unicode="&#xb1;" 
d="M601 307h-208v-164h-86v164h-208v84h208v202h86v-202h208v-84zM601 12h-502v84h502v-84z" />
    <glyph glyph-name="Thorn" unicode="&#xde;" horiz-adv-x="755" 
d="M734 361c0 -46 -11 -85 -37 -121c-60 -82 -159 -97 -310 -97h-158v-3c0 -56 10 -99 27 -114c7 -7 19 -18 29 -26h-243c38 25 57 49 57 140v386c0 89 -19 116 -57 141h241c-26 -19 -50 -37 -54 -93h198c105 0 192 -7 254 -71c39 -40 53 -86 53 -142zM591 362
c0 92 -68 106 -173 106h-189v-219h153c133 0 209 12 209 113z" />
    <glyph glyph-name="onequarter" unicode="&#xbc;" horiz-adv-x="976" 
d="M960 177l-17 -49c-8 -22 -18 -30 -37 -30h-9v-30c0 -42 17 -56 31 -68h-138c16 15 30 26 30 68v30h-262c1 3 2 4 2 7s0 3 -1 6l-11 45c-2 7 -4 11 -8 15l218 204c3 3 13 11 13 15s-8 9 -10 10h152c-15 -13 -16 -16 -16 -41v-199h12c10 0 25 1 33 6c4 3 14 8 18 11z
M748 668c-25 -15 -39 -34 -57 -63l-332 -553c-6 -11 -16 -31 -16 -39c0 -5 4 -11 6 -13h-117c32 18 41 41 59 70l330 549c6 11 16 27 16 29v4c0 6 -1 9 -8 16h119zM328 267h-159c32 26 40 42 40 94v192c-32 -20 -54 -24 -70 -24c-7 0 -13 1 -17 1c-5 0 -11 -3 -13 -4v83
c6 -8 13 -16 26 -16c45 0 90 23 90 63c0 3 -9 11 -11 12h92c-8 -5 -16 -12 -16 -35v-279c0 -53 18 -69 38 -87zM820 160v184l-199 -184h199z" />
    <glyph glyph-name="divide" unicode="&#xf7;" 
d="M412 500c0 -34 -28 -62 -62 -62s-61 28 -61 62s26 62 61 62c34 0 62 -28 62 -62zM601 291h-502v84h502v-84zM412 164c0 -34 -28 -62 -62 -62s-61 28 -61 62s27 62 61 62s62 -28 62 -62z" />
    <glyph glyph-name="brokenbar" unicode="&#xa6;" horiz-adv-x="218" 
d="M152 350h-86v318h86v-318zM152 -125h-86v317h86v-317z" />
    <glyph glyph-name="degree" unicode="&#xb0;" horiz-adv-x="500" 
d="M402 526c0 -84 -66 -152 -153 -152c-79 0 -151 65 -151 152s70 152 152 152c84 0 152 -68 152 -152zM350 525c0 56 -46 102 -100 102c-57 0 -100 -49 -100 -102s43 -100 100 -100c54 0 100 45 100 100z" />
    <glyph glyph-name="thorn" unicode="&#xfe;" horiz-adv-x="696" 
d="M656 229c0 -144 -102 -243 -281 -243c-81 0 -130 19 -179 49v-67c0 -51 6 -82 47 -113h-206c42 32 47 64 47 113v585c0 52 -6 82 -47 114h174c-13 -14 -15 -27 -15 -61v-182c62 41 122 58 206 58c76 0 143 -23 185 -60c51 -46 69 -108 69 -193zM533 235
c0 104 -56 160 -157 160c-115 0 -180 -65 -180 -168c0 -101 62 -154 171 -154c106 0 166 60 166 162z" />
    <glyph glyph-name="threequarters" unicode="&#xbe;" horiz-adv-x="976" 
d="M960 177l-17 -49c-8 -22 -18 -30 -37 -30h-9v-30c0 -41 17 -55 31 -68h-138c17 16 30 26 30 68v30h-262c1 3 2 4 2 7s0 3 -1 6l-11 45c-2 7 -4 11 -8 15l218 204c3 3 13 11 13 15s-8 9 -10 10h153c-15 -13 -17 -16 -17 -41v-199h12c10 0 25 1 33 6c4 3 14 8 18 11z
M748 668c-25 -15 -38 -33 -56 -63l-333 -553c-6 -11 -16 -31 -16 -39c0 -5 5 -11 7 -13h-118c32 18 42 41 60 70l329 549c6 11 16 26 16 29v7c0 4 -1 7 -7 13h118zM407 393c0 -76 -79 -134 -197 -134c-72 0 -112 12 -140 12c-13 0 -24 -3 -33 -11v102
c50 -27 102 -40 155 -40c69 0 130 26 130 70s-46 55 -123 55h-26c-61 0 -64 -2 -75 -15v90c8 -12 13 -13 26 -13h6h49c71 0 115 14 115 54c0 37 -29 49 -79 49c-48 0 -109 -14 -154 -38v99c5 -5 12 -10 23 -10c40 0 91 12 146 12c98 0 149 -38 149 -101
c0 -44 -27 -68 -58 -86c31 -9 86 -22 86 -95zM820 160v184l-199 -184h199z" />
    <glyph glyph-name="twosuperior" unicode="&#xb2;" horiz-adv-x="451" 
d="M434 268h-415c22 13 20 16 22 43c4 61 50 111 132 148c93 41 144 63 144 102c0 31 -30 51 -83 51c-47 0 -139 -26 -179 -57v111c12 -8 18 -10 35 -10c31 0 91 19 162 19c89 0 150 -37 150 -109c0 -54 -32 -95 -89 -120c-132 -59 -167 -73 -173 -116h164c48 0 79 2 108 41
v-72c0 -19 3 -17 22 -31z" />
    <glyph glyph-name="registered" unicode="&#xae;" horiz-adv-x="478" 
d="M446 491c0 -116 -93 -208 -206 -208c-116 0 -208 94 -208 208s92 207 208 207c113 0 206 -92 206 -207zM412 491c0 98 -78 176 -172 176c-97 0 -174 -80 -174 -176c0 -98 78 -177 174 -177c93 0 172 77 172 177zM353 383h-65c2 2 6 6 6 13c0 16 -20 77 -74 77h-28v-45
c0 -28 4 -35 16 -45h-69c13 11 16 21 16 45v135c0 28 -4 37 -16 46h103c51 0 95 -5 95 -66c0 -32 -17 -55 -50 -63c37 -25 38 -72 66 -97zM298 542c0 32 -23 34 -49 34h-57v-70h55c32 0 51 12 51 36z" />
    <glyph glyph-name="minus" unicode="&#x2212;" 
d="M601 291h-502v84h502v-84z" />
    <glyph glyph-name="eth" unicode="&#xf0;" horiz-adv-x="678" 
d="M639 246c0 -170 -106 -261 -308 -261c-82 0 -161 24 -209 61c-59 46 -83 107 -83 191c0 153 121 246 313 246c12 0 29 -1 41 -2c-30 25 -65 49 -96 77l-12 11l-69 -64l-33 32l63 59l-22 16c-20 14 -37 17 -59 17h-13l99 85c2 -19 7 -26 30 -42l25 -18l63 59l33 -33
l-57 -53l26 -20c152 -117 268 -191 268 -361zM516 228c0 111 -58 168 -169 168c-120 0 -185 -62 -185 -157c0 -105 64 -167 180 -167c118 0 174 68 174 156z" />
    <glyph glyph-name="multiply" unicode="&#xd7;" 
d="M566 177l-60 -59l-155 156l-156 -158l-61 61l157 156l-155 155l59 59l155 -155l156 157l60 -61l-157 -156z" />
    <glyph glyph-name="threesuperior" unicode="&#xb3;" horiz-adv-x="451" 
d="M412 393c0 -75 -75 -133 -204 -133c-68 0 -108 11 -136 11c-15 0 -26 -3 -36 -12v104c45 -24 96 -40 158 -40c69 0 133 24 133 72c0 38 -47 52 -125 52h-64c-23 0 -29 -3 -40 -17v94c11 -15 16 -15 33 -15h55c73 0 112 18 112 54c0 35 -30 49 -81 49
c-44 0 -106 -13 -157 -39v101c8 -6 14 -11 28 -11c35 0 88 12 145 12c100 0 150 -39 150 -102c0 -42 -23 -66 -56 -85c56 -13 85 -42 85 -95z" />
    <glyph glyph-name="copyright" unicode="&#xa9;" horiz-adv-x="777" 
d="M734 334c0 -194 -157 -347 -344 -347c-193 0 -347 157 -347 347c0 191 154 346 347 346c189 0 344 -155 344 -346zM682 334c0 164 -129 299 -292 299c-165 0 -295 -134 -295 -299s131 -300 295 -300c159 0 292 133 292 300zM540 524l-26 -80c-31 23 -69 33 -110 33
c-89 0 -135 -61 -135 -136c0 -91 44 -139 126 -139c57 0 97 19 134 38v-91c-11 7 -17 8 -26 8c-20 0 -60 -13 -98 -13c-132 0 -207 76 -207 193c0 92 51 161 144 187c39 11 69 11 91 11c33 0 63 -13 91 -13c6 0 11 1 16 2z" />
    <glyph glyph-name="Aacute" unicode="&#xc1;" horiz-adv-x="854" 
d="M547 874c0 -60 -110 -142 -151 -142c-16 0 -32 12 -32 31c0 44 88 150 140 150c25 0 43 -19 43 -39zM856 0h-220c16 15 24 25 24 51c0 14 -7 40 -16 59l-17 38h-407l-13 -25c-9 -18 -17 -46 -17 -67c0 -29 18 -44 36 -56h-228c60 69 86 131 107 175l201 426
c5 10 12 24 12 32c0 17 0 23 -13 34h249c-8 -7 -14 -13 -14 -28c0 -12 8 -28 14 -40l195 -423c23 -51 49 -115 107 -176zM580 254l-155 326l-157 -326h312z" />
    <glyph glyph-name="Acircumflex" unicode="&#xc2;" horiz-adv-x="854" 
d="M647 807l-40 -82c-5 11 -11 13 -20 18l-160 92l-159 -92c-8 -5 -16 -7 -21 -18l-40 82c3 0 6 -1 9 -1c5 0 13 3 16 5l195 101l195 -101c7 -4 13 -5 18 -5c2 0 5 1 7 1zM856 0h-220c16 15 24 25 24 51c0 14 -7 40 -16 59l-17 38h-407l-13 -25c-9 -18 -17 -46 -17 -67
c0 -29 18 -44 36 -56h-228c60 69 86 131 107 175l201 426c5 10 12 24 12 32c0 17 0 23 -13 34h249c-8 -7 -14 -13 -14 -28c0 -12 8 -28 14 -40l195 -423c23 -51 49 -115 107 -176zM580 254l-155 326l-157 -326h312z" />
    <glyph glyph-name="Adieresis" unicode="&#xc4;" horiz-adv-x="854" 
d="M607 820c0 -40 -32 -72 -70 -72c-40 0 -70 33 -70 71c0 39 31 71 71 71c38 0 69 -31 69 -70zM390 819c0 -38 -32 -71 -73 -71c-38 0 -70 31 -70 71c0 37 30 71 71 71c39 0 72 -30 72 -71zM856 0h-220c16 15 24 25 24 51c0 14 -7 40 -16 59l-17 38h-407l-13 -25
c-9 -18 -17 -46 -17 -67c0 -29 18 -44 36 -56h-228c60 69 86 131 107 175l201 426c5 10 12 24 12 32c0 17 0 23 -13 34h249c-8 -7 -14 -13 -14 -28c0 -12 8 -28 14 -40l195 -423c23 -51 49 -115 107 -176zM580 254l-155 326l-157 -326h312z" />
    <glyph glyph-name="Agrave" unicode="&#xc0;" horiz-adv-x="854" 
d="M490 763c0 -18 -14 -31 -31 -31c-41 0 -152 82 -152 142c0 19 17 39 43 39c52 0 140 -106 140 -150zM856 0h-220c16 15 24 25 24 51c0 14 -7 40 -16 59l-17 38h-407l-13 -25c-9 -18 -17 -46 -17 -67c0 -29 18 -44 36 -56h-228c60 69 86 131 107 175l201 426
c5 10 12 24 12 32c0 17 0 23 -13 34h249c-8 -7 -14 -13 -14 -28c0 -12 8 -28 14 -40l195 -423c23 -51 49 -115 107 -176zM580 254l-155 326l-157 -326h312z" />
    <glyph glyph-name="Aring" unicode="&#xc5;" horiz-adv-x="854" 
d="M528 826c0 -56 -45 -100 -101 -100s-100 43 -100 100c0 55 44 100 100 100s101 -44 101 -100zM856 0h-220c16 15 24 25 24 51c0 14 -7 40 -16 59l-17 38h-407l-13 -25c-9 -18 -17 -46 -17 -67c0 -29 18 -44 36 -56h-228c60 69 86 131 107 175l201 426c5 10 12 24 12 32
c0 17 0 23 -13 34h249c-8 -7 -14 -13 -14 -28c0 -12 8 -28 14 -40l195 -423c23 -51 49 -115 107 -176zM469 826c0 23 -19 42 -42 42s-41 -19 -41 -42s19 -42 41 -42c24 0 42 20 42 42zM580 254l-155 326l-157 -326h312z" />
    <glyph glyph-name="Atilde" unicode="&#xc3;" horiz-adv-x="854" 
d="M655 838c-43 -27 -85 -98 -160 -98c-21 0 -49 11 -74 31c-44 34 -63 53 -88 53c-28 0 -71 -33 -81 -68l-52 54c29 19 73 90 138 90c21 0 43 -9 63 -25c50 -40 71 -59 98 -59c34 0 91 40 101 81zM856 0h-220c16 15 24 25 24 51c0 14 -7 40 -16 59l-17 38h-407l-13 -25
c-9 -18 -17 -46 -17 -67c0 -29 18 -44 36 -56h-228c60 69 86 131 107 175l201 426c5 10 12 24 12 32c0 17 0 23 -13 34h249c-8 -7 -14 -13 -14 -28c0 -12 8 -28 14 -40l195 -423c23 -51 49 -115 107 -176zM580 254l-155 326l-157 -326h312z" />
    <glyph glyph-name="Ccedilla" unicode="&#xc7;" horiz-adv-x="746" 
d="M714 662l-57 -163c-39 45 -129 76 -221 76c-153 0 -254 -96 -254 -249c0 -146 88 -233 255 -233c83 0 180 31 247 71v-159c-5 8 -9 10 -21 10c-39 0 -108 -21 -210 -27c62 -7 95 -32 95 -78c0 -61 -49 -103 -165 -103c-40 0 -75 4 -103 4h-14c-7 0 -17 0 -28 -2l32 77
c34 -11 74 -16 114 -16c41 0 72 5 72 29c0 28 -37 34 -87 34c-9 0 -31 -3 -44 -7l27 63c-201 23 -313 140 -313 333c0 214 151 359 380 359c110 0 203 -26 258 -26c17 0 28 3 37 7z" />
    <glyph glyph-name="Eacute" unicode="&#xc9;" horiz-adv-x="808" 
d="M524 874c0 -60 -110 -142 -151 -142c-16 0 -32 12 -32 31c0 44 88 150 140 150c25 0 43 -19 43 -39zM778 162l-43 -110c-3 -7 -7 -20 -7 -25c0 -15 9 -21 16 -27h-706c46 19 62 59 62 137v390c0 80 -17 121 -62 140h685c-8 -7 -9 -13 -9 -18v-6c0 -3 5 -19 9 -31l32 -107
c-50 42 -92 56 -209 56h-316v-163h301c41 0 73 0 107 16l-47 -78c-21 -34 -25 -44 -115 -44h-246v-186h269c107 0 192 5 279 56z" />
    <glyph glyph-name="Ecircumflex" unicode="&#xca;" horiz-adv-x="808" 
d="M624 807l-40 -82c-5 11 -13 13 -21 18l-159 92l-159 -92c-9 -5 -16 -7 -21 -18l-40 82c3 0 5 -1 8 -1c5 0 14 3 17 5l195 101l195 -101c7 -4 13 -5 18 -5c2 0 5 1 7 1zM778 162l-43 -110c-3 -7 -7 -20 -7 -25c0 -15 9 -21 16 -27h-706c46 19 62 59 62 137v390
c0 80 -17 121 -62 140h685c-8 -7 -9 -13 -9 -18v-6c0 -3 5 -19 9 -31l32 -107c-50 42 -92 56 -209 56h-316v-163h301c41 0 73 0 107 16l-47 -78c-21 -34 -25 -44 -115 -44h-246v-186h269c107 0 192 5 279 56z" />
    <glyph glyph-name="Edieresis" unicode="&#xcb;" horiz-adv-x="808" 
d="M585 820c0 -40 -32 -72 -71 -72c-40 0 -72 33 -72 71c0 39 33 71 73 71c38 0 70 -32 70 -70zM366 819c0 -38 -31 -71 -72 -71c-38 0 -71 31 -71 71c0 37 31 71 72 71c39 0 71 -31 71 -71zM778 162l-43 -110c-3 -7 -7 -20 -7 -25c0 -15 9 -21 16 -27h-706
c46 19 62 59 62 137v390c0 80 -17 121 -62 140h685c-8 -7 -9 -13 -9 -18v-6c0 -3 5 -19 9 -31l32 -107c-50 42 -92 56 -209 56h-316v-163h301c41 0 73 0 107 16l-47 -78c-21 -34 -25 -44 -115 -44h-246v-186h269c107 0 192 5 279 56z" />
    <glyph glyph-name="Egrave" unicode="&#xc8;" horiz-adv-x="808" 
d="M467 763c0 -18 -15 -31 -32 -31c-41 0 -151 82 -151 142c0 19 16 39 43 39c52 0 140 -106 140 -150zM778 162l-43 -110c-3 -7 -7 -20 -7 -25c0 -15 9 -21 16 -27h-706c46 19 62 59 62 137v390c0 80 -17 121 -62 140h685c-8 -7 -9 -13 -9 -18v-6c0 -3 5 -19 9 -31l32 -107
c-50 42 -92 56 -209 56h-316v-163h301c41 0 73 0 107 16l-47 -78c-21 -34 -25 -44 -115 -44h-246v-186h269c107 0 192 5 279 56z" />
    <glyph glyph-name="Iacute" unicode="&#xcd;" horiz-adv-x="329" 
d="M285 874c0 -60 -111 -142 -152 -142c-16 0 -31 12 -31 31c0 44 87 150 139 150c25 0 44 -19 44 -39zM286 0h-244c38 25 58 50 58 140v387c0 89 -20 116 -58 140h244c-34 -25 -56 -44 -56 -140v-387c0 -96 22 -115 56 -140z" />
    <glyph glyph-name="Icircumflex" unicode="&#xce;" horiz-adv-x="329" 
d="M367 800l-44 -80c-4 12 -11 17 -18 21l-140 89l-140 -89c-7 -5 -14 -9 -18 -21l-44 80h4c10 0 18 6 20 7l178 102l178 -102c5 -3 11 -7 21 -7h3zM287 0h-244c39 25 57 52 57 140v387c0 88 -18 115 -57 140h244c-34 -25 -57 -45 -57 -140v-387c0 -96 23 -115 57 -140z" />
    <glyph glyph-name="Idieresis" unicode="&#xcf;" horiz-adv-x="329" 
d="M333 820c0 -40 -33 -72 -71 -72c-39 0 -72 33 -72 71c0 39 33 71 73 71c38 0 70 -31 70 -70zM141 819c0 -38 -32 -71 -73 -71c-38 0 -70 31 -70 71c0 37 31 71 71 71c38 0 72 -30 72 -71zM287 0h-244c40 26 57 53 57 140v387c0 86 -16 114 -57 140h244
c-34 -25 -57 -45 -57 -140v-387c0 -96 23 -115 57 -140z" />
    <glyph glyph-name="Igrave" unicode="&#xcc;" horiz-adv-x="329" 
d="M227 763c0 -19 -15 -31 -31 -31c-41 0 -152 82 -152 142c0 19 18 39 44 39c52 0 139 -106 139 -150zM286 0h-244c38 25 58 50 58 140v387c0 89 -20 116 -58 140h244c-34 -25 -56 -44 -56 -140v-387c0 -96 22 -115 56 -140z" />
    <glyph glyph-name="Ntilde" unicode="&#xd1;" horiz-adv-x="836" 
d="M646 838c-42 -27 -85 -98 -160 -98c-20 0 -49 12 -74 31c-43 34 -64 53 -88 53c-28 0 -71 -33 -81 -68l-52 54c29 19 72 90 138 90c21 0 43 -9 63 -25c50 -40 70 -59 98 -59c34 0 91 40 101 81zM794 667c-39 -24 -58 -53 -58 -140v-477c0 -29 6 -38 20 -50h-195
c2 4 8 14 8 20c0 9 -9 22 -15 30l-337 447v-357c0 -95 23 -115 57 -140h-231c36 26 57 47 57 140v387c0 92 -21 115 -57 140h238c-4 -4 -11 -10 -11 -20c0 -13 11 -27 19 -38l330 -439v357c0 98 -24 115 -56 140h231z" />
    <glyph glyph-name="Oacute" unicode="&#xd3;" horiz-adv-x="863" 
d="M552 874c0 -60 -111 -142 -152 -142c-16 0 -31 12 -31 31c0 44 87 150 139 150c25 0 44 -19 44 -39zM824 336c0 -198 -136 -349 -394 -349c-231 0 -391 125 -391 355c0 51 16 111 41 158c63 117 187 180 364 180c232 0 380 -129 380 -344zM681 330
c0 162 -86 244 -241 244c-162 0 -258 -91 -258 -231c0 -162 87 -250 248 -250c157 0 251 97 251 237z" />
    <glyph glyph-name="Ocircumflex" unicode="&#xd4;" horiz-adv-x="863" 
d="M651 807l-39 -82c-5 11 -12 13 -21 18l-160 92l-159 -92c-9 -5 -16 -7 -21 -18l-40 82c3 0 6 -1 9 -1c5 0 13 3 16 5l195 101l195 -101c7 -4 13 -5 18 -5c2 0 5 1 7 1zM824 336c0 -198 -136 -349 -394 -349c-231 0 -391 125 -391 355c0 51 16 111 41 158
c63 117 187 180 364 180c232 0 380 -129 380 -344zM681 330c0 162 -86 244 -241 244c-162 0 -258 -91 -258 -231c0 -162 87 -250 248 -250c157 0 251 97 251 237z" />
    <glyph glyph-name="Odieresis" unicode="&#xd6;" horiz-adv-x="863" 
d="M613 820c0 -40 -33 -72 -71 -72c-40 0 -72 34 -72 71c0 39 32 71 72 71c38 0 71 -32 71 -70zM394 819c0 -38 -32 -71 -73 -71c-38 0 -70 31 -70 71c0 37 31 71 71 71c39 0 72 -31 72 -71zM824 336c0 -198 -136 -349 -394 -349c-231 0 -391 125 -391 355
c0 51 16 111 41 158c63 117 187 180 364 180c232 0 380 -129 380 -344zM681 330c0 162 -86 244 -241 244c-162 0 -258 -91 -258 -231c0 -162 87 -250 248 -250c157 0 251 97 251 237z" />
    <glyph glyph-name="Ograve" unicode="&#xd2;" horiz-adv-x="863" 
d="M494 763c0 -19 -15 -31 -31 -31c-41 0 -152 82 -152 142c0 19 18 39 44 39c52 0 139 -106 139 -150zM824 336c0 -198 -136 -349 -394 -349c-231 0 -391 125 -391 355c0 51 16 111 41 158c63 117 187 180 364 180c232 0 380 -129 380 -344zM681 330
c0 162 -86 244 -241 244c-162 0 -258 -91 -258 -231c0 -162 87 -250 248 -250c157 0 251 97 251 237z" />
    <glyph glyph-name="Otilde" unicode="&#xd5;" horiz-adv-x="863" 
d="M659 838c-42 -27 -85 -98 -160 -98c-20 0 -49 12 -74 31c-43 34 -64 53 -88 53c-28 0 -71 -33 -81 -68l-52 54c29 19 72 90 138 90c21 0 43 -9 63 -25c50 -40 70 -59 98 -59c34 0 91 40 101 81zM824 336c0 -198 -136 -349 -394 -349c-231 0 -391 125 -391 355
c0 51 16 111 41 158c63 117 187 180 364 180c232 0 380 -129 380 -344zM681 330c0 162 -86 244 -241 244c-162 0 -258 -91 -258 -231c0 -162 87 -250 248 -250c157 0 251 97 251 237z" />
    <glyph glyph-name="Scaron" unicode="&#x160;" horiz-adv-x="701" 
d="M577 829c-3 0 -5 1 -8 1c-5 0 -14 -3 -17 -5l-195 -100l-195 100c-7 3 -12 5 -18 5c-2 0 -4 -1 -7 -1l40 83c5 -11 13 -15 21 -19l159 -91l160 91c8 4 16 8 21 19zM670 207c0 -134 -126 -220 -308 -220c-107 0 -184 18 -222 18c-23 0 -39 -1 -59 -15l-41 194
c58 -39 179 -91 332 -91c89 0 155 43 155 105c0 114 -202 78 -364 136c-80 29 -115 70 -115 144c0 119 112 202 320 202c114 0 184 -19 238 -19c6 0 22 3 31 5l-25 -151c-74 39 -153 59 -238 59c-116 0 -190 -32 -190 -83c0 -59 75 -64 227 -88c155 -24 259 -60 259 -196z
" />
    <glyph glyph-name="Uacute" unicode="&#xda;" horiz-adv-x="831" 
d="M542 874c0 -60 -111 -142 -152 -142c-16 0 -31 12 -31 31c0 44 88 150 140 150c26 0 43 -19 43 -39zM801 667c-37 -24 -57 -49 -57 -140v-226c0 -15 1 -36 1 -50c0 -159 -116 -264 -338 -264c-86 0 -166 20 -215 51c-76 48 -102 121 -102 227v262c0 85 -17 116 -58 140
h244c-29 -25 -56 -37 -56 -140v-229c0 -65 2 -114 42 -155c32 -33 87 -50 156 -50c63 0 115 15 150 45c44 38 46 90 46 158v231c0 92 -21 115 -57 140h244z" />
    <glyph glyph-name="Ucircumflex" unicode="&#xdb;" horiz-adv-x="831" 
d="M635 807l-39 -82c-5 11 -13 13 -21 18l-160 92l-159 -92c-8 -5 -16 -7 -21 -18l-40 82c3 0 6 -1 9 -1c5 0 13 3 16 5l195 101l195 -101c7 -4 13 -5 18 -5c2 0 5 1 7 1zM801 667c-37 -24 -57 -49 -57 -140v-226c0 -15 1 -36 1 -50c0 -159 -116 -264 -338 -264
c-86 0 -166 20 -215 51c-76 48 -102 121 -102 227v262c0 85 -17 116 -58 140h244c-29 -25 -56 -37 -56 -140v-229c0 -65 2 -114 42 -155c32 -33 87 -50 156 -50c63 0 115 15 150 45c44 38 46 90 46 158v231c0 92 -21 115 -57 140h244z" />
    <glyph glyph-name="Udieresis" unicode="&#xdc;" horiz-adv-x="831" 
d="M603 820c0 -40 -32 -72 -71 -72s-72 33 -72 71c0 39 33 71 73 71c38 0 70 -32 70 -70zM384 819c0 -39 -32 -71 -72 -71c-38 0 -71 30 -71 71c0 37 30 71 71 71c39 0 72 -30 72 -71zM801 667c-37 -24 -57 -49 -57 -140v-226c0 -15 1 -36 1 -50c0 -159 -116 -264 -338 -264
c-86 0 -166 20 -215 51c-76 48 -102 121 -102 227v262c0 85 -17 116 -58 140h244c-29 -25 -56 -37 -56 -140v-229c0 -65 2 -114 42 -155c32 -33 87 -50 156 -50c63 0 115 15 150 45c44 38 46 90 46 158v231c0 92 -21 115 -57 140h244z" />
    <glyph glyph-name="Ugrave" unicode="&#xd9;" horiz-adv-x="831" 
d="M485 763c0 -19 -16 -31 -32 -31c-41 0 -151 82 -151 142c0 20 17 39 43 39c52 0 140 -106 140 -150zM801 667c-37 -24 -57 -49 -57 -140v-226c0 -15 1 -36 1 -50c0 -159 -116 -264 -338 -264c-86 0 -166 20 -215 51c-76 48 -102 121 -102 227v262c0 85 -17 116 -58 140
h244c-29 -25 -56 -37 -56 -140v-229c0 -65 2 -114 42 -155c32 -33 87 -50 156 -50c63 0 115 15 150 45c44 38 46 90 46 158v231c0 92 -21 115 -57 140h244z" />
    <glyph glyph-name="Yacute" unicode="&#xdd;" horiz-adv-x="823" 
d="M532 874c0 -60 -111 -142 -152 -142c-16 0 -31 12 -31 31c0 44 87 150 139 150c25 0 44 -19 44 -39zM834 667c-19 -15 -63 -44 -127 -132l-229 -316v-79c0 -97 24 -115 57 -140h-248c40 25 58 53 58 140v79l-217 308c-44 63 -83 111 -139 140h275c-16 -8 -26 -21 -26 -41
s13 -41 33 -70l151 -218l168 235c17 23 26 41 26 61c0 10 -8 24 -25 33h243z" />
    <glyph glyph-name="Ydieresis" unicode="&#x178;" horiz-adv-x="823" 
d="M606 820c0 -40 -32 -72 -71 -72c-40 0 -72 34 -72 71c0 39 32 71 72 71c38 0 71 -32 71 -70zM381 819c0 -38 -32 -71 -73 -71c-38 0 -70 31 -70 71c0 37 30 71 71 71c39 0 72 -30 72 -71zM834 667c-19 -15 -63 -44 -127 -132l-229 -316v-79c0 -97 24 -115 57 -140h-248
c40 25 58 53 58 140v79l-217 308c-44 63 -83 111 -139 140h275c-16 -8 -26 -21 -26 -41s13 -41 33 -70l151 -218l168 235c17 23 26 41 26 61c0 10 -8 24 -25 33h243z" />
    <glyph glyph-name="Zcaron" unicode="&#x17d;" horiz-adv-x="748" 
d="M610 829c-3 0 -5 1 -8 1c-5 0 -14 -3 -17 -5l-195 -100l-195 100c-7 3 -12 5 -18 5c-2 0 -4 -1 -7 -1l40 83c5 -11 14 -15 21 -19l159 -91l160 91c7 4 16 8 21 19zM728 151l-39 -112c-3 -9 -5 -15 -5 -20c0 -7 3 -12 10 -19h-670l450 561h-251c-95 0 -134 -17 -167 -49
l30 90c4 12 10 30 10 38c0 15 -4 20 -14 27h635l-453 -561h274c83 0 127 7 190 45z" />
    <glyph glyph-name="aacute" unicode="&#xe1;" horiz-adv-x="680" 
d="M456 670c0 -58 -106 -136 -145 -136c-14 0 -29 11 -29 30c0 42 82 143 132 143c24 0 42 -18 42 -37zM662 0h-82c-25 0 -53 0 -75 46c-35 -24 -83 -61 -224 -61c-153 0 -239 53 -239 141c0 29 7 50 26 72c69 82 210 87 424 95c-7 67 -37 103 -122 103
c-81 0 -205 -30 -292 -67l47 143c14 -8 25 -9 36 -9h6c43 0 119 20 217 20c92 0 157 -27 193 -84c25 -39 26 -81 26 -158v-108c0 -62 15 -106 59 -133zM494 214h-11c-204 0 -311 -24 -311 -87c0 -37 40 -55 117 -55c69 0 129 14 163 37c35 23 42 51 42 105z" />
    <glyph glyph-name="acircumflex" unicode="&#xe2;" horiz-adv-x="680" 
d="M560 605l-40 -78c-5 11 -13 14 -20 18l-160 87l-159 -87c-7 -4 -16 -7 -21 -18l-40 78h8c5 0 14 3 17 5l195 96l195 -96c8 -4 14 -5 20 -5h5zM662 0h-82c-25 0 -53 0 -75 46c-35 -24 -83 -61 -224 -61c-153 0 -239 53 -239 141c0 29 7 50 26 72c69 82 210 87 424 95
c-7 67 -37 103 -122 103c-81 0 -205 -30 -292 -67l47 143c14 -8 25 -9 36 -9h6c43 0 119 20 217 20c92 0 157 -27 193 -84c25 -39 26 -81 26 -158v-108c0 -62 15 -106 59 -133zM494 214h-11c-204 0 -311 -24 -311 -87c0 -37 40 -55 117 -55c69 0 129 14 163 37
c35 23 42 51 42 105z" />
    <glyph glyph-name="adieresis" unicode="&#xe4;" horiz-adv-x="680" 
d="M515 618c0 -38 -32 -68 -68 -68c-37 0 -68 30 -68 67c0 38 30 69 68 69c37 0 68 -32 68 -68zM302 617c0 -37 -31 -68 -69 -68c-36 0 -67 29 -67 68c0 36 29 68 68 68c38 0 68 -30 68 -68zM662 0h-82c-25 0 -53 0 -75 46c-35 -24 -83 -61 -224 -61
c-153 0 -239 53 -239 141c0 29 7 50 26 72c69 82 210 87 424 95c-7 67 -37 103 -122 103c-81 0 -205 -30 -292 -67l47 143c14 -8 25 -9 36 -9h6c43 0 119 20 217 20c92 0 157 -27 193 -84c25 -39 26 -81 26 -158v-108c0 -62 15 -106 59 -133zM494 214h-11
c-204 0 -311 -24 -311 -87c0 -37 40 -55 117 -55c69 0 129 14 163 37c35 23 42 51 42 105z" />
    <glyph glyph-name="agrave" unicode="&#xe0;" horiz-adv-x="680" 
d="M398 564c0 -18 -14 -30 -29 -30c-39 0 -145 78 -145 136c0 18 17 37 42 37c50 0 132 -101 132 -143zM662 0h-82c-25 0 -53 0 -75 46c-35 -24 -83 -61 -224 -61c-153 0 -239 53 -239 141c0 29 7 50 26 72c69 82 210 87 424 95c-7 67 -37 103 -122 103
c-81 0 -205 -30 -292 -67l47 143c14 -8 25 -9 36 -9h6c43 0 119 20 217 20c92 0 157 -27 193 -84c25 -39 26 -81 26 -158v-108c0 -62 15 -106 59 -133zM494 214h-11c-204 0 -311 -24 -311 -87c0 -37 40 -55 117 -55c69 0 129 14 163 37c35 23 42 51 42 105z" />
    <glyph glyph-name="aring" unicode="&#xe5;" horiz-adv-x="680" 
d="M441 628c0 -56 -45 -100 -101 -100c-55 0 -100 44 -100 101c0 55 44 100 100 100s101 -45 101 -101zM662 0h-82c-25 0 -53 0 -75 46c-35 -24 -83 -61 -224 -61c-153 0 -239 53 -239 141c0 29 7 50 26 72c69 82 210 87 424 95c-7 67 -37 103 -122 103
c-81 0 -205 -30 -292 -67l47 143c14 -8 25 -9 36 -9h6c43 0 119 20 217 20c92 0 157 -27 193 -84c25 -39 26 -81 26 -158v-108c0 -62 15 -106 59 -133zM382 628c0 23 -19 43 -42 43s-41 -20 -41 -43s19 -42 41 -42c23 0 42 19 42 42zM494 214h-11c-204 0 -311 -24 -311 -87
c0 -37 40 -55 117 -55c69 0 129 14 163 37c35 23 42 51 42 105z" />
    <glyph glyph-name="atilde" unicode="&#xe3;" horiz-adv-x="680" 
d="M567 636c-42 -25 -84 -94 -159 -94c-21 0 -49 11 -74 30c-43 32 -64 51 -88 51c-28 0 -71 -33 -81 -66l-52 52c29 18 73 86 138 86c21 0 43 -9 63 -24c49 -38 71 -57 98 -57c34 0 91 38 101 78zM662 0h-82c-25 0 -53 0 -75 46c-35 -24 -83 -61 -224 -61
c-153 0 -239 53 -239 141c0 29 7 50 26 72c69 82 210 87 424 95c-7 67 -37 103 -122 103c-81 0 -205 -30 -292 -67l47 143c14 -8 25 -9 36 -9h6c43 0 119 20 217 20c92 0 157 -27 193 -84c25 -39 26 -81 26 -158v-108c0 -62 15 -106 59 -133zM494 214h-11
c-204 0 -311 -24 -311 -87c0 -37 40 -55 117 -55c69 0 129 14 163 37c35 23 42 51 42 105z" />
    <glyph glyph-name="ccedilla" unicode="&#xe7;" horiz-adv-x="573" 
d="M539 477l-33 -137c-28 38 -84 56 -141 56c-131 0 -203 -60 -203 -164c0 -111 61 -160 183 -160c84 0 135 21 175 59v-134c-10 4 -16 6 -26 6c-15 0 -64 -13 -144 -18c58 -5 95 -23 95 -71c0 -51 -42 -89 -144 -89c-19 0 -57 4 -106 4c-9 0 -24 0 -35 -3l28 68
c34 -9 70 -13 105 -15h12c35 0 55 9 55 30c0 20 -25 32 -63 32c-17 0 -36 -2 -57 -7l23 54c-143 19 -224 106 -224 241c0 147 115 254 325 254c56 0 104 -15 146 -15c13 0 23 5 29 9z" />
    <glyph glyph-name="eacute" unicode="&#xe9;" horiz-adv-x="630" 
d="M431 670c0 -58 -105 -136 -144 -136c-15 0 -30 12 -30 30c0 41 83 143 133 143c24 0 41 -18 41 -37zM592 246c0 -19 0 -41 -2 -64c-12 8 -25 8 -35 8l-11 -1h-389c7 -76 75 -117 183 -117c100 0 178 17 229 50v-134c-9 5 -22 6 -40 6c-42 0 -109 -9 -200 -9
c-188 0 -288 83 -288 228c0 174 109 270 297 270c77 0 142 -22 189 -63c50 -43 67 -99 67 -174zM480 268c-5 85 -59 128 -140 128c-103 0 -164 -43 -183 -128h323z" />
    <glyph glyph-name="ecircumflex" unicode="&#xea;" horiz-adv-x="630" 
d="M535 605l-39 -78c-5 11 -14 14 -21 18l-160 87l-159 -87c-7 -4 -16 -7 -21 -18l-40 78h9c5 0 13 3 16 5l195 96l195 -96c8 -4 14 -5 20 -5h5zM592 246c0 -19 0 -41 -2 -64c-12 8 -25 8 -35 8l-11 -1h-389c7 -76 75 -117 183 -117c100 0 178 17 229 50v-134
c-9 5 -22 6 -40 6c-42 0 -109 -9 -200 -9c-188 0 -288 83 -288 228c0 174 109 270 297 270c77 0 142 -22 189 -63c50 -43 67 -99 67 -174zM480 268c-5 85 -59 128 -140 128c-103 0 -164 -43 -183 -128h323z" />
    <glyph glyph-name="edieresis" unicode="&#xeb;" horiz-adv-x="630" 
d="M490 618c0 -38 -32 -68 -68 -68c-38 0 -68 31 -68 67c0 38 31 69 69 69c37 0 67 -32 67 -68zM277 617c0 -37 -31 -68 -69 -68c-36 0 -67 30 -67 68c0 36 29 68 68 68c38 0 68 -30 68 -68zM592 246c0 -19 0 -41 -2 -64c-12 8 -25 8 -35 8l-11 -1h-389
c7 -76 75 -117 183 -117c100 0 178 17 229 50v-134c-9 5 -22 6 -40 6c-42 0 -109 -9 -200 -9c-188 0 -288 83 -288 228c0 174 109 270 297 270c77 0 142 -22 189 -63c50 -43 67 -99 67 -174zM480 268c-5 85 -59 128 -140 128c-103 0 -164 -43 -183 -128h323z" />
    <glyph glyph-name="egrave" unicode="&#xe8;" horiz-adv-x="630" 
d="M387 564c0 -18 -15 -30 -30 -30c-39 0 -144 78 -144 136c0 18 16 37 41 37c50 0 133 -101 133 -143zM592 246c0 -19 0 -41 -2 -64c-12 8 -25 8 -35 8l-11 -1h-389c7 -76 75 -117 183 -117c100 0 178 17 229 50v-134c-9 5 -22 6 -40 6c-42 0 -109 -9 -200 -9
c-188 0 -288 83 -288 228c0 174 109 270 297 270c77 0 142 -22 189 -63c50 -43 67 -99 67 -174zM480 268c-5 85 -59 128 -140 128c-103 0 -164 -43 -183 -128h323z" />
    <glyph glyph-name="iacute" unicode="&#xed;" horiz-adv-x="281" 
d="M255 670c0 -58 -106 -136 -145 -136c-15 0 -30 11 -30 30c0 42 83 143 133 143c24 0 42 -18 42 -37zM243 0h-206c42 32 47 64 47 113v241c0 48 -5 82 -47 113h177c-16 -13 -18 -26 -18 -54v-300c0 -51 6 -82 47 -113z" />
    <glyph glyph-name="icircumflex" unicode="&#xee;" horiz-adv-x="281" 
d="M279 605l-42 -70c-1 5 -3 12 -10 17l-100 80l-100 -80c-7 -5 -9 -12 -10 -17l-42 70h4c5 0 8 1 12 4l136 97l136 -97c2 -1 6 -4 11 -4h5zM243 0h-206c42 32 47 64 47 113v241c0 47 -5 81 -47 113h177c-15 -12 -18 -25 -18 -54v-300c0 -53 7 -82 47 -113z" />
    <glyph glyph-name="idieresis" unicode="&#xef;" horiz-adv-x="281" 
d="M293 618c0 -38 -31 -68 -68 -68c-38 0 -68 31 -68 67c0 38 30 69 68 69c37 0 68 -32 68 -68zM120 617c0 -36 -30 -68 -69 -68c-36 0 -67 29 -67 68c0 35 29 68 68 68c37 0 68 -30 68 -68zM242 0h-206c42 32 48 64 48 113v241c0 47 -6 81 -48 113h177
c-16 -13 -17 -28 -17 -54v-300c0 -49 4 -81 46 -113z" />
    <glyph glyph-name="igrave" unicode="&#xec;" horiz-adv-x="281" 
d="M201 564c0 -19 -14 -30 -29 -30c-39 0 -145 78 -145 136c0 18 18 37 42 37c50 0 132 -101 132 -143zM243 0h-206c42 32 47 64 47 113v241c0 47 -5 81 -47 113h177c-15 -12 -18 -25 -18 -54v-300c0 -51 6 -82 47 -113z" />
    <glyph glyph-name="ntilde" unicode="&#xf1;" horiz-adv-x="699" 
d="M577 636c-41 -25 -85 -94 -160 -94c-21 0 -49 11 -74 30c-44 32 -64 51 -88 51c-27 0 -71 -32 -81 -66l-52 52c29 18 73 86 138 86c21 0 43 -9 63 -24c48 -37 71 -57 98 -57c35 0 91 39 101 78zM668 0h-205c42 32 46 64 46 113v141c0 93 -21 142 -132 142
c-165 0 -180 -100 -180 -193v-90c0 -51 6 -82 46 -113h-205c39 33 47 57 47 113v241c0 53 -7 80 -47 113h100c24 0 31 1 43 13v-68c41 23 95 71 220 71c131 0 220 -59 220 -184v-186c0 -49 5 -81 47 -113z" />
    <glyph glyph-name="oacute" unicode="&#xf3;" horiz-adv-x="678" 
d="M455 670c0 -58 -105 -136 -144 -136c-15 0 -30 11 -30 30c0 42 83 143 133 143c24 0 41 -18 41 -37zM639 237c0 -156 -106 -252 -308 -252c-82 0 -161 24 -209 61c-59 46 -83 107 -83 191c0 153 121 246 313 246c175 0 287 -86 287 -246zM516 228c0 111 -58 168 -169 168
c-120 0 -185 -62 -185 -157c0 -105 64 -167 180 -167c118 0 174 68 174 156z" />
    <glyph glyph-name="ocircumflex" unicode="&#xf4;" horiz-adv-x="678" 
d="M559 605l-39 -78c-5 11 -14 14 -21 18l-160 87l-159 -87c-7 -4 -16 -7 -21 -18l-40 78h9c5 0 13 3 16 5l195 96l195 -96c8 -4 14 -5 20 -5h5zM639 237c0 -156 -106 -252 -308 -252c-82 0 -161 24 -209 61c-59 46 -83 107 -83 191c0 153 121 246 313 246
c175 0 287 -86 287 -246zM516 228c0 111 -58 168 -169 168c-120 0 -185 -62 -185 -157c0 -105 64 -167 180 -167c118 0 174 68 174 156z" />
    <glyph glyph-name="odieresis" unicode="&#xf6;" horiz-adv-x="678" 
d="M514 618c0 -38 -32 -68 -68 -68c-37 0 -68 30 -68 67c0 38 30 69 68 69c37 0 68 -31 68 -68zM301 617c0 -36 -30 -68 -69 -68c-36 0 -67 29 -67 68c0 36 29 68 68 68c37 0 68 -29 68 -68zM639 237c0 -156 -106 -252 -308 -252c-82 0 -161 24 -209 61
c-59 46 -83 107 -83 191c0 153 121 246 313 246c175 0 287 -86 287 -246zM516 228c0 111 -58 168 -169 168c-120 0 -185 -62 -185 -157c0 -105 64 -167 180 -167c118 0 174 68 174 156z" />
    <glyph glyph-name="ograve" unicode="&#xf2;" horiz-adv-x="678" 
d="M411 564c0 -18 -15 -30 -30 -30c-39 0 -144 78 -144 136c0 19 17 37 41 37c50 0 133 -102 133 -143zM639 237c0 -156 -106 -252 -308 -252c-82 0 -161 24 -209 61c-59 46 -83 107 -83 191c0 153 121 246 313 246c175 0 287 -86 287 -246zM516 228c0 111 -58 168 -169 168
c-120 0 -185 -62 -185 -157c0 -105 64 -167 180 -167c118 0 174 68 174 156z" />
    <glyph glyph-name="otilde" unicode="&#xf5;" horiz-adv-x="678" 
d="M567 636c-42 -25 -85 -94 -160 -94c-21 0 -49 11 -74 30c-43 32 -64 51 -88 51c-28 0 -71 -33 -81 -66l-52 52c29 18 73 86 138 86c21 0 43 -9 63 -24c48 -37 71 -57 98 -57c35 0 91 39 101 78zM639 237c0 -156 -106 -252 -308 -252c-82 0 -161 24 -209 61
c-59 46 -83 107 -83 191c0 153 121 246 313 246c175 0 287 -86 287 -246zM516 228c0 111 -58 168 -169 168c-120 0 -185 -62 -185 -157c0 -105 64 -167 180 -167c118 0 174 68 174 156z" />
    <glyph glyph-name="scaron" unicode="&#x161;" horiz-adv-x="627" 
d="M534 627c-3 0 -6 1 -9 1c-5 0 -13 -3 -16 -5l-195 -96l-195 96c-7 3 -13 5 -18 5c-3 0 -5 -1 -7 -1l39 79c5 -11 12 -13 21 -18l160 -87l159 87c8 4 16 7 21 18zM579 150c0 -119 -97 -168 -280 -168c-70 0 -130 15 -172 15c-22 0 -34 -5 -46 -19l-28 162
c82 -49 185 -71 270 -71c92 0 137 27 137 67c0 51 -69 51 -212 62c-127 9 -198 43 -198 122c0 34 2 64 31 97c44 50 126 70 245 70c99 0 176 -21 219 -21c6 0 11 0 15 1l-40 -116c-59 32 -127 49 -196 49c-105 0 -159 -18 -159 -57c0 -48 70 -48 211 -58
c139 -10 203 -50 203 -135z" />
    <glyph glyph-name="uacute" unicode="&#xfa;" horiz-adv-x="698" 
d="M465 670c0 -58 -105 -136 -144 -136c-15 0 -30 11 -30 30c0 41 83 143 133 143c24 0 41 -18 41 -37zM661 0h-101c-33 0 -42 22 -49 49c-55 -42 -140 -65 -198 -65c-73 0 -133 11 -178 44c-54 39 -57 94 -57 159v167c0 48 -5 82 -47 113h173c-8 -8 -14 -18 -14 -32v-248
c0 -74 26 -116 132 -116c74 0 131 24 159 62c20 27 21 54 21 81v140c0 47 -4 81 -47 113h177c-18 -15 -18 -25 -18 -57v-297c0 -51 6 -82 47 -113z" />
    <glyph glyph-name="ucircumflex" unicode="&#xfb;" horiz-adv-x="698" 
d="M569 605l-39 -78c-5 11 -14 14 -21 18l-160 87l-159 -87c-7 -4 -16 -7 -21 -18l-39 78h8c5 0 13 3 16 5l195 96l195 -96c8 -4 14 -5 20 -5h5zM661 0h-101c-33 0 -42 22 -49 49c-55 -42 -140 -65 -198 -65c-73 0 -133 11 -178 44c-54 39 -57 94 -57 159v167
c0 48 -5 82 -47 113h173c-8 -8 -14 -18 -14 -32v-248c0 -74 26 -116 132 -116c74 0 131 24 159 62c20 27 21 54 21 81v140c0 47 -4 81 -47 113h177c-18 -15 -18 -25 -18 -57v-297c0 -51 6 -82 47 -113z" />
    <glyph glyph-name="udieresis" unicode="&#xfc;" horiz-adv-x="698" 
d="M524 618c0 -38 -31 -68 -67 -68c-38 0 -69 31 -69 67c0 38 32 69 69 69s67 -32 67 -68zM312 617c0 -36 -30 -68 -69 -68c-36 0 -67 29 -67 68c0 36 28 68 67 68c37 0 69 -30 69 -68zM661 0h-101c-33 0 -42 22 -49 49c-55 -42 -140 -65 -198 -65c-73 0 -133 11 -178 44
c-54 39 -57 94 -57 159v167c0 48 -5 82 -47 113h173c-8 -8 -14 -18 -14 -32v-248c0 -74 26 -116 132 -116c74 0 131 24 159 62c20 27 21 54 21 81v140c0 47 -4 81 -47 113h177c-18 -15 -18 -25 -18 -57v-297c0 -51 6 -82 47 -113z" />
    <glyph glyph-name="ugrave" unicode="&#xf9;" horiz-adv-x="698" 
d="M421 564c0 -18 -14 -30 -30 -30c-39 0 -144 79 -144 136c0 18 16 37 41 37c50 0 133 -101 133 -143zM661 0h-101c-33 0 -42 22 -49 49c-55 -42 -140 -65 -198 -65c-73 0 -133 11 -178 44c-54 39 -57 94 -57 159v167c0 48 -5 82 -47 113h173c-8 -8 -14 -18 -14 -32v-248
c0 -74 26 -116 132 -116c74 0 131 24 159 62c20 27 21 54 21 81v140c0 47 -4 81 -47 113h177c-18 -15 -18 -25 -18 -57v-297c0 -51 6 -82 47 -113z" />
    <glyph glyph-name="yacute" unicode="&#xfd;" horiz-adv-x="639" 
d="M435 670c0 -57 -105 -136 -144 -136c-16 0 -30 12 -30 30c0 42 83 143 133 143c24 0 41 -18 41 -37zM655 467c-51 -62 -87 -114 -116 -159l-201 -313c-28 -43 -45 -78 -45 -107c0 -16 7 -25 13 -33h-226c58 38 112 93 151 153l37 56l-175 261c-25 38 -57 89 -114 142h212
c-10 -10 -16 -18 -16 -35c0 -19 12 -40 25 -60l134 -202l125 192c21 33 37 57 37 77c0 14 -7 22 -15 28h174z" />
    <glyph glyph-name="ydieresis" unicode="&#xff;" horiz-adv-x="639" 
d="M501 618c0 -38 -32 -68 -68 -68c-38 0 -68 31 -68 67c0 37 30 69 68 69c37 0 68 -31 68 -68zM288 617c0 -37 -31 -68 -69 -68c-36 0 -67 30 -67 68c0 35 29 68 68 68c37 0 68 -29 68 -68zM655 467c-51 -62 -87 -114 -116 -159l-201 -313c-28 -43 -45 -78 -45 -107
c0 -16 7 -25 13 -33h-226c58 38 112 93 151 153l37 56l-175 261c-25 38 -57 89 -114 142h212c-10 -10 -16 -18 -16 -35c0 -19 12 -40 25 -60l134 -202l125 192c21 33 37 57 37 77c0 14 -7 22 -15 28h174z" />
    <glyph glyph-name="zcaron" unicode="&#x17e;" horiz-adv-x="565" 
d="M503 627c-3 0 -5 1 -8 1c-5 0 -14 -3 -17 -5l-195 -96l-195 96c-7 3 -13 5 -18 5c-3 0 -5 -1 -7 -1l40 79c5 -11 12 -13 21 -18l159 -87l160 87c8 5 16 7 21 18zM555 129l-25 -84c-2 -6 -6 -19 -6 -28c0 -5 7 -14 9 -17h-521l313 372h-130c-109 0 -145 -20 -173 -34
l28 76c3 7 7 19 7 30c0 10 -8 19 -12 24h488l-303 -376h187c65 0 108 12 138 37z" />
    <glyph glyph-name="uni00A0" unicode="&#xa0;" 
 />
    <glyph glyph-name="uni00AD" unicode="&#xad;" horiz-adv-x="323" 
d="M323 321l-30 -74c-18 -44 -32 -56 -84 -56h-134c-36 0 -54 -5 -75 -19l24 62c20 52 40 57 85 57h102c61 0 76 3 112 30z" />
    <glyph glyph-name="uni02C9" unicode="&#x2c9;" horiz-adv-x="500" 
d="M441 672l-27 -51c-10 -18 -23 -38 -63 -38h-224c-24 0 -43 -1 -67 -13l21 42c14 27 29 39 64 39h195c47 0 65 0 101 21z" />
    <glyph glyph-name="uni03A9" unicode="&#x3a9;" horiz-adv-x="849" 
d="M802 0h-303v155c113 39 155 156 155 250c0 184 -98 267 -228 267c-163 0 -237 -114 -237 -266c0 -126 64 -232 174 -257v-149h-317v172h32c0 -44 3 -90 82 -90h153v33c-137 29 -260 130 -260 291c0 188 156 306 374 306c239 0 370 -139 370 -303
c0 -131 -95 -249 -248 -289v-38h139c79 0 82 46 82 90h32v-172z" />
    <glyph glyph-name="uni03BC" unicode="&#x3bc;" horiz-adv-x="698" 
d="M661 0h-101c-33 0 -42 22 -49 49c-54 -42 -139 -65 -198 -65c-57 0 -112 15 -143 44v-100c0 -29 1 -52 20 -73h-132c14 16 20 38 20 60v439c0 48 -5 82 -47 113h173c-8 -8 -14 -18 -14 -32v-248c0 -74 26 -116 132 -116c74 0 131 24 159 62c20 27 21 54 21 81v140
c0 47 -4 81 -47 113h177c-18 -15 -18 -25 -18 -57v-297c0 -51 6 -82 47 -113z" />
    <glyph glyph-name="pi" unicode="&#x3c0;" horiz-adv-x="553" 
d="M523 108c-15 -60 -44 -120 -93 -120c-27 0 -46 11 -59 31c-19 28 -24 77 -24 123v245h-127v-170c0 -93 -13 -158 -41 -195c-17 -21 -39 -34 -67 -34c-19 0 -38 14 -38 36s12 38 35 45c56 12 64 69 64 168v150h-35c-43 0 -63 -15 -74 -60l-29 8c3 94 44 147 128 147h343
v-95h-112v-195c0 -48 5 -81 13 -100c9 -19 21 -27 36 -27c28 0 43 29 57 60z" />
    <glyph glyph-name="Euro" unicode="&#x20ac;" 
d="M688 662l-49 -141c-38 30 -88 62 -183 62c-116 0 -184 -57 -214 -140h234c36 0 60 8 83 18l-26 -67c-12 -30 -24 -30 -65 -30h-243c-1 -12 -2 -25 -2 -38c0 -8 0 -16 1 -23h206c36 0 61 8 84 18l-27 -67c-12 -30 -22 -31 -64 -31h-187c17 -82 94 -139 219 -139
c79 0 141 27 203 66v-145c-5 8 -9 10 -21 10c-46 0 -87 -28 -202 -28c-186 0 -299 84 -332 236h-6c-28 0 -47 0 -87 -14l20 54c14 38 26 40 50 40h13v19c0 14 1 28 2 42c-27 0 -49 0 -85 -15l20 54c14 38 24 40 60 40h19c44 158 170 237 330 237c119 0 191 -25 212 -25
c17 0 28 3 37 7z" />
    <glyph glyph-name="litre" unicode="&#x2113;" horiz-adv-x="422" 
d="M414 122c-27 -79 -75 -134 -158 -134c-42 0 -76 11 -102 37c-28 28 -43 77 -43 126v53c-17 -17 -52 -48 -70 -64l-24 32c21 19 68 59 94 87v215c0 149 70 238 164 238c73 0 99 -49 99 -104c0 -73 -37 -151 -79 -214c-20 -27 -47 -64 -60 -78v-182c0 -60 24 -90 56 -90
c41 0 68 43 85 92zM334 607c0 29 -10 62 -45 62c-33 0 -54 -40 -54 -130v-157c7 9 22 31 36 53c37 54 63 122 63 172z" />
    <glyph glyph-name="Omega" unicode="&#x2126;" horiz-adv-x="849" 
d="M802 0h-303v155c113 39 155 156 155 250c0 184 -98 267 -228 267c-163 0 -237 -114 -237 -266c0 -126 64 -232 174 -257v-149h-317v172h32c0 -44 3 -90 82 -90h153v33c-137 29 -260 130 -260 291c0 188 156 306 374 306c239 0 370 -139 370 -303
c0 -131 -95 -249 -248 -289v-38h139c79 0 82 46 82 90h32v-172z" />
    <glyph glyph-name="estimated" unicode="&#x212e;" horiz-adv-x="681" 
d="M648 310h-477v-221c46 -45 102 -69 169 -69c114 0 185 61 236 144l32 -19c-62 -93 -135 -157 -268 -157c-184 0 -302 146 -302 323c0 178 115 323 304 323c191 0 303 -146 306 -324zM513 343v189c-43 41 -106 70 -171 70c-67 0 -127 -23 -171 -69v-190h342z" />
    <glyph glyph-name="partialdiff" unicode="&#x2202;" horiz-adv-x="574" 
d="M550 482c0 -74 -25 -185 -57 -256c-67 -153 -157 -239 -272 -239c-106 0 -189 73 -189 204c0 156 116 275 274 275c93 0 148 -53 168 -92h3c4 25 4 53 4 80c0 83 -40 194 -164 194c-74 0 -126 -30 -170 -70l-21 24c48 59 124 122 231 122c121 0 193 -85 193 -242z
M466 323c-16 42 -61 95 -130 95c-94 0 -185 -98 -185 -249c0 -83 48 -131 105 -131c105 0 180 153 210 285z" />
    <glyph glyph-name="Delta" unicode="&#x2206;" horiz-adv-x="667" 
d="M649 0h-635l297 712h56zM499 48l-198 496l-209 -496h407z" />
    <glyph glyph-name="product" unicode="&#x220f;" horiz-adv-x="751" 
d="M713 -131h-277v32h20c52 0 57 40 57 81v671h-277v-671c0 -41 5 -81 57 -81h19v-32h-275v32h19c52 0 57 40 57 81v605c0 43 -4 81 -57 81h-19v32h676v-32h-18c-54 0 -58 -38 -58 -81v-605c0 -42 5 -81 58 -81h18v-32z" />
    <glyph glyph-name="summation" unicode="&#x2211;" horiz-adv-x="582" 
d="M564 53l-19 -184h-552l-2 37l274 363l-263 395v36h525l11 -155h-31c-9 82 -28 107 -95 107h-268l219 -329l-268 -356h336c78 0 90 26 101 90z" />
    <glyph glyph-name="uni2215" unicode="&#x2215;" horiz-adv-x="399" 
d="M491 668c-25 -15 -38 -33 -56 -63l-332 -553c-6 -11 -16 -31 -16 -39c0 -5 4 -11 6 -13h-118c33 19 43 41 60 70l330 549c7 11 15 26 15 29c0 4 1 6 1 9s-1 6 -8 11h118z" />
    <glyph glyph-name="uni2219" unicode="&#x2219;" 
d="M412 332c0 -34 -28 -62 -62 -62s-61 28 -61 62s26 62 61 62c34 0 62 -27 62 -62z" />
    <glyph glyph-name="radical" unicode="&#x221a;" horiz-adv-x="503" 
d="M403 728l-123 -740h-56l-130 333l-57 -34l-20 32l114 70l120 -315h3l112 654h37z" />
    <glyph glyph-name="infinity" unicode="&#x221e;" horiz-adv-x="773" 
d="M568 112c-92 0 -134 50 -169 115h-2c-38 -62 -93 -115 -182 -115c-92 0 -161 70 -161 167c0 100 66 170 158 170s136 -61 164 -113h2c42 70 95 113 184 113c90 0 160 -68 160 -166c0 -99 -69 -171 -154 -171zM569 404h1c-83 0 -111 -68 -150 -138
c33 -70 76 -109 147 -109c76 0 113 66 113 124c0 67 -35 123 -111 123zM214 404c-67 0 -118 -48 -118 -124c0 -72 42 -123 115 -123c77 0 116 89 144 142c-25 50 -67 105 -141 105z" />
    <glyph glyph-name="integral" unicode="&#x222b;" horiz-adv-x="295" 
d="M295 694c0 -16 -8 -40 -34 -40c-14 0 -22 4 -36 16c-10 7 -17 11 -29 11c-16 0 -24 -13 -25 -37c-1 -30 8 -67 15 -122c9 -58 17 -165 17 -252c0 -80 -1 -171 -11 -246c-6 -58 -14 -118 -29 -156c-17 -45 -45 -79 -97 -79c-40 0 -69 24 -69 53c0 22 13 40 39 40
c13 0 20 -5 31 -15c7 -7 18 -11 28 -11c14 0 24 9 25 39c2 24 -8 88 -16 145c-8 70 -13 166 -13 228c0 66 1 133 7 201c6 72 15 156 29 197c20 55 54 81 98 81c43 0 70 -25 70 -53z" />
    <glyph glyph-name="approxequal" unicode="&#x2248;" 
d="M626 479c-26 -89 -77 -163 -161 -163c-44 0 -77 9 -141 37c-34 15 -68 27 -91 27c-47 0 -78 -14 -104 -82l-55 23c30 91 75 162 164 162c47 0 92 -18 126 -32c54 -25 77 -32 109 -32c49 0 75 25 99 82zM626 299c-26 -87 -77 -162 -161 -162c-44 0 -77 9 -141 37
c-34 15 -68 27 -91 27c-47 0 -78 -14 -104 -83l-55 24c30 92 75 163 164 163c47 0 92 -18 126 -33c54 -24 77 -32 109 -32c49 0 75 25 99 83z" />
    <glyph glyph-name="notequal" unicode="&#x2260;" 
d="M595 183h-266l-85 -151h-94l85 151h-131v86h178l46 81h-224v86h270l83 146h94l-83 -146h127v-86h-174l-45 -81h219v-86z" />
    <glyph glyph-name="lessequal" unicode="&#x2264;" 
d="M595 0h-491v86h491v-86zM595 133l-491 183v93l491 184v-91l-377 -139l377 -138v-92z" />
    <glyph glyph-name="greaterequal" unicode="&#x2265;" 
d="M595 0h-491v86h491v-86zM595 316l-491 -184v92l377 138l-377 138v92l491 -183v-93z" />
    <glyph glyph-name="lozenge" unicode="&#x25ca;" horiz-adv-x="456" 
d="M449 349l-194 -361h-54l-193 361l193 363h54zM394 349l-166 310l-166 -310l166 -308z" />
    </font>
</defs>
</svg>
